<?xml version="1.0" encoding="utf-8" standalone="no"?>
<!DOCTYPE svg PUBLIC "-//W3C//DTD SVG 1.1//EN"
  "http://www.w3.org/Graphics/SVG/1.1/DTD/svg11.dtd">
<svg height="504pt" version="1.1" viewBox="0 0 1080 504" width="1080pt" xmlns="http://www.w3.org/2000/svg" xmlns:xlink="http://www.w3.org/1999/xlink">
 <metadata>
  <rdf:RDF xmlns:cc="http://creativecommons.org/ns#" xmlns:dc="http://purl.org/dc/elements/1.1/" xmlns:rdf="http://www.w3.org/1999/02/22-rdf-syntax-ns#">
   <cc:Work>
    <dc:type rdf:resource="http://purl.org/dc/dcmitype/StillImage"/>
    <dc:date>2022-04-03T09:34:01.884449</dc:date>
    <dc:format>image/svg+xml</dc:format>
    <dc:creator>
     <cc:Agent>
      <dc:title>Matplotlib v3.4.3, https://matplotlib.org/</dc:title>
     </cc:Agent>
    </dc:creator>
   </cc:Work>
  </rdf:RDF>
 </metadata>
 <defs>
  <style type="text/css">*{stroke-linecap:butt;stroke-linejoin:round;}</style>
 </defs>
 <g id="figure_1">
  <g id="patch_1">
   <path d="M 0 504 
L 1080 504 
L 1080 0 
L 0 0 
z
" style="fill:#ffffff;"/>
  </g>
  <g id="axes_1">
   <g id="patch_2">
    <path d="M 10.8 493.2 
L 1069.2 493.2 
L 1069.2 10.8 
L 10.8 10.8 
z
" style="fill:#ffffff;"/>
   </g>
   <g id="LineCollection_1">
    <path clip-path="url(#p3bb36935ce)" d="M 524.91878 409.372771 
L 555.08122 451.338843 
" style="fill:none;stroke:#000000;stroke-width:0.4;"/>
    <path clip-path="url(#p3bb36935ce)" d="M 524.91878 409.372771 
L 494.756341 388.389735 
" style="fill:none;stroke:#000000;stroke-width:0.4;"/>
    <path clip-path="url(#p3bb36935ce)" d="M 494.756341 388.389735 
L 464.593901 325.440626 
" style="fill:none;stroke:#000000;stroke-width:0.4;"/>
    <path clip-path="url(#p3bb36935ce)" d="M 464.593901 325.440626 
L 434.431462 241.508482 
" style="fill:none;stroke:#000000;stroke-width:0.4;"/>
    <path clip-path="url(#p3bb36935ce)" d="M 434.431462 241.508482 
L 404.269023 220.525446 
" style="fill:none;stroke:#000000;stroke-width:0.4;"/>
    <path clip-path="url(#p3bb36935ce)" d="M 404.269023 220.525446 
L 374.106583 220.525446 
" style="fill:none;stroke:#000000;stroke-width:0.4;"/>
    <path clip-path="url(#p3bb36935ce)" d="M 374.106583 220.525446 
L 343.944144 220.525446 
" style="fill:none;stroke:#000000;stroke-width:0.4;"/>
    <path clip-path="url(#p3bb36935ce)" d="M 343.944144 220.525446 
L 313.781704 199.54241 
" style="fill:none;stroke:#000000;stroke-width:0.4;"/>
    <path clip-path="url(#p3bb36935ce)" d="M 313.781704 199.54241 
L 283.619265 199.54241 
" style="fill:none;stroke:#000000;stroke-width:0.4;"/>
    <path clip-path="url(#p3bb36935ce)" d="M 283.619265 199.54241 
L 253.456825 157.576338 
" style="fill:none;stroke:#000000;stroke-width:0.4;"/>
    <path clip-path="url(#p3bb36935ce)" d="M 253.456825 157.576338 
L 223.294386 157.576338 
" style="fill:none;stroke:#000000;stroke-width:0.4;"/>
    <path clip-path="url(#p3bb36935ce)" d="M 223.294386 157.576338 
L 193.131946 157.576338 
" style="fill:none;stroke:#000000;stroke-width:0.4;"/>
    <path clip-path="url(#p3bb36935ce)" d="M 193.131946 157.576338 
L 162.969507 136.593301 
" style="fill:none;stroke:#000000;stroke-width:0.4;"/>
    <path clip-path="url(#p3bb36935ce)" d="M 162.969507 136.593301 
L 132.807068 136.593301 
" style="fill:none;stroke:#000000;stroke-width:0.4;"/>
    <path clip-path="url(#p3bb36935ce)" d="M 132.807068 136.593301 
L 102.644628 136.593301 
" style="fill:none;stroke:#000000;stroke-width:0.4;"/>
    <path clip-path="url(#p3bb36935ce)" d="M 102.644628 136.593301 
L 585.243659 52.661157 
" style="fill:none;stroke:#000000;stroke-width:0.4;"/>
    <path clip-path="url(#p3bb36935ce)" d="M 645.568538 388.389735 
L 615.406099 409.372771 
" style="fill:none;stroke:#000000;stroke-width:0.4;"/>
    <path clip-path="url(#p3bb36935ce)" d="M 645.568538 388.389735 
L 675.730977 367.406699 
" style="fill:none;stroke:#000000;stroke-width:0.4;"/>
    <path clip-path="url(#p3bb36935ce)" d="M 675.730977 367.406699 
L 705.893417 346.423662 
" style="fill:none;stroke:#000000;stroke-width:0.4;"/>
    <path clip-path="url(#p3bb36935ce)" d="M 705.893417 346.423662 
L 736.055856 325.440626 
" style="fill:none;stroke:#000000;stroke-width:0.4;"/>
    <path clip-path="url(#p3bb36935ce)" d="M 736.055856 325.440626 
L 766.218296 304.45759 
" style="fill:none;stroke:#000000;stroke-width:0.4;"/>
    <path clip-path="url(#p3bb36935ce)" d="M 766.218296 304.45759 
L 796.380735 283.474554 
" style="fill:none;stroke:#000000;stroke-width:0.4;"/>
    <path clip-path="url(#p3bb36935ce)" d="M 796.380735 283.474554 
L 826.543175 262.491518 
" style="fill:none;stroke:#000000;stroke-width:0.4;"/>
    <path clip-path="url(#p3bb36935ce)" d="M 826.543175 262.491518 
L 856.705614 220.525446 
" style="fill:none;stroke:#000000;stroke-width:0.4;"/>
    <path clip-path="url(#p3bb36935ce)" d="M 856.705614 220.525446 
L 886.868054 178.559374 
" style="fill:none;stroke:#000000;stroke-width:0.4;"/>
    <path clip-path="url(#p3bb36935ce)" d="M 886.868054 178.559374 
L 917.030493 157.576338 
" style="fill:none;stroke:#000000;stroke-width:0.4;"/>
    <path clip-path="url(#p3bb36935ce)" d="M 917.030493 157.576338 
L 947.192932 94.627229 
" style="fill:none;stroke:#000000;stroke-width:0.4;"/>
    <path clip-path="url(#p3bb36935ce)" d="M 947.192932 94.627229 
L 977.355372 73.644193 
" style="fill:none;stroke:#000000;stroke-width:0.4;"/>
    <path clip-path="url(#p3bb36935ce)" d="M 977.355372 73.644193 
L 585.243659 52.661157 
" style="fill:none;stroke:#000000;stroke-width:0.4;"/>
   </g>
   <g id="matplotlib.axis_1">
    <g id="xtick_1"/>
    <g id="xtick_2"/>
    <g id="xtick_3"/>
    <g id="xtick_4"/>
    <g id="xtick_5"/>
    <g id="xtick_6"/>
    <g id="xtick_7"/>
   </g>
   <g id="matplotlib.axis_2">
    <g id="ytick_1"/>
    <g id="ytick_2"/>
    <g id="ytick_3"/>
    <g id="ytick_4"/>
    <g id="ytick_5"/>
   </g>
   <g id="PathCollection_1">
    <path clip-path="url(#p3bb36935ce)" d="M 524.91878 414.372771 
C 526.244796 414.372771 527.51668 413.845939 528.454314 412.908305 
C 529.391949 411.97067 529.91878 410.698786 529.91878 409.372771 
C 529.91878 408.046755 529.391949 406.774871 528.454314 405.837237 
C 527.51668 404.899602 526.244796 404.372771 524.91878 404.372771 
C 523.592765 404.372771 522.320881 404.899602 521.383246 405.837237 
C 520.445612 406.774871 519.91878 408.046755 519.91878 409.372771 
C 519.91878 410.698786 520.445612 411.97067 521.383246 412.908305 
C 522.320881 413.845939 523.592765 414.372771 524.91878 414.372771 
z
" style="fill:#0000ff;stroke:#000000;stroke-width:0.4;"/>
    <path clip-path="url(#p3bb36935ce)" d="M 555.08122 456.338843 
C 556.407235 456.338843 557.679119 455.812011 558.616754 454.874377 
C 559.554388 453.936742 560.08122 452.664858 560.08122 451.338843 
C 560.08122 450.012827 559.554388 448.740944 558.616754 447.803309 
C 557.679119 446.865675 556.407235 446.338843 555.08122 446.338843 
C 553.755204 446.338843 552.48332 446.865675 551.545686 447.803309 
C 550.608051 448.740944 550.08122 450.012827 550.08122 451.338843 
C 550.08122 452.664858 550.608051 453.936742 551.545686 454.874377 
C 552.48332 455.812011 553.755204 456.338843 555.08122 456.338843 
z
" style="fill:#0000ff;stroke:#000000;stroke-width:0.4;"/>
    <path clip-path="url(#p3bb36935ce)" d="M 494.756341 393.389735 
C 496.082356 393.389735 497.35424 392.862903 498.291875 391.925269 
C 499.229509 390.987634 499.756341 389.71575 499.756341 388.389735 
C 499.756341 387.063719 499.229509 385.791835 498.291875 384.854201 
C 497.35424 383.916566 496.082356 383.389735 494.756341 383.389735 
C 493.430325 383.389735 492.158441 383.916566 491.220807 384.854201 
C 490.283172 385.791835 489.756341 387.063719 489.756341 388.389735 
C 489.756341 389.71575 490.283172 390.987634 491.220807 391.925269 
C 492.158441 392.862903 493.430325 393.389735 494.756341 393.389735 
z
" style="fill:#0000ff;stroke:#000000;stroke-width:0.4;"/>
    <path clip-path="url(#p3bb36935ce)" d="M 464.593901 330.440626 
C 465.919917 330.440626 467.191801 329.913795 468.129435 328.97616 
C 469.06707 328.038526 469.593901 326.766642 469.593901 325.440626 
C 469.593901 324.114611 469.06707 322.842727 468.129435 321.905092 
C 467.191801 320.967458 465.919917 320.440626 464.593901 320.440626 
C 463.267886 320.440626 461.996002 320.967458 461.058367 321.905092 
C 460.120733 322.842727 459.593901 324.114611 459.593901 325.440626 
C 459.593901 326.766642 460.120733 328.038526 461.058367 328.97616 
C 461.996002 329.913795 463.267886 330.440626 464.593901 330.440626 
z
" style="fill:#0000ff;stroke:#000000;stroke-width:0.4;"/>
    <path clip-path="url(#p3bb36935ce)" d="M 434.431462 246.508482 
C 435.757477 246.508482 437.029361 245.98165 437.966996 245.044016 
C 438.90463 244.106381 439.431462 242.834497 439.431462 241.508482 
C 439.431462 240.182466 438.90463 238.910583 437.966996 237.972948 
C 437.029361 237.035313 435.757477 236.508482 434.431462 236.508482 
C 433.105446 236.508482 431.833563 237.035313 430.895928 237.972948 
C 429.958293 238.910583 429.431462 240.182466 429.431462 241.508482 
C 429.431462 242.834497 429.958293 244.106381 430.895928 245.044016 
C 431.833563 245.98165 433.105446 246.508482 434.431462 246.508482 
z
" style="fill:#0000ff;stroke:#000000;stroke-width:0.4;"/>
    <path clip-path="url(#p3bb36935ce)" d="M 404.269023 225.525446 
C 405.595038 225.525446 406.866922 224.998614 407.804556 224.06098 
C 408.742191 223.123345 409.269023 221.851461 409.269023 220.525446 
C 409.269023 219.19943 408.742191 217.927546 407.804556 216.989912 
C 406.866922 216.052277 405.595038 215.525446 404.269023 215.525446 
C 402.943007 215.525446 401.671123 216.052277 400.733489 216.989912 
C 399.795854 217.927546 399.269023 219.19943 399.269023 220.525446 
C 399.269023 221.851461 399.795854 223.123345 400.733489 224.06098 
C 401.671123 224.998614 402.943007 225.525446 404.269023 225.525446 
z
" style="fill:#0000ff;stroke:#000000;stroke-width:0.4;"/>
    <path clip-path="url(#p3bb36935ce)" d="M 374.106583 225.525446 
C 375.432599 225.525446 376.704482 224.998614 377.642117 224.06098 
C 378.579752 223.123345 379.106583 221.851461 379.106583 220.525446 
C 379.106583 219.19943 378.579752 217.927546 377.642117 216.989912 
C 376.704482 216.052277 375.432599 215.525446 374.106583 215.525446 
C 372.780568 215.525446 371.508684 216.052277 370.571049 216.989912 
C 369.633415 217.927546 369.106583 219.19943 369.106583 220.525446 
C 369.106583 221.851461 369.633415 223.123345 370.571049 224.06098 
C 371.508684 224.998614 372.780568 225.525446 374.106583 225.525446 
z
" style="stroke:#000000;stroke-width:0.4;"/>
    <path clip-path="url(#p3bb36935ce)" d="M 343.944144 225.525446 
C 345.270159 225.525446 346.542043 224.998614 347.479678 224.06098 
C 348.417312 223.123345 348.944144 221.851461 348.944144 220.525446 
C 348.944144 219.19943 348.417312 217.927546 347.479678 216.989912 
C 346.542043 216.052277 345.270159 215.525446 343.944144 215.525446 
C 342.618128 215.525446 341.346244 216.052277 340.40861 216.989912 
C 339.470975 217.927546 338.944144 219.19943 338.944144 220.525446 
C 338.944144 221.851461 339.470975 223.123345 340.40861 224.06098 
C 341.346244 224.998614 342.618128 225.525446 343.944144 225.525446 
z
" style="stroke:#000000;stroke-width:0.4;"/>
    <path clip-path="url(#p3bb36935ce)" d="M 313.781704 204.54241 
C 315.10772 204.54241 316.379604 204.015578 317.317238 203.077944 
C 318.254873 202.140309 318.781704 200.868425 318.781704 199.54241 
C 318.781704 198.216394 318.254873 196.94451 317.317238 196.006876 
C 316.379604 195.069241 315.10772 194.54241 313.781704 194.54241 
C 312.455689 194.54241 311.183805 195.069241 310.24617 196.006876 
C 309.308536 196.94451 308.781704 198.216394 308.781704 199.54241 
C 308.781704 200.868425 309.308536 202.140309 310.24617 203.077944 
C 311.183805 204.015578 312.455689 204.54241 313.781704 204.54241 
z
" style="stroke:#000000;stroke-width:0.4;"/>
    <path clip-path="url(#p3bb36935ce)" d="M 283.619265 204.54241 
C 284.94528 204.54241 286.217164 204.015578 287.154799 203.077944 
C 288.092433 202.140309 288.619265 200.868425 288.619265 199.54241 
C 288.619265 198.216394 288.092433 196.94451 287.154799 196.006876 
C 286.217164 195.069241 284.94528 194.54241 283.619265 194.54241 
C 282.293249 194.54241 281.021365 195.069241 280.083731 196.006876 
C 279.146096 196.94451 278.619265 198.216394 278.619265 199.54241 
C 278.619265 200.868425 279.146096 202.140309 280.083731 203.077944 
C 281.021365 204.015578 282.293249 204.54241 283.619265 204.54241 
z
" style="fill:#0000ff;stroke:#000000;stroke-width:0.4;"/>
    <path clip-path="url(#p3bb36935ce)" d="M 253.456825 162.576338 
C 254.782841 162.576338 256.054725 162.049506 256.992359 161.111871 
C 257.929994 160.174237 258.456825 158.902353 258.456825 157.576338 
C 258.456825 156.250322 257.929994 154.978438 256.992359 154.040804 
C 256.054725 153.103169 254.782841 152.576338 253.456825 152.576338 
C 252.13081 152.576338 250.858926 153.103169 249.921291 154.040804 
C 248.983657 154.978438 248.456825 156.250322 248.456825 157.576338 
C 248.456825 158.902353 248.983657 160.174237 249.921291 161.111871 
C 250.858926 162.049506 252.13081 162.576338 253.456825 162.576338 
z
" style="fill:#0000ff;stroke:#000000;stroke-width:0.4;"/>
    <path clip-path="url(#p3bb36935ce)" d="M 223.294386 162.576338 
C 224.620401 162.576338 225.892285 162.049506 226.82992 161.111871 
C 227.767554 160.174237 228.294386 158.902353 228.294386 157.576338 
C 228.294386 156.250322 227.767554 154.978438 226.82992 154.040804 
C 225.892285 153.103169 224.620401 152.576338 223.294386 152.576338 
C 221.96837 152.576338 220.696487 153.103169 219.758852 154.040804 
C 218.821217 154.978438 218.294386 156.250322 218.294386 157.576338 
C 218.294386 158.902353 218.821217 160.174237 219.758852 161.111871 
C 220.696487 162.049506 221.96837 162.576338 223.294386 162.576338 
z
" style="stroke:#000000;stroke-width:0.4;"/>
    <path clip-path="url(#p3bb36935ce)" d="M 193.131946 162.576338 
C 194.457962 162.576338 195.729846 162.049506 196.66748 161.111871 
C 197.605115 160.174237 198.131946 158.902353 198.131946 157.576338 
C 198.131946 156.250322 197.605115 154.978438 196.66748 154.040804 
C 195.729846 153.103169 194.457962 152.576338 193.131946 152.576338 
C 191.805931 152.576338 190.534047 153.103169 189.596413 154.040804 
C 188.658778 154.978438 188.131946 156.250322 188.131946 157.576338 
C 188.131946 158.902353 188.658778 160.174237 189.596413 161.111871 
C 190.534047 162.049506 191.805931 162.576338 193.131946 162.576338 
z
" style="stroke:#000000;stroke-width:0.4;"/>
    <path clip-path="url(#p3bb36935ce)" d="M 162.969507 141.593301 
C 164.295522 141.593301 165.567406 141.06647 166.505041 140.128835 
C 167.442675 139.191201 167.969507 137.919317 167.969507 136.593301 
C 167.969507 135.267286 167.442675 133.995402 166.505041 133.057768 
C 165.567406 132.120133 164.295522 131.593301 162.969507 131.593301 
C 161.643491 131.593301 160.371608 132.120133 159.433973 133.057768 
C 158.496339 133.995402 157.969507 135.267286 157.969507 136.593301 
C 157.969507 137.919317 158.496339 139.191201 159.433973 140.128835 
C 160.371608 141.06647 161.643491 141.593301 162.969507 141.593301 
z
" style="stroke:#000000;stroke-width:0.4;"/>
    <path clip-path="url(#p3bb36935ce)" d="M 132.807068 141.593301 
C 134.133083 141.593301 135.404967 141.06647 136.342601 140.128835 
C 137.280236 139.191201 137.807068 137.919317 137.807068 136.593301 
C 137.807068 135.267286 137.280236 133.995402 136.342601 133.057768 
C 135.404967 132.120133 134.133083 131.593301 132.807068 131.593301 
C 131.481052 131.593301 130.209168 132.120133 129.271534 133.057768 
C 128.333899 133.995402 127.807068 135.267286 127.807068 136.593301 
C 127.807068 137.919317 128.333899 139.191201 129.271534 140.128835 
C 130.209168 141.06647 131.481052 141.593301 132.807068 141.593301 
z
" style="stroke:#000000;stroke-width:0.4;"/>
    <path clip-path="url(#p3bb36935ce)" d="M 102.644628 141.593301 
C 103.970644 141.593301 105.242527 141.06647 106.180162 140.128835 
C 107.117797 139.191201 107.644628 137.919317 107.644628 136.593301 
C 107.644628 135.267286 107.117797 133.995402 106.180162 133.057768 
C 105.242527 132.120133 103.970644 131.593301 102.644628 131.593301 
C 101.318613 131.593301 100.046729 132.120133 99.109094 133.057768 
C 98.17146 133.995402 97.644628 135.267286 97.644628 136.593301 
C 97.644628 137.919317 98.17146 139.191201 99.109094 140.128835 
C 100.046729 141.06647 101.318613 141.593301 102.644628 141.593301 
z
" style="fill:#0000ff;stroke:#000000;stroke-width:0.4;"/>
    <path clip-path="url(#p3bb36935ce)" d="M 645.568538 393.389735 
C 646.894554 393.389735 648.166437 392.862903 649.104072 391.925269 
C 650.041707 390.987634 650.568538 389.71575 650.568538 388.389735 
C 650.568538 387.063719 650.041707 385.791835 649.104072 384.854201 
C 648.166437 383.916566 646.894554 383.389735 645.568538 383.389735 
C 644.242523 383.389735 642.970639 383.916566 642.033004 384.854201 
C 641.09537 385.791835 640.568538 387.063719 640.568538 388.389735 
C 640.568538 389.71575 641.09537 390.987634 642.033004 391.925269 
C 642.970639 392.862903 644.242523 393.389735 645.568538 393.389735 
z
" style="fill:#008000;stroke:#000000;stroke-width:0.4;"/>
    <path clip-path="url(#p3bb36935ce)" d="M 615.406099 414.372771 
C 616.732114 414.372771 618.003998 413.845939 618.941633 412.908305 
C 619.879267 411.97067 620.406099 410.698786 620.406099 409.372771 
C 620.406099 408.046755 619.879267 406.774871 618.941633 405.837237 
C 618.003998 404.899602 616.732114 404.372771 615.406099 404.372771 
C 614.080083 404.372771 612.808199 404.899602 611.870565 405.837237 
C 610.93293 406.774871 610.406099 408.046755 610.406099 409.372771 
C 610.406099 410.698786 610.93293 411.97067 611.870565 412.908305 
C 612.808199 413.845939 614.080083 414.372771 615.406099 414.372771 
z
" style="fill:#008000;stroke:#000000;stroke-width:0.4;"/>
    <path clip-path="url(#p3bb36935ce)" d="M 675.730977 372.406699 
C 677.056993 372.406699 678.328877 371.879867 679.266511 370.942232 
C 680.204146 370.004598 680.730977 368.732714 680.730977 367.406699 
C 680.730977 366.080683 680.204146 364.808799 679.266511 363.871165 
C 678.328877 362.93353 677.056993 362.406699 675.730977 362.406699 
C 674.404962 362.406699 673.133078 362.93353 672.195444 363.871165 
C 671.257809 364.808799 670.730977 366.080683 670.730977 367.406699 
C 670.730977 368.732714 671.257809 370.004598 672.195444 370.942232 
C 673.133078 371.879867 674.404962 372.406699 675.730977 372.406699 
z
" style="fill:#008000;stroke:#000000;stroke-width:0.4;"/>
    <path clip-path="url(#p3bb36935ce)" d="M 705.893417 351.423662 
C 707.219432 351.423662 708.491316 350.896831 709.428951 349.959196 
C 710.366585 349.021562 710.893417 347.749678 710.893417 346.423662 
C 710.893417 345.097647 710.366585 343.825763 709.428951 342.888129 
C 708.491316 341.950494 707.219432 341.423662 705.893417 341.423662 
C 704.567401 341.423662 703.295518 341.950494 702.357883 342.888129 
C 701.420248 343.825763 700.893417 345.097647 700.893417 346.423662 
C 700.893417 347.749678 701.420248 349.021562 702.357883 349.959196 
C 703.295518 350.896831 704.567401 351.423662 705.893417 351.423662 
z
" style="stroke:#000000;stroke-width:0.4;"/>
    <path clip-path="url(#p3bb36935ce)" d="M 736.055856 330.440626 
C 737.381872 330.440626 738.653756 329.913795 739.59139 328.97616 
C 740.529025 328.038526 741.055856 326.766642 741.055856 325.440626 
C 741.055856 324.114611 740.529025 322.842727 739.59139 321.905092 
C 738.653756 320.967458 737.381872 320.440626 736.055856 320.440626 
C 734.729841 320.440626 733.457957 320.967458 732.520322 321.905092 
C 731.582688 322.842727 731.055856 324.114611 731.055856 325.440626 
C 731.055856 326.766642 731.582688 328.038526 732.520322 328.97616 
C 733.457957 329.913795 734.729841 330.440626 736.055856 330.440626 
z
" style="fill:#008000;stroke:#000000;stroke-width:0.4;"/>
    <path clip-path="url(#p3bb36935ce)" d="M 766.218296 309.45759 
C 767.544311 309.45759 768.816195 308.930759 769.75383 307.993124 
C 770.691464 307.05549 771.218296 305.783606 771.218296 304.45759 
C 771.218296 303.131575 770.691464 301.859691 769.75383 300.922056 
C 768.816195 299.984422 767.544311 299.45759 766.218296 299.45759 
C 764.89228 299.45759 763.620396 299.984422 762.682762 300.922056 
C 761.745127 301.859691 761.218296 303.131575 761.218296 304.45759 
C 761.218296 305.783606 761.745127 307.05549 762.682762 307.993124 
C 763.620396 308.930759 764.89228 309.45759 766.218296 309.45759 
z
" style="fill:#008000;stroke:#000000;stroke-width:0.4;"/>
    <path clip-path="url(#p3bb36935ce)" d="M 796.380735 288.474554 
C 797.706751 288.474554 798.978635 287.947723 799.916269 287.010088 
C 800.853904 286.072454 801.380735 284.80057 801.380735 283.474554 
C 801.380735 282.148539 800.853904 280.876655 799.916269 279.93902 
C 798.978635 279.001386 797.706751 278.474554 796.380735 278.474554 
C 795.05472 278.474554 793.782836 279.001386 792.845201 279.93902 
C 791.907567 280.876655 791.380735 282.148539 791.380735 283.474554 
C 791.380735 284.80057 791.907567 286.072454 792.845201 287.010088 
C 793.782836 287.947723 795.05472 288.474554 796.380735 288.474554 
z
" style="stroke:#000000;stroke-width:0.4;"/>
    <path clip-path="url(#p3bb36935ce)" d="M 826.543175 267.491518 
C 827.86919 267.491518 829.141074 266.964687 830.078709 266.027052 
C 831.016343 265.089417 831.543175 263.817534 831.543175 262.491518 
C 831.543175 261.165503 831.016343 259.893619 830.078709 258.955984 
C 829.141074 258.01835 827.86919 257.491518 826.543175 257.491518 
C 825.217159 257.491518 823.945275 258.01835 823.007641 258.955984 
C 822.070006 259.893619 821.543175 261.165503 821.543175 262.491518 
C 821.543175 263.817534 822.070006 265.089417 823.007641 266.027052 
C 823.945275 266.964687 825.217159 267.491518 826.543175 267.491518 
z
" style="fill:#008000;stroke:#000000;stroke-width:0.4;"/>
    <path clip-path="url(#p3bb36935ce)" d="M 856.705614 225.525446 
C 858.03163 225.525446 859.303513 224.998614 860.241148 224.06098 
C 861.178783 223.123345 861.705614 221.851461 861.705614 220.525446 
C 861.705614 219.19943 861.178783 217.927546 860.241148 216.989912 
C 859.303513 216.052277 858.03163 215.525446 856.705614 215.525446 
C 855.379599 215.525446 854.107715 216.052277 853.17008 216.989912 
C 852.232446 217.927546 851.705614 219.19943 851.705614 220.525446 
C 851.705614 221.851461 852.232446 223.123345 853.17008 224.06098 
C 854.107715 224.998614 855.379599 225.525446 856.705614 225.525446 
z
" style="fill:#008000;stroke:#000000;stroke-width:0.4;"/>
    <path clip-path="url(#p3bb36935ce)" d="M 886.868054 183.559374 
C 888.194069 183.559374 889.465953 183.032542 890.403587 182.094908 
C 891.341222 181.157273 891.868054 179.885389 891.868054 178.559374 
C 891.868054 177.233358 891.341222 175.961474 890.403587 175.02384 
C 889.465953 174.086205 888.194069 173.559374 886.868054 173.559374 
C 885.542038 173.559374 884.270154 174.086205 883.33252 175.02384 
C 882.394885 175.961474 881.868054 177.233358 881.868054 178.559374 
C 881.868054 179.885389 882.394885 181.157273 883.33252 182.094908 
C 884.270154 183.032542 885.542038 183.559374 886.868054 183.559374 
z
" style="fill:#008000;stroke:#000000;stroke-width:0.4;"/>
    <path clip-path="url(#p3bb36935ce)" d="M 917.030493 162.576338 
C 918.356509 162.576338 919.628392 162.049506 920.566027 161.111871 
C 921.503661 160.174237 922.030493 158.902353 922.030493 157.576338 
C 922.030493 156.250322 921.503661 154.978438 920.566027 154.040804 
C 919.628392 153.103169 918.356509 152.576338 917.030493 152.576338 
C 915.704478 152.576338 914.432594 153.103169 913.494959 154.040804 
C 912.557325 154.978438 912.030493 156.250322 912.030493 157.576338 
C 912.030493 158.902353 912.557325 160.174237 913.494959 161.111871 
C 914.432594 162.049506 915.704478 162.576338 917.030493 162.576338 
z
" style="fill:#008000;stroke:#000000;stroke-width:0.4;"/>
    <path clip-path="url(#p3bb36935ce)" d="M 947.192932 99.627229 
C 948.518948 99.627229 949.790832 99.100398 950.728466 98.162763 
C 951.666101 97.225129 952.192932 95.953245 952.192932 94.627229 
C 952.192932 93.301214 951.666101 92.02933 950.728466 91.091695 
C 949.790832 90.154061 948.518948 89.627229 947.192932 89.627229 
C 945.866917 89.627229 944.595033 90.154061 943.657399 91.091695 
C 942.719764 92.02933 942.192932 93.301214 942.192932 94.627229 
C 942.192932 95.953245 942.719764 97.225129 943.657399 98.162763 
C 944.595033 99.100398 945.866917 99.627229 947.192932 99.627229 
z
" style="fill:#008000;stroke:#000000;stroke-width:0.4;"/>
    <path clip-path="url(#p3bb36935ce)" d="M 977.355372 78.644193 
C 978.681387 78.644193 979.953271 78.117362 980.890906 77.179727 
C 981.82854 76.242092 982.355372 74.970209 982.355372 73.644193 
C 982.355372 72.318178 981.82854 71.046294 980.890906 70.108659 
C 979.953271 69.171025 978.681387 68.644193 977.355372 68.644193 
C 976.029356 68.644193 974.757473 69.171025 973.819838 70.108659 
C 972.882203 71.046294 972.355372 72.318178 972.355372 73.644193 
C 972.355372 74.970209 972.882203 76.242092 973.819838 77.179727 
C 974.757473 78.117362 976.029356 78.644193 977.355372 78.644193 
z
" style="fill:#008000;stroke:#000000;stroke-width:0.4;"/>
    <path clip-path="url(#p3bb36935ce)" d="M 585.243659 57.661157 
C 586.569675 57.661157 587.841559 57.134325 588.779193 56.196691 
C 589.716828 55.259056 590.243659 53.987173 590.243659 52.661157 
C 590.243659 51.335142 589.716828 50.063258 588.779193 49.125623 
C 587.841559 48.187989 586.569675 47.661157 585.243659 47.661157 
C 583.917644 47.661157 582.64576 48.187989 581.708125 49.125623 
C 580.770491 50.063258 580.243659 51.335142 580.243659 52.661157 
C 580.243659 53.987173 580.770491 55.259056 581.708125 56.196691 
C 582.64576 57.134325 583.917644 57.661157 585.243659 57.661157 
z
" style="fill:#ff0000;stroke:#000000;stroke-width:0.4;"/>
   </g>
   <g id="line2d_1">
    <path clip-path="url(#p3bb36935ce)" d="M 585.243659 493.2 
L 585.243659 10.8 
" style="fill:none;stroke:#ff0000;stroke-linecap:square;stroke-width:1.5;"/>
   </g>
   <g id="patch_3">
    <path d="M 10.8 493.2 
L 10.8 10.8 
" style="fill:none;stroke:#000000;stroke-linecap:square;stroke-linejoin:miter;stroke-width:0.8;"/>
   </g>
   <g id="patch_4">
    <path d="M 1069.2 493.2 
L 1069.2 10.8 
" style="fill:none;stroke:#000000;stroke-linecap:square;stroke-linejoin:miter;stroke-width:0.8;"/>
   </g>
   <g id="patch_5">
    <path d="M 10.8 493.2 
L 1069.2 493.2 
" style="fill:none;stroke:#000000;stroke-linecap:square;stroke-linejoin:miter;stroke-width:0.8;"/>
   </g>
   <g id="patch_6">
    <path d="M 10.8 10.8 
L 1069.2 10.8 
" style="fill:none;stroke:#000000;stroke-linecap:square;stroke-linejoin:miter;stroke-width:0.8;"/>
   </g>
  </g>
 </g>
 <defs>
  <clipPath id="p3bb36935ce">
   <rect height="482.4" width="1058.4" x="10.8" y="10.8"/>
  </clipPath>
 </defs>
</svg>
