<?xml version="1.0" encoding="utf-8" standalone="no"?>
<!DOCTYPE svg PUBLIC "-//W3C//DTD SVG 1.1//EN"
  "http://www.w3.org/Graphics/SVG/1.1/DTD/svg11.dtd">
<svg xmlns:xlink="http://www.w3.org/1999/xlink" width="1080pt" height="504pt" viewBox="0 0 1080 504" xmlns="http://www.w3.org/2000/svg" version="1.1">
 <metadata>
  <rdf:RDF xmlns:dc="http://purl.org/dc/elements/1.1/" xmlns:cc="http://creativecommons.org/ns#" xmlns:rdf="http://www.w3.org/1999/02/22-rdf-syntax-ns#">
   <cc:Work>
    <dc:type rdf:resource="http://purl.org/dc/dcmitype/StillImage"/>
    <dc:date>2022-04-21T03:05:36.489379</dc:date>
    <dc:format>image/svg+xml</dc:format>
    <dc:creator>
     <cc:Agent>
      <dc:title>Matplotlib v3.5.1, https://matplotlib.org/</dc:title>
     </cc:Agent>
    </dc:creator>
   </cc:Work>
  </rdf:RDF>
 </metadata>
 <defs>
  <style type="text/css">*{stroke-linejoin: round; stroke-linecap: butt}</style>
 </defs>
 <g id="figure_1">
  <g id="patch_1">
   <path d="M 0 504 
L 1080 504 
L 1080 0 
L 0 0 
z
" style="fill: #ffffff"/>
  </g>
  <g id="axes_1">
   <g id="patch_2">
    <path d="M 10.8 493.2 
L 1069.2 493.2 
L 1069.2 10.8 
L 10.8 10.8 
z
" style="fill: #ffffff"/>
   </g>
   <g id="LineCollection_1">
    <path d="M 602.479339 407.041322 
L 571.239669 451.338843 
" clip-path="url(#pdc9b5fa0c5)" style="fill: none; stroke: #000000; stroke-width: 0.4"/>
    <path d="M 602.479339 407.041322 
L 540 407.041322 
" clip-path="url(#pdc9b5fa0c5)" style="fill: none; stroke: #000000; stroke-width: 0.4"/>
    <path d="M 540 407.041322 
L 633.719008 384.892562 
" clip-path="url(#pdc9b5fa0c5)" style="fill: none; stroke: #000000; stroke-width: 0.4"/>
    <path d="M 633.719008 384.892562 
L 508.760331 384.892562 
" clip-path="url(#pdc9b5fa0c5)" style="fill: none; stroke: #000000; stroke-width: 0.4"/>
    <path d="M 508.760331 384.892562 
L 664.958678 362.743802 
" clip-path="url(#pdc9b5fa0c5)" style="fill: none; stroke: #000000; stroke-width: 0.4"/>
    <path d="M 664.958678 362.743802 
L 696.198347 340.595041 
" clip-path="url(#pdc9b5fa0c5)" style="fill: none; stroke: #000000; stroke-width: 0.4"/>
    <path d="M 696.198347 340.595041 
L 727.438017 318.446281 
" clip-path="url(#pdc9b5fa0c5)" style="fill: none; stroke: #000000; stroke-width: 0.4"/>
    <path d="M 727.438017 318.446281 
L 477.520661 318.446281 
" clip-path="url(#pdc9b5fa0c5)" style="fill: none; stroke: #000000; stroke-width: 0.4"/>
    <path d="M 477.520661 318.446281 
L 758.677686 296.297521 
" clip-path="url(#pdc9b5fa0c5)" style="fill: none; stroke: #000000; stroke-width: 0.4"/>
    <path d="M 758.677686 296.297521 
L 789.917355 274.14876 
" clip-path="url(#pdc9b5fa0c5)" style="fill: none; stroke: #000000; stroke-width: 0.4"/>
    <path d="M 789.917355 274.14876 
L 821.157025 252 
" clip-path="url(#pdc9b5fa0c5)" style="fill: none; stroke: #000000; stroke-width: 0.4"/>
    <path d="M 821.157025 252 
L 446.280992 229.85124 
" clip-path="url(#pdc9b5fa0c5)" style="fill: none; stroke: #000000; stroke-width: 0.4"/>
    <path d="M 446.280992 229.85124 
L 852.396694 207.702479 
" clip-path="url(#pdc9b5fa0c5)" style="fill: none; stroke: #000000; stroke-width: 0.4"/>
    <path d="M 852.396694 207.702479 
L 415.041322 207.702479 
" clip-path="url(#pdc9b5fa0c5)" style="fill: none; stroke: #000000; stroke-width: 0.4"/>
    <path d="M 415.041322 207.702479 
L 383.801653 207.702479 
" clip-path="url(#pdc9b5fa0c5)" style="fill: none; stroke: #000000; stroke-width: 0.4"/>
    <path d="M 383.801653 207.702479 
L 352.561983 207.702479 
" clip-path="url(#pdc9b5fa0c5)" style="fill: none; stroke: #000000; stroke-width: 0.4"/>
    <path d="M 352.561983 207.702479 
L 321.322314 185.553719 
" clip-path="url(#pdc9b5fa0c5)" style="fill: none; stroke: #000000; stroke-width: 0.4"/>
    <path d="M 321.322314 185.553719 
L 290.082645 185.553719 
" clip-path="url(#pdc9b5fa0c5)" style="fill: none; stroke: #000000; stroke-width: 0.4"/>
    <path d="M 290.082645 185.553719 
L 883.636364 163.404959 
" clip-path="url(#pdc9b5fa0c5)" style="fill: none; stroke: #000000; stroke-width: 0.4"/>
    <path d="M 883.636364 163.404959 
L 914.876033 141.256198 
" clip-path="url(#pdc9b5fa0c5)" style="fill: none; stroke: #000000; stroke-width: 0.4"/>
    <path d="M 914.876033 141.256198 
L 258.842975 141.256198 
" clip-path="url(#pdc9b5fa0c5)" style="fill: none; stroke: #000000; stroke-width: 0.4"/>
    <path d="M 258.842975 141.256198 
L 227.603306 141.256198 
" clip-path="url(#pdc9b5fa0c5)" style="fill: none; stroke: #000000; stroke-width: 0.4"/>
    <path d="M 227.603306 141.256198 
L 196.363636 141.256198 
" clip-path="url(#pdc9b5fa0c5)" style="fill: none; stroke: #000000; stroke-width: 0.4"/>
    <path d="M 196.363636 141.256198 
L 165.123967 119.107438 
" clip-path="url(#pdc9b5fa0c5)" style="fill: none; stroke: #000000; stroke-width: 0.4"/>
    <path d="M 165.123967 119.107438 
L 133.884298 119.107438 
" clip-path="url(#pdc9b5fa0c5)" style="fill: none; stroke: #000000; stroke-width: 0.4"/>
    <path d="M 133.884298 119.107438 
L 102.644628 119.107438 
" clip-path="url(#pdc9b5fa0c5)" style="fill: none; stroke: #000000; stroke-width: 0.4"/>
    <path d="M 102.644628 119.107438 
L 946.115702 74.809917 
" clip-path="url(#pdc9b5fa0c5)" style="fill: none; stroke: #000000; stroke-width: 0.4"/>
    <path d="M 946.115702 74.809917 
L 977.355372 52.661157 
" clip-path="url(#pdc9b5fa0c5)" style="fill: none; stroke: #000000; stroke-width: 0.4"/>
   </g>
   <g id="matplotlib.axis_1">
    <g id="xtick_1"/>
    <g id="xtick_2"/>
    <g id="xtick_3"/>
    <g id="xtick_4"/>
    <g id="xtick_5"/>
    <g id="xtick_6"/>
    <g id="xtick_7"/>
   </g>
   <g id="matplotlib.axis_2">
    <g id="ytick_1"/>
    <g id="ytick_2"/>
    <g id="ytick_3"/>
    <g id="ytick_4"/>
    <g id="ytick_5"/>
    <g id="ytick_6"/>
    <g id="ytick_7"/>
    <g id="ytick_8"/>
   </g>
   <g id="PathCollection_1">
    <path d="M 602.479339 412.041322 
C 603.805354 412.041322 605.077238 411.514491 606.014873 410.576856 
C 606.952507 409.639222 607.479339 408.367338 607.479339 407.041322 
C 607.479339 405.715307 606.952507 404.443423 606.014873 403.505788 
C 605.077238 402.568154 603.805354 402.041322 602.479339 402.041322 
C 601.153323 402.041322 599.881439 402.568154 598.943805 403.505788 
C 598.00617 404.443423 597.479339 405.715307 597.479339 407.041322 
C 597.479339 408.367338 598.00617 409.639222 598.943805 410.576856 
C 599.881439 411.514491 601.153323 412.041322 602.479339 412.041322 
z
" clip-path="url(#pdc9b5fa0c5)" style="fill: #008000; stroke: #000000; stroke-width: 0.4"/>
    <path d="M 571.239669 456.338843 
C 572.565685 456.338843 573.837569 455.812011 574.775203 454.874377 
C 575.712838 453.936742 576.239669 452.664858 576.239669 451.338843 
C 576.239669 450.012827 575.712838 448.740944 574.775203 447.803309 
C 573.837569 446.865675 572.565685 446.338843 571.239669 446.338843 
C 569.913654 446.338843 568.64177 446.865675 567.704136 447.803309 
C 566.766501 448.740944 566.239669 450.012827 566.239669 451.338843 
C 566.239669 452.664858 566.766501 453.936742 567.704136 454.874377 
C 568.64177 455.812011 569.913654 456.338843 571.239669 456.338843 
z
" clip-path="url(#pdc9b5fa0c5)" style="fill: #0000ff; stroke: #000000; stroke-width: 0.4"/>
    <path d="M 540 412.041322 
C 541.326016 412.041322 542.597899 411.514491 543.535534 410.576856 
C 544.473168 409.639222 545 408.367338 545 407.041322 
C 545 405.715307 544.473168 404.443423 543.535534 403.505788 
C 542.597899 402.568154 541.326016 402.041322 540 402.041322 
C 538.673985 402.041322 537.402101 402.568154 536.464466 403.505788 
C 535.526832 404.443423 535 405.715307 535 407.041322 
C 535 408.367338 535.526832 409.639222 536.464466 410.576856 
C 537.402101 411.514491 538.673985 412.041322 540 412.041322 
z
" clip-path="url(#pdc9b5fa0c5)" style="fill: #0000ff; stroke: #000000; stroke-width: 0.4"/>
    <path d="M 633.719008 389.892562 
C 635.045024 389.892562 636.316908 389.36573 637.254542 388.428096 
C 638.192177 387.490461 638.719008 386.218577 638.719008 384.892562 
C 638.719008 383.566546 638.192177 382.294663 637.254542 381.357028 
C 636.316908 380.419394 635.045024 379.892562 633.719008 379.892562 
C 632.392993 379.892562 631.121109 380.419394 630.183474 381.357028 
C 629.24584 382.294663 628.719008 383.566546 628.719008 384.892562 
C 628.719008 386.218577 629.24584 387.490461 630.183474 388.428096 
C 631.121109 389.36573 632.392993 389.892562 633.719008 389.892562 
z
" clip-path="url(#pdc9b5fa0c5)" style="fill: #008000; stroke: #000000; stroke-width: 0.4"/>
    <path d="M 508.760331 389.892562 
C 510.086346 389.892562 511.35823 389.36573 512.295864 388.428096 
C 513.233499 387.490461 513.760331 386.218577 513.760331 384.892562 
C 513.760331 383.566546 513.233499 382.294663 512.295864 381.357028 
C 511.35823 380.419394 510.086346 379.892562 508.760331 379.892562 
C 507.434315 379.892562 506.162431 380.419394 505.224797 381.357028 
C 504.287162 382.294663 503.760331 383.566546 503.760331 384.892562 
C 503.760331 386.218577 504.287162 387.490461 505.224797 388.428096 
C 506.162431 389.36573 507.434315 389.892562 508.760331 389.892562 
z
" clip-path="url(#pdc9b5fa0c5)" style="fill: #0000ff; stroke: #000000; stroke-width: 0.4"/>
    <path d="M 664.958678 367.743802 
C 666.284693 367.743802 667.556577 367.21697 668.494212 366.279336 
C 669.431846 365.341701 669.958678 364.069817 669.958678 362.743802 
C 669.958678 361.417786 669.431846 360.145902 668.494212 359.208268 
C 667.556577 358.270633 666.284693 357.743802 664.958678 357.743802 
C 663.632662 357.743802 662.360778 358.270633 661.423144 359.208268 
C 660.485509 360.145902 659.958678 361.417786 659.958678 362.743802 
C 659.958678 364.069817 660.485509 365.341701 661.423144 366.279336 
C 662.360778 367.21697 663.632662 367.743802 664.958678 367.743802 
z
" clip-path="url(#pdc9b5fa0c5)" style="fill: #008000; stroke: #000000; stroke-width: 0.4"/>
    <path d="M 696.198347 345.595041 
C 697.524363 345.595041 698.796246 345.06821 699.733881 344.130575 
C 700.671516 343.192941 701.198347 341.921057 701.198347 340.595041 
C 701.198347 339.269026 700.671516 337.997142 699.733881 337.059507 
C 698.796246 336.121873 697.524363 335.595041 696.198347 335.595041 
C 694.872332 335.595041 693.600448 336.121873 692.662813 337.059507 
C 691.725179 337.997142 691.198347 339.269026 691.198347 340.595041 
C 691.198347 341.921057 691.725179 343.192941 692.662813 344.130575 
C 693.600448 345.06821 694.872332 345.595041 696.198347 345.595041 
z
" clip-path="url(#pdc9b5fa0c5)" style="stroke: #000000; stroke-width: 0.4"/>
    <path d="M 727.438017 323.446281 
C 728.764032 323.446281 730.035916 322.919449 730.97355 321.981815 
C 731.911185 321.04418 732.438017 319.772296 732.438017 318.446281 
C 732.438017 317.120265 731.911185 315.848382 730.97355 314.910747 
C 730.035916 313.973113 728.764032 313.446281 727.438017 313.446281 
C 726.112001 313.446281 724.840117 313.973113 723.902483 314.910747 
C 722.964848 315.848382 722.438017 317.120265 722.438017 318.446281 
C 722.438017 319.772296 722.964848 321.04418 723.902483 321.981815 
C 724.840117 322.919449 726.112001 323.446281 727.438017 323.446281 
z
" clip-path="url(#pdc9b5fa0c5)" style="fill: #008000; stroke: #000000; stroke-width: 0.4"/>
    <path d="M 477.520661 323.446281 
C 478.846677 323.446281 480.118561 322.919449 481.056195 321.981815 
C 481.99383 321.04418 482.520661 319.772296 482.520661 318.446281 
C 482.520661 317.120265 481.99383 315.848382 481.056195 314.910747 
C 480.118561 313.973113 478.846677 313.446281 477.520661 313.446281 
C 476.194646 313.446281 474.922762 313.973113 473.985127 314.910747 
C 473.047493 315.848382 472.520661 317.120265 472.520661 318.446281 
C 472.520661 319.772296 473.047493 321.04418 473.985127 321.981815 
C 474.922762 322.919449 476.194646 323.446281 477.520661 323.446281 
z
" clip-path="url(#pdc9b5fa0c5)" style="fill: #0000ff; stroke: #000000; stroke-width: 0.4"/>
    <path d="M 758.677686 301.297521 
C 760.003701 301.297521 761.275585 300.770689 762.21322 299.833055 
C 763.150854 298.89542 763.677686 297.623536 763.677686 296.297521 
C 763.677686 294.971505 763.150854 293.699621 762.21322 292.761987 
C 761.275585 291.824352 760.003701 291.297521 758.677686 291.297521 
C 757.35167 291.297521 756.079787 291.824352 755.142152 292.761987 
C 754.204517 293.699621 753.677686 294.971505 753.677686 296.297521 
C 753.677686 297.623536 754.204517 298.89542 755.142152 299.833055 
C 756.079787 300.770689 757.35167 301.297521 758.677686 301.297521 
z
" clip-path="url(#pdc9b5fa0c5)" style="fill: #008000; stroke: #000000; stroke-width: 0.4"/>
    <path d="M 789.917355 279.14876 
C 791.243371 279.14876 792.515255 278.621929 793.452889 277.684294 
C 794.390524 276.74666 794.917355 275.474776 794.917355 274.14876 
C 794.917355 272.822745 794.390524 271.550861 793.452889 270.613226 
C 792.515255 269.675592 791.243371 269.14876 789.917355 269.14876 
C 788.59134 269.14876 787.319456 269.675592 786.381821 270.613226 
C 785.444187 271.550861 784.917355 272.822745 784.917355 274.14876 
C 784.917355 275.474776 785.444187 276.74666 786.381821 277.684294 
C 787.319456 278.621929 788.59134 279.14876 789.917355 279.14876 
z
" clip-path="url(#pdc9b5fa0c5)" style="stroke: #000000; stroke-width: 0.4"/>
    <path d="M 821.157025 257 
C 822.48304 257 823.754924 256.473168 824.692559 255.535534 
C 825.630193 254.597899 826.157025 253.326016 826.157025 252 
C 826.157025 250.673984 825.630193 249.402101 824.692559 248.464466 
C 823.754924 247.526832 822.48304 247 821.157025 247 
C 819.831009 247 818.559125 247.526832 817.621491 248.464466 
C 816.683856 249.402101 816.157025 250.673984 816.157025 252 
C 816.157025 253.326016 816.683856 254.597899 817.621491 255.535534 
C 818.559125 256.473168 819.831009 257 821.157025 257 
z
" clip-path="url(#pdc9b5fa0c5)" style="fill: #008000; stroke: #000000; stroke-width: 0.4"/>
    <path d="M 446.280992 234.85124 
C 447.607007 234.85124 448.878891 234.324408 449.816526 233.386774 
C 450.75416 232.449139 451.280992 231.177255 451.280992 229.85124 
C 451.280992 228.525224 450.75416 227.25334 449.816526 226.315706 
C 448.878891 225.378071 447.607007 224.85124 446.280992 224.85124 
C 444.954976 224.85124 443.683092 225.378071 442.745458 226.315706 
C 441.807823 227.25334 441.280992 228.525224 441.280992 229.85124 
C 441.280992 231.177255 441.807823 232.449139 442.745458 233.386774 
C 443.683092 234.324408 444.954976 234.85124 446.280992 234.85124 
z
" clip-path="url(#pdc9b5fa0c5)" style="fill: #0000ff; stroke: #000000; stroke-width: 0.4"/>
    <path d="M 852.396694 212.702479 
C 853.72271 212.702479 854.994594 212.175648 855.932228 211.238013 
C 856.869863 210.300379 857.396694 209.028495 857.396694 207.702479 
C 857.396694 206.376464 856.869863 205.10458 855.932228 204.166945 
C 854.994594 203.229311 853.72271 202.702479 852.396694 202.702479 
C 851.070679 202.702479 849.798795 203.229311 848.86116 204.166945 
C 847.923526 205.10458 847.396694 206.376464 847.396694 207.702479 
C 847.396694 209.028495 847.923526 210.300379 848.86116 211.238013 
C 849.798795 212.175648 851.070679 212.702479 852.396694 212.702479 
z
" clip-path="url(#pdc9b5fa0c5)" style="fill: #008000; stroke: #000000; stroke-width: 0.4"/>
    <path d="M 415.041322 212.702479 
C 416.367338 212.702479 417.639222 212.175648 418.576856 211.238013 
C 419.514491 210.300379 420.041322 209.028495 420.041322 207.702479 
C 420.041322 206.376464 419.514491 205.10458 418.576856 204.166945 
C 417.639222 203.229311 416.367338 202.702479 415.041322 202.702479 
C 413.715307 202.702479 412.443423 203.229311 411.505788 204.166945 
C 410.568154 205.10458 410.041322 206.376464 410.041322 207.702479 
C 410.041322 209.028495 410.568154 210.300379 411.505788 211.238013 
C 412.443423 212.175648 413.715307 212.702479 415.041322 212.702479 
z
" clip-path="url(#pdc9b5fa0c5)" style="fill: #0000ff; stroke: #000000; stroke-width: 0.4"/>
    <path d="M 383.801653 212.702479 
C 385.127668 212.702479 386.399552 212.175648 387.337187 211.238013 
C 388.274821 210.300379 388.801653 209.028495 388.801653 207.702479 
C 388.801653 206.376464 388.274821 205.10458 387.337187 204.166945 
C 386.399552 203.229311 385.127668 202.702479 383.801653 202.702479 
C 382.475637 202.702479 381.203754 203.229311 380.266119 204.166945 
C 379.328484 205.10458 378.801653 206.376464 378.801653 207.702479 
C 378.801653 209.028495 379.328484 210.300379 380.266119 211.238013 
C 381.203754 212.175648 382.475637 212.702479 383.801653 212.702479 
z
" clip-path="url(#pdc9b5fa0c5)" style="stroke: #000000; stroke-width: 0.4"/>
    <path d="M 352.561983 212.702479 
C 353.887999 212.702479 355.159883 212.175648 356.097517 211.238013 
C 357.035152 210.300379 357.561983 209.028495 357.561983 207.702479 
C 357.561983 206.376464 357.035152 205.10458 356.097517 204.166945 
C 355.159883 203.229311 353.887999 202.702479 352.561983 202.702479 
C 351.235968 202.702479 349.964084 203.229311 349.02645 204.166945 
C 348.088815 205.10458 347.561983 206.376464 347.561983 207.702479 
C 347.561983 209.028495 348.088815 210.300379 349.02645 211.238013 
C 349.964084 212.175648 351.235968 212.702479 352.561983 212.702479 
z
" clip-path="url(#pdc9b5fa0c5)" style="stroke: #000000; stroke-width: 0.4"/>
    <path d="M 321.322314 190.553719 
C 322.64833 190.553719 323.920213 190.026887 324.857848 189.089253 
C 325.795483 188.151618 326.322314 186.879735 326.322314 185.553719 
C 326.322314 184.227704 325.795483 182.95582 324.857848 182.018185 
C 323.920213 181.080551 322.64833 180.553719 321.322314 180.553719 
C 319.996299 180.553719 318.724415 181.080551 317.78678 182.018185 
C 316.849146 182.95582 316.322314 184.227704 316.322314 185.553719 
C 316.322314 186.879735 316.849146 188.151618 317.78678 189.089253 
C 318.724415 190.026887 319.996299 190.553719 321.322314 190.553719 
z
" clip-path="url(#pdc9b5fa0c5)" style="stroke: #000000; stroke-width: 0.4"/>
    <path d="M 290.082645 190.553719 
C 291.40866 190.553719 292.680544 190.026887 293.618179 189.089253 
C 294.555813 188.151618 295.082645 186.879735 295.082645 185.553719 
C 295.082645 184.227704 294.555813 182.95582 293.618179 182.018185 
C 292.680544 181.080551 291.40866 180.553719 290.082645 180.553719 
C 288.756629 180.553719 287.484745 181.080551 286.547111 182.018185 
C 285.609476 182.95582 285.082645 184.227704 285.082645 185.553719 
C 285.082645 186.879735 285.609476 188.151618 286.547111 189.089253 
C 287.484745 190.026887 288.756629 190.553719 290.082645 190.553719 
z
" clip-path="url(#pdc9b5fa0c5)" style="fill: #0000ff; stroke: #000000; stroke-width: 0.4"/>
    <path d="M 883.636364 168.404959 
C 884.962379 168.404959 886.234263 167.878127 887.171898 166.940493 
C 888.109532 166.002858 888.636364 164.730974 888.636364 163.404959 
C 888.636364 162.078943 888.109532 160.807059 887.171898 159.869425 
C 886.234263 158.93179 884.962379 158.404959 883.636364 158.404959 
C 882.310348 158.404959 881.038464 158.93179 880.10083 159.869425 
C 879.163195 160.807059 878.636364 162.078943 878.636364 163.404959 
C 878.636364 164.730974 879.163195 166.002858 880.10083 166.940493 
C 881.038464 167.878127 882.310348 168.404959 883.636364 168.404959 
z
" clip-path="url(#pdc9b5fa0c5)" style="fill: #008000; stroke: #000000; stroke-width: 0.4"/>
    <path d="M 914.876033 146.256198 
C 916.202049 146.256198 917.473932 145.729367 918.411567 144.791732 
C 919.349202 143.854098 919.876033 142.582214 919.876033 141.256198 
C 919.876033 139.930183 919.349202 138.658299 918.411567 137.720664 
C 917.473932 136.78303 916.202049 136.256198 914.876033 136.256198 
C 913.550018 136.256198 912.278134 136.78303 911.340499 137.720664 
C 910.402865 138.658299 909.876033 139.930183 909.876033 141.256198 
C 909.876033 142.582214 910.402865 143.854098 911.340499 144.791732 
C 912.278134 145.729367 913.550018 146.256198 914.876033 146.256198 
z
" clip-path="url(#pdc9b5fa0c5)" style="fill: #008000; stroke: #000000; stroke-width: 0.4"/>
    <path d="M 258.842975 146.256198 
C 260.168991 146.256198 261.440875 145.729367 262.378509 144.791732 
C 263.316144 143.854098 263.842975 142.582214 263.842975 141.256198 
C 263.842975 139.930183 263.316144 138.658299 262.378509 137.720664 
C 261.440875 136.78303 260.168991 136.256198 258.842975 136.256198 
C 257.51696 136.256198 256.245076 136.78303 255.307441 137.720664 
C 254.369807 138.658299 253.842975 139.930183 253.842975 141.256198 
C 253.842975 142.582214 254.369807 143.854098 255.307441 144.791732 
C 256.245076 145.729367 257.51696 146.256198 258.842975 146.256198 
z
" clip-path="url(#pdc9b5fa0c5)" style="fill: #0000ff; stroke: #000000; stroke-width: 0.4"/>
    <path d="M 227.603306 146.256198 
C 228.929321 146.256198 230.201205 145.729367 231.13884 144.791732 
C 232.076474 143.854098 232.603306 142.582214 232.603306 141.256198 
C 232.603306 139.930183 232.076474 138.658299 231.13884 137.720664 
C 230.201205 136.78303 228.929321 136.256198 227.603306 136.256198 
C 226.27729 136.256198 225.005406 136.78303 224.067772 137.720664 
C 223.130137 138.658299 222.603306 139.930183 222.603306 141.256198 
C 222.603306 142.582214 223.130137 143.854098 224.067772 144.791732 
C 225.005406 145.729367 226.27729 146.256198 227.603306 146.256198 
z
" clip-path="url(#pdc9b5fa0c5)" style="stroke: #000000; stroke-width: 0.4"/>
    <path d="M 196.363636 146.256198 
C 197.689652 146.256198 198.961536 145.729367 199.89917 144.791732 
C 200.836805 143.854098 201.363636 142.582214 201.363636 141.256198 
C 201.363636 139.930183 200.836805 138.658299 199.89917 137.720664 
C 198.961536 136.78303 197.689652 136.256198 196.363636 136.256198 
C 195.037621 136.256198 193.765737 136.78303 192.828102 137.720664 
C 191.890468 138.658299 191.363636 139.930183 191.363636 141.256198 
C 191.363636 142.582214 191.890468 143.854098 192.828102 144.791732 
C 193.765737 145.729367 195.037621 146.256198 196.363636 146.256198 
z
" clip-path="url(#pdc9b5fa0c5)" style="stroke: #000000; stroke-width: 0.4"/>
    <path d="M 165.123967 124.107438 
C 166.449982 124.107438 167.721866 123.580606 168.659501 122.642972 
C 169.597135 121.705337 170.123967 120.433454 170.123967 119.107438 
C 170.123967 117.781423 169.597135 116.509539 168.659501 115.571904 
C 167.721866 114.63427 166.449982 114.107438 165.123967 114.107438 
C 163.797951 114.107438 162.526068 114.63427 161.588433 115.571904 
C 160.650798 116.509539 160.123967 117.781423 160.123967 119.107438 
C 160.123967 120.433454 160.650798 121.705337 161.588433 122.642972 
C 162.526068 123.580606 163.797951 124.107438 165.123967 124.107438 
z
" clip-path="url(#pdc9b5fa0c5)" style="stroke: #000000; stroke-width: 0.4"/>
    <path d="M 133.884298 124.107438 
C 135.210313 124.107438 136.482197 123.580606 137.419831 122.642972 
C 138.357466 121.705337 138.884298 120.433454 138.884298 119.107438 
C 138.884298 117.781423 138.357466 116.509539 137.419831 115.571904 
C 136.482197 114.63427 135.210313 114.107438 133.884298 114.107438 
C 132.558282 114.107438 131.286398 114.63427 130.348764 115.571904 
C 129.411129 116.509539 128.884298 117.781423 128.884298 119.107438 
C 128.884298 120.433454 129.411129 121.705337 130.348764 122.642972 
C 131.286398 123.580606 132.558282 124.107438 133.884298 124.107438 
z
" clip-path="url(#pdc9b5fa0c5)" style="stroke: #000000; stroke-width: 0.4"/>
    <path d="M 102.644628 124.107438 
C 103.970644 124.107438 105.242527 123.580606 106.180162 122.642972 
C 107.117797 121.705337 107.644628 120.433454 107.644628 119.107438 
C 107.644628 117.781423 107.117797 116.509539 106.180162 115.571904 
C 105.242527 114.63427 103.970644 114.107438 102.644628 114.107438 
C 101.318613 114.107438 100.046729 114.63427 99.109094 115.571904 
C 98.17146 116.509539 97.644628 117.781423 97.644628 119.107438 
C 97.644628 120.433454 98.17146 121.705337 99.109094 122.642972 
C 100.046729 123.580606 101.318613 124.107438 102.644628 124.107438 
z
" clip-path="url(#pdc9b5fa0c5)" style="fill: #0000ff; stroke: #000000; stroke-width: 0.4"/>
    <path d="M 946.115702 79.809917 
C 947.441718 79.809917 948.713602 79.283086 949.651236 78.345451 
C 950.588871 77.407817 951.115702 76.135933 951.115702 74.809917 
C 951.115702 73.483902 950.588871 72.212018 949.651236 71.274383 
C 948.713602 70.336749 947.441718 69.809917 946.115702 69.809917 
C 944.789687 69.809917 943.517803 70.336749 942.580169 71.274383 
C 941.642534 72.212018 941.115702 73.483902 941.115702 74.809917 
C 941.115702 76.135933 941.642534 77.407817 942.580169 78.345451 
C 943.517803 79.283086 944.789687 79.809917 946.115702 79.809917 
z
" clip-path="url(#pdc9b5fa0c5)" style="fill: #008000; stroke: #000000; stroke-width: 0.4"/>
    <path d="M 977.355372 57.661157 
C 978.681387 57.661157 979.953271 57.134325 980.890906 56.196691 
C 981.82854 55.259056 982.355372 53.987173 982.355372 52.661157 
C 982.355372 51.335142 981.82854 50.063258 980.890906 49.125623 
C 979.953271 48.187989 978.681387 47.661157 977.355372 47.661157 
C 976.029356 47.661157 974.757473 48.187989 973.819838 49.125623 
C 972.882203 50.063258 972.355372 51.335142 972.355372 52.661157 
C 972.355372 53.987173 972.882203 55.259056 973.819838 56.196691 
C 974.757473 57.134325 976.029356 57.661157 977.355372 57.661157 
z
" clip-path="url(#pdc9b5fa0c5)" style="fill: #008000; stroke: #000000; stroke-width: 0.4"/>
   </g>
   <g id="line2d_1">
    <path d="M 586.859504 493.2 
L 586.859504 10.8 
" clip-path="url(#pdc9b5fa0c5)" style="fill: none; stroke: #ff0000; stroke-width: 1.5; stroke-linecap: square"/>
   </g>
   <g id="patch_3">
    <path d="M 10.8 493.2 
L 10.8 10.8 
" style="fill: none; stroke: #000000; stroke-width: 0.8; stroke-linejoin: miter; stroke-linecap: square"/>
   </g>
   <g id="patch_4">
    <path d="M 1069.2 493.2 
L 1069.2 10.8 
" style="fill: none; stroke: #000000; stroke-width: 0.8; stroke-linejoin: miter; stroke-linecap: square"/>
   </g>
   <g id="patch_5">
    <path d="M 10.8 493.2 
L 1069.2 493.2 
" style="fill: none; stroke: #000000; stroke-width: 0.8; stroke-linejoin: miter; stroke-linecap: square"/>
   </g>
   <g id="patch_6">
    <path d="M 10.8 10.8 
L 1069.2 10.8 
" style="fill: none; stroke: #000000; stroke-width: 0.8; stroke-linejoin: miter; stroke-linecap: square"/>
   </g>
   <g id="text_1">
    <!-- $B_{1}$ -->
    <g transform="translate(85.144628 136.607438)scale(0.12 -0.12)">
     <defs>
      <path id="DejaVuSans-Oblique-42" d="M 1081 4666 
L 2694 4666 
Q 3350 4666 3675 4422 
Q 4000 4178 4000 3688 
Q 4000 3238 3720 2911 
Q 3441 2584 2988 2516 
Q 3375 2428 3569 2181 
Q 3763 1934 3763 1522 
Q 3763 819 3242 409 
Q 2722 0 1819 0 
L 172 0 
L 1081 4666 
z
M 1234 2228 
L 903 519 
L 1919 519 
Q 2491 519 2800 781 
Q 3109 1044 3109 1522 
Q 3109 1891 2904 2059 
Q 2700 2228 2247 2228 
L 1234 2228 
z
M 1606 4147 
L 1331 2741 
L 2272 2741 
Q 2775 2741 3058 2959 
Q 3341 3178 3341 3566 
Q 3341 3869 3150 4008 
Q 2959 4147 2541 4147 
L 1606 4147 
z
" transform="scale(0.015625)"/>
      <path id="DejaVuSans-31" d="M 794 531 
L 1825 531 
L 1825 4091 
L 703 3866 
L 703 4441 
L 1819 4666 
L 2450 4666 
L 2450 531 
L 3481 531 
L 3481 0 
L 794 0 
L 794 531 
z
" transform="scale(0.015625)"/>
     </defs>
     <use xlink:href="#DejaVuSans-Oblique-42" transform="translate(0 0.09375)"/>
     <use xlink:href="#DejaVuSans-31" transform="translate(68.603516 -16.3125)scale(0.7)"/>
    </g>
   </g>
   <g id="text_2">
    <!-- $B_{2}$ -->
    <g transform="translate(241.342975 158.756198)scale(0.12 -0.12)">
     <defs>
      <path id="DejaVuSans-32" d="M 1228 531 
L 3431 531 
L 3431 0 
L 469 0 
L 469 531 
Q 828 903 1448 1529 
Q 2069 2156 2228 2338 
Q 2531 2678 2651 2914 
Q 2772 3150 2772 3378 
Q 2772 3750 2511 3984 
Q 2250 4219 1831 4219 
Q 1534 4219 1204 4116 
Q 875 4013 500 3803 
L 500 4441 
Q 881 4594 1212 4672 
Q 1544 4750 1819 4750 
Q 2544 4750 2975 4387 
Q 3406 4025 3406 3419 
Q 3406 3131 3298 2873 
Q 3191 2616 2906 2266 
Q 2828 2175 2409 1742 
Q 1991 1309 1228 531 
z
" transform="scale(0.015625)"/>
     </defs>
     <use xlink:href="#DejaVuSans-Oblique-42" transform="translate(0 0.09375)"/>
     <use xlink:href="#DejaVuSans-32" transform="translate(68.603516 -16.3125)scale(0.7)"/>
    </g>
   </g>
   <g id="text_3">
    <!-- $B_{3}$ -->
    <g transform="translate(272.582645 203.053719)scale(0.12 -0.12)">
     <defs>
      <path id="DejaVuSans-33" d="M 2597 2516 
Q 3050 2419 3304 2112 
Q 3559 1806 3559 1356 
Q 3559 666 3084 287 
Q 2609 -91 1734 -91 
Q 1441 -91 1130 -33 
Q 819 25 488 141 
L 488 750 
Q 750 597 1062 519 
Q 1375 441 1716 441 
Q 2309 441 2620 675 
Q 2931 909 2931 1356 
Q 2931 1769 2642 2001 
Q 2353 2234 1838 2234 
L 1294 2234 
L 1294 2753 
L 1863 2753 
Q 2328 2753 2575 2939 
Q 2822 3125 2822 3475 
Q 2822 3834 2567 4026 
Q 2313 4219 1838 4219 
Q 1578 4219 1281 4162 
Q 984 4106 628 3988 
L 628 4550 
Q 988 4650 1302 4700 
Q 1616 4750 1894 4750 
Q 2613 4750 3031 4423 
Q 3450 4097 3450 3541 
Q 3450 3153 3228 2886 
Q 3006 2619 2597 2516 
z
" transform="scale(0.015625)"/>
     </defs>
     <use xlink:href="#DejaVuSans-Oblique-42" transform="translate(0 0.09375)"/>
     <use xlink:href="#DejaVuSans-33" transform="translate(68.603516 -16.3125)scale(0.7)"/>
    </g>
   </g>
   <g id="text_4">
    <!-- $B_{4}$ -->
    <g transform="translate(397.541322 225.202479)scale(0.12 -0.12)">
     <defs>
      <path id="DejaVuSans-34" d="M 2419 4116 
L 825 1625 
L 2419 1625 
L 2419 4116 
z
M 2253 4666 
L 3047 4666 
L 3047 1625 
L 3713 1625 
L 3713 1100 
L 3047 1100 
L 3047 0 
L 2419 0 
L 2419 1100 
L 313 1100 
L 313 1709 
L 2253 4666 
z
" transform="scale(0.015625)"/>
     </defs>
     <use xlink:href="#DejaVuSans-Oblique-42" transform="translate(0 0.09375)"/>
     <use xlink:href="#DejaVuSans-34" transform="translate(68.603516 -16.3125)scale(0.7)"/>
    </g>
   </g>
   <g id="text_5">
    <!-- $B_{5}$ -->
    <g transform="translate(428.780992 247.35124)scale(0.12 -0.12)">
     <defs>
      <path id="DejaVuSans-35" d="M 691 4666 
L 3169 4666 
L 3169 4134 
L 1269 4134 
L 1269 2991 
Q 1406 3038 1543 3061 
Q 1681 3084 1819 3084 
Q 2600 3084 3056 2656 
Q 3513 2228 3513 1497 
Q 3513 744 3044 326 
Q 2575 -91 1722 -91 
Q 1428 -91 1123 -41 
Q 819 9 494 109 
L 494 744 
Q 775 591 1075 516 
Q 1375 441 1709 441 
Q 2250 441 2565 725 
Q 2881 1009 2881 1497 
Q 2881 1984 2565 2268 
Q 2250 2553 1709 2553 
Q 1456 2553 1204 2497 
Q 953 2441 691 2322 
L 691 4666 
z
" transform="scale(0.015625)"/>
     </defs>
     <use xlink:href="#DejaVuSans-Oblique-42" transform="translate(0 0.09375)"/>
     <use xlink:href="#DejaVuSans-35" transform="translate(68.603516 -16.3125)scale(0.7)"/>
    </g>
   </g>
   <g id="text_6">
    <!-- $B_{6}$ -->
    <g transform="translate(460.020661 335.946281)scale(0.12 -0.12)">
     <defs>
      <path id="DejaVuSans-36" d="M 2113 2584 
Q 1688 2584 1439 2293 
Q 1191 2003 1191 1497 
Q 1191 994 1439 701 
Q 1688 409 2113 409 
Q 2538 409 2786 701 
Q 3034 994 3034 1497 
Q 3034 2003 2786 2293 
Q 2538 2584 2113 2584 
z
M 3366 4563 
L 3366 3988 
Q 3128 4100 2886 4159 
Q 2644 4219 2406 4219 
Q 1781 4219 1451 3797 
Q 1122 3375 1075 2522 
Q 1259 2794 1537 2939 
Q 1816 3084 2150 3084 
Q 2853 3084 3261 2657 
Q 3669 2231 3669 1497 
Q 3669 778 3244 343 
Q 2819 -91 2113 -91 
Q 1303 -91 875 529 
Q 447 1150 447 2328 
Q 447 3434 972 4092 
Q 1497 4750 2381 4750 
Q 2619 4750 2861 4703 
Q 3103 4656 3366 4563 
z
" transform="scale(0.015625)"/>
     </defs>
     <use xlink:href="#DejaVuSans-Oblique-42" transform="translate(0 0.09375)"/>
     <use xlink:href="#DejaVuSans-36" transform="translate(68.603516 -16.3125)scale(0.7)"/>
    </g>
   </g>
   <g id="text_7">
    <!-- $B_{7}$ -->
    <g transform="translate(491.260331 402.392562)scale(0.12 -0.12)">
     <defs>
      <path id="DejaVuSans-37" d="M 525 4666 
L 3525 4666 
L 3525 4397 
L 1831 0 
L 1172 0 
L 2766 4134 
L 525 4134 
L 525 4666 
z
" transform="scale(0.015625)"/>
     </defs>
     <use xlink:href="#DejaVuSans-Oblique-42" transform="translate(0 0.09375)"/>
     <use xlink:href="#DejaVuSans-37" transform="translate(68.603516 -16.3125)scale(0.7)"/>
    </g>
   </g>
   <g id="text_8">
    <!-- $B_{8}$ -->
    <g transform="translate(522.5 424.541322)scale(0.12 -0.12)">
     <defs>
      <path id="DejaVuSans-38" d="M 2034 2216 
Q 1584 2216 1326 1975 
Q 1069 1734 1069 1313 
Q 1069 891 1326 650 
Q 1584 409 2034 409 
Q 2484 409 2743 651 
Q 3003 894 3003 1313 
Q 3003 1734 2745 1975 
Q 2488 2216 2034 2216 
z
M 1403 2484 
Q 997 2584 770 2862 
Q 544 3141 544 3541 
Q 544 4100 942 4425 
Q 1341 4750 2034 4750 
Q 2731 4750 3128 4425 
Q 3525 4100 3525 3541 
Q 3525 3141 3298 2862 
Q 3072 2584 2669 2484 
Q 3125 2378 3379 2068 
Q 3634 1759 3634 1313 
Q 3634 634 3220 271 
Q 2806 -91 2034 -91 
Q 1263 -91 848 271 
Q 434 634 434 1313 
Q 434 1759 690 2068 
Q 947 2378 1403 2484 
z
M 1172 3481 
Q 1172 3119 1398 2916 
Q 1625 2713 2034 2713 
Q 2441 2713 2670 2916 
Q 2900 3119 2900 3481 
Q 2900 3844 2670 4047 
Q 2441 4250 2034 4250 
Q 1625 4250 1398 4047 
Q 1172 3844 1172 3481 
z
" transform="scale(0.015625)"/>
     </defs>
     <use xlink:href="#DejaVuSans-Oblique-42" transform="translate(0 0.09375)"/>
     <use xlink:href="#DejaVuSans-38" transform="translate(68.603516 -16.3125)scale(0.7)"/>
    </g>
   </g>
   <g id="text_9">
    <!-- $B_{9}$ -->
    <g transform="translate(553.739669 468.838843)scale(0.12 -0.12)">
     <defs>
      <path id="DejaVuSans-39" d="M 703 97 
L 703 672 
Q 941 559 1184 500 
Q 1428 441 1663 441 
Q 2288 441 2617 861 
Q 2947 1281 2994 2138 
Q 2813 1869 2534 1725 
Q 2256 1581 1919 1581 
Q 1219 1581 811 2004 
Q 403 2428 403 3163 
Q 403 3881 828 4315 
Q 1253 4750 1959 4750 
Q 2769 4750 3195 4129 
Q 3622 3509 3622 2328 
Q 3622 1225 3098 567 
Q 2575 -91 1691 -91 
Q 1453 -91 1209 -44 
Q 966 3 703 97 
z
M 1959 2075 
Q 2384 2075 2632 2365 
Q 2881 2656 2881 3163 
Q 2881 3666 2632 3958 
Q 2384 4250 1959 4250 
Q 1534 4250 1286 3958 
Q 1038 3666 1038 3163 
Q 1038 2656 1286 2365 
Q 1534 2075 1959 2075 
z
" transform="scale(0.015625)"/>
     </defs>
     <use xlink:href="#DejaVuSans-Oblique-42" transform="translate(0 0.09375)"/>
     <use xlink:href="#DejaVuSans-39" transform="translate(68.603516 -16.3125)scale(0.7)"/>
    </g>
   </g>
   <g id="text_10">
    <!-- $G_{11}$ -->
    <g transform="translate(608.479339 423.041322)scale(0.12 -0.12)">
     <defs>
      <path id="DejaVuSans-Oblique-47" d="M 3494 697 
L 3738 1919 
L 2700 1919 
L 2797 2438 
L 4453 2438 
L 4050 384 
Q 3634 156 3143 32 
Q 2653 -91 2156 -91 
Q 1278 -91 783 396 
Q 288 884 288 1753 
Q 288 2475 589 3126 
Q 891 3778 1422 4213 
Q 1756 4484 2153 4617 
Q 2550 4750 3034 4750 
Q 3472 4750 3873 4639 
Q 4275 4528 4641 4306 
L 4513 3634 
Q 4231 3928 3853 4083 
Q 3475 4238 3047 4238 
Q 2550 4238 2172 4048 
Q 1794 3859 1497 3463 
Q 1244 3125 1098 2667 
Q 953 2209 953 1734 
Q 953 1081 1287 751 
Q 1622 422 2284 422 
Q 2616 422 2925 492 
Q 3234 563 3494 697 
z
" transform="scale(0.015625)"/>
     </defs>
     <use xlink:href="#DejaVuSans-Oblique-47" transform="translate(0 0.78125)"/>
     <use xlink:href="#DejaVuSans-31" transform="translate(77.490234 -15.625)scale(0.7)"/>
     <use xlink:href="#DejaVuSans-31" transform="translate(122.026367 -15.625)scale(0.7)"/>
    </g>
   </g>
   <g id="text_11">
    <!-- $G_{10}$ -->
    <g transform="translate(639.719008 400.892562)scale(0.12 -0.12)">
     <defs>
      <path id="DejaVuSans-30" d="M 2034 4250 
Q 1547 4250 1301 3770 
Q 1056 3291 1056 2328 
Q 1056 1369 1301 889 
Q 1547 409 2034 409 
Q 2525 409 2770 889 
Q 3016 1369 3016 2328 
Q 3016 3291 2770 3770 
Q 2525 4250 2034 4250 
z
M 2034 4750 
Q 2819 4750 3233 4129 
Q 3647 3509 3647 2328 
Q 3647 1150 3233 529 
Q 2819 -91 2034 -91 
Q 1250 -91 836 529 
Q 422 1150 422 2328 
Q 422 3509 836 4129 
Q 1250 4750 2034 4750 
z
" transform="scale(0.015625)"/>
     </defs>
     <use xlink:href="#DejaVuSans-Oblique-47" transform="translate(0 0.78125)"/>
     <use xlink:href="#DejaVuSans-31" transform="translate(77.490234 -15.625)scale(0.7)"/>
     <use xlink:href="#DejaVuSans-30" transform="translate(122.026367 -15.625)scale(0.7)"/>
    </g>
   </g>
   <g id="text_12">
    <!-- $G_{9}$ -->
    <g transform="translate(670.958678 378.743802)scale(0.12 -0.12)">
     <use xlink:href="#DejaVuSans-Oblique-47" transform="translate(0 0.78125)"/>
     <use xlink:href="#DejaVuSans-39" transform="translate(77.490234 -15.625)scale(0.7)"/>
    </g>
   </g>
   <g id="text_13">
    <!-- $G_{8}$ -->
    <g transform="translate(733.438017 334.446281)scale(0.12 -0.12)">
     <use xlink:href="#DejaVuSans-Oblique-47" transform="translate(0 0.78125)"/>
     <use xlink:href="#DejaVuSans-38" transform="translate(77.490234 -15.625)scale(0.7)"/>
    </g>
   </g>
   <g id="text_14">
    <!-- $G_{7}$ -->
    <g transform="translate(764.677686 312.297521)scale(0.12 -0.12)">
     <use xlink:href="#DejaVuSans-Oblique-47" transform="translate(0 0.78125)"/>
     <use xlink:href="#DejaVuSans-37" transform="translate(77.490234 -15.625)scale(0.7)"/>
    </g>
   </g>
   <g id="text_15">
    <!-- $G_{6}$ -->
    <g transform="translate(827.157025 268)scale(0.12 -0.12)">
     <use xlink:href="#DejaVuSans-Oblique-47" transform="translate(0 0.78125)"/>
     <use xlink:href="#DejaVuSans-36" transform="translate(77.490234 -15.625)scale(0.7)"/>
    </g>
   </g>
   <g id="text_16">
    <!-- $G_{5}$ -->
    <g transform="translate(858.396694 223.702479)scale(0.12 -0.12)">
     <use xlink:href="#DejaVuSans-Oblique-47" transform="translate(0 0.78125)"/>
     <use xlink:href="#DejaVuSans-35" transform="translate(77.490234 -15.625)scale(0.7)"/>
    </g>
   </g>
   <g id="text_17">
    <!-- $G_{4}$ -->
    <g transform="translate(889.636364 179.404959)scale(0.12 -0.12)">
     <use xlink:href="#DejaVuSans-Oblique-47" transform="translate(0 0.78125)"/>
     <use xlink:href="#DejaVuSans-34" transform="translate(77.490234 -15.625)scale(0.7)"/>
    </g>
   </g>
   <g id="text_18">
    <!-- $G_{3}$ -->
    <g transform="translate(920.876033 157.256198)scale(0.12 -0.12)">
     <use xlink:href="#DejaVuSans-Oblique-47" transform="translate(0 0.78125)"/>
     <use xlink:href="#DejaVuSans-33" transform="translate(77.490234 -15.625)scale(0.7)"/>
    </g>
   </g>
   <g id="text_19">
    <!-- $G_{2}$ -->
    <g transform="translate(952.115702 90.809917)scale(0.12 -0.12)">
     <use xlink:href="#DejaVuSans-Oblique-47" transform="translate(0 0.78125)"/>
     <use xlink:href="#DejaVuSans-32" transform="translate(77.490234 -15.625)scale(0.7)"/>
    </g>
   </g>
   <g id="text_20">
    <!-- $G_{1}$ -->
    <g transform="translate(983.355372 68.661157)scale(0.12 -0.12)">
     <use xlink:href="#DejaVuSans-Oblique-47" transform="translate(0 0.78125)"/>
     <use xlink:href="#DejaVuSans-31" transform="translate(77.490234 -15.625)scale(0.7)"/>
    </g>
   </g>
  </g>
 </g>
 <defs>
  <clipPath id="pdc9b5fa0c5">
   <rect x="10.8" y="10.8" width="1058.4" height="482.4"/>
  </clipPath>
 </defs>
</svg>
