<?xml version="1.0" encoding="utf-8" standalone="no"?>
<!DOCTYPE svg PUBLIC "-//W3C//DTD SVG 1.1//EN"
  "http://www.w3.org/Graphics/SVG/1.1/DTD/svg11.dtd">
<svg height="504pt" version="1.1" viewBox="0 0 1080 504" width="1080pt" xmlns="http://www.w3.org/2000/svg" xmlns:xlink="http://www.w3.org/1999/xlink">
 <metadata>
  <rdf:RDF xmlns:cc="http://creativecommons.org/ns#" xmlns:dc="http://purl.org/dc/elements/1.1/" xmlns:rdf="http://www.w3.org/1999/02/22-rdf-syntax-ns#">
   <cc:Work>
    <dc:type rdf:resource="http://purl.org/dc/dcmitype/StillImage"/>
    <dc:date>2022-04-03T09:33:59.685986</dc:date>
    <dc:format>image/svg+xml</dc:format>
    <dc:creator>
     <cc:Agent>
      <dc:title>Matplotlib v3.4.3, https://matplotlib.org/</dc:title>
     </cc:Agent>
    </dc:creator>
   </cc:Work>
  </rdf:RDF>
 </metadata>
 <defs>
  <style type="text/css">*{stroke-linecap:butt;stroke-linejoin:round;}</style>
 </defs>
 <g id="figure_1">
  <g id="patch_1">
   <path d="M 0 504 
L 1080 504 
L 1080 0 
L 0 0 
z
" style="fill:#ffffff;"/>
  </g>
  <g id="axes_1">
   <g id="patch_2">
    <path d="M 10.8 493.2 
L 1069.2 493.2 
L 1069.2 10.8 
L 10.8 10.8 
z
" style="fill:#ffffff;"/>
   </g>
   <g id="LineCollection_1">
    <path clip-path="url(#p5cec1d897a)" d="M 602.479339 407.041322 
L 571.239669 451.338843 
" style="fill:none;stroke:#000000;stroke-width:0.4;"/>
    <path clip-path="url(#p5cec1d897a)" d="M 602.479339 407.041322 
L 540 407.041322 
" style="fill:none;stroke:#000000;stroke-width:0.4;"/>
    <path clip-path="url(#p5cec1d897a)" d="M 540 407.041322 
L 633.719008 384.892562 
" style="fill:none;stroke:#000000;stroke-width:0.4;"/>
    <path clip-path="url(#p5cec1d897a)" d="M 633.719008 384.892562 
L 508.760331 384.892562 
" style="fill:none;stroke:#000000;stroke-width:0.4;"/>
    <path clip-path="url(#p5cec1d897a)" d="M 508.760331 384.892562 
L 664.958678 362.743802 
" style="fill:none;stroke:#000000;stroke-width:0.4;"/>
    <path clip-path="url(#p5cec1d897a)" d="M 664.958678 362.743802 
L 696.198347 340.595041 
" style="fill:none;stroke:#000000;stroke-width:0.4;"/>
    <path clip-path="url(#p5cec1d897a)" d="M 696.198347 340.595041 
L 727.438017 318.446281 
" style="fill:none;stroke:#000000;stroke-width:0.4;"/>
    <path clip-path="url(#p5cec1d897a)" d="M 727.438017 318.446281 
L 477.520661 318.446281 
" style="fill:none;stroke:#000000;stroke-width:0.4;"/>
    <path clip-path="url(#p5cec1d897a)" d="M 477.520661 318.446281 
L 758.677686 296.297521 
" style="fill:none;stroke:#000000;stroke-width:0.4;"/>
    <path clip-path="url(#p5cec1d897a)" d="M 758.677686 296.297521 
L 789.917355 274.14876 
" style="fill:none;stroke:#000000;stroke-width:0.4;"/>
    <path clip-path="url(#p5cec1d897a)" d="M 789.917355 274.14876 
L 821.157025 252 
" style="fill:none;stroke:#000000;stroke-width:0.4;"/>
    <path clip-path="url(#p5cec1d897a)" d="M 821.157025 252 
L 446.280992 229.85124 
" style="fill:none;stroke:#000000;stroke-width:0.4;"/>
    <path clip-path="url(#p5cec1d897a)" d="M 446.280992 229.85124 
L 852.396694 207.702479 
" style="fill:none;stroke:#000000;stroke-width:0.4;"/>
    <path clip-path="url(#p5cec1d897a)" d="M 852.396694 207.702479 
L 415.041322 207.702479 
" style="fill:none;stroke:#000000;stroke-width:0.4;"/>
    <path clip-path="url(#p5cec1d897a)" d="M 415.041322 207.702479 
L 383.801653 207.702479 
" style="fill:none;stroke:#000000;stroke-width:0.4;"/>
    <path clip-path="url(#p5cec1d897a)" d="M 383.801653 207.702479 
L 352.561983 207.702479 
" style="fill:none;stroke:#000000;stroke-width:0.4;"/>
    <path clip-path="url(#p5cec1d897a)" d="M 352.561983 207.702479 
L 321.322314 185.553719 
" style="fill:none;stroke:#000000;stroke-width:0.4;"/>
    <path clip-path="url(#p5cec1d897a)" d="M 321.322314 185.553719 
L 290.082645 185.553719 
" style="fill:none;stroke:#000000;stroke-width:0.4;"/>
    <path clip-path="url(#p5cec1d897a)" d="M 290.082645 185.553719 
L 883.636364 163.404959 
" style="fill:none;stroke:#000000;stroke-width:0.4;"/>
    <path clip-path="url(#p5cec1d897a)" d="M 883.636364 163.404959 
L 914.876033 141.256198 
" style="fill:none;stroke:#000000;stroke-width:0.4;"/>
    <path clip-path="url(#p5cec1d897a)" d="M 914.876033 141.256198 
L 258.842975 141.256198 
" style="fill:none;stroke:#000000;stroke-width:0.4;"/>
    <path clip-path="url(#p5cec1d897a)" d="M 258.842975 141.256198 
L 227.603306 141.256198 
" style="fill:none;stroke:#000000;stroke-width:0.4;"/>
    <path clip-path="url(#p5cec1d897a)" d="M 227.603306 141.256198 
L 196.363636 141.256198 
" style="fill:none;stroke:#000000;stroke-width:0.4;"/>
    <path clip-path="url(#p5cec1d897a)" d="M 196.363636 141.256198 
L 165.123967 119.107438 
" style="fill:none;stroke:#000000;stroke-width:0.4;"/>
    <path clip-path="url(#p5cec1d897a)" d="M 165.123967 119.107438 
L 133.884298 119.107438 
" style="fill:none;stroke:#000000;stroke-width:0.4;"/>
    <path clip-path="url(#p5cec1d897a)" d="M 133.884298 119.107438 
L 102.644628 119.107438 
" style="fill:none;stroke:#000000;stroke-width:0.4;"/>
    <path clip-path="url(#p5cec1d897a)" d="M 102.644628 119.107438 
L 946.115702 74.809917 
" style="fill:none;stroke:#000000;stroke-width:0.4;"/>
    <path clip-path="url(#p5cec1d897a)" d="M 946.115702 74.809917 
L 977.355372 52.661157 
" style="fill:none;stroke:#000000;stroke-width:0.4;"/>
   </g>
   <g id="matplotlib.axis_1">
    <g id="xtick_1"/>
    <g id="xtick_2"/>
    <g id="xtick_3"/>
    <g id="xtick_4"/>
    <g id="xtick_5"/>
    <g id="xtick_6"/>
    <g id="xtick_7"/>
   </g>
   <g id="matplotlib.axis_2">
    <g id="ytick_1"/>
    <g id="ytick_2"/>
    <g id="ytick_3"/>
    <g id="ytick_4"/>
    <g id="ytick_5"/>
    <g id="ytick_6"/>
    <g id="ytick_7"/>
    <g id="ytick_8"/>
   </g>
   <g id="PathCollection_1">
    <path clip-path="url(#p5cec1d897a)" d="M 602.479339 412.041322 
C 603.805354 412.041322 605.077238 411.514491 606.014873 410.576856 
C 606.952507 409.639222 607.479339 408.367338 607.479339 407.041322 
C 607.479339 405.715307 606.952507 404.443423 606.014873 403.505788 
C 605.077238 402.568154 603.805354 402.041322 602.479339 402.041322 
C 601.153323 402.041322 599.881439 402.568154 598.943805 403.505788 
C 598.00617 404.443423 597.479339 405.715307 597.479339 407.041322 
C 597.479339 408.367338 598.00617 409.639222 598.943805 410.576856 
C 599.881439 411.514491 601.153323 412.041322 602.479339 412.041322 
z
" style="fill:#008000;stroke:#000000;stroke-width:0.4;"/>
    <path clip-path="url(#p5cec1d897a)" d="M 571.239669 456.338843 
C 572.565685 456.338843 573.837569 455.812011 574.775203 454.874377 
C 575.712838 453.936742 576.239669 452.664858 576.239669 451.338843 
C 576.239669 450.012827 575.712838 448.740944 574.775203 447.803309 
C 573.837569 446.865675 572.565685 446.338843 571.239669 446.338843 
C 569.913654 446.338843 568.64177 446.865675 567.704136 447.803309 
C 566.766501 448.740944 566.239669 450.012827 566.239669 451.338843 
C 566.239669 452.664858 566.766501 453.936742 567.704136 454.874377 
C 568.64177 455.812011 569.913654 456.338843 571.239669 456.338843 
z
" style="fill:#0000ff;stroke:#000000;stroke-width:0.4;"/>
    <path clip-path="url(#p5cec1d897a)" d="M 540 412.041322 
C 541.326016 412.041322 542.597899 411.514491 543.535534 410.576856 
C 544.473168 409.639222 545 408.367338 545 407.041322 
C 545 405.715307 544.473168 404.443423 543.535534 403.505788 
C 542.597899 402.568154 541.326016 402.041322 540 402.041322 
C 538.673985 402.041322 537.402101 402.568154 536.464466 403.505788 
C 535.526832 404.443423 535 405.715307 535 407.041322 
C 535 408.367338 535.526832 409.639222 536.464466 410.576856 
C 537.402101 411.514491 538.673985 412.041322 540 412.041322 
z
" style="fill:#0000ff;stroke:#000000;stroke-width:0.4;"/>
    <path clip-path="url(#p5cec1d897a)" d="M 633.719008 389.892562 
C 635.045024 389.892562 636.316908 389.36573 637.254542 388.428096 
C 638.192177 387.490461 638.719008 386.218577 638.719008 384.892562 
C 638.719008 383.566546 638.192177 382.294663 637.254542 381.357028 
C 636.316908 380.419394 635.045024 379.892562 633.719008 379.892562 
C 632.392993 379.892562 631.121109 380.419394 630.183474 381.357028 
C 629.24584 382.294663 628.719008 383.566546 628.719008 384.892562 
C 628.719008 386.218577 629.24584 387.490461 630.183474 388.428096 
C 631.121109 389.36573 632.392993 389.892562 633.719008 389.892562 
z
" style="fill:#008000;stroke:#000000;stroke-width:0.4;"/>
    <path clip-path="url(#p5cec1d897a)" d="M 508.760331 389.892562 
C 510.086346 389.892562 511.35823 389.36573 512.295864 388.428096 
C 513.233499 387.490461 513.760331 386.218577 513.760331 384.892562 
C 513.760331 383.566546 513.233499 382.294663 512.295864 381.357028 
C 511.35823 380.419394 510.086346 379.892562 508.760331 379.892562 
C 507.434315 379.892562 506.162431 380.419394 505.224797 381.357028 
C 504.287162 382.294663 503.760331 383.566546 503.760331 384.892562 
C 503.760331 386.218577 504.287162 387.490461 505.224797 388.428096 
C 506.162431 389.36573 507.434315 389.892562 508.760331 389.892562 
z
" style="fill:#0000ff;stroke:#000000;stroke-width:0.4;"/>
    <path clip-path="url(#p5cec1d897a)" d="M 664.958678 367.743802 
C 666.284693 367.743802 667.556577 367.21697 668.494212 366.279336 
C 669.431846 365.341701 669.958678 364.069817 669.958678 362.743802 
C 669.958678 361.417786 669.431846 360.145902 668.494212 359.208268 
C 667.556577 358.270633 666.284693 357.743802 664.958678 357.743802 
C 663.632662 357.743802 662.360778 358.270633 661.423144 359.208268 
C 660.485509 360.145902 659.958678 361.417786 659.958678 362.743802 
C 659.958678 364.069817 660.485509 365.341701 661.423144 366.279336 
C 662.360778 367.21697 663.632662 367.743802 664.958678 367.743802 
z
" style="fill:#008000;stroke:#000000;stroke-width:0.4;"/>
    <path clip-path="url(#p5cec1d897a)" d="M 696.198347 345.595041 
C 697.524363 345.595041 698.796246 345.06821 699.733881 344.130575 
C 700.671516 343.192941 701.198347 341.921057 701.198347 340.595041 
C 701.198347 339.269026 700.671516 337.997142 699.733881 337.059507 
C 698.796246 336.121873 697.524363 335.595041 696.198347 335.595041 
C 694.872332 335.595041 693.600448 336.121873 692.662813 337.059507 
C 691.725179 337.997142 691.198347 339.269026 691.198347 340.595041 
C 691.198347 341.921057 691.725179 343.192941 692.662813 344.130575 
C 693.600448 345.06821 694.872332 345.595041 696.198347 345.595041 
z
" style="stroke:#000000;stroke-width:0.4;"/>
    <path clip-path="url(#p5cec1d897a)" d="M 727.438017 323.446281 
C 728.764032 323.446281 730.035916 322.919449 730.97355 321.981815 
C 731.911185 321.04418 732.438017 319.772296 732.438017 318.446281 
C 732.438017 317.120265 731.911185 315.848382 730.97355 314.910747 
C 730.035916 313.973113 728.764032 313.446281 727.438017 313.446281 
C 726.112001 313.446281 724.840117 313.973113 723.902483 314.910747 
C 722.964848 315.848382 722.438017 317.120265 722.438017 318.446281 
C 722.438017 319.772296 722.964848 321.04418 723.902483 321.981815 
C 724.840117 322.919449 726.112001 323.446281 727.438017 323.446281 
z
" style="fill:#008000;stroke:#000000;stroke-width:0.4;"/>
    <path clip-path="url(#p5cec1d897a)" d="M 477.520661 323.446281 
C 478.846677 323.446281 480.118561 322.919449 481.056195 321.981815 
C 481.99383 321.04418 482.520661 319.772296 482.520661 318.446281 
C 482.520661 317.120265 481.99383 315.848382 481.056195 314.910747 
C 480.118561 313.973113 478.846677 313.446281 477.520661 313.446281 
C 476.194646 313.446281 474.922762 313.973113 473.985127 314.910747 
C 473.047493 315.848382 472.520661 317.120265 472.520661 318.446281 
C 472.520661 319.772296 473.047493 321.04418 473.985127 321.981815 
C 474.922762 322.919449 476.194646 323.446281 477.520661 323.446281 
z
" style="fill:#0000ff;stroke:#000000;stroke-width:0.4;"/>
    <path clip-path="url(#p5cec1d897a)" d="M 758.677686 301.297521 
C 760.003701 301.297521 761.275585 300.770689 762.21322 299.833055 
C 763.150854 298.89542 763.677686 297.623536 763.677686 296.297521 
C 763.677686 294.971505 763.150854 293.699621 762.21322 292.761987 
C 761.275585 291.824352 760.003701 291.297521 758.677686 291.297521 
C 757.35167 291.297521 756.079787 291.824352 755.142152 292.761987 
C 754.204517 293.699621 753.677686 294.971505 753.677686 296.297521 
C 753.677686 297.623536 754.204517 298.89542 755.142152 299.833055 
C 756.079787 300.770689 757.35167 301.297521 758.677686 301.297521 
z
" style="fill:#008000;stroke:#000000;stroke-width:0.4;"/>
    <path clip-path="url(#p5cec1d897a)" d="M 789.917355 279.14876 
C 791.243371 279.14876 792.515255 278.621929 793.452889 277.684294 
C 794.390524 276.74666 794.917355 275.474776 794.917355 274.14876 
C 794.917355 272.822745 794.390524 271.550861 793.452889 270.613226 
C 792.515255 269.675592 791.243371 269.14876 789.917355 269.14876 
C 788.59134 269.14876 787.319456 269.675592 786.381821 270.613226 
C 785.444187 271.550861 784.917355 272.822745 784.917355 274.14876 
C 784.917355 275.474776 785.444187 276.74666 786.381821 277.684294 
C 787.319456 278.621929 788.59134 279.14876 789.917355 279.14876 
z
" style="stroke:#000000;stroke-width:0.4;"/>
    <path clip-path="url(#p5cec1d897a)" d="M 821.157025 257 
C 822.48304 257 823.754924 256.473168 824.692559 255.535534 
C 825.630193 254.597899 826.157025 253.326016 826.157025 252 
C 826.157025 250.673984 825.630193 249.402101 824.692559 248.464466 
C 823.754924 247.526832 822.48304 247 821.157025 247 
C 819.831009 247 818.559125 247.526832 817.621491 248.464466 
C 816.683856 249.402101 816.157025 250.673984 816.157025 252 
C 816.157025 253.326016 816.683856 254.597899 817.621491 255.535534 
C 818.559125 256.473168 819.831009 257 821.157025 257 
z
" style="fill:#008000;stroke:#000000;stroke-width:0.4;"/>
    <path clip-path="url(#p5cec1d897a)" d="M 446.280992 234.85124 
C 447.607007 234.85124 448.878891 234.324408 449.816526 233.386774 
C 450.75416 232.449139 451.280992 231.177255 451.280992 229.85124 
C 451.280992 228.525224 450.75416 227.25334 449.816526 226.315706 
C 448.878891 225.378071 447.607007 224.85124 446.280992 224.85124 
C 444.954976 224.85124 443.683092 225.378071 442.745458 226.315706 
C 441.807823 227.25334 441.280992 228.525224 441.280992 229.85124 
C 441.280992 231.177255 441.807823 232.449139 442.745458 233.386774 
C 443.683092 234.324408 444.954976 234.85124 446.280992 234.85124 
z
" style="fill:#0000ff;stroke:#000000;stroke-width:0.4;"/>
    <path clip-path="url(#p5cec1d897a)" d="M 852.396694 212.702479 
C 853.72271 212.702479 854.994594 212.175648 855.932228 211.238013 
C 856.869863 210.300379 857.396694 209.028495 857.396694 207.702479 
C 857.396694 206.376464 856.869863 205.10458 855.932228 204.166945 
C 854.994594 203.229311 853.72271 202.702479 852.396694 202.702479 
C 851.070679 202.702479 849.798795 203.229311 848.86116 204.166945 
C 847.923526 205.10458 847.396694 206.376464 847.396694 207.702479 
C 847.396694 209.028495 847.923526 210.300379 848.86116 211.238013 
C 849.798795 212.175648 851.070679 212.702479 852.396694 212.702479 
z
" style="fill:#008000;stroke:#000000;stroke-width:0.4;"/>
    <path clip-path="url(#p5cec1d897a)" d="M 415.041322 212.702479 
C 416.367338 212.702479 417.639222 212.175648 418.576856 211.238013 
C 419.514491 210.300379 420.041322 209.028495 420.041322 207.702479 
C 420.041322 206.376464 419.514491 205.10458 418.576856 204.166945 
C 417.639222 203.229311 416.367338 202.702479 415.041322 202.702479 
C 413.715307 202.702479 412.443423 203.229311 411.505788 204.166945 
C 410.568154 205.10458 410.041322 206.376464 410.041322 207.702479 
C 410.041322 209.028495 410.568154 210.300379 411.505788 211.238013 
C 412.443423 212.175648 413.715307 212.702479 415.041322 212.702479 
z
" style="fill:#0000ff;stroke:#000000;stroke-width:0.4;"/>
    <path clip-path="url(#p5cec1d897a)" d="M 383.801653 212.702479 
C 385.127668 212.702479 386.399552 212.175648 387.337187 211.238013 
C 388.274821 210.300379 388.801653 209.028495 388.801653 207.702479 
C 388.801653 206.376464 388.274821 205.10458 387.337187 204.166945 
C 386.399552 203.229311 385.127668 202.702479 383.801653 202.702479 
C 382.475637 202.702479 381.203754 203.229311 380.266119 204.166945 
C 379.328484 205.10458 378.801653 206.376464 378.801653 207.702479 
C 378.801653 209.028495 379.328484 210.300379 380.266119 211.238013 
C 381.203754 212.175648 382.475637 212.702479 383.801653 212.702479 
z
" style="stroke:#000000;stroke-width:0.4;"/>
    <path clip-path="url(#p5cec1d897a)" d="M 352.561983 212.702479 
C 353.887999 212.702479 355.159883 212.175648 356.097517 211.238013 
C 357.035152 210.300379 357.561983 209.028495 357.561983 207.702479 
C 357.561983 206.376464 357.035152 205.10458 356.097517 204.166945 
C 355.159883 203.229311 353.887999 202.702479 352.561983 202.702479 
C 351.235968 202.702479 349.964084 203.229311 349.02645 204.166945 
C 348.088815 205.10458 347.561983 206.376464 347.561983 207.702479 
C 347.561983 209.028495 348.088815 210.300379 349.02645 211.238013 
C 349.964084 212.175648 351.235968 212.702479 352.561983 212.702479 
z
" style="stroke:#000000;stroke-width:0.4;"/>
    <path clip-path="url(#p5cec1d897a)" d="M 321.322314 190.553719 
C 322.64833 190.553719 323.920213 190.026887 324.857848 189.089253 
C 325.795483 188.151618 326.322314 186.879735 326.322314 185.553719 
C 326.322314 184.227704 325.795483 182.95582 324.857848 182.018185 
C 323.920213 181.080551 322.64833 180.553719 321.322314 180.553719 
C 319.996299 180.553719 318.724415 181.080551 317.78678 182.018185 
C 316.849146 182.95582 316.322314 184.227704 316.322314 185.553719 
C 316.322314 186.879735 316.849146 188.151618 317.78678 189.089253 
C 318.724415 190.026887 319.996299 190.553719 321.322314 190.553719 
z
" style="stroke:#000000;stroke-width:0.4;"/>
    <path clip-path="url(#p5cec1d897a)" d="M 290.082645 190.553719 
C 291.40866 190.553719 292.680544 190.026887 293.618179 189.089253 
C 294.555813 188.151618 295.082645 186.879735 295.082645 185.553719 
C 295.082645 184.227704 294.555813 182.95582 293.618179 182.018185 
C 292.680544 181.080551 291.40866 180.553719 290.082645 180.553719 
C 288.756629 180.553719 287.484745 181.080551 286.547111 182.018185 
C 285.609476 182.95582 285.082645 184.227704 285.082645 185.553719 
C 285.082645 186.879735 285.609476 188.151618 286.547111 189.089253 
C 287.484745 190.026887 288.756629 190.553719 290.082645 190.553719 
z
" style="fill:#0000ff;stroke:#000000;stroke-width:0.4;"/>
    <path clip-path="url(#p5cec1d897a)" d="M 883.636364 168.404959 
C 884.962379 168.404959 886.234263 167.878127 887.171898 166.940493 
C 888.109532 166.002858 888.636364 164.730974 888.636364 163.404959 
C 888.636364 162.078943 888.109532 160.807059 887.171898 159.869425 
C 886.234263 158.93179 884.962379 158.404959 883.636364 158.404959 
C 882.310348 158.404959 881.038464 158.93179 880.10083 159.869425 
C 879.163195 160.807059 878.636364 162.078943 878.636364 163.404959 
C 878.636364 164.730974 879.163195 166.002858 880.10083 166.940493 
C 881.038464 167.878127 882.310348 168.404959 883.636364 168.404959 
z
" style="fill:#008000;stroke:#000000;stroke-width:0.4;"/>
    <path clip-path="url(#p5cec1d897a)" d="M 914.876033 146.256198 
C 916.202049 146.256198 917.473932 145.729367 918.411567 144.791732 
C 919.349202 143.854098 919.876033 142.582214 919.876033 141.256198 
C 919.876033 139.930183 919.349202 138.658299 918.411567 137.720664 
C 917.473932 136.78303 916.202049 136.256198 914.876033 136.256198 
C 913.550018 136.256198 912.278134 136.78303 911.340499 137.720664 
C 910.402865 138.658299 909.876033 139.930183 909.876033 141.256198 
C 909.876033 142.582214 910.402865 143.854098 911.340499 144.791732 
C 912.278134 145.729367 913.550018 146.256198 914.876033 146.256198 
z
" style="fill:#008000;stroke:#000000;stroke-width:0.4;"/>
    <path clip-path="url(#p5cec1d897a)" d="M 258.842975 146.256198 
C 260.168991 146.256198 261.440875 145.729367 262.378509 144.791732 
C 263.316144 143.854098 263.842975 142.582214 263.842975 141.256198 
C 263.842975 139.930183 263.316144 138.658299 262.378509 137.720664 
C 261.440875 136.78303 260.168991 136.256198 258.842975 136.256198 
C 257.51696 136.256198 256.245076 136.78303 255.307441 137.720664 
C 254.369807 138.658299 253.842975 139.930183 253.842975 141.256198 
C 253.842975 142.582214 254.369807 143.854098 255.307441 144.791732 
C 256.245076 145.729367 257.51696 146.256198 258.842975 146.256198 
z
" style="fill:#0000ff;stroke:#000000;stroke-width:0.4;"/>
    <path clip-path="url(#p5cec1d897a)" d="M 227.603306 146.256198 
C 228.929321 146.256198 230.201205 145.729367 231.13884 144.791732 
C 232.076474 143.854098 232.603306 142.582214 232.603306 141.256198 
C 232.603306 139.930183 232.076474 138.658299 231.13884 137.720664 
C 230.201205 136.78303 228.929321 136.256198 227.603306 136.256198 
C 226.27729 136.256198 225.005406 136.78303 224.067772 137.720664 
C 223.130137 138.658299 222.603306 139.930183 222.603306 141.256198 
C 222.603306 142.582214 223.130137 143.854098 224.067772 144.791732 
C 225.005406 145.729367 226.27729 146.256198 227.603306 146.256198 
z
" style="stroke:#000000;stroke-width:0.4;"/>
    <path clip-path="url(#p5cec1d897a)" d="M 196.363636 146.256198 
C 197.689652 146.256198 198.961536 145.729367 199.89917 144.791732 
C 200.836805 143.854098 201.363636 142.582214 201.363636 141.256198 
C 201.363636 139.930183 200.836805 138.658299 199.89917 137.720664 
C 198.961536 136.78303 197.689652 136.256198 196.363636 136.256198 
C 195.037621 136.256198 193.765737 136.78303 192.828102 137.720664 
C 191.890468 138.658299 191.363636 139.930183 191.363636 141.256198 
C 191.363636 142.582214 191.890468 143.854098 192.828102 144.791732 
C 193.765737 145.729367 195.037621 146.256198 196.363636 146.256198 
z
" style="stroke:#000000;stroke-width:0.4;"/>
    <path clip-path="url(#p5cec1d897a)" d="M 165.123967 124.107438 
C 166.449982 124.107438 167.721866 123.580606 168.659501 122.642972 
C 169.597135 121.705337 170.123967 120.433454 170.123967 119.107438 
C 170.123967 117.781423 169.597135 116.509539 168.659501 115.571904 
C 167.721866 114.63427 166.449982 114.107438 165.123967 114.107438 
C 163.797951 114.107438 162.526068 114.63427 161.588433 115.571904 
C 160.650798 116.509539 160.123967 117.781423 160.123967 119.107438 
C 160.123967 120.433454 160.650798 121.705337 161.588433 122.642972 
C 162.526068 123.580606 163.797951 124.107438 165.123967 124.107438 
z
" style="stroke:#000000;stroke-width:0.4;"/>
    <path clip-path="url(#p5cec1d897a)" d="M 133.884298 124.107438 
C 135.210313 124.107438 136.482197 123.580606 137.419831 122.642972 
C 138.357466 121.705337 138.884298 120.433454 138.884298 119.107438 
C 138.884298 117.781423 138.357466 116.509539 137.419831 115.571904 
C 136.482197 114.63427 135.210313 114.107438 133.884298 114.107438 
C 132.558282 114.107438 131.286398 114.63427 130.348764 115.571904 
C 129.411129 116.509539 128.884298 117.781423 128.884298 119.107438 
C 128.884298 120.433454 129.411129 121.705337 130.348764 122.642972 
C 131.286398 123.580606 132.558282 124.107438 133.884298 124.107438 
z
" style="stroke:#000000;stroke-width:0.4;"/>
    <path clip-path="url(#p5cec1d897a)" d="M 102.644628 124.107438 
C 103.970644 124.107438 105.242527 123.580606 106.180162 122.642972 
C 107.117797 121.705337 107.644628 120.433454 107.644628 119.107438 
C 107.644628 117.781423 107.117797 116.509539 106.180162 115.571904 
C 105.242527 114.63427 103.970644 114.107438 102.644628 114.107438 
C 101.318613 114.107438 100.046729 114.63427 99.109094 115.571904 
C 98.17146 116.509539 97.644628 117.781423 97.644628 119.107438 
C 97.644628 120.433454 98.17146 121.705337 99.109094 122.642972 
C 100.046729 123.580606 101.318613 124.107438 102.644628 124.107438 
z
" style="fill:#0000ff;stroke:#000000;stroke-width:0.4;"/>
    <path clip-path="url(#p5cec1d897a)" d="M 946.115702 79.809917 
C 947.441718 79.809917 948.713602 79.283086 949.651236 78.345451 
C 950.588871 77.407817 951.115702 76.135933 951.115702 74.809917 
C 951.115702 73.483902 950.588871 72.212018 949.651236 71.274383 
C 948.713602 70.336749 947.441718 69.809917 946.115702 69.809917 
C 944.789687 69.809917 943.517803 70.336749 942.580169 71.274383 
C 941.642534 72.212018 941.115702 73.483902 941.115702 74.809917 
C 941.115702 76.135933 941.642534 77.407817 942.580169 78.345451 
C 943.517803 79.283086 944.789687 79.809917 946.115702 79.809917 
z
" style="fill:#008000;stroke:#000000;stroke-width:0.4;"/>
    <path clip-path="url(#p5cec1d897a)" d="M 977.355372 57.661157 
C 978.681387 57.661157 979.953271 57.134325 980.890906 56.196691 
C 981.82854 55.259056 982.355372 53.987173 982.355372 52.661157 
C 982.355372 51.335142 981.82854 50.063258 980.890906 49.125623 
C 979.953271 48.187989 978.681387 47.661157 977.355372 47.661157 
C 976.029356 47.661157 974.757473 48.187989 973.819838 49.125623 
C 972.882203 50.063258 972.355372 51.335142 972.355372 52.661157 
C 972.355372 53.987173 972.882203 55.259056 973.819838 56.196691 
C 974.757473 57.134325 976.029356 57.661157 977.355372 57.661157 
z
" style="fill:#008000;stroke:#000000;stroke-width:0.4;"/>
   </g>
   <g id="line2d_1">
    <path clip-path="url(#p5cec1d897a)" d="M 586.859504 493.2 
L 586.859504 10.8 
" style="fill:none;stroke:#ff0000;stroke-linecap:square;stroke-width:1.5;"/>
   </g>
   <g id="patch_3">
    <path d="M 10.8 493.2 
L 10.8 10.8 
" style="fill:none;stroke:#000000;stroke-linecap:square;stroke-linejoin:miter;stroke-width:0.8;"/>
   </g>
   <g id="patch_4">
    <path d="M 1069.2 493.2 
L 1069.2 10.8 
" style="fill:none;stroke:#000000;stroke-linecap:square;stroke-linejoin:miter;stroke-width:0.8;"/>
   </g>
   <g id="patch_5">
    <path d="M 10.8 493.2 
L 1069.2 493.2 
" style="fill:none;stroke:#000000;stroke-linecap:square;stroke-linejoin:miter;stroke-width:0.8;"/>
   </g>
   <g id="patch_6">
    <path d="M 10.8 10.8 
L 1069.2 10.8 
" style="fill:none;stroke:#000000;stroke-linecap:square;stroke-linejoin:miter;stroke-width:0.8;"/>
   </g>
  </g>
 </g>
 <defs>
  <clipPath id="p5cec1d897a">
   <rect height="482.4" width="1058.4" x="10.8" y="10.8"/>
  </clipPath>
 </defs>
</svg>
