<?xml version="1.0" encoding="utf-8" standalone="no"?>
<!DOCTYPE svg PUBLIC "-//W3C//DTD SVG 1.1//EN"
  "http://www.w3.org/Graphics/SVG/1.1/DTD/svg11.dtd">
<svg xmlns:xlink="http://www.w3.org/1999/xlink" width="1080pt" height="504pt" viewBox="0 0 1080 504" xmlns="http://www.w3.org/2000/svg" version="1.1">
 <metadata>
  <rdf:RDF xmlns:dc="http://purl.org/dc/elements/1.1/" xmlns:cc="http://creativecommons.org/ns#" xmlns:rdf="http://www.w3.org/1999/02/22-rdf-syntax-ns#">
   <cc:Work>
    <dc:type rdf:resource="http://purl.org/dc/dcmitype/StillImage"/>
    <dc:date>2022-04-21T03:05:40.505883</dc:date>
    <dc:format>image/svg+xml</dc:format>
    <dc:creator>
     <cc:Agent>
      <dc:title>Matplotlib v3.5.1, https://matplotlib.org/</dc:title>
     </cc:Agent>
    </dc:creator>
   </cc:Work>
  </rdf:RDF>
 </metadata>
 <defs>
  <style type="text/css">*{stroke-linejoin: round; stroke-linecap: butt}</style>
 </defs>
 <g id="figure_1">
  <g id="patch_1">
   <path d="M 0 504 
L 1080 504 
L 1080 0 
L 0 0 
z
" style="fill: #ffffff"/>
  </g>
  <g id="axes_1">
   <g id="patch_2">
    <path d="M 10.8 493.2 
L 1069.2 493.2 
L 1069.2 10.8 
L 10.8 10.8 
z
" style="fill: #ffffff"/>
   </g>
   <g id="LineCollection_1">
    <path d="M 524.91878 409.372771 
L 555.08122 451.338843 
" clip-path="url(#pcde4f6ea64)" style="fill: none; stroke: #000000; stroke-width: 0.4"/>
    <path d="M 524.91878 409.372771 
L 494.756341 388.389735 
" clip-path="url(#pcde4f6ea64)" style="fill: none; stroke: #000000; stroke-width: 0.4"/>
    <path d="M 494.756341 388.389735 
L 464.593901 325.440626 
" clip-path="url(#pcde4f6ea64)" style="fill: none; stroke: #000000; stroke-width: 0.4"/>
    <path d="M 464.593901 325.440626 
L 434.431462 241.508482 
" clip-path="url(#pcde4f6ea64)" style="fill: none; stroke: #000000; stroke-width: 0.4"/>
    <path d="M 434.431462 241.508482 
L 404.269023 220.525446 
" clip-path="url(#pcde4f6ea64)" style="fill: none; stroke: #000000; stroke-width: 0.4"/>
    <path d="M 404.269023 220.525446 
L 374.106583 220.525446 
" clip-path="url(#pcde4f6ea64)" style="fill: none; stroke: #000000; stroke-width: 0.4"/>
    <path d="M 374.106583 220.525446 
L 343.944144 220.525446 
" clip-path="url(#pcde4f6ea64)" style="fill: none; stroke: #000000; stroke-width: 0.4"/>
    <path d="M 343.944144 220.525446 
L 313.781704 199.54241 
" clip-path="url(#pcde4f6ea64)" style="fill: none; stroke: #000000; stroke-width: 0.4"/>
    <path d="M 313.781704 199.54241 
L 283.619265 199.54241 
" clip-path="url(#pcde4f6ea64)" style="fill: none; stroke: #000000; stroke-width: 0.4"/>
    <path d="M 283.619265 199.54241 
L 253.456825 157.576338 
" clip-path="url(#pcde4f6ea64)" style="fill: none; stroke: #000000; stroke-width: 0.4"/>
    <path d="M 253.456825 157.576338 
L 223.294386 157.576338 
" clip-path="url(#pcde4f6ea64)" style="fill: none; stroke: #000000; stroke-width: 0.4"/>
    <path d="M 223.294386 157.576338 
L 193.131946 157.576338 
" clip-path="url(#pcde4f6ea64)" style="fill: none; stroke: #000000; stroke-width: 0.4"/>
    <path d="M 193.131946 157.576338 
L 162.969507 136.593301 
" clip-path="url(#pcde4f6ea64)" style="fill: none; stroke: #000000; stroke-width: 0.4"/>
    <path d="M 162.969507 136.593301 
L 132.807068 136.593301 
" clip-path="url(#pcde4f6ea64)" style="fill: none; stroke: #000000; stroke-width: 0.4"/>
    <path d="M 132.807068 136.593301 
L 102.644628 136.593301 
" clip-path="url(#pcde4f6ea64)" style="fill: none; stroke: #000000; stroke-width: 0.4"/>
    <path d="M 102.644628 136.593301 
L 585.243659 52.661157 
" clip-path="url(#pcde4f6ea64)" style="fill: none; stroke: #000000; stroke-width: 0.4"/>
    <path d="M 645.568538 388.389735 
L 615.406099 409.372771 
" clip-path="url(#pcde4f6ea64)" style="fill: none; stroke: #000000; stroke-width: 0.4"/>
    <path d="M 645.568538 388.389735 
L 675.730977 367.406699 
" clip-path="url(#pcde4f6ea64)" style="fill: none; stroke: #000000; stroke-width: 0.4"/>
    <path d="M 675.730977 367.406699 
L 705.893417 346.423662 
" clip-path="url(#pcde4f6ea64)" style="fill: none; stroke: #000000; stroke-width: 0.4"/>
    <path d="M 705.893417 346.423662 
L 736.055856 325.440626 
" clip-path="url(#pcde4f6ea64)" style="fill: none; stroke: #000000; stroke-width: 0.4"/>
    <path d="M 736.055856 325.440626 
L 766.218296 304.45759 
" clip-path="url(#pcde4f6ea64)" style="fill: none; stroke: #000000; stroke-width: 0.4"/>
    <path d="M 766.218296 304.45759 
L 796.380735 283.474554 
" clip-path="url(#pcde4f6ea64)" style="fill: none; stroke: #000000; stroke-width: 0.4"/>
    <path d="M 796.380735 283.474554 
L 826.543175 262.491518 
" clip-path="url(#pcde4f6ea64)" style="fill: none; stroke: #000000; stroke-width: 0.4"/>
    <path d="M 826.543175 262.491518 
L 856.705614 220.525446 
" clip-path="url(#pcde4f6ea64)" style="fill: none; stroke: #000000; stroke-width: 0.4"/>
    <path d="M 856.705614 220.525446 
L 886.868054 178.559374 
" clip-path="url(#pcde4f6ea64)" style="fill: none; stroke: #000000; stroke-width: 0.4"/>
    <path d="M 886.868054 178.559374 
L 917.030493 157.576338 
" clip-path="url(#pcde4f6ea64)" style="fill: none; stroke: #000000; stroke-width: 0.4"/>
    <path d="M 917.030493 157.576338 
L 947.192932 94.627229 
" clip-path="url(#pcde4f6ea64)" style="fill: none; stroke: #000000; stroke-width: 0.4"/>
    <path d="M 947.192932 94.627229 
L 977.355372 73.644193 
" clip-path="url(#pcde4f6ea64)" style="fill: none; stroke: #000000; stroke-width: 0.4"/>
    <path d="M 977.355372 73.644193 
L 585.243659 52.661157 
" clip-path="url(#pcde4f6ea64)" style="fill: none; stroke: #000000; stroke-width: 0.4"/>
   </g>
   <g id="matplotlib.axis_1">
    <g id="xtick_1"/>
    <g id="xtick_2"/>
    <g id="xtick_3"/>
    <g id="xtick_4"/>
    <g id="xtick_5"/>
    <g id="xtick_6"/>
    <g id="xtick_7"/>
   </g>
   <g id="matplotlib.axis_2">
    <g id="ytick_1"/>
    <g id="ytick_2"/>
    <g id="ytick_3"/>
    <g id="ytick_4"/>
    <g id="ytick_5"/>
   </g>
   <g id="PathCollection_1">
    <path d="M 524.91878 414.372771 
C 526.244796 414.372771 527.51668 413.845939 528.454314 412.908305 
C 529.391949 411.97067 529.91878 410.698786 529.91878 409.372771 
C 529.91878 408.046755 529.391949 406.774871 528.454314 405.837237 
C 527.51668 404.899602 526.244796 404.372771 524.91878 404.372771 
C 523.592765 404.372771 522.320881 404.899602 521.383246 405.837237 
C 520.445612 406.774871 519.91878 408.046755 519.91878 409.372771 
C 519.91878 410.698786 520.445612 411.97067 521.383246 412.908305 
C 522.320881 413.845939 523.592765 414.372771 524.91878 414.372771 
z
" clip-path="url(#pcde4f6ea64)" style="fill: #0000ff; stroke: #000000; stroke-width: 0.4"/>
    <path d="M 555.08122 456.338843 
C 556.407235 456.338843 557.679119 455.812011 558.616754 454.874377 
C 559.554388 453.936742 560.08122 452.664858 560.08122 451.338843 
C 560.08122 450.012827 559.554388 448.740944 558.616754 447.803309 
C 557.679119 446.865675 556.407235 446.338843 555.08122 446.338843 
C 553.755204 446.338843 552.48332 446.865675 551.545686 447.803309 
C 550.608051 448.740944 550.08122 450.012827 550.08122 451.338843 
C 550.08122 452.664858 550.608051 453.936742 551.545686 454.874377 
C 552.48332 455.812011 553.755204 456.338843 555.08122 456.338843 
z
" clip-path="url(#pcde4f6ea64)" style="fill: #0000ff; stroke: #000000; stroke-width: 0.4"/>
    <path d="M 494.756341 393.389735 
C 496.082356 393.389735 497.35424 392.862903 498.291875 391.925269 
C 499.229509 390.987634 499.756341 389.71575 499.756341 388.389735 
C 499.756341 387.063719 499.229509 385.791835 498.291875 384.854201 
C 497.35424 383.916566 496.082356 383.389735 494.756341 383.389735 
C 493.430325 383.389735 492.158441 383.916566 491.220807 384.854201 
C 490.283172 385.791835 489.756341 387.063719 489.756341 388.389735 
C 489.756341 389.71575 490.283172 390.987634 491.220807 391.925269 
C 492.158441 392.862903 493.430325 393.389735 494.756341 393.389735 
z
" clip-path="url(#pcde4f6ea64)" style="fill: #0000ff; stroke: #000000; stroke-width: 0.4"/>
    <path d="M 464.593901 330.440626 
C 465.919917 330.440626 467.191801 329.913795 468.129435 328.97616 
C 469.06707 328.038526 469.593901 326.766642 469.593901 325.440626 
C 469.593901 324.114611 469.06707 322.842727 468.129435 321.905092 
C 467.191801 320.967458 465.919917 320.440626 464.593901 320.440626 
C 463.267886 320.440626 461.996002 320.967458 461.058367 321.905092 
C 460.120733 322.842727 459.593901 324.114611 459.593901 325.440626 
C 459.593901 326.766642 460.120733 328.038526 461.058367 328.97616 
C 461.996002 329.913795 463.267886 330.440626 464.593901 330.440626 
z
" clip-path="url(#pcde4f6ea64)" style="fill: #0000ff; stroke: #000000; stroke-width: 0.4"/>
    <path d="M 434.431462 246.508482 
C 435.757477 246.508482 437.029361 245.98165 437.966996 245.044016 
C 438.90463 244.106381 439.431462 242.834497 439.431462 241.508482 
C 439.431462 240.182466 438.90463 238.910583 437.966996 237.972948 
C 437.029361 237.035313 435.757477 236.508482 434.431462 236.508482 
C 433.105446 236.508482 431.833563 237.035313 430.895928 237.972948 
C 429.958293 238.910583 429.431462 240.182466 429.431462 241.508482 
C 429.431462 242.834497 429.958293 244.106381 430.895928 245.044016 
C 431.833563 245.98165 433.105446 246.508482 434.431462 246.508482 
z
" clip-path="url(#pcde4f6ea64)" style="fill: #0000ff; stroke: #000000; stroke-width: 0.4"/>
    <path d="M 404.269023 225.525446 
C 405.595038 225.525446 406.866922 224.998614 407.804556 224.06098 
C 408.742191 223.123345 409.269023 221.851461 409.269023 220.525446 
C 409.269023 219.19943 408.742191 217.927546 407.804556 216.989912 
C 406.866922 216.052277 405.595038 215.525446 404.269023 215.525446 
C 402.943007 215.525446 401.671123 216.052277 400.733489 216.989912 
C 399.795854 217.927546 399.269023 219.19943 399.269023 220.525446 
C 399.269023 221.851461 399.795854 223.123345 400.733489 224.06098 
C 401.671123 224.998614 402.943007 225.525446 404.269023 225.525446 
z
" clip-path="url(#pcde4f6ea64)" style="fill: #0000ff; stroke: #000000; stroke-width: 0.4"/>
    <path d="M 374.106583 225.525446 
C 375.432599 225.525446 376.704482 224.998614 377.642117 224.06098 
C 378.579752 223.123345 379.106583 221.851461 379.106583 220.525446 
C 379.106583 219.19943 378.579752 217.927546 377.642117 216.989912 
C 376.704482 216.052277 375.432599 215.525446 374.106583 215.525446 
C 372.780568 215.525446 371.508684 216.052277 370.571049 216.989912 
C 369.633415 217.927546 369.106583 219.19943 369.106583 220.525446 
C 369.106583 221.851461 369.633415 223.123345 370.571049 224.06098 
C 371.508684 224.998614 372.780568 225.525446 374.106583 225.525446 
z
" clip-path="url(#pcde4f6ea64)" style="stroke: #000000; stroke-width: 0.4"/>
    <path d="M 343.944144 225.525446 
C 345.270159 225.525446 346.542043 224.998614 347.479678 224.06098 
C 348.417312 223.123345 348.944144 221.851461 348.944144 220.525446 
C 348.944144 219.19943 348.417312 217.927546 347.479678 216.989912 
C 346.542043 216.052277 345.270159 215.525446 343.944144 215.525446 
C 342.618128 215.525446 341.346244 216.052277 340.40861 216.989912 
C 339.470975 217.927546 338.944144 219.19943 338.944144 220.525446 
C 338.944144 221.851461 339.470975 223.123345 340.40861 224.06098 
C 341.346244 224.998614 342.618128 225.525446 343.944144 225.525446 
z
" clip-path="url(#pcde4f6ea64)" style="stroke: #000000; stroke-width: 0.4"/>
    <path d="M 313.781704 204.54241 
C 315.10772 204.54241 316.379604 204.015578 317.317238 203.077944 
C 318.254873 202.140309 318.781704 200.868425 318.781704 199.54241 
C 318.781704 198.216394 318.254873 196.94451 317.317238 196.006876 
C 316.379604 195.069241 315.10772 194.54241 313.781704 194.54241 
C 312.455689 194.54241 311.183805 195.069241 310.24617 196.006876 
C 309.308536 196.94451 308.781704 198.216394 308.781704 199.54241 
C 308.781704 200.868425 309.308536 202.140309 310.24617 203.077944 
C 311.183805 204.015578 312.455689 204.54241 313.781704 204.54241 
z
" clip-path="url(#pcde4f6ea64)" style="stroke: #000000; stroke-width: 0.4"/>
    <path d="M 283.619265 204.54241 
C 284.94528 204.54241 286.217164 204.015578 287.154799 203.077944 
C 288.092433 202.140309 288.619265 200.868425 288.619265 199.54241 
C 288.619265 198.216394 288.092433 196.94451 287.154799 196.006876 
C 286.217164 195.069241 284.94528 194.54241 283.619265 194.54241 
C 282.293249 194.54241 281.021365 195.069241 280.083731 196.006876 
C 279.146096 196.94451 278.619265 198.216394 278.619265 199.54241 
C 278.619265 200.868425 279.146096 202.140309 280.083731 203.077944 
C 281.021365 204.015578 282.293249 204.54241 283.619265 204.54241 
z
" clip-path="url(#pcde4f6ea64)" style="fill: #0000ff; stroke: #000000; stroke-width: 0.4"/>
    <path d="M 253.456825 162.576338 
C 254.782841 162.576338 256.054725 162.049506 256.992359 161.111871 
C 257.929994 160.174237 258.456825 158.902353 258.456825 157.576338 
C 258.456825 156.250322 257.929994 154.978438 256.992359 154.040804 
C 256.054725 153.103169 254.782841 152.576338 253.456825 152.576338 
C 252.13081 152.576338 250.858926 153.103169 249.921291 154.040804 
C 248.983657 154.978438 248.456825 156.250322 248.456825 157.576338 
C 248.456825 158.902353 248.983657 160.174237 249.921291 161.111871 
C 250.858926 162.049506 252.13081 162.576338 253.456825 162.576338 
z
" clip-path="url(#pcde4f6ea64)" style="fill: #0000ff; stroke: #000000; stroke-width: 0.4"/>
    <path d="M 223.294386 162.576338 
C 224.620401 162.576338 225.892285 162.049506 226.82992 161.111871 
C 227.767554 160.174237 228.294386 158.902353 228.294386 157.576338 
C 228.294386 156.250322 227.767554 154.978438 226.82992 154.040804 
C 225.892285 153.103169 224.620401 152.576338 223.294386 152.576338 
C 221.96837 152.576338 220.696487 153.103169 219.758852 154.040804 
C 218.821217 154.978438 218.294386 156.250322 218.294386 157.576338 
C 218.294386 158.902353 218.821217 160.174237 219.758852 161.111871 
C 220.696487 162.049506 221.96837 162.576338 223.294386 162.576338 
z
" clip-path="url(#pcde4f6ea64)" style="stroke: #000000; stroke-width: 0.4"/>
    <path d="M 193.131946 162.576338 
C 194.457962 162.576338 195.729846 162.049506 196.66748 161.111871 
C 197.605115 160.174237 198.131946 158.902353 198.131946 157.576338 
C 198.131946 156.250322 197.605115 154.978438 196.66748 154.040804 
C 195.729846 153.103169 194.457962 152.576338 193.131946 152.576338 
C 191.805931 152.576338 190.534047 153.103169 189.596413 154.040804 
C 188.658778 154.978438 188.131946 156.250322 188.131946 157.576338 
C 188.131946 158.902353 188.658778 160.174237 189.596413 161.111871 
C 190.534047 162.049506 191.805931 162.576338 193.131946 162.576338 
z
" clip-path="url(#pcde4f6ea64)" style="stroke: #000000; stroke-width: 0.4"/>
    <path d="M 162.969507 141.593301 
C 164.295522 141.593301 165.567406 141.06647 166.505041 140.128835 
C 167.442675 139.191201 167.969507 137.919317 167.969507 136.593301 
C 167.969507 135.267286 167.442675 133.995402 166.505041 133.057768 
C 165.567406 132.120133 164.295522 131.593301 162.969507 131.593301 
C 161.643491 131.593301 160.371608 132.120133 159.433973 133.057768 
C 158.496339 133.995402 157.969507 135.267286 157.969507 136.593301 
C 157.969507 137.919317 158.496339 139.191201 159.433973 140.128835 
C 160.371608 141.06647 161.643491 141.593301 162.969507 141.593301 
z
" clip-path="url(#pcde4f6ea64)" style="stroke: #000000; stroke-width: 0.4"/>
    <path d="M 132.807068 141.593301 
C 134.133083 141.593301 135.404967 141.06647 136.342601 140.128835 
C 137.280236 139.191201 137.807068 137.919317 137.807068 136.593301 
C 137.807068 135.267286 137.280236 133.995402 136.342601 133.057768 
C 135.404967 132.120133 134.133083 131.593301 132.807068 131.593301 
C 131.481052 131.593301 130.209168 132.120133 129.271534 133.057768 
C 128.333899 133.995402 127.807068 135.267286 127.807068 136.593301 
C 127.807068 137.919317 128.333899 139.191201 129.271534 140.128835 
C 130.209168 141.06647 131.481052 141.593301 132.807068 141.593301 
z
" clip-path="url(#pcde4f6ea64)" style="stroke: #000000; stroke-width: 0.4"/>
    <path d="M 102.644628 141.593301 
C 103.970644 141.593301 105.242527 141.06647 106.180162 140.128835 
C 107.117797 139.191201 107.644628 137.919317 107.644628 136.593301 
C 107.644628 135.267286 107.117797 133.995402 106.180162 133.057768 
C 105.242527 132.120133 103.970644 131.593301 102.644628 131.593301 
C 101.318613 131.593301 100.046729 132.120133 99.109094 133.057768 
C 98.17146 133.995402 97.644628 135.267286 97.644628 136.593301 
C 97.644628 137.919317 98.17146 139.191201 99.109094 140.128835 
C 100.046729 141.06647 101.318613 141.593301 102.644628 141.593301 
z
" clip-path="url(#pcde4f6ea64)" style="fill: #0000ff; stroke: #000000; stroke-width: 0.4"/>
    <path d="M 645.568538 393.389735 
C 646.894554 393.389735 648.166437 392.862903 649.104072 391.925269 
C 650.041707 390.987634 650.568538 389.71575 650.568538 388.389735 
C 650.568538 387.063719 650.041707 385.791835 649.104072 384.854201 
C 648.166437 383.916566 646.894554 383.389735 645.568538 383.389735 
C 644.242523 383.389735 642.970639 383.916566 642.033004 384.854201 
C 641.09537 385.791835 640.568538 387.063719 640.568538 388.389735 
C 640.568538 389.71575 641.09537 390.987634 642.033004 391.925269 
C 642.970639 392.862903 644.242523 393.389735 645.568538 393.389735 
z
" clip-path="url(#pcde4f6ea64)" style="fill: #008000; stroke: #000000; stroke-width: 0.4"/>
    <path d="M 615.406099 414.372771 
C 616.732114 414.372771 618.003998 413.845939 618.941633 412.908305 
C 619.879267 411.97067 620.406099 410.698786 620.406099 409.372771 
C 620.406099 408.046755 619.879267 406.774871 618.941633 405.837237 
C 618.003998 404.899602 616.732114 404.372771 615.406099 404.372771 
C 614.080083 404.372771 612.808199 404.899602 611.870565 405.837237 
C 610.93293 406.774871 610.406099 408.046755 610.406099 409.372771 
C 610.406099 410.698786 610.93293 411.97067 611.870565 412.908305 
C 612.808199 413.845939 614.080083 414.372771 615.406099 414.372771 
z
" clip-path="url(#pcde4f6ea64)" style="fill: #008000; stroke: #000000; stroke-width: 0.4"/>
    <path d="M 675.730977 372.406699 
C 677.056993 372.406699 678.328877 371.879867 679.266511 370.942232 
C 680.204146 370.004598 680.730977 368.732714 680.730977 367.406699 
C 680.730977 366.080683 680.204146 364.808799 679.266511 363.871165 
C 678.328877 362.93353 677.056993 362.406699 675.730977 362.406699 
C 674.404962 362.406699 673.133078 362.93353 672.195444 363.871165 
C 671.257809 364.808799 670.730977 366.080683 670.730977 367.406699 
C 670.730977 368.732714 671.257809 370.004598 672.195444 370.942232 
C 673.133078 371.879867 674.404962 372.406699 675.730977 372.406699 
z
" clip-path="url(#pcde4f6ea64)" style="fill: #008000; stroke: #000000; stroke-width: 0.4"/>
    <path d="M 705.893417 351.423662 
C 707.219432 351.423662 708.491316 350.896831 709.428951 349.959196 
C 710.366585 349.021562 710.893417 347.749678 710.893417 346.423662 
C 710.893417 345.097647 710.366585 343.825763 709.428951 342.888129 
C 708.491316 341.950494 707.219432 341.423662 705.893417 341.423662 
C 704.567401 341.423662 703.295518 341.950494 702.357883 342.888129 
C 701.420248 343.825763 700.893417 345.097647 700.893417 346.423662 
C 700.893417 347.749678 701.420248 349.021562 702.357883 349.959196 
C 703.295518 350.896831 704.567401 351.423662 705.893417 351.423662 
z
" clip-path="url(#pcde4f6ea64)" style="stroke: #000000; stroke-width: 0.4"/>
    <path d="M 736.055856 330.440626 
C 737.381872 330.440626 738.653756 329.913795 739.59139 328.97616 
C 740.529025 328.038526 741.055856 326.766642 741.055856 325.440626 
C 741.055856 324.114611 740.529025 322.842727 739.59139 321.905092 
C 738.653756 320.967458 737.381872 320.440626 736.055856 320.440626 
C 734.729841 320.440626 733.457957 320.967458 732.520322 321.905092 
C 731.582688 322.842727 731.055856 324.114611 731.055856 325.440626 
C 731.055856 326.766642 731.582688 328.038526 732.520322 328.97616 
C 733.457957 329.913795 734.729841 330.440626 736.055856 330.440626 
z
" clip-path="url(#pcde4f6ea64)" style="fill: #008000; stroke: #000000; stroke-width: 0.4"/>
    <path d="M 766.218296 309.45759 
C 767.544311 309.45759 768.816195 308.930759 769.75383 307.993124 
C 770.691464 307.05549 771.218296 305.783606 771.218296 304.45759 
C 771.218296 303.131575 770.691464 301.859691 769.75383 300.922056 
C 768.816195 299.984422 767.544311 299.45759 766.218296 299.45759 
C 764.89228 299.45759 763.620396 299.984422 762.682762 300.922056 
C 761.745127 301.859691 761.218296 303.131575 761.218296 304.45759 
C 761.218296 305.783606 761.745127 307.05549 762.682762 307.993124 
C 763.620396 308.930759 764.89228 309.45759 766.218296 309.45759 
z
" clip-path="url(#pcde4f6ea64)" style="fill: #008000; stroke: #000000; stroke-width: 0.4"/>
    <path d="M 796.380735 288.474554 
C 797.706751 288.474554 798.978635 287.947723 799.916269 287.010088 
C 800.853904 286.072454 801.380735 284.80057 801.380735 283.474554 
C 801.380735 282.148539 800.853904 280.876655 799.916269 279.93902 
C 798.978635 279.001386 797.706751 278.474554 796.380735 278.474554 
C 795.05472 278.474554 793.782836 279.001386 792.845201 279.93902 
C 791.907567 280.876655 791.380735 282.148539 791.380735 283.474554 
C 791.380735 284.80057 791.907567 286.072454 792.845201 287.010088 
C 793.782836 287.947723 795.05472 288.474554 796.380735 288.474554 
z
" clip-path="url(#pcde4f6ea64)" style="stroke: #000000; stroke-width: 0.4"/>
    <path d="M 826.543175 267.491518 
C 827.86919 267.491518 829.141074 266.964687 830.078709 266.027052 
C 831.016343 265.089417 831.543175 263.817534 831.543175 262.491518 
C 831.543175 261.165503 831.016343 259.893619 830.078709 258.955984 
C 829.141074 258.01835 827.86919 257.491518 826.543175 257.491518 
C 825.217159 257.491518 823.945275 258.01835 823.007641 258.955984 
C 822.070006 259.893619 821.543175 261.165503 821.543175 262.491518 
C 821.543175 263.817534 822.070006 265.089417 823.007641 266.027052 
C 823.945275 266.964687 825.217159 267.491518 826.543175 267.491518 
z
" clip-path="url(#pcde4f6ea64)" style="fill: #008000; stroke: #000000; stroke-width: 0.4"/>
    <path d="M 856.705614 225.525446 
C 858.03163 225.525446 859.303513 224.998614 860.241148 224.06098 
C 861.178783 223.123345 861.705614 221.851461 861.705614 220.525446 
C 861.705614 219.19943 861.178783 217.927546 860.241148 216.989912 
C 859.303513 216.052277 858.03163 215.525446 856.705614 215.525446 
C 855.379599 215.525446 854.107715 216.052277 853.17008 216.989912 
C 852.232446 217.927546 851.705614 219.19943 851.705614 220.525446 
C 851.705614 221.851461 852.232446 223.123345 853.17008 224.06098 
C 854.107715 224.998614 855.379599 225.525446 856.705614 225.525446 
z
" clip-path="url(#pcde4f6ea64)" style="fill: #008000; stroke: #000000; stroke-width: 0.4"/>
    <path d="M 886.868054 183.559374 
C 888.194069 183.559374 889.465953 183.032542 890.403587 182.094908 
C 891.341222 181.157273 891.868054 179.885389 891.868054 178.559374 
C 891.868054 177.233358 891.341222 175.961474 890.403587 175.02384 
C 889.465953 174.086205 888.194069 173.559374 886.868054 173.559374 
C 885.542038 173.559374 884.270154 174.086205 883.33252 175.02384 
C 882.394885 175.961474 881.868054 177.233358 881.868054 178.559374 
C 881.868054 179.885389 882.394885 181.157273 883.33252 182.094908 
C 884.270154 183.032542 885.542038 183.559374 886.868054 183.559374 
z
" clip-path="url(#pcde4f6ea64)" style="fill: #008000; stroke: #000000; stroke-width: 0.4"/>
    <path d="M 917.030493 162.576338 
C 918.356509 162.576338 919.628392 162.049506 920.566027 161.111871 
C 921.503661 160.174237 922.030493 158.902353 922.030493 157.576338 
C 922.030493 156.250322 921.503661 154.978438 920.566027 154.040804 
C 919.628392 153.103169 918.356509 152.576338 917.030493 152.576338 
C 915.704478 152.576338 914.432594 153.103169 913.494959 154.040804 
C 912.557325 154.978438 912.030493 156.250322 912.030493 157.576338 
C 912.030493 158.902353 912.557325 160.174237 913.494959 161.111871 
C 914.432594 162.049506 915.704478 162.576338 917.030493 162.576338 
z
" clip-path="url(#pcde4f6ea64)" style="fill: #008000; stroke: #000000; stroke-width: 0.4"/>
    <path d="M 947.192932 99.627229 
C 948.518948 99.627229 949.790832 99.100398 950.728466 98.162763 
C 951.666101 97.225129 952.192932 95.953245 952.192932 94.627229 
C 952.192932 93.301214 951.666101 92.02933 950.728466 91.091695 
C 949.790832 90.154061 948.518948 89.627229 947.192932 89.627229 
C 945.866917 89.627229 944.595033 90.154061 943.657399 91.091695 
C 942.719764 92.02933 942.192932 93.301214 942.192932 94.627229 
C 942.192932 95.953245 942.719764 97.225129 943.657399 98.162763 
C 944.595033 99.100398 945.866917 99.627229 947.192932 99.627229 
z
" clip-path="url(#pcde4f6ea64)" style="fill: #008000; stroke: #000000; stroke-width: 0.4"/>
    <path d="M 977.355372 78.644193 
C 978.681387 78.644193 979.953271 78.117362 980.890906 77.179727 
C 981.82854 76.242092 982.355372 74.970209 982.355372 73.644193 
C 982.355372 72.318178 981.82854 71.046294 980.890906 70.108659 
C 979.953271 69.171025 978.681387 68.644193 977.355372 68.644193 
C 976.029356 68.644193 974.757473 69.171025 973.819838 70.108659 
C 972.882203 71.046294 972.355372 72.318178 972.355372 73.644193 
C 972.355372 74.970209 972.882203 76.242092 973.819838 77.179727 
C 974.757473 78.117362 976.029356 78.644193 977.355372 78.644193 
z
" clip-path="url(#pcde4f6ea64)" style="fill: #008000; stroke: #000000; stroke-width: 0.4"/>
    <path d="M 585.243659 57.661157 
C 586.569675 57.661157 587.841559 57.134325 588.779193 56.196691 
C 589.716828 55.259056 590.243659 53.987173 590.243659 52.661157 
C 590.243659 51.335142 589.716828 50.063258 588.779193 49.125623 
C 587.841559 48.187989 586.569675 47.661157 585.243659 47.661157 
C 583.917644 47.661157 582.64576 48.187989 581.708125 49.125623 
C 580.770491 50.063258 580.243659 51.335142 580.243659 52.661157 
C 580.243659 53.987173 580.770491 55.259056 581.708125 56.196691 
C 582.64576 57.134325 583.917644 57.661157 585.243659 57.661157 
z
" clip-path="url(#pcde4f6ea64)" style="fill: #ff0000; stroke: #000000; stroke-width: 0.4"/>
   </g>
   <g id="line2d_1">
    <path d="M 585.243659 493.2 
L 585.243659 10.8 
" clip-path="url(#pcde4f6ea64)" style="fill: none; stroke: #ff0000; stroke-width: 1.5; stroke-linecap: square"/>
   </g>
   <g id="patch_3">
    <path d="M 10.8 493.2 
L 10.8 10.8 
" style="fill: none; stroke: #000000; stroke-width: 0.8; stroke-linejoin: miter; stroke-linecap: square"/>
   </g>
   <g id="patch_4">
    <path d="M 1069.2 493.2 
L 1069.2 10.8 
" style="fill: none; stroke: #000000; stroke-width: 0.8; stroke-linejoin: miter; stroke-linecap: square"/>
   </g>
   <g id="patch_5">
    <path d="M 10.8 493.2 
L 1069.2 493.2 
" style="fill: none; stroke: #000000; stroke-width: 0.8; stroke-linejoin: miter; stroke-linecap: square"/>
   </g>
   <g id="patch_6">
    <path d="M 10.8 10.8 
L 1069.2 10.8 
" style="fill: none; stroke: #000000; stroke-width: 0.8; stroke-linejoin: miter; stroke-linecap: square"/>
   </g>
   <g id="text_1">
    <!-- $B_{1}$ -->
    <g transform="translate(85.144628 154.093301)scale(0.12 -0.12)">
     <defs>
      <path id="DejaVuSans-Oblique-42" d="M 1081 4666 
L 2694 4666 
Q 3350 4666 3675 4422 
Q 4000 4178 4000 3688 
Q 4000 3238 3720 2911 
Q 3441 2584 2988 2516 
Q 3375 2428 3569 2181 
Q 3763 1934 3763 1522 
Q 3763 819 3242 409 
Q 2722 0 1819 0 
L 172 0 
L 1081 4666 
z
M 1234 2228 
L 903 519 
L 1919 519 
Q 2491 519 2800 781 
Q 3109 1044 3109 1522 
Q 3109 1891 2904 2059 
Q 2700 2228 2247 2228 
L 1234 2228 
z
M 1606 4147 
L 1331 2741 
L 2272 2741 
Q 2775 2741 3058 2959 
Q 3341 3178 3341 3566 
Q 3341 3869 3150 4008 
Q 2959 4147 2541 4147 
L 1606 4147 
z
" transform="scale(0.015625)"/>
      <path id="DejaVuSans-31" d="M 794 531 
L 1825 531 
L 1825 4091 
L 703 3866 
L 703 4441 
L 1819 4666 
L 2450 4666 
L 2450 531 
L 3481 531 
L 3481 0 
L 794 0 
L 794 531 
z
" transform="scale(0.015625)"/>
     </defs>
     <use xlink:href="#DejaVuSans-Oblique-42" transform="translate(0 0.09375)"/>
     <use xlink:href="#DejaVuSans-31" transform="translate(68.603516 -16.3125)scale(0.7)"/>
    </g>
   </g>
   <g id="text_2">
    <!-- $B_{2}$ -->
    <g transform="translate(235.956825 175.076338)scale(0.12 -0.12)">
     <defs>
      <path id="DejaVuSans-32" d="M 1228 531 
L 3431 531 
L 3431 0 
L 469 0 
L 469 531 
Q 828 903 1448 1529 
Q 2069 2156 2228 2338 
Q 2531 2678 2651 2914 
Q 2772 3150 2772 3378 
Q 2772 3750 2511 3984 
Q 2250 4219 1831 4219 
Q 1534 4219 1204 4116 
Q 875 4013 500 3803 
L 500 4441 
Q 881 4594 1212 4672 
Q 1544 4750 1819 4750 
Q 2544 4750 2975 4387 
Q 3406 4025 3406 3419 
Q 3406 3131 3298 2873 
Q 3191 2616 2906 2266 
Q 2828 2175 2409 1742 
Q 1991 1309 1228 531 
z
" transform="scale(0.015625)"/>
     </defs>
     <use xlink:href="#DejaVuSans-Oblique-42" transform="translate(0 0.09375)"/>
     <use xlink:href="#DejaVuSans-32" transform="translate(68.603516 -16.3125)scale(0.7)"/>
    </g>
   </g>
   <g id="text_3">
    <!-- $B_{3}$ -->
    <g transform="translate(266.119265 217.04241)scale(0.12 -0.12)">
     <defs>
      <path id="DejaVuSans-33" d="M 2597 2516 
Q 3050 2419 3304 2112 
Q 3559 1806 3559 1356 
Q 3559 666 3084 287 
Q 2609 -91 1734 -91 
Q 1441 -91 1130 -33 
Q 819 25 488 141 
L 488 750 
Q 750 597 1062 519 
Q 1375 441 1716 441 
Q 2309 441 2620 675 
Q 2931 909 2931 1356 
Q 2931 1769 2642 2001 
Q 2353 2234 1838 2234 
L 1294 2234 
L 1294 2753 
L 1863 2753 
Q 2328 2753 2575 2939 
Q 2822 3125 2822 3475 
Q 2822 3834 2567 4026 
Q 2313 4219 1838 4219 
Q 1578 4219 1281 4162 
Q 984 4106 628 3988 
L 628 4550 
Q 988 4650 1302 4700 
Q 1616 4750 1894 4750 
Q 2613 4750 3031 4423 
Q 3450 4097 3450 3541 
Q 3450 3153 3228 2886 
Q 3006 2619 2597 2516 
z
" transform="scale(0.015625)"/>
     </defs>
     <use xlink:href="#DejaVuSans-Oblique-42" transform="translate(0 0.09375)"/>
     <use xlink:href="#DejaVuSans-33" transform="translate(68.603516 -16.3125)scale(0.7)"/>
    </g>
   </g>
   <g id="text_4">
    <!-- $B_{4}$ -->
    <g transform="translate(386.769023 238.025446)scale(0.12 -0.12)">
     <defs>
      <path id="DejaVuSans-34" d="M 2419 4116 
L 825 1625 
L 2419 1625 
L 2419 4116 
z
M 2253 4666 
L 3047 4666 
L 3047 1625 
L 3713 1625 
L 3713 1100 
L 3047 1100 
L 3047 0 
L 2419 0 
L 2419 1100 
L 313 1100 
L 313 1709 
L 2253 4666 
z
" transform="scale(0.015625)"/>
     </defs>
     <use xlink:href="#DejaVuSans-Oblique-42" transform="translate(0 0.09375)"/>
     <use xlink:href="#DejaVuSans-34" transform="translate(68.603516 -16.3125)scale(0.7)"/>
    </g>
   </g>
   <g id="text_5">
    <!-- $B_{5}$ -->
    <g transform="translate(416.931462 259.008482)scale(0.12 -0.12)">
     <defs>
      <path id="DejaVuSans-35" d="M 691 4666 
L 3169 4666 
L 3169 4134 
L 1269 4134 
L 1269 2991 
Q 1406 3038 1543 3061 
Q 1681 3084 1819 3084 
Q 2600 3084 3056 2656 
Q 3513 2228 3513 1497 
Q 3513 744 3044 326 
Q 2575 -91 1722 -91 
Q 1428 -91 1123 -41 
Q 819 9 494 109 
L 494 744 
Q 775 591 1075 516 
Q 1375 441 1709 441 
Q 2250 441 2565 725 
Q 2881 1009 2881 1497 
Q 2881 1984 2565 2268 
Q 2250 2553 1709 2553 
Q 1456 2553 1204 2497 
Q 953 2441 691 2322 
L 691 4666 
z
" transform="scale(0.015625)"/>
     </defs>
     <use xlink:href="#DejaVuSans-Oblique-42" transform="translate(0 0.09375)"/>
     <use xlink:href="#DejaVuSans-35" transform="translate(68.603516 -16.3125)scale(0.7)"/>
    </g>
   </g>
   <g id="text_6">
    <!-- $B_{6}$ -->
    <g transform="translate(447.093901 342.940626)scale(0.12 -0.12)">
     <defs>
      <path id="DejaVuSans-36" d="M 2113 2584 
Q 1688 2584 1439 2293 
Q 1191 2003 1191 1497 
Q 1191 994 1439 701 
Q 1688 409 2113 409 
Q 2538 409 2786 701 
Q 3034 994 3034 1497 
Q 3034 2003 2786 2293 
Q 2538 2584 2113 2584 
z
M 3366 4563 
L 3366 3988 
Q 3128 4100 2886 4159 
Q 2644 4219 2406 4219 
Q 1781 4219 1451 3797 
Q 1122 3375 1075 2522 
Q 1259 2794 1537 2939 
Q 1816 3084 2150 3084 
Q 2853 3084 3261 2657 
Q 3669 2231 3669 1497 
Q 3669 778 3244 343 
Q 2819 -91 2113 -91 
Q 1303 -91 875 529 
Q 447 1150 447 2328 
Q 447 3434 972 4092 
Q 1497 4750 2381 4750 
Q 2619 4750 2861 4703 
Q 3103 4656 3366 4563 
z
" transform="scale(0.015625)"/>
     </defs>
     <use xlink:href="#DejaVuSans-Oblique-42" transform="translate(0 0.09375)"/>
     <use xlink:href="#DejaVuSans-36" transform="translate(68.603516 -16.3125)scale(0.7)"/>
    </g>
   </g>
   <g id="text_7">
    <!-- $B_{7}$ -->
    <g transform="translate(477.256341 405.889735)scale(0.12 -0.12)">
     <defs>
      <path id="DejaVuSans-37" d="M 525 4666 
L 3525 4666 
L 3525 4397 
L 1831 0 
L 1172 0 
L 2766 4134 
L 525 4134 
L 525 4666 
z
" transform="scale(0.015625)"/>
     </defs>
     <use xlink:href="#DejaVuSans-Oblique-42" transform="translate(0 0.09375)"/>
     <use xlink:href="#DejaVuSans-37" transform="translate(68.603516 -16.3125)scale(0.7)"/>
    </g>
   </g>
   <g id="text_8">
    <!-- $B_{8}$ -->
    <g transform="translate(507.41878 426.872771)scale(0.12 -0.12)">
     <defs>
      <path id="DejaVuSans-38" d="M 2034 2216 
Q 1584 2216 1326 1975 
Q 1069 1734 1069 1313 
Q 1069 891 1326 650 
Q 1584 409 2034 409 
Q 2484 409 2743 651 
Q 3003 894 3003 1313 
Q 3003 1734 2745 1975 
Q 2488 2216 2034 2216 
z
M 1403 2484 
Q 997 2584 770 2862 
Q 544 3141 544 3541 
Q 544 4100 942 4425 
Q 1341 4750 2034 4750 
Q 2731 4750 3128 4425 
Q 3525 4100 3525 3541 
Q 3525 3141 3298 2862 
Q 3072 2584 2669 2484 
Q 3125 2378 3379 2068 
Q 3634 1759 3634 1313 
Q 3634 634 3220 271 
Q 2806 -91 2034 -91 
Q 1263 -91 848 271 
Q 434 634 434 1313 
Q 434 1759 690 2068 
Q 947 2378 1403 2484 
z
M 1172 3481 
Q 1172 3119 1398 2916 
Q 1625 2713 2034 2713 
Q 2441 2713 2670 2916 
Q 2900 3119 2900 3481 
Q 2900 3844 2670 4047 
Q 2441 4250 2034 4250 
Q 1625 4250 1398 4047 
Q 1172 3844 1172 3481 
z
" transform="scale(0.015625)"/>
     </defs>
     <use xlink:href="#DejaVuSans-Oblique-42" transform="translate(0 0.09375)"/>
     <use xlink:href="#DejaVuSans-38" transform="translate(68.603516 -16.3125)scale(0.7)"/>
    </g>
   </g>
   <g id="text_9">
    <!-- $B_{9}$ -->
    <g transform="translate(537.58122 468.838843)scale(0.12 -0.12)">
     <defs>
      <path id="DejaVuSans-39" d="M 703 97 
L 703 672 
Q 941 559 1184 500 
Q 1428 441 1663 441 
Q 2288 441 2617 861 
Q 2947 1281 2994 2138 
Q 2813 1869 2534 1725 
Q 2256 1581 1919 1581 
Q 1219 1581 811 2004 
Q 403 2428 403 3163 
Q 403 3881 828 4315 
Q 1253 4750 1959 4750 
Q 2769 4750 3195 4129 
Q 3622 3509 3622 2328 
Q 3622 1225 3098 567 
Q 2575 -91 1691 -91 
Q 1453 -91 1209 -44 
Q 966 3 703 97 
z
M 1959 2075 
Q 2384 2075 2632 2365 
Q 2881 2656 2881 3163 
Q 2881 3666 2632 3958 
Q 2384 4250 1959 4250 
Q 1534 4250 1286 3958 
Q 1038 3666 1038 3163 
Q 1038 2656 1286 2365 
Q 1534 2075 1959 2075 
z
" transform="scale(0.015625)"/>
     </defs>
     <use xlink:href="#DejaVuSans-Oblique-42" transform="translate(0 0.09375)"/>
     <use xlink:href="#DejaVuSans-39" transform="translate(68.603516 -16.3125)scale(0.7)"/>
    </g>
   </g>
   <g id="text_10">
    <!-- $G_{11}$ -->
    <g transform="translate(621.406099 425.372771)scale(0.12 -0.12)">
     <defs>
      <path id="DejaVuSans-Oblique-47" d="M 3494 697 
L 3738 1919 
L 2700 1919 
L 2797 2438 
L 4453 2438 
L 4050 384 
Q 3634 156 3143 32 
Q 2653 -91 2156 -91 
Q 1278 -91 783 396 
Q 288 884 288 1753 
Q 288 2475 589 3126 
Q 891 3778 1422 4213 
Q 1756 4484 2153 4617 
Q 2550 4750 3034 4750 
Q 3472 4750 3873 4639 
Q 4275 4528 4641 4306 
L 4513 3634 
Q 4231 3928 3853 4083 
Q 3475 4238 3047 4238 
Q 2550 4238 2172 4048 
Q 1794 3859 1497 3463 
Q 1244 3125 1098 2667 
Q 953 2209 953 1734 
Q 953 1081 1287 751 
Q 1622 422 2284 422 
Q 2616 422 2925 492 
Q 3234 563 3494 697 
z
" transform="scale(0.015625)"/>
     </defs>
     <use xlink:href="#DejaVuSans-Oblique-47" transform="translate(0 0.78125)"/>
     <use xlink:href="#DejaVuSans-31" transform="translate(77.490234 -15.625)scale(0.7)"/>
     <use xlink:href="#DejaVuSans-31" transform="translate(122.026367 -15.625)scale(0.7)"/>
    </g>
   </g>
   <g id="text_11">
    <!-- $G_{10}$ -->
    <g transform="translate(651.568538 404.389735)scale(0.12 -0.12)">
     <defs>
      <path id="DejaVuSans-30" d="M 2034 4250 
Q 1547 4250 1301 3770 
Q 1056 3291 1056 2328 
Q 1056 1369 1301 889 
Q 1547 409 2034 409 
Q 2525 409 2770 889 
Q 3016 1369 3016 2328 
Q 3016 3291 2770 3770 
Q 2525 4250 2034 4250 
z
M 2034 4750 
Q 2819 4750 3233 4129 
Q 3647 3509 3647 2328 
Q 3647 1150 3233 529 
Q 2819 -91 2034 -91 
Q 1250 -91 836 529 
Q 422 1150 422 2328 
Q 422 3509 836 4129 
Q 1250 4750 2034 4750 
z
" transform="scale(0.015625)"/>
     </defs>
     <use xlink:href="#DejaVuSans-Oblique-47" transform="translate(0 0.78125)"/>
     <use xlink:href="#DejaVuSans-31" transform="translate(77.490234 -15.625)scale(0.7)"/>
     <use xlink:href="#DejaVuSans-30" transform="translate(122.026367 -15.625)scale(0.7)"/>
    </g>
   </g>
   <g id="text_12">
    <!-- $G_{9}$ -->
    <g transform="translate(681.730977 383.406699)scale(0.12 -0.12)">
     <use xlink:href="#DejaVuSans-Oblique-47" transform="translate(0 0.78125)"/>
     <use xlink:href="#DejaVuSans-39" transform="translate(77.490234 -15.625)scale(0.7)"/>
    </g>
   </g>
   <g id="text_13">
    <!-- $G_{8}$ -->
    <g transform="translate(742.055856 341.440626)scale(0.12 -0.12)">
     <use xlink:href="#DejaVuSans-Oblique-47" transform="translate(0 0.78125)"/>
     <use xlink:href="#DejaVuSans-38" transform="translate(77.490234 -15.625)scale(0.7)"/>
    </g>
   </g>
   <g id="text_14">
    <!-- $G_{7}$ -->
    <g transform="translate(772.218296 320.45759)scale(0.12 -0.12)">
     <use xlink:href="#DejaVuSans-Oblique-47" transform="translate(0 0.78125)"/>
     <use xlink:href="#DejaVuSans-37" transform="translate(77.490234 -15.625)scale(0.7)"/>
    </g>
   </g>
   <g id="text_15">
    <!-- $G_{6}$ -->
    <g transform="translate(832.543175 278.491518)scale(0.12 -0.12)">
     <use xlink:href="#DejaVuSans-Oblique-47" transform="translate(0 0.78125)"/>
     <use xlink:href="#DejaVuSans-36" transform="translate(77.490234 -15.625)scale(0.7)"/>
    </g>
   </g>
   <g id="text_16">
    <!-- $G_{5}$ -->
    <g transform="translate(862.705614 236.525446)scale(0.12 -0.12)">
     <use xlink:href="#DejaVuSans-Oblique-47" transform="translate(0 0.78125)"/>
     <use xlink:href="#DejaVuSans-35" transform="translate(77.490234 -15.625)scale(0.7)"/>
    </g>
   </g>
   <g id="text_17">
    <!-- $G_{4}$ -->
    <g transform="translate(892.868054 194.559374)scale(0.12 -0.12)">
     <use xlink:href="#DejaVuSans-Oblique-47" transform="translate(0 0.78125)"/>
     <use xlink:href="#DejaVuSans-34" transform="translate(77.490234 -15.625)scale(0.7)"/>
    </g>
   </g>
   <g id="text_18">
    <!-- $G_{3}$ -->
    <g transform="translate(923.030493 173.576338)scale(0.12 -0.12)">
     <use xlink:href="#DejaVuSans-Oblique-47" transform="translate(0 0.78125)"/>
     <use xlink:href="#DejaVuSans-33" transform="translate(77.490234 -15.625)scale(0.7)"/>
    </g>
   </g>
   <g id="text_19">
    <!-- $G_{2}$ -->
    <g transform="translate(953.192932 110.627229)scale(0.12 -0.12)">
     <use xlink:href="#DejaVuSans-Oblique-47" transform="translate(0 0.78125)"/>
     <use xlink:href="#DejaVuSans-32" transform="translate(77.490234 -15.625)scale(0.7)"/>
    </g>
   </g>
   <g id="text_20">
    <!-- $G_{1}$ -->
    <g transform="translate(983.355372 89.644193)scale(0.12 -0.12)">
     <use xlink:href="#DejaVuSans-Oblique-47" transform="translate(0 0.78125)"/>
     <use xlink:href="#DejaVuSans-31" transform="translate(77.490234 -15.625)scale(0.7)"/>
    </g>
   </g>
  </g>
 </g>
 <defs>
  <clipPath id="pcde4f6ea64">
   <rect x="10.8" y="10.8" width="1058.4" height="482.4"/>
  </clipPath>
 </defs>
</svg>
