<?xml version="1.0" encoding="utf-8" standalone="no"?>
<!DOCTYPE svg PUBLIC "-//W3C//DTD SVG 1.1//EN"
  "http://www.w3.org/Graphics/SVG/1.1/DTD/svg11.dtd">
<svg height="504pt" version="1.1" viewBox="0 0 1080 504" width="1080pt" xmlns="http://www.w3.org/2000/svg" xmlns:xlink="http://www.w3.org/1999/xlink">
 <metadata>
  <rdf:RDF xmlns:cc="http://creativecommons.org/ns#" xmlns:dc="http://purl.org/dc/elements/1.1/" xmlns:rdf="http://www.w3.org/1999/02/22-rdf-syntax-ns#">
   <cc:Work>
    <dc:type rdf:resource="http://purl.org/dc/dcmitype/StillImage"/>
    <dc:date>2022-04-03T09:33:52.329557</dc:date>
    <dc:format>image/svg+xml</dc:format>
    <dc:creator>
     <cc:Agent>
      <dc:title>Matplotlib v3.4.3, https://matplotlib.org/</dc:title>
     </cc:Agent>
    </dc:creator>
   </cc:Work>
  </rdf:RDF>
 </metadata>
 <defs>
  <style type="text/css">*{stroke-linecap:butt;stroke-linejoin:round;}</style>
 </defs>
 <g id="figure_1">
  <g id="patch_1">
   <path d="M 0 504 
L 1080 504 
L 1080 0 
L 0 0 
z
" style="fill:#ffffff;"/>
  </g>
  <g id="axes_1">
   <g id="patch_2">
    <path d="M 10.8 493.2 
L 1069.2 493.2 
L 1069.2 10.8 
L 10.8 10.8 
z
" style="fill:#ffffff;"/>
   </g>
   <g id="LineCollection_1">
    <path clip-path="url(#p323fbe4885)" d="M 524.91878 407.041322 
L 555.08122 451.338843 
" style="fill:none;stroke:#000000;stroke-width:0.4;"/>
    <path clip-path="url(#p323fbe4885)" d="M 524.91878 407.041322 
L 494.756341 384.892562 
" style="fill:none;stroke:#000000;stroke-width:0.4;"/>
    <path clip-path="url(#p323fbe4885)" d="M 494.756341 384.892562 
L 464.593901 318.446281 
" style="fill:none;stroke:#000000;stroke-width:0.4;"/>
    <path clip-path="url(#p323fbe4885)" d="M 464.593901 318.446281 
L 585.243659 296.297521 
" style="fill:none;stroke:#000000;stroke-width:0.4;"/>
    <path clip-path="url(#p323fbe4885)" d="M 645.568538 384.892562 
L 615.406099 407.041322 
" style="fill:none;stroke:#000000;stroke-width:0.4;"/>
    <path clip-path="url(#p323fbe4885)" d="M 645.568538 384.892562 
L 675.730977 362.743802 
" style="fill:none;stroke:#000000;stroke-width:0.4;"/>
    <path clip-path="url(#p323fbe4885)" d="M 675.730977 362.743802 
L 705.893417 340.595041 
" style="fill:none;stroke:#000000;stroke-width:0.4;"/>
    <path clip-path="url(#p323fbe4885)" d="M 705.893417 340.595041 
L 736.055856 318.446281 
" style="fill:none;stroke:#000000;stroke-width:0.4;"/>
    <path clip-path="url(#p323fbe4885)" d="M 736.055856 318.446281 
L 766.218296 296.297521 
" style="fill:none;stroke:#000000;stroke-width:0.4;"/>
    <path clip-path="url(#p323fbe4885)" d="M 766.218296 296.297521 
L 585.243659 296.297521 
" style="fill:none;stroke:#000000;stroke-width:0.4;"/>
    <path clip-path="url(#p323fbe4885)" d="M 585.243659 296.297521 
L 796.380735 274.14876 
" style="fill:none;stroke:#000000;stroke-width:0.4;"/>
    <path clip-path="url(#p323fbe4885)" d="M 796.380735 274.14876 
L 826.543175 252 
" style="fill:none;stroke:#000000;stroke-width:0.4;"/>
    <path clip-path="url(#p323fbe4885)" d="M 826.543175 252 
L 434.431462 229.85124 
" style="fill:none;stroke:#000000;stroke-width:0.4;"/>
    <path clip-path="url(#p323fbe4885)" d="M 434.431462 229.85124 
L 856.705614 207.702479 
" style="fill:none;stroke:#000000;stroke-width:0.4;"/>
    <path clip-path="url(#p323fbe4885)" d="M 856.705614 207.702479 
L 404.269023 207.702479 
" style="fill:none;stroke:#000000;stroke-width:0.4;"/>
    <path clip-path="url(#p323fbe4885)" d="M 404.269023 207.702479 
L 374.106583 207.702479 
" style="fill:none;stroke:#000000;stroke-width:0.4;"/>
    <path clip-path="url(#p323fbe4885)" d="M 374.106583 207.702479 
L 343.944144 207.702479 
" style="fill:none;stroke:#000000;stroke-width:0.4;"/>
    <path clip-path="url(#p323fbe4885)" d="M 343.944144 207.702479 
L 313.781704 185.553719 
" style="fill:none;stroke:#000000;stroke-width:0.4;"/>
    <path clip-path="url(#p323fbe4885)" d="M 313.781704 185.553719 
L 283.619265 185.553719 
" style="fill:none;stroke:#000000;stroke-width:0.4;"/>
    <path clip-path="url(#p323fbe4885)" d="M 283.619265 185.553719 
L 886.868054 163.404959 
" style="fill:none;stroke:#000000;stroke-width:0.4;"/>
    <path clip-path="url(#p323fbe4885)" d="M 886.868054 163.404959 
L 917.030493 141.256198 
" style="fill:none;stroke:#000000;stroke-width:0.4;"/>
    <path clip-path="url(#p323fbe4885)" d="M 917.030493 141.256198 
L 253.456825 141.256198 
" style="fill:none;stroke:#000000;stroke-width:0.4;"/>
    <path clip-path="url(#p323fbe4885)" d="M 253.456825 141.256198 
L 223.294386 141.256198 
" style="fill:none;stroke:#000000;stroke-width:0.4;"/>
    <path clip-path="url(#p323fbe4885)" d="M 223.294386 141.256198 
L 193.131946 141.256198 
" style="fill:none;stroke:#000000;stroke-width:0.4;"/>
    <path clip-path="url(#p323fbe4885)" d="M 193.131946 141.256198 
L 162.969507 119.107438 
" style="fill:none;stroke:#000000;stroke-width:0.4;"/>
    <path clip-path="url(#p323fbe4885)" d="M 162.969507 119.107438 
L 132.807068 119.107438 
" style="fill:none;stroke:#000000;stroke-width:0.4;"/>
    <path clip-path="url(#p323fbe4885)" d="M 132.807068 119.107438 
L 102.644628 119.107438 
" style="fill:none;stroke:#000000;stroke-width:0.4;"/>
    <path clip-path="url(#p323fbe4885)" d="M 102.644628 119.107438 
L 947.192932 74.809917 
" style="fill:none;stroke:#000000;stroke-width:0.4;"/>
    <path clip-path="url(#p323fbe4885)" d="M 947.192932 74.809917 
L 977.355372 52.661157 
" style="fill:none;stroke:#000000;stroke-width:0.4;"/>
   </g>
   <g id="matplotlib.axis_1">
    <g id="xtick_1"/>
    <g id="xtick_2"/>
    <g id="xtick_3"/>
    <g id="xtick_4"/>
    <g id="xtick_5"/>
    <g id="xtick_6"/>
    <g id="xtick_7"/>
   </g>
   <g id="matplotlib.axis_2">
    <g id="ytick_1"/>
    <g id="ytick_2"/>
    <g id="ytick_3"/>
    <g id="ytick_4"/>
    <g id="ytick_5"/>
    <g id="ytick_6"/>
    <g id="ytick_7"/>
    <g id="ytick_8"/>
   </g>
   <g id="PathCollection_1">
    <path clip-path="url(#p323fbe4885)" d="M 524.91878 412.041322 
C 526.244796 412.041322 527.51668 411.514491 528.454314 410.576856 
C 529.391949 409.639222 529.91878 408.367338 529.91878 407.041322 
C 529.91878 405.715307 529.391949 404.443423 528.454314 403.505788 
C 527.51668 402.568154 526.244796 402.041322 524.91878 402.041322 
C 523.592765 402.041322 522.320881 402.568154 521.383246 403.505788 
C 520.445612 404.443423 519.91878 405.715307 519.91878 407.041322 
C 519.91878 408.367338 520.445612 409.639222 521.383246 410.576856 
C 522.320881 411.514491 523.592765 412.041322 524.91878 412.041322 
z
" style="fill:#0000ff;stroke:#000000;stroke-width:0.4;"/>
    <path clip-path="url(#p323fbe4885)" d="M 555.08122 456.338843 
C 556.407235 456.338843 557.679119 455.812011 558.616754 454.874377 
C 559.554388 453.936742 560.08122 452.664858 560.08122 451.338843 
C 560.08122 450.012827 559.554388 448.740944 558.616754 447.803309 
C 557.679119 446.865675 556.407235 446.338843 555.08122 446.338843 
C 553.755204 446.338843 552.48332 446.865675 551.545686 447.803309 
C 550.608051 448.740944 550.08122 450.012827 550.08122 451.338843 
C 550.08122 452.664858 550.608051 453.936742 551.545686 454.874377 
C 552.48332 455.812011 553.755204 456.338843 555.08122 456.338843 
z
" style="fill:#0000ff;stroke:#000000;stroke-width:0.4;"/>
    <path clip-path="url(#p323fbe4885)" d="M 494.756341 389.892562 
C 496.082356 389.892562 497.35424 389.36573 498.291875 388.428096 
C 499.229509 387.490461 499.756341 386.218577 499.756341 384.892562 
C 499.756341 383.566546 499.229509 382.294663 498.291875 381.357028 
C 497.35424 380.419394 496.082356 379.892562 494.756341 379.892562 
C 493.430325 379.892562 492.158441 380.419394 491.220807 381.357028 
C 490.283172 382.294663 489.756341 383.566546 489.756341 384.892562 
C 489.756341 386.218577 490.283172 387.490461 491.220807 388.428096 
C 492.158441 389.36573 493.430325 389.892562 494.756341 389.892562 
z
" style="fill:#0000ff;stroke:#000000;stroke-width:0.4;"/>
    <path clip-path="url(#p323fbe4885)" d="M 464.593901 323.446281 
C 465.919917 323.446281 467.191801 322.919449 468.129435 321.981815 
C 469.06707 321.04418 469.593901 319.772296 469.593901 318.446281 
C 469.593901 317.120265 469.06707 315.848382 468.129435 314.910747 
C 467.191801 313.973113 465.919917 313.446281 464.593901 313.446281 
C 463.267886 313.446281 461.996002 313.973113 461.058367 314.910747 
C 460.120733 315.848382 459.593901 317.120265 459.593901 318.446281 
C 459.593901 319.772296 460.120733 321.04418 461.058367 321.981815 
C 461.996002 322.919449 463.267886 323.446281 464.593901 323.446281 
z
" style="fill:#0000ff;stroke:#000000;stroke-width:0.4;"/>
    <path clip-path="url(#p323fbe4885)" d="M 645.568538 389.892562 
C 646.894554 389.892562 648.166437 389.36573 649.104072 388.428096 
C 650.041707 387.490461 650.568538 386.218577 650.568538 384.892562 
C 650.568538 383.566546 650.041707 382.294663 649.104072 381.357028 
C 648.166437 380.419394 646.894554 379.892562 645.568538 379.892562 
C 644.242523 379.892562 642.970639 380.419394 642.033004 381.357028 
C 641.09537 382.294663 640.568538 383.566546 640.568538 384.892562 
C 640.568538 386.218577 641.09537 387.490461 642.033004 388.428096 
C 642.970639 389.36573 644.242523 389.892562 645.568538 389.892562 
z
" style="fill:#008000;stroke:#000000;stroke-width:0.4;"/>
    <path clip-path="url(#p323fbe4885)" d="M 615.406099 412.041322 
C 616.732114 412.041322 618.003998 411.514491 618.941633 410.576856 
C 619.879267 409.639222 620.406099 408.367338 620.406099 407.041322 
C 620.406099 405.715307 619.879267 404.443423 618.941633 403.505788 
C 618.003998 402.568154 616.732114 402.041322 615.406099 402.041322 
C 614.080083 402.041322 612.808199 402.568154 611.870565 403.505788 
C 610.93293 404.443423 610.406099 405.715307 610.406099 407.041322 
C 610.406099 408.367338 610.93293 409.639222 611.870565 410.576856 
C 612.808199 411.514491 614.080083 412.041322 615.406099 412.041322 
z
" style="fill:#008000;stroke:#000000;stroke-width:0.4;"/>
    <path clip-path="url(#p323fbe4885)" d="M 675.730977 367.743802 
C 677.056993 367.743802 678.328877 367.21697 679.266511 366.279336 
C 680.204146 365.341701 680.730977 364.069817 680.730977 362.743802 
C 680.730977 361.417786 680.204146 360.145902 679.266511 359.208268 
C 678.328877 358.270633 677.056993 357.743802 675.730977 357.743802 
C 674.404962 357.743802 673.133078 358.270633 672.195444 359.208268 
C 671.257809 360.145902 670.730977 361.417786 670.730977 362.743802 
C 670.730977 364.069817 671.257809 365.341701 672.195444 366.279336 
C 673.133078 367.21697 674.404962 367.743802 675.730977 367.743802 
z
" style="fill:#008000;stroke:#000000;stroke-width:0.4;"/>
    <path clip-path="url(#p323fbe4885)" d="M 705.893417 345.595041 
C 707.219432 345.595041 708.491316 345.06821 709.428951 344.130575 
C 710.366585 343.192941 710.893417 341.921057 710.893417 340.595041 
C 710.893417 339.269026 710.366585 337.997142 709.428951 337.059507 
C 708.491316 336.121873 707.219432 335.595041 705.893417 335.595041 
C 704.567401 335.595041 703.295518 336.121873 702.357883 337.059507 
C 701.420248 337.997142 700.893417 339.269026 700.893417 340.595041 
C 700.893417 341.921057 701.420248 343.192941 702.357883 344.130575 
C 703.295518 345.06821 704.567401 345.595041 705.893417 345.595041 
z
" style="stroke:#000000;stroke-width:0.4;"/>
    <path clip-path="url(#p323fbe4885)" d="M 736.055856 323.446281 
C 737.381872 323.446281 738.653756 322.919449 739.59139 321.981815 
C 740.529025 321.04418 741.055856 319.772296 741.055856 318.446281 
C 741.055856 317.120265 740.529025 315.848382 739.59139 314.910747 
C 738.653756 313.973113 737.381872 313.446281 736.055856 313.446281 
C 734.729841 313.446281 733.457957 313.973113 732.520322 314.910747 
C 731.582688 315.848382 731.055856 317.120265 731.055856 318.446281 
C 731.055856 319.772296 731.582688 321.04418 732.520322 321.981815 
C 733.457957 322.919449 734.729841 323.446281 736.055856 323.446281 
z
" style="fill:#008000;stroke:#000000;stroke-width:0.4;"/>
    <path clip-path="url(#p323fbe4885)" d="M 766.218296 301.297521 
C 767.544311 301.297521 768.816195 300.770689 769.75383 299.833055 
C 770.691464 298.89542 771.218296 297.623536 771.218296 296.297521 
C 771.218296 294.971505 770.691464 293.699621 769.75383 292.761987 
C 768.816195 291.824352 767.544311 291.297521 766.218296 291.297521 
C 764.89228 291.297521 763.620396 291.824352 762.682762 292.761987 
C 761.745127 293.699621 761.218296 294.971505 761.218296 296.297521 
C 761.218296 297.623536 761.745127 298.89542 762.682762 299.833055 
C 763.620396 300.770689 764.89228 301.297521 766.218296 301.297521 
z
" style="fill:#008000;stroke:#000000;stroke-width:0.4;"/>
    <path clip-path="url(#p323fbe4885)" d="M 585.243659 301.297521 
C 586.569675 301.297521 587.841559 300.770689 588.779193 299.833055 
C 589.716828 298.89542 590.243659 297.623536 590.243659 296.297521 
C 590.243659 294.971505 589.716828 293.699621 588.779193 292.761987 
C 587.841559 291.824352 586.569675 291.297521 585.243659 291.297521 
C 583.917644 291.297521 582.64576 291.824352 581.708125 292.761987 
C 580.770491 293.699621 580.243659 294.971505 580.243659 296.297521 
C 580.243659 297.623536 580.770491 298.89542 581.708125 299.833055 
C 582.64576 300.770689 583.917644 301.297521 585.243659 301.297521 
z
" style="fill:#ff0000;stroke:#000000;stroke-width:0.4;"/>
    <path clip-path="url(#p323fbe4885)" d="M 796.380735 279.14876 
C 797.706751 279.14876 798.978635 278.621929 799.916269 277.684294 
C 800.853904 276.74666 801.380735 275.474776 801.380735 274.14876 
C 801.380735 272.822745 800.853904 271.550861 799.916269 270.613226 
C 798.978635 269.675592 797.706751 269.14876 796.380735 269.14876 
C 795.05472 269.14876 793.782836 269.675592 792.845201 270.613226 
C 791.907567 271.550861 791.380735 272.822745 791.380735 274.14876 
C 791.380735 275.474776 791.907567 276.74666 792.845201 277.684294 
C 793.782836 278.621929 795.05472 279.14876 796.380735 279.14876 
z
" style="fill:#808080;stroke:#000000;stroke-width:0.4;"/>
    <path clip-path="url(#p323fbe4885)" d="M 826.543175 257 
C 827.86919 257 829.141074 256.473168 830.078709 255.535534 
C 831.016343 254.597899 831.543175 253.326016 831.543175 252 
C 831.543175 250.673984 831.016343 249.402101 830.078709 248.464466 
C 829.141074 247.526832 827.86919 247 826.543175 247 
C 825.217159 247 823.945275 247.526832 823.007641 248.464466 
C 822.070006 249.402101 821.543175 250.673984 821.543175 252 
C 821.543175 253.326016 822.070006 254.597899 823.007641 255.535534 
C 823.945275 256.473168 825.217159 257 826.543175 257 
z
" style="fill:#808080;stroke:#000000;stroke-width:0.4;"/>
    <path clip-path="url(#p323fbe4885)" d="M 434.431462 234.85124 
C 435.757477 234.85124 437.029361 234.324408 437.966996 233.386774 
C 438.90463 232.449139 439.431462 231.177255 439.431462 229.85124 
C 439.431462 228.525224 438.90463 227.25334 437.966996 226.315706 
C 437.029361 225.378071 435.757477 224.85124 434.431462 224.85124 
C 433.105446 224.85124 431.833563 225.378071 430.895928 226.315706 
C 429.958293 227.25334 429.431462 228.525224 429.431462 229.85124 
C 429.431462 231.177255 429.958293 232.449139 430.895928 233.386774 
C 431.833563 234.324408 433.105446 234.85124 434.431462 234.85124 
z
" style="fill:#808080;stroke:#000000;stroke-width:0.4;"/>
    <path clip-path="url(#p323fbe4885)" d="M 856.705614 212.702479 
C 858.03163 212.702479 859.303513 212.175648 860.241148 211.238013 
C 861.178783 210.300379 861.705614 209.028495 861.705614 207.702479 
C 861.705614 206.376464 861.178783 205.10458 860.241148 204.166945 
C 859.303513 203.229311 858.03163 202.702479 856.705614 202.702479 
C 855.379599 202.702479 854.107715 203.229311 853.17008 204.166945 
C 852.232446 205.10458 851.705614 206.376464 851.705614 207.702479 
C 851.705614 209.028495 852.232446 210.300379 853.17008 211.238013 
C 854.107715 212.175648 855.379599 212.702479 856.705614 212.702479 
z
" style="fill:#808080;stroke:#000000;stroke-width:0.4;"/>
    <path clip-path="url(#p323fbe4885)" d="M 404.269023 212.702479 
C 405.595038 212.702479 406.866922 212.175648 407.804556 211.238013 
C 408.742191 210.300379 409.269023 209.028495 409.269023 207.702479 
C 409.269023 206.376464 408.742191 205.10458 407.804556 204.166945 
C 406.866922 203.229311 405.595038 202.702479 404.269023 202.702479 
C 402.943007 202.702479 401.671123 203.229311 400.733489 204.166945 
C 399.795854 205.10458 399.269023 206.376464 399.269023 207.702479 
C 399.269023 209.028495 399.795854 210.300379 400.733489 211.238013 
C 401.671123 212.175648 402.943007 212.702479 404.269023 212.702479 
z
" style="fill:#808080;stroke:#000000;stroke-width:0.4;"/>
    <path clip-path="url(#p323fbe4885)" d="M 374.106583 212.702479 
C 375.432599 212.702479 376.704482 212.175648 377.642117 211.238013 
C 378.579752 210.300379 379.106583 209.028495 379.106583 207.702479 
C 379.106583 206.376464 378.579752 205.10458 377.642117 204.166945 
C 376.704482 203.229311 375.432599 202.702479 374.106583 202.702479 
C 372.780568 202.702479 371.508684 203.229311 370.571049 204.166945 
C 369.633415 205.10458 369.106583 206.376464 369.106583 207.702479 
C 369.106583 209.028495 369.633415 210.300379 370.571049 211.238013 
C 371.508684 212.175648 372.780568 212.702479 374.106583 212.702479 
z
" style="fill:#808080;stroke:#000000;stroke-width:0.4;"/>
    <path clip-path="url(#p323fbe4885)" d="M 343.944144 212.702479 
C 345.270159 212.702479 346.542043 212.175648 347.479678 211.238013 
C 348.417312 210.300379 348.944144 209.028495 348.944144 207.702479 
C 348.944144 206.376464 348.417312 205.10458 347.479678 204.166945 
C 346.542043 203.229311 345.270159 202.702479 343.944144 202.702479 
C 342.618128 202.702479 341.346244 203.229311 340.40861 204.166945 
C 339.470975 205.10458 338.944144 206.376464 338.944144 207.702479 
C 338.944144 209.028495 339.470975 210.300379 340.40861 211.238013 
C 341.346244 212.175648 342.618128 212.702479 343.944144 212.702479 
z
" style="fill:#808080;stroke:#000000;stroke-width:0.4;"/>
    <path clip-path="url(#p323fbe4885)" d="M 313.781704 190.553719 
C 315.10772 190.553719 316.379604 190.026887 317.317238 189.089253 
C 318.254873 188.151618 318.781704 186.879735 318.781704 185.553719 
C 318.781704 184.227704 318.254873 182.95582 317.317238 182.018185 
C 316.379604 181.080551 315.10772 180.553719 313.781704 180.553719 
C 312.455689 180.553719 311.183805 181.080551 310.24617 182.018185 
C 309.308536 182.95582 308.781704 184.227704 308.781704 185.553719 
C 308.781704 186.879735 309.308536 188.151618 310.24617 189.089253 
C 311.183805 190.026887 312.455689 190.553719 313.781704 190.553719 
z
" style="fill:#808080;stroke:#000000;stroke-width:0.4;"/>
    <path clip-path="url(#p323fbe4885)" d="M 283.619265 190.553719 
C 284.94528 190.553719 286.217164 190.026887 287.154799 189.089253 
C 288.092433 188.151618 288.619265 186.879735 288.619265 185.553719 
C 288.619265 184.227704 288.092433 182.95582 287.154799 182.018185 
C 286.217164 181.080551 284.94528 180.553719 283.619265 180.553719 
C 282.293249 180.553719 281.021365 181.080551 280.083731 182.018185 
C 279.146096 182.95582 278.619265 184.227704 278.619265 185.553719 
C 278.619265 186.879735 279.146096 188.151618 280.083731 189.089253 
C 281.021365 190.026887 282.293249 190.553719 283.619265 190.553719 
z
" style="fill:#808080;stroke:#000000;stroke-width:0.4;"/>
    <path clip-path="url(#p323fbe4885)" d="M 886.868054 168.404959 
C 888.194069 168.404959 889.465953 167.878127 890.403587 166.940493 
C 891.341222 166.002858 891.868054 164.730974 891.868054 163.404959 
C 891.868054 162.078943 891.341222 160.807059 890.403587 159.869425 
C 889.465953 158.93179 888.194069 158.404959 886.868054 158.404959 
C 885.542038 158.404959 884.270154 158.93179 883.33252 159.869425 
C 882.394885 160.807059 881.868054 162.078943 881.868054 163.404959 
C 881.868054 164.730974 882.394885 166.002858 883.33252 166.940493 
C 884.270154 167.878127 885.542038 168.404959 886.868054 168.404959 
z
" style="fill:#808080;stroke:#000000;stroke-width:0.4;"/>
    <path clip-path="url(#p323fbe4885)" d="M 917.030493 146.256198 
C 918.356509 146.256198 919.628392 145.729367 920.566027 144.791732 
C 921.503661 143.854098 922.030493 142.582214 922.030493 141.256198 
C 922.030493 139.930183 921.503661 138.658299 920.566027 137.720664 
C 919.628392 136.78303 918.356509 136.256198 917.030493 136.256198 
C 915.704478 136.256198 914.432594 136.78303 913.494959 137.720664 
C 912.557325 138.658299 912.030493 139.930183 912.030493 141.256198 
C 912.030493 142.582214 912.557325 143.854098 913.494959 144.791732 
C 914.432594 145.729367 915.704478 146.256198 917.030493 146.256198 
z
" style="fill:#808080;stroke:#000000;stroke-width:0.4;"/>
    <path clip-path="url(#p323fbe4885)" d="M 253.456825 146.256198 
C 254.782841 146.256198 256.054725 145.729367 256.992359 144.791732 
C 257.929994 143.854098 258.456825 142.582214 258.456825 141.256198 
C 258.456825 139.930183 257.929994 138.658299 256.992359 137.720664 
C 256.054725 136.78303 254.782841 136.256198 253.456825 136.256198 
C 252.13081 136.256198 250.858926 136.78303 249.921291 137.720664 
C 248.983657 138.658299 248.456825 139.930183 248.456825 141.256198 
C 248.456825 142.582214 248.983657 143.854098 249.921291 144.791732 
C 250.858926 145.729367 252.13081 146.256198 253.456825 146.256198 
z
" style="fill:#808080;stroke:#000000;stroke-width:0.4;"/>
    <path clip-path="url(#p323fbe4885)" d="M 223.294386 146.256198 
C 224.620401 146.256198 225.892285 145.729367 226.82992 144.791732 
C 227.767554 143.854098 228.294386 142.582214 228.294386 141.256198 
C 228.294386 139.930183 227.767554 138.658299 226.82992 137.720664 
C 225.892285 136.78303 224.620401 136.256198 223.294386 136.256198 
C 221.96837 136.256198 220.696487 136.78303 219.758852 137.720664 
C 218.821217 138.658299 218.294386 139.930183 218.294386 141.256198 
C 218.294386 142.582214 218.821217 143.854098 219.758852 144.791732 
C 220.696487 145.729367 221.96837 146.256198 223.294386 146.256198 
z
" style="fill:#808080;stroke:#000000;stroke-width:0.4;"/>
    <path clip-path="url(#p323fbe4885)" d="M 193.131946 146.256198 
C 194.457962 146.256198 195.729846 145.729367 196.66748 144.791732 
C 197.605115 143.854098 198.131946 142.582214 198.131946 141.256198 
C 198.131946 139.930183 197.605115 138.658299 196.66748 137.720664 
C 195.729846 136.78303 194.457962 136.256198 193.131946 136.256198 
C 191.805931 136.256198 190.534047 136.78303 189.596413 137.720664 
C 188.658778 138.658299 188.131946 139.930183 188.131946 141.256198 
C 188.131946 142.582214 188.658778 143.854098 189.596413 144.791732 
C 190.534047 145.729367 191.805931 146.256198 193.131946 146.256198 
z
" style="fill:#808080;stroke:#000000;stroke-width:0.4;"/>
    <path clip-path="url(#p323fbe4885)" d="M 162.969507 124.107438 
C 164.295522 124.107438 165.567406 123.580606 166.505041 122.642972 
C 167.442675 121.705337 167.969507 120.433454 167.969507 119.107438 
C 167.969507 117.781423 167.442675 116.509539 166.505041 115.571904 
C 165.567406 114.63427 164.295522 114.107438 162.969507 114.107438 
C 161.643491 114.107438 160.371608 114.63427 159.433973 115.571904 
C 158.496339 116.509539 157.969507 117.781423 157.969507 119.107438 
C 157.969507 120.433454 158.496339 121.705337 159.433973 122.642972 
C 160.371608 123.580606 161.643491 124.107438 162.969507 124.107438 
z
" style="fill:#808080;stroke:#000000;stroke-width:0.4;"/>
    <path clip-path="url(#p323fbe4885)" d="M 132.807068 124.107438 
C 134.133083 124.107438 135.404967 123.580606 136.342601 122.642972 
C 137.280236 121.705337 137.807068 120.433454 137.807068 119.107438 
C 137.807068 117.781423 137.280236 116.509539 136.342601 115.571904 
C 135.404967 114.63427 134.133083 114.107438 132.807068 114.107438 
C 131.481052 114.107438 130.209168 114.63427 129.271534 115.571904 
C 128.333899 116.509539 127.807068 117.781423 127.807068 119.107438 
C 127.807068 120.433454 128.333899 121.705337 129.271534 122.642972 
C 130.209168 123.580606 131.481052 124.107438 132.807068 124.107438 
z
" style="fill:#808080;stroke:#000000;stroke-width:0.4;"/>
    <path clip-path="url(#p323fbe4885)" d="M 102.644628 124.107438 
C 103.970644 124.107438 105.242527 123.580606 106.180162 122.642972 
C 107.117797 121.705337 107.644628 120.433454 107.644628 119.107438 
C 107.644628 117.781423 107.117797 116.509539 106.180162 115.571904 
C 105.242527 114.63427 103.970644 114.107438 102.644628 114.107438 
C 101.318613 114.107438 100.046729 114.63427 99.109094 115.571904 
C 98.17146 116.509539 97.644628 117.781423 97.644628 119.107438 
C 97.644628 120.433454 98.17146 121.705337 99.109094 122.642972 
C 100.046729 123.580606 101.318613 124.107438 102.644628 124.107438 
z
" style="fill:#808080;stroke:#000000;stroke-width:0.4;"/>
    <path clip-path="url(#p323fbe4885)" d="M 947.192932 79.809917 
C 948.518948 79.809917 949.790832 79.283086 950.728466 78.345451 
C 951.666101 77.407817 952.192932 76.135933 952.192932 74.809917 
C 952.192932 73.483902 951.666101 72.212018 950.728466 71.274383 
C 949.790832 70.336749 948.518948 69.809917 947.192932 69.809917 
C 945.866917 69.809917 944.595033 70.336749 943.657399 71.274383 
C 942.719764 72.212018 942.192932 73.483902 942.192932 74.809917 
C 942.192932 76.135933 942.719764 77.407817 943.657399 78.345451 
C 944.595033 79.283086 945.866917 79.809917 947.192932 79.809917 
z
" style="fill:#808080;stroke:#000000;stroke-width:0.4;"/>
    <path clip-path="url(#p323fbe4885)" d="M 977.355372 57.661157 
C 978.681387 57.661157 979.953271 57.134325 980.890906 56.196691 
C 981.82854 55.259056 982.355372 53.987173 982.355372 52.661157 
C 982.355372 51.335142 981.82854 50.063258 980.890906 49.125623 
C 979.953271 48.187989 978.681387 47.661157 977.355372 47.661157 
C 976.029356 47.661157 974.757473 48.187989 973.819838 49.125623 
C 972.882203 50.063258 972.355372 51.335142 972.355372 52.661157 
C 972.355372 53.987173 972.882203 55.259056 973.819838 56.196691 
C 974.757473 57.134325 976.029356 57.661157 977.355372 57.661157 
z
" style="fill:#808080;stroke:#000000;stroke-width:0.4;"/>
   </g>
   <g id="line2d_1">
    <path clip-path="url(#p323fbe4885)" d="M 585.243659 493.2 
L 585.243659 10.8 
" style="fill:none;stroke:#ff0000;stroke-linecap:square;stroke-width:1.5;"/>
   </g>
   <g id="patch_3">
    <path d="M 10.8 493.2 
L 10.8 10.8 
" style="fill:none;stroke:#000000;stroke-linecap:square;stroke-linejoin:miter;stroke-width:0.8;"/>
   </g>
   <g id="patch_4">
    <path d="M 1069.2 493.2 
L 1069.2 10.8 
" style="fill:none;stroke:#000000;stroke-linecap:square;stroke-linejoin:miter;stroke-width:0.8;"/>
   </g>
   <g id="patch_5">
    <path d="M 10.8 493.2 
L 1069.2 493.2 
" style="fill:none;stroke:#000000;stroke-linecap:square;stroke-linejoin:miter;stroke-width:0.8;"/>
   </g>
   <g id="patch_6">
    <path d="M 10.8 10.8 
L 1069.2 10.8 
" style="fill:none;stroke:#000000;stroke-linecap:square;stroke-linejoin:miter;stroke-width:0.8;"/>
   </g>
  </g>
 </g>
 <defs>
  <clipPath id="p323fbe4885">
   <rect height="482.4" width="1058.4" x="10.8" y="10.8"/>
  </clipPath>
 </defs>
</svg>
