<?xml version="1.0" encoding="utf-8" standalone="no"?>
<!DOCTYPE svg PUBLIC "-//W3C//DTD SVG 1.1//EN"
  "http://www.w3.org/Graphics/SVG/1.1/DTD/svg11.dtd">
<svg xmlns:xlink="http://www.w3.org/1999/xlink" width="1080pt" height="504pt" viewBox="0 0 1080 504" xmlns="http://www.w3.org/2000/svg" version="1.1">
 <metadata>
  <rdf:RDF xmlns:dc="http://purl.org/dc/elements/1.1/" xmlns:cc="http://creativecommons.org/ns#" xmlns:rdf="http://www.w3.org/1999/02/22-rdf-syntax-ns#">
   <cc:Work>
    <dc:type rdf:resource="http://purl.org/dc/dcmitype/StillImage"/>
    <dc:date>2022-04-20T08:03:52.432270</dc:date>
    <dc:format>image/svg+xml</dc:format>
    <dc:creator>
     <cc:Agent>
      <dc:title>Matplotlib v3.5.1, https://matplotlib.org/</dc:title>
     </cc:Agent>
    </dc:creator>
   </cc:Work>
  </rdf:RDF>
 </metadata>
 <defs>
  <style type="text/css">*{stroke-linejoin: round; stroke-linecap: butt}</style>
 </defs>
 <g id="figure_1">
  <g id="patch_1">
   <path d="M 0 504 
L 1080 504 
L 1080 0 
L 0 0 
z
" style="fill: #ffffff"/>
  </g>
  <g id="axes_1">
   <g id="patch_2">
    <path d="M 10.8 493.2 
L 1069.2 493.2 
L 1069.2 10.8 
L 10.8 10.8 
z
" style="fill: #ffffff"/>
   </g>
   <g id="LineCollection_1">
    <path d="M 202.61157 326.752066 
L 227.603306 326.752066 
" clip-path="url(#pf53c136c53)" style="fill: none; stroke: #000000; stroke-width: 0.4"/>
    <path d="M 202.61157 326.752066 
L 252.595041 301.834711 
" clip-path="url(#pf53c136c53)" style="fill: none; stroke: #000000; stroke-width: 0.4"/>
    <path d="M 552.495868 426.421488 
L 527.504132 451.338843 
" clip-path="url(#pf53c136c53)" style="fill: none; stroke: #000000; stroke-width: 0.4"/>
    <path d="M 552.495868 426.421488 
L 502.512397 401.504132 
" clip-path="url(#pf53c136c53)" style="fill: none; stroke: #000000; stroke-width: 0.4"/>
    <path d="M 502.512397 401.504132 
L 477.520661 426.421488 
" clip-path="url(#pf53c136c53)" style="fill: none; stroke: #000000; stroke-width: 0.4"/>
    <path d="M 502.512397 401.504132 
L 452.528926 376.586777 
" clip-path="url(#pf53c136c53)" style="fill: none; stroke: #000000; stroke-width: 0.4"/>
    <path d="M 452.528926 376.586777 
L 427.53719 401.504132 
" clip-path="url(#pf53c136c53)" style="fill: none; stroke: #000000; stroke-width: 0.4"/>
    <path d="M 452.528926 376.586777 
L 402.545455 351.669421 
" clip-path="url(#pf53c136c53)" style="fill: none; stroke: #000000; stroke-width: 0.4"/>
    <path d="M 402.545455 351.669421 
L 377.553719 376.586777 
" clip-path="url(#pf53c136c53)" style="fill: none; stroke: #000000; stroke-width: 0.4"/>
    <path d="M 402.545455 351.669421 
L 352.561983 326.752066 
" clip-path="url(#pf53c136c53)" style="fill: none; stroke: #000000; stroke-width: 0.4"/>
    <path d="M 352.561983 326.752066 
L 327.570248 351.669421 
" clip-path="url(#pf53c136c53)" style="fill: none; stroke: #000000; stroke-width: 0.4"/>
    <path d="M 352.561983 326.752066 
L 302.578512 301.834711 
" clip-path="url(#pf53c136c53)" style="fill: none; stroke: #000000; stroke-width: 0.4"/>
    <path d="M 302.578512 301.834711 
L 277.586777 326.752066 
" clip-path="url(#pf53c136c53)" style="fill: none; stroke: #000000; stroke-width: 0.4"/>
    <path d="M 302.578512 301.834711 
L 252.595041 301.834711 
" clip-path="url(#pf53c136c53)" style="fill: none; stroke: #000000; stroke-width: 0.4"/>
    <path d="M 252.595041 301.834711 
L 177.619835 276.917355 
" clip-path="url(#pf53c136c53)" style="fill: none; stroke: #000000; stroke-width: 0.4"/>
    <path d="M 177.619835 276.917355 
L 152.628099 301.834711 
" clip-path="url(#pf53c136c53)" style="fill: none; stroke: #000000; stroke-width: 0.4"/>
    <path d="M 177.619835 276.917355 
L 577.487603 252 
" clip-path="url(#pf53c136c53)" style="fill: none; stroke: #000000; stroke-width: 0.4"/>
    <path d="M 602.479339 276.917355 
L 627.471074 276.917355 
" clip-path="url(#pf53c136c53)" style="fill: none; stroke: #000000; stroke-width: 0.4"/>
    <path d="M 602.479339 276.917355 
L 577.487603 252 
" clip-path="url(#pf53c136c53)" style="fill: none; stroke: #000000; stroke-width: 0.4"/>
    <path d="M 577.487603 252 
L 127.636364 227.082645 
" clip-path="url(#pf53c136c53)" style="fill: none; stroke: #000000; stroke-width: 0.4"/>
    <path d="M 127.636364 227.082645 
L 102.644628 252 
" clip-path="url(#pf53c136c53)" style="fill: none; stroke: #000000; stroke-width: 0.4"/>
    <path d="M 127.636364 227.082645 
L 652.46281 202.165289 
" clip-path="url(#pf53c136c53)" style="fill: none; stroke: #000000; stroke-width: 0.4"/>
    <path d="M 652.46281 202.165289 
L 677.454545 227.082645 
" clip-path="url(#pf53c136c53)" style="fill: none; stroke: #000000; stroke-width: 0.4"/>
    <path d="M 652.46281 202.165289 
L 702.446281 177.247934 
" clip-path="url(#pf53c136c53)" style="fill: none; stroke: #000000; stroke-width: 0.4"/>
    <path d="M 702.446281 177.247934 
L 727.438017 202.165289 
" clip-path="url(#pf53c136c53)" style="fill: none; stroke: #000000; stroke-width: 0.4"/>
    <path d="M 702.446281 177.247934 
L 752.429752 152.330579 
" clip-path="url(#pf53c136c53)" style="fill: none; stroke: #000000; stroke-width: 0.4"/>
    <path d="M 752.429752 152.330579 
L 777.421488 177.247934 
" clip-path="url(#pf53c136c53)" style="fill: none; stroke: #000000; stroke-width: 0.4"/>
    <path d="M 752.429752 152.330579 
L 802.413223 127.413223 
" clip-path="url(#pf53c136c53)" style="fill: none; stroke: #000000; stroke-width: 0.4"/>
    <path d="M 802.413223 127.413223 
L 827.404959 152.330579 
" clip-path="url(#pf53c136c53)" style="fill: none; stroke: #000000; stroke-width: 0.4"/>
    <path d="M 802.413223 127.413223 
L 852.396694 102.495868 
" clip-path="url(#pf53c136c53)" style="fill: none; stroke: #000000; stroke-width: 0.4"/>
    <path d="M 852.396694 102.495868 
L 877.38843 127.413223 
" clip-path="url(#pf53c136c53)" style="fill: none; stroke: #000000; stroke-width: 0.4"/>
    <path d="M 852.396694 102.495868 
L 902.380165 77.578512 
" clip-path="url(#pf53c136c53)" style="fill: none; stroke: #000000; stroke-width: 0.4"/>
    <path d="M 902.380165 77.578512 
L 927.371901 102.495868 
" clip-path="url(#pf53c136c53)" style="fill: none; stroke: #000000; stroke-width: 0.4"/>
    <path d="M 902.380165 77.578512 
L 952.363636 52.661157 
" clip-path="url(#pf53c136c53)" style="fill: none; stroke: #000000; stroke-width: 0.4"/>
    <path d="M 952.363636 52.661157 
L 977.355372 77.578512 
" clip-path="url(#pf53c136c53)" style="fill: none; stroke: #000000; stroke-width: 0.4"/>
   </g>
   <g id="matplotlib.axis_1">
    <g id="xtick_1"/>
    <g id="xtick_2"/>
    <g id="xtick_3"/>
    <g id="xtick_4"/>
    <g id="xtick_5"/>
    <g id="xtick_6"/>
    <g id="xtick_7"/>
    <g id="xtick_8"/>
   </g>
   <g id="matplotlib.axis_2">
    <g id="ytick_1"/>
    <g id="ytick_2"/>
    <g id="ytick_3"/>
    <g id="ytick_4"/>
    <g id="ytick_5"/>
    <g id="ytick_6"/>
    <g id="ytick_7"/>
    <g id="ytick_8"/>
   </g>
   <g id="PathCollection_1">
    <path d="M 202.61157 330.2876 
C 203.549205 330.2876 204.448562 329.915074 205.11157 329.252066 
C 205.774578 328.589058 206.147104 327.689701 206.147104 326.752066 
C 206.147104 325.814432 205.774578 324.915074 205.11157 324.252066 
C 204.448562 323.589058 203.549205 323.216532 202.61157 323.216532 
C 201.673936 323.216532 200.774578 323.589058 200.11157 324.252066 
C 199.448562 324.915074 199.076036 325.814432 199.076036 326.752066 
C 199.076036 327.689701 199.448562 328.589058 200.11157 329.252066 
C 200.774578 329.915074 201.673936 330.2876 202.61157 330.2876 
z
" clip-path="url(#pf53c136c53)" style="fill: #808080; stroke: #000000; stroke-width: 0.4"/>
    <path d="M 227.603306 330.2876 
C 228.54094 330.2876 229.440298 329.915074 230.103306 329.252066 
C 230.766314 328.589058 231.13884 327.689701 231.13884 326.752066 
C 231.13884 325.814432 230.766314 324.915074 230.103306 324.252066 
C 229.440298 323.589058 228.54094 323.216532 227.603306 323.216532 
C 226.665671 323.216532 225.766314 323.589058 225.103306 324.252066 
C 224.440298 324.915074 224.067772 325.814432 224.067772 326.752066 
C 224.067772 327.689701 224.440298 328.589058 225.103306 329.252066 
C 225.766314 329.915074 226.665671 330.2876 227.603306 330.2876 
z
" clip-path="url(#pf53c136c53)" style="fill: #808080; stroke: #000000; stroke-width: 0.4"/>
    <path d="M 552.495868 431.421488 
C 553.821883 431.421488 555.093767 430.894656 556.031402 429.957022 
C 556.969036 429.019387 557.495868 427.747503 557.495868 426.421488 
C 557.495868 425.095472 556.969036 423.823588 556.031402 422.885954 
C 555.093767 421.948319 553.821883 421.421488 552.495868 421.421488 
C 551.169852 421.421488 549.897968 421.948319 548.960334 422.885954 
C 548.022699 423.823588 547.495868 425.095472 547.495868 426.421488 
C 547.495868 427.747503 548.022699 429.019387 548.960334 429.957022 
C 549.897968 430.894656 551.169852 431.421488 552.495868 431.421488 
z
" clip-path="url(#pf53c136c53)" style="stroke: #000000; stroke-width: 0.4"/>
    <path d="M 527.504132 454.874377 
C 528.441767 454.874377 529.341124 454.501851 530.004132 453.838843 
C 530.66714 453.175835 531.039666 452.276478 531.039666 451.338843 
C 531.039666 450.401208 530.66714 449.501851 530.004132 448.838843 
C 529.341124 448.175835 528.441767 447.803309 527.504132 447.803309 
C 526.566498 447.803309 525.66714 448.175835 525.004132 448.838843 
C 524.341124 449.501851 523.968598 450.401208 523.968598 451.338843 
C 523.968598 452.276478 524.341124 453.175835 525.004132 453.838843 
C 525.66714 454.501851 526.566498 454.874377 527.504132 454.874377 
z
" clip-path="url(#pf53c136c53)" style="fill: #808080; stroke: #000000; stroke-width: 0.4"/>
    <path d="M 502.512397 406.504132 
C 503.838412 406.504132 505.110296 405.977301 506.047931 405.039666 
C 506.985565 404.102032 507.512397 402.830148 507.512397 401.504132 
C 507.512397 400.178117 506.985565 398.906233 506.047931 397.968598 
C 505.110296 397.030964 503.838412 396.504132 502.512397 396.504132 
C 501.186381 396.504132 499.914497 397.030964 498.976863 397.968598 
C 498.039228 398.906233 497.512397 400.178117 497.512397 401.504132 
C 497.512397 402.830148 498.039228 404.102032 498.976863 405.039666 
C 499.914497 405.977301 501.186381 406.504132 502.512397 406.504132 
z
" clip-path="url(#pf53c136c53)" style="stroke: #000000; stroke-width: 0.4"/>
    <path d="M 477.520661 429.957022 
C 478.458296 429.957022 479.357653 429.584495 480.020661 428.921488 
C 480.683669 428.25848 481.056195 427.359122 481.056195 426.421488 
C 481.056195 425.483853 480.683669 424.584495 480.020661 423.921488 
C 479.357653 423.25848 478.458296 422.885954 477.520661 422.885954 
C 476.583027 422.885954 475.683669 423.25848 475.020661 423.921488 
C 474.357653 424.584495 473.985127 425.483853 473.985127 426.421488 
C 473.985127 427.359122 474.357653 428.25848 475.020661 428.921488 
C 475.683669 429.584495 476.583027 429.957022 477.520661 429.957022 
z
" clip-path="url(#pf53c136c53)" style="fill: #808080; stroke: #000000; stroke-width: 0.4"/>
    <path d="M 452.528926 381.586777 
C 453.854941 381.586777 455.126825 381.059945 456.06446 380.122311 
C 457.002094 379.184676 457.528926 377.912792 457.528926 376.586777 
C 457.528926 375.260761 457.002094 373.988878 456.06446 373.051243 
C 455.126825 372.113608 453.854941 371.586777 452.528926 371.586777 
C 451.20291 371.586777 449.931026 372.113608 448.993392 373.051243 
C 448.055757 373.988878 447.528926 375.260761 447.528926 376.586777 
C 447.528926 377.912792 448.055757 379.184676 448.993392 380.122311 
C 449.931026 381.059945 451.20291 381.586777 452.528926 381.586777 
z
" clip-path="url(#pf53c136c53)" style="stroke: #000000; stroke-width: 0.4"/>
    <path d="M 427.53719 405.039666 
C 428.474825 405.039666 429.374182 404.66714 430.03719 404.004132 
C 430.700198 403.341124 431.072724 402.441767 431.072724 401.504132 
C 431.072724 400.566498 430.700198 399.66714 430.03719 399.004132 
C 429.374182 398.341124 428.474825 397.968598 427.53719 397.968598 
C 426.599556 397.968598 425.700198 398.341124 425.03719 399.004132 
C 424.374182 399.66714 424.001656 400.566498 424.001656 401.504132 
C 424.001656 402.441767 424.374182 403.341124 425.03719 404.004132 
C 425.700198 404.66714 426.599556 405.039666 427.53719 405.039666 
z
" clip-path="url(#pf53c136c53)" style="fill: #808080; stroke: #000000; stroke-width: 0.4"/>
    <path d="M 402.545455 356.669421 
C 403.87147 356.669421 405.143354 356.14259 406.080988 355.204955 
C 407.018623 354.267321 407.545455 352.995437 407.545455 351.669421 
C 407.545455 350.343406 407.018623 349.071522 406.080988 348.133888 
C 405.143354 347.196253 403.87147 346.669421 402.545455 346.669421 
C 401.219439 346.669421 399.947555 347.196253 399.009921 348.133888 
C 398.072286 349.071522 397.545455 350.343406 397.545455 351.669421 
C 397.545455 352.995437 398.072286 354.267321 399.009921 355.204955 
C 399.947555 356.14259 401.219439 356.669421 402.545455 356.669421 
z
" clip-path="url(#pf53c136c53)" style="stroke: #000000; stroke-width: 0.4"/>
    <path d="M 377.553719 380.122311 
C 378.491354 380.122311 379.390711 379.749785 380.053719 379.086777 
C 380.716727 378.423769 381.089253 377.524411 381.089253 376.586777 
C 381.089253 375.649142 380.716727 374.749785 380.053719 374.086777 
C 379.390711 373.423769 378.491354 373.051243 377.553719 373.051243 
C 376.616084 373.051243 375.716727 373.423769 375.053719 374.086777 
C 374.390711 374.749785 374.018185 375.649142 374.018185 376.586777 
C 374.018185 377.524411 374.390711 378.423769 375.053719 379.086777 
C 375.716727 379.749785 376.616084 380.122311 377.553719 380.122311 
z
" clip-path="url(#pf53c136c53)" style="fill: #808080; stroke: #000000; stroke-width: 0.4"/>
    <path d="M 352.561983 331.752066 
C 353.887999 331.752066 355.159883 331.225235 356.097517 330.2876 
C 357.035152 329.349965 357.561983 328.078082 357.561983 326.752066 
C 357.561983 325.426051 357.035152 324.154167 356.097517 323.216532 
C 355.159883 322.278898 353.887999 321.752066 352.561983 321.752066 
C 351.235968 321.752066 349.964084 322.278898 349.02645 323.216532 
C 348.088815 324.154167 347.561983 325.426051 347.561983 326.752066 
C 347.561983 328.078082 348.088815 329.349965 349.02645 330.2876 
C 349.964084 331.225235 351.235968 331.752066 352.561983 331.752066 
z
" clip-path="url(#pf53c136c53)" style="stroke: #000000; stroke-width: 0.4"/>
    <path d="M 327.570248 355.204955 
C 328.507882 355.204955 329.40724 354.832429 330.070248 354.169421 
C 330.733256 353.506414 331.105782 352.607056 331.105782 351.669421 
C 331.105782 350.731787 330.733256 349.832429 330.070248 349.169421 
C 329.40724 348.506414 328.507882 348.133888 327.570248 348.133888 
C 326.632613 348.133888 325.733256 348.506414 325.070248 349.169421 
C 324.40724 349.832429 324.034714 350.731787 324.034714 351.669421 
C 324.034714 352.607056 324.40724 353.506414 325.070248 354.169421 
C 325.733256 354.832429 326.632613 355.204955 327.570248 355.204955 
z
" clip-path="url(#pf53c136c53)" style="fill: #808080; stroke: #000000; stroke-width: 0.4"/>
    <path d="M 302.578512 306.834711 
C 303.904528 306.834711 305.176412 306.307879 306.114046 305.370245 
C 307.051681 304.43261 307.578512 303.160726 307.578512 301.834711 
C 307.578512 300.508695 307.051681 299.236811 306.114046 298.299177 
C 305.176412 297.361542 303.904528 296.834711 302.578512 296.834711 
C 301.252497 296.834711 299.980613 297.361542 299.042978 298.299177 
C 298.105344 299.236811 297.578512 300.508695 297.578512 301.834711 
C 297.578512 303.160726 298.105344 304.43261 299.042978 305.370245 
C 299.980613 306.307879 301.252497 306.834711 302.578512 306.834711 
z
" clip-path="url(#pf53c136c53)" style="stroke: #000000; stroke-width: 0.4"/>
    <path d="M 277.586777 330.2876 
C 278.524411 330.2876 279.423769 329.915074 280.086777 329.252066 
C 280.749785 328.589058 281.122311 327.689701 281.122311 326.752066 
C 281.122311 325.814432 280.749785 324.915074 280.086777 324.252066 
C 279.423769 323.589058 278.524411 323.216532 277.586777 323.216532 
C 276.649142 323.216532 275.749785 323.589058 275.086777 324.252066 
C 274.423769 324.915074 274.051243 325.814432 274.051243 326.752066 
C 274.051243 327.689701 274.423769 328.589058 275.086777 329.252066 
C 275.749785 329.915074 276.649142 330.2876 277.586777 330.2876 
z
" clip-path="url(#pf53c136c53)" style="fill: #808080; stroke: #000000; stroke-width: 0.4"/>
    <path d="M 252.595041 306.834711 
C 253.921057 306.834711 255.192941 306.307879 256.130575 305.370245 
C 257.06821 304.43261 257.595041 303.160726 257.595041 301.834711 
C 257.595041 300.508695 257.06821 299.236811 256.130575 298.299177 
C 255.192941 297.361542 253.921057 296.834711 252.595041 296.834711 
C 251.269026 296.834711 249.997142 297.361542 249.059507 298.299177 
C 248.121873 299.236811 247.595041 300.508695 247.595041 301.834711 
C 247.595041 303.160726 248.121873 304.43261 249.059507 305.370245 
C 249.997142 306.307879 251.269026 306.834711 252.595041 306.834711 
z
" clip-path="url(#pf53c136c53)" style="stroke: #000000; stroke-width: 0.4"/>
    <path d="M 177.619835 281.917355 
C 178.94585 281.917355 180.217734 281.390524 181.155369 280.452889 
C 182.093003 279.515255 182.619835 278.243371 182.619835 276.917355 
C 182.619835 275.59134 182.093003 274.319456 181.155369 273.381821 
C 180.217734 272.444187 178.94585 271.917355 177.619835 271.917355 
C 176.293819 271.917355 175.021935 272.444187 174.084301 273.381821 
C 173.146666 274.319456 172.619835 275.59134 172.619835 276.917355 
C 172.619835 278.243371 173.146666 279.515255 174.084301 280.452889 
C 175.021935 281.390524 176.293819 281.917355 177.619835 281.917355 
z
" clip-path="url(#pf53c136c53)" style="stroke: #000000; stroke-width: 0.4"/>
    <path d="M 152.628099 305.370245 
C 153.565734 305.370245 154.465091 304.997718 155.128099 304.334711 
C 155.791107 303.671703 156.163633 302.772345 156.163633 301.834711 
C 156.163633 300.897076 155.791107 299.997718 155.128099 299.334711 
C 154.465091 298.671703 153.565734 298.299177 152.628099 298.299177 
C 151.690465 298.299177 150.791107 298.671703 150.128099 299.334711 
C 149.465091 299.997718 149.092565 300.897076 149.092565 301.834711 
C 149.092565 302.772345 149.465091 303.671703 150.128099 304.334711 
C 150.791107 304.997718 151.690465 305.370245 152.628099 305.370245 
z
" clip-path="url(#pf53c136c53)" style="fill: #808080; stroke: #000000; stroke-width: 0.4"/>
    <path d="M 602.479339 280.452889 
C 603.416973 280.452889 604.316331 280.080363 604.979339 279.417355 
C 605.642347 278.754348 606.014873 277.85499 606.014873 276.917355 
C 606.014873 275.979721 605.642347 275.080363 604.979339 274.417355 
C 604.316331 273.754348 603.416973 273.381821 602.479339 273.381821 
C 601.541704 273.381821 600.642347 273.754348 599.979339 274.417355 
C 599.316331 275.080363 598.943805 275.979721 598.943805 276.917355 
C 598.943805 277.85499 599.316331 278.754348 599.979339 279.417355 
C 600.642347 280.080363 601.541704 280.452889 602.479339 280.452889 
z
" clip-path="url(#pf53c136c53)" style="fill: #808080; stroke: #000000; stroke-width: 0.4"/>
    <path d="M 627.471074 280.452889 
C 628.408709 280.452889 629.308067 280.080363 629.971074 279.417355 
C 630.634082 278.754348 631.006608 277.85499 631.006608 276.917355 
C 631.006608 275.979721 630.634082 275.080363 629.971074 274.417355 
C 629.308067 273.754348 628.408709 273.381821 627.471074 273.381821 
C 626.53344 273.381821 625.634082 273.754348 624.971074 274.417355 
C 624.308067 275.080363 623.93554 275.979721 623.93554 276.917355 
C 623.93554 277.85499 624.308067 278.754348 624.971074 279.417355 
C 625.634082 280.080363 626.53344 280.452889 627.471074 280.452889 
z
" clip-path="url(#pf53c136c53)" style="fill: #808080; stroke: #000000; stroke-width: 0.4"/>
    <path d="M 577.487603 257 
C 578.813619 257 580.085503 256.473168 581.023137 255.535534 
C 581.960772 254.597899 582.487603 253.326015 582.487603 252 
C 582.487603 250.673984 581.960772 249.402101 581.023137 248.464466 
C 580.085503 247.526832 578.813619 247 577.487603 247 
C 576.161588 247 574.889704 247.526832 573.952069 248.464466 
C 573.014435 249.402101 572.487603 250.673984 572.487603 252 
C 572.487603 253.326015 573.014435 254.597899 573.952069 255.535534 
C 574.889704 256.473168 576.161588 257 577.487603 257 
z
" clip-path="url(#pf53c136c53)" style="fill: #008000; stroke: #000000; stroke-width: 0.4"/>
    <path d="M 127.636364 232.082645 
C 128.962379 232.082645 130.234263 231.555813 131.171898 230.618179 
C 132.109532 229.680544 132.636364 228.40866 132.636364 227.082645 
C 132.636364 225.756629 132.109532 224.484745 131.171898 223.547111 
C 130.234263 222.609476 128.962379 222.082645 127.636364 222.082645 
C 126.310348 222.082645 125.038464 222.609476 124.10083 223.547111 
C 123.163195 224.484745 122.636364 225.756629 122.636364 227.082645 
C 122.636364 228.40866 123.163195 229.680544 124.10083 230.618179 
C 125.038464 231.555813 126.310348 232.082645 127.636364 232.082645 
z
" clip-path="url(#pf53c136c53)" style="stroke: #000000; stroke-width: 0.4"/>
    <path d="M 102.644628 255.535534 
C 103.582263 255.535534 104.48162 255.163008 105.144628 254.5 
C 105.807636 253.836992 106.180162 252.937635 106.180162 252 
C 106.180162 251.062365 105.807636 250.163008 105.144628 249.5 
C 104.48162 248.836992 103.582263 248.464466 102.644628 248.464466 
C 101.706994 248.464466 100.807636 248.836992 100.144628 249.5 
C 99.48162 250.163008 99.109094 251.062365 99.109094 252 
C 99.109094 252.937635 99.48162 253.836992 100.144628 254.5 
C 100.807636 255.163008 101.706994 255.535534 102.644628 255.535534 
z
" clip-path="url(#pf53c136c53)" style="fill: #808080; stroke: #000000; stroke-width: 0.4"/>
    <path d="M 652.46281 207.165289 
C 653.788825 207.165289 655.060709 206.638458 655.998344 205.700823 
C 656.935978 204.763189 657.46281 203.491305 657.46281 202.165289 
C 657.46281 200.839274 656.935978 199.56739 655.998344 198.629755 
C 655.060709 197.692121 653.788825 197.165289 652.46281 197.165289 
C 651.136794 197.165289 649.864911 197.692121 648.927276 198.629755 
C 647.989641 199.56739 647.46281 200.839274 647.46281 202.165289 
C 647.46281 203.491305 647.989641 204.763189 648.927276 205.700823 
C 649.864911 206.638458 651.136794 207.165289 652.46281 207.165289 
z
" clip-path="url(#pf53c136c53)" style="stroke: #000000; stroke-width: 0.4"/>
    <path d="M 677.454545 230.618179 
C 678.39218 230.618179 679.291538 230.245652 679.954545 229.582645 
C 680.617553 228.919637 680.990079 228.020279 680.990079 227.082645 
C 680.990079 226.14501 680.617553 225.245652 679.954545 224.582645 
C 679.291538 223.919637 678.39218 223.547111 677.454545 223.547111 
C 676.516911 223.547111 675.617553 223.919637 674.954545 224.582645 
C 674.291538 225.245652 673.919012 226.14501 673.919012 227.082645 
C 673.919012 228.020279 674.291538 228.919637 674.954545 229.582645 
C 675.617553 230.245652 676.516911 230.618179 677.454545 230.618179 
z
" clip-path="url(#pf53c136c53)" style="fill: #808080; stroke: #000000; stroke-width: 0.4"/>
    <path d="M 702.446281 182.247934 
C 703.772296 182.247934 705.04418 181.721102 705.981815 180.783468 
C 706.919449 179.845833 707.446281 178.573949 707.446281 177.247934 
C 707.446281 175.921918 706.919449 174.650035 705.981815 173.7124 
C 705.04418 172.774765 703.772296 172.247934 702.446281 172.247934 
C 701.120265 172.247934 699.848382 172.774765 698.910747 173.7124 
C 697.973113 174.650035 697.446281 175.921918 697.446281 177.247934 
C 697.446281 178.573949 697.973113 179.845833 698.910747 180.783468 
C 699.848382 181.721102 701.120265 182.247934 702.446281 182.247934 
z
" clip-path="url(#pf53c136c53)" style="stroke: #000000; stroke-width: 0.4"/>
    <path d="M 727.438017 205.700823 
C 728.375651 205.700823 729.275009 205.328297 729.938017 204.665289 
C 730.601024 204.002282 730.97355 203.102924 730.97355 202.165289 
C 730.97355 201.227655 730.601024 200.328297 729.938017 199.665289 
C 729.275009 199.002282 728.375651 198.629755 727.438017 198.629755 
C 726.500382 198.629755 725.601024 199.002282 724.938017 199.665289 
C 724.275009 200.328297 723.902483 201.227655 723.902483 202.165289 
C 723.902483 203.102924 724.275009 204.002282 724.938017 204.665289 
C 725.601024 205.328297 726.500382 205.700823 727.438017 205.700823 
z
" clip-path="url(#pf53c136c53)" style="fill: #808080; stroke: #000000; stroke-width: 0.4"/>
    <path d="M 752.429752 157.330579 
C 753.755768 157.330579 755.027651 156.803747 755.965286 155.866112 
C 756.902921 154.928478 757.429752 153.656594 757.429752 152.330579 
C 757.429752 151.004563 756.902921 149.732679 755.965286 148.795045 
C 755.027651 147.85741 753.755768 147.330579 752.429752 147.330579 
C 751.103737 147.330579 749.831853 147.85741 748.894218 148.795045 
C 747.956584 149.732679 747.429752 151.004563 747.429752 152.330579 
C 747.429752 153.656594 747.956584 154.928478 748.894218 155.866112 
C 749.831853 156.803747 751.103737 157.330579 752.429752 157.330579 
z
" clip-path="url(#pf53c136c53)" style="stroke: #000000; stroke-width: 0.4"/>
    <path d="M 777.421488 180.783468 
C 778.359122 180.783468 779.25848 180.410942 779.921488 179.747934 
C 780.584495 179.084926 780.957022 178.185568 780.957022 177.247934 
C 780.957022 176.310299 780.584495 175.410942 779.921488 174.747934 
C 779.25848 174.084926 778.359122 173.7124 777.421488 173.7124 
C 776.483853 173.7124 775.584495 174.084926 774.921488 174.747934 
C 774.25848 175.410942 773.885954 176.310299 773.885954 177.247934 
C 773.885954 178.185568 774.25848 179.084926 774.921488 179.747934 
C 775.584495 180.410942 776.483853 180.783468 777.421488 180.783468 
z
" clip-path="url(#pf53c136c53)" style="fill: #808080; stroke: #000000; stroke-width: 0.4"/>
    <path d="M 802.413223 132.413223 
C 803.739239 132.413223 805.011122 131.886392 805.948757 130.948757 
C 806.886392 130.011122 807.413223 128.739239 807.413223 127.413223 
C 807.413223 126.087208 806.886392 124.815324 805.948757 123.877689 
C 805.011122 122.940055 803.739239 122.413223 802.413223 122.413223 
C 801.087208 122.413223 799.815324 122.940055 798.877689 123.877689 
C 797.940055 124.815324 797.413223 126.087208 797.413223 127.413223 
C 797.413223 128.739239 797.940055 130.011122 798.877689 130.948757 
C 799.815324 131.886392 801.087208 132.413223 802.413223 132.413223 
z
" clip-path="url(#pf53c136c53)" style="stroke: #000000; stroke-width: 0.4"/>
    <path d="M 827.404959 155.866112 
C 828.342593 155.866112 829.241951 155.493586 829.904959 154.830579 
C 830.567966 154.167571 830.940493 153.268213 830.940493 152.330579 
C 830.940493 151.392944 830.567966 150.493586 829.904959 149.830579 
C 829.241951 149.167571 828.342593 148.795045 827.404959 148.795045 
C 826.467324 148.795045 825.567966 149.167571 824.904959 149.830579 
C 824.241951 150.493586 823.869425 151.392944 823.869425 152.330579 
C 823.869425 153.268213 824.241951 154.167571 824.904959 154.830579 
C 825.567966 155.493586 826.467324 155.866112 827.404959 155.866112 
z
" clip-path="url(#pf53c136c53)" style="fill: #808080; stroke: #000000; stroke-width: 0.4"/>
    <path d="M 852.396694 107.495868 
C 853.72271 107.495868 854.994594 106.969036 855.932228 106.031402 
C 856.869863 105.093767 857.396694 103.821883 857.396694 102.495868 
C 857.396694 101.169852 856.869863 99.897968 855.932228 98.960334 
C 854.994594 98.022699 853.72271 97.495868 852.396694 97.495868 
C 851.070679 97.495868 849.798795 98.022699 848.86116 98.960334 
C 847.923526 99.897968 847.396694 101.169852 847.396694 102.495868 
C 847.396694 103.821883 847.923526 105.093767 848.86116 106.031402 
C 849.798795 106.969036 851.070679 107.495868 852.396694 107.495868 
z
" clip-path="url(#pf53c136c53)" style="stroke: #000000; stroke-width: 0.4"/>
    <path d="M 877.38843 130.948757 
C 878.326064 130.948757 879.225422 130.576231 879.88843 129.913223 
C 880.551438 129.250215 880.923964 128.350858 880.923964 127.413223 
C 880.923964 126.475589 880.551438 125.576231 879.88843 124.913223 
C 879.225422 124.250215 878.326064 123.877689 877.38843 123.877689 
C 876.450795 123.877689 875.551438 124.250215 874.88843 124.913223 
C 874.225422 125.576231 873.852896 126.475589 873.852896 127.413223 
C 873.852896 128.350858 874.225422 129.250215 874.88843 129.913223 
C 875.551438 130.576231 876.450795 130.948757 877.38843 130.948757 
z
" clip-path="url(#pf53c136c53)" style="fill: #808080; stroke: #000000; stroke-width: 0.4"/>
    <path d="M 902.380165 82.578512 
C 903.706181 82.578512 904.978065 82.051681 905.915699 81.114046 
C 906.853334 80.176412 907.380165 78.904528 907.380165 77.578512 
C 907.380165 76.252497 906.853334 74.980613 905.915699 74.042978 
C 904.978065 73.105344 903.706181 72.578512 902.380165 72.578512 
C 901.05415 72.578512 899.782266 73.105344 898.844631 74.042978 
C 897.906997 74.980613 897.380165 76.252497 897.380165 77.578512 
C 897.380165 78.904528 897.906997 80.176412 898.844631 81.114046 
C 899.782266 82.051681 901.05415 82.578512 902.380165 82.578512 
z
" clip-path="url(#pf53c136c53)" style="stroke: #000000; stroke-width: 0.4"/>
    <path d="M 927.371901 106.031402 
C 928.309535 106.031402 929.208893 105.658876 929.871901 104.995868 
C 930.534909 104.33286 930.907435 103.433502 930.907435 102.495868 
C 930.907435 101.558233 930.534909 100.658876 929.871901 99.995868 
C 929.208893 99.33286 928.309535 98.960334 927.371901 98.960334 
C 926.434266 98.960334 925.534909 99.33286 924.871901 99.995868 
C 924.208893 100.658876 923.836367 101.558233 923.836367 102.495868 
C 923.836367 103.433502 924.208893 104.33286 924.871901 104.995868 
C 925.534909 105.658876 926.434266 106.031402 927.371901 106.031402 
z
" clip-path="url(#pf53c136c53)" style="fill: #808080; stroke: #000000; stroke-width: 0.4"/>
    <path d="M 952.363636 57.661157 
C 953.689652 57.661157 954.961536 57.134325 955.89917 56.196691 
C 956.836805 55.259056 957.363636 53.987173 957.363636 52.661157 
C 957.363636 51.335142 956.836805 50.063258 955.89917 49.125623 
C 954.961536 48.187989 953.689652 47.661157 952.363636 47.661157 
C 951.037621 47.661157 949.765737 48.187989 948.828102 49.125623 
C 947.890468 50.063258 947.363636 51.335142 947.363636 52.661157 
C 947.363636 53.987173 947.890468 55.259056 948.828102 56.196691 
C 949.765737 57.134325 951.037621 57.661157 952.363636 57.661157 
z
" clip-path="url(#pf53c136c53)" style="stroke: #000000; stroke-width: 0.4"/>
    <path d="M 977.355372 81.114046 
C 978.293006 81.114046 979.192364 80.74152 979.855372 80.078512 
C 980.51838 79.415505 980.890906 78.516147 980.890906 77.578512 
C 980.890906 76.640878 980.51838 75.74152 979.855372 75.078512 
C 979.192364 74.415505 978.293006 74.042978 977.355372 74.042978 
C 976.417737 74.042978 975.51838 74.415505 974.855372 75.078512 
C 974.192364 75.74152 973.819838 76.640878 973.819838 77.578512 
C 973.819838 78.516147 974.192364 79.415505 974.855372 80.078512 
C 975.51838 80.74152 976.417737 81.114046 977.355372 81.114046 
z
" clip-path="url(#pf53c136c53)" style="fill: #808080; stroke: #000000; stroke-width: 0.4"/>
   </g>
   <g id="line2d_1">
    <path d="M 589.983471 493.2 
L 589.983471 10.8 
" clip-path="url(#pf53c136c53)" style="fill: none; stroke: #ff0000; stroke-width: 1.5; stroke-linecap: square"/>
   </g>
   <g id="patch_3">
    <path d="M 10.8 493.2 
L 10.8 10.8 
" style="fill: none; stroke: #000000; stroke-width: 0.8; stroke-linejoin: miter; stroke-linecap: square"/>
   </g>
   <g id="patch_4">
    <path d="M 1069.2 493.2 
L 1069.2 10.8 
" style="fill: none; stroke: #000000; stroke-width: 0.8; stroke-linejoin: miter; stroke-linecap: square"/>
   </g>
   <g id="patch_5">
    <path d="M 10.8 493.2 
L 1069.2 493.2 
" style="fill: none; stroke: #000000; stroke-width: 0.8; stroke-linejoin: miter; stroke-linecap: square"/>
   </g>
   <g id="patch_6">
    <path d="M 10.8 10.8 
L 1069.2 10.8 
" style="fill: none; stroke: #000000; stroke-width: 0.8; stroke-linejoin: miter; stroke-linecap: square"/>
   </g>
   <g id="text_1">
    <!-- LE -->
    <g transform="translate(557.487603 272)scale(0.12 -0.12)">
     <defs>
      <path id="DejaVuSans-4c" d="M 628 4666 
L 1259 4666 
L 1259 531 
L 3531 531 
L 3531 0 
L 628 0 
L 628 4666 
z
" transform="scale(0.015625)"/>
      <path id="DejaVuSans-45" d="M 628 4666 
L 3578 4666 
L 3578 4134 
L 1259 4134 
L 1259 2753 
L 3481 2753 
L 3481 2222 
L 1259 2222 
L 1259 531 
L 3634 531 
L 3634 0 
L 628 0 
L 628 4666 
z
" transform="scale(0.015625)"/>
     </defs>
     <use xlink:href="#DejaVuSans-4c"/>
     <use xlink:href="#DejaVuSans-45" x="55.712891"/>
    </g>
   </g>
  </g>
 </g>
 <defs>
  <clipPath id="pf53c136c53">
   <rect x="10.8" y="10.8" width="1058.4" height="482.4"/>
  </clipPath>
 </defs>
</svg>
