<?xml version="1.0" encoding="utf-8" standalone="no"?>
<!DOCTYPE svg PUBLIC "-//W3C//DTD SVG 1.1//EN"
  "http://www.w3.org/Graphics/SVG/1.1/DTD/svg11.dtd">
<svg xmlns:xlink="http://www.w3.org/1999/xlink" width="1080pt" height="504pt" viewBox="0 0 1080 504" xmlns="http://www.w3.org/2000/svg" version="1.1">
 <metadata>
  <rdf:RDF xmlns:dc="http://purl.org/dc/elements/1.1/" xmlns:cc="http://creativecommons.org/ns#" xmlns:rdf="http://www.w3.org/1999/02/22-rdf-syntax-ns#">
   <cc:Work>
    <dc:type rdf:resource="http://purl.org/dc/dcmitype/StillImage"/>
    <dc:date>2022-04-20T08:03:14.650656</dc:date>
    <dc:format>image/svg+xml</dc:format>
    <dc:creator>
     <cc:Agent>
      <dc:title>Matplotlib v3.5.1, https://matplotlib.org/</dc:title>
     </cc:Agent>
    </dc:creator>
   </cc:Work>
  </rdf:RDF>
 </metadata>
 <defs>
  <style type="text/css">*{stroke-linejoin: round; stroke-linecap: butt}</style>
 </defs>
 <g id="figure_1">
  <g id="patch_1">
   <path d="M 0 504 
L 1080 504 
L 1080 0 
L 0 0 
z
" style="fill: #ffffff"/>
  </g>
  <g id="axes_1">
   <g id="patch_2">
    <path d="M 10.8 493.2 
L 1069.2 493.2 
L 1069.2 10.8 
L 10.8 10.8 
z
" style="fill: #ffffff"/>
   </g>
   <g id="LineCollection_1">
    <path d="M 415.041322 451.338843 
L 435.867769 451.338843 
" clip-path="url(#p83b5703a68)" style="fill: none; stroke: #000000; stroke-width: 0.4"/>
    <path d="M 415.041322 451.338843 
L 394.214876 451.338843 
" clip-path="url(#p83b5703a68)" style="fill: none; stroke: #000000; stroke-width: 0.4"/>
    <path d="M 394.214876 451.338843 
L 456.694215 426.421488 
" clip-path="url(#p83b5703a68)" style="fill: none; stroke: #000000; stroke-width: 0.4"/>
    <path d="M 456.694215 426.421488 
L 477.520661 426.421488 
" clip-path="url(#p83b5703a68)" style="fill: none; stroke: #000000; stroke-width: 0.4"/>
    <path d="M 456.694215 426.421488 
L 498.347107 401.504132 
" clip-path="url(#p83b5703a68)" style="fill: none; stroke: #000000; stroke-width: 0.4"/>
    <path d="M 519.173554 426.421488 
L 540 426.421488 
" clip-path="url(#p83b5703a68)" style="fill: none; stroke: #000000; stroke-width: 0.4"/>
    <path d="M 519.173554 426.421488 
L 498.347107 401.504132 
" clip-path="url(#p83b5703a68)" style="fill: none; stroke: #000000; stroke-width: 0.4"/>
    <path d="M 498.347107 401.504132 
L 373.38843 401.504132 
" clip-path="url(#p83b5703a68)" style="fill: none; stroke: #000000; stroke-width: 0.4"/>
    <path d="M 373.38843 401.504132 
L 352.561983 426.421488 
" clip-path="url(#p83b5703a68)" style="fill: none; stroke: #000000; stroke-width: 0.4"/>
    <path d="M 373.38843 401.504132 
L 560.826446 376.586777 
" clip-path="url(#p83b5703a68)" style="fill: none; stroke: #000000; stroke-width: 0.4"/>
    <path d="M 560.826446 376.586777 
L 581.652893 376.586777 
" clip-path="url(#p83b5703a68)" style="fill: none; stroke: #000000; stroke-width: 0.4"/>
    <path d="M 560.826446 376.586777 
L 602.479339 351.669421 
" clip-path="url(#p83b5703a68)" style="fill: none; stroke: #000000; stroke-width: 0.4"/>
    <path d="M 602.479339 351.669421 
L 623.305785 351.669421 
" clip-path="url(#p83b5703a68)" style="fill: none; stroke: #000000; stroke-width: 0.4"/>
    <path d="M 602.479339 351.669421 
L 644.132231 326.752066 
" clip-path="url(#p83b5703a68)" style="fill: none; stroke: #000000; stroke-width: 0.4"/>
    <path d="M 644.132231 326.752066 
L 664.958678 326.752066 
" clip-path="url(#p83b5703a68)" style="fill: none; stroke: #000000; stroke-width: 0.4"/>
    <path d="M 644.132231 326.752066 
L 685.785124 301.834711 
" clip-path="url(#p83b5703a68)" style="fill: none; stroke: #000000; stroke-width: 0.4"/>
    <path d="M 685.785124 301.834711 
L 706.61157 301.834711 
" clip-path="url(#p83b5703a68)" style="fill: none; stroke: #000000; stroke-width: 0.4"/>
    <path d="M 685.785124 301.834711 
L 727.438017 276.917355 
" clip-path="url(#p83b5703a68)" style="fill: none; stroke: #000000; stroke-width: 0.4"/>
    <path d="M 727.438017 276.917355 
L 748.264463 276.917355 
" clip-path="url(#p83b5703a68)" style="fill: none; stroke: #000000; stroke-width: 0.4"/>
    <path d="M 727.438017 276.917355 
L 769.090909 252 
" clip-path="url(#p83b5703a68)" style="fill: none; stroke: #000000; stroke-width: 0.4"/>
    <path d="M 769.090909 252 
L 789.917355 252 
" clip-path="url(#p83b5703a68)" style="fill: none; stroke: #000000; stroke-width: 0.4"/>
    <path d="M 769.090909 252 
L 331.735537 227.082645 
" clip-path="url(#p83b5703a68)" style="fill: none; stroke: #000000; stroke-width: 0.4"/>
    <path d="M 331.735537 227.082645 
L 310.909091 252 
" clip-path="url(#p83b5703a68)" style="fill: none; stroke: #000000; stroke-width: 0.4"/>
    <path d="M 331.735537 227.082645 
L 290.082645 227.082645 
" clip-path="url(#p83b5703a68)" style="fill: none; stroke: #000000; stroke-width: 0.4"/>
    <path d="M 290.082645 227.082645 
L 269.256198 252 
" clip-path="url(#p83b5703a68)" style="fill: none; stroke: #000000; stroke-width: 0.4"/>
    <path d="M 290.082645 227.082645 
L 248.429752 202.165289 
" clip-path="url(#p83b5703a68)" style="fill: none; stroke: #000000; stroke-width: 0.4"/>
    <path d="M 248.429752 202.165289 
L 227.603306 227.082645 
" clip-path="url(#p83b5703a68)" style="fill: none; stroke: #000000; stroke-width: 0.4"/>
    <path d="M 248.429752 202.165289 
L 206.77686 202.165289 
" clip-path="url(#p83b5703a68)" style="fill: none; stroke: #000000; stroke-width: 0.4"/>
    <path d="M 206.77686 202.165289 
L 185.950413 227.082645 
" clip-path="url(#p83b5703a68)" style="fill: none; stroke: #000000; stroke-width: 0.4"/>
    <path d="M 206.77686 202.165289 
L 810.743802 177.247934 
" clip-path="url(#p83b5703a68)" style="fill: none; stroke: #000000; stroke-width: 0.4"/>
    <path d="M 810.743802 177.247934 
L 831.570248 177.247934 
" clip-path="url(#p83b5703a68)" style="fill: none; stroke: #000000; stroke-width: 0.4"/>
    <path d="M 810.743802 177.247934 
L 852.396694 152.330579 
" clip-path="url(#p83b5703a68)" style="fill: none; stroke: #000000; stroke-width: 0.4"/>
    <path d="M 852.396694 152.330579 
L 873.22314 152.330579 
" clip-path="url(#p83b5703a68)" style="fill: none; stroke: #000000; stroke-width: 0.4"/>
    <path d="M 852.396694 152.330579 
L 165.123967 127.413223 
" clip-path="url(#p83b5703a68)" style="fill: none; stroke: #000000; stroke-width: 0.4"/>
    <path d="M 165.123967 127.413223 
L 144.297521 152.330579 
" clip-path="url(#p83b5703a68)" style="fill: none; stroke: #000000; stroke-width: 0.4"/>
    <path d="M 165.123967 127.413223 
L 894.049587 102.495868 
" clip-path="url(#p83b5703a68)" style="fill: none; stroke: #000000; stroke-width: 0.4"/>
    <path d="M 914.876033 127.413223 
L 935.702479 127.413223 
" clip-path="url(#p83b5703a68)" style="fill: none; stroke: #000000; stroke-width: 0.4"/>
    <path d="M 914.876033 127.413223 
L 894.049587 102.495868 
" clip-path="url(#p83b5703a68)" style="fill: none; stroke: #000000; stroke-width: 0.4"/>
    <path d="M 894.049587 102.495868 
L 956.528926 77.578512 
" clip-path="url(#p83b5703a68)" style="fill: none; stroke: #000000; stroke-width: 0.4"/>
    <path d="M 956.528926 77.578512 
L 977.355372 102.495868 
" clip-path="url(#p83b5703a68)" style="fill: none; stroke: #000000; stroke-width: 0.4"/>
    <path d="M 956.528926 77.578512 
L 123.471074 52.661157 
" clip-path="url(#p83b5703a68)" style="fill: none; stroke: #000000; stroke-width: 0.4"/>
    <path d="M 123.471074 52.661157 
L 102.644628 77.578512 
" clip-path="url(#p83b5703a68)" style="fill: none; stroke: #000000; stroke-width: 0.4"/>
   </g>
   <g id="matplotlib.axis_1">
    <g id="xtick_1"/>
    <g id="xtick_2"/>
    <g id="xtick_3"/>
    <g id="xtick_4"/>
    <g id="xtick_5"/>
   </g>
   <g id="matplotlib.axis_2">
    <g id="ytick_1"/>
    <g id="ytick_2"/>
    <g id="ytick_3"/>
    <g id="ytick_4"/>
    <g id="ytick_5"/>
    <g id="ytick_6"/>
    <g id="ytick_7"/>
    <g id="ytick_8"/>
   </g>
   <g id="PathCollection_1">
    <path d="M 415.041322 456.338843 
C 416.367338 456.338843 417.639222 455.812011 418.576856 454.874377 
C 419.514491 453.936742 420.041322 452.664858 420.041322 451.338843 
C 420.041322 450.012827 419.514491 448.740944 418.576856 447.803309 
C 417.639222 446.865675 416.367338 446.338843 415.041322 446.338843 
C 413.715307 446.338843 412.443423 446.865675 411.505788 447.803309 
C 410.568154 448.740944 410.041322 450.012827 410.041322 451.338843 
C 410.041322 452.664858 410.568154 453.936742 411.505788 454.874377 
C 412.443423 455.812011 413.715307 456.338843 415.041322 456.338843 
z
" clip-path="url(#p83b5703a68)" style="fill: #ff0000; stroke: #000000; stroke-width: 0.4"/>
    <path d="M 435.867769 456.338843 
C 437.193784 456.338843 438.465668 455.812011 439.403303 454.874377 
C 440.340937 453.936742 440.867769 452.664858 440.867769 451.338843 
C 440.867769 450.012827 440.340937 448.740944 439.403303 447.803309 
C 438.465668 446.865675 437.193784 446.338843 435.867769 446.338843 
C 434.541753 446.338843 433.269869 446.865675 432.332235 447.803309 
C 431.3946 448.740944 430.867769 450.012827 430.867769 451.338843 
C 430.867769 452.664858 431.3946 453.936742 432.332235 454.874377 
C 433.269869 455.812011 434.541753 456.338843 435.867769 456.338843 
z
" clip-path="url(#p83b5703a68)" style="stroke: #000000; stroke-width: 0.4"/>
    <path d="M 394.214876 456.338843 
C 395.540892 456.338843 396.812775 455.812011 397.75041 454.874377 
C 398.688044 453.936742 399.214876 452.664858 399.214876 451.338843 
C 399.214876 450.012827 398.688044 448.740944 397.75041 447.803309 
C 396.812775 446.865675 395.540892 446.338843 394.214876 446.338843 
C 392.888861 446.338843 391.616977 446.865675 390.679342 447.803309 
C 389.741708 448.740944 389.214876 450.012827 389.214876 451.338843 
C 389.214876 452.664858 389.741708 453.936742 390.679342 454.874377 
C 391.616977 455.812011 392.888861 456.338843 394.214876 456.338843 
z
" clip-path="url(#p83b5703a68)" style="stroke: #000000; stroke-width: 0.4"/>
    <path d="M 456.694215 431.421488 
C 458.02023 431.421488 459.292114 430.894656 460.229749 429.957022 
C 461.167383 429.019387 461.694215 427.747503 461.694215 426.421488 
C 461.694215 425.095472 461.167383 423.823588 460.229749 422.885954 
C 459.292114 421.948319 458.02023 421.421488 456.694215 421.421488 
C 455.368199 421.421488 454.096316 421.948319 453.158681 422.885954 
C 452.221046 423.823588 451.694215 425.095472 451.694215 426.421488 
C 451.694215 427.747503 452.221046 429.019387 453.158681 429.957022 
C 454.096316 430.894656 455.368199 431.421488 456.694215 431.421488 
z
" clip-path="url(#p83b5703a68)" style="stroke: #000000; stroke-width: 0.4"/>
    <path d="M 477.520661 429.957022 
C 478.458296 429.957022 479.357653 429.584495 480.020661 428.921488 
C 480.683669 428.25848 481.056195 427.359122 481.056195 426.421488 
C 481.056195 425.483853 480.683669 424.584495 480.020661 423.921488 
C 479.357653 423.25848 478.458296 422.885954 477.520661 422.885954 
C 476.583027 422.885954 475.683669 423.25848 475.020661 423.921488 
C 474.357653 424.584495 473.985127 425.483853 473.985127 426.421488 
C 473.985127 427.359122 474.357653 428.25848 475.020661 428.921488 
C 475.683669 429.584495 476.583027 429.957022 477.520661 429.957022 
z
" clip-path="url(#p83b5703a68)" style="fill: #808080; stroke: #000000; stroke-width: 0.4"/>
    <path d="M 519.173554 429.957022 
C 520.111188 429.957022 521.010546 429.584495 521.673554 428.921488 
C 522.336561 428.25848 522.709088 427.359122 522.709088 426.421488 
C 522.709088 425.483853 522.336561 424.584495 521.673554 423.921488 
C 521.010546 423.25848 520.111188 422.885954 519.173554 422.885954 
C 518.235919 422.885954 517.336561 423.25848 516.673554 423.921488 
C 516.010546 424.584495 515.63802 425.483853 515.63802 426.421488 
C 515.63802 427.359122 516.010546 428.25848 516.673554 428.921488 
C 517.336561 429.584495 518.235919 429.957022 519.173554 429.957022 
z
" clip-path="url(#p83b5703a68)" style="fill: #808080; stroke: #000000; stroke-width: 0.4"/>
    <path d="M 540 429.957022 
C 540.937635 429.957022 541.836992 429.584495 542.5 428.921488 
C 543.163008 428.25848 543.535534 427.359122 543.535534 426.421488 
C 543.535534 425.483853 543.163008 424.584495 542.5 423.921488 
C 541.836992 423.25848 540.937635 422.885954 540 422.885954 
C 539.062365 422.885954 538.163008 423.25848 537.5 423.921488 
C 536.836992 424.584495 536.464466 425.483853 536.464466 426.421488 
C 536.464466 427.359122 536.836992 428.25848 537.5 428.921488 
C 538.163008 429.584495 539.062365 429.957022 540 429.957022 
z
" clip-path="url(#p83b5703a68)" style="fill: #808080; stroke: #000000; stroke-width: 0.4"/>
    <path d="M 498.347107 406.504132 
C 499.673123 406.504132 500.945007 405.977301 501.882641 405.039666 
C 502.820276 404.102032 503.347107 402.830148 503.347107 401.504132 
C 503.347107 400.178117 502.820276 398.906233 501.882641 397.968598 
C 500.945007 397.030964 499.673123 396.504132 498.347107 396.504132 
C 497.021092 396.504132 495.749208 397.030964 494.811574 397.968598 
C 493.873939 398.906233 493.347107 400.178117 493.347107 401.504132 
C 493.347107 402.830148 493.873939 404.102032 494.811574 405.039666 
C 495.749208 405.977301 497.021092 406.504132 498.347107 406.504132 
z
" clip-path="url(#p83b5703a68)" style="stroke: #000000; stroke-width: 0.4"/>
    <path d="M 373.38843 406.504132 
C 374.714445 406.504132 375.986329 405.977301 376.923964 405.039666 
C 377.861598 404.102032 378.38843 402.830148 378.38843 401.504132 
C 378.38843 400.178117 377.861598 398.906233 376.923964 397.968598 
C 375.986329 397.030964 374.714445 396.504132 373.38843 396.504132 
C 372.062414 396.504132 370.79053 397.030964 369.852896 397.968598 
C 368.915261 398.906233 368.38843 400.178117 368.38843 401.504132 
C 368.38843 402.830148 368.915261 404.102032 369.852896 405.039666 
C 370.79053 405.977301 372.062414 406.504132 373.38843 406.504132 
z
" clip-path="url(#p83b5703a68)" style="stroke: #000000; stroke-width: 0.4"/>
    <path d="M 352.561983 429.957022 
C 353.499618 429.957022 354.398976 429.584495 355.061983 428.921488 
C 355.724991 428.25848 356.097517 427.359122 356.097517 426.421488 
C 356.097517 425.483853 355.724991 424.584495 355.061983 423.921488 
C 354.398976 423.25848 353.499618 422.885954 352.561983 422.885954 
C 351.624349 422.885954 350.724991 423.25848 350.061983 423.921488 
C 349.398976 424.584495 349.02645 425.483853 349.02645 426.421488 
C 349.02645 427.359122 349.398976 428.25848 350.061983 428.921488 
C 350.724991 429.584495 351.624349 429.957022 352.561983 429.957022 
z
" clip-path="url(#p83b5703a68)" style="fill: #808080; stroke: #000000; stroke-width: 0.4"/>
    <path d="M 560.826446 381.586777 
C 562.152462 381.586777 563.424346 381.059945 564.36198 380.122311 
C 565.299615 379.184676 565.826446 377.912792 565.826446 376.586777 
C 565.826446 375.260761 565.299615 373.988878 564.36198 373.051243 
C 563.424346 372.113608 562.152462 371.586777 560.826446 371.586777 
C 559.500431 371.586777 558.228547 372.113608 557.290912 373.051243 
C 556.353278 373.988878 555.826446 375.260761 555.826446 376.586777 
C 555.826446 377.912792 556.353278 379.184676 557.290912 380.122311 
C 558.228547 381.059945 559.500431 381.586777 560.826446 381.586777 
z
" clip-path="url(#p83b5703a68)" style="stroke: #000000; stroke-width: 0.4"/>
    <path d="M 581.652893 380.122311 
C 582.590527 380.122311 583.489885 379.749785 584.152893 379.086777 
C 584.8159 378.423769 585.188426 377.524411 585.188426 376.586777 
C 585.188426 375.649142 584.8159 374.749785 584.152893 374.086777 
C 583.489885 373.423769 582.590527 373.051243 581.652893 373.051243 
C 580.715258 373.051243 579.8159 373.423769 579.152893 374.086777 
C 578.489885 374.749785 578.117359 375.649142 578.117359 376.586777 
C 578.117359 377.524411 578.489885 378.423769 579.152893 379.086777 
C 579.8159 379.749785 580.715258 380.122311 581.652893 380.122311 
z
" clip-path="url(#p83b5703a68)" style="fill: #808080; stroke: #000000; stroke-width: 0.4"/>
    <path d="M 602.479339 356.669421 
C 603.805354 356.669421 605.077238 356.14259 606.014873 355.204955 
C 606.952507 354.267321 607.479339 352.995437 607.479339 351.669421 
C 607.479339 350.343406 606.952507 349.071522 606.014873 348.133888 
C 605.077238 347.196253 603.805354 346.669421 602.479339 346.669421 
C 601.153323 346.669421 599.881439 347.196253 598.943805 348.133888 
C 598.00617 349.071522 597.479339 350.343406 597.479339 351.669421 
C 597.479339 352.995437 598.00617 354.267321 598.943805 355.204955 
C 599.881439 356.14259 601.153323 356.669421 602.479339 356.669421 
z
" clip-path="url(#p83b5703a68)" style="stroke: #000000; stroke-width: 0.4"/>
    <path d="M 623.305785 355.204955 
C 624.24342 355.204955 625.142777 354.832429 625.805785 354.169421 
C 626.468793 353.506414 626.841319 352.607056 626.841319 351.669421 
C 626.841319 350.731787 626.468793 349.832429 625.805785 349.169421 
C 625.142777 348.506414 624.24342 348.133888 623.305785 348.133888 
C 622.368151 348.133888 621.468793 348.506414 620.805785 349.169421 
C 620.142777 349.832429 619.770251 350.731787 619.770251 351.669421 
C 619.770251 352.607056 620.142777 353.506414 620.805785 354.169421 
C 621.468793 354.832429 622.368151 355.204955 623.305785 355.204955 
z
" clip-path="url(#p83b5703a68)" style="fill: #808080; stroke: #000000; stroke-width: 0.4"/>
    <path d="M 644.132231 331.752066 
C 645.458247 331.752066 646.730131 331.225235 647.667765 330.2876 
C 648.6054 329.349965 649.132231 328.078082 649.132231 326.752066 
C 649.132231 325.426051 648.6054 324.154167 647.667765 323.216532 
C 646.730131 322.278898 645.458247 321.752066 644.132231 321.752066 
C 642.806216 321.752066 641.534332 322.278898 640.596697 323.216532 
C 639.659063 324.154167 639.132231 325.426051 639.132231 326.752066 
C 639.132231 328.078082 639.659063 329.349965 640.596697 330.2876 
C 641.534332 331.225235 642.806216 331.752066 644.132231 331.752066 
z
" clip-path="url(#p83b5703a68)" style="stroke: #000000; stroke-width: 0.4"/>
    <path d="M 664.958678 330.2876 
C 665.896312 330.2876 666.79567 329.915074 667.458678 329.252066 
C 668.121685 328.589058 668.494212 327.689701 668.494212 326.752066 
C 668.494212 325.814432 668.121685 324.915074 667.458678 324.252066 
C 666.79567 323.589058 665.896312 323.216532 664.958678 323.216532 
C 664.021043 323.216532 663.121685 323.589058 662.458678 324.252066 
C 661.79567 324.915074 661.423144 325.814432 661.423144 326.752066 
C 661.423144 327.689701 661.79567 328.589058 662.458678 329.252066 
C 663.121685 329.915074 664.021043 330.2876 664.958678 330.2876 
z
" clip-path="url(#p83b5703a68)" style="fill: #808080; stroke: #000000; stroke-width: 0.4"/>
    <path d="M 685.785124 306.834711 
C 687.111139 306.834711 688.383023 306.307879 689.320658 305.370245 
C 690.258292 304.43261 690.785124 303.160726 690.785124 301.834711 
C 690.785124 300.508695 690.258292 299.236811 689.320658 298.299177 
C 688.383023 297.361542 687.111139 296.834711 685.785124 296.834711 
C 684.459108 296.834711 683.187225 297.361542 682.24959 298.299177 
C 681.311956 299.236811 680.785124 300.508695 680.785124 301.834711 
C 680.785124 303.160726 681.311956 304.43261 682.24959 305.370245 
C 683.187225 306.307879 684.459108 306.834711 685.785124 306.834711 
z
" clip-path="url(#p83b5703a68)" style="stroke: #000000; stroke-width: 0.4"/>
    <path d="M 706.61157 305.370245 
C 707.549205 305.370245 708.448562 304.997718 709.11157 304.334711 
C 709.774578 303.671703 710.147104 302.772345 710.147104 301.834711 
C 710.147104 300.897076 709.774578 299.997718 709.11157 299.334711 
C 708.448562 298.671703 707.549205 298.299177 706.61157 298.299177 
C 705.673936 298.299177 704.774578 298.671703 704.11157 299.334711 
C 703.448562 299.997718 703.076036 300.897076 703.076036 301.834711 
C 703.076036 302.772345 703.448562 303.671703 704.11157 304.334711 
C 704.774578 304.997718 705.673936 305.370245 706.61157 305.370245 
z
" clip-path="url(#p83b5703a68)" style="fill: #808080; stroke: #000000; stroke-width: 0.4"/>
    <path d="M 727.438017 281.917355 
C 728.764032 281.917355 730.035916 281.390524 730.97355 280.452889 
C 731.911185 279.515255 732.438017 278.243371 732.438017 276.917355 
C 732.438017 275.59134 731.911185 274.319456 730.97355 273.381821 
C 730.035916 272.444187 728.764032 271.917355 727.438017 271.917355 
C 726.112001 271.917355 724.840117 272.444187 723.902483 273.381821 
C 722.964848 274.319456 722.438017 275.59134 722.438017 276.917355 
C 722.438017 278.243371 722.964848 279.515255 723.902483 280.452889 
C 724.840117 281.390524 726.112001 281.917355 727.438017 281.917355 
z
" clip-path="url(#p83b5703a68)" style="stroke: #000000; stroke-width: 0.4"/>
    <path d="M 748.264463 280.452889 
C 749.202097 280.452889 750.101455 280.080363 750.764463 279.417355 
C 751.427471 278.754348 751.799997 277.85499 751.799997 276.917355 
C 751.799997 275.979721 751.427471 275.080363 750.764463 274.417355 
C 750.101455 273.754348 749.202097 273.381821 748.264463 273.381821 
C 747.326828 273.381821 746.427471 273.754348 745.764463 274.417355 
C 745.101455 275.080363 744.728929 275.979721 744.728929 276.917355 
C 744.728929 277.85499 745.101455 278.754348 745.764463 279.417355 
C 746.427471 280.080363 747.326828 280.452889 748.264463 280.452889 
z
" clip-path="url(#p83b5703a68)" style="fill: #808080; stroke: #000000; stroke-width: 0.4"/>
    <path d="M 769.090909 257 
C 770.416925 257 771.688808 256.473168 772.626443 255.535534 
C 773.564078 254.597899 774.090909 253.326015 774.090909 252 
C 774.090909 250.673984 773.564078 249.402101 772.626443 248.464466 
C 771.688808 247.526832 770.416925 247 769.090909 247 
C 767.764894 247 766.49301 247.526832 765.555375 248.464466 
C 764.617741 249.402101 764.090909 250.673984 764.090909 252 
C 764.090909 253.326015 764.617741 254.597899 765.555375 255.535534 
C 766.49301 256.473168 767.764894 257 769.090909 257 
z
" clip-path="url(#p83b5703a68)" style="stroke: #000000; stroke-width: 0.4"/>
    <path d="M 789.917355 255.535534 
C 790.85499 255.535534 791.754348 255.163008 792.417355 254.5 
C 793.080363 253.836992 793.452889 252.937635 793.452889 252 
C 793.452889 251.062365 793.080363 250.163008 792.417355 249.5 
C 791.754348 248.836992 790.85499 248.464466 789.917355 248.464466 
C 788.979721 248.464466 788.080363 248.836992 787.417355 249.5 
C 786.754348 250.163008 786.381821 251.062365 786.381821 252 
C 786.381821 252.937635 786.754348 253.836992 787.417355 254.5 
C 788.080363 255.163008 788.979721 255.535534 789.917355 255.535534 
z
" clip-path="url(#p83b5703a68)" style="fill: #808080; stroke: #000000; stroke-width: 0.4"/>
    <path d="M 331.735537 232.082645 
C 333.061553 232.082645 334.333437 231.555813 335.271071 230.618179 
C 336.208706 229.680544 336.735537 228.40866 336.735537 227.082645 
C 336.735537 225.756629 336.208706 224.484745 335.271071 223.547111 
C 334.333437 222.609476 333.061553 222.082645 331.735537 222.082645 
C 330.409522 222.082645 329.137638 222.609476 328.200003 223.547111 
C 327.262369 224.484745 326.735537 225.756629 326.735537 227.082645 
C 326.735537 228.40866 327.262369 229.680544 328.200003 230.618179 
C 329.137638 231.555813 330.409522 232.082645 331.735537 232.082645 
z
" clip-path="url(#p83b5703a68)" style="stroke: #000000; stroke-width: 0.4"/>
    <path d="M 310.909091 255.535534 
C 311.846725 255.535534 312.746083 255.163008 313.409091 254.5 
C 314.072099 253.836992 314.444625 252.937635 314.444625 252 
C 314.444625 251.062365 314.072099 250.163008 313.409091 249.5 
C 312.746083 248.836992 311.846725 248.464466 310.909091 248.464466 
C 309.971456 248.464466 309.072099 248.836992 308.409091 249.5 
C 307.746083 250.163008 307.373557 251.062365 307.373557 252 
C 307.373557 252.937635 307.746083 253.836992 308.409091 254.5 
C 309.072099 255.163008 309.971456 255.535534 310.909091 255.535534 
z
" clip-path="url(#p83b5703a68)" style="fill: #808080; stroke: #000000; stroke-width: 0.4"/>
    <path d="M 290.082645 232.082645 
C 291.40866 232.082645 292.680544 231.555813 293.618179 230.618179 
C 294.555813 229.680544 295.082645 228.40866 295.082645 227.082645 
C 295.082645 225.756629 294.555813 224.484745 293.618179 223.547111 
C 292.680544 222.609476 291.40866 222.082645 290.082645 222.082645 
C 288.756629 222.082645 287.484745 222.609476 286.547111 223.547111 
C 285.609476 224.484745 285.082645 225.756629 285.082645 227.082645 
C 285.082645 228.40866 285.609476 229.680544 286.547111 230.618179 
C 287.484745 231.555813 288.756629 232.082645 290.082645 232.082645 
z
" clip-path="url(#p83b5703a68)" style="stroke: #000000; stroke-width: 0.4"/>
    <path d="M 269.256198 255.535534 
C 270.193833 255.535534 271.093191 255.163008 271.756198 254.5 
C 272.419206 253.836992 272.791732 252.937635 272.791732 252 
C 272.791732 251.062365 272.419206 250.163008 271.756198 249.5 
C 271.093191 248.836992 270.193833 248.464466 269.256198 248.464466 
C 268.318564 248.464466 267.419206 248.836992 266.756198 249.5 
C 266.093191 250.163008 265.720664 251.062365 265.720664 252 
C 265.720664 252.937635 266.093191 253.836992 266.756198 254.5 
C 267.419206 255.163008 268.318564 255.535534 269.256198 255.535534 
z
" clip-path="url(#p83b5703a68)" style="fill: #808080; stroke: #000000; stroke-width: 0.4"/>
    <path d="M 248.429752 207.165289 
C 249.755768 207.165289 251.027651 206.638458 251.965286 205.700823 
C 252.902921 204.763189 253.429752 203.491305 253.429752 202.165289 
C 253.429752 200.839274 252.902921 199.56739 251.965286 198.629755 
C 251.027651 197.692121 249.755768 197.165289 248.429752 197.165289 
C 247.103737 197.165289 245.831853 197.692121 244.894218 198.629755 
C 243.956584 199.56739 243.429752 200.839274 243.429752 202.165289 
C 243.429752 203.491305 243.956584 204.763189 244.894218 205.700823 
C 245.831853 206.638458 247.103737 207.165289 248.429752 207.165289 
z
" clip-path="url(#p83b5703a68)" style="stroke: #000000; stroke-width: 0.4"/>
    <path d="M 227.603306 230.618179 
C 228.54094 230.618179 229.440298 230.245652 230.103306 229.582645 
C 230.766314 228.919637 231.13884 228.020279 231.13884 227.082645 
C 231.13884 226.14501 230.766314 225.245652 230.103306 224.582645 
C 229.440298 223.919637 228.54094 223.547111 227.603306 223.547111 
C 226.665671 223.547111 225.766314 223.919637 225.103306 224.582645 
C 224.440298 225.245652 224.067772 226.14501 224.067772 227.082645 
C 224.067772 228.020279 224.440298 228.919637 225.103306 229.582645 
C 225.766314 230.245652 226.665671 230.618179 227.603306 230.618179 
z
" clip-path="url(#p83b5703a68)" style="fill: #808080; stroke: #000000; stroke-width: 0.4"/>
    <path d="M 206.77686 207.165289 
C 208.102875 207.165289 209.374759 206.638458 210.312393 205.700823 
C 211.250028 204.763189 211.77686 203.491305 211.77686 202.165289 
C 211.77686 200.839274 211.250028 199.56739 210.312393 198.629755 
C 209.374759 197.692121 208.102875 197.165289 206.77686 197.165289 
C 205.450844 197.165289 204.17896 197.692121 203.241326 198.629755 
C 202.303691 199.56739 201.77686 200.839274 201.77686 202.165289 
C 201.77686 203.491305 202.303691 204.763189 203.241326 205.700823 
C 204.17896 206.638458 205.450844 207.165289 206.77686 207.165289 
z
" clip-path="url(#p83b5703a68)" style="stroke: #000000; stroke-width: 0.4"/>
    <path d="M 185.950413 230.618179 
C 186.888048 230.618179 187.787405 230.245652 188.450413 229.582645 
C 189.113421 228.919637 189.485947 228.020279 189.485947 227.082645 
C 189.485947 226.14501 189.113421 225.245652 188.450413 224.582645 
C 187.787405 223.919637 186.888048 223.547111 185.950413 223.547111 
C 185.012779 223.547111 184.113421 223.919637 183.450413 224.582645 
C 182.787405 225.245652 182.414879 226.14501 182.414879 227.082645 
C 182.414879 228.020279 182.787405 228.919637 183.450413 229.582645 
C 184.113421 230.245652 185.012779 230.618179 185.950413 230.618179 
z
" clip-path="url(#p83b5703a68)" style="fill: #808080; stroke: #000000; stroke-width: 0.4"/>
    <path d="M 810.743802 182.247934 
C 812.069817 182.247934 813.341701 181.721102 814.279336 180.783468 
C 815.21697 179.845833 815.743802 178.573949 815.743802 177.247934 
C 815.743802 175.921918 815.21697 174.650035 814.279336 173.7124 
C 813.341701 172.774765 812.069817 172.247934 810.743802 172.247934 
C 809.417786 172.247934 808.145902 172.774765 807.208268 173.7124 
C 806.270633 174.650035 805.743802 175.921918 805.743802 177.247934 
C 805.743802 178.573949 806.270633 179.845833 807.208268 180.783468 
C 808.145902 181.721102 809.417786 182.247934 810.743802 182.247934 
z
" clip-path="url(#p83b5703a68)" style="stroke: #000000; stroke-width: 0.4"/>
    <path d="M 831.570248 180.783468 
C 832.507882 180.783468 833.40724 180.410942 834.070248 179.747934 
C 834.733256 179.084926 835.105782 178.185568 835.105782 177.247934 
C 835.105782 176.310299 834.733256 175.410942 834.070248 174.747934 
C 833.40724 174.084926 832.507882 173.7124 831.570248 173.7124 
C 830.632613 173.7124 829.733256 174.084926 829.070248 174.747934 
C 828.40724 175.410942 828.034714 176.310299 828.034714 177.247934 
C 828.034714 178.185568 828.40724 179.084926 829.070248 179.747934 
C 829.733256 180.410942 830.632613 180.783468 831.570248 180.783468 
z
" clip-path="url(#p83b5703a68)" style="fill: #808080; stroke: #000000; stroke-width: 0.4"/>
    <path d="M 852.396694 157.330579 
C 853.72271 157.330579 854.994594 156.803747 855.932228 155.866112 
C 856.869863 154.928478 857.396694 153.656594 857.396694 152.330579 
C 857.396694 151.004563 856.869863 149.732679 855.932228 148.795045 
C 854.994594 147.85741 853.72271 147.330579 852.396694 147.330579 
C 851.070679 147.330579 849.798795 147.85741 848.86116 148.795045 
C 847.923526 149.732679 847.396694 151.004563 847.396694 152.330579 
C 847.396694 153.656594 847.923526 154.928478 848.86116 155.866112 
C 849.798795 156.803747 851.070679 157.330579 852.396694 157.330579 
z
" clip-path="url(#p83b5703a68)" style="stroke: #000000; stroke-width: 0.4"/>
    <path d="M 873.22314 155.866112 
C 874.160775 155.866112 875.060133 155.493586 875.72314 154.830579 
C 876.386148 154.167571 876.758674 153.268213 876.758674 152.330579 
C 876.758674 151.392944 876.386148 150.493586 875.72314 149.830579 
C 875.060133 149.167571 874.160775 148.795045 873.22314 148.795045 
C 872.285506 148.795045 871.386148 149.167571 870.72314 149.830579 
C 870.060133 150.493586 869.687607 151.392944 869.687607 152.330579 
C 869.687607 153.268213 870.060133 154.167571 870.72314 154.830579 
C 871.386148 155.493586 872.285506 155.866112 873.22314 155.866112 
z
" clip-path="url(#p83b5703a68)" style="fill: #808080; stroke: #000000; stroke-width: 0.4"/>
    <path d="M 165.123967 132.413223 
C 166.449982 132.413223 167.721866 131.886392 168.659501 130.948757 
C 169.597135 130.011122 170.123967 128.739239 170.123967 127.413223 
C 170.123967 126.087208 169.597135 124.815324 168.659501 123.877689 
C 167.721866 122.940055 166.449982 122.413223 165.123967 122.413223 
C 163.797951 122.413223 162.526068 122.940055 161.588433 123.877689 
C 160.650798 124.815324 160.123967 126.087208 160.123967 127.413223 
C 160.123967 128.739239 160.650798 130.011122 161.588433 130.948757 
C 162.526068 131.886392 163.797951 132.413223 165.123967 132.413223 
z
" clip-path="url(#p83b5703a68)" style="stroke: #000000; stroke-width: 0.4"/>
    <path d="M 144.297521 155.866112 
C 145.235155 155.866112 146.134513 155.493586 146.797521 154.830579 
C 147.460528 154.167571 147.833055 153.268213 147.833055 152.330579 
C 147.833055 151.392944 147.460528 150.493586 146.797521 149.830579 
C 146.134513 149.167571 145.235155 148.795045 144.297521 148.795045 
C 143.359886 148.795045 142.460528 149.167571 141.797521 149.830579 
C 141.134513 150.493586 140.761987 151.392944 140.761987 152.330579 
C 140.761987 153.268213 141.134513 154.167571 141.797521 154.830579 
C 142.460528 155.493586 143.359886 155.866112 144.297521 155.866112 
z
" clip-path="url(#p83b5703a68)" style="fill: #808080; stroke: #000000; stroke-width: 0.4"/>
    <path d="M 914.876033 130.948757 
C 915.813668 130.948757 916.713025 130.576231 917.376033 129.913223 
C 918.039041 129.250215 918.411567 128.350858 918.411567 127.413223 
C 918.411567 126.475589 918.039041 125.576231 917.376033 124.913223 
C 916.713025 124.250215 915.813668 123.877689 914.876033 123.877689 
C 913.938399 123.877689 913.039041 124.250215 912.376033 124.913223 
C 911.713025 125.576231 911.340499 126.475589 911.340499 127.413223 
C 911.340499 128.350858 911.713025 129.250215 912.376033 129.913223 
C 913.039041 130.576231 913.938399 130.948757 914.876033 130.948757 
z
" clip-path="url(#p83b5703a68)" style="fill: #808080; stroke: #000000; stroke-width: 0.4"/>
    <path d="M 935.702479 130.948757 
C 936.640114 130.948757 937.539472 130.576231 938.202479 129.913223 
C 938.865487 129.250215 939.238013 128.350858 939.238013 127.413223 
C 939.238013 126.475589 938.865487 125.576231 938.202479 124.913223 
C 937.539472 124.250215 936.640114 123.877689 935.702479 123.877689 
C 934.764845 123.877689 933.865487 124.250215 933.202479 124.913223 
C 932.539472 125.576231 932.166945 126.475589 932.166945 127.413223 
C 932.166945 128.350858 932.539472 129.250215 933.202479 129.913223 
C 933.865487 130.576231 934.764845 130.948757 935.702479 130.948757 
z
" clip-path="url(#p83b5703a68)" style="fill: #808080; stroke: #000000; stroke-width: 0.4"/>
    <path d="M 894.049587 107.495868 
C 895.375602 107.495868 896.647486 106.969036 897.585121 106.031402 
C 898.522755 105.093767 899.049587 103.821883 899.049587 102.495868 
C 899.049587 101.169852 898.522755 99.897968 897.585121 98.960334 
C 896.647486 98.022699 895.375602 97.495868 894.049587 97.495868 
C 892.723571 97.495868 891.451687 98.022699 890.514053 98.960334 
C 889.576418 99.897968 889.049587 101.169852 889.049587 102.495868 
C 889.049587 103.821883 889.576418 105.093767 890.514053 106.031402 
C 891.451687 106.969036 892.723571 107.495868 894.049587 107.495868 
z
" clip-path="url(#p83b5703a68)" style="stroke: #000000; stroke-width: 0.4"/>
    <path d="M 956.528926 82.578512 
C 957.854941 82.578512 959.126825 82.051681 960.06446 81.114046 
C 961.002094 80.176412 961.528926 78.904528 961.528926 77.578512 
C 961.528926 76.252497 961.002094 74.980613 960.06446 74.042978 
C 959.126825 73.105344 957.854941 72.578512 956.528926 72.578512 
C 955.20291 72.578512 953.931026 73.105344 952.993392 74.042978 
C 952.055757 74.980613 951.528926 76.252497 951.528926 77.578512 
C 951.528926 78.904528 952.055757 80.176412 952.993392 81.114046 
C 953.931026 82.051681 955.20291 82.578512 956.528926 82.578512 
z
" clip-path="url(#p83b5703a68)" style="stroke: #000000; stroke-width: 0.4"/>
    <path d="M 977.355372 106.031402 
C 978.293006 106.031402 979.192364 105.658876 979.855372 104.995868 
C 980.51838 104.33286 980.890906 103.433502 980.890906 102.495868 
C 980.890906 101.558233 980.51838 100.658876 979.855372 99.995868 
C 979.192364 99.33286 978.293006 98.960334 977.355372 98.960334 
C 976.417737 98.960334 975.51838 99.33286 974.855372 99.995868 
C 974.192364 100.658876 973.819838 101.558233 973.819838 102.495868 
C 973.819838 103.433502 974.192364 104.33286 974.855372 104.995868 
C 975.51838 105.658876 976.417737 106.031402 977.355372 106.031402 
z
" clip-path="url(#p83b5703a68)" style="fill: #808080; stroke: #000000; stroke-width: 0.4"/>
    <path d="M 123.471074 57.661157 
C 124.79709 57.661157 126.068974 57.134325 127.006608 56.196691 
C 127.944243 55.259056 128.471074 53.987173 128.471074 52.661157 
C 128.471074 51.335142 127.944243 50.063258 127.006608 49.125623 
C 126.068974 48.187989 124.79709 47.661157 123.471074 47.661157 
C 122.145059 47.661157 120.873175 48.187989 119.93554 49.125623 
C 118.997906 50.063258 118.471074 51.335142 118.471074 52.661157 
C 118.471074 53.987173 118.997906 55.259056 119.93554 56.196691 
C 120.873175 57.134325 122.145059 57.661157 123.471074 57.661157 
z
" clip-path="url(#p83b5703a68)" style="stroke: #000000; stroke-width: 0.4"/>
    <path d="M 102.644628 81.114046 
C 103.582263 81.114046 104.48162 80.74152 105.144628 80.078512 
C 105.807636 79.415505 106.180162 78.516147 106.180162 77.578512 
C 106.180162 76.640878 105.807636 75.74152 105.144628 75.078512 
C 104.48162 74.415505 103.582263 74.042978 102.644628 74.042978 
C 101.706994 74.042978 100.807636 74.415505 100.144628 75.078512 
C 99.48162 75.74152 99.109094 76.640878 99.109094 77.578512 
C 99.109094 78.516147 99.48162 79.415505 100.144628 80.078512 
C 100.807636 80.74152 101.706994 81.114046 102.644628 81.114046 
z
" clip-path="url(#p83b5703a68)" style="fill: #808080; stroke: #000000; stroke-width: 0.4"/>
   </g>
   <g id="line2d_1">
    <path d="M 415.041322 493.2 
L 415.041322 10.8 
" clip-path="url(#p83b5703a68)" style="fill: none; stroke: #ff0000; stroke-width: 1.5; stroke-linecap: square"/>
   </g>
   <g id="patch_3">
    <path d="M 10.8 493.2 
L 10.8 10.8 
" style="fill: none; stroke: #000000; stroke-width: 0.8; stroke-linejoin: miter; stroke-linecap: square"/>
   </g>
   <g id="patch_4">
    <path d="M 1069.2 493.2 
L 1069.2 10.8 
" style="fill: none; stroke: #000000; stroke-width: 0.8; stroke-linejoin: miter; stroke-linecap: square"/>
   </g>
   <g id="patch_5">
    <path d="M 10.8 493.2 
L 1069.2 493.2 
" style="fill: none; stroke: #000000; stroke-width: 0.8; stroke-linejoin: miter; stroke-linecap: square"/>
   </g>
   <g id="patch_6">
    <path d="M 10.8 10.8 
L 1069.2 10.8 
" style="fill: none; stroke: #000000; stroke-width: 0.8; stroke-linejoin: miter; stroke-linecap: square"/>
   </g>
  </g>
 </g>
 <defs>
  <clipPath id="p83b5703a68">
   <rect x="10.8" y="10.8" width="1058.4" height="482.4"/>
  </clipPath>
 </defs>
</svg>
