<?xml version="1.0" encoding="utf-8" standalone="no"?>
<!DOCTYPE svg PUBLIC "-//W3C//DTD SVG 1.1//EN"
  "http://www.w3.org/Graphics/SVG/1.1/DTD/svg11.dtd">
<svg xmlns:xlink="http://www.w3.org/1999/xlink" width="1080pt" height="504pt" viewBox="0 0 1080 504" xmlns="http://www.w3.org/2000/svg" version="1.1">
 <metadata>
  <rdf:RDF xmlns:dc="http://purl.org/dc/elements/1.1/" xmlns:cc="http://creativecommons.org/ns#" xmlns:rdf="http://www.w3.org/1999/02/22-rdf-syntax-ns#">
   <cc:Work>
    <dc:type rdf:resource="http://purl.org/dc/dcmitype/StillImage"/>
    <dc:date>2022-04-20T08:03:51.911016</dc:date>
    <dc:format>image/svg+xml</dc:format>
    <dc:creator>
     <cc:Agent>
      <dc:title>Matplotlib v3.5.1, https://matplotlib.org/</dc:title>
     </cc:Agent>
    </dc:creator>
   </cc:Work>
  </rdf:RDF>
 </metadata>
 <defs>
  <style type="text/css">*{stroke-linejoin: round; stroke-linecap: butt}</style>
 </defs>
 <g id="figure_1">
  <g id="patch_1">
   <path d="M 0 504 
L 1080 504 
L 1080 0 
L 0 0 
z
" style="fill: #ffffff"/>
  </g>
  <g id="axes_1">
   <g id="patch_2">
    <path d="M 10.8 493.2 
L 1069.2 493.2 
L 1069.2 10.8 
L 10.8 10.8 
z
" style="fill: #ffffff"/>
   </g>
   <g id="LineCollection_1">
    <path d="M 199.834711 326.752066 
L 224.132231 326.752066 
" clip-path="url(#p8035739f5b)" style="fill: none; stroke: #000000; stroke-width: 0.4"/>
    <path d="M 199.834711 326.752066 
L 248.429752 301.834711 
" clip-path="url(#p8035739f5b)" style="fill: none; stroke: #000000; stroke-width: 0.4"/>
    <path d="M 540 426.421488 
L 515.702479 451.338843 
" clip-path="url(#p8035739f5b)" style="fill: none; stroke: #000000; stroke-width: 0.4"/>
    <path d="M 540 426.421488 
L 564.297521 451.338843 
" clip-path="url(#p8035739f5b)" style="fill: none; stroke: #000000; stroke-width: 0.4"/>
    <path d="M 540 426.421488 
L 491.404959 401.504132 
" clip-path="url(#p8035739f5b)" style="fill: none; stroke: #000000; stroke-width: 0.4"/>
    <path d="M 491.404959 401.504132 
L 467.107438 426.421488 
" clip-path="url(#p8035739f5b)" style="fill: none; stroke: #000000; stroke-width: 0.4"/>
    <path d="M 491.404959 401.504132 
L 442.809917 376.586777 
" clip-path="url(#p8035739f5b)" style="fill: none; stroke: #000000; stroke-width: 0.4"/>
    <path d="M 442.809917 376.586777 
L 418.512397 401.504132 
" clip-path="url(#p8035739f5b)" style="fill: none; stroke: #000000; stroke-width: 0.4"/>
    <path d="M 442.809917 376.586777 
L 394.214876 351.669421 
" clip-path="url(#p8035739f5b)" style="fill: none; stroke: #000000; stroke-width: 0.4"/>
    <path d="M 394.214876 351.669421 
L 369.917355 376.586777 
" clip-path="url(#p8035739f5b)" style="fill: none; stroke: #000000; stroke-width: 0.4"/>
    <path d="M 394.214876 351.669421 
L 345.619835 326.752066 
" clip-path="url(#p8035739f5b)" style="fill: none; stroke: #000000; stroke-width: 0.4"/>
    <path d="M 345.619835 326.752066 
L 321.322314 351.669421 
" clip-path="url(#p8035739f5b)" style="fill: none; stroke: #000000; stroke-width: 0.4"/>
    <path d="M 345.619835 326.752066 
L 297.024793 301.834711 
" clip-path="url(#p8035739f5b)" style="fill: none; stroke: #000000; stroke-width: 0.4"/>
    <path d="M 297.024793 301.834711 
L 272.727273 326.752066 
" clip-path="url(#p8035739f5b)" style="fill: none; stroke: #000000; stroke-width: 0.4"/>
    <path d="M 297.024793 301.834711 
L 248.429752 301.834711 
" clip-path="url(#p8035739f5b)" style="fill: none; stroke: #000000; stroke-width: 0.4"/>
    <path d="M 248.429752 301.834711 
L 175.53719 276.917355 
" clip-path="url(#p8035739f5b)" style="fill: none; stroke: #000000; stroke-width: 0.4"/>
    <path d="M 175.53719 276.917355 
L 151.239669 301.834711 
" clip-path="url(#p8035739f5b)" style="fill: none; stroke: #000000; stroke-width: 0.4"/>
    <path d="M 175.53719 276.917355 
L 588.595041 252 
" clip-path="url(#p8035739f5b)" style="fill: none; stroke: #000000; stroke-width: 0.4"/>
    <path d="M 612.892562 276.917355 
L 637.190083 276.917355 
" clip-path="url(#p8035739f5b)" style="fill: none; stroke: #000000; stroke-width: 0.4"/>
    <path d="M 612.892562 276.917355 
L 588.595041 252 
" clip-path="url(#p8035739f5b)" style="fill: none; stroke: #000000; stroke-width: 0.4"/>
    <path d="M 588.595041 252 
L 126.942149 227.082645 
" clip-path="url(#p8035739f5b)" style="fill: none; stroke: #000000; stroke-width: 0.4"/>
    <path d="M 126.942149 227.082645 
L 102.644628 252 
" clip-path="url(#p8035739f5b)" style="fill: none; stroke: #000000; stroke-width: 0.4"/>
    <path d="M 126.942149 227.082645 
L 661.487603 202.165289 
" clip-path="url(#p8035739f5b)" style="fill: none; stroke: #000000; stroke-width: 0.4"/>
    <path d="M 661.487603 202.165289 
L 685.785124 227.082645 
" clip-path="url(#p8035739f5b)" style="fill: none; stroke: #000000; stroke-width: 0.4"/>
    <path d="M 661.487603 202.165289 
L 710.082645 177.247934 
" clip-path="url(#p8035739f5b)" style="fill: none; stroke: #000000; stroke-width: 0.4"/>
    <path d="M 710.082645 177.247934 
L 734.380165 202.165289 
" clip-path="url(#p8035739f5b)" style="fill: none; stroke: #000000; stroke-width: 0.4"/>
    <path d="M 710.082645 177.247934 
L 758.677686 152.330579 
" clip-path="url(#p8035739f5b)" style="fill: none; stroke: #000000; stroke-width: 0.4"/>
    <path d="M 758.677686 152.330579 
L 782.975207 177.247934 
" clip-path="url(#p8035739f5b)" style="fill: none; stroke: #000000; stroke-width: 0.4"/>
    <path d="M 758.677686 152.330579 
L 807.272727 127.413223 
" clip-path="url(#p8035739f5b)" style="fill: none; stroke: #000000; stroke-width: 0.4"/>
    <path d="M 807.272727 127.413223 
L 831.570248 152.330579 
" clip-path="url(#p8035739f5b)" style="fill: none; stroke: #000000; stroke-width: 0.4"/>
    <path d="M 807.272727 127.413223 
L 855.867769 102.495868 
" clip-path="url(#p8035739f5b)" style="fill: none; stroke: #000000; stroke-width: 0.4"/>
    <path d="M 855.867769 102.495868 
L 880.165289 127.413223 
" clip-path="url(#p8035739f5b)" style="fill: none; stroke: #000000; stroke-width: 0.4"/>
    <path d="M 855.867769 102.495868 
L 904.46281 77.578512 
" clip-path="url(#p8035739f5b)" style="fill: none; stroke: #000000; stroke-width: 0.4"/>
    <path d="M 904.46281 77.578512 
L 928.760331 102.495868 
" clip-path="url(#p8035739f5b)" style="fill: none; stroke: #000000; stroke-width: 0.4"/>
    <path d="M 904.46281 77.578512 
L 953.057851 52.661157 
" clip-path="url(#p8035739f5b)" style="fill: none; stroke: #000000; stroke-width: 0.4"/>
    <path d="M 953.057851 52.661157 
L 977.355372 77.578512 
" clip-path="url(#p8035739f5b)" style="fill: none; stroke: #000000; stroke-width: 0.4"/>
   </g>
   <g id="matplotlib.axis_1">
    <g id="xtick_1"/>
    <g id="xtick_2"/>
    <g id="xtick_3"/>
    <g id="xtick_4"/>
    <g id="xtick_5"/>
    <g id="xtick_6"/>
    <g id="xtick_7"/>
    <g id="xtick_8"/>
   </g>
   <g id="matplotlib.axis_2">
    <g id="ytick_1"/>
    <g id="ytick_2"/>
    <g id="ytick_3"/>
    <g id="ytick_4"/>
    <g id="ytick_5"/>
    <g id="ytick_6"/>
    <g id="ytick_7"/>
    <g id="ytick_8"/>
   </g>
   <g id="PathCollection_1">
    <path d="M 199.834711 330.2876 
C 200.772345 330.2876 201.671703 329.915074 202.334711 329.252066 
C 202.997718 328.589058 203.370245 327.689701 203.370245 326.752066 
C 203.370245 325.814432 202.997718 324.915074 202.334711 324.252066 
C 201.671703 323.589058 200.772345 323.216532 199.834711 323.216532 
C 198.897076 323.216532 197.997718 323.589058 197.334711 324.252066 
C 196.671703 324.915074 196.299177 325.814432 196.299177 326.752066 
C 196.299177 327.689701 196.671703 328.589058 197.334711 329.252066 
C 197.997718 329.915074 198.897076 330.2876 199.834711 330.2876 
z
" clip-path="url(#p8035739f5b)" style="fill: #808080; stroke: #000000; stroke-width: 0.4"/>
    <path d="M 224.132231 330.2876 
C 225.069866 330.2876 225.969224 329.915074 226.632231 329.252066 
C 227.295239 328.589058 227.667765 327.689701 227.667765 326.752066 
C 227.667765 325.814432 227.295239 324.915074 226.632231 324.252066 
C 225.969224 323.589058 225.069866 323.216532 224.132231 323.216532 
C 223.194597 323.216532 222.295239 323.589058 221.632231 324.252066 
C 220.969224 324.915074 220.596697 325.814432 220.596697 326.752066 
C 220.596697 327.689701 220.969224 328.589058 221.632231 329.252066 
C 222.295239 329.915074 223.194597 330.2876 224.132231 330.2876 
z
" clip-path="url(#p8035739f5b)" style="fill: #808080; stroke: #000000; stroke-width: 0.4"/>
    <path d="M 540 431.421488 
C 541.326016 431.421488 542.597899 430.894656 543.535534 429.957022 
C 544.473168 429.019387 545 427.747503 545 426.421488 
C 545 425.095472 544.473168 423.823588 543.535534 422.885954 
C 542.597899 421.948319 541.326016 421.421488 540 421.421488 
C 538.673985 421.421488 537.402101 421.948319 536.464466 422.885954 
C 535.526832 423.823588 535 425.095472 535 426.421488 
C 535 427.747503 535.526832 429.019387 536.464466 429.957022 
C 537.402101 430.894656 538.673985 431.421488 540 431.421488 
z
" clip-path="url(#p8035739f5b)" style="stroke: #000000; stroke-width: 0.4"/>
    <path d="M 515.702479 454.874377 
C 516.640114 454.874377 517.539472 454.501851 518.202479 453.838843 
C 518.865487 453.175835 519.238013 452.276478 519.238013 451.338843 
C 519.238013 450.401208 518.865487 449.501851 518.202479 448.838843 
C 517.539472 448.175835 516.640114 447.803309 515.702479 447.803309 
C 514.764845 447.803309 513.865487 448.175835 513.202479 448.838843 
C 512.539472 449.501851 512.166945 450.401208 512.166945 451.338843 
C 512.166945 452.276478 512.539472 453.175835 513.202479 453.838843 
C 513.865487 454.501851 514.764845 454.874377 515.702479 454.874377 
z
" clip-path="url(#p8035739f5b)" style="fill: #808080; stroke: #000000; stroke-width: 0.4"/>
    <path d="M 564.297521 456.338843 
C 565.623536 456.338843 566.89542 455.812011 567.833055 454.874377 
C 568.770689 453.936742 569.297521 452.664858 569.297521 451.338843 
C 569.297521 450.012827 568.770689 448.740944 567.833055 447.803309 
C 566.89542 446.865675 565.623536 446.338843 564.297521 446.338843 
C 562.971505 446.338843 561.699621 446.865675 560.761987 447.803309 
C 559.824352 448.740944 559.297521 450.012827 559.297521 451.338843 
C 559.297521 452.664858 559.824352 453.936742 560.761987 454.874377 
C 561.699621 455.812011 562.971505 456.338843 564.297521 456.338843 
z
" clip-path="url(#p8035739f5b)" style="fill: #008000; stroke: #000000; stroke-width: 0.4"/>
    <path d="M 491.404959 406.504132 
C 492.730974 406.504132 494.002858 405.977301 494.940493 405.039666 
C 495.878127 404.102032 496.404959 402.830148 496.404959 401.504132 
C 496.404959 400.178117 495.878127 398.906233 494.940493 397.968598 
C 494.002858 397.030964 492.730974 396.504132 491.404959 396.504132 
C 490.078943 396.504132 488.807059 397.030964 487.869425 397.968598 
C 486.93179 398.906233 486.404959 400.178117 486.404959 401.504132 
C 486.404959 402.830148 486.93179 404.102032 487.869425 405.039666 
C 488.807059 405.977301 490.078943 406.504132 491.404959 406.504132 
z
" clip-path="url(#p8035739f5b)" style="stroke: #000000; stroke-width: 0.4"/>
    <path d="M 467.107438 429.957022 
C 468.045073 429.957022 468.94443 429.584495 469.607438 428.921488 
C 470.270446 428.25848 470.642972 427.359122 470.642972 426.421488 
C 470.642972 425.483853 470.270446 424.584495 469.607438 423.921488 
C 468.94443 423.25848 468.045073 422.885954 467.107438 422.885954 
C 466.169803 422.885954 465.270446 423.25848 464.607438 423.921488 
C 463.94443 424.584495 463.571904 425.483853 463.571904 426.421488 
C 463.571904 427.359122 463.94443 428.25848 464.607438 428.921488 
C 465.270446 429.584495 466.169803 429.957022 467.107438 429.957022 
z
" clip-path="url(#p8035739f5b)" style="fill: #808080; stroke: #000000; stroke-width: 0.4"/>
    <path d="M 442.809917 381.586777 
C 444.135933 381.586777 445.407817 381.059945 446.345451 380.122311 
C 447.283086 379.184676 447.809917 377.912792 447.809917 376.586777 
C 447.809917 375.260761 447.283086 373.988878 446.345451 373.051243 
C 445.407817 372.113608 444.135933 371.586777 442.809917 371.586777 
C 441.483902 371.586777 440.212018 372.113608 439.274383 373.051243 
C 438.336749 373.988878 437.809917 375.260761 437.809917 376.586777 
C 437.809917 377.912792 438.336749 379.184676 439.274383 380.122311 
C 440.212018 381.059945 441.483902 381.586777 442.809917 381.586777 
z
" clip-path="url(#p8035739f5b)" style="stroke: #000000; stroke-width: 0.4"/>
    <path d="M 418.512397 405.039666 
C 419.450031 405.039666 420.349389 404.66714 421.012397 404.004132 
C 421.675404 403.341124 422.047931 402.441767 422.047931 401.504132 
C 422.047931 400.566498 421.675404 399.66714 421.012397 399.004132 
C 420.349389 398.341124 419.450031 397.968598 418.512397 397.968598 
C 417.574762 397.968598 416.675404 398.341124 416.012397 399.004132 
C 415.349389 399.66714 414.976863 400.566498 414.976863 401.504132 
C 414.976863 402.441767 415.349389 403.341124 416.012397 404.004132 
C 416.675404 404.66714 417.574762 405.039666 418.512397 405.039666 
z
" clip-path="url(#p8035739f5b)" style="fill: #808080; stroke: #000000; stroke-width: 0.4"/>
    <path d="M 394.214876 356.669421 
C 395.540892 356.669421 396.812775 356.14259 397.75041 355.204955 
C 398.688044 354.267321 399.214876 352.995437 399.214876 351.669421 
C 399.214876 350.343406 398.688044 349.071522 397.75041 348.133888 
C 396.812775 347.196253 395.540892 346.669421 394.214876 346.669421 
C 392.888861 346.669421 391.616977 347.196253 390.679342 348.133888 
C 389.741708 349.071522 389.214876 350.343406 389.214876 351.669421 
C 389.214876 352.995437 389.741708 354.267321 390.679342 355.204955 
C 391.616977 356.14259 392.888861 356.669421 394.214876 356.669421 
z
" clip-path="url(#p8035739f5b)" style="stroke: #000000; stroke-width: 0.4"/>
    <path d="M 369.917355 380.122311 
C 370.85499 380.122311 371.754348 379.749785 372.417355 379.086777 
C 373.080363 378.423769 373.452889 377.524411 373.452889 376.586777 
C 373.452889 375.649142 373.080363 374.749785 372.417355 374.086777 
C 371.754348 373.423769 370.85499 373.051243 369.917355 373.051243 
C 368.979721 373.051243 368.080363 373.423769 367.417355 374.086777 
C 366.754348 374.749785 366.381821 375.649142 366.381821 376.586777 
C 366.381821 377.524411 366.754348 378.423769 367.417355 379.086777 
C 368.080363 379.749785 368.979721 380.122311 369.917355 380.122311 
z
" clip-path="url(#p8035739f5b)" style="fill: #808080; stroke: #000000; stroke-width: 0.4"/>
    <path d="M 345.619835 331.752066 
C 346.94585 331.752066 348.217734 331.225235 349.155369 330.2876 
C 350.093003 329.349965 350.619835 328.078082 350.619835 326.752066 
C 350.619835 325.426051 350.093003 324.154167 349.155369 323.216532 
C 348.217734 322.278898 346.94585 321.752066 345.619835 321.752066 
C 344.293819 321.752066 343.021935 322.278898 342.084301 323.216532 
C 341.146666 324.154167 340.619835 325.426051 340.619835 326.752066 
C 340.619835 328.078082 341.146666 329.349965 342.084301 330.2876 
C 343.021935 331.225235 344.293819 331.752066 345.619835 331.752066 
z
" clip-path="url(#p8035739f5b)" style="stroke: #000000; stroke-width: 0.4"/>
    <path d="M 321.322314 355.204955 
C 322.259949 355.204955 323.159306 354.832429 323.822314 354.169421 
C 324.485322 353.506414 324.857848 352.607056 324.857848 351.669421 
C 324.857848 350.731787 324.485322 349.832429 323.822314 349.169421 
C 323.159306 348.506414 322.259949 348.133888 321.322314 348.133888 
C 320.384679 348.133888 319.485322 348.506414 318.822314 349.169421 
C 318.159306 349.832429 317.78678 350.731787 317.78678 351.669421 
C 317.78678 352.607056 318.159306 353.506414 318.822314 354.169421 
C 319.485322 354.832429 320.384679 355.204955 321.322314 355.204955 
z
" clip-path="url(#p8035739f5b)" style="fill: #808080; stroke: #000000; stroke-width: 0.4"/>
    <path d="M 297.024793 306.834711 
C 298.350809 306.834711 299.622693 306.307879 300.560327 305.370245 
C 301.497962 304.43261 302.024793 303.160726 302.024793 301.834711 
C 302.024793 300.508695 301.497962 299.236811 300.560327 298.299177 
C 299.622693 297.361542 298.350809 296.834711 297.024793 296.834711 
C 295.698778 296.834711 294.426894 297.361542 293.489259 298.299177 
C 292.551625 299.236811 292.024793 300.508695 292.024793 301.834711 
C 292.024793 303.160726 292.551625 304.43261 293.489259 305.370245 
C 294.426894 306.307879 295.698778 306.834711 297.024793 306.834711 
z
" clip-path="url(#p8035739f5b)" style="stroke: #000000; stroke-width: 0.4"/>
    <path d="M 272.727273 330.2876 
C 273.664907 330.2876 274.564265 329.915074 275.227273 329.252066 
C 275.89028 328.589058 276.262807 327.689701 276.262807 326.752066 
C 276.262807 325.814432 275.89028 324.915074 275.227273 324.252066 
C 274.564265 323.589058 273.664907 323.216532 272.727273 323.216532 
C 271.789638 323.216532 270.89028 323.589058 270.227273 324.252066 
C 269.564265 324.915074 269.191739 325.814432 269.191739 326.752066 
C 269.191739 327.689701 269.564265 328.589058 270.227273 329.252066 
C 270.89028 329.915074 271.789638 330.2876 272.727273 330.2876 
z
" clip-path="url(#p8035739f5b)" style="fill: #808080; stroke: #000000; stroke-width: 0.4"/>
    <path d="M 248.429752 306.834711 
C 249.755768 306.834711 251.027651 306.307879 251.965286 305.370245 
C 252.902921 304.43261 253.429752 303.160726 253.429752 301.834711 
C 253.429752 300.508695 252.902921 299.236811 251.965286 298.299177 
C 251.027651 297.361542 249.755768 296.834711 248.429752 296.834711 
C 247.103737 296.834711 245.831853 297.361542 244.894218 298.299177 
C 243.956584 299.236811 243.429752 300.508695 243.429752 301.834711 
C 243.429752 303.160726 243.956584 304.43261 244.894218 305.370245 
C 245.831853 306.307879 247.103737 306.834711 248.429752 306.834711 
z
" clip-path="url(#p8035739f5b)" style="stroke: #000000; stroke-width: 0.4"/>
    <path d="M 175.53719 281.917355 
C 176.863206 281.917355 178.135089 281.390524 179.072724 280.452889 
C 180.010359 279.515255 180.53719 278.243371 180.53719 276.917355 
C 180.53719 275.59134 180.010359 274.319456 179.072724 273.381821 
C 178.135089 272.444187 176.863206 271.917355 175.53719 271.917355 
C 174.211175 271.917355 172.939291 272.444187 172.001656 273.381821 
C 171.064022 274.319456 170.53719 275.59134 170.53719 276.917355 
C 170.53719 278.243371 171.064022 279.515255 172.001656 280.452889 
C 172.939291 281.390524 174.211175 281.917355 175.53719 281.917355 
z
" clip-path="url(#p8035739f5b)" style="stroke: #000000; stroke-width: 0.4"/>
    <path d="M 151.239669 305.370245 
C 152.177304 305.370245 153.076662 304.997718 153.739669 304.334711 
C 154.402677 303.671703 154.775203 302.772345 154.775203 301.834711 
C 154.775203 300.897076 154.402677 299.997718 153.739669 299.334711 
C 153.076662 298.671703 152.177304 298.299177 151.239669 298.299177 
C 150.302035 298.299177 149.402677 298.671703 148.739669 299.334711 
C 148.076662 299.997718 147.704136 300.897076 147.704136 301.834711 
C 147.704136 302.772345 148.076662 303.671703 148.739669 304.334711 
C 149.402677 304.997718 150.302035 305.370245 151.239669 305.370245 
z
" clip-path="url(#p8035739f5b)" style="fill: #808080; stroke: #000000; stroke-width: 0.4"/>
    <path d="M 612.892562 280.452889 
C 613.830197 280.452889 614.729554 280.080363 615.392562 279.417355 
C 616.05557 278.754348 616.428096 277.85499 616.428096 276.917355 
C 616.428096 275.979721 616.05557 275.080363 615.392562 274.417355 
C 614.729554 273.754348 613.830197 273.381821 612.892562 273.381821 
C 611.954927 273.381821 611.05557 273.754348 610.392562 274.417355 
C 609.729554 275.080363 609.357028 275.979721 609.357028 276.917355 
C 609.357028 277.85499 609.729554 278.754348 610.392562 279.417355 
C 611.05557 280.080363 611.954927 280.452889 612.892562 280.452889 
z
" clip-path="url(#p8035739f5b)" style="fill: #808080; stroke: #000000; stroke-width: 0.4"/>
    <path d="M 637.190083 280.452889 
C 638.127717 280.452889 639.027075 280.080363 639.690083 279.417355 
C 640.35309 278.754348 640.725617 277.85499 640.725617 276.917355 
C 640.725617 275.979721 640.35309 275.080363 639.690083 274.417355 
C 639.027075 273.754348 638.127717 273.381821 637.190083 273.381821 
C 636.252448 273.381821 635.35309 273.754348 634.690083 274.417355 
C 634.027075 275.080363 633.654549 275.979721 633.654549 276.917355 
C 633.654549 277.85499 634.027075 278.754348 634.690083 279.417355 
C 635.35309 280.080363 636.252448 280.452889 637.190083 280.452889 
z
" clip-path="url(#p8035739f5b)" style="fill: #808080; stroke: #000000; stroke-width: 0.4"/>
    <path d="M 588.595041 257 
C 589.921057 257 591.192941 256.473168 592.130575 255.535534 
C 593.06821 254.597899 593.595041 253.326016 593.595041 252 
C 593.595041 250.673985 593.06821 249.402101 592.130575 248.464466 
C 591.192941 247.526832 589.921057 247 588.595041 247 
C 587.269026 247 585.997142 247.526832 585.059507 248.464466 
C 584.121873 249.402101 583.595041 250.673985 583.595041 252 
C 583.595041 253.326016 584.121873 254.597899 585.059507 255.535534 
C 585.997142 256.473168 587.269026 257 588.595041 257 
z
" clip-path="url(#p8035739f5b)" style="fill: #ff0000; stroke: #000000; stroke-width: 0.4"/>
    <path d="M 126.942149 232.082645 
C 128.268164 232.082645 129.540048 231.555813 130.477683 230.618179 
C 131.415317 229.680544 131.942149 228.40866 131.942149 227.082645 
C 131.942149 225.756629 131.415317 224.484745 130.477683 223.547111 
C 129.540048 222.609476 128.268164 222.082645 126.942149 222.082645 
C 125.616133 222.082645 124.344249 222.609476 123.406615 223.547111 
C 122.46898 224.484745 121.942149 225.756629 121.942149 227.082645 
C 121.942149 228.40866 122.46898 229.680544 123.406615 230.618179 
C 124.344249 231.555813 125.616133 232.082645 126.942149 232.082645 
z
" clip-path="url(#p8035739f5b)" style="stroke: #000000; stroke-width: 0.4"/>
    <path d="M 102.644628 255.535534 
C 103.582263 255.535534 104.48162 255.163008 105.144628 254.5 
C 105.807636 253.836992 106.180162 252.937635 106.180162 252 
C 106.180162 251.062365 105.807636 250.163008 105.144628 249.5 
C 104.48162 248.836992 103.582263 248.464466 102.644628 248.464466 
C 101.706994 248.464466 100.807636 248.836992 100.144628 249.5 
C 99.48162 250.163008 99.109094 251.062365 99.109094 252 
C 99.109094 252.937635 99.48162 253.836992 100.144628 254.5 
C 100.807636 255.163008 101.706994 255.535534 102.644628 255.535534 
z
" clip-path="url(#p8035739f5b)" style="fill: #808080; stroke: #000000; stroke-width: 0.4"/>
    <path d="M 661.487603 207.165289 
C 662.813619 207.165289 664.085503 206.638458 665.023137 205.700823 
C 665.960772 204.763189 666.487603 203.491305 666.487603 202.165289 
C 666.487603 200.839274 665.960772 199.56739 665.023137 198.629755 
C 664.085503 197.692121 662.813619 197.165289 661.487603 197.165289 
C 660.161588 197.165289 658.889704 197.692121 657.952069 198.629755 
C 657.014435 199.56739 656.487603 200.839274 656.487603 202.165289 
C 656.487603 203.491305 657.014435 204.763189 657.952069 205.700823 
C 658.889704 206.638458 660.161588 207.165289 661.487603 207.165289 
z
" clip-path="url(#p8035739f5b)" style="stroke: #000000; stroke-width: 0.4"/>
    <path d="M 685.785124 230.618179 
C 686.722759 230.618179 687.622116 230.245652 688.285124 229.582645 
C 688.948132 228.919637 689.320658 228.020279 689.320658 227.082645 
C 689.320658 226.14501 688.948132 225.245652 688.285124 224.582645 
C 687.622116 223.919637 686.722759 223.547111 685.785124 223.547111 
C 684.847489 223.547111 683.948132 223.919637 683.285124 224.582645 
C 682.622116 225.245652 682.24959 226.14501 682.24959 227.082645 
C 682.24959 228.020279 682.622116 228.919637 683.285124 229.582645 
C 683.948132 230.245652 684.847489 230.618179 685.785124 230.618179 
z
" clip-path="url(#p8035739f5b)" style="fill: #808080; stroke: #000000; stroke-width: 0.4"/>
    <path d="M 710.082645 182.247934 
C 711.40866 182.247934 712.680544 181.721102 713.618179 180.783468 
C 714.555813 179.845833 715.082645 178.573949 715.082645 177.247934 
C 715.082645 175.921918 714.555813 174.650035 713.618179 173.7124 
C 712.680544 172.774765 711.40866 172.247934 710.082645 172.247934 
C 708.756629 172.247934 707.484745 172.774765 706.547111 173.7124 
C 705.609476 174.650035 705.082645 175.921918 705.082645 177.247934 
C 705.082645 178.573949 705.609476 179.845833 706.547111 180.783468 
C 707.484745 181.721102 708.756629 182.247934 710.082645 182.247934 
z
" clip-path="url(#p8035739f5b)" style="stroke: #000000; stroke-width: 0.4"/>
    <path d="M 734.380165 205.700823 
C 735.3178 205.700823 736.217158 205.328297 736.880165 204.665289 
C 737.543173 204.002282 737.915699 203.102924 737.915699 202.165289 
C 737.915699 201.227655 737.543173 200.328297 736.880165 199.665289 
C 736.217158 199.002282 735.3178 198.629755 734.380165 198.629755 
C 733.442531 198.629755 732.543173 199.002282 731.880165 199.665289 
C 731.217158 200.328297 730.844631 201.227655 730.844631 202.165289 
C 730.844631 203.102924 731.217158 204.002282 731.880165 204.665289 
C 732.543173 205.328297 733.442531 205.700823 734.380165 205.700823 
z
" clip-path="url(#p8035739f5b)" style="fill: #808080; stroke: #000000; stroke-width: 0.4"/>
    <path d="M 758.677686 157.330579 
C 760.003701 157.330579 761.275585 156.803747 762.21322 155.866112 
C 763.150854 154.928478 763.677686 153.656594 763.677686 152.330579 
C 763.677686 151.004563 763.150854 149.732679 762.21322 148.795045 
C 761.275585 147.85741 760.003701 147.330579 758.677686 147.330579 
C 757.35167 147.330579 756.079787 147.85741 755.142152 148.795045 
C 754.204517 149.732679 753.677686 151.004563 753.677686 152.330579 
C 753.677686 153.656594 754.204517 154.928478 755.142152 155.866112 
C 756.079787 156.803747 757.35167 157.330579 758.677686 157.330579 
z
" clip-path="url(#p8035739f5b)" style="stroke: #000000; stroke-width: 0.4"/>
    <path d="M 782.975207 180.783468 
C 783.912841 180.783468 784.812199 180.410942 785.475207 179.747934 
C 786.138214 179.084926 786.510741 178.185568 786.510741 177.247934 
C 786.510741 176.310299 786.138214 175.410942 785.475207 174.747934 
C 784.812199 174.084926 783.912841 173.7124 782.975207 173.7124 
C 782.037572 173.7124 781.138214 174.084926 780.475207 174.747934 
C 779.812199 175.410942 779.439673 176.310299 779.439673 177.247934 
C 779.439673 178.185568 779.812199 179.084926 780.475207 179.747934 
C 781.138214 180.410942 782.037572 180.783468 782.975207 180.783468 
z
" clip-path="url(#p8035739f5b)" style="fill: #808080; stroke: #000000; stroke-width: 0.4"/>
    <path d="M 807.272727 132.413223 
C 808.598743 132.413223 809.870627 131.886392 810.808261 130.948757 
C 811.745896 130.011122 812.272727 128.739239 812.272727 127.413223 
C 812.272727 126.087208 811.745896 124.815324 810.808261 123.877689 
C 809.870627 122.940055 808.598743 122.413223 807.272727 122.413223 
C 805.946712 122.413223 804.674828 122.940055 803.737193 123.877689 
C 802.799559 124.815324 802.272727 126.087208 802.272727 127.413223 
C 802.272727 128.739239 802.799559 130.011122 803.737193 130.948757 
C 804.674828 131.886392 805.946712 132.413223 807.272727 132.413223 
z
" clip-path="url(#p8035739f5b)" style="stroke: #000000; stroke-width: 0.4"/>
    <path d="M 831.570248 155.866112 
C 832.507882 155.866112 833.40724 155.493586 834.070248 154.830579 
C 834.733256 154.167571 835.105782 153.268213 835.105782 152.330579 
C 835.105782 151.392944 834.733256 150.493586 834.070248 149.830579 
C 833.40724 149.167571 832.507882 148.795045 831.570248 148.795045 
C 830.632613 148.795045 829.733256 149.167571 829.070248 149.830579 
C 828.40724 150.493586 828.034714 151.392944 828.034714 152.330579 
C 828.034714 153.268213 828.40724 154.167571 829.070248 154.830579 
C 829.733256 155.493586 830.632613 155.866112 831.570248 155.866112 
z
" clip-path="url(#p8035739f5b)" style="fill: #808080; stroke: #000000; stroke-width: 0.4"/>
    <path d="M 855.867769 107.495868 
C 857.193784 107.495868 858.465668 106.969036 859.403303 106.031402 
C 860.340937 105.093767 860.867769 103.821883 860.867769 102.495868 
C 860.867769 101.169852 860.340937 99.897968 859.403303 98.960334 
C 858.465668 98.022699 857.193784 97.495868 855.867769 97.495868 
C 854.541753 97.495868 853.269869 98.022699 852.332235 98.960334 
C 851.3946 99.897968 850.867769 101.169852 850.867769 102.495868 
C 850.867769 103.821883 851.3946 105.093767 852.332235 106.031402 
C 853.269869 106.969036 854.541753 107.495868 855.867769 107.495868 
z
" clip-path="url(#p8035739f5b)" style="stroke: #000000; stroke-width: 0.4"/>
    <path d="M 880.165289 130.948757 
C 881.102924 130.948757 882.002282 130.576231 882.665289 129.913223 
C 883.328297 129.250215 883.700823 128.350858 883.700823 127.413223 
C 883.700823 126.475589 883.328297 125.576231 882.665289 124.913223 
C 882.002282 124.250215 881.102924 123.877689 880.165289 123.877689 
C 879.227655 123.877689 878.328297 124.250215 877.665289 124.913223 
C 877.002282 125.576231 876.629755 126.475589 876.629755 127.413223 
C 876.629755 128.350858 877.002282 129.250215 877.665289 129.913223 
C 878.328297 130.576231 879.227655 130.948757 880.165289 130.948757 
z
" clip-path="url(#p8035739f5b)" style="fill: #808080; stroke: #000000; stroke-width: 0.4"/>
    <path d="M 904.46281 82.578512 
C 905.788825 82.578512 907.060709 82.051681 907.998344 81.114046 
C 908.935978 80.176412 909.46281 78.904528 909.46281 77.578512 
C 909.46281 76.252497 908.935978 74.980613 907.998344 74.042978 
C 907.060709 73.105344 905.788825 72.578512 904.46281 72.578512 
C 903.136794 72.578512 901.864911 73.105344 900.927276 74.042978 
C 899.989641 74.980613 899.46281 76.252497 899.46281 77.578512 
C 899.46281 78.904528 899.989641 80.176412 900.927276 81.114046 
C 901.864911 82.051681 903.136794 82.578512 904.46281 82.578512 
z
" clip-path="url(#p8035739f5b)" style="stroke: #000000; stroke-width: 0.4"/>
    <path d="M 928.760331 106.031402 
C 929.697965 106.031402 930.597323 105.658876 931.260331 104.995868 
C 931.923338 104.33286 932.295864 103.433502 932.295864 102.495868 
C 932.295864 101.558233 931.923338 100.658876 931.260331 99.995868 
C 930.597323 99.33286 929.697965 98.960334 928.760331 98.960334 
C 927.822696 98.960334 926.923338 99.33286 926.260331 99.995868 
C 925.597323 100.658876 925.224797 101.558233 925.224797 102.495868 
C 925.224797 103.433502 925.597323 104.33286 926.260331 104.995868 
C 926.923338 105.658876 927.822696 106.031402 928.760331 106.031402 
z
" clip-path="url(#p8035739f5b)" style="fill: #808080; stroke: #000000; stroke-width: 0.4"/>
    <path d="M 953.057851 57.661157 
C 954.383867 57.661157 955.655751 57.134325 956.593385 56.196691 
C 957.53102 55.259056 958.057851 53.987173 958.057851 52.661157 
C 958.057851 51.335142 957.53102 50.063258 956.593385 49.125623 
C 955.655751 48.187989 954.383867 47.661157 953.057851 47.661157 
C 951.731836 47.661157 950.459952 48.187989 949.522317 49.125623 
C 948.584683 50.063258 948.057851 51.335142 948.057851 52.661157 
C 948.057851 53.987173 948.584683 55.259056 949.522317 56.196691 
C 950.459952 57.134325 951.731836 57.661157 953.057851 57.661157 
z
" clip-path="url(#p8035739f5b)" style="stroke: #000000; stroke-width: 0.4"/>
    <path d="M 977.355372 81.114046 
C 978.293006 81.114046 979.192364 80.74152 979.855372 80.078512 
C 980.51838 79.415505 980.890906 78.516147 980.890906 77.578512 
C 980.890906 76.640878 980.51838 75.74152 979.855372 75.078512 
C 979.192364 74.415505 978.293006 74.042978 977.355372 74.042978 
C 976.417737 74.042978 975.51838 74.415505 974.855372 75.078512 
C 974.192364 75.74152 973.819838 76.640878 973.819838 77.578512 
C 973.819838 78.516147 974.192364 79.415505 974.855372 80.078512 
C 975.51838 80.74152 976.417737 81.114046 977.355372 81.114046 
z
" clip-path="url(#p8035739f5b)" style="fill: #808080; stroke: #000000; stroke-width: 0.4"/>
   </g>
   <g id="line2d_1">
    <path d="M 588.595041 493.2 
L 588.595041 10.8 
" clip-path="url(#p8035739f5b)" style="fill: none; stroke: #ff0000; stroke-width: 1.5; stroke-linecap: square"/>
   </g>
   <g id="patch_3">
    <path d="M 10.8 493.2 
L 10.8 10.8 
" style="fill: none; stroke: #000000; stroke-width: 0.8; stroke-linejoin: miter; stroke-linecap: square"/>
   </g>
   <g id="patch_4">
    <path d="M 1069.2 493.2 
L 1069.2 10.8 
" style="fill: none; stroke: #000000; stroke-width: 0.8; stroke-linejoin: miter; stroke-linecap: square"/>
   </g>
   <g id="patch_5">
    <path d="M 10.8 493.2 
L 1069.2 493.2 
" style="fill: none; stroke: #000000; stroke-width: 0.8; stroke-linejoin: miter; stroke-linecap: square"/>
   </g>
   <g id="patch_6">
    <path d="M 10.8 10.8 
L 1069.2 10.8 
" style="fill: none; stroke: #000000; stroke-width: 0.8; stroke-linejoin: miter; stroke-linecap: square"/>
   </g>
   <g id="text_1">
    <!-- LE -->
    <g transform="translate(544.297521 471.338843)scale(0.12 -0.12)">
     <defs>
      <path id="DejaVuSans-4c" d="M 628 4666 
L 1259 4666 
L 1259 531 
L 3531 531 
L 3531 0 
L 628 0 
L 628 4666 
z
" transform="scale(0.015625)"/>
      <path id="DejaVuSans-45" d="M 628 4666 
L 3578 4666 
L 3578 4134 
L 1259 4134 
L 1259 2753 
L 3481 2753 
L 3481 2222 
L 1259 2222 
L 1259 531 
L 3634 531 
L 3634 0 
L 628 0 
L 628 4666 
z
" transform="scale(0.015625)"/>
     </defs>
     <use xlink:href="#DejaVuSans-4c"/>
     <use xlink:href="#DejaVuSans-45" x="55.712891"/>
    </g>
   </g>
   <g id="text_2">
    <!-- KN -->
    <g transform="translate(598.595041 247)scale(0.12 -0.12)">
     <defs>
      <path id="DejaVuSans-4b" d="M 628 4666 
L 1259 4666 
L 1259 2694 
L 3353 4666 
L 4166 4666 
L 1850 2491 
L 4331 0 
L 3500 0 
L 1259 2247 
L 1259 0 
L 628 0 
L 628 4666 
z
" transform="scale(0.015625)"/>
      <path id="DejaVuSans-4e" d="M 628 4666 
L 1478 4666 
L 3547 763 
L 3547 4666 
L 4159 4666 
L 4159 0 
L 3309 0 
L 1241 3903 
L 1241 0 
L 628 0 
L 628 4666 
z
" transform="scale(0.015625)"/>
     </defs>
     <use xlink:href="#DejaVuSans-4b"/>
     <use xlink:href="#DejaVuSans-4e" x="65.576172"/>
    </g>
   </g>
  </g>
 </g>
 <defs>
  <clipPath id="p8035739f5b">
   <rect x="10.8" y="10.8" width="1058.4" height="482.4"/>
  </clipPath>
 </defs>
</svg>
