<?xml version="1.0" encoding="utf-8" standalone="no"?>
<!DOCTYPE svg PUBLIC "-//W3C//DTD SVG 1.1//EN"
  "http://www.w3.org/Graphics/SVG/1.1/DTD/svg11.dtd">
<svg xmlns:xlink="http://www.w3.org/1999/xlink" width="1080pt" height="504pt" viewBox="0 0 1080 504" xmlns="http://www.w3.org/2000/svg" version="1.1">
 <metadata>
  <rdf:RDF xmlns:dc="http://purl.org/dc/elements/1.1/" xmlns:cc="http://creativecommons.org/ns#" xmlns:rdf="http://www.w3.org/1999/02/22-rdf-syntax-ns#">
   <cc:Work>
    <dc:type rdf:resource="http://purl.org/dc/dcmitype/StillImage"/>
    <dc:date>2022-04-20T08:05:11.609849</dc:date>
    <dc:format>image/svg+xml</dc:format>
    <dc:creator>
     <cc:Agent>
      <dc:title>Matplotlib v3.5.1, https://matplotlib.org/</dc:title>
     </cc:Agent>
    </dc:creator>
   </cc:Work>
  </rdf:RDF>
 </metadata>
 <defs>
  <style type="text/css">*{stroke-linejoin: round; stroke-linecap: butt}</style>
 </defs>
 <g id="figure_1">
  <g id="patch_1">
   <path d="M 0 504 
L 1080 504 
L 1080 0 
L 0 0 
z
" style="fill: #ffffff"/>
  </g>
  <g id="axes_1">
   <g id="patch_2">
    <path d="M 10.8 493.2 
L 1069.2 493.2 
L 1069.2 10.8 
L 10.8 10.8 
z
" style="fill: #ffffff"/>
   </g>
   <g id="LineCollection_1">
    <path d="M 136.287349 141.256198 
L 153.108709 141.256198 
" clip-path="url(#p3ce807a82d)" style="fill: none; stroke: #000000; stroke-width: 0.4"/>
    <path d="M 136.287349 141.256198 
L 119.465989 96.958678 
" clip-path="url(#p3ce807a82d)" style="fill: none; stroke: #000000; stroke-width: 0.4"/>
    <path d="M 119.465989 96.958678 
L 102.644628 141.256198 
" clip-path="url(#p3ce807a82d)" style="fill: none; stroke: #000000; stroke-width: 0.4"/>
    <path d="M 119.465989 96.958678 
L 169.93007 52.661157 
" clip-path="url(#p3ce807a82d)" style="fill: none; stroke: #000000; stroke-width: 0.4"/>
    <path d="M 186.75143 229.85124 
L 203.572791 229.85124 
" clip-path="url(#p3ce807a82d)" style="fill: none; stroke: #000000; stroke-width: 0.4"/>
    <path d="M 186.75143 229.85124 
L 220.394151 185.553719 
" clip-path="url(#p3ce807a82d)" style="fill: none; stroke: #000000; stroke-width: 0.4"/>
    <path d="M 220.394151 185.553719 
L 237.215512 229.85124 
" clip-path="url(#p3ce807a82d)" style="fill: none; stroke: #000000; stroke-width: 0.4"/>
    <path d="M 220.394151 185.553719 
L 254.036872 141.256198 
" clip-path="url(#p3ce807a82d)" style="fill: none; stroke: #000000; stroke-width: 0.4"/>
    <path d="M 321.322314 229.85124 
L 304.500954 274.14876 
" clip-path="url(#p3ce807a82d)" style="fill: none; stroke: #000000; stroke-width: 0.4"/>
    <path d="M 321.322314 229.85124 
L 338.143675 274.14876 
" clip-path="url(#p3ce807a82d)" style="fill: none; stroke: #000000; stroke-width: 0.4"/>
    <path d="M 321.322314 229.85124 
L 287.679593 229.85124 
" clip-path="url(#p3ce807a82d)" style="fill: none; stroke: #000000; stroke-width: 0.4"/>
    <path d="M 287.679593 229.85124 
L 270.858233 274.14876 
" clip-path="url(#p3ce807a82d)" style="fill: none; stroke: #000000; stroke-width: 0.4"/>
    <path d="M 287.679593 229.85124 
L 354.965035 185.553719 
" clip-path="url(#p3ce807a82d)" style="fill: none; stroke: #000000; stroke-width: 0.4"/>
    <path d="M 405.429116 274.14876 
L 422.250477 274.14876 
" clip-path="url(#p3ce807a82d)" style="fill: none; stroke: #000000; stroke-width: 0.4"/>
    <path d="M 405.429116 274.14876 
L 388.607756 229.85124 
" clip-path="url(#p3ce807a82d)" style="fill: none; stroke: #000000; stroke-width: 0.4"/>
    <path d="M 388.607756 229.85124 
L 371.786395 274.14876 
" clip-path="url(#p3ce807a82d)" style="fill: none; stroke: #000000; stroke-width: 0.4"/>
    <path d="M 388.607756 229.85124 
L 439.071837 185.553719 
" clip-path="url(#p3ce807a82d)" style="fill: none; stroke: #000000; stroke-width: 0.4"/>
    <path d="M 455.893198 318.446281 
L 472.714558 318.446281 
" clip-path="url(#p3ce807a82d)" style="fill: none; stroke: #000000; stroke-width: 0.4"/>
    <path d="M 455.893198 318.446281 
L 489.535919 274.14876 
" clip-path="url(#p3ce807a82d)" style="fill: none; stroke: #000000; stroke-width: 0.4"/>
    <path d="M 506.357279 318.446281 
L 523.17864 318.446281 
" clip-path="url(#p3ce807a82d)" style="fill: none; stroke: #000000; stroke-width: 0.4"/>
    <path d="M 506.357279 318.446281 
L 489.535919 274.14876 
" clip-path="url(#p3ce807a82d)" style="fill: none; stroke: #000000; stroke-width: 0.4"/>
    <path d="M 489.535919 274.14876 
L 540 229.85124 
" clip-path="url(#p3ce807a82d)" style="fill: none; stroke: #000000; stroke-width: 0.4"/>
    <path d="M 573.642721 318.446281 
L 556.82136 362.743802 
" clip-path="url(#p3ce807a82d)" style="fill: none; stroke: #000000; stroke-width: 0.4"/>
    <path d="M 573.642721 318.446281 
L 590.464081 362.743802 
" clip-path="url(#p3ce807a82d)" style="fill: none; stroke: #000000; stroke-width: 0.4"/>
    <path d="M 573.642721 318.446281 
L 607.285442 274.14876 
" clip-path="url(#p3ce807a82d)" style="fill: none; stroke: #000000; stroke-width: 0.4"/>
    <path d="M 624.106802 407.041322 
L 640.928163 407.041322 
" clip-path="url(#p3ce807a82d)" style="fill: none; stroke: #000000; stroke-width: 0.4"/>
    <path d="M 624.106802 407.041322 
L 657.749523 362.743802 
" clip-path="url(#p3ce807a82d)" style="fill: none; stroke: #000000; stroke-width: 0.4"/>
    <path d="M 657.749523 362.743802 
L 674.570884 407.041322 
" clip-path="url(#p3ce807a82d)" style="fill: none; stroke: #000000; stroke-width: 0.4"/>
    <path d="M 657.749523 362.743802 
L 691.392244 318.446281 
" clip-path="url(#p3ce807a82d)" style="fill: none; stroke: #000000; stroke-width: 0.4"/>
    <path d="M 725.034965 407.041322 
L 708.213605 451.338843 
" clip-path="url(#p3ce807a82d)" style="fill: none; stroke: #000000; stroke-width: 0.4"/>
    <path d="M 725.034965 407.041322 
L 741.856325 451.338843 
" clip-path="url(#p3ce807a82d)" style="fill: none; stroke: #000000; stroke-width: 0.4"/>
    <path d="M 725.034965 407.041322 
L 758.677686 362.743802 
" clip-path="url(#p3ce807a82d)" style="fill: none; stroke: #000000; stroke-width: 0.4"/>
    <path d="M 792.320407 407.041322 
L 775.499046 451.338843 
" clip-path="url(#p3ce807a82d)" style="fill: none; stroke: #000000; stroke-width: 0.4"/>
    <path d="M 792.320407 407.041322 
L 809.141767 451.338843 
" clip-path="url(#p3ce807a82d)" style="fill: none; stroke: #000000; stroke-width: 0.4"/>
    <path d="M 792.320407 407.041322 
L 758.677686 362.743802 
" clip-path="url(#p3ce807a82d)" style="fill: none; stroke: #000000; stroke-width: 0.4"/>
    <path d="M 758.677686 362.743802 
L 691.392244 318.446281 
" clip-path="url(#p3ce807a82d)" style="fill: none; stroke: #000000; stroke-width: 0.4"/>
    <path d="M 691.392244 318.446281 
L 607.285442 274.14876 
" clip-path="url(#p3ce807a82d)" style="fill: none; stroke: #000000; stroke-width: 0.4"/>
    <path d="M 607.285442 274.14876 
L 540 229.85124 
" clip-path="url(#p3ce807a82d)" style="fill: none; stroke: #000000; stroke-width: 0.4"/>
    <path d="M 540 229.85124 
L 439.071837 185.553719 
" clip-path="url(#p3ce807a82d)" style="fill: none; stroke: #000000; stroke-width: 0.4"/>
    <path d="M 439.071837 185.553719 
L 354.965035 185.553719 
" clip-path="url(#p3ce807a82d)" style="fill: none; stroke: #000000; stroke-width: 0.4"/>
    <path d="M 354.965035 185.553719 
L 254.036872 141.256198 
" clip-path="url(#p3ce807a82d)" style="fill: none; stroke: #000000; stroke-width: 0.4"/>
    <path d="M 254.036872 141.256198 
L 825.963128 96.958678 
" clip-path="url(#p3ce807a82d)" style="fill: none; stroke: #000000; stroke-width: 0.4"/>
    <path d="M 893.24857 141.256198 
L 876.427209 185.553719 
" clip-path="url(#p3ce807a82d)" style="fill: none; stroke: #000000; stroke-width: 0.4"/>
    <path d="M 893.24857 141.256198 
L 910.06993 185.553719 
" clip-path="url(#p3ce807a82d)" style="fill: none; stroke: #000000; stroke-width: 0.4"/>
    <path d="M 893.24857 141.256198 
L 859.605849 141.256198 
" clip-path="url(#p3ce807a82d)" style="fill: none; stroke: #000000; stroke-width: 0.4"/>
    <path d="M 859.605849 141.256198 
L 842.784488 185.553719 
" clip-path="url(#p3ce807a82d)" style="fill: none; stroke: #000000; stroke-width: 0.4"/>
    <path d="M 859.605849 141.256198 
L 825.963128 96.958678 
" clip-path="url(#p3ce807a82d)" style="fill: none; stroke: #000000; stroke-width: 0.4"/>
    <path d="M 825.963128 96.958678 
L 169.93007 52.661157 
" clip-path="url(#p3ce807a82d)" style="fill: none; stroke: #000000; stroke-width: 0.4"/>
    <path d="M 960.534011 96.958678 
L 977.355372 96.958678 
" clip-path="url(#p3ce807a82d)" style="fill: none; stroke: #000000; stroke-width: 0.4"/>
    <path d="M 960.534011 96.958678 
L 943.712651 52.661157 
" clip-path="url(#p3ce807a82d)" style="fill: none; stroke: #000000; stroke-width: 0.4"/>
    <path d="M 943.712651 52.661157 
L 926.891291 96.958678 
" clip-path="url(#p3ce807a82d)" style="fill: none; stroke: #000000; stroke-width: 0.4"/>
   </g>
   <g id="matplotlib.axis_1">
    <g id="xtick_1"/>
    <g id="xtick_2"/>
    <g id="xtick_3"/>
    <g id="xtick_4"/>
    <g id="xtick_5"/>
    <g id="xtick_6"/>
   </g>
   <g id="matplotlib.axis_2">
    <g id="ytick_1"/>
    <g id="ytick_2"/>
    <g id="ytick_3"/>
    <g id="ytick_4"/>
    <g id="ytick_5"/>
   </g>
   <g id="PathCollection_1">
    <path d="M 136.287349 144.791732 
C 137.224984 144.791732 138.124341 144.419206 138.787349 143.756198 
C 139.450357 143.093191 139.822883 142.193833 139.822883 141.256198 
C 139.822883 140.318564 139.450357 139.419206 138.787349 138.756198 
C 138.124341 138.093191 137.224984 137.720664 136.287349 137.720664 
C 135.349714 137.720664 134.450357 138.093191 133.787349 138.756198 
C 133.124341 139.419206 132.751815 140.318564 132.751815 141.256198 
C 132.751815 142.193833 133.124341 143.093191 133.787349 143.756198 
C 134.450357 144.419206 135.349714 144.791732 136.287349 144.791732 
z
" clip-path="url(#p3ce807a82d)" style="fill: #808080; stroke: #000000; stroke-width: 0.4"/>
    <path d="M 153.108709 144.791732 
C 154.046344 144.791732 154.945702 144.419206 155.608709 143.756198 
C 156.271717 143.093191 156.644243 142.193833 156.644243 141.256198 
C 156.644243 140.318564 156.271717 139.419206 155.608709 138.756198 
C 154.945702 138.093191 154.046344 137.720664 153.108709 137.720664 
C 152.171075 137.720664 151.271717 138.093191 150.608709 138.756198 
C 149.945702 139.419206 149.573176 140.318564 149.573176 141.256198 
C 149.573176 142.193833 149.945702 143.093191 150.608709 143.756198 
C 151.271717 144.419206 152.171075 144.791732 153.108709 144.791732 
z
" clip-path="url(#p3ce807a82d)" style="fill: #808080; stroke: #000000; stroke-width: 0.4"/>
    <path d="M 119.465989 100.494212 
C 120.403623 100.494212 121.302981 100.121685 121.965989 99.458678 
C 122.628996 98.79567 123.001522 97.896312 123.001522 96.958678 
C 123.001522 96.021043 122.628996 95.121685 121.965989 94.458678 
C 121.302981 93.79567 120.403623 93.423144 119.465989 93.423144 
C 118.528354 93.423144 117.628996 93.79567 116.965989 94.458678 
C 116.302981 95.121685 115.930455 96.021043 115.930455 96.958678 
C 115.930455 97.896312 116.302981 98.79567 116.965989 99.458678 
C 117.628996 100.121685 118.528354 100.494212 119.465989 100.494212 
z
" clip-path="url(#p3ce807a82d)" style="fill: #808080; stroke: #000000; stroke-width: 0.4"/>
    <path d="M 102.644628 144.791732 
C 103.582263 144.791732 104.48162 144.419206 105.144628 143.756198 
C 105.807636 143.093191 106.180162 142.193833 106.180162 141.256198 
C 106.180162 140.318564 105.807636 139.419206 105.144628 138.756198 
C 104.48162 138.093191 103.582263 137.720664 102.644628 137.720664 
C 101.706994 137.720664 100.807636 138.093191 100.144628 138.756198 
C 99.48162 139.419206 99.109094 140.318564 99.109094 141.256198 
C 99.109094 142.193833 99.48162 143.093191 100.144628 143.756198 
C 100.807636 144.419206 101.706994 144.791732 102.644628 144.791732 
z
" clip-path="url(#p3ce807a82d)" style="fill: #808080; stroke: #000000; stroke-width: 0.4"/>
    <path d="M 186.75143 233.386774 
C 187.689065 233.386774 188.588423 233.014247 189.25143 232.35124 
C 189.914438 231.688232 190.286964 230.788874 190.286964 229.85124 
C 190.286964 228.913605 189.914438 228.014247 189.25143 227.35124 
C 188.588423 226.688232 187.689065 226.315706 186.75143 226.315706 
C 185.813796 226.315706 184.914438 226.688232 184.25143 227.35124 
C 183.588423 228.014247 183.215896 228.913605 183.215896 229.85124 
C 183.215896 230.788874 183.588423 231.688232 184.25143 232.35124 
C 184.914438 233.014247 185.813796 233.386774 186.75143 233.386774 
z
" clip-path="url(#p3ce807a82d)" style="fill: #808080; stroke: #000000; stroke-width: 0.4"/>
    <path d="M 203.572791 233.386774 
C 204.510425 233.386774 205.409783 233.014247 206.072791 232.35124 
C 206.735799 231.688232 207.108325 230.788874 207.108325 229.85124 
C 207.108325 228.913605 206.735799 228.014247 206.072791 227.35124 
C 205.409783 226.688232 204.510425 226.315706 203.572791 226.315706 
C 202.635156 226.315706 201.735799 226.688232 201.072791 227.35124 
C 200.409783 228.014247 200.037257 228.913605 200.037257 229.85124 
C 200.037257 230.788874 200.409783 231.688232 201.072791 232.35124 
C 201.735799 233.014247 202.635156 233.386774 203.572791 233.386774 
z
" clip-path="url(#p3ce807a82d)" style="fill: #808080; stroke: #000000; stroke-width: 0.4"/>
    <path d="M 220.394151 189.089253 
C 221.331786 189.089253 222.231144 188.716727 222.894151 188.053719 
C 223.557159 187.390711 223.929685 186.491354 223.929685 185.553719 
C 223.929685 184.616084 223.557159 183.716727 222.894151 183.053719 
C 222.231144 182.390711 221.331786 182.018185 220.394151 182.018185 
C 219.456517 182.018185 218.557159 182.390711 217.894151 183.053719 
C 217.231144 183.716727 216.858617 184.616084 216.858617 185.553719 
C 216.858617 186.491354 217.231144 187.390711 217.894151 188.053719 
C 218.557159 188.716727 219.456517 189.089253 220.394151 189.089253 
z
" clip-path="url(#p3ce807a82d)" style="fill: #808080; stroke: #000000; stroke-width: 0.4"/>
    <path d="M 237.215512 233.386774 
C 238.153146 233.386774 239.052504 233.014247 239.715512 232.35124 
C 240.37852 231.688232 240.751046 230.788874 240.751046 229.85124 
C 240.751046 228.913605 240.37852 228.014247 239.715512 227.35124 
C 239.052504 226.688232 238.153146 226.315706 237.215512 226.315706 
C 236.277877 226.315706 235.37852 226.688232 234.715512 227.35124 
C 234.052504 228.014247 233.679978 228.913605 233.679978 229.85124 
C 233.679978 230.788874 234.052504 231.688232 234.715512 232.35124 
C 235.37852 233.014247 236.277877 233.386774 237.215512 233.386774 
z
" clip-path="url(#p3ce807a82d)" style="fill: #808080; stroke: #000000; stroke-width: 0.4"/>
    <path d="M 321.322314 233.386774 
C 322.259949 233.386774 323.159306 233.014247 323.822314 232.35124 
C 324.485322 231.688232 324.857848 230.788874 324.857848 229.85124 
C 324.857848 228.913605 324.485322 228.014247 323.822314 227.35124 
C 323.159306 226.688232 322.259949 226.315706 321.322314 226.315706 
C 320.384679 226.315706 319.485322 226.688232 318.822314 227.35124 
C 318.159306 228.014247 317.78678 228.913605 317.78678 229.85124 
C 317.78678 230.788874 318.159306 231.688232 318.822314 232.35124 
C 319.485322 233.014247 320.384679 233.386774 321.322314 233.386774 
z
" clip-path="url(#p3ce807a82d)" style="fill: #808080; stroke: #000000; stroke-width: 0.4"/>
    <path d="M 304.500954 277.684294 
C 305.438588 277.684294 306.337946 277.311768 307.000954 276.64876 
C 307.663961 275.985753 308.036487 275.086395 308.036487 274.14876 
C 308.036487 273.211126 307.663961 272.311768 307.000954 271.64876 
C 306.337946 270.985753 305.438588 270.613226 304.500954 270.613226 
C 303.563319 270.613226 302.663961 270.985753 302.000954 271.64876 
C 301.337946 272.311768 300.96542 273.211126 300.96542 274.14876 
C 300.96542 275.086395 301.337946 275.985753 302.000954 276.64876 
C 302.663961 277.311768 303.563319 277.684294 304.500954 277.684294 
z
" clip-path="url(#p3ce807a82d)" style="fill: #808080; stroke: #000000; stroke-width: 0.4"/>
    <path d="M 338.143675 277.684294 
C 339.081309 277.684294 339.980667 277.311768 340.643675 276.64876 
C 341.306682 275.985753 341.679208 275.086395 341.679208 274.14876 
C 341.679208 273.211126 341.306682 272.311768 340.643675 271.64876 
C 339.980667 270.985753 339.081309 270.613226 338.143675 270.613226 
C 337.20604 270.613226 336.306682 270.985753 335.643675 271.64876 
C 334.980667 272.311768 334.608141 273.211126 334.608141 274.14876 
C 334.608141 275.086395 334.980667 275.985753 335.643675 276.64876 
C 336.306682 277.311768 337.20604 277.684294 338.143675 277.684294 
z
" clip-path="url(#p3ce807a82d)" style="fill: #808080; stroke: #000000; stroke-width: 0.4"/>
    <path d="M 287.679593 233.386774 
C 288.617228 233.386774 289.516585 233.014247 290.179593 232.35124 
C 290.842601 231.688232 291.215127 230.788874 291.215127 229.85124 
C 291.215127 228.913605 290.842601 228.014247 290.179593 227.35124 
C 289.516585 226.688232 288.617228 226.315706 287.679593 226.315706 
C 286.741959 226.315706 285.842601 226.688232 285.179593 227.35124 
C 284.516585 228.014247 284.144059 228.913605 284.144059 229.85124 
C 284.144059 230.788874 284.516585 231.688232 285.179593 232.35124 
C 285.842601 233.014247 286.741959 233.386774 287.679593 233.386774 
z
" clip-path="url(#p3ce807a82d)" style="fill: #808080; stroke: #000000; stroke-width: 0.4"/>
    <path d="M 270.858233 277.684294 
C 271.795867 277.684294 272.695225 277.311768 273.358233 276.64876 
C 274.02124 275.985753 274.393767 275.086395 274.393767 274.14876 
C 274.393767 273.211126 274.02124 272.311768 273.358233 271.64876 
C 272.695225 270.985753 271.795867 270.613226 270.858233 270.613226 
C 269.920598 270.613226 269.02124 270.985753 268.358233 271.64876 
C 267.695225 272.311768 267.322699 273.211126 267.322699 274.14876 
C 267.322699 275.086395 267.695225 275.985753 268.358233 276.64876 
C 269.02124 277.311768 269.920598 277.684294 270.858233 277.684294 
z
" clip-path="url(#p3ce807a82d)" style="fill: #808080; stroke: #000000; stroke-width: 0.4"/>
    <path d="M 405.429116 277.684294 
C 406.366751 277.684294 407.266109 277.311768 407.929116 276.64876 
C 408.592124 275.985753 408.96465 275.086395 408.96465 274.14876 
C 408.96465 273.211126 408.592124 272.311768 407.929116 271.64876 
C 407.266109 270.985753 406.366751 270.613226 405.429116 270.613226 
C 404.491482 270.613226 403.592124 270.985753 402.929116 271.64876 
C 402.266109 272.311768 401.893582 273.211126 401.893582 274.14876 
C 401.893582 275.086395 402.266109 275.985753 402.929116 276.64876 
C 403.592124 277.311768 404.491482 277.684294 405.429116 277.684294 
z
" clip-path="url(#p3ce807a82d)" style="fill: #808080; stroke: #000000; stroke-width: 0.4"/>
    <path d="M 422.250477 277.684294 
C 423.188111 277.684294 424.087469 277.311768 424.750477 276.64876 
C 425.413485 275.985753 425.786011 275.086395 425.786011 274.14876 
C 425.786011 273.211126 425.413485 272.311768 424.750477 271.64876 
C 424.087469 270.985753 423.188111 270.613226 422.250477 270.613226 
C 421.312842 270.613226 420.413485 270.985753 419.750477 271.64876 
C 419.087469 272.311768 418.714943 273.211126 418.714943 274.14876 
C 418.714943 275.086395 419.087469 275.985753 419.750477 276.64876 
C 420.413485 277.311768 421.312842 277.684294 422.250477 277.684294 
z
" clip-path="url(#p3ce807a82d)" style="fill: #808080; stroke: #000000; stroke-width: 0.4"/>
    <path d="M 388.607756 233.386774 
C 389.54539 233.386774 390.444748 233.014247 391.107756 232.35124 
C 391.770764 231.688232 392.14329 230.788874 392.14329 229.85124 
C 392.14329 228.913605 391.770764 228.014247 391.107756 227.35124 
C 390.444748 226.688232 389.54539 226.315706 388.607756 226.315706 
C 387.670121 226.315706 386.770764 226.688232 386.107756 227.35124 
C 385.444748 228.014247 385.072222 228.913605 385.072222 229.85124 
C 385.072222 230.788874 385.444748 231.688232 386.107756 232.35124 
C 386.770764 233.014247 387.670121 233.386774 388.607756 233.386774 
z
" clip-path="url(#p3ce807a82d)" style="fill: #808080; stroke: #000000; stroke-width: 0.4"/>
    <path d="M 371.786395 277.684294 
C 372.72403 277.684294 373.623388 277.311768 374.286395 276.64876 
C 374.949403 275.985753 375.321929 275.086395 375.321929 274.14876 
C 375.321929 273.211126 374.949403 272.311768 374.286395 271.64876 
C 373.623388 270.985753 372.72403 270.613226 371.786395 270.613226 
C 370.848761 270.613226 369.949403 270.985753 369.286395 271.64876 
C 368.623388 272.311768 368.250862 273.211126 368.250862 274.14876 
C 368.250862 275.086395 368.623388 275.985753 369.286395 276.64876 
C 369.949403 277.311768 370.848761 277.684294 371.786395 277.684294 
z
" clip-path="url(#p3ce807a82d)" style="fill: #808080; stroke: #000000; stroke-width: 0.4"/>
    <path d="M 455.893198 321.981815 
C 456.830832 321.981815 457.73019 321.609289 458.393198 320.946281 
C 459.056205 320.283273 459.428732 319.383916 459.428732 318.446281 
C 459.428732 317.508646 459.056205 316.609289 458.393198 315.946281 
C 457.73019 315.283273 456.830832 314.910747 455.893198 314.910747 
C 454.955563 314.910747 454.056205 315.283273 453.393198 315.946281 
C 452.73019 316.609289 452.357664 317.508646 452.357664 318.446281 
C 452.357664 319.383916 452.73019 320.283273 453.393198 320.946281 
C 454.056205 321.609289 454.955563 321.981815 455.893198 321.981815 
z
" clip-path="url(#p3ce807a82d)" style="fill: #808080; stroke: #000000; stroke-width: 0.4"/>
    <path d="M 472.714558 321.981815 
C 473.652193 321.981815 474.55155 321.609289 475.214558 320.946281 
C 475.877566 320.283273 476.250092 319.383916 476.250092 318.446281 
C 476.250092 317.508646 475.877566 316.609289 475.214558 315.946281 
C 474.55155 315.283273 473.652193 314.910747 472.714558 314.910747 
C 471.776924 314.910747 470.877566 315.283273 470.214558 315.946281 
C 469.55155 316.609289 469.179024 317.508646 469.179024 318.446281 
C 469.179024 319.383916 469.55155 320.283273 470.214558 320.946281 
C 470.877566 321.609289 471.776924 321.981815 472.714558 321.981815 
z
" clip-path="url(#p3ce807a82d)" style="fill: #808080; stroke: #000000; stroke-width: 0.4"/>
    <path d="M 506.357279 321.981815 
C 507.294914 321.981815 508.194271 321.609289 508.857279 320.946281 
C 509.520287 320.283273 509.892813 319.383916 509.892813 318.446281 
C 509.892813 317.508646 509.520287 316.609289 508.857279 315.946281 
C 508.194271 315.283273 507.294914 314.910747 506.357279 314.910747 
C 505.419645 314.910747 504.520287 315.283273 503.857279 315.946281 
C 503.194271 316.609289 502.821745 317.508646 502.821745 318.446281 
C 502.821745 319.383916 503.194271 320.283273 503.857279 320.946281 
C 504.520287 321.609289 505.419645 321.981815 506.357279 321.981815 
z
" clip-path="url(#p3ce807a82d)" style="fill: #808080; stroke: #000000; stroke-width: 0.4"/>
    <path d="M 523.17864 321.981815 
C 524.116274 321.981815 525.015632 321.609289 525.67864 320.946281 
C 526.341647 320.283273 526.714173 319.383916 526.714173 318.446281 
C 526.714173 317.508646 526.341647 316.609289 525.67864 315.946281 
C 525.015632 315.283273 524.116274 314.910747 523.17864 314.910747 
C 522.241005 314.910747 521.341647 315.283273 520.67864 315.946281 
C 520.015632 316.609289 519.643106 317.508646 519.643106 318.446281 
C 519.643106 319.383916 520.015632 320.283273 520.67864 320.946281 
C 521.341647 321.609289 522.241005 321.981815 523.17864 321.981815 
z
" clip-path="url(#p3ce807a82d)" style="fill: #808080; stroke: #000000; stroke-width: 0.4"/>
    <path d="M 489.535919 277.684294 
C 490.473553 277.684294 491.372911 277.311768 492.035919 276.64876 
C 492.698926 275.985753 493.071453 275.086395 493.071453 274.14876 
C 493.071453 273.211126 492.698926 272.311768 492.035919 271.64876 
C 491.372911 270.985753 490.473553 270.613226 489.535919 270.613226 
C 488.598284 270.613226 487.698926 270.985753 487.035919 271.64876 
C 486.372911 272.311768 486.000385 273.211126 486.000385 274.14876 
C 486.000385 275.086395 486.372911 275.985753 487.035919 276.64876 
C 487.698926 277.311768 488.598284 277.684294 489.535919 277.684294 
z
" clip-path="url(#p3ce807a82d)" style="fill: #808080; stroke: #000000; stroke-width: 0.4"/>
    <path d="M 573.642721 321.981815 
C 574.580355 321.981815 575.479713 321.609289 576.142721 320.946281 
C 576.805729 320.283273 577.178255 319.383916 577.178255 318.446281 
C 577.178255 317.508646 576.805729 316.609289 576.142721 315.946281 
C 575.479713 315.283273 574.580355 314.910747 573.642721 314.910747 
C 572.705086 314.910747 571.805729 315.283273 571.142721 315.946281 
C 570.479713 316.609289 570.107187 317.508646 570.107187 318.446281 
C 570.107187 319.383916 570.479713 320.283273 571.142721 320.946281 
C 571.805729 321.609289 572.705086 321.981815 573.642721 321.981815 
z
" clip-path="url(#p3ce807a82d)" style="fill: #808080; stroke: #000000; stroke-width: 0.4"/>
    <path d="M 556.82136 366.279336 
C 557.758995 366.279336 558.658353 365.906809 559.32136 365.243802 
C 559.984368 364.580794 560.356894 363.681436 560.356894 362.743802 
C 560.356894 361.806167 559.984368 360.906809 559.32136 360.243802 
C 558.658353 359.580794 557.758995 359.208268 556.82136 359.208268 
C 555.883726 359.208268 554.984368 359.580794 554.32136 360.243802 
C 553.658353 360.906809 553.285827 361.806167 553.285827 362.743802 
C 553.285827 363.681436 553.658353 364.580794 554.32136 365.243802 
C 554.984368 365.906809 555.883726 366.279336 556.82136 366.279336 
z
" clip-path="url(#p3ce807a82d)" style="fill: #808080; stroke: #000000; stroke-width: 0.4"/>
    <path d="M 590.464081 366.279336 
C 591.401716 366.279336 592.301074 365.906809 592.964081 365.243802 
C 593.627089 364.580794 593.999615 363.681436 593.999615 362.743802 
C 593.999615 361.806167 593.627089 360.906809 592.964081 360.243802 
C 592.301074 359.580794 591.401716 359.208268 590.464081 359.208268 
C 589.526447 359.208268 588.627089 359.580794 587.964081 360.243802 
C 587.301074 360.906809 586.928547 361.806167 586.928547 362.743802 
C 586.928547 363.681436 587.301074 364.580794 587.964081 365.243802 
C 588.627089 365.906809 589.526447 366.279336 590.464081 366.279336 
z
" clip-path="url(#p3ce807a82d)" style="fill: #808080; stroke: #000000; stroke-width: 0.4"/>
    <path d="M 624.106802 410.576856 
C 625.044437 410.576856 625.943795 410.20433 626.606802 409.541322 
C 627.26981 408.878315 627.642336 407.978957 627.642336 407.041322 
C 627.642336 406.103688 627.26981 405.20433 626.606802 404.541322 
C 625.943795 403.878315 625.044437 403.505788 624.106802 403.505788 
C 623.169168 403.505788 622.26981 403.878315 621.606802 404.541322 
C 620.943795 405.20433 620.571268 406.103688 620.571268 407.041322 
C 620.571268 407.978957 620.943795 408.878315 621.606802 409.541322 
C 622.26981 410.20433 623.169168 410.576856 624.106802 410.576856 
z
" clip-path="url(#p3ce807a82d)" style="fill: #808080; stroke: #000000; stroke-width: 0.4"/>
    <path d="M 640.928163 410.576856 
C 641.865797 410.576856 642.765155 410.20433 643.428163 409.541322 
C 644.09117 408.878315 644.463697 407.978957 644.463697 407.041322 
C 644.463697 406.103688 644.09117 405.20433 643.428163 404.541322 
C 642.765155 403.878315 641.865797 403.505788 640.928163 403.505788 
C 639.990528 403.505788 639.09117 403.878315 638.428163 404.541322 
C 637.765155 405.20433 637.392629 406.103688 637.392629 407.041322 
C 637.392629 407.978957 637.765155 408.878315 638.428163 409.541322 
C 639.09117 410.20433 639.990528 410.576856 640.928163 410.576856 
z
" clip-path="url(#p3ce807a82d)" style="fill: #808080; stroke: #000000; stroke-width: 0.4"/>
    <path d="M 657.749523 366.279336 
C 658.687158 366.279336 659.586515 365.906809 660.249523 365.243802 
C 660.912531 364.580794 661.285057 363.681436 661.285057 362.743802 
C 661.285057 361.806167 660.912531 360.906809 660.249523 360.243802 
C 659.586515 359.580794 658.687158 359.208268 657.749523 359.208268 
C 656.811889 359.208268 655.912531 359.580794 655.249523 360.243802 
C 654.586515 360.906809 654.213989 361.806167 654.213989 362.743802 
C 654.213989 363.681436 654.586515 364.580794 655.249523 365.243802 
C 655.912531 365.906809 656.811889 366.279336 657.749523 366.279336 
z
" clip-path="url(#p3ce807a82d)" style="fill: #808080; stroke: #000000; stroke-width: 0.4"/>
    <path d="M 674.570884 410.576856 
C 675.508518 410.576856 676.407876 410.20433 677.070884 409.541322 
C 677.733891 408.878315 678.106418 407.978957 678.106418 407.041322 
C 678.106418 406.103688 677.733891 405.20433 677.070884 404.541322 
C 676.407876 403.878315 675.508518 403.505788 674.570884 403.505788 
C 673.633249 403.505788 672.733891 403.878315 672.070884 404.541322 
C 671.407876 405.20433 671.03535 406.103688 671.03535 407.041322 
C 671.03535 407.978957 671.407876 408.878315 672.070884 409.541322 
C 672.733891 410.20433 673.633249 410.576856 674.570884 410.576856 
z
" clip-path="url(#p3ce807a82d)" style="fill: #808080; stroke: #000000; stroke-width: 0.4"/>
    <path d="M 725.034965 410.576856 
C 725.9726 410.576856 726.871957 410.20433 727.534965 409.541322 
C 728.197973 408.878315 728.570499 407.978957 728.570499 407.041322 
C 728.570499 406.103688 728.197973 405.20433 727.534965 404.541322 
C 726.871957 403.878315 725.9726 403.505788 725.034965 403.505788 
C 724.09733 403.505788 723.197973 403.878315 722.534965 404.541322 
C 721.871957 405.20433 721.499431 406.103688 721.499431 407.041322 
C 721.499431 407.978957 721.871957 408.878315 722.534965 409.541322 
C 723.197973 410.20433 724.09733 410.576856 725.034965 410.576856 
z
" clip-path="url(#p3ce807a82d)" style="fill: #808080; stroke: #000000; stroke-width: 0.4"/>
    <path d="M 708.213605 454.874377 
C 709.151239 454.874377 710.050597 454.501851 710.713605 453.838843 
C 711.376612 453.175835 711.749138 452.276478 711.749138 451.338843 
C 711.749138 450.401208 711.376612 449.501851 710.713605 448.838843 
C 710.050597 448.175835 709.151239 447.803309 708.213605 447.803309 
C 707.27597 447.803309 706.376612 448.175835 705.713605 448.838843 
C 705.050597 449.501851 704.678071 450.401208 704.678071 451.338843 
C 704.678071 452.276478 705.050597 453.175835 705.713605 453.838843 
C 706.376612 454.501851 707.27597 454.874377 708.213605 454.874377 
z
" clip-path="url(#p3ce807a82d)" style="fill: #808080; stroke: #000000; stroke-width: 0.4"/>
    <path d="M 741.856325 454.874377 
C 742.79396 454.874377 743.693318 454.501851 744.356325 453.838843 
C 745.019333 453.175835 745.391859 452.276478 745.391859 451.338843 
C 745.391859 450.401208 745.019333 449.501851 744.356325 448.838843 
C 743.693318 448.175835 742.79396 447.803309 741.856325 447.803309 
C 740.918691 447.803309 740.019333 448.175835 739.356325 448.838843 
C 738.693318 449.501851 738.320792 450.401208 738.320792 451.338843 
C 738.320792 452.276478 738.693318 453.175835 739.356325 453.838843 
C 740.019333 454.501851 740.918691 454.874377 741.856325 454.874377 
z
" clip-path="url(#p3ce807a82d)" style="fill: #808080; stroke: #000000; stroke-width: 0.4"/>
    <path d="M 792.320407 412.041322 
C 793.646422 412.041322 794.918306 411.514491 795.855941 410.576856 
C 796.793575 409.639222 797.320407 408.367338 797.320407 407.041322 
C 797.320407 405.715307 796.793575 404.443423 795.855941 403.505788 
C 794.918306 402.568154 793.646422 402.041322 792.320407 402.041322 
C 790.994391 402.041322 789.722508 402.568154 788.784873 403.505788 
C 787.847238 404.443423 787.320407 405.715307 787.320407 407.041322 
C 787.320407 408.367338 787.847238 409.639222 788.784873 410.576856 
C 789.722508 411.514491 790.994391 412.041322 792.320407 412.041322 
z
" clip-path="url(#p3ce807a82d)" style="stroke: #000000; stroke-width: 0.4"/>
    <path d="M 775.499046 454.874377 
C 776.436681 454.874377 777.336039 454.501851 777.999046 453.838843 
C 778.662054 453.175835 779.03458 452.276478 779.03458 451.338843 
C 779.03458 450.401208 778.662054 449.501851 777.999046 448.838843 
C 777.336039 448.175835 776.436681 447.803309 775.499046 447.803309 
C 774.561412 447.803309 773.662054 448.175835 772.999046 448.838843 
C 772.336039 449.501851 771.963513 450.401208 771.963513 451.338843 
C 771.963513 452.276478 772.336039 453.175835 772.999046 453.838843 
C 773.662054 454.501851 774.561412 454.874377 775.499046 454.874377 
z
" clip-path="url(#p3ce807a82d)" style="fill: #808080; stroke: #000000; stroke-width: 0.4"/>
    <path d="M 809.141767 456.338843 
C 810.467783 456.338843 811.739667 455.812011 812.677301 454.874377 
C 813.614936 453.936742 814.141767 452.664858 814.141767 451.338843 
C 814.141767 450.012827 813.614936 448.740944 812.677301 447.803309 
C 811.739667 446.865675 810.467783 446.338843 809.141767 446.338843 
C 807.815752 446.338843 806.543868 446.865675 805.606233 447.803309 
C 804.668599 448.740944 804.141767 450.012827 804.141767 451.338843 
C 804.141767 452.664858 804.668599 453.936742 805.606233 454.874377 
C 806.543868 455.812011 807.815752 456.338843 809.141767 456.338843 
z
" clip-path="url(#p3ce807a82d)" style="fill: #008000; stroke: #000000; stroke-width: 0.4"/>
    <path d="M 758.677686 367.743802 
C 760.003701 367.743802 761.275585 367.21697 762.21322 366.279336 
C 763.150854 365.341701 763.677686 364.069817 763.677686 362.743802 
C 763.677686 361.417786 763.150854 360.145902 762.21322 359.208268 
C 761.275585 358.270633 760.003701 357.743802 758.677686 357.743802 
C 757.35167 357.743802 756.079787 358.270633 755.142152 359.208268 
C 754.204517 360.145902 753.677686 361.417786 753.677686 362.743802 
C 753.677686 364.069817 754.204517 365.341701 755.142152 366.279336 
C 756.079787 367.21697 757.35167 367.743802 758.677686 367.743802 
z
" clip-path="url(#p3ce807a82d)" style="stroke: #000000; stroke-width: 0.4"/>
    <path d="M 691.392244 323.446281 
C 692.71826 323.446281 693.990143 322.919449 694.927778 321.981815 
C 695.865413 321.04418 696.392244 319.772296 696.392244 318.446281 
C 696.392244 317.120265 695.865413 315.848382 694.927778 314.910747 
C 693.990143 313.973113 692.71826 313.446281 691.392244 313.446281 
C 690.066229 313.446281 688.794345 313.973113 687.85671 314.910747 
C 686.919076 315.848382 686.392244 317.120265 686.392244 318.446281 
C 686.392244 319.772296 686.919076 321.04418 687.85671 321.981815 
C 688.794345 322.919449 690.066229 323.446281 691.392244 323.446281 
z
" clip-path="url(#p3ce807a82d)" style="stroke: #000000; stroke-width: 0.4"/>
    <path d="M 607.285442 279.14876 
C 608.611457 279.14876 609.883341 278.621929 610.820976 277.684294 
C 611.75861 276.74666 612.285442 275.474776 612.285442 274.14876 
C 612.285442 272.822745 611.75861 271.550861 610.820976 270.613226 
C 609.883341 269.675592 608.611457 269.14876 607.285442 269.14876 
C 605.959426 269.14876 604.687542 269.675592 603.749908 270.613226 
C 602.812273 271.550861 602.285442 272.822745 602.285442 274.14876 
C 602.285442 275.474776 602.812273 276.74666 603.749908 277.684294 
C 604.687542 278.621929 605.959426 279.14876 607.285442 279.14876 
z
" clip-path="url(#p3ce807a82d)" style="stroke: #000000; stroke-width: 0.4"/>
    <path d="M 540 234.85124 
C 541.326016 234.85124 542.597899 234.324408 543.535534 233.386774 
C 544.473168 232.449139 545 231.177255 545 229.85124 
C 545 228.525224 544.473168 227.25334 543.535534 226.315706 
C 542.597899 225.378071 541.326016 224.85124 540 224.85124 
C 538.673985 224.85124 537.402101 225.378071 536.464466 226.315706 
C 535.526832 227.25334 535 228.525224 535 229.85124 
C 535 231.177255 535.526832 232.449139 536.464466 233.386774 
C 537.402101 234.324408 538.673985 234.85124 540 234.85124 
z
" clip-path="url(#p3ce807a82d)" style="stroke: #000000; stroke-width: 0.4"/>
    <path d="M 439.071837 190.553719 
C 440.397853 190.553719 441.669737 190.026887 442.607371 189.089253 
C 443.545006 188.151618 444.071837 186.879735 444.071837 185.553719 
C 444.071837 184.227704 443.545006 182.95582 442.607371 182.018185 
C 441.669737 181.080551 440.397853 180.553719 439.071837 180.553719 
C 437.745822 180.553719 436.473938 181.080551 435.536303 182.018185 
C 434.598669 182.95582 434.071837 184.227704 434.071837 185.553719 
C 434.071837 186.879735 434.598669 188.151618 435.536303 189.089253 
C 436.473938 190.026887 437.745822 190.553719 439.071837 190.553719 
z
" clip-path="url(#p3ce807a82d)" style="stroke: #000000; stroke-width: 0.4"/>
    <path d="M 354.965035 190.553719 
C 356.29105 190.553719 357.562934 190.026887 358.500569 189.089253 
C 359.438203 188.151618 359.965035 186.879735 359.965035 185.553719 
C 359.965035 184.227704 359.438203 182.95582 358.500569 182.018185 
C 357.562934 181.080551 356.29105 180.553719 354.965035 180.553719 
C 353.639019 180.553719 352.367136 181.080551 351.429501 182.018185 
C 350.491867 182.95582 349.965035 184.227704 349.965035 185.553719 
C 349.965035 186.879735 350.491867 188.151618 351.429501 189.089253 
C 352.367136 190.026887 353.639019 190.553719 354.965035 190.553719 
z
" clip-path="url(#p3ce807a82d)" style="stroke: #000000; stroke-width: 0.4"/>
    <path d="M 254.036872 146.256198 
C 255.362888 146.256198 256.634772 145.729367 257.572406 144.791732 
C 258.510041 143.854098 259.036872 142.582214 259.036872 141.256198 
C 259.036872 139.930183 258.510041 138.658299 257.572406 137.720664 
C 256.634772 136.78303 255.362888 136.256198 254.036872 136.256198 
C 252.710857 136.256198 251.438973 136.78303 250.501338 137.720664 
C 249.563704 138.658299 249.036872 139.930183 249.036872 141.256198 
C 249.036872 142.582214 249.563704 143.854098 250.501338 144.791732 
C 251.438973 145.729367 252.710857 146.256198 254.036872 146.256198 
z
" clip-path="url(#p3ce807a82d)" style="stroke: #000000; stroke-width: 0.4"/>
    <path d="M 893.24857 144.791732 
C 894.186204 144.791732 895.085562 144.419206 895.74857 143.756198 
C 896.411577 143.093191 896.784104 142.193833 896.784104 141.256198 
C 896.784104 140.318564 896.411577 139.419206 895.74857 138.756198 
C 895.085562 138.093191 894.186204 137.720664 893.24857 137.720664 
C 892.310935 137.720664 891.411577 138.093191 890.74857 138.756198 
C 890.085562 139.419206 889.713036 140.318564 889.713036 141.256198 
C 889.713036 142.193833 890.085562 143.093191 890.74857 143.756198 
C 891.411577 144.419206 892.310935 144.791732 893.24857 144.791732 
z
" clip-path="url(#p3ce807a82d)" style="fill: #808080; stroke: #000000; stroke-width: 0.4"/>
    <path d="M 876.427209 189.089253 
C 877.364844 189.089253 878.264201 188.716727 878.927209 188.053719 
C 879.590217 187.390711 879.962743 186.491354 879.962743 185.553719 
C 879.962743 184.616084 879.590217 183.716727 878.927209 183.053719 
C 878.264201 182.390711 877.364844 182.018185 876.427209 182.018185 
C 875.489575 182.018185 874.590217 182.390711 873.927209 183.053719 
C 873.264201 183.716727 872.891675 184.616084 872.891675 185.553719 
C 872.891675 186.491354 873.264201 187.390711 873.927209 188.053719 
C 874.590217 188.716727 875.489575 189.089253 876.427209 189.089253 
z
" clip-path="url(#p3ce807a82d)" style="fill: #808080; stroke: #000000; stroke-width: 0.4"/>
    <path d="M 910.06993 189.089253 
C 911.007565 189.089253 911.906922 188.716727 912.56993 188.053719 
C 913.232938 187.390711 913.605464 186.491354 913.605464 185.553719 
C 913.605464 184.616084 913.232938 183.716727 912.56993 183.053719 
C 911.906922 182.390711 911.007565 182.018185 910.06993 182.018185 
C 909.132296 182.018185 908.232938 182.390711 907.56993 183.053719 
C 906.906922 183.716727 906.534396 184.616084 906.534396 185.553719 
C 906.534396 186.491354 906.906922 187.390711 907.56993 188.053719 
C 908.232938 188.716727 909.132296 189.089253 910.06993 189.089253 
z
" clip-path="url(#p3ce807a82d)" style="fill: #808080; stroke: #000000; stroke-width: 0.4"/>
    <path d="M 859.605849 144.791732 
C 860.543483 144.791732 861.442841 144.419206 862.105849 143.756198 
C 862.768856 143.093191 863.141383 142.193833 863.141383 141.256198 
C 863.141383 140.318564 862.768856 139.419206 862.105849 138.756198 
C 861.442841 138.093191 860.543483 137.720664 859.605849 137.720664 
C 858.668214 137.720664 857.768856 138.093191 857.105849 138.756198 
C 856.442841 139.419206 856.070315 140.318564 856.070315 141.256198 
C 856.070315 142.193833 856.442841 143.093191 857.105849 143.756198 
C 857.768856 144.419206 858.668214 144.791732 859.605849 144.791732 
z
" clip-path="url(#p3ce807a82d)" style="fill: #808080; stroke: #000000; stroke-width: 0.4"/>
    <path d="M 842.784488 189.089253 
C 843.722123 189.089253 844.62148 188.716727 845.284488 188.053719 
C 845.947496 187.390711 846.320022 186.491354 846.320022 185.553719 
C 846.320022 184.616084 845.947496 183.716727 845.284488 183.053719 
C 844.62148 182.390711 843.722123 182.018185 842.784488 182.018185 
C 841.846854 182.018185 840.947496 182.390711 840.284488 183.053719 
C 839.62148 183.716727 839.248954 184.616084 839.248954 185.553719 
C 839.248954 186.491354 839.62148 187.390711 840.284488 188.053719 
C 840.947496 188.716727 841.846854 189.089253 842.784488 189.089253 
z
" clip-path="url(#p3ce807a82d)" style="fill: #808080; stroke: #000000; stroke-width: 0.4"/>
    <path d="M 825.963128 101.958678 
C 827.289143 101.958678 828.561027 101.431846 829.498662 100.494212 
C 830.436296 99.556577 830.963128 98.284693 830.963128 96.958678 
C 830.963128 95.632662 830.436296 94.360778 829.498662 93.423144 
C 828.561027 92.485509 827.289143 91.958678 825.963128 91.958678 
C 824.637112 91.958678 823.365228 92.485509 822.427594 93.423144 
C 821.489959 94.360778 820.963128 95.632662 820.963128 96.958678 
C 820.963128 98.284693 821.489959 99.556577 822.427594 100.494212 
C 823.365228 101.431846 824.637112 101.958678 825.963128 101.958678 
z
" clip-path="url(#p3ce807a82d)" style="fill: #ff0000; stroke: #000000; stroke-width: 0.4"/>
    <path d="M 169.93007 57.661157 
C 171.256085 57.661157 172.527969 57.134325 173.465604 56.196691 
C 174.403238 55.259056 174.93007 53.987173 174.93007 52.661157 
C 174.93007 51.335142 174.403238 50.063258 173.465604 49.125623 
C 172.527969 48.187989 171.256085 47.661157 169.93007 47.661157 
C 168.604054 47.661157 167.332171 48.187989 166.394536 49.125623 
C 165.456901 50.063258 164.93007 51.335142 164.93007 52.661157 
C 164.93007 53.987173 165.456901 55.259056 166.394536 56.196691 
C 167.332171 57.134325 168.604054 57.661157 169.93007 57.661157 
z
" clip-path="url(#p3ce807a82d)" style="stroke: #000000; stroke-width: 0.4"/>
    <path d="M 960.534011 100.494212 
C 961.471646 100.494212 962.371004 100.121685 963.034011 99.458678 
C 963.697019 98.79567 964.069545 97.896312 964.069545 96.958678 
C 964.069545 96.021043 963.697019 95.121685 963.034011 94.458678 
C 962.371004 93.79567 961.471646 93.423144 960.534011 93.423144 
C 959.596377 93.423144 958.697019 93.79567 958.034011 94.458678 
C 957.371004 95.121685 956.998478 96.021043 956.998478 96.958678 
C 956.998478 97.896312 957.371004 98.79567 958.034011 99.458678 
C 958.697019 100.121685 959.596377 100.494212 960.534011 100.494212 
z
" clip-path="url(#p3ce807a82d)" style="fill: #808080; stroke: #000000; stroke-width: 0.4"/>
    <path d="M 977.355372 100.494212 
C 978.293006 100.494212 979.192364 100.121685 979.855372 99.458678 
C 980.51838 98.79567 980.890906 97.896312 980.890906 96.958678 
C 980.890906 96.021043 980.51838 95.121685 979.855372 94.458678 
C 979.192364 93.79567 978.293006 93.423144 977.355372 93.423144 
C 976.417737 93.423144 975.51838 93.79567 974.855372 94.458678 
C 974.192364 95.121685 973.819838 96.021043 973.819838 96.958678 
C 973.819838 97.896312 974.192364 98.79567 974.855372 99.458678 
C 975.51838 100.121685 976.417737 100.494212 977.355372 100.494212 
z
" clip-path="url(#p3ce807a82d)" style="fill: #808080; stroke: #000000; stroke-width: 0.4"/>
    <path d="M 943.712651 56.196691 
C 944.650286 56.196691 945.549643 55.824165 946.212651 55.161157 
C 946.875659 54.498149 947.248185 53.598792 947.248185 52.661157 
C 947.248185 51.723522 946.875659 50.824165 946.212651 50.161157 
C 945.549643 49.498149 944.650286 49.125623 943.712651 49.125623 
C 942.775016 49.125623 941.875659 49.498149 941.212651 50.161157 
C 940.549643 50.824165 940.177117 51.723522 940.177117 52.661157 
C 940.177117 53.598792 940.549643 54.498149 941.212651 55.161157 
C 941.875659 55.824165 942.775016 56.196691 943.712651 56.196691 
z
" clip-path="url(#p3ce807a82d)" style="fill: #808080; stroke: #000000; stroke-width: 0.4"/>
    <path d="M 926.891291 100.494212 
C 927.828925 100.494212 928.728283 100.121685 929.391291 99.458678 
C 930.054298 98.79567 930.426824 97.896312 930.426824 96.958678 
C 930.426824 96.021043 930.054298 95.121685 929.391291 94.458678 
C 928.728283 93.79567 927.828925 93.423144 926.891291 93.423144 
C 925.953656 93.423144 925.054298 93.79567 924.391291 94.458678 
C 923.728283 95.121685 923.355757 96.021043 923.355757 96.958678 
C 923.355757 97.896312 923.728283 98.79567 924.391291 99.458678 
C 925.054298 100.121685 925.953656 100.494212 926.891291 100.494212 
z
" clip-path="url(#p3ce807a82d)" style="fill: #808080; stroke: #000000; stroke-width: 0.4"/>
   </g>
   <g id="line2d_1">
    <path d="M 825.963128 493.2 
L 825.963128 10.8 
" clip-path="url(#p3ce807a82d)" style="fill: none; stroke: #ff0000; stroke-width: 1.5; stroke-linecap: square"/>
   </g>
   <g id="patch_3">
    <path d="M 10.8 493.2 
L 10.8 10.8 
" style="fill: none; stroke: #000000; stroke-width: 0.8; stroke-linejoin: miter; stroke-linecap: square"/>
   </g>
   <g id="patch_4">
    <path d="M 1069.2 493.2 
L 1069.2 10.8 
" style="fill: none; stroke: #000000; stroke-width: 0.8; stroke-linejoin: miter; stroke-linecap: square"/>
   </g>
   <g id="patch_5">
    <path d="M 10.8 493.2 
L 1069.2 493.2 
" style="fill: none; stroke: #000000; stroke-width: 0.8; stroke-linejoin: miter; stroke-linecap: square"/>
   </g>
   <g id="patch_6">
    <path d="M 10.8 10.8 
L 1069.2 10.8 
" style="fill: none; stroke: #000000; stroke-width: 0.8; stroke-linejoin: miter; stroke-linecap: square"/>
   </g>
   <g id="text_1">
    <!-- LE -->
    <g transform="translate(789.141767 471.338843)scale(0.12 -0.12)">
     <defs>
      <path id="DejaVuSans-4c" d="M 628 4666 
L 1259 4666 
L 1259 531 
L 3531 531 
L 3531 0 
L 628 0 
L 628 4666 
z
" transform="scale(0.015625)"/>
      <path id="DejaVuSans-45" d="M 628 4666 
L 3578 4666 
L 3578 4134 
L 1259 4134 
L 1259 2753 
L 3481 2753 
L 3481 2222 
L 1259 2222 
L 1259 531 
L 3634 531 
L 3634 0 
L 628 0 
L 628 4666 
z
" transform="scale(0.015625)"/>
     </defs>
     <use xlink:href="#DejaVuSans-4c"/>
     <use xlink:href="#DejaVuSans-45" x="55.712891"/>
    </g>
   </g>
   <g id="text_2">
    <!-- KN -->
    <g transform="translate(835.963128 91.958678)scale(0.12 -0.12)">
     <defs>
      <path id="DejaVuSans-4b" d="M 628 4666 
L 1259 4666 
L 1259 2694 
L 3353 4666 
L 4166 4666 
L 1850 2491 
L 4331 0 
L 3500 0 
L 1259 2247 
L 1259 0 
L 628 0 
L 628 4666 
z
" transform="scale(0.015625)"/>
      <path id="DejaVuSans-4e" d="M 628 4666 
L 1478 4666 
L 3547 763 
L 3547 4666 
L 4159 4666 
L 4159 0 
L 3309 0 
L 1241 3903 
L 1241 0 
L 628 0 
L 628 4666 
z
" transform="scale(0.015625)"/>
     </defs>
     <use xlink:href="#DejaVuSans-4b"/>
     <use xlink:href="#DejaVuSans-4e" x="65.576172"/>
    </g>
   </g>
  </g>
 </g>
 <defs>
  <clipPath id="p3ce807a82d">
   <rect x="10.8" y="10.8" width="1058.4" height="482.4"/>
  </clipPath>
 </defs>
</svg>
