<?xml version="1.0" encoding="utf-8" standalone="no"?>
<!DOCTYPE svg PUBLIC "-//W3C//DTD SVG 1.1//EN"
  "http://www.w3.org/Graphics/SVG/1.1/DTD/svg11.dtd">
<svg xmlns:xlink="http://www.w3.org/1999/xlink" width="1080pt" height="504pt" viewBox="0 0 1080 504" xmlns="http://www.w3.org/2000/svg" version="1.1">
 <metadata>
  <rdf:RDF xmlns:dc="http://purl.org/dc/elements/1.1/" xmlns:cc="http://creativecommons.org/ns#" xmlns:rdf="http://www.w3.org/1999/02/22-rdf-syntax-ns#">
   <cc:Work>
    <dc:type rdf:resource="http://purl.org/dc/dcmitype/StillImage"/>
    <dc:date>2022-04-20T08:03:14.139394</dc:date>
    <dc:format>image/svg+xml</dc:format>
    <dc:creator>
     <cc:Agent>
      <dc:title>Matplotlib v3.5.1, https://matplotlib.org/</dc:title>
     </cc:Agent>
    </dc:creator>
   </cc:Work>
  </rdf:RDF>
 </metadata>
 <defs>
  <style type="text/css">*{stroke-linejoin: round; stroke-linecap: butt}</style>
 </defs>
 <g id="figure_1">
  <g id="patch_1">
   <path d="M 0 504 
L 1080 504 
L 1080 0 
L 0 0 
z
" style="fill: #ffffff"/>
  </g>
  <g id="axes_1">
   <g id="patch_2">
    <path d="M 10.8 493.2 
L 1069.2 493.2 
L 1069.2 10.8 
L 10.8 10.8 
z
" style="fill: #ffffff"/>
   </g>
   <g id="LineCollection_1">
    <path d="M 401.326345 451.338843 
L 422.660754 451.338843 
" clip-path="url(#p8973426166)" style="fill: none; stroke: #000000; stroke-width: 0.4"/>
    <path d="M 401.326345 451.338843 
L 443.995162 426.421488 
" clip-path="url(#p8973426166)" style="fill: none; stroke: #000000; stroke-width: 0.4"/>
    <path d="M 443.995162 426.421488 
L 465.329571 426.421488 
" clip-path="url(#p8973426166)" style="fill: none; stroke: #000000; stroke-width: 0.4"/>
    <path d="M 443.995162 426.421488 
L 486.663979 401.504132 
" clip-path="url(#p8973426166)" style="fill: none; stroke: #000000; stroke-width: 0.4"/>
    <path d="M 507.998387 426.421488 
L 529.332796 426.421488 
" clip-path="url(#p8973426166)" style="fill: none; stroke: #000000; stroke-width: 0.4"/>
    <path d="M 507.998387 426.421488 
L 486.663979 401.504132 
" clip-path="url(#p8973426166)" style="fill: none; stroke: #000000; stroke-width: 0.4"/>
    <path d="M 486.663979 401.504132 
L 379.991937 401.504132 
" clip-path="url(#p8973426166)" style="fill: none; stroke: #000000; stroke-width: 0.4"/>
    <path d="M 379.991937 401.504132 
L 358.657529 426.421488 
" clip-path="url(#p8973426166)" style="fill: none; stroke: #000000; stroke-width: 0.4"/>
    <path d="M 379.991937 401.504132 
L 550.667204 376.586777 
" clip-path="url(#p8973426166)" style="fill: none; stroke: #000000; stroke-width: 0.4"/>
    <path d="M 550.667204 376.586777 
L 572.001613 376.586777 
" clip-path="url(#p8973426166)" style="fill: none; stroke: #000000; stroke-width: 0.4"/>
    <path d="M 550.667204 376.586777 
L 593.336021 351.669421 
" clip-path="url(#p8973426166)" style="fill: none; stroke: #000000; stroke-width: 0.4"/>
    <path d="M 593.336021 351.669421 
L 614.670429 351.669421 
" clip-path="url(#p8973426166)" style="fill: none; stroke: #000000; stroke-width: 0.4"/>
    <path d="M 593.336021 351.669421 
L 636.004838 326.752066 
" clip-path="url(#p8973426166)" style="fill: none; stroke: #000000; stroke-width: 0.4"/>
    <path d="M 636.004838 326.752066 
L 657.339246 326.752066 
" clip-path="url(#p8973426166)" style="fill: none; stroke: #000000; stroke-width: 0.4"/>
    <path d="M 636.004838 326.752066 
L 678.673655 301.834711 
" clip-path="url(#p8973426166)" style="fill: none; stroke: #000000; stroke-width: 0.4"/>
    <path d="M 678.673655 301.834711 
L 700.008063 301.834711 
" clip-path="url(#p8973426166)" style="fill: none; stroke: #000000; stroke-width: 0.4"/>
    <path d="M 678.673655 301.834711 
L 721.342471 276.917355 
" clip-path="url(#p8973426166)" style="fill: none; stroke: #000000; stroke-width: 0.4"/>
    <path d="M 721.342471 276.917355 
L 742.67688 276.917355 
" clip-path="url(#p8973426166)" style="fill: none; stroke: #000000; stroke-width: 0.4"/>
    <path d="M 721.342471 276.917355 
L 764.011288 252 
" clip-path="url(#p8973426166)" style="fill: none; stroke: #000000; stroke-width: 0.4"/>
    <path d="M 764.011288 252 
L 785.345696 252 
" clip-path="url(#p8973426166)" style="fill: none; stroke: #000000; stroke-width: 0.4"/>
    <path d="M 764.011288 252 
L 337.32312 227.082645 
" clip-path="url(#p8973426166)" style="fill: none; stroke: #000000; stroke-width: 0.4"/>
    <path d="M 337.32312 227.082645 
L 315.988712 252 
" clip-path="url(#p8973426166)" style="fill: none; stroke: #000000; stroke-width: 0.4"/>
    <path d="M 337.32312 227.082645 
L 294.654304 227.082645 
" clip-path="url(#p8973426166)" style="fill: none; stroke: #000000; stroke-width: 0.4"/>
    <path d="M 294.654304 227.082645 
L 273.319895 252 
" clip-path="url(#p8973426166)" style="fill: none; stroke: #000000; stroke-width: 0.4"/>
    <path d="M 294.654304 227.082645 
L 251.985487 202.165289 
" clip-path="url(#p8973426166)" style="fill: none; stroke: #000000; stroke-width: 0.4"/>
    <path d="M 251.985487 202.165289 
L 230.651078 227.082645 
" clip-path="url(#p8973426166)" style="fill: none; stroke: #000000; stroke-width: 0.4"/>
    <path d="M 251.985487 202.165289 
L 209.31667 202.165289 
" clip-path="url(#p8973426166)" style="fill: none; stroke: #000000; stroke-width: 0.4"/>
    <path d="M 209.31667 202.165289 
L 187.982262 227.082645 
" clip-path="url(#p8973426166)" style="fill: none; stroke: #000000; stroke-width: 0.4"/>
    <path d="M 209.31667 202.165289 
L 806.680105 177.247934 
" clip-path="url(#p8973426166)" style="fill: none; stroke: #000000; stroke-width: 0.4"/>
    <path d="M 806.680105 177.247934 
L 828.014513 177.247934 
" clip-path="url(#p8973426166)" style="fill: none; stroke: #000000; stroke-width: 0.4"/>
    <path d="M 806.680105 177.247934 
L 849.348922 152.330579 
" clip-path="url(#p8973426166)" style="fill: none; stroke: #000000; stroke-width: 0.4"/>
    <path d="M 849.348922 152.330579 
L 870.68333 152.330579 
" clip-path="url(#p8973426166)" style="fill: none; stroke: #000000; stroke-width: 0.4"/>
    <path d="M 849.348922 152.330579 
L 166.647853 127.413223 
" clip-path="url(#p8973426166)" style="fill: none; stroke: #000000; stroke-width: 0.4"/>
    <path d="M 166.647853 127.413223 
L 145.313445 152.330579 
" clip-path="url(#p8973426166)" style="fill: none; stroke: #000000; stroke-width: 0.4"/>
    <path d="M 166.647853 127.413223 
L 892.017738 102.495868 
" clip-path="url(#p8973426166)" style="fill: none; stroke: #000000; stroke-width: 0.4"/>
    <path d="M 913.352147 127.413223 
L 934.686555 127.413223 
" clip-path="url(#p8973426166)" style="fill: none; stroke: #000000; stroke-width: 0.4"/>
    <path d="M 913.352147 127.413223 
L 892.017738 102.495868 
" clip-path="url(#p8973426166)" style="fill: none; stroke: #000000; stroke-width: 0.4"/>
    <path d="M 892.017738 102.495868 
L 956.020964 77.578512 
" clip-path="url(#p8973426166)" style="fill: none; stroke: #000000; stroke-width: 0.4"/>
    <path d="M 956.020964 77.578512 
L 977.355372 102.495868 
" clip-path="url(#p8973426166)" style="fill: none; stroke: #000000; stroke-width: 0.4"/>
    <path d="M 956.020964 77.578512 
L 123.979036 52.661157 
" clip-path="url(#p8973426166)" style="fill: none; stroke: #000000; stroke-width: 0.4"/>
    <path d="M 123.979036 52.661157 
L 102.644628 77.578512 
" clip-path="url(#p8973426166)" style="fill: none; stroke: #000000; stroke-width: 0.4"/>
   </g>
   <g id="matplotlib.axis_1">
    <g id="xtick_1"/>
    <g id="xtick_2"/>
    <g id="xtick_3"/>
    <g id="xtick_4"/>
    <g id="xtick_5"/>
   </g>
   <g id="matplotlib.axis_2">
    <g id="ytick_1"/>
    <g id="ytick_2"/>
    <g id="ytick_3"/>
    <g id="ytick_4"/>
    <g id="ytick_5"/>
    <g id="ytick_6"/>
    <g id="ytick_7"/>
    <g id="ytick_8"/>
   </g>
   <g id="PathCollection_1">
    <path d="M 401.326345 456.338843 
C 402.652361 456.338843 403.924245 455.812011 404.861879 454.874377 
C 405.799514 453.936742 406.326345 452.664858 406.326345 451.338843 
C 406.326345 450.012827 405.799514 448.740944 404.861879 447.803309 
C 403.924245 446.865675 402.652361 446.338843 401.326345 446.338843 
C 400.00033 446.338843 398.728446 446.865675 397.790812 447.803309 
C 396.853177 448.740944 396.326345 450.012827 396.326345 451.338843 
C 396.326345 452.664858 396.853177 453.936742 397.790812 454.874377 
C 398.728446 455.812011 400.00033 456.338843 401.326345 456.338843 
z
" clip-path="url(#p8973426166)" style="stroke: #000000; stroke-width: 0.4"/>
    <path d="M 422.660754 456.338843 
C 423.986769 456.338843 425.258653 455.812011 426.196288 454.874377 
C 427.133922 453.936742 427.660754 452.664858 427.660754 451.338843 
C 427.660754 450.012827 427.133922 448.740944 426.196288 447.803309 
C 425.258653 446.865675 423.986769 446.338843 422.660754 446.338843 
C 421.334738 446.338843 420.062855 446.865675 419.12522 447.803309 
C 418.187585 448.740944 417.660754 450.012827 417.660754 451.338843 
C 417.660754 452.664858 418.187585 453.936742 419.12522 454.874377 
C 420.062855 455.812011 421.334738 456.338843 422.660754 456.338843 
z
" clip-path="url(#p8973426166)" style="stroke: #000000; stroke-width: 0.4"/>
    <path d="M 443.995162 431.421488 
C 445.321178 431.421488 446.593062 430.894656 447.530696 429.957022 
C 448.468331 429.019387 448.995162 427.747503 448.995162 426.421488 
C 448.995162 425.095472 448.468331 423.823588 447.530696 422.885954 
C 446.593062 421.948319 445.321178 421.421488 443.995162 421.421488 
C 442.669147 421.421488 441.397263 421.948319 440.459628 422.885954 
C 439.521994 423.823588 438.995162 425.095472 438.995162 426.421488 
C 438.995162 427.747503 439.521994 429.019387 440.459628 429.957022 
C 441.397263 430.894656 442.669147 431.421488 443.995162 431.421488 
z
" clip-path="url(#p8973426166)" style="stroke: #000000; stroke-width: 0.4"/>
    <path d="M 465.329571 429.957022 
C 466.267205 429.957022 467.166563 429.584495 467.829571 428.921488 
C 468.492578 428.25848 468.865105 427.359122 468.865105 426.421488 
C 468.865105 425.483853 468.492578 424.584495 467.829571 423.921488 
C 467.166563 423.25848 466.267205 422.885954 465.329571 422.885954 
C 464.391936 422.885954 463.492578 423.25848 462.829571 423.921488 
C 462.166563 424.584495 461.794037 425.483853 461.794037 426.421488 
C 461.794037 427.359122 462.166563 428.25848 462.829571 428.921488 
C 463.492578 429.584495 464.391936 429.957022 465.329571 429.957022 
z
" clip-path="url(#p8973426166)" style="fill: #808080; stroke: #000000; stroke-width: 0.4"/>
    <path d="M 507.998387 429.957022 
C 508.936022 429.957022 509.83538 429.584495 510.498387 428.921488 
C 511.161395 428.25848 511.533921 427.359122 511.533921 426.421488 
C 511.533921 425.483853 511.161395 424.584495 510.498387 423.921488 
C 509.83538 423.25848 508.936022 422.885954 507.998387 422.885954 
C 507.060753 422.885954 506.161395 423.25848 505.498387 423.921488 
C 504.83538 424.584495 504.462854 425.483853 504.462854 426.421488 
C 504.462854 427.359122 504.83538 428.25848 505.498387 428.921488 
C 506.161395 429.584495 507.060753 429.957022 507.998387 429.957022 
z
" clip-path="url(#p8973426166)" style="fill: #808080; stroke: #000000; stroke-width: 0.4"/>
    <path d="M 529.332796 429.957022 
C 530.27043 429.957022 531.169788 429.584495 531.832796 428.921488 
C 532.495804 428.25848 532.86833 427.359122 532.86833 426.421488 
C 532.86833 425.483853 532.495804 424.584495 531.832796 423.921488 
C 531.169788 423.25848 530.27043 422.885954 529.332796 422.885954 
C 528.395161 422.885954 527.495804 423.25848 526.832796 423.921488 
C 526.169788 424.584495 525.797262 425.483853 525.797262 426.421488 
C 525.797262 427.359122 526.169788 428.25848 526.832796 428.921488 
C 527.495804 429.584495 528.395161 429.957022 529.332796 429.957022 
z
" clip-path="url(#p8973426166)" style="fill: #808080; stroke: #000000; stroke-width: 0.4"/>
    <path d="M 486.663979 406.504132 
C 487.989995 406.504132 489.261878 405.977301 490.199513 405.039666 
C 491.137147 404.102032 491.663979 402.830148 491.663979 401.504132 
C 491.663979 400.178117 491.137147 398.906233 490.199513 397.968598 
C 489.261878 397.030964 487.989995 396.504132 486.663979 396.504132 
C 485.337964 396.504132 484.06608 397.030964 483.128445 397.968598 
C 482.190811 398.906233 481.663979 400.178117 481.663979 401.504132 
C 481.663979 402.830148 482.190811 404.102032 483.128445 405.039666 
C 484.06608 405.977301 485.337964 406.504132 486.663979 406.504132 
z
" clip-path="url(#p8973426166)" style="stroke: #000000; stroke-width: 0.4"/>
    <path d="M 379.991937 406.504132 
C 381.317953 406.504132 382.589836 405.977301 383.527471 405.039666 
C 384.465106 404.102032 384.991937 402.830148 384.991937 401.504132 
C 384.991937 400.178117 384.465106 398.906233 383.527471 397.968598 
C 382.589836 397.030964 381.317953 396.504132 379.991937 396.504132 
C 378.665922 396.504132 377.394038 397.030964 376.456403 397.968598 
C 375.518769 398.906233 374.991937 400.178117 374.991937 401.504132 
C 374.991937 402.830148 375.518769 404.102032 376.456403 405.039666 
C 377.394038 405.977301 378.665922 406.504132 379.991937 406.504132 
z
" clip-path="url(#p8973426166)" style="stroke: #000000; stroke-width: 0.4"/>
    <path d="M 358.657529 429.957022 
C 359.595163 429.957022 360.494521 429.584495 361.157529 428.921488 
C 361.820536 428.25848 362.193063 427.359122 362.193063 426.421488 
C 362.193063 425.483853 361.820536 424.584495 361.157529 423.921488 
C 360.494521 423.25848 359.595163 422.885954 358.657529 422.885954 
C 357.719894 422.885954 356.820536 423.25848 356.157529 423.921488 
C 355.494521 424.584495 355.121995 425.483853 355.121995 426.421488 
C 355.121995 427.359122 355.494521 428.25848 356.157529 428.921488 
C 356.820536 429.584495 357.719894 429.957022 358.657529 429.957022 
z
" clip-path="url(#p8973426166)" style="fill: #808080; stroke: #000000; stroke-width: 0.4"/>
    <path d="M 550.667204 381.586777 
C 551.99322 381.586777 553.265104 381.059945 554.202738 380.122311 
C 555.140373 379.184676 555.667204 377.912792 555.667204 376.586777 
C 555.667204 375.260761 555.140373 373.988878 554.202738 373.051243 
C 553.265104 372.113608 551.99322 371.586777 550.667204 371.586777 
C 549.341189 371.586777 548.069305 372.113608 547.13167 373.051243 
C 546.194036 373.988878 545.667204 375.260761 545.667204 376.586777 
C 545.667204 377.912792 546.194036 379.184676 547.13167 380.122311 
C 548.069305 381.059945 549.341189 381.586777 550.667204 381.586777 
z
" clip-path="url(#p8973426166)" style="stroke: #000000; stroke-width: 0.4"/>
    <path d="M 572.001613 380.122311 
C 572.939247 380.122311 573.838605 379.749785 574.501613 379.086777 
C 575.16462 378.423769 575.537146 377.524411 575.537146 376.586777 
C 575.537146 375.649142 575.16462 374.749785 574.501613 374.086777 
C 573.838605 373.423769 572.939247 373.051243 572.001613 373.051243 
C 571.063978 373.051243 570.16462 373.423769 569.501613 374.086777 
C 568.838605 374.749785 568.466079 375.649142 568.466079 376.586777 
C 568.466079 377.524411 568.838605 378.423769 569.501613 379.086777 
C 570.16462 379.749785 571.063978 380.122311 572.001613 380.122311 
z
" clip-path="url(#p8973426166)" style="fill: #808080; stroke: #000000; stroke-width: 0.4"/>
    <path d="M 593.336021 356.669421 
C 594.662036 356.669421 595.93392 356.14259 596.871555 355.204955 
C 597.809189 354.267321 598.336021 352.995437 598.336021 351.669421 
C 598.336021 350.343406 597.809189 349.071522 596.871555 348.133888 
C 595.93392 347.196253 594.662036 346.669421 593.336021 346.669421 
C 592.010005 346.669421 590.738122 347.196253 589.800487 348.133888 
C 588.862853 349.071522 588.336021 350.343406 588.336021 351.669421 
C 588.336021 352.995437 588.862853 354.267321 589.800487 355.204955 
C 590.738122 356.14259 592.010005 356.669421 593.336021 356.669421 
z
" clip-path="url(#p8973426166)" style="stroke: #000000; stroke-width: 0.4"/>
    <path d="M 614.670429 355.204955 
C 615.608064 355.204955 616.507422 354.832429 617.170429 354.169421 
C 617.833437 353.506414 618.205963 352.607056 618.205963 351.669421 
C 618.205963 350.731787 617.833437 349.832429 617.170429 349.169421 
C 616.507422 348.506414 615.608064 348.133888 614.670429 348.133888 
C 613.732795 348.133888 612.833437 348.506414 612.170429 349.169421 
C 611.507422 349.832429 611.134895 350.731787 611.134895 351.669421 
C 611.134895 352.607056 611.507422 353.506414 612.170429 354.169421 
C 612.833437 354.832429 613.732795 355.204955 614.670429 355.204955 
z
" clip-path="url(#p8973426166)" style="fill: #808080; stroke: #000000; stroke-width: 0.4"/>
    <path d="M 636.004838 331.752066 
C 637.330853 331.752066 638.602737 331.225235 639.540372 330.2876 
C 640.478006 329.349965 641.004838 328.078082 641.004838 326.752066 
C 641.004838 325.426051 640.478006 324.154167 639.540372 323.216532 
C 638.602737 322.278898 637.330853 321.752066 636.004838 321.752066 
C 634.678822 321.752066 633.406938 322.278898 632.469304 323.216532 
C 631.531669 324.154167 631.004838 325.426051 631.004838 326.752066 
C 631.004838 328.078082 631.531669 329.349965 632.469304 330.2876 
C 633.406938 331.225235 634.678822 331.752066 636.004838 331.752066 
z
" clip-path="url(#p8973426166)" style="stroke: #000000; stroke-width: 0.4"/>
    <path d="M 657.339246 330.2876 
C 658.276881 330.2876 659.176238 329.915074 659.839246 329.252066 
C 660.502254 328.589058 660.87478 327.689701 660.87478 326.752066 
C 660.87478 325.814432 660.502254 324.915074 659.839246 324.252066 
C 659.176238 323.589058 658.276881 323.216532 657.339246 323.216532 
C 656.401612 323.216532 655.502254 323.589058 654.839246 324.252066 
C 654.176238 324.915074 653.803712 325.814432 653.803712 326.752066 
C 653.803712 327.689701 654.176238 328.589058 654.839246 329.252066 
C 655.502254 329.915074 656.401612 330.2876 657.339246 330.2876 
z
" clip-path="url(#p8973426166)" style="fill: #808080; stroke: #000000; stroke-width: 0.4"/>
    <path d="M 678.673655 306.834711 
C 679.99967 306.834711 681.271554 306.307879 682.209188 305.370245 
C 683.146823 304.43261 683.673655 303.160726 683.673655 301.834711 
C 683.673655 300.508695 683.146823 299.236811 682.209188 298.299177 
C 681.271554 297.361542 679.99967 296.834711 678.673655 296.834711 
C 677.347639 296.834711 676.075755 297.361542 675.138121 298.299177 
C 674.200486 299.236811 673.673655 300.508695 673.673655 301.834711 
C 673.673655 303.160726 674.200486 304.43261 675.138121 305.370245 
C 676.075755 306.307879 677.347639 306.834711 678.673655 306.834711 
z
" clip-path="url(#p8973426166)" style="stroke: #000000; stroke-width: 0.4"/>
    <path d="M 700.008063 305.370245 
C 700.945697 305.370245 701.845055 304.997718 702.508063 304.334711 
C 703.171071 303.671703 703.543597 302.772345 703.543597 301.834711 
C 703.543597 300.897076 703.171071 299.997718 702.508063 299.334711 
C 701.845055 298.671703 700.945697 298.299177 700.008063 298.299177 
C 699.070428 298.299177 698.171071 298.671703 697.508063 299.334711 
C 696.845055 299.997718 696.472529 300.897076 696.472529 301.834711 
C 696.472529 302.772345 696.845055 303.671703 697.508063 304.334711 
C 698.171071 304.997718 699.070428 305.370245 700.008063 305.370245 
z
" clip-path="url(#p8973426166)" style="fill: #808080; stroke: #000000; stroke-width: 0.4"/>
    <path d="M 721.342471 281.917355 
C 722.668487 281.917355 723.940371 281.390524 724.878005 280.452889 
C 725.81564 279.515255 726.342471 278.243371 726.342471 276.917355 
C 726.342471 275.59134 725.81564 274.319456 724.878005 273.381821 
C 723.940371 272.444187 722.668487 271.917355 721.342471 271.917355 
C 720.016456 271.917355 718.744572 272.444187 717.806937 273.381821 
C 716.869303 274.319456 716.342471 275.59134 716.342471 276.917355 
C 716.342471 278.243371 716.869303 279.515255 717.806937 280.452889 
C 718.744572 281.390524 720.016456 281.917355 721.342471 281.917355 
z
" clip-path="url(#p8973426166)" style="stroke: #000000; stroke-width: 0.4"/>
    <path d="M 742.67688 280.452889 
C 743.614514 280.452889 744.513872 280.080363 745.17688 279.417355 
C 745.839887 278.754348 746.212414 277.85499 746.212414 276.917355 
C 746.212414 275.979721 745.839887 275.080363 745.17688 274.417355 
C 744.513872 273.754348 743.614514 273.381821 742.67688 273.381821 
C 741.739245 273.381821 740.839887 273.754348 740.17688 274.417355 
C 739.513872 275.080363 739.141346 275.979721 739.141346 276.917355 
C 739.141346 277.85499 739.513872 278.754348 740.17688 279.417355 
C 740.839887 280.080363 741.739245 280.452889 742.67688 280.452889 
z
" clip-path="url(#p8973426166)" style="fill: #808080; stroke: #000000; stroke-width: 0.4"/>
    <path d="M 764.011288 257 
C 765.337304 257 766.609187 256.473168 767.546822 255.535534 
C 768.484457 254.597899 769.011288 253.326016 769.011288 252 
C 769.011288 250.673985 768.484457 249.402101 767.546822 248.464466 
C 766.609187 247.526832 765.337304 247 764.011288 247 
C 762.685273 247 761.413389 247.526832 760.475754 248.464466 
C 759.53812 249.402101 759.011288 250.673985 759.011288 252 
C 759.011288 253.326016 759.53812 254.597899 760.475754 255.535534 
C 761.413389 256.473168 762.685273 257 764.011288 257 
z
" clip-path="url(#p8973426166)" style="stroke: #000000; stroke-width: 0.4"/>
    <path d="M 785.345696 255.535534 
C 786.283331 255.535534 787.182689 255.163008 787.845696 254.5 
C 788.508704 253.836992 788.88123 252.937635 788.88123 252 
C 788.88123 251.062365 788.508704 250.163008 787.845696 249.5 
C 787.182689 248.836992 786.283331 248.464466 785.345696 248.464466 
C 784.408062 248.464466 783.508704 248.836992 782.845696 249.5 
C 782.182689 250.163008 781.810163 251.062365 781.810163 252 
C 781.810163 252.937635 782.182689 253.836992 782.845696 254.5 
C 783.508704 255.163008 784.408062 255.535534 785.345696 255.535534 
z
" clip-path="url(#p8973426166)" style="fill: #808080; stroke: #000000; stroke-width: 0.4"/>
    <path d="M 337.32312 232.082645 
C 338.649136 232.082645 339.92102 231.555813 340.858654 230.618179 
C 341.796289 229.680544 342.32312 228.40866 342.32312 227.082645 
C 342.32312 225.756629 341.796289 224.484745 340.858654 223.547111 
C 339.92102 222.609476 338.649136 222.082645 337.32312 222.082645 
C 335.997105 222.082645 334.725221 222.609476 333.787586 223.547111 
C 332.849952 224.484745 332.32312 225.756629 332.32312 227.082645 
C 332.32312 228.40866 332.849952 229.680544 333.787586 230.618179 
C 334.725221 231.555813 335.997105 232.082645 337.32312 232.082645 
z
" clip-path="url(#p8973426166)" style="stroke: #000000; stroke-width: 0.4"/>
    <path d="M 315.988712 255.535534 
C 316.926347 255.535534 317.825704 255.163008 318.488712 254.5 
C 319.15172 253.836992 319.524246 252.937635 319.524246 252 
C 319.524246 251.062365 319.15172 250.163008 318.488712 249.5 
C 317.825704 248.836992 316.926347 248.464466 315.988712 248.464466 
C 315.051077 248.464466 314.15172 248.836992 313.488712 249.5 
C 312.825704 250.163008 312.453178 251.062365 312.453178 252 
C 312.453178 252.937635 312.825704 253.836992 313.488712 254.5 
C 314.15172 255.163008 315.051077 255.535534 315.988712 255.535534 
z
" clip-path="url(#p8973426166)" style="fill: #808080; stroke: #000000; stroke-width: 0.4"/>
    <path d="M 294.654304 232.082645 
C 295.980319 232.082645 297.252203 231.555813 298.189837 230.618179 
C 299.127472 229.680544 299.654304 228.40866 299.654304 227.082645 
C 299.654304 225.756629 299.127472 224.484745 298.189837 223.547111 
C 297.252203 222.609476 295.980319 222.082645 294.654304 222.082645 
C 293.328288 222.082645 292.056404 222.609476 291.11877 223.547111 
C 290.181135 224.484745 289.654304 225.756629 289.654304 227.082645 
C 289.654304 228.40866 290.181135 229.680544 291.11877 230.618179 
C 292.056404 231.555813 293.328288 232.082645 294.654304 232.082645 
z
" clip-path="url(#p8973426166)" style="stroke: #000000; stroke-width: 0.4"/>
    <path d="M 273.319895 255.535534 
C 274.25753 255.535534 275.156887 255.163008 275.819895 254.5 
C 276.482903 253.836992 276.855429 252.937635 276.855429 252 
C 276.855429 251.062365 276.482903 250.163008 275.819895 249.5 
C 275.156887 248.836992 274.25753 248.464466 273.319895 248.464466 
C 272.382261 248.464466 271.482903 248.836992 270.819895 249.5 
C 270.156887 250.163008 269.784361 251.062365 269.784361 252 
C 269.784361 252.937635 270.156887 253.836992 270.819895 254.5 
C 271.482903 255.163008 272.382261 255.535534 273.319895 255.535534 
z
" clip-path="url(#p8973426166)" style="fill: #808080; stroke: #000000; stroke-width: 0.4"/>
    <path d="M 251.985487 207.165289 
C 253.311502 207.165289 254.583386 206.638458 255.521021 205.700823 
C 256.458655 204.763189 256.985487 203.491305 256.985487 202.165289 
C 256.985487 200.839274 256.458655 199.56739 255.521021 198.629755 
C 254.583386 197.692121 253.311502 197.165289 251.985487 197.165289 
C 250.659471 197.165289 249.387587 197.692121 248.449953 198.629755 
C 247.512318 199.56739 246.985487 200.839274 246.985487 202.165289 
C 246.985487 203.491305 247.512318 204.763189 248.449953 205.700823 
C 249.387587 206.638458 250.659471 207.165289 251.985487 207.165289 
z
" clip-path="url(#p8973426166)" style="stroke: #000000; stroke-width: 0.4"/>
    <path d="M 230.651078 230.618179 
C 231.588713 230.618179 232.488071 230.245652 233.151078 229.582645 
C 233.814086 228.919637 234.186612 228.020279 234.186612 227.082645 
C 234.186612 226.14501 233.814086 225.245652 233.151078 224.582645 
C 232.488071 223.919637 231.588713 223.547111 230.651078 223.547111 
C 229.713444 223.547111 228.814086 223.919637 228.151078 224.582645 
C 227.488071 225.245652 227.115545 226.14501 227.115545 227.082645 
C 227.115545 228.020279 227.488071 228.919637 228.151078 229.582645 
C 228.814086 230.245652 229.713444 230.618179 230.651078 230.618179 
z
" clip-path="url(#p8973426166)" style="fill: #808080; stroke: #000000; stroke-width: 0.4"/>
    <path d="M 209.31667 207.165289 
C 210.642686 207.165289 211.914569 206.638458 212.852204 205.700823 
C 213.789838 204.763189 214.31667 203.491305 214.31667 202.165289 
C 214.31667 200.839274 213.789838 199.56739 212.852204 198.629755 
C 211.914569 197.692121 210.642686 197.165289 209.31667 197.165289 
C 207.990655 197.165289 206.718771 197.692121 205.781136 198.629755 
C 204.843502 199.56739 204.31667 200.839274 204.31667 202.165289 
C 204.31667 203.491305 204.843502 204.763189 205.781136 205.700823 
C 206.718771 206.638458 207.990655 207.165289 209.31667 207.165289 
z
" clip-path="url(#p8973426166)" style="stroke: #000000; stroke-width: 0.4"/>
    <path d="M 187.982262 230.618179 
C 188.919896 230.618179 189.819254 230.245652 190.482262 229.582645 
C 191.145269 228.919637 191.517796 228.020279 191.517796 227.082645 
C 191.517796 226.14501 191.145269 225.245652 190.482262 224.582645 
C 189.819254 223.919637 188.919896 223.547111 187.982262 223.547111 
C 187.044627 223.547111 186.145269 223.919637 185.482262 224.582645 
C 184.819254 225.245652 184.446728 226.14501 184.446728 227.082645 
C 184.446728 228.020279 184.819254 228.919637 185.482262 229.582645 
C 186.145269 230.245652 187.044627 230.618179 187.982262 230.618179 
z
" clip-path="url(#p8973426166)" style="fill: #808080; stroke: #000000; stroke-width: 0.4"/>
    <path d="M 806.680105 182.247934 
C 808.00612 182.247934 809.278004 181.721102 810.215639 180.783468 
C 811.153273 179.845833 811.680105 178.573949 811.680105 177.247934 
C 811.680105 175.921918 811.153273 174.650035 810.215639 173.7124 
C 809.278004 172.774765 808.00612 172.247934 806.680105 172.247934 
C 805.354089 172.247934 804.082205 172.774765 803.144571 173.7124 
C 802.206936 174.650035 801.680105 175.921918 801.680105 177.247934 
C 801.680105 178.573949 802.206936 179.845833 803.144571 180.783468 
C 804.082205 181.721102 805.354089 182.247934 806.680105 182.247934 
z
" clip-path="url(#p8973426166)" style="stroke: #000000; stroke-width: 0.4"/>
    <path d="M 828.014513 180.783468 
C 828.952148 180.783468 829.851505 180.410942 830.514513 179.747934 
C 831.177521 179.084926 831.550047 178.185568 831.550047 177.247934 
C 831.550047 176.310299 831.177521 175.410942 830.514513 174.747934 
C 829.851505 174.084926 828.952148 173.7124 828.014513 173.7124 
C 827.076879 173.7124 826.177521 174.084926 825.514513 174.747934 
C 824.851505 175.410942 824.478979 176.310299 824.478979 177.247934 
C 824.478979 178.185568 824.851505 179.084926 825.514513 179.747934 
C 826.177521 180.410942 827.076879 180.783468 828.014513 180.783468 
z
" clip-path="url(#p8973426166)" style="fill: #808080; stroke: #000000; stroke-width: 0.4"/>
    <path d="M 849.348922 157.330579 
C 850.674937 157.330579 851.946821 156.803747 852.884455 155.866112 
C 853.82209 154.928478 854.348922 153.656594 854.348922 152.330579 
C 854.348922 151.004563 853.82209 149.732679 852.884455 148.795045 
C 851.946821 147.85741 850.674937 147.330579 849.348922 147.330579 
C 848.022906 147.330579 846.751022 147.85741 845.813388 148.795045 
C 844.875753 149.732679 844.348922 151.004563 844.348922 152.330579 
C 844.348922 153.656594 844.875753 154.928478 845.813388 155.866112 
C 846.751022 156.803747 848.022906 157.330579 849.348922 157.330579 
z
" clip-path="url(#p8973426166)" style="stroke: #000000; stroke-width: 0.4"/>
    <path d="M 870.68333 155.866112 
C 871.620965 155.866112 872.520322 155.493586 873.18333 154.830579 
C 873.846338 154.167571 874.218864 153.268213 874.218864 152.330579 
C 874.218864 151.392944 873.846338 150.493586 873.18333 149.830579 
C 872.520322 149.167571 871.620965 148.795045 870.68333 148.795045 
C 869.745695 148.795045 868.846338 149.167571 868.18333 149.830579 
C 867.520322 150.493586 867.147796 151.392944 867.147796 152.330579 
C 867.147796 153.268213 867.520322 154.167571 868.18333 154.830579 
C 868.846338 155.493586 869.745695 155.866112 870.68333 155.866112 
z
" clip-path="url(#p8973426166)" style="fill: #808080; stroke: #000000; stroke-width: 0.4"/>
    <path d="M 166.647853 132.413223 
C 167.973869 132.413223 169.245753 131.886392 170.183387 130.948757 
C 171.121022 130.011122 171.647853 128.739239 171.647853 127.413223 
C 171.647853 126.087208 171.121022 124.815324 170.183387 123.877689 
C 169.245753 122.940055 167.973869 122.413223 166.647853 122.413223 
C 165.321838 122.413223 164.049954 122.940055 163.112319 123.877689 
C 162.174685 124.815324 161.647853 126.087208 161.647853 127.413223 
C 161.647853 128.739239 162.174685 130.011122 163.112319 130.948757 
C 164.049954 131.886392 165.321838 132.413223 166.647853 132.413223 
z
" clip-path="url(#p8973426166)" style="stroke: #000000; stroke-width: 0.4"/>
    <path d="M 145.313445 155.866112 
C 146.251079 155.866112 147.150437 155.493586 147.813445 154.830579 
C 148.476453 154.167571 148.848979 153.268213 148.848979 152.330579 
C 148.848979 151.392944 148.476453 150.493586 147.813445 149.830579 
C 147.150437 149.167571 146.251079 148.795045 145.313445 148.795045 
C 144.37581 148.795045 143.476453 149.167571 142.813445 149.830579 
C 142.150437 150.493586 141.777911 151.392944 141.777911 152.330579 
C 141.777911 153.268213 142.150437 154.167571 142.813445 154.830579 
C 143.476453 155.493586 144.37581 155.866112 145.313445 155.866112 
z
" clip-path="url(#p8973426166)" style="fill: #808080; stroke: #000000; stroke-width: 0.4"/>
    <path d="M 913.352147 130.948757 
C 914.289781 130.948757 915.189139 130.576231 915.852147 129.913223 
C 916.515154 129.250215 916.887681 128.350858 916.887681 127.413223 
C 916.887681 126.475589 916.515154 125.576231 915.852147 124.913223 
C 915.189139 124.250215 914.289781 123.877689 913.352147 123.877689 
C 912.414512 123.877689 911.515154 124.250215 910.852147 124.913223 
C 910.189139 125.576231 909.816613 126.475589 909.816613 127.413223 
C 909.816613 128.350858 910.189139 129.250215 910.852147 129.913223 
C 911.515154 130.576231 912.414512 130.948757 913.352147 130.948757 
z
" clip-path="url(#p8973426166)" style="fill: #808080; stroke: #000000; stroke-width: 0.4"/>
    <path d="M 934.686555 130.948757 
C 935.62419 130.948757 936.523547 130.576231 937.186555 129.913223 
C 937.849563 129.250215 938.222089 128.350858 938.222089 127.413223 
C 938.222089 126.475589 937.849563 125.576231 937.186555 124.913223 
C 936.523547 124.250215 935.62419 123.877689 934.686555 123.877689 
C 933.748921 123.877689 932.849563 124.250215 932.186555 124.913223 
C 931.523547 125.576231 931.151021 126.475589 931.151021 127.413223 
C 931.151021 128.350858 931.523547 129.250215 932.186555 129.913223 
C 932.849563 130.576231 933.748921 130.948757 934.686555 130.948757 
z
" clip-path="url(#p8973426166)" style="fill: #808080; stroke: #000000; stroke-width: 0.4"/>
    <path d="M 892.017738 107.495868 
C 893.343754 107.495868 894.615638 106.969036 895.553272 106.031402 
C 896.490907 105.093767 897.017738 103.821883 897.017738 102.495868 
C 897.017738 101.169852 896.490907 99.897968 895.553272 98.960334 
C 894.615638 98.022699 893.343754 97.495868 892.017738 97.495868 
C 890.691723 97.495868 889.419839 98.022699 888.482204 98.960334 
C 887.54457 99.897968 887.017738 101.169852 887.017738 102.495868 
C 887.017738 103.821883 887.54457 105.093767 888.482204 106.031402 
C 889.419839 106.969036 890.691723 107.495868 892.017738 107.495868 
z
" clip-path="url(#p8973426166)" style="stroke: #000000; stroke-width: 0.4"/>
    <path d="M 956.020964 82.578512 
C 957.346979 82.578512 958.618863 82.051681 959.556497 81.114046 
C 960.494132 80.176412 961.020964 78.904528 961.020964 77.578512 
C 961.020964 76.252497 960.494132 74.980613 959.556497 74.042978 
C 958.618863 73.105344 957.346979 72.578512 956.020964 72.578512 
C 954.694948 72.578512 953.423064 73.105344 952.48543 74.042978 
C 951.547795 74.980613 951.020964 76.252497 951.020964 77.578512 
C 951.020964 78.904528 951.547795 80.176412 952.48543 81.114046 
C 953.423064 82.051681 954.694948 82.578512 956.020964 82.578512 
z
" clip-path="url(#p8973426166)" style="stroke: #000000; stroke-width: 0.4"/>
    <path d="M 977.355372 106.031402 
C 978.293006 106.031402 979.192364 105.658876 979.855372 104.995868 
C 980.51838 104.33286 980.890906 103.433502 980.890906 102.495868 
C 980.890906 101.558233 980.51838 100.658876 979.855372 99.995868 
C 979.192364 99.33286 978.293006 98.960334 977.355372 98.960334 
C 976.417737 98.960334 975.51838 99.33286 974.855372 99.995868 
C 974.192364 100.658876 973.819838 101.558233 973.819838 102.495868 
C 973.819838 103.433502 974.192364 104.33286 974.855372 104.995868 
C 975.51838 105.658876 976.417737 106.031402 977.355372 106.031402 
z
" clip-path="url(#p8973426166)" style="fill: #808080; stroke: #000000; stroke-width: 0.4"/>
    <path d="M 123.979036 57.661157 
C 125.305052 57.661157 126.576936 57.134325 127.51457 56.196691 
C 128.452205 55.259056 128.979036 53.987173 128.979036 52.661157 
C 128.979036 51.335142 128.452205 50.063258 127.51457 49.125623 
C 126.576936 48.187989 125.305052 47.661157 123.979036 47.661157 
C 122.653021 47.661157 121.381137 48.187989 120.443503 49.125623 
C 119.505868 50.063258 118.979036 51.335142 118.979036 52.661157 
C 118.979036 53.987173 119.505868 55.259056 120.443503 56.196691 
C 121.381137 57.134325 122.653021 57.661157 123.979036 57.661157 
z
" clip-path="url(#p8973426166)" style="stroke: #000000; stroke-width: 0.4"/>
    <path d="M 102.644628 81.114046 
C 103.582263 81.114046 104.48162 80.74152 105.144628 80.078512 
C 105.807636 79.415505 106.180162 78.516147 106.180162 77.578512 
C 106.180162 76.640878 105.807636 75.74152 105.144628 75.078512 
C 104.48162 74.415505 103.582263 74.042978 102.644628 74.042978 
C 101.706994 74.042978 100.807636 74.415505 100.144628 75.078512 
C 99.48162 75.74152 99.109094 76.640878 99.109094 77.578512 
C 99.109094 78.516147 99.48162 79.415505 100.144628 80.078512 
C 100.807636 80.74152 101.706994 81.114046 102.644628 81.114046 
z
" clip-path="url(#p8973426166)" style="fill: #808080; stroke: #000000; stroke-width: 0.4"/>
   </g>
   <g id="line2d_1">
    <path d="M 411.99355 493.2 
L 411.99355 10.8 
" clip-path="url(#p8973426166)" style="fill: none; stroke: #ff0000; stroke-width: 1.5; stroke-linecap: square"/>
   </g>
   <g id="patch_3">
    <path d="M 10.8 493.2 
L 10.8 10.8 
" style="fill: none; stroke: #000000; stroke-width: 0.8; stroke-linejoin: miter; stroke-linecap: square"/>
   </g>
   <g id="patch_4">
    <path d="M 1069.2 493.2 
L 1069.2 10.8 
" style="fill: none; stroke: #000000; stroke-width: 0.8; stroke-linejoin: miter; stroke-linecap: square"/>
   </g>
   <g id="patch_5">
    <path d="M 10.8 493.2 
L 1069.2 493.2 
" style="fill: none; stroke: #000000; stroke-width: 0.8; stroke-linejoin: miter; stroke-linecap: square"/>
   </g>
   <g id="patch_6">
    <path d="M 10.8 10.8 
L 1069.2 10.8 
" style="fill: none; stroke: #000000; stroke-width: 0.8; stroke-linejoin: miter; stroke-linecap: square"/>
   </g>
  </g>
 </g>
 <defs>
  <clipPath id="p8973426166">
   <rect x="10.8" y="10.8" width="1058.4" height="482.4"/>
  </clipPath>
 </defs>
</svg>
