<?xml version="1.0" encoding="utf-8" standalone="no"?>
<!DOCTYPE svg PUBLIC "-//W3C//DTD SVG 1.1//EN"
  "http://www.w3.org/Graphics/SVG/1.1/DTD/svg11.dtd">
<svg xmlns:xlink="http://www.w3.org/1999/xlink" width="1080pt" height="504pt" viewBox="0 0 1080 504" xmlns="http://www.w3.org/2000/svg" version="1.1">
 <metadata>
  <rdf:RDF xmlns:dc="http://purl.org/dc/elements/1.1/" xmlns:cc="http://creativecommons.org/ns#" xmlns:rdf="http://www.w3.org/1999/02/22-rdf-syntax-ns#">
   <cc:Work>
    <dc:type rdf:resource="http://purl.org/dc/dcmitype/StillImage"/>
    <dc:date>2022-04-20T08:05:12.130169</dc:date>
    <dc:format>image/svg+xml</dc:format>
    <dc:creator>
     <cc:Agent>
      <dc:title>Matplotlib v3.5.1, https://matplotlib.org/</dc:title>
     </cc:Agent>
    </dc:creator>
   </cc:Work>
  </rdf:RDF>
 </metadata>
 <defs>
  <style type="text/css">*{stroke-linejoin: round; stroke-linecap: butt}</style>
 </defs>
 <g id="figure_1">
  <g id="patch_1">
   <path d="M 0 504 
L 1080 504 
L 1080 0 
L 0 0 
z
" style="fill: #ffffff"/>
  </g>
  <g id="axes_1">
   <g id="patch_2">
    <path d="M 10.8 493.2 
L 1069.2 493.2 
L 1069.2 10.8 
L 10.8 10.8 
z
" style="fill: #ffffff"/>
   </g>
   <g id="LineCollection_1">
    <path d="M 136.94701 141.256198 
L 154.098201 141.256198 
" clip-path="url(#p1243543b5e)" style="fill: none; stroke: #000000; stroke-width: 0.4"/>
    <path d="M 136.94701 141.256198 
L 119.795819 96.958678 
" clip-path="url(#p1243543b5e)" style="fill: none; stroke: #000000; stroke-width: 0.4"/>
    <path d="M 119.795819 96.958678 
L 102.644628 141.256198 
" clip-path="url(#p1243543b5e)" style="fill: none; stroke: #000000; stroke-width: 0.4"/>
    <path d="M 119.795819 96.958678 
L 171.249392 52.661157 
" clip-path="url(#p1243543b5e)" style="fill: none; stroke: #000000; stroke-width: 0.4"/>
    <path d="M 188.400583 229.85124 
L 205.551774 229.85124 
" clip-path="url(#p1243543b5e)" style="fill: none; stroke: #000000; stroke-width: 0.4"/>
    <path d="M 188.400583 229.85124 
L 222.702965 185.553719 
" clip-path="url(#p1243543b5e)" style="fill: none; stroke: #000000; stroke-width: 0.4"/>
    <path d="M 222.702965 185.553719 
L 239.854157 229.85124 
" clip-path="url(#p1243543b5e)" style="fill: none; stroke: #000000; stroke-width: 0.4"/>
    <path d="M 222.702965 185.553719 
L 257.005348 141.256198 
" clip-path="url(#p1243543b5e)" style="fill: none; stroke: #000000; stroke-width: 0.4"/>
    <path d="M 325.610112 229.85124 
L 308.458921 274.14876 
" clip-path="url(#p1243543b5e)" style="fill: none; stroke: #000000; stroke-width: 0.4"/>
    <path d="M 325.610112 229.85124 
L 342.761303 274.14876 
" clip-path="url(#p1243543b5e)" style="fill: none; stroke: #000000; stroke-width: 0.4"/>
    <path d="M 325.610112 229.85124 
L 291.30773 229.85124 
" clip-path="url(#p1243543b5e)" style="fill: none; stroke: #000000; stroke-width: 0.4"/>
    <path d="M 291.30773 229.85124 
L 274.156539 274.14876 
" clip-path="url(#p1243543b5e)" style="fill: none; stroke: #000000; stroke-width: 0.4"/>
    <path d="M 291.30773 229.85124 
L 359.912494 185.553719 
" clip-path="url(#p1243543b5e)" style="fill: none; stroke: #000000; stroke-width: 0.4"/>
    <path d="M 411.366067 274.14876 
L 428.517258 274.14876 
" clip-path="url(#p1243543b5e)" style="fill: none; stroke: #000000; stroke-width: 0.4"/>
    <path d="M 411.366067 274.14876 
L 394.214876 229.85124 
" clip-path="url(#p1243543b5e)" style="fill: none; stroke: #000000; stroke-width: 0.4"/>
    <path d="M 394.214876 229.85124 
L 377.063685 274.14876 
" clip-path="url(#p1243543b5e)" style="fill: none; stroke: #000000; stroke-width: 0.4"/>
    <path d="M 394.214876 229.85124 
L 445.668449 185.553719 
" clip-path="url(#p1243543b5e)" style="fill: none; stroke: #000000; stroke-width: 0.4"/>
    <path d="M 462.81964 318.446281 
L 479.970831 318.446281 
" clip-path="url(#p1243543b5e)" style="fill: none; stroke: #000000; stroke-width: 0.4"/>
    <path d="M 462.81964 318.446281 
L 497.122022 274.14876 
" clip-path="url(#p1243543b5e)" style="fill: none; stroke: #000000; stroke-width: 0.4"/>
    <path d="M 514.273213 318.446281 
L 531.424404 318.446281 
" clip-path="url(#p1243543b5e)" style="fill: none; stroke: #000000; stroke-width: 0.4"/>
    <path d="M 514.273213 318.446281 
L 497.122022 274.14876 
" clip-path="url(#p1243543b5e)" style="fill: none; stroke: #000000; stroke-width: 0.4"/>
    <path d="M 497.122022 274.14876 
L 548.575596 229.85124 
" clip-path="url(#p1243543b5e)" style="fill: none; stroke: #000000; stroke-width: 0.4"/>
    <path d="M 582.877978 318.446281 
L 565.726787 362.743802 
" clip-path="url(#p1243543b5e)" style="fill: none; stroke: #000000; stroke-width: 0.4"/>
    <path d="M 582.877978 318.446281 
L 600.029169 362.743802 
" clip-path="url(#p1243543b5e)" style="fill: none; stroke: #000000; stroke-width: 0.4"/>
    <path d="M 582.877978 318.446281 
L 617.18036 274.14876 
" clip-path="url(#p1243543b5e)" style="fill: none; stroke: #000000; stroke-width: 0.4"/>
    <path d="M 634.331551 407.041322 
L 651.482742 407.041322 
" clip-path="url(#p1243543b5e)" style="fill: none; stroke: #000000; stroke-width: 0.4"/>
    <path d="M 634.331551 407.041322 
L 668.633933 362.743802 
" clip-path="url(#p1243543b5e)" style="fill: none; stroke: #000000; stroke-width: 0.4"/>
    <path d="M 668.633933 362.743802 
L 685.785124 407.041322 
" clip-path="url(#p1243543b5e)" style="fill: none; stroke: #000000; stroke-width: 0.4"/>
    <path d="M 668.633933 362.743802 
L 702.936315 318.446281 
" clip-path="url(#p1243543b5e)" style="fill: none; stroke: #000000; stroke-width: 0.4"/>
    <path d="M 737.238697 407.041322 
L 720.087506 451.338843 
" clip-path="url(#p1243543b5e)" style="fill: none; stroke: #000000; stroke-width: 0.4"/>
    <path d="M 737.238697 407.041322 
L 754.389888 451.338843 
" clip-path="url(#p1243543b5e)" style="fill: none; stroke: #000000; stroke-width: 0.4"/>
    <path d="M 737.238697 407.041322 
L 771.541079 362.743802 
" clip-path="url(#p1243543b5e)" style="fill: none; stroke: #000000; stroke-width: 0.4"/>
    <path d="M 805.843461 407.041322 
L 788.69227 451.338843 
" clip-path="url(#p1243543b5e)" style="fill: none; stroke: #000000; stroke-width: 0.4"/>
    <path d="M 805.843461 407.041322 
L 771.541079 362.743802 
" clip-path="url(#p1243543b5e)" style="fill: none; stroke: #000000; stroke-width: 0.4"/>
    <path d="M 771.541079 362.743802 
L 702.936315 318.446281 
" clip-path="url(#p1243543b5e)" style="fill: none; stroke: #000000; stroke-width: 0.4"/>
    <path d="M 702.936315 318.446281 
L 617.18036 274.14876 
" clip-path="url(#p1243543b5e)" style="fill: none; stroke: #000000; stroke-width: 0.4"/>
    <path d="M 617.18036 274.14876 
L 548.575596 229.85124 
" clip-path="url(#p1243543b5e)" style="fill: none; stroke: #000000; stroke-width: 0.4"/>
    <path d="M 548.575596 229.85124 
L 445.668449 185.553719 
" clip-path="url(#p1243543b5e)" style="fill: none; stroke: #000000; stroke-width: 0.4"/>
    <path d="M 445.668449 185.553719 
L 359.912494 185.553719 
" clip-path="url(#p1243543b5e)" style="fill: none; stroke: #000000; stroke-width: 0.4"/>
    <path d="M 359.912494 185.553719 
L 257.005348 141.256198 
" clip-path="url(#p1243543b5e)" style="fill: none; stroke: #000000; stroke-width: 0.4"/>
    <path d="M 257.005348 141.256198 
L 822.994652 96.958678 
" clip-path="url(#p1243543b5e)" style="fill: none; stroke: #000000; stroke-width: 0.4"/>
    <path d="M 891.599417 141.256198 
L 874.448226 185.553719 
" clip-path="url(#p1243543b5e)" style="fill: none; stroke: #000000; stroke-width: 0.4"/>
    <path d="M 891.599417 141.256198 
L 908.750608 185.553719 
" clip-path="url(#p1243543b5e)" style="fill: none; stroke: #000000; stroke-width: 0.4"/>
    <path d="M 891.599417 141.256198 
L 857.297035 141.256198 
" clip-path="url(#p1243543b5e)" style="fill: none; stroke: #000000; stroke-width: 0.4"/>
    <path d="M 857.297035 141.256198 
L 840.145843 185.553719 
" clip-path="url(#p1243543b5e)" style="fill: none; stroke: #000000; stroke-width: 0.4"/>
    <path d="M 857.297035 141.256198 
L 822.994652 96.958678 
" clip-path="url(#p1243543b5e)" style="fill: none; stroke: #000000; stroke-width: 0.4"/>
    <path d="M 822.994652 96.958678 
L 171.249392 52.661157 
" clip-path="url(#p1243543b5e)" style="fill: none; stroke: #000000; stroke-width: 0.4"/>
    <path d="M 960.204181 96.958678 
L 977.355372 96.958678 
" clip-path="url(#p1243543b5e)" style="fill: none; stroke: #000000; stroke-width: 0.4"/>
    <path d="M 960.204181 96.958678 
L 943.05299 52.661157 
" clip-path="url(#p1243543b5e)" style="fill: none; stroke: #000000; stroke-width: 0.4"/>
    <path d="M 943.05299 52.661157 
L 925.901799 96.958678 
" clip-path="url(#p1243543b5e)" style="fill: none; stroke: #000000; stroke-width: 0.4"/>
   </g>
   <g id="matplotlib.axis_1">
    <g id="xtick_1"/>
    <g id="xtick_2"/>
    <g id="xtick_3"/>
    <g id="xtick_4"/>
    <g id="xtick_5"/>
    <g id="xtick_6"/>
   </g>
   <g id="matplotlib.axis_2">
    <g id="ytick_1"/>
    <g id="ytick_2"/>
    <g id="ytick_3"/>
    <g id="ytick_4"/>
    <g id="ytick_5"/>
   </g>
   <g id="PathCollection_1">
    <path d="M 136.94701 144.791732 
C 137.884645 144.791732 138.784002 144.419206 139.44701 143.756198 
C 140.110018 143.093191 140.482544 142.193833 140.482544 141.256198 
C 140.482544 140.318564 140.110018 139.419206 139.44701 138.756198 
C 138.784002 138.093191 137.884645 137.720664 136.94701 137.720664 
C 136.009376 137.720664 135.110018 138.093191 134.44701 138.756198 
C 133.784002 139.419206 133.411476 140.318564 133.411476 141.256198 
C 133.411476 142.193833 133.784002 143.093191 134.44701 143.756198 
C 135.110018 144.419206 136.009376 144.791732 136.94701 144.791732 
z
" clip-path="url(#p1243543b5e)" style="fill: #808080; stroke: #000000; stroke-width: 0.4"/>
    <path d="M 154.098201 144.791732 
C 155.035836 144.791732 155.935194 144.419206 156.598201 143.756198 
C 157.261209 143.093191 157.633735 142.193833 157.633735 141.256198 
C 157.633735 140.318564 157.261209 139.419206 156.598201 138.756198 
C 155.935194 138.093191 155.035836 137.720664 154.098201 137.720664 
C 153.160567 137.720664 152.261209 138.093191 151.598201 138.756198 
C 150.935194 139.419206 150.562667 140.318564 150.562667 141.256198 
C 150.562667 142.193833 150.935194 143.093191 151.598201 143.756198 
C 152.261209 144.419206 153.160567 144.791732 154.098201 144.791732 
z
" clip-path="url(#p1243543b5e)" style="fill: #808080; stroke: #000000; stroke-width: 0.4"/>
    <path d="M 119.795819 100.494212 
C 120.733454 100.494212 121.632811 100.121685 122.295819 99.458678 
C 122.958827 98.79567 123.331353 97.896312 123.331353 96.958678 
C 123.331353 96.021043 122.958827 95.121685 122.295819 94.458678 
C 121.632811 93.79567 120.733454 93.423144 119.795819 93.423144 
C 118.858185 93.423144 117.958827 93.79567 117.295819 94.458678 
C 116.632811 95.121685 116.260285 96.021043 116.260285 96.958678 
C 116.260285 97.896312 116.632811 98.79567 117.295819 99.458678 
C 117.958827 100.121685 118.858185 100.494212 119.795819 100.494212 
z
" clip-path="url(#p1243543b5e)" style="fill: #808080; stroke: #000000; stroke-width: 0.4"/>
    <path d="M 102.644628 144.791732 
C 103.582263 144.791732 104.48162 144.419206 105.144628 143.756198 
C 105.807636 143.093191 106.180162 142.193833 106.180162 141.256198 
C 106.180162 140.318564 105.807636 139.419206 105.144628 138.756198 
C 104.48162 138.093191 103.582263 137.720664 102.644628 137.720664 
C 101.706994 137.720664 100.807636 138.093191 100.144628 138.756198 
C 99.48162 139.419206 99.109094 140.318564 99.109094 141.256198 
C 99.109094 142.193833 99.48162 143.093191 100.144628 143.756198 
C 100.807636 144.419206 101.706994 144.791732 102.644628 144.791732 
z
" clip-path="url(#p1243543b5e)" style="fill: #808080; stroke: #000000; stroke-width: 0.4"/>
    <path d="M 188.400583 233.386774 
C 189.338218 233.386774 190.237576 233.014247 190.900583 232.35124 
C 191.563591 231.688232 191.936117 230.788874 191.936117 229.85124 
C 191.936117 228.913605 191.563591 228.014247 190.900583 227.35124 
C 190.237576 226.688232 189.338218 226.315706 188.400583 226.315706 
C 187.462949 226.315706 186.563591 226.688232 185.900583 227.35124 
C 185.237576 228.014247 184.865049 228.913605 184.865049 229.85124 
C 184.865049 230.788874 185.237576 231.688232 185.900583 232.35124 
C 186.563591 233.014247 187.462949 233.386774 188.400583 233.386774 
z
" clip-path="url(#p1243543b5e)" style="fill: #808080; stroke: #000000; stroke-width: 0.4"/>
    <path d="M 205.551774 233.386774 
C 206.489409 233.386774 207.388767 233.014247 208.051774 232.35124 
C 208.714782 231.688232 209.087308 230.788874 209.087308 229.85124 
C 209.087308 228.913605 208.714782 228.014247 208.051774 227.35124 
C 207.388767 226.688232 206.489409 226.315706 205.551774 226.315706 
C 204.61414 226.315706 203.714782 226.688232 203.051774 227.35124 
C 202.388767 228.014247 202.016241 228.913605 202.016241 229.85124 
C 202.016241 230.788874 202.388767 231.688232 203.051774 232.35124 
C 203.714782 233.014247 204.61414 233.386774 205.551774 233.386774 
z
" clip-path="url(#p1243543b5e)" style="fill: #808080; stroke: #000000; stroke-width: 0.4"/>
    <path d="M 222.702965 189.089253 
C 223.6406 189.089253 224.539958 188.716727 225.202965 188.053719 
C 225.865973 187.390711 226.238499 186.491354 226.238499 185.553719 
C 226.238499 184.616084 225.865973 183.716727 225.202965 183.053719 
C 224.539958 182.390711 223.6406 182.018185 222.702965 182.018185 
C 221.765331 182.018185 220.865973 182.390711 220.202965 183.053719 
C 219.539958 183.716727 219.167432 184.616084 219.167432 185.553719 
C 219.167432 186.491354 219.539958 187.390711 220.202965 188.053719 
C 220.865973 188.716727 221.765331 189.089253 222.702965 189.089253 
z
" clip-path="url(#p1243543b5e)" style="fill: #808080; stroke: #000000; stroke-width: 0.4"/>
    <path d="M 239.854157 233.386774 
C 240.791791 233.386774 241.691149 233.014247 242.354157 232.35124 
C 243.017164 231.688232 243.38969 230.788874 243.38969 229.85124 
C 243.38969 228.913605 243.017164 228.014247 242.354157 227.35124 
C 241.691149 226.688232 240.791791 226.315706 239.854157 226.315706 
C 238.916522 226.315706 238.017164 226.688232 237.354157 227.35124 
C 236.691149 228.014247 236.318623 228.913605 236.318623 229.85124 
C 236.318623 230.788874 236.691149 231.688232 237.354157 232.35124 
C 238.017164 233.014247 238.916522 233.386774 239.854157 233.386774 
z
" clip-path="url(#p1243543b5e)" style="fill: #808080; stroke: #000000; stroke-width: 0.4"/>
    <path d="M 325.610112 233.386774 
C 326.547746 233.386774 327.447104 233.014247 328.110112 232.35124 
C 328.77312 231.688232 329.145646 230.788874 329.145646 229.85124 
C 329.145646 228.913605 328.77312 228.014247 328.110112 227.35124 
C 327.447104 226.688232 326.547746 226.315706 325.610112 226.315706 
C 324.672477 226.315706 323.77312 226.688232 323.110112 227.35124 
C 322.447104 228.014247 322.074578 228.913605 322.074578 229.85124 
C 322.074578 230.788874 322.447104 231.688232 323.110112 232.35124 
C 323.77312 233.014247 324.672477 233.386774 325.610112 233.386774 
z
" clip-path="url(#p1243543b5e)" style="fill: #808080; stroke: #000000; stroke-width: 0.4"/>
    <path d="M 308.458921 277.684294 
C 309.396555 277.684294 310.295913 277.311768 310.958921 276.64876 
C 311.621929 275.985753 311.994455 275.086395 311.994455 274.14876 
C 311.994455 273.211126 311.621929 272.311768 310.958921 271.64876 
C 310.295913 270.985753 309.396555 270.613226 308.458921 270.613226 
C 307.521286 270.613226 306.621929 270.985753 305.958921 271.64876 
C 305.295913 272.311768 304.923387 273.211126 304.923387 274.14876 
C 304.923387 275.086395 305.295913 275.985753 305.958921 276.64876 
C 306.621929 277.311768 307.521286 277.684294 308.458921 277.684294 
z
" clip-path="url(#p1243543b5e)" style="fill: #808080; stroke: #000000; stroke-width: 0.4"/>
    <path d="M 342.761303 277.684294 
C 343.698937 277.684294 344.598295 277.311768 345.261303 276.64876 
C 345.924311 275.985753 346.296837 275.086395 346.296837 274.14876 
C 346.296837 273.211126 345.924311 272.311768 345.261303 271.64876 
C 344.598295 270.985753 343.698937 270.613226 342.761303 270.613226 
C 341.823668 270.613226 340.924311 270.985753 340.261303 271.64876 
C 339.598295 272.311768 339.225769 273.211126 339.225769 274.14876 
C 339.225769 275.086395 339.598295 275.985753 340.261303 276.64876 
C 340.924311 277.311768 341.823668 277.684294 342.761303 277.684294 
z
" clip-path="url(#p1243543b5e)" style="fill: #808080; stroke: #000000; stroke-width: 0.4"/>
    <path d="M 291.30773 233.386774 
C 292.245364 233.386774 293.144722 233.014247 293.80773 232.35124 
C 294.470737 231.688232 294.843264 230.788874 294.843264 229.85124 
C 294.843264 228.913605 294.470737 228.014247 293.80773 227.35124 
C 293.144722 226.688232 292.245364 226.315706 291.30773 226.315706 
C 290.370095 226.315706 289.470737 226.688232 288.80773 227.35124 
C 288.144722 228.014247 287.772196 228.913605 287.772196 229.85124 
C 287.772196 230.788874 288.144722 231.688232 288.80773 232.35124 
C 289.470737 233.014247 290.370095 233.386774 291.30773 233.386774 
z
" clip-path="url(#p1243543b5e)" style="fill: #808080; stroke: #000000; stroke-width: 0.4"/>
    <path d="M 274.156539 277.684294 
C 275.094173 277.684294 275.993531 277.311768 276.656539 276.64876 
C 277.319546 275.985753 277.692073 275.086395 277.692073 274.14876 
C 277.692073 273.211126 277.319546 272.311768 276.656539 271.64876 
C 275.993531 270.985753 275.094173 270.613226 274.156539 270.613226 
C 273.218904 270.613226 272.319546 270.985753 271.656539 271.64876 
C 270.993531 272.311768 270.621005 273.211126 270.621005 274.14876 
C 270.621005 275.086395 270.993531 275.985753 271.656539 276.64876 
C 272.319546 277.311768 273.218904 277.684294 274.156539 277.684294 
z
" clip-path="url(#p1243543b5e)" style="fill: #808080; stroke: #000000; stroke-width: 0.4"/>
    <path d="M 411.366067 277.684294 
C 412.303702 277.684294 413.203059 277.311768 413.866067 276.64876 
C 414.529075 275.985753 414.901601 275.086395 414.901601 274.14876 
C 414.901601 273.211126 414.529075 272.311768 413.866067 271.64876 
C 413.203059 270.985753 412.303702 270.613226 411.366067 270.613226 
C 410.428433 270.613226 409.529075 270.985753 408.866067 271.64876 
C 408.203059 272.311768 407.830533 273.211126 407.830533 274.14876 
C 407.830533 275.086395 408.203059 275.985753 408.866067 276.64876 
C 409.529075 277.311768 410.428433 277.684294 411.366067 277.684294 
z
" clip-path="url(#p1243543b5e)" style="fill: #808080; stroke: #000000; stroke-width: 0.4"/>
    <path d="M 428.517258 277.684294 
C 429.454893 277.684294 430.35425 277.311768 431.017258 276.64876 
C 431.680266 275.985753 432.052792 275.086395 432.052792 274.14876 
C 432.052792 273.211126 431.680266 272.311768 431.017258 271.64876 
C 430.35425 270.985753 429.454893 270.613226 428.517258 270.613226 
C 427.579624 270.613226 426.680266 270.985753 426.017258 271.64876 
C 425.35425 272.311768 424.981724 273.211126 424.981724 274.14876 
C 424.981724 275.086395 425.35425 275.985753 426.017258 276.64876 
C 426.680266 277.311768 427.579624 277.684294 428.517258 277.684294 
z
" clip-path="url(#p1243543b5e)" style="fill: #808080; stroke: #000000; stroke-width: 0.4"/>
    <path d="M 394.214876 233.386774 
C 395.152511 233.386774 396.051868 233.014247 396.714876 232.35124 
C 397.377884 231.688232 397.75041 230.788874 397.75041 229.85124 
C 397.75041 228.913605 397.377884 228.014247 396.714876 227.35124 
C 396.051868 226.688232 395.152511 226.315706 394.214876 226.315706 
C 393.277241 226.315706 392.377884 226.688232 391.714876 227.35124 
C 391.051868 228.014247 390.679342 228.913605 390.679342 229.85124 
C 390.679342 230.788874 391.051868 231.688232 391.714876 232.35124 
C 392.377884 233.014247 393.277241 233.386774 394.214876 233.386774 
z
" clip-path="url(#p1243543b5e)" style="fill: #808080; stroke: #000000; stroke-width: 0.4"/>
    <path d="M 377.063685 277.684294 
C 378.00132 277.684294 378.900677 277.311768 379.563685 276.64876 
C 380.226693 275.985753 380.599219 275.086395 380.599219 274.14876 
C 380.599219 273.211126 380.226693 272.311768 379.563685 271.64876 
C 378.900677 270.985753 378.00132 270.613226 377.063685 270.613226 
C 376.12605 270.613226 375.226693 270.985753 374.563685 271.64876 
C 373.900677 272.311768 373.528151 273.211126 373.528151 274.14876 
C 373.528151 275.086395 373.900677 275.985753 374.563685 276.64876 
C 375.226693 277.311768 376.12605 277.684294 377.063685 277.684294 
z
" clip-path="url(#p1243543b5e)" style="fill: #808080; stroke: #000000; stroke-width: 0.4"/>
    <path d="M 462.81964 321.981815 
C 463.757275 321.981815 464.656633 321.609289 465.31964 320.946281 
C 465.982648 320.283273 466.355174 319.383916 466.355174 318.446281 
C 466.355174 317.508646 465.982648 316.609289 465.31964 315.946281 
C 464.656633 315.283273 463.757275 314.910747 462.81964 314.910747 
C 461.882006 314.910747 460.982648 315.283273 460.31964 315.946281 
C 459.656633 316.609289 459.284106 317.508646 459.284106 318.446281 
C 459.284106 319.383916 459.656633 320.283273 460.31964 320.946281 
C 460.982648 321.609289 461.882006 321.981815 462.81964 321.981815 
z
" clip-path="url(#p1243543b5e)" style="fill: #808080; stroke: #000000; stroke-width: 0.4"/>
    <path d="M 479.970831 321.981815 
C 480.908466 321.981815 481.807824 321.609289 482.470831 320.946281 
C 483.133839 320.283273 483.506365 319.383916 483.506365 318.446281 
C 483.506365 317.508646 483.133839 316.609289 482.470831 315.946281 
C 481.807824 315.283273 480.908466 314.910747 479.970831 314.910747 
C 479.033197 314.910747 478.133839 315.283273 477.470831 315.946281 
C 476.807824 316.609289 476.435297 317.508646 476.435297 318.446281 
C 476.435297 319.383916 476.807824 320.283273 477.470831 320.946281 
C 478.133839 321.609289 479.033197 321.981815 479.970831 321.981815 
z
" clip-path="url(#p1243543b5e)" style="fill: #808080; stroke: #000000; stroke-width: 0.4"/>
    <path d="M 514.273213 321.981815 
C 515.210848 321.981815 516.110206 321.609289 516.773213 320.946281 
C 517.436221 320.283273 517.808747 319.383916 517.808747 318.446281 
C 517.808747 317.508646 517.436221 316.609289 516.773213 315.946281 
C 516.110206 315.283273 515.210848 314.910747 514.273213 314.910747 
C 513.335579 314.910747 512.436221 315.283273 511.773213 315.946281 
C 511.110206 316.609289 510.73768 317.508646 510.73768 318.446281 
C 510.73768 319.383916 511.110206 320.283273 511.773213 320.946281 
C 512.436221 321.609289 513.335579 321.981815 514.273213 321.981815 
z
" clip-path="url(#p1243543b5e)" style="fill: #808080; stroke: #000000; stroke-width: 0.4"/>
    <path d="M 531.424404 321.981815 
C 532.362039 321.981815 533.261397 321.609289 533.924404 320.946281 
C 534.587412 320.283273 534.959938 319.383916 534.959938 318.446281 
C 534.959938 317.508646 534.587412 316.609289 533.924404 315.946281 
C 533.261397 315.283273 532.362039 314.910747 531.424404 314.910747 
C 530.48677 314.910747 529.587412 315.283273 528.924404 315.946281 
C 528.261397 316.609289 527.888871 317.508646 527.888871 318.446281 
C 527.888871 319.383916 528.261397 320.283273 528.924404 320.946281 
C 529.587412 321.609289 530.48677 321.981815 531.424404 321.981815 
z
" clip-path="url(#p1243543b5e)" style="fill: #808080; stroke: #000000; stroke-width: 0.4"/>
    <path d="M 497.122022 277.684294 
C 498.059657 277.684294 498.959015 277.311768 499.622022 276.64876 
C 500.28503 275.985753 500.657556 275.086395 500.657556 274.14876 
C 500.657556 273.211126 500.28503 272.311768 499.622022 271.64876 
C 498.959015 270.985753 498.059657 270.613226 497.122022 270.613226 
C 496.184388 270.613226 495.28503 270.985753 494.622022 271.64876 
C 493.959015 272.311768 493.586488 273.211126 493.586488 274.14876 
C 493.586488 275.086395 493.959015 275.985753 494.622022 276.64876 
C 495.28503 277.311768 496.184388 277.684294 497.122022 277.684294 
z
" clip-path="url(#p1243543b5e)" style="fill: #808080; stroke: #000000; stroke-width: 0.4"/>
    <path d="M 582.877978 321.981815 
C 583.815612 321.981815 584.71497 321.609289 585.377978 320.946281 
C 586.040985 320.283273 586.413512 319.383916 586.413512 318.446281 
C 586.413512 317.508646 586.040985 316.609289 585.377978 315.946281 
C 584.71497 315.283273 583.815612 314.910747 582.877978 314.910747 
C 581.940343 314.910747 581.040985 315.283273 580.377978 315.946281 
C 579.71497 316.609289 579.342444 317.508646 579.342444 318.446281 
C 579.342444 319.383916 579.71497 320.283273 580.377978 320.946281 
C 581.040985 321.609289 581.940343 321.981815 582.877978 321.981815 
z
" clip-path="url(#p1243543b5e)" style="fill: #808080; stroke: #000000; stroke-width: 0.4"/>
    <path d="M 565.726787 366.279336 
C 566.664421 366.279336 567.563779 365.906809 568.226787 365.243802 
C 568.889794 364.580794 569.26232 363.681436 569.26232 362.743802 
C 569.26232 361.806167 568.889794 360.906809 568.226787 360.243802 
C 567.563779 359.580794 566.664421 359.208268 565.726787 359.208268 
C 564.789152 359.208268 563.889794 359.580794 563.226787 360.243802 
C 562.563779 360.906809 562.191253 361.806167 562.191253 362.743802 
C 562.191253 363.681436 562.563779 364.580794 563.226787 365.243802 
C 563.889794 365.906809 564.789152 366.279336 565.726787 366.279336 
z
" clip-path="url(#p1243543b5e)" style="fill: #808080; stroke: #000000; stroke-width: 0.4"/>
    <path d="M 600.029169 366.279336 
C 600.966803 366.279336 601.866161 365.906809 602.529169 365.243802 
C 603.192176 364.580794 603.564703 363.681436 603.564703 362.743802 
C 603.564703 361.806167 603.192176 360.906809 602.529169 360.243802 
C 601.866161 359.580794 600.966803 359.208268 600.029169 359.208268 
C 599.091534 359.208268 598.192176 359.580794 597.529169 360.243802 
C 596.866161 360.906809 596.493635 361.806167 596.493635 362.743802 
C 596.493635 363.681436 596.866161 364.580794 597.529169 365.243802 
C 598.192176 365.906809 599.091534 366.279336 600.029169 366.279336 
z
" clip-path="url(#p1243543b5e)" style="fill: #808080; stroke: #000000; stroke-width: 0.4"/>
    <path d="M 634.331551 410.576856 
C 635.269185 410.576856 636.168543 410.20433 636.831551 409.541322 
C 637.494559 408.878315 637.867085 407.978957 637.867085 407.041322 
C 637.867085 406.103688 637.494559 405.20433 636.831551 404.541322 
C 636.168543 403.878315 635.269185 403.505788 634.331551 403.505788 
C 633.393916 403.505788 632.494559 403.878315 631.831551 404.541322 
C 631.168543 405.20433 630.796017 406.103688 630.796017 407.041322 
C 630.796017 407.978957 631.168543 408.878315 631.831551 409.541322 
C 632.494559 410.20433 633.393916 410.576856 634.331551 410.576856 
z
" clip-path="url(#p1243543b5e)" style="fill: #808080; stroke: #000000; stroke-width: 0.4"/>
    <path d="M 651.482742 410.576856 
C 652.420376 410.576856 653.319734 410.20433 653.982742 409.541322 
C 654.64575 408.878315 655.018276 407.978957 655.018276 407.041322 
C 655.018276 406.103688 654.64575 405.20433 653.982742 404.541322 
C 653.319734 403.878315 652.420376 403.505788 651.482742 403.505788 
C 650.545107 403.505788 649.64575 403.878315 648.982742 404.541322 
C 648.319734 405.20433 647.947208 406.103688 647.947208 407.041322 
C 647.947208 407.978957 648.319734 408.878315 648.982742 409.541322 
C 649.64575 410.20433 650.545107 410.576856 651.482742 410.576856 
z
" clip-path="url(#p1243543b5e)" style="fill: #808080; stroke: #000000; stroke-width: 0.4"/>
    <path d="M 668.633933 366.279336 
C 669.571567 366.279336 670.470925 365.906809 671.133933 365.243802 
C 671.796941 364.580794 672.169467 363.681436 672.169467 362.743802 
C 672.169467 361.806167 671.796941 360.906809 671.133933 360.243802 
C 670.470925 359.580794 669.571567 359.208268 668.633933 359.208268 
C 667.696298 359.208268 666.796941 359.580794 666.133933 360.243802 
C 665.470925 360.906809 665.098399 361.806167 665.098399 362.743802 
C 665.098399 363.681436 665.470925 364.580794 666.133933 365.243802 
C 666.796941 365.906809 667.696298 366.279336 668.633933 366.279336 
z
" clip-path="url(#p1243543b5e)" style="fill: #808080; stroke: #000000; stroke-width: 0.4"/>
    <path d="M 685.785124 410.576856 
C 686.722759 410.576856 687.622116 410.20433 688.285124 409.541322 
C 688.948132 408.878315 689.320658 407.978957 689.320658 407.041322 
C 689.320658 406.103688 688.948132 405.20433 688.285124 404.541322 
C 687.622116 403.878315 686.722759 403.505788 685.785124 403.505788 
C 684.847489 403.505788 683.948132 403.878315 683.285124 404.541322 
C 682.622116 405.20433 682.24959 406.103688 682.24959 407.041322 
C 682.24959 407.978957 682.622116 408.878315 683.285124 409.541322 
C 683.948132 410.20433 684.847489 410.576856 685.785124 410.576856 
z
" clip-path="url(#p1243543b5e)" style="fill: #808080; stroke: #000000; stroke-width: 0.4"/>
    <path d="M 737.238697 410.576856 
C 738.176332 410.576856 739.075689 410.20433 739.738697 409.541322 
C 740.401705 408.878315 740.774231 407.978957 740.774231 407.041322 
C 740.774231 406.103688 740.401705 405.20433 739.738697 404.541322 
C 739.075689 403.878315 738.176332 403.505788 737.238697 403.505788 
C 736.301063 403.505788 735.401705 403.878315 734.738697 404.541322 
C 734.075689 405.20433 733.703163 406.103688 733.703163 407.041322 
C 733.703163 407.978957 734.075689 408.878315 734.738697 409.541322 
C 735.401705 410.20433 736.301063 410.576856 737.238697 410.576856 
z
" clip-path="url(#p1243543b5e)" style="fill: #808080; stroke: #000000; stroke-width: 0.4"/>
    <path d="M 720.087506 454.874377 
C 721.025141 454.874377 721.924498 454.501851 722.587506 453.838843 
C 723.250514 453.175835 723.62304 452.276478 723.62304 451.338843 
C 723.62304 450.401208 723.250514 449.501851 722.587506 448.838843 
C 721.924498 448.175835 721.025141 447.803309 720.087506 447.803309 
C 719.149872 447.803309 718.250514 448.175835 717.587506 448.838843 
C 716.924498 449.501851 716.551972 450.401208 716.551972 451.338843 
C 716.551972 452.276478 716.924498 453.175835 717.587506 453.838843 
C 718.250514 454.501851 719.149872 454.874377 720.087506 454.874377 
z
" clip-path="url(#p1243543b5e)" style="fill: #808080; stroke: #000000; stroke-width: 0.4"/>
    <path d="M 754.389888 454.874377 
C 755.327523 454.874377 756.22688 454.501851 756.889888 453.838843 
C 757.552896 453.175835 757.925422 452.276478 757.925422 451.338843 
C 757.925422 450.401208 757.552896 449.501851 756.889888 448.838843 
C 756.22688 448.175835 755.327523 447.803309 754.389888 447.803309 
C 753.452254 447.803309 752.552896 448.175835 751.889888 448.838843 
C 751.22688 449.501851 750.854354 450.401208 750.854354 451.338843 
C 750.854354 452.276478 751.22688 453.175835 751.889888 453.838843 
C 752.552896 454.501851 753.452254 454.874377 754.389888 454.874377 
z
" clip-path="url(#p1243543b5e)" style="fill: #808080; stroke: #000000; stroke-width: 0.4"/>
    <path d="M 805.843461 412.041322 
C 807.169477 412.041322 808.441361 411.514491 809.378995 410.576856 
C 810.31663 409.639222 810.843461 408.367338 810.843461 407.041322 
C 810.843461 405.715307 810.31663 404.443423 809.378995 403.505788 
C 808.441361 402.568154 807.169477 402.041322 805.843461 402.041322 
C 804.517446 402.041322 803.245562 402.568154 802.307927 403.505788 
C 801.370293 404.443423 800.843461 405.715307 800.843461 407.041322 
C 800.843461 408.367338 801.370293 409.639222 802.307927 410.576856 
C 803.245562 411.514491 804.517446 412.041322 805.843461 412.041322 
z
" clip-path="url(#p1243543b5e)" style="stroke: #000000; stroke-width: 0.4"/>
    <path d="M 788.69227 454.874377 
C 789.629905 454.874377 790.529263 454.501851 791.19227 453.838843 
C 791.855278 453.175835 792.227804 452.276478 792.227804 451.338843 
C 792.227804 450.401208 791.855278 449.501851 791.19227 448.838843 
C 790.529263 448.175835 789.629905 447.803309 788.69227 447.803309 
C 787.754636 447.803309 786.855278 448.175835 786.19227 448.838843 
C 785.529263 449.501851 785.156736 450.401208 785.156736 451.338843 
C 785.156736 452.276478 785.529263 453.175835 786.19227 453.838843 
C 786.855278 454.501851 787.754636 454.874377 788.69227 454.874377 
z
" clip-path="url(#p1243543b5e)" style="fill: #808080; stroke: #000000; stroke-width: 0.4"/>
    <path d="M 771.541079 367.743802 
C 772.867095 367.743802 774.138979 367.21697 775.076613 366.279336 
C 776.014248 365.341701 776.541079 364.069817 776.541079 362.743802 
C 776.541079 361.417786 776.014248 360.145902 775.076613 359.208268 
C 774.138979 358.270633 772.867095 357.743802 771.541079 357.743802 
C 770.215064 357.743802 768.94318 358.270633 768.005545 359.208268 
C 767.067911 360.145902 766.541079 361.417786 766.541079 362.743802 
C 766.541079 364.069817 767.067911 365.341701 768.005545 366.279336 
C 768.94318 367.21697 770.215064 367.743802 771.541079 367.743802 
z
" clip-path="url(#p1243543b5e)" style="stroke: #000000; stroke-width: 0.4"/>
    <path d="M 702.936315 323.446281 
C 704.262331 323.446281 705.534214 322.919449 706.471849 321.981815 
C 707.409483 321.04418 707.936315 319.772296 707.936315 318.446281 
C 707.936315 317.120265 707.409483 315.848382 706.471849 314.910747 
C 705.534214 313.973113 704.262331 313.446281 702.936315 313.446281 
C 701.6103 313.446281 700.338416 313.973113 699.400781 314.910747 
C 698.463147 315.848382 697.936315 317.120265 697.936315 318.446281 
C 697.936315 319.772296 698.463147 321.04418 699.400781 321.981815 
C 700.338416 322.919449 701.6103 323.446281 702.936315 323.446281 
z
" clip-path="url(#p1243543b5e)" style="stroke: #000000; stroke-width: 0.4"/>
    <path d="M 617.18036 279.14876 
C 618.506375 279.14876 619.778259 278.621929 620.715894 277.684294 
C 621.653528 276.74666 622.18036 275.474776 622.18036 274.14876 
C 622.18036 272.822745 621.653528 271.550861 620.715894 270.613226 
C 619.778259 269.675592 618.506375 269.14876 617.18036 269.14876 
C 615.854344 269.14876 614.58246 269.675592 613.644826 270.613226 
C 612.707191 271.550861 612.18036 272.822745 612.18036 274.14876 
C 612.18036 275.474776 612.707191 276.74666 613.644826 277.684294 
C 614.58246 278.621929 615.854344 279.14876 617.18036 279.14876 
z
" clip-path="url(#p1243543b5e)" style="stroke: #000000; stroke-width: 0.4"/>
    <path d="M 548.575596 234.85124 
C 549.901611 234.85124 551.173495 234.324408 552.111129 233.386774 
C 553.048764 232.449139 553.575596 231.177255 553.575596 229.85124 
C 553.575596 228.525224 553.048764 227.25334 552.111129 226.315706 
C 551.173495 225.378071 549.901611 224.85124 548.575596 224.85124 
C 547.24958 224.85124 545.977696 225.378071 545.040062 226.315706 
C 544.102427 227.25334 543.575596 228.525224 543.575596 229.85124 
C 543.575596 231.177255 544.102427 232.449139 545.040062 233.386774 
C 545.977696 234.324408 547.24958 234.85124 548.575596 234.85124 
z
" clip-path="url(#p1243543b5e)" style="stroke: #000000; stroke-width: 0.4"/>
    <path d="M 445.668449 190.553719 
C 446.994465 190.553719 448.266349 190.026887 449.203983 189.089253 
C 450.141618 188.151618 450.668449 186.879735 450.668449 185.553719 
C 450.668449 184.227704 450.141618 182.95582 449.203983 182.018185 
C 448.266349 181.080551 446.994465 180.553719 445.668449 180.553719 
C 444.342434 180.553719 443.07055 181.080551 442.132915 182.018185 
C 441.195281 182.95582 440.668449 184.227704 440.668449 185.553719 
C 440.668449 186.879735 441.195281 188.151618 442.132915 189.089253 
C 443.07055 190.026887 444.342434 190.553719 445.668449 190.553719 
z
" clip-path="url(#p1243543b5e)" style="stroke: #000000; stroke-width: 0.4"/>
    <path d="M 359.912494 190.553719 
C 361.238509 190.553719 362.510393 190.026887 363.448028 189.089253 
C 364.385662 188.151618 364.912494 186.879735 364.912494 185.553719 
C 364.912494 184.227704 364.385662 182.95582 363.448028 182.018185 
C 362.510393 181.080551 361.238509 180.553719 359.912494 180.553719 
C 358.586478 180.553719 357.314595 181.080551 356.37696 182.018185 
C 355.439325 182.95582 354.912494 184.227704 354.912494 185.553719 
C 354.912494 186.879735 355.439325 188.151618 356.37696 189.089253 
C 357.314595 190.026887 358.586478 190.553719 359.912494 190.553719 
z
" clip-path="url(#p1243543b5e)" style="stroke: #000000; stroke-width: 0.4"/>
    <path d="M 257.005348 146.256198 
C 258.331363 146.256198 259.603247 145.729367 260.540881 144.791732 
C 261.478516 143.854098 262.005348 142.582214 262.005348 141.256198 
C 262.005348 139.930183 261.478516 138.658299 260.540881 137.720664 
C 259.603247 136.78303 258.331363 136.256198 257.005348 136.256198 
C 255.679332 136.256198 254.407448 136.78303 253.469814 137.720664 
C 252.532179 138.658299 252.005348 139.930183 252.005348 141.256198 
C 252.005348 142.582214 252.532179 143.854098 253.469814 144.791732 
C 254.407448 145.729367 255.679332 146.256198 257.005348 146.256198 
z
" clip-path="url(#p1243543b5e)" style="stroke: #000000; stroke-width: 0.4"/>
    <path d="M 891.599417 144.791732 
C 892.537051 144.791732 893.436409 144.419206 894.099417 143.756198 
C 894.762424 143.093191 895.134951 142.193833 895.134951 141.256198 
C 895.134951 140.318564 894.762424 139.419206 894.099417 138.756198 
C 893.436409 138.093191 892.537051 137.720664 891.599417 137.720664 
C 890.661782 137.720664 889.762424 138.093191 889.099417 138.756198 
C 888.436409 139.419206 888.063883 140.318564 888.063883 141.256198 
C 888.063883 142.193833 888.436409 143.093191 889.099417 143.756198 
C 889.762424 144.419206 890.661782 144.791732 891.599417 144.791732 
z
" clip-path="url(#p1243543b5e)" style="fill: #808080; stroke: #000000; stroke-width: 0.4"/>
    <path d="M 874.448226 189.089253 
C 875.38586 189.089253 876.285218 188.716727 876.948226 188.053719 
C 877.611233 187.390711 877.983759 186.491354 877.983759 185.553719 
C 877.983759 184.616084 877.611233 183.716727 876.948226 183.053719 
C 876.285218 182.390711 875.38586 182.018185 874.448226 182.018185 
C 873.510591 182.018185 872.611233 182.390711 871.948226 183.053719 
C 871.285218 183.716727 870.912692 184.616084 870.912692 185.553719 
C 870.912692 186.491354 871.285218 187.390711 871.948226 188.053719 
C 872.611233 188.716727 873.510591 189.089253 874.448226 189.089253 
z
" clip-path="url(#p1243543b5e)" style="fill: #808080; stroke: #000000; stroke-width: 0.4"/>
    <path d="M 908.750608 189.089253 
C 909.688242 189.089253 910.5876 188.716727 911.250608 188.053719 
C 911.913615 187.390711 912.286142 186.491354 912.286142 185.553719 
C 912.286142 184.616084 911.913615 183.716727 911.250608 183.053719 
C 910.5876 182.390711 909.688242 182.018185 908.750608 182.018185 
C 907.812973 182.018185 906.913615 182.390711 906.250608 183.053719 
C 905.5876 183.716727 905.215074 184.616084 905.215074 185.553719 
C 905.215074 186.491354 905.5876 187.390711 906.250608 188.053719 
C 906.913615 188.716727 907.812973 189.089253 908.750608 189.089253 
z
" clip-path="url(#p1243543b5e)" style="fill: #808080; stroke: #000000; stroke-width: 0.4"/>
    <path d="M 857.297035 144.791732 
C 858.234669 144.791732 859.134027 144.419206 859.797035 143.756198 
C 860.460042 143.093191 860.832568 142.193833 860.832568 141.256198 
C 860.832568 140.318564 860.460042 139.419206 859.797035 138.756198 
C 859.134027 138.093191 858.234669 137.720664 857.297035 137.720664 
C 856.3594 137.720664 855.460042 138.093191 854.797035 138.756198 
C 854.134027 139.419206 853.761501 140.318564 853.761501 141.256198 
C 853.761501 142.193833 854.134027 143.093191 854.797035 143.756198 
C 855.460042 144.419206 856.3594 144.791732 857.297035 144.791732 
z
" clip-path="url(#p1243543b5e)" style="fill: #808080; stroke: #000000; stroke-width: 0.4"/>
    <path d="M 840.145843 189.089253 
C 841.083478 189.089253 841.982836 188.716727 842.645843 188.053719 
C 843.308851 187.390711 843.681377 186.491354 843.681377 185.553719 
C 843.681377 184.616084 843.308851 183.716727 842.645843 183.053719 
C 841.982836 182.390711 841.083478 182.018185 840.145843 182.018185 
C 839.208209 182.018185 838.308851 182.390711 837.645843 183.053719 
C 836.982836 183.716727 836.61031 184.616084 836.61031 185.553719 
C 836.61031 186.491354 836.982836 187.390711 837.645843 188.053719 
C 838.308851 188.716727 839.208209 189.089253 840.145843 189.089253 
z
" clip-path="url(#p1243543b5e)" style="fill: #808080; stroke: #000000; stroke-width: 0.4"/>
    <path d="M 822.994652 101.958678 
C 824.320668 101.958678 825.592552 101.431846 826.530186 100.494212 
C 827.467821 99.556577 827.994652 98.284693 827.994652 96.958678 
C 827.994652 95.632662 827.467821 94.360778 826.530186 93.423144 
C 825.592552 92.485509 824.320668 91.958678 822.994652 91.958678 
C 821.668637 91.958678 820.396753 92.485509 819.459119 93.423144 
C 818.521484 94.360778 817.994652 95.632662 817.994652 96.958678 
C 817.994652 98.284693 818.521484 99.556577 819.459119 100.494212 
C 820.396753 101.431846 821.668637 101.958678 822.994652 101.958678 
z
" clip-path="url(#p1243543b5e)" style="fill: #008000; stroke: #000000; stroke-width: 0.4"/>
    <path d="M 171.249392 57.661157 
C 172.575408 57.661157 173.847292 57.134325 174.784926 56.196691 
C 175.722561 55.259056 176.249392 53.987173 176.249392 52.661157 
C 176.249392 51.335142 175.722561 50.063258 174.784926 49.125623 
C 173.847292 48.187989 172.575408 47.661157 171.249392 47.661157 
C 169.923377 47.661157 168.651493 48.187989 167.713858 49.125623 
C 166.776224 50.063258 166.249392 51.335142 166.249392 52.661157 
C 166.249392 53.987173 166.776224 55.259056 167.713858 56.196691 
C 168.651493 57.134325 169.923377 57.661157 171.249392 57.661157 
z
" clip-path="url(#p1243543b5e)" style="stroke: #000000; stroke-width: 0.4"/>
    <path d="M 960.204181 100.494212 
C 961.141815 100.494212 962.041173 100.121685 962.704181 99.458678 
C 963.367189 98.79567 963.739715 97.896312 963.739715 96.958678 
C 963.739715 96.021043 963.367189 95.121685 962.704181 94.458678 
C 962.041173 93.79567 961.141815 93.423144 960.204181 93.423144 
C 959.266546 93.423144 958.367189 93.79567 957.704181 94.458678 
C 957.041173 95.121685 956.668647 96.021043 956.668647 96.958678 
C 956.668647 97.896312 957.041173 98.79567 957.704181 99.458678 
C 958.367189 100.121685 959.266546 100.494212 960.204181 100.494212 
z
" clip-path="url(#p1243543b5e)" style="fill: #808080; stroke: #000000; stroke-width: 0.4"/>
    <path d="M 977.355372 100.494212 
C 978.293006 100.494212 979.192364 100.121685 979.855372 99.458678 
C 980.51838 98.79567 980.890906 97.896312 980.890906 96.958678 
C 980.890906 96.021043 980.51838 95.121685 979.855372 94.458678 
C 979.192364 93.79567 978.293006 93.423144 977.355372 93.423144 
C 976.417737 93.423144 975.51838 93.79567 974.855372 94.458678 
C 974.192364 95.121685 973.819838 96.021043 973.819838 96.958678 
C 973.819838 97.896312 974.192364 98.79567 974.855372 99.458678 
C 975.51838 100.121685 976.417737 100.494212 977.355372 100.494212 
z
" clip-path="url(#p1243543b5e)" style="fill: #808080; stroke: #000000; stroke-width: 0.4"/>
    <path d="M 943.05299 56.196691 
C 943.990624 56.196691 944.889982 55.824165 945.55299 55.161157 
C 946.215998 54.498149 946.588524 53.598792 946.588524 52.661157 
C 946.588524 51.723522 946.215998 50.824165 945.55299 50.161157 
C 944.889982 49.498149 943.990624 49.125623 943.05299 49.125623 
C 942.115355 49.125623 941.215998 49.498149 940.55299 50.161157 
C 939.889982 50.824165 939.517456 51.723522 939.517456 52.661157 
C 939.517456 53.598792 939.889982 54.498149 940.55299 55.161157 
C 941.215998 55.824165 942.115355 56.196691 943.05299 56.196691 
z
" clip-path="url(#p1243543b5e)" style="fill: #808080; stroke: #000000; stroke-width: 0.4"/>
    <path d="M 925.901799 100.494212 
C 926.839433 100.494212 927.738791 100.121685 928.401799 99.458678 
C 929.064806 98.79567 929.437333 97.896312 929.437333 96.958678 
C 929.437333 96.021043 929.064806 95.121685 928.401799 94.458678 
C 927.738791 93.79567 926.839433 93.423144 925.901799 93.423144 
C 924.964164 93.423144 924.064806 93.79567 923.401799 94.458678 
C 922.738791 95.121685 922.366265 96.021043 922.366265 96.958678 
C 922.366265 97.896312 922.738791 98.79567 923.401799 99.458678 
C 924.064806 100.121685 924.964164 100.494212 925.901799 100.494212 
z
" clip-path="url(#p1243543b5e)" style="fill: #808080; stroke: #000000; stroke-width: 0.4"/>
   </g>
   <g id="line2d_1">
    <path d="M 831.570248 493.2 
L 831.570248 10.8 
" clip-path="url(#p1243543b5e)" style="fill: none; stroke: #ff0000; stroke-width: 1.5; stroke-linecap: square"/>
   </g>
   <g id="patch_3">
    <path d="M 10.8 493.2 
L 10.8 10.8 
" style="fill: none; stroke: #000000; stroke-width: 0.8; stroke-linejoin: miter; stroke-linecap: square"/>
   </g>
   <g id="patch_4">
    <path d="M 1069.2 493.2 
L 1069.2 10.8 
" style="fill: none; stroke: #000000; stroke-width: 0.8; stroke-linejoin: miter; stroke-linecap: square"/>
   </g>
   <g id="patch_5">
    <path d="M 10.8 493.2 
L 1069.2 493.2 
" style="fill: none; stroke: #000000; stroke-width: 0.8; stroke-linejoin: miter; stroke-linecap: square"/>
   </g>
   <g id="patch_6">
    <path d="M 10.8 10.8 
L 1069.2 10.8 
" style="fill: none; stroke: #000000; stroke-width: 0.8; stroke-linejoin: miter; stroke-linecap: square"/>
   </g>
   <g id="text_1">
    <!-- LE -->
    <g transform="translate(802.994652 116.958678)scale(0.12 -0.12)">
     <defs>
      <path id="DejaVuSans-4c" d="M 628 4666 
L 1259 4666 
L 1259 531 
L 3531 531 
L 3531 0 
L 628 0 
L 628 4666 
z
" transform="scale(0.015625)"/>
      <path id="DejaVuSans-45" d="M 628 4666 
L 3578 4666 
L 3578 4134 
L 1259 4134 
L 1259 2753 
L 3481 2753 
L 3481 2222 
L 1259 2222 
L 1259 531 
L 3634 531 
L 3634 0 
L 628 0 
L 628 4666 
z
" transform="scale(0.015625)"/>
     </defs>
     <use xlink:href="#DejaVuSans-4c"/>
     <use xlink:href="#DejaVuSans-45" x="55.712891"/>
    </g>
   </g>
  </g>
 </g>
 <defs>
  <clipPath id="p1243543b5e">
   <rect x="10.8" y="10.8" width="1058.4" height="482.4"/>
  </clipPath>
 </defs>
</svg>
