<?xml version="1.0" encoding="utf-8" standalone="no"?>
<!DOCTYPE svg PUBLIC "-//W3C//DTD SVG 1.1//EN"
  "http://www.w3.org/Graphics/SVG/1.1/DTD/svg11.dtd">
<svg xmlns:xlink="http://www.w3.org/1999/xlink" width="1080pt" height="504pt" viewBox="0 0 1080 504" xmlns="http://www.w3.org/2000/svg" version="1.1">
 <metadata>
  <rdf:RDF xmlns:dc="http://purl.org/dc/elements/1.1/" xmlns:cc="http://creativecommons.org/ns#" xmlns:rdf="http://www.w3.org/1999/02/22-rdf-syntax-ns#">
   <cc:Work>
    <dc:type rdf:resource="http://purl.org/dc/dcmitype/StillImage"/>
    <dc:date>2022-04-20T07:33:44.806294</dc:date>
    <dc:format>image/svg+xml</dc:format>
    <dc:creator>
     <cc:Agent>
      <dc:title>Matplotlib v3.5.1, https://matplotlib.org/</dc:title>
     </cc:Agent>
    </dc:creator>
   </cc:Work>
  </rdf:RDF>
 </metadata>
 <defs>
  <style type="text/css">*{stroke-linejoin: round; stroke-linecap: butt}</style>
 </defs>
 <g id="figure_1">
  <g id="patch_1">
   <path d="M 0 504 
L 1080 504 
L 1080 0 
L 0 0 
z
" style="fill: #ffffff"/>
  </g>
  <g id="axes_1">
   <g id="patch_2">
    <path d="M 10.8 493.2 
L 1069.2 493.2 
L 1069.2 10.8 
L 10.8 10.8 
z
" style="fill: #ffffff"/>
   </g>
   <g id="LineCollection_1">
    <path d="M 164.027838 132.396694 
L 179.373641 132.396694 
" clip-path="url(#p7b0a91036a)" style="fill: none; stroke: #000000; stroke-width: 0.4"/>
    <path d="M 164.027838 132.396694 
L 194.719443 105.818182 
" clip-path="url(#p7b0a91036a)" style="fill: none; stroke: #000000; stroke-width: 0.4"/>
    <path d="M 271.448456 185.553719 
L 286.794258 185.553719 
" clip-path="url(#p7b0a91036a)" style="fill: none; stroke: #000000; stroke-width: 0.4"/>
    <path d="M 271.448456 185.553719 
L 302.140061 158.975207 
" clip-path="url(#p7b0a91036a)" style="fill: none; stroke: #000000; stroke-width: 0.4"/>
    <path d="M 317.485863 212.132231 
L 332.831666 212.132231 
" clip-path="url(#p7b0a91036a)" style="fill: none; stroke: #000000; stroke-width: 0.4"/>
    <path d="M 317.485863 212.132231 
L 348.177468 185.553719 
" clip-path="url(#p7b0a91036a)" style="fill: none; stroke: #000000; stroke-width: 0.4"/>
    <path d="M 486.289691 318.446281 
L 501.635494 318.446281 
" clip-path="url(#p7b0a91036a)" style="fill: none; stroke: #000000; stroke-width: 0.4"/>
    <path d="M 486.289691 318.446281 
L 516.981296 291.867769 
" clip-path="url(#p7b0a91036a)" style="fill: none; stroke: #000000; stroke-width: 0.4"/>
    <path d="M 532.327099 318.446281 
L 547.672901 318.446281 
" clip-path="url(#p7b0a91036a)" style="fill: none; stroke: #000000; stroke-width: 0.4"/>
    <path d="M 532.327099 318.446281 
L 563.018704 291.867769 
" clip-path="url(#p7b0a91036a)" style="fill: none; stroke: #000000; stroke-width: 0.4"/>
    <path d="M 578.364506 345.024793 
L 593.710309 345.024793 
" clip-path="url(#p7b0a91036a)" style="fill: none; stroke: #000000; stroke-width: 0.4"/>
    <path d="M 578.364506 345.024793 
L 609.056111 318.446281 
" clip-path="url(#p7b0a91036a)" style="fill: none; stroke: #000000; stroke-width: 0.4"/>
    <path d="M 624.401914 371.603306 
L 639.747716 371.603306 
" clip-path="url(#p7b0a91036a)" style="fill: none; stroke: #000000; stroke-width: 0.4"/>
    <path d="M 624.401914 371.603306 
L 655.093519 345.024793 
" clip-path="url(#p7b0a91036a)" style="fill: none; stroke: #000000; stroke-width: 0.4"/>
    <path d="M 777.859939 451.338843 
L 793.205742 451.338843 
" clip-path="url(#p7b0a91036a)" style="fill: none; stroke: #000000; stroke-width: 0.4"/>
    <path d="M 777.859939 451.338843 
L 762.514137 451.338843 
" clip-path="url(#p7b0a91036a)" style="fill: none; stroke: #000000; stroke-width: 0.4"/>
    <path d="M 762.514137 451.338843 
L 808.551544 424.760331 
" clip-path="url(#p7b0a91036a)" style="fill: none; stroke: #000000; stroke-width: 0.4"/>
    <path d="M 808.551544 424.760331 
L 823.897347 424.760331 
" clip-path="url(#p7b0a91036a)" style="fill: none; stroke: #000000; stroke-width: 0.4"/>
    <path d="M 808.551544 424.760331 
L 747.168334 424.760331 
" clip-path="url(#p7b0a91036a)" style="fill: none; stroke: #000000; stroke-width: 0.4"/>
    <path d="M 747.168334 424.760331 
L 731.822532 451.338843 
" clip-path="url(#p7b0a91036a)" style="fill: none; stroke: #000000; stroke-width: 0.4"/>
    <path d="M 747.168334 424.760331 
L 839.243149 398.181818 
" clip-path="url(#p7b0a91036a)" style="fill: none; stroke: #000000; stroke-width: 0.4"/>
    <path d="M 839.243149 398.181818 
L 854.588952 424.760331 
" clip-path="url(#p7b0a91036a)" style="fill: none; stroke: #000000; stroke-width: 0.4"/>
    <path d="M 839.243149 398.181818 
L 716.476729 398.181818 
" clip-path="url(#p7b0a91036a)" style="fill: none; stroke: #000000; stroke-width: 0.4"/>
    <path d="M 716.476729 398.181818 
L 701.130926 424.760331 
" clip-path="url(#p7b0a91036a)" style="fill: none; stroke: #000000; stroke-width: 0.4"/>
    <path d="M 716.476729 398.181818 
L 685.785124 398.181818 
" clip-path="url(#p7b0a91036a)" style="fill: none; stroke: #000000; stroke-width: 0.4"/>
    <path d="M 685.785124 398.181818 
L 670.439321 424.760331 
" clip-path="url(#p7b0a91036a)" style="fill: none; stroke: #000000; stroke-width: 0.4"/>
    <path d="M 685.785124 398.181818 
L 869.934754 371.603306 
" clip-path="url(#p7b0a91036a)" style="fill: none; stroke: #000000; stroke-width: 0.4"/>
    <path d="M 885.280557 371.603306 
L 900.626359 371.603306 
" clip-path="url(#p7b0a91036a)" style="fill: none; stroke: #000000; stroke-width: 0.4"/>
    <path d="M 885.280557 371.603306 
L 869.934754 371.603306 
" clip-path="url(#p7b0a91036a)" style="fill: none; stroke: #000000; stroke-width: 0.4"/>
    <path d="M 869.934754 371.603306 
L 655.093519 345.024793 
" clip-path="url(#p7b0a91036a)" style="fill: none; stroke: #000000; stroke-width: 0.4"/>
    <path d="M 655.093519 345.024793 
L 609.056111 318.446281 
" clip-path="url(#p7b0a91036a)" style="fill: none; stroke: #000000; stroke-width: 0.4"/>
    <path d="M 609.056111 318.446281 
L 563.018704 291.867769 
" clip-path="url(#p7b0a91036a)" style="fill: none; stroke: #000000; stroke-width: 0.4"/>
    <path d="M 563.018704 291.867769 
L 516.981296 291.867769 
" clip-path="url(#p7b0a91036a)" style="fill: none; stroke: #000000; stroke-width: 0.4"/>
    <path d="M 516.981296 291.867769 
L 470.943889 265.289256 
" clip-path="url(#p7b0a91036a)" style="fill: none; stroke: #000000; stroke-width: 0.4"/>
    <path d="M 470.943889 265.289256 
L 455.598086 291.867769 
" clip-path="url(#p7b0a91036a)" style="fill: none; stroke: #000000; stroke-width: 0.4"/>
    <path d="M 470.943889 265.289256 
L 440.252284 265.289256 
" clip-path="url(#p7b0a91036a)" style="fill: none; stroke: #000000; stroke-width: 0.4"/>
    <path d="M 440.252284 265.289256 
L 424.906481 291.867769 
" clip-path="url(#p7b0a91036a)" style="fill: none; stroke: #000000; stroke-width: 0.4"/>
    <path d="M 440.252284 265.289256 
L 915.972162 238.710744 
" clip-path="url(#p7b0a91036a)" style="fill: none; stroke: #000000; stroke-width: 0.4"/>
    <path d="M 931.317964 265.289256 
L 946.663767 265.289256 
" clip-path="url(#p7b0a91036a)" style="fill: none; stroke: #000000; stroke-width: 0.4"/>
    <path d="M 931.317964 265.289256 
L 915.972162 238.710744 
" clip-path="url(#p7b0a91036a)" style="fill: none; stroke: #000000; stroke-width: 0.4"/>
    <path d="M 915.972162 238.710744 
L 409.560679 212.132231 
" clip-path="url(#p7b0a91036a)" style="fill: none; stroke: #000000; stroke-width: 0.4"/>
    <path d="M 409.560679 212.132231 
L 394.214876 238.710744 
" clip-path="url(#p7b0a91036a)" style="fill: none; stroke: #000000; stroke-width: 0.4"/>
    <path d="M 409.560679 212.132231 
L 378.869074 212.132231 
" clip-path="url(#p7b0a91036a)" style="fill: none; stroke: #000000; stroke-width: 0.4"/>
    <path d="M 378.869074 212.132231 
L 363.523271 238.710744 
" clip-path="url(#p7b0a91036a)" style="fill: none; stroke: #000000; stroke-width: 0.4"/>
    <path d="M 378.869074 212.132231 
L 348.177468 185.553719 
" clip-path="url(#p7b0a91036a)" style="fill: none; stroke: #000000; stroke-width: 0.4"/>
    <path d="M 348.177468 185.553719 
L 302.140061 158.975207 
" clip-path="url(#p7b0a91036a)" style="fill: none; stroke: #000000; stroke-width: 0.4"/>
    <path d="M 302.140061 158.975207 
L 256.102653 132.396694 
" clip-path="url(#p7b0a91036a)" style="fill: none; stroke: #000000; stroke-width: 0.4"/>
    <path d="M 256.102653 132.396694 
L 240.756851 158.975207 
" clip-path="url(#p7b0a91036a)" style="fill: none; stroke: #000000; stroke-width: 0.4"/>
    <path d="M 256.102653 132.396694 
L 225.411048 132.396694 
" clip-path="url(#p7b0a91036a)" style="fill: none; stroke: #000000; stroke-width: 0.4"/>
    <path d="M 225.411048 132.396694 
L 210.065246 158.975207 
" clip-path="url(#p7b0a91036a)" style="fill: none; stroke: #000000; stroke-width: 0.4"/>
    <path d="M 225.411048 132.396694 
L 194.719443 105.818182 
" clip-path="url(#p7b0a91036a)" style="fill: none; stroke: #000000; stroke-width: 0.4"/>
    <path d="M 194.719443 105.818182 
L 962.009569 79.239669 
" clip-path="url(#p7b0a91036a)" style="fill: none; stroke: #000000; stroke-width: 0.4"/>
    <path d="M 962.009569 79.239669 
L 977.355372 105.818182 
" clip-path="url(#p7b0a91036a)" style="fill: none; stroke: #000000; stroke-width: 0.4"/>
    <path d="M 962.009569 79.239669 
L 148.682036 79.239669 
" clip-path="url(#p7b0a91036a)" style="fill: none; stroke: #000000; stroke-width: 0.4"/>
    <path d="M 148.682036 79.239669 
L 133.336233 105.818182 
" clip-path="url(#p7b0a91036a)" style="fill: none; stroke: #000000; stroke-width: 0.4"/>
    <path d="M 148.682036 79.239669 
L 117.990431 52.661157 
" clip-path="url(#p7b0a91036a)" style="fill: none; stroke: #000000; stroke-width: 0.4"/>
    <path d="M 117.990431 52.661157 
L 102.644628 79.239669 
" clip-path="url(#p7b0a91036a)" style="fill: none; stroke: #000000; stroke-width: 0.4"/>
   </g>
   <g id="matplotlib.axis_1">
    <g id="xtick_1"/>
    <g id="xtick_2"/>
    <g id="xtick_3"/>
    <g id="xtick_4"/>
    <g id="xtick_5"/>
    <g id="xtick_6"/>
    <g id="xtick_7"/>
   </g>
   <g id="matplotlib.axis_2">
    <g id="ytick_1"/>
    <g id="ytick_2"/>
    <g id="ytick_3"/>
    <g id="ytick_4"/>
    <g id="ytick_5"/>
    <g id="ytick_6"/>
    <g id="ytick_7"/>
    <g id="ytick_8"/>
   </g>
   <g id="PathCollection_1">
    <path d="M 164.027838 135.932228 
C 164.965473 135.932228 165.86483 135.559702 166.527838 134.896694 
C 167.190846 134.233686 167.563372 133.334329 167.563372 132.396694 
C 167.563372 131.45906 167.190846 130.559702 166.527838 129.896694 
C 165.86483 129.233686 164.965473 128.86116 164.027838 128.86116 
C 163.090204 128.86116 162.190846 129.233686 161.527838 129.896694 
C 160.86483 130.559702 160.492304 131.45906 160.492304 132.396694 
C 160.492304 133.334329 160.86483 134.233686 161.527838 134.896694 
C 162.190846 135.559702 163.090204 135.932228 164.027838 135.932228 
z
" clip-path="url(#p7b0a91036a)" style="fill: #808080; stroke: #000000; stroke-width: 0.4"/>
    <path d="M 179.373641 135.932228 
C 180.311275 135.932228 181.210633 135.559702 181.873641 134.896694 
C 182.536648 134.233686 182.909175 133.334329 182.909175 132.396694 
C 182.909175 131.45906 182.536648 130.559702 181.873641 129.896694 
C 181.210633 129.233686 180.311275 128.86116 179.373641 128.86116 
C 178.436006 128.86116 177.536648 129.233686 176.873641 129.896694 
C 176.210633 130.559702 175.838107 131.45906 175.838107 132.396694 
C 175.838107 133.334329 176.210633 134.233686 176.873641 134.896694 
C 177.536648 135.559702 178.436006 135.932228 179.373641 135.932228 
z
" clip-path="url(#p7b0a91036a)" style="fill: #808080; stroke: #000000; stroke-width: 0.4"/>
    <path d="M 271.448456 189.089253 
C 272.38609 189.089253 273.285448 188.716727 273.948456 188.053719 
C 274.611464 187.390711 274.98399 186.491354 274.98399 185.553719 
C 274.98399 184.616084 274.611464 183.716727 273.948456 183.053719 
C 273.285448 182.390711 272.38609 182.018185 271.448456 182.018185 
C 270.510821 182.018185 269.611464 182.390711 268.948456 183.053719 
C 268.285448 183.716727 267.912922 184.616084 267.912922 185.553719 
C 267.912922 186.491354 268.285448 187.390711 268.948456 188.053719 
C 269.611464 188.716727 270.510821 189.089253 271.448456 189.089253 
z
" clip-path="url(#p7b0a91036a)" style="fill: #808080; stroke: #000000; stroke-width: 0.4"/>
    <path d="M 286.794258 189.089253 
C 287.731893 189.089253 288.631251 188.716727 289.294258 188.053719 
C 289.957266 187.390711 290.329792 186.491354 290.329792 185.553719 
C 290.329792 184.616084 289.957266 183.716727 289.294258 183.053719 
C 288.631251 182.390711 287.731893 182.018185 286.794258 182.018185 
C 285.856624 182.018185 284.957266 182.390711 284.294258 183.053719 
C 283.631251 183.716727 283.258724 184.616084 283.258724 185.553719 
C 283.258724 186.491354 283.631251 187.390711 284.294258 188.053719 
C 284.957266 188.716727 285.856624 189.089253 286.794258 189.089253 
z
" clip-path="url(#p7b0a91036a)" style="fill: #808080; stroke: #000000; stroke-width: 0.4"/>
    <path d="M 317.485863 215.667765 
C 318.423498 215.667765 319.322856 215.295239 319.985863 214.632231 
C 320.648871 213.969224 321.021397 213.069866 321.021397 212.132231 
C 321.021397 211.194597 320.648871 210.295239 319.985863 209.632231 
C 319.322856 208.969224 318.423498 208.596697 317.485863 208.596697 
C 316.548229 208.596697 315.648871 208.969224 314.985863 209.632231 
C 314.322856 210.295239 313.95033 211.194597 313.95033 212.132231 
C 313.95033 213.069866 314.322856 213.969224 314.985863 214.632231 
C 315.648871 215.295239 316.548229 215.667765 317.485863 215.667765 
z
" clip-path="url(#p7b0a91036a)" style="fill: #808080; stroke: #000000; stroke-width: 0.4"/>
    <path d="M 332.831666 215.667765 
C 333.7693 215.667765 334.668658 215.295239 335.331666 214.632231 
C 335.994674 213.969224 336.3672 213.069866 336.3672 212.132231 
C 336.3672 211.194597 335.994674 210.295239 335.331666 209.632231 
C 334.668658 208.969224 333.7693 208.596697 332.831666 208.596697 
C 331.894031 208.596697 330.994674 208.969224 330.331666 209.632231 
C 329.668658 210.295239 329.296132 211.194597 329.296132 212.132231 
C 329.296132 213.069866 329.668658 213.969224 330.331666 214.632231 
C 330.994674 215.295239 331.894031 215.667765 332.831666 215.667765 
z
" clip-path="url(#p7b0a91036a)" style="fill: #808080; stroke: #000000; stroke-width: 0.4"/>
    <path d="M 486.289691 321.981815 
C 487.227326 321.981815 488.126683 321.609289 488.789691 320.946281 
C 489.452699 320.283273 489.825225 319.383916 489.825225 318.446281 
C 489.825225 317.508646 489.452699 316.609289 488.789691 315.946281 
C 488.126683 315.283273 487.227326 314.910747 486.289691 314.910747 
C 485.352057 314.910747 484.452699 315.283273 483.789691 315.946281 
C 483.126683 316.609289 482.754157 317.508646 482.754157 318.446281 
C 482.754157 319.383916 483.126683 320.283273 483.789691 320.946281 
C 484.452699 321.609289 485.352057 321.981815 486.289691 321.981815 
z
" clip-path="url(#p7b0a91036a)" style="fill: #808080; stroke: #000000; stroke-width: 0.4"/>
    <path d="M 501.635494 321.981815 
C 502.573128 321.981815 503.472486 321.609289 504.135494 320.946281 
C 504.798501 320.283273 505.171028 319.383916 505.171028 318.446281 
C 505.171028 317.508646 504.798501 316.609289 504.135494 315.946281 
C 503.472486 315.283273 502.573128 314.910747 501.635494 314.910747 
C 500.697859 314.910747 499.798501 315.283273 499.135494 315.946281 
C 498.472486 316.609289 498.09996 317.508646 498.09996 318.446281 
C 498.09996 319.383916 498.472486 320.283273 499.135494 320.946281 
C 499.798501 321.609289 500.697859 321.981815 501.635494 321.981815 
z
" clip-path="url(#p7b0a91036a)" style="fill: #808080; stroke: #000000; stroke-width: 0.4"/>
    <path d="M 532.327099 321.981815 
C 533.264733 321.981815 534.164091 321.609289 534.827099 320.946281 
C 535.490106 320.283273 535.862633 319.383916 535.862633 318.446281 
C 535.862633 317.508646 535.490106 316.609289 534.827099 315.946281 
C 534.164091 315.283273 533.264733 314.910747 532.327099 314.910747 
C 531.389464 314.910747 530.490106 315.283273 529.827099 315.946281 
C 529.164091 316.609289 528.791565 317.508646 528.791565 318.446281 
C 528.791565 319.383916 529.164091 320.283273 529.827099 320.946281 
C 530.490106 321.609289 531.389464 321.981815 532.327099 321.981815 
z
" clip-path="url(#p7b0a91036a)" style="fill: #808080; stroke: #000000; stroke-width: 0.4"/>
    <path d="M 547.672901 321.981815 
C 548.610536 321.981815 549.509894 321.609289 550.172901 320.946281 
C 550.835909 320.283273 551.208435 319.383916 551.208435 318.446281 
C 551.208435 317.508646 550.835909 316.609289 550.172901 315.946281 
C 549.509894 315.283273 548.610536 314.910747 547.672901 314.910747 
C 546.735267 314.910747 545.835909 315.283273 545.172901 315.946281 
C 544.509894 316.609289 544.137367 317.508646 544.137367 318.446281 
C 544.137367 319.383916 544.509894 320.283273 545.172901 320.946281 
C 545.835909 321.609289 546.735267 321.981815 547.672901 321.981815 
z
" clip-path="url(#p7b0a91036a)" style="fill: #808080; stroke: #000000; stroke-width: 0.4"/>
    <path d="M 578.364506 348.560327 
C 579.302141 348.560327 580.201499 348.187801 580.864506 347.524793 
C 581.527514 346.861786 581.90004 345.962428 581.90004 345.024793 
C 581.90004 344.087159 581.527514 343.187801 580.864506 342.524793 
C 580.201499 341.861786 579.302141 341.489259 578.364506 341.489259 
C 577.426872 341.489259 576.527514 341.861786 575.864506 342.524793 
C 575.201499 343.187801 574.828972 344.087159 574.828972 345.024793 
C 574.828972 345.962428 575.201499 346.861786 575.864506 347.524793 
C 576.527514 348.187801 577.426872 348.560327 578.364506 348.560327 
z
" clip-path="url(#p7b0a91036a)" style="fill: #808080; stroke: #000000; stroke-width: 0.4"/>
    <path d="M 593.710309 348.560327 
C 594.647943 348.560327 595.547301 348.187801 596.210309 347.524793 
C 596.873317 346.861786 597.245843 345.962428 597.245843 345.024793 
C 597.245843 344.087159 596.873317 343.187801 596.210309 342.524793 
C 595.547301 341.861786 594.647943 341.489259 593.710309 341.489259 
C 592.772674 341.489259 591.873317 341.861786 591.210309 342.524793 
C 590.547301 343.187801 590.174775 344.087159 590.174775 345.024793 
C 590.174775 345.962428 590.547301 346.861786 591.210309 347.524793 
C 591.873317 348.187801 592.772674 348.560327 593.710309 348.560327 
z
" clip-path="url(#p7b0a91036a)" style="fill: #808080; stroke: #000000; stroke-width: 0.4"/>
    <path d="M 624.401914 375.13884 
C 625.339548 375.13884 626.238906 374.766314 626.901914 374.103306 
C 627.564922 373.440298 627.937448 372.54094 627.937448 371.603306 
C 627.937448 370.665671 627.564922 369.766314 626.901914 369.103306 
C 626.238906 368.440298 625.339548 368.067772 624.401914 368.067772 
C 623.464279 368.067772 622.564922 368.440298 621.901914 369.103306 
C 621.238906 369.766314 620.86638 370.665671 620.86638 371.603306 
C 620.86638 372.54094 621.238906 373.440298 621.901914 374.103306 
C 622.564922 374.766314 623.464279 375.13884 624.401914 375.13884 
z
" clip-path="url(#p7b0a91036a)" style="fill: #808080; stroke: #000000; stroke-width: 0.4"/>
    <path d="M 639.747716 375.13884 
C 640.685351 375.13884 641.584709 374.766314 642.247716 374.103306 
C 642.910724 373.440298 643.28325 372.54094 643.28325 371.603306 
C 643.28325 370.665671 642.910724 369.766314 642.247716 369.103306 
C 641.584709 368.440298 640.685351 368.067772 639.747716 368.067772 
C 638.810082 368.067772 637.910724 368.440298 637.247716 369.103306 
C 636.584709 369.766314 636.212182 370.665671 636.212182 371.603306 
C 636.212182 372.54094 636.584709 373.440298 637.247716 374.103306 
C 637.910724 374.766314 638.810082 375.13884 639.747716 375.13884 
z
" clip-path="url(#p7b0a91036a)" style="fill: #808080; stroke: #000000; stroke-width: 0.4"/>
    <path d="M 777.859939 456.338843 
C 779.185955 456.338843 780.457838 455.812011 781.395473 454.874377 
C 782.333108 453.936742 782.859939 452.664858 782.859939 451.338843 
C 782.859939 450.012827 782.333108 448.740944 781.395473 447.803309 
C 780.457838 446.865675 779.185955 446.338843 777.859939 446.338843 
C 776.533924 446.338843 775.26204 446.865675 774.324405 447.803309 
C 773.386771 448.740944 772.859939 450.012827 772.859939 451.338843 
C 772.859939 452.664858 773.386771 453.936742 774.324405 454.874377 
C 775.26204 455.812011 776.533924 456.338843 777.859939 456.338843 
z
" clip-path="url(#p7b0a91036a)" style="fill: #008000; stroke: #000000; stroke-width: 0.4"/>
    <path d="M 793.205742 454.874377 
C 794.143376 454.874377 795.042734 454.501851 795.705742 453.838843 
C 796.368749 453.175835 796.741276 452.276478 796.741276 451.338843 
C 796.741276 450.401208 796.368749 449.501851 795.705742 448.838843 
C 795.042734 448.175835 794.143376 447.803309 793.205742 447.803309 
C 792.268107 447.803309 791.368749 448.175835 790.705742 448.838843 
C 790.042734 449.501851 789.670208 450.401208 789.670208 451.338843 
C 789.670208 452.276478 790.042734 453.175835 790.705742 453.838843 
C 791.368749 454.501851 792.268107 454.874377 793.205742 454.874377 
z
" clip-path="url(#p7b0a91036a)" style="fill: #808080; stroke: #000000; stroke-width: 0.4"/>
    <path d="M 762.514137 456.338843 
C 763.840152 456.338843 765.112036 455.812011 766.04967 454.874377 
C 766.987305 453.936742 767.514137 452.664858 767.514137 451.338843 
C 767.514137 450.012827 766.987305 448.740944 766.04967 447.803309 
C 765.112036 446.865675 763.840152 446.338843 762.514137 446.338843 
C 761.188121 446.338843 759.916237 446.865675 758.978603 447.803309 
C 758.040968 448.740944 757.514137 450.012827 757.514137 451.338843 
C 757.514137 452.664858 758.040968 453.936742 758.978603 454.874377 
C 759.916237 455.812011 761.188121 456.338843 762.514137 456.338843 
z
" clip-path="url(#p7b0a91036a)" style="stroke: #000000; stroke-width: 0.4"/>
    <path d="M 808.551544 429.760331 
C 809.87756 429.760331 811.149444 429.233499 812.087078 428.295864 
C 813.024713 427.35823 813.551544 426.086346 813.551544 424.760331 
C 813.551544 423.434315 813.024713 422.162431 812.087078 421.224797 
C 811.149444 420.287162 809.87756 419.760331 808.551544 419.760331 
C 807.225529 419.760331 805.953645 420.287162 805.01601 421.224797 
C 804.078376 422.162431 803.551544 423.434315 803.551544 424.760331 
C 803.551544 426.086346 804.078376 427.35823 805.01601 428.295864 
C 805.953645 429.233499 807.225529 429.760331 808.551544 429.760331 
z
" clip-path="url(#p7b0a91036a)" style="fill: #008000; stroke: #000000; stroke-width: 0.4"/>
    <path d="M 823.897347 428.295864 
C 824.834981 428.295864 825.734339 427.923338 826.397347 427.260331 
C 827.060354 426.597323 827.432881 425.697965 827.432881 424.760331 
C 827.432881 423.822696 827.060354 422.923338 826.397347 422.260331 
C 825.734339 421.597323 824.834981 421.224797 823.897347 421.224797 
C 822.959712 421.224797 822.060354 421.597323 821.397347 422.260331 
C 820.734339 422.923338 820.361813 423.822696 820.361813 424.760331 
C 820.361813 425.697965 820.734339 426.597323 821.397347 427.260331 
C 822.060354 427.923338 822.959712 428.295864 823.897347 428.295864 
z
" clip-path="url(#p7b0a91036a)" style="fill: #808080; stroke: #000000; stroke-width: 0.4"/>
    <path d="M 747.168334 429.760331 
C 748.49435 429.760331 749.766233 429.233499 750.703868 428.295864 
C 751.641503 427.35823 752.168334 426.086346 752.168334 424.760331 
C 752.168334 423.434315 751.641503 422.162431 750.703868 421.224797 
C 749.766233 420.287162 748.49435 419.760331 747.168334 419.760331 
C 745.842319 419.760331 744.570435 420.287162 743.6328 421.224797 
C 742.695166 422.162431 742.168334 423.434315 742.168334 424.760331 
C 742.168334 426.086346 742.695166 427.35823 743.6328 428.295864 
C 744.570435 429.233499 745.842319 429.760331 747.168334 429.760331 
z
" clip-path="url(#p7b0a91036a)" style="stroke: #000000; stroke-width: 0.4"/>
    <path d="M 731.822532 454.874377 
C 732.760166 454.874377 733.659524 454.501851 734.322532 453.838843 
C 734.985539 453.175835 735.358065 452.276478 735.358065 451.338843 
C 735.358065 450.401208 734.985539 449.501851 734.322532 448.838843 
C 733.659524 448.175835 732.760166 447.803309 731.822532 447.803309 
C 730.884897 447.803309 729.985539 448.175835 729.322532 448.838843 
C 728.659524 449.501851 728.286998 450.401208 728.286998 451.338843 
C 728.286998 452.276478 728.659524 453.175835 729.322532 453.838843 
C 729.985539 454.501851 730.884897 454.874377 731.822532 454.874377 
z
" clip-path="url(#p7b0a91036a)" style="fill: #808080; stroke: #000000; stroke-width: 0.4"/>
    <path d="M 839.243149 403.181818 
C 840.569165 403.181818 841.841049 402.654987 842.778683 401.717352 
C 843.716318 400.779718 844.243149 399.507834 844.243149 398.181818 
C 844.243149 396.855803 843.716318 395.583919 842.778683 394.646284 
C 841.841049 393.70865 840.569165 393.181818 839.243149 393.181818 
C 837.917134 393.181818 836.64525 393.70865 835.707615 394.646284 
C 834.769981 395.583919 834.243149 396.855803 834.243149 398.181818 
C 834.243149 399.507834 834.769981 400.779718 835.707615 401.717352 
C 836.64525 402.654987 837.917134 403.181818 839.243149 403.181818 
z
" clip-path="url(#p7b0a91036a)" style="stroke: #000000; stroke-width: 0.4"/>
    <path d="M 854.588952 428.295864 
C 855.526586 428.295864 856.425944 427.923338 857.088952 427.260331 
C 857.751959 426.597323 858.124486 425.697965 858.124486 424.760331 
C 858.124486 423.822696 857.751959 422.923338 857.088952 422.260331 
C 856.425944 421.597323 855.526586 421.224797 854.588952 421.224797 
C 853.651317 421.224797 852.751959 421.597323 852.088952 422.260331 
C 851.425944 422.923338 851.053418 423.822696 851.053418 424.760331 
C 851.053418 425.697965 851.425944 426.597323 852.088952 427.260331 
C 852.751959 427.923338 853.651317 428.295864 854.588952 428.295864 
z
" clip-path="url(#p7b0a91036a)" style="fill: #808080; stroke: #000000; stroke-width: 0.4"/>
    <path d="M 716.476729 403.181818 
C 717.802745 403.181818 719.074628 402.654987 720.012263 401.717352 
C 720.949897 400.779718 721.476729 399.507834 721.476729 398.181818 
C 721.476729 396.855803 720.949897 395.583919 720.012263 394.646284 
C 719.074628 393.70865 717.802745 393.181818 716.476729 393.181818 
C 715.150714 393.181818 713.87883 393.70865 712.941195 394.646284 
C 712.003561 395.583919 711.476729 396.855803 711.476729 398.181818 
C 711.476729 399.507834 712.003561 400.779718 712.941195 401.717352 
C 713.87883 402.654987 715.150714 403.181818 716.476729 403.181818 
z
" clip-path="url(#p7b0a91036a)" style="fill: #008000; stroke: #000000; stroke-width: 0.4"/>
    <path d="M 701.130926 428.295864 
C 702.068561 428.295864 702.967919 427.923338 703.630926 427.260331 
C 704.293934 426.597323 704.66646 425.697965 704.66646 424.760331 
C 704.66646 423.822696 704.293934 422.923338 703.630926 422.260331 
C 702.967919 421.597323 702.068561 421.224797 701.130926 421.224797 
C 700.193292 421.224797 699.293934 421.597323 698.630926 422.260331 
C 697.967919 422.923338 697.595393 423.822696 697.595393 424.760331 
C 697.595393 425.697965 697.967919 426.597323 698.630926 427.260331 
C 699.293934 427.923338 700.193292 428.295864 701.130926 428.295864 
z
" clip-path="url(#p7b0a91036a)" style="fill: #808080; stroke: #000000; stroke-width: 0.4"/>
    <path d="M 685.785124 403.181818 
C 687.111139 403.181818 688.383023 402.654987 689.320658 401.717352 
C 690.258292 400.779718 690.785124 399.507834 690.785124 398.181818 
C 690.785124 396.855803 690.258292 395.583919 689.320658 394.646284 
C 688.383023 393.70865 687.111139 393.181818 685.785124 393.181818 
C 684.459108 393.181818 683.187225 393.70865 682.24959 394.646284 
C 681.311956 395.583919 680.785124 396.855803 680.785124 398.181818 
C 680.785124 399.507834 681.311956 400.779718 682.24959 401.717352 
C 683.187225 402.654987 684.459108 403.181818 685.785124 403.181818 
z
" clip-path="url(#p7b0a91036a)" style="stroke: #000000; stroke-width: 0.4"/>
    <path d="M 670.439321 428.295864 
C 671.376956 428.295864 672.276314 427.923338 672.939321 427.260331 
C 673.602329 426.597323 673.974855 425.697965 673.974855 424.760331 
C 673.974855 423.822696 673.602329 422.923338 672.939321 422.260331 
C 672.276314 421.597323 671.376956 421.224797 670.439321 421.224797 
C 669.501687 421.224797 668.602329 421.597323 667.939321 422.260331 
C 667.276314 422.923338 666.903788 423.822696 666.903788 424.760331 
C 666.903788 425.697965 667.276314 426.597323 667.939321 427.260331 
C 668.602329 427.923338 669.501687 428.295864 670.439321 428.295864 
z
" clip-path="url(#p7b0a91036a)" style="fill: #808080; stroke: #000000; stroke-width: 0.4"/>
    <path d="M 885.280557 375.13884 
C 886.218191 375.13884 887.117549 374.766314 887.780557 374.103306 
C 888.443565 373.440298 888.816091 372.54094 888.816091 371.603306 
C 888.816091 370.665671 888.443565 369.766314 887.780557 369.103306 
C 887.117549 368.440298 886.218191 368.067772 885.280557 368.067772 
C 884.342922 368.067772 883.443565 368.440298 882.780557 369.103306 
C 882.117549 369.766314 881.745023 370.665671 881.745023 371.603306 
C 881.745023 372.54094 882.117549 373.440298 882.780557 374.103306 
C 883.443565 374.766314 884.342922 375.13884 885.280557 375.13884 
z
" clip-path="url(#p7b0a91036a)" style="fill: #008000; stroke: #000000; stroke-width: 0.4"/>
    <path d="M 900.626359 375.13884 
C 901.563994 375.13884 902.463352 374.766314 903.126359 374.103306 
C 903.789367 373.440298 904.161893 372.54094 904.161893 371.603306 
C 904.161893 370.665671 903.789367 369.766314 903.126359 369.103306 
C 902.463352 368.440298 901.563994 368.067772 900.626359 368.067772 
C 899.688725 368.067772 898.789367 368.440298 898.126359 369.103306 
C 897.463352 369.766314 897.090825 370.665671 897.090825 371.603306 
C 897.090825 372.54094 897.463352 373.440298 898.126359 374.103306 
C 898.789367 374.766314 899.688725 375.13884 900.626359 375.13884 
z
" clip-path="url(#p7b0a91036a)" style="fill: #808080; stroke: #000000; stroke-width: 0.4"/>
    <path d="M 869.934754 376.603306 
C 871.26077 376.603306 872.532654 376.076474 873.470288 375.13884 
C 874.407923 374.201205 874.934754 372.929321 874.934754 371.603306 
C 874.934754 370.27729 874.407923 369.005406 873.470288 368.067772 
C 872.532654 367.130137 871.26077 366.603306 869.934754 366.603306 
C 868.608739 366.603306 867.336855 367.130137 866.39922 368.067772 
C 865.461586 369.005406 864.934754 370.27729 864.934754 371.603306 
C 864.934754 372.929321 865.461586 374.201205 866.39922 375.13884 
C 867.336855 376.076474 868.608739 376.603306 869.934754 376.603306 
z
" clip-path="url(#p7b0a91036a)" style="stroke: #000000; stroke-width: 0.4"/>
    <path d="M 655.093519 350.024793 
C 656.419534 350.024793 657.691418 349.497962 658.629053 348.560327 
C 659.566687 347.622693 660.093519 346.350809 660.093519 345.024793 
C 660.093519 343.698778 659.566687 342.426894 658.629053 341.489259 
C 657.691418 340.551625 656.419534 340.024793 655.093519 340.024793 
C 653.767503 340.024793 652.49562 340.551625 651.557985 341.489259 
C 650.62035 342.426894 650.093519 343.698778 650.093519 345.024793 
C 650.093519 346.350809 650.62035 347.622693 651.557985 348.560327 
C 652.49562 349.497962 653.767503 350.024793 655.093519 350.024793 
z
" clip-path="url(#p7b0a91036a)" style="stroke: #000000; stroke-width: 0.4"/>
    <path d="M 609.056111 323.446281 
C 610.382127 323.446281 611.654011 322.919449 612.591645 321.981815 
C 613.52928 321.04418 614.056111 319.772296 614.056111 318.446281 
C 614.056111 317.120265 613.52928 315.848382 612.591645 314.910747 
C 611.654011 313.973113 610.382127 313.446281 609.056111 313.446281 
C 607.730096 313.446281 606.458212 313.973113 605.520577 314.910747 
C 604.582943 315.848382 604.056111 317.120265 604.056111 318.446281 
C 604.056111 319.772296 604.582943 321.04418 605.520577 321.981815 
C 606.458212 322.919449 607.730096 323.446281 609.056111 323.446281 
z
" clip-path="url(#p7b0a91036a)" style="stroke: #000000; stroke-width: 0.4"/>
    <path d="M 563.018704 296.867769 
C 564.344719 296.867769 565.616603 296.340937 566.554238 295.403303 
C 567.491872 294.465668 568.018704 293.193784 568.018704 291.867769 
C 568.018704 290.541753 567.491872 289.269869 566.554238 288.332235 
C 565.616603 287.3946 564.344719 286.867769 563.018704 286.867769 
C 561.692688 286.867769 560.420804 287.3946 559.48317 288.332235 
C 558.545535 289.269869 558.018704 290.541753 558.018704 291.867769 
C 558.018704 293.193784 558.545535 294.465668 559.48317 295.403303 
C 560.420804 296.340937 561.692688 296.867769 563.018704 296.867769 
z
" clip-path="url(#p7b0a91036a)" style="stroke: #000000; stroke-width: 0.4"/>
    <path d="M 516.981296 296.867769 
C 518.307312 296.867769 519.579196 296.340937 520.51683 295.403303 
C 521.454465 294.465668 521.981296 293.193784 521.981296 291.867769 
C 521.981296 290.541753 521.454465 289.269869 520.51683 288.332235 
C 519.579196 287.3946 518.307312 286.867769 516.981296 286.867769 
C 515.655281 286.867769 514.383397 287.3946 513.445762 288.332235 
C 512.508128 289.269869 511.981296 290.541753 511.981296 291.867769 
C 511.981296 293.193784 512.508128 294.465668 513.445762 295.403303 
C 514.383397 296.340937 515.655281 296.867769 516.981296 296.867769 
z
" clip-path="url(#p7b0a91036a)" style="stroke: #000000; stroke-width: 0.4"/>
    <path d="M 470.943889 270.289256 
C 472.269904 270.289256 473.541788 269.762425 474.479423 268.82479 
C 475.417057 267.887156 475.943889 266.615272 475.943889 265.289256 
C 475.943889 263.963241 475.417057 262.691357 474.479423 261.753722 
C 473.541788 260.816088 472.269904 260.289256 470.943889 260.289256 
C 469.617873 260.289256 468.345989 260.816088 467.408355 261.753722 
C 466.47072 262.691357 465.943889 263.963241 465.943889 265.289256 
C 465.943889 266.615272 466.47072 267.887156 467.408355 268.82479 
C 468.345989 269.762425 469.617873 270.289256 470.943889 270.289256 
z
" clip-path="url(#p7b0a91036a)" style="stroke: #000000; stroke-width: 0.4"/>
    <path d="M 455.598086 295.403303 
C 456.535721 295.403303 457.435078 295.030776 458.098086 294.367769 
C 458.761094 293.704761 459.13362 292.805403 459.13362 291.867769 
C 459.13362 290.930134 458.761094 290.030776 458.098086 289.367769 
C 457.435078 288.704761 456.535721 288.332235 455.598086 288.332235 
C 454.660452 288.332235 453.761094 288.704761 453.098086 289.367769 
C 452.435078 290.030776 452.062552 290.930134 452.062552 291.867769 
C 452.062552 292.805403 452.435078 293.704761 453.098086 294.367769 
C 453.761094 295.030776 454.660452 295.403303 455.598086 295.403303 
z
" clip-path="url(#p7b0a91036a)" style="fill: #808080; stroke: #000000; stroke-width: 0.4"/>
    <path d="M 440.252284 270.289256 
C 441.578299 270.289256 442.850183 269.762425 443.787818 268.82479 
C 444.725452 267.887156 445.252284 266.615272 445.252284 265.289256 
C 445.252284 263.963241 444.725452 262.691357 443.787818 261.753722 
C 442.850183 260.816088 441.578299 260.289256 440.252284 260.289256 
C 438.926268 260.289256 437.654384 260.816088 436.71675 261.753722 
C 435.779115 262.691357 435.252284 263.963241 435.252284 265.289256 
C 435.252284 266.615272 435.779115 267.887156 436.71675 268.82479 
C 437.654384 269.762425 438.926268 270.289256 440.252284 270.289256 
z
" clip-path="url(#p7b0a91036a)" style="stroke: #000000; stroke-width: 0.4"/>
    <path d="M 424.906481 295.403303 
C 425.844116 295.403303 426.743473 295.030776 427.406481 294.367769 
C 428.069489 293.704761 428.442015 292.805403 428.442015 291.867769 
C 428.442015 290.930134 428.069489 290.030776 427.406481 289.367769 
C 426.743473 288.704761 425.844116 288.332235 424.906481 288.332235 
C 423.968847 288.332235 423.069489 288.704761 422.406481 289.367769 
C 421.743473 290.030776 421.370947 290.930134 421.370947 291.867769 
C 421.370947 292.805403 421.743473 293.704761 422.406481 294.367769 
C 423.069489 295.030776 423.968847 295.403303 424.906481 295.403303 
z
" clip-path="url(#p7b0a91036a)" style="fill: #808080; stroke: #000000; stroke-width: 0.4"/>
    <path d="M 931.317964 268.82479 
C 932.255599 268.82479 933.154957 268.452264 933.817964 267.789256 
C 934.480972 267.126248 934.853498 266.226891 934.853498 265.289256 
C 934.853498 264.351622 934.480972 263.452264 933.817964 262.789256 
C 933.154957 262.126248 932.255599 261.753722 931.317964 261.753722 
C 930.38033 261.753722 929.480972 262.126248 928.817964 262.789256 
C 928.154957 263.452264 927.78243 264.351622 927.78243 265.289256 
C 927.78243 266.226891 928.154957 267.126248 928.817964 267.789256 
C 929.480972 268.452264 930.38033 268.82479 931.317964 268.82479 
z
" clip-path="url(#p7b0a91036a)" style="fill: #808080; stroke: #000000; stroke-width: 0.4"/>
    <path d="M 946.663767 268.82479 
C 947.601401 268.82479 948.500759 268.452264 949.163767 267.789256 
C 949.826775 267.126248 950.199301 266.226891 950.199301 265.289256 
C 950.199301 264.351622 949.826775 263.452264 949.163767 262.789256 
C 948.500759 262.126248 947.601401 261.753722 946.663767 261.753722 
C 945.726132 261.753722 944.826775 262.126248 944.163767 262.789256 
C 943.500759 263.452264 943.128233 264.351622 943.128233 265.289256 
C 943.128233 266.226891 943.500759 267.126248 944.163767 267.789256 
C 944.826775 268.452264 945.726132 268.82479 946.663767 268.82479 
z
" clip-path="url(#p7b0a91036a)" style="fill: #808080; stroke: #000000; stroke-width: 0.4"/>
    <path d="M 915.972162 243.710744 
C 917.298177 243.710744 918.570061 243.183912 919.507696 242.246278 
C 920.44533 241.308643 920.972162 240.036759 920.972162 238.710744 
C 920.972162 237.384728 920.44533 236.112844 919.507696 235.17521 
C 918.570061 234.237575 917.298177 233.710744 915.972162 233.710744 
C 914.646146 233.710744 913.374262 234.237575 912.436628 235.17521 
C 911.498993 236.112844 910.972162 237.384728 910.972162 238.710744 
C 910.972162 240.036759 911.498993 241.308643 912.436628 242.246278 
C 913.374262 243.183912 914.646146 243.710744 915.972162 243.710744 
z
" clip-path="url(#p7b0a91036a)" style="stroke: #000000; stroke-width: 0.4"/>
    <path d="M 409.560679 217.132231 
C 410.886694 217.132231 412.158578 216.6054 413.096212 215.667765 
C 414.033847 214.730131 414.560679 213.458247 414.560679 212.132231 
C 414.560679 210.806216 414.033847 209.534332 413.096212 208.596697 
C 412.158578 207.659063 410.886694 207.132231 409.560679 207.132231 
C 408.234663 207.132231 406.962779 207.659063 406.025145 208.596697 
C 405.08751 209.534332 404.560679 210.806216 404.560679 212.132231 
C 404.560679 213.458247 405.08751 214.730131 406.025145 215.667765 
C 406.962779 216.6054 408.234663 217.132231 409.560679 217.132231 
z
" clip-path="url(#p7b0a91036a)" style="stroke: #000000; stroke-width: 0.4"/>
    <path d="M 394.214876 242.246278 
C 395.152511 242.246278 396.051868 241.873752 396.714876 241.210744 
C 397.377884 240.547736 397.75041 239.648378 397.75041 238.710744 
C 397.75041 237.773109 397.377884 236.873752 396.714876 236.210744 
C 396.051868 235.547736 395.152511 235.17521 394.214876 235.17521 
C 393.277241 235.17521 392.377884 235.547736 391.714876 236.210744 
C 391.051868 236.873752 390.679342 237.773109 390.679342 238.710744 
C 390.679342 239.648378 391.051868 240.547736 391.714876 241.210744 
C 392.377884 241.873752 393.277241 242.246278 394.214876 242.246278 
z
" clip-path="url(#p7b0a91036a)" style="fill: #808080; stroke: #000000; stroke-width: 0.4"/>
    <path d="M 378.869074 217.132231 
C 380.195089 217.132231 381.466973 216.6054 382.404607 215.667765 
C 383.342242 214.730131 383.869074 213.458247 383.869074 212.132231 
C 383.869074 210.806216 383.342242 209.534332 382.404607 208.596697 
C 381.466973 207.659063 380.195089 207.132231 378.869074 207.132231 
C 377.543058 207.132231 376.271174 207.659063 375.33354 208.596697 
C 374.395905 209.534332 373.869074 210.806216 373.869074 212.132231 
C 373.869074 213.458247 374.395905 214.730131 375.33354 215.667765 
C 376.271174 216.6054 377.543058 217.132231 378.869074 217.132231 
z
" clip-path="url(#p7b0a91036a)" style="stroke: #000000; stroke-width: 0.4"/>
    <path d="M 363.523271 242.246278 
C 364.460906 242.246278 365.360263 241.873752 366.023271 241.210744 
C 366.686279 240.547736 367.058805 239.648378 367.058805 238.710744 
C 367.058805 237.773109 366.686279 236.873752 366.023271 236.210744 
C 365.360263 235.547736 364.460906 235.17521 363.523271 235.17521 
C 362.585636 235.17521 361.686279 235.547736 361.023271 236.210744 
C 360.360263 236.873752 359.987737 237.773109 359.987737 238.710744 
C 359.987737 239.648378 360.360263 240.547736 361.023271 241.210744 
C 361.686279 241.873752 362.585636 242.246278 363.523271 242.246278 
z
" clip-path="url(#p7b0a91036a)" style="fill: #808080; stroke: #000000; stroke-width: 0.4"/>
    <path d="M 348.177468 190.553719 
C 349.503484 190.553719 350.775368 190.026887 351.713002 189.089253 
C 352.650637 188.151618 353.177468 186.879735 353.177468 185.553719 
C 353.177468 184.227704 352.650637 182.95582 351.713002 182.018185 
C 350.775368 181.080551 349.503484 180.553719 348.177468 180.553719 
C 346.851453 180.553719 345.579569 181.080551 344.641935 182.018185 
C 343.7043 182.95582 343.177468 184.227704 343.177468 185.553719 
C 343.177468 186.879735 343.7043 188.151618 344.641935 189.089253 
C 345.579569 190.026887 346.851453 190.553719 348.177468 190.553719 
z
" clip-path="url(#p7b0a91036a)" style="stroke: #000000; stroke-width: 0.4"/>
    <path d="M 302.140061 163.975207 
C 303.466076 163.975207 304.73796 163.448375 305.675595 162.510741 
C 306.613229 161.573106 307.140061 160.301222 307.140061 158.975207 
C 307.140061 157.649191 306.613229 156.377307 305.675595 155.439673 
C 304.73796 154.502038 303.466076 153.975207 302.140061 153.975207 
C 300.814045 153.975207 299.542162 154.502038 298.604527 155.439673 
C 297.666892 156.377307 297.140061 157.649191 297.140061 158.975207 
C 297.140061 160.301222 297.666892 161.573106 298.604527 162.510741 
C 299.542162 163.448375 300.814045 163.975207 302.140061 163.975207 
z
" clip-path="url(#p7b0a91036a)" style="stroke: #000000; stroke-width: 0.4"/>
    <path d="M 256.102653 137.396694 
C 257.428669 137.396694 258.700553 136.869863 259.638187 135.932228 
C 260.575822 134.994594 261.102653 133.72271 261.102653 132.396694 
C 261.102653 131.070679 260.575822 129.798795 259.638187 128.86116 
C 258.700553 127.923526 257.428669 127.396694 256.102653 127.396694 
C 254.776638 127.396694 253.504754 127.923526 252.567119 128.86116 
C 251.629485 129.798795 251.102653 131.070679 251.102653 132.396694 
C 251.102653 133.72271 251.629485 134.994594 252.567119 135.932228 
C 253.504754 136.869863 254.776638 137.396694 256.102653 137.396694 
z
" clip-path="url(#p7b0a91036a)" style="stroke: #000000; stroke-width: 0.4"/>
    <path d="M 240.756851 162.510741 
C 241.694485 162.510741 242.593843 162.138214 243.256851 161.475207 
C 243.919859 160.812199 244.292385 159.912841 244.292385 158.975207 
C 244.292385 158.037572 243.919859 157.138214 243.256851 156.475207 
C 242.593843 155.812199 241.694485 155.439673 240.756851 155.439673 
C 239.819216 155.439673 238.919859 155.812199 238.256851 156.475207 
C 237.593843 157.138214 237.221317 158.037572 237.221317 158.975207 
C 237.221317 159.912841 237.593843 160.812199 238.256851 161.475207 
C 238.919859 162.138214 239.819216 162.510741 240.756851 162.510741 
z
" clip-path="url(#p7b0a91036a)" style="fill: #808080; stroke: #000000; stroke-width: 0.4"/>
    <path d="M 225.411048 137.396694 
C 226.737064 137.396694 228.008948 136.869863 228.946582 135.932228 
C 229.884217 134.994594 230.411048 133.72271 230.411048 132.396694 
C 230.411048 131.070679 229.884217 129.798795 228.946582 128.86116 
C 228.008948 127.923526 226.737064 127.396694 225.411048 127.396694 
C 224.085033 127.396694 222.813149 127.923526 221.875514 128.86116 
C 220.93788 129.798795 220.411048 131.070679 220.411048 132.396694 
C 220.411048 133.72271 220.93788 134.994594 221.875514 135.932228 
C 222.813149 136.869863 224.085033 137.396694 225.411048 137.396694 
z
" clip-path="url(#p7b0a91036a)" style="stroke: #000000; stroke-width: 0.4"/>
    <path d="M 210.065246 162.510741 
C 211.00288 162.510741 211.902238 162.138214 212.565246 161.475207 
C 213.228254 160.812199 213.60078 159.912841 213.60078 158.975207 
C 213.60078 158.037572 213.228254 157.138214 212.565246 156.475207 
C 211.902238 155.812199 211.00288 155.439673 210.065246 155.439673 
C 209.127611 155.439673 208.228254 155.812199 207.565246 156.475207 
C 206.902238 157.138214 206.529712 158.037572 206.529712 158.975207 
C 206.529712 159.912841 206.902238 160.812199 207.565246 161.475207 
C 208.228254 162.138214 209.127611 162.510741 210.065246 162.510741 
z
" clip-path="url(#p7b0a91036a)" style="fill: #808080; stroke: #000000; stroke-width: 0.4"/>
    <path d="M 194.719443 110.818182 
C 196.045459 110.818182 197.317343 110.29135 198.254977 109.353716 
C 199.192612 108.416081 199.719443 107.144197 199.719443 105.818182 
C 199.719443 104.492166 199.192612 103.220282 198.254977 102.282648 
C 197.317343 101.345013 196.045459 100.818182 194.719443 100.818182 
C 193.393428 100.818182 192.121544 101.345013 191.183909 102.282648 
C 190.246275 103.220282 189.719443 104.492166 189.719443 105.818182 
C 189.719443 107.144197 190.246275 108.416081 191.183909 109.353716 
C 192.121544 110.29135 193.393428 110.818182 194.719443 110.818182 
z
" clip-path="url(#p7b0a91036a)" style="stroke: #000000; stroke-width: 0.4"/>
    <path d="M 962.009569 84.239669 
C 963.335585 84.239669 964.607469 83.712838 965.545103 82.775203 
C 966.482738 81.837569 967.009569 80.565685 967.009569 79.239669 
C 967.009569 77.913654 966.482738 76.64177 965.545103 75.704136 
C 964.607469 74.766501 963.335585 74.239669 962.009569 74.239669 
C 960.683554 74.239669 959.41167 74.766501 958.474035 75.704136 
C 957.536401 76.64177 957.009569 77.913654 957.009569 79.239669 
C 957.009569 80.565685 957.536401 81.837569 958.474035 82.775203 
C 959.41167 83.712838 960.683554 84.239669 962.009569 84.239669 
z
" clip-path="url(#p7b0a91036a)" style="stroke: #000000; stroke-width: 0.4"/>
    <path d="M 977.355372 109.353716 
C 978.293006 109.353716 979.192364 108.98119 979.855372 108.318182 
C 980.51838 107.655174 980.890906 106.755816 980.890906 105.818182 
C 980.890906 104.880547 980.51838 103.98119 979.855372 103.318182 
C 979.192364 102.655174 978.293006 102.282648 977.355372 102.282648 
C 976.417737 102.282648 975.51838 102.655174 974.855372 103.318182 
C 974.192364 103.98119 973.819838 104.880547 973.819838 105.818182 
C 973.819838 106.755816 974.192364 107.655174 974.855372 108.318182 
C 975.51838 108.98119 976.417737 109.353716 977.355372 109.353716 
z
" clip-path="url(#p7b0a91036a)" style="fill: #808080; stroke: #000000; stroke-width: 0.4"/>
    <path d="M 148.682036 84.239669 
C 150.008051 84.239669 151.279935 83.712838 152.21757 82.775203 
C 153.155204 81.837569 153.682036 80.565685 153.682036 79.239669 
C 153.682036 77.913654 153.155204 76.64177 152.21757 75.704136 
C 151.279935 74.766501 150.008051 74.239669 148.682036 74.239669 
C 147.35602 74.239669 146.084136 74.766501 145.146502 75.704136 
C 144.208867 76.64177 143.682036 77.913654 143.682036 79.239669 
C 143.682036 80.565685 144.208867 81.837569 145.146502 82.775203 
C 146.084136 83.712838 147.35602 84.239669 148.682036 84.239669 
z
" clip-path="url(#p7b0a91036a)" style="stroke: #000000; stroke-width: 0.4"/>
    <path d="M 133.336233 109.353716 
C 134.273868 109.353716 135.173225 108.98119 135.836233 108.318182 
C 136.499241 107.655174 136.871767 106.755816 136.871767 105.818182 
C 136.871767 104.880547 136.499241 103.98119 135.836233 103.318182 
C 135.173225 102.655174 134.273868 102.282648 133.336233 102.282648 
C 132.398599 102.282648 131.499241 102.655174 130.836233 103.318182 
C 130.173225 103.98119 129.800699 104.880547 129.800699 105.818182 
C 129.800699 106.755816 130.173225 107.655174 130.836233 108.318182 
C 131.499241 108.98119 132.398599 109.353716 133.336233 109.353716 
z
" clip-path="url(#p7b0a91036a)" style="fill: #808080; stroke: #000000; stroke-width: 0.4"/>
    <path d="M 117.990431 57.661157 
C 119.316446 57.661157 120.58833 57.134325 121.525965 56.196691 
C 122.463599 55.259056 122.990431 53.987173 122.990431 52.661157 
C 122.990431 51.335142 122.463599 50.063258 121.525965 49.125623 
C 120.58833 48.187989 119.316446 47.661157 117.990431 47.661157 
C 116.664415 47.661157 115.392531 48.187989 114.454897 49.125623 
C 113.517262 50.063258 112.990431 51.335142 112.990431 52.661157 
C 112.990431 53.987173 113.517262 55.259056 114.454897 56.196691 
C 115.392531 57.134325 116.664415 57.661157 117.990431 57.661157 
z
" clip-path="url(#p7b0a91036a)" style="stroke: #000000; stroke-width: 0.4"/>
    <path d="M 102.644628 82.775203 
C 103.582263 82.775203 104.48162 82.402677 105.144628 81.739669 
C 105.807636 81.076662 106.180162 80.177304 106.180162 79.239669 
C 106.180162 78.302035 105.807636 77.402677 105.144628 76.739669 
C 104.48162 76.076662 103.582263 75.704136 102.644628 75.704136 
C 101.706994 75.704136 100.807636 76.076662 100.144628 76.739669 
C 99.48162 77.402677 99.109094 78.302035 99.109094 79.239669 
C 99.109094 80.177304 99.48162 81.076662 100.144628 81.739669 
C 100.807636 82.402677 101.706994 82.775203 102.644628 82.775203 
z
" clip-path="url(#p7b0a91036a)" style="fill: #808080; stroke: #000000; stroke-width: 0.4"/>
   </g>
   <g id="line2d_1">
    <path d="M 770.187038 493.2 
L 770.187038 10.8 
" clip-path="url(#p7b0a91036a)" style="fill: none; stroke: #ff0000; stroke-width: 1.5; stroke-linecap: square"/>
   </g>
   <g id="patch_3">
    <path d="M 10.8 493.2 
L 10.8 10.8 
" style="fill: none; stroke: #000000; stroke-width: 0.8; stroke-linejoin: miter; stroke-linecap: square"/>
   </g>
   <g id="patch_4">
    <path d="M 1069.2 493.2 
L 1069.2 10.8 
" style="fill: none; stroke: #000000; stroke-width: 0.8; stroke-linejoin: miter; stroke-linecap: square"/>
   </g>
   <g id="patch_5">
    <path d="M 10.8 493.2 
L 1069.2 493.2 
" style="fill: none; stroke: #000000; stroke-width: 0.8; stroke-linejoin: miter; stroke-linecap: square"/>
   </g>
   <g id="patch_6">
    <path d="M 10.8 10.8 
L 1069.2 10.8 
" style="fill: none; stroke: #000000; stroke-width: 0.8; stroke-linejoin: miter; stroke-linecap: square"/>
   </g>
  </g>
 </g>
 <defs>
  <clipPath id="p7b0a91036a">
   <rect x="10.8" y="10.8" width="1058.4" height="482.4"/>
  </clipPath>
 </defs>
</svg>
