<?xml version="1.0" encoding="utf-8" standalone="no"?>
<!DOCTYPE svg PUBLIC "-//W3C//DTD SVG 1.1//EN"
  "http://www.w3.org/Graphics/SVG/1.1/DTD/svg11.dtd">
<svg xmlns:xlink="http://www.w3.org/1999/xlink" width="1080pt" height="504pt" viewBox="0 0 1080 504" xmlns="http://www.w3.org/2000/svg" version="1.1">
 <metadata>
  <rdf:RDF xmlns:dc="http://purl.org/dc/elements/1.1/" xmlns:cc="http://creativecommons.org/ns#" xmlns:rdf="http://www.w3.org/1999/02/22-rdf-syntax-ns#">
   <cc:Work>
    <dc:type rdf:resource="http://purl.org/dc/dcmitype/StillImage"/>
    <dc:date>2022-04-22T08:08:49.880264</dc:date>
    <dc:format>image/svg+xml</dc:format>
    <dc:creator>
     <cc:Agent>
      <dc:title>Matplotlib v3.5.1, https://matplotlib.org/</dc:title>
     </cc:Agent>
    </dc:creator>
   </cc:Work>
  </rdf:RDF>
 </metadata>
 <defs>
  <style type="text/css">*{stroke-linejoin: round; stroke-linecap: butt}</style>
 </defs>
 <g id="figure_1">
  <g id="patch_1">
   <path d="M 0 504 
L 1080 504 
L 1080 0 
L 0 0 
z
" style="fill: #ffffff"/>
  </g>
  <g id="axes_1">
   <g id="patch_2">
    <path d="M 10.8 493.2 
L 1069.2 493.2 
L 1069.2 10.8 
L 10.8 10.8 
z
" style="fill: #ffffff"/>
   </g>
   <g id="LineCollection_1">
    <path d="M 194.719443 132.396694 
L 217.738147 132.396694 
" clip-path="url(#pa25876e06d)" style="fill: none; stroke: #000000; stroke-width: 0.4"/>
    <path d="M 194.719443 132.396694 
L 240.756851 105.818182 
" clip-path="url(#pa25876e06d)" style="fill: none; stroke: #000000; stroke-width: 0.4"/>
    <path d="M 355.85037 238.710744 
L 378.869074 238.710744 
" clip-path="url(#pa25876e06d)" style="fill: none; stroke: #000000; stroke-width: 0.4"/>
    <path d="M 355.85037 238.710744 
L 401.887777 212.132231 
" clip-path="url(#pa25876e06d)" style="fill: none; stroke: #000000; stroke-width: 0.4"/>
    <path d="M 424.906481 318.446281 
L 447.925185 318.446281 
" clip-path="url(#pa25876e06d)" style="fill: none; stroke: #000000; stroke-width: 0.4"/>
    <path d="M 424.906481 318.446281 
L 470.943889 291.867769 
" clip-path="url(#pa25876e06d)" style="fill: none; stroke: #000000; stroke-width: 0.4"/>
    <path d="M 493.962592 345.024793 
L 516.981296 345.024793 
" clip-path="url(#pa25876e06d)" style="fill: none; stroke: #000000; stroke-width: 0.4"/>
    <path d="M 493.962592 345.024793 
L 540 318.446281 
" clip-path="url(#pa25876e06d)" style="fill: none; stroke: #000000; stroke-width: 0.4"/>
    <path d="M 770.187038 424.760331 
L 747.168334 451.338843 
" clip-path="url(#pa25876e06d)" style="fill: none; stroke: #000000; stroke-width: 0.4"/>
    <path d="M 770.187038 424.760331 
L 793.205742 451.338843 
" clip-path="url(#pa25876e06d)" style="fill: none; stroke: #000000; stroke-width: 0.4"/>
    <path d="M 770.187038 424.760331 
L 724.14963 398.181818 
" clip-path="url(#pa25876e06d)" style="fill: none; stroke: #000000; stroke-width: 0.4"/>
    <path d="M 724.14963 398.181818 
L 701.130926 424.760331 
" clip-path="url(#pa25876e06d)" style="fill: none; stroke: #000000; stroke-width: 0.4"/>
    <path d="M 724.14963 398.181818 
L 678.112223 371.603306 
" clip-path="url(#pa25876e06d)" style="fill: none; stroke: #000000; stroke-width: 0.4"/>
    <path d="M 678.112223 371.603306 
L 655.093519 398.181818 
" clip-path="url(#pa25876e06d)" style="fill: none; stroke: #000000; stroke-width: 0.4"/>
    <path d="M 678.112223 371.603306 
L 632.074815 345.024793 
" clip-path="url(#pa25876e06d)" style="fill: none; stroke: #000000; stroke-width: 0.4"/>
    <path d="M 632.074815 345.024793 
L 609.056111 371.603306 
" clip-path="url(#pa25876e06d)" style="fill: none; stroke: #000000; stroke-width: 0.4"/>
    <path d="M 632.074815 345.024793 
L 586.037408 318.446281 
" clip-path="url(#pa25876e06d)" style="fill: none; stroke: #000000; stroke-width: 0.4"/>
    <path d="M 586.037408 318.446281 
L 563.018704 345.024793 
" clip-path="url(#pa25876e06d)" style="fill: none; stroke: #000000; stroke-width: 0.4"/>
    <path d="M 586.037408 318.446281 
L 540 318.446281 
" clip-path="url(#pa25876e06d)" style="fill: none; stroke: #000000; stroke-width: 0.4"/>
    <path d="M 540 318.446281 
L 470.943889 291.867769 
" clip-path="url(#pa25876e06d)" style="fill: none; stroke: #000000; stroke-width: 0.4"/>
    <path d="M 470.943889 291.867769 
L 816.224445 265.289256 
" clip-path="url(#pa25876e06d)" style="fill: none; stroke: #000000; stroke-width: 0.4"/>
    <path d="M 816.224445 265.289256 
L 839.243149 291.867769 
" clip-path="url(#pa25876e06d)" style="fill: none; stroke: #000000; stroke-width: 0.4"/>
    <path d="M 816.224445 265.289256 
L 862.261853 238.710744 
" clip-path="url(#pa25876e06d)" style="fill: none; stroke: #000000; stroke-width: 0.4"/>
    <path d="M 862.261853 238.710744 
L 885.280557 238.710744 
" clip-path="url(#pa25876e06d)" style="fill: none; stroke: #000000; stroke-width: 0.4"/>
    <path d="M 862.261853 238.710744 
L 401.887777 212.132231 
" clip-path="url(#pa25876e06d)" style="fill: none; stroke: #000000; stroke-width: 0.4"/>
    <path d="M 401.887777 212.132231 
L 332.831666 185.553719 
" clip-path="url(#pa25876e06d)" style="fill: none; stroke: #000000; stroke-width: 0.4"/>
    <path d="M 332.831666 185.553719 
L 309.812962 212.132231 
" clip-path="url(#pa25876e06d)" style="fill: none; stroke: #000000; stroke-width: 0.4"/>
    <path d="M 332.831666 185.553719 
L 286.794258 158.975207 
" clip-path="url(#pa25876e06d)" style="fill: none; stroke: #000000; stroke-width: 0.4"/>
    <path d="M 286.794258 158.975207 
L 263.775555 185.553719 
" clip-path="url(#pa25876e06d)" style="fill: none; stroke: #000000; stroke-width: 0.4"/>
    <path d="M 286.794258 158.975207 
L 908.299261 132.396694 
" clip-path="url(#pa25876e06d)" style="fill: none; stroke: #000000; stroke-width: 0.4"/>
    <path d="M 908.299261 132.396694 
L 931.317964 132.396694 
" clip-path="url(#pa25876e06d)" style="fill: none; stroke: #000000; stroke-width: 0.4"/>
    <path d="M 908.299261 132.396694 
L 240.756851 105.818182 
" clip-path="url(#pa25876e06d)" style="fill: none; stroke: #000000; stroke-width: 0.4"/>
    <path d="M 240.756851 105.818182 
L 954.336668 79.239669 
" clip-path="url(#pa25876e06d)" style="fill: none; stroke: #000000; stroke-width: 0.4"/>
    <path d="M 954.336668 79.239669 
L 977.355372 105.818182 
" clip-path="url(#pa25876e06d)" style="fill: none; stroke: #000000; stroke-width: 0.4"/>
    <path d="M 954.336668 79.239669 
L 171.700739 79.239669 
" clip-path="url(#pa25876e06d)" style="fill: none; stroke: #000000; stroke-width: 0.4"/>
    <path d="M 171.700739 79.239669 
L 148.682036 105.818182 
" clip-path="url(#pa25876e06d)" style="fill: none; stroke: #000000; stroke-width: 0.4"/>
    <path d="M 171.700739 79.239669 
L 125.663332 52.661157 
" clip-path="url(#pa25876e06d)" style="fill: none; stroke: #000000; stroke-width: 0.4"/>
    <path d="M 125.663332 52.661157 
L 102.644628 79.239669 
" clip-path="url(#pa25876e06d)" style="fill: none; stroke: #000000; stroke-width: 0.4"/>
   </g>
   <g id="matplotlib.axis_1">
    <g id="xtick_1"/>
    <g id="xtick_2"/>
    <g id="xtick_3"/>
    <g id="xtick_4"/>
    <g id="xtick_5"/>
   </g>
   <g id="matplotlib.axis_2">
    <g id="ytick_1"/>
    <g id="ytick_2"/>
    <g id="ytick_3"/>
    <g id="ytick_4"/>
    <g id="ytick_5"/>
    <g id="ytick_6"/>
    <g id="ytick_7"/>
    <g id="ytick_8"/>
   </g>
   <g id="PathCollection_1">
    <path d="M 194.719443 135.932228 
C 195.657078 135.932228 196.556435 135.559702 197.219443 134.896694 
C 197.882451 134.233686 198.254977 133.334329 198.254977 132.396694 
C 198.254977 131.45906 197.882451 130.559702 197.219443 129.896694 
C 196.556435 129.233686 195.657078 128.86116 194.719443 128.86116 
C 193.781809 128.86116 192.882451 129.233686 192.219443 129.896694 
C 191.556435 130.559702 191.183909 131.45906 191.183909 132.396694 
C 191.183909 133.334329 191.556435 134.233686 192.219443 134.896694 
C 192.882451 135.559702 193.781809 135.932228 194.719443 135.932228 
z
" clip-path="url(#pa25876e06d)" style="fill: #808080; stroke: #000000; stroke-width: 0.4"/>
    <path d="M 217.738147 135.932228 
C 218.675782 135.932228 219.575139 135.559702 220.238147 134.896694 
C 220.901155 134.233686 221.273681 133.334329 221.273681 132.396694 
C 221.273681 131.45906 220.901155 130.559702 220.238147 129.896694 
C 219.575139 129.233686 218.675782 128.86116 217.738147 128.86116 
C 216.800512 128.86116 215.901155 129.233686 215.238147 129.896694 
C 214.575139 130.559702 214.202613 131.45906 214.202613 132.396694 
C 214.202613 133.334329 214.575139 134.233686 215.238147 134.896694 
C 215.901155 135.559702 216.800512 135.932228 217.738147 135.932228 
z
" clip-path="url(#pa25876e06d)" style="fill: #808080; stroke: #000000; stroke-width: 0.4"/>
    <path d="M 355.85037 242.246278 
C 356.788004 242.246278 357.687362 241.873752 358.35037 241.210744 
C 359.013377 240.547736 359.385904 239.648378 359.385904 238.710744 
C 359.385904 237.773109 359.013377 236.873752 358.35037 236.210744 
C 357.687362 235.547736 356.788004 235.17521 355.85037 235.17521 
C 354.912735 235.17521 354.013377 235.547736 353.35037 236.210744 
C 352.687362 236.873752 352.314836 237.773109 352.314836 238.710744 
C 352.314836 239.648378 352.687362 240.547736 353.35037 241.210744 
C 354.013377 241.873752 354.912735 242.246278 355.85037 242.246278 
z
" clip-path="url(#pa25876e06d)" style="fill: #808080; stroke: #000000; stroke-width: 0.4"/>
    <path d="M 378.869074 242.246278 
C 379.806708 242.246278 380.706066 241.873752 381.369074 241.210744 
C 382.032081 240.547736 382.404607 239.648378 382.404607 238.710744 
C 382.404607 237.773109 382.032081 236.873752 381.369074 236.210744 
C 380.706066 235.547736 379.806708 235.17521 378.869074 235.17521 
C 377.931439 235.17521 377.032081 235.547736 376.369074 236.210744 
C 375.706066 236.873752 375.33354 237.773109 375.33354 238.710744 
C 375.33354 239.648378 375.706066 240.547736 376.369074 241.210744 
C 377.032081 241.873752 377.931439 242.246278 378.869074 242.246278 
z
" clip-path="url(#pa25876e06d)" style="fill: #808080; stroke: #000000; stroke-width: 0.4"/>
    <path d="M 424.906481 321.981815 
C 425.844116 321.981815 426.743473 321.609289 427.406481 320.946281 
C 428.069489 320.283273 428.442015 319.383916 428.442015 318.446281 
C 428.442015 317.508646 428.069489 316.609289 427.406481 315.946281 
C 426.743473 315.283273 425.844116 314.910747 424.906481 314.910747 
C 423.968847 314.910747 423.069489 315.283273 422.406481 315.946281 
C 421.743473 316.609289 421.370947 317.508646 421.370947 318.446281 
C 421.370947 319.383916 421.743473 320.283273 422.406481 320.946281 
C 423.069489 321.609289 423.968847 321.981815 424.906481 321.981815 
z
" clip-path="url(#pa25876e06d)" style="fill: #808080; stroke: #000000; stroke-width: 0.4"/>
    <path d="M 447.925185 321.981815 
C 448.862819 321.981815 449.762177 321.609289 450.425185 320.946281 
C 451.088193 320.283273 451.460719 319.383916 451.460719 318.446281 
C 451.460719 317.508646 451.088193 316.609289 450.425185 315.946281 
C 449.762177 315.283273 448.862819 314.910747 447.925185 314.910747 
C 446.98755 314.910747 446.088193 315.283273 445.425185 315.946281 
C 444.762177 316.609289 444.389651 317.508646 444.389651 318.446281 
C 444.389651 319.383916 444.762177 320.283273 445.425185 320.946281 
C 446.088193 321.609289 446.98755 321.981815 447.925185 321.981815 
z
" clip-path="url(#pa25876e06d)" style="fill: #808080; stroke: #000000; stroke-width: 0.4"/>
    <path d="M 493.962592 348.560327 
C 494.900227 348.560327 495.799585 348.187801 496.462592 347.524793 
C 497.1256 346.861786 497.498126 345.962428 497.498126 345.024793 
C 497.498126 344.087159 497.1256 343.187801 496.462592 342.524793 
C 495.799585 341.861786 494.900227 341.489259 493.962592 341.489259 
C 493.024958 341.489259 492.1256 341.861786 491.462592 342.524793 
C 490.799585 343.187801 490.427059 344.087159 490.427059 345.024793 
C 490.427059 345.962428 490.799585 346.861786 491.462592 347.524793 
C 492.1256 348.187801 493.024958 348.560327 493.962592 348.560327 
z
" clip-path="url(#pa25876e06d)" style="fill: #808080; stroke: #000000; stroke-width: 0.4"/>
    <path d="M 516.981296 348.560327 
C 517.918931 348.560327 518.818288 348.187801 519.481296 347.524793 
C 520.144304 346.861786 520.51683 345.962428 520.51683 345.024793 
C 520.51683 344.087159 520.144304 343.187801 519.481296 342.524793 
C 518.818288 341.861786 517.918931 341.489259 516.981296 341.489259 
C 516.043662 341.489259 515.144304 341.861786 514.481296 342.524793 
C 513.818288 343.187801 513.445762 344.087159 513.445762 345.024793 
C 513.445762 345.962428 513.818288 346.861786 514.481296 347.524793 
C 515.144304 348.187801 516.043662 348.560327 516.981296 348.560327 
z
" clip-path="url(#pa25876e06d)" style="fill: #808080; stroke: #000000; stroke-width: 0.4"/>
    <path d="M 770.187038 429.760331 
C 771.513053 429.760331 772.784937 429.233499 773.722572 428.295864 
C 774.660206 427.35823 775.187038 426.086346 775.187038 424.760331 
C 775.187038 423.434315 774.660206 422.162431 773.722572 421.224797 
C 772.784937 420.287162 771.513053 419.760331 770.187038 419.760331 
C 768.861022 419.760331 767.589138 420.287162 766.651504 421.224797 
C 765.713869 422.162431 765.187038 423.434315 765.187038 424.760331 
C 765.187038 426.086346 765.713869 427.35823 766.651504 428.295864 
C 767.589138 429.233499 768.861022 429.760331 770.187038 429.760331 
z
" clip-path="url(#pa25876e06d)" style="fill: #008000; stroke: #000000; stroke-width: 0.4"/>
    <path d="M 747.168334 454.874377 
C 748.105969 454.874377 749.005326 454.501851 749.668334 453.838843 
C 750.331342 453.175835 750.703868 452.276478 750.703868 451.338843 
C 750.703868 450.401208 750.331342 449.501851 749.668334 448.838843 
C 749.005326 448.175835 748.105969 447.803309 747.168334 447.803309 
C 746.2307 447.803309 745.331342 448.175835 744.668334 448.838843 
C 744.005326 449.501851 743.6328 450.401208 743.6328 451.338843 
C 743.6328 452.276478 744.005326 453.175835 744.668334 453.838843 
C 745.331342 454.501851 746.2307 454.874377 747.168334 454.874377 
z
" clip-path="url(#pa25876e06d)" style="fill: #808080; stroke: #000000; stroke-width: 0.4"/>
    <path d="M 793.205742 456.338843 
C 794.531757 456.338843 795.803641 455.812011 796.741276 454.874377 
C 797.67891 453.936742 798.205742 452.664858 798.205742 451.338843 
C 798.205742 450.012827 797.67891 448.740944 796.741276 447.803309 
C 795.803641 446.865675 794.531757 446.338843 793.205742 446.338843 
C 791.879726 446.338843 790.607842 446.865675 789.670208 447.803309 
C 788.732573 448.740944 788.205742 450.012827 788.205742 451.338843 
C 788.205742 452.664858 788.732573 453.936742 789.670208 454.874377 
C 790.607842 455.812011 791.879726 456.338843 793.205742 456.338843 
z
" clip-path="url(#pa25876e06d)" style="fill: #ffff00; stroke: #000000; stroke-width: 0.4"/>
    <path d="M 724.14963 403.181818 
C 725.475646 403.181818 726.74753 402.654987 727.685164 401.717352 
C 728.622799 400.779718 729.14963 399.507834 729.14963 398.181818 
C 729.14963 396.855803 728.622799 395.583919 727.685164 394.646284 
C 726.74753 393.70865 725.475646 393.181818 724.14963 393.181818 
C 722.823615 393.181818 721.551731 393.70865 720.614096 394.646284 
C 719.676462 395.583919 719.14963 396.855803 719.14963 398.181818 
C 719.14963 399.507834 719.676462 400.779718 720.614096 401.717352 
C 721.551731 402.654987 722.823615 403.181818 724.14963 403.181818 
z
" clip-path="url(#pa25876e06d)" style="fill: #008000; stroke: #000000; stroke-width: 0.4"/>
    <path d="M 701.130926 428.295864 
C 702.068561 428.295864 702.967919 427.923338 703.630926 427.260331 
C 704.293934 426.597323 704.66646 425.697965 704.66646 424.760331 
C 704.66646 423.822696 704.293934 422.923338 703.630926 422.260331 
C 702.967919 421.597323 702.068561 421.224797 701.130926 421.224797 
C 700.193292 421.224797 699.293934 421.597323 698.630926 422.260331 
C 697.967919 422.923338 697.595393 423.822696 697.595393 424.760331 
C 697.595393 425.697965 697.967919 426.597323 698.630926 427.260331 
C 699.293934 427.923338 700.193292 428.295864 701.130926 428.295864 
z
" clip-path="url(#pa25876e06d)" style="fill: #808080; stroke: #000000; stroke-width: 0.4"/>
    <path d="M 678.112223 376.603306 
C 679.438238 376.603306 680.710122 376.076474 681.647757 375.13884 
C 682.585391 374.201205 683.112223 372.929321 683.112223 371.603306 
C 683.112223 370.27729 682.585391 369.005406 681.647757 368.067772 
C 680.710122 367.130137 679.438238 366.603306 678.112223 366.603306 
C 676.786207 366.603306 675.514323 367.130137 674.576689 368.067772 
C 673.639054 369.005406 673.112223 370.27729 673.112223 371.603306 
C 673.112223 372.929321 673.639054 374.201205 674.576689 375.13884 
C 675.514323 376.076474 676.786207 376.603306 678.112223 376.603306 
z
" clip-path="url(#pa25876e06d)" style="fill: #008000; stroke: #000000; stroke-width: 0.4"/>
    <path d="M 655.093519 401.717352 
C 656.031153 401.717352 656.930511 401.344826 657.593519 400.681818 
C 658.256527 400.01881 658.629053 399.119453 658.629053 398.181818 
C 658.629053 397.244184 658.256527 396.344826 657.593519 395.681818 
C 656.930511 395.01881 656.031153 394.646284 655.093519 394.646284 
C 654.155884 394.646284 653.256527 395.01881 652.593519 395.681818 
C 651.930511 396.344826 651.557985 397.244184 651.557985 398.181818 
C 651.557985 399.119453 651.930511 400.01881 652.593519 400.681818 
C 653.256527 401.344826 654.155884 401.717352 655.093519 401.717352 
z
" clip-path="url(#pa25876e06d)" style="fill: #808080; stroke: #000000; stroke-width: 0.4"/>
    <path d="M 632.074815 350.024793 
C 633.400831 350.024793 634.672714 349.497962 635.610349 348.560327 
C 636.547984 347.622693 637.074815 346.350809 637.074815 345.024793 
C 637.074815 343.698778 636.547984 342.426894 635.610349 341.489259 
C 634.672714 340.551625 633.400831 340.024793 632.074815 340.024793 
C 630.7488 340.024793 629.476916 340.551625 628.539281 341.489259 
C 627.601647 342.426894 627.074815 343.698778 627.074815 345.024793 
C 627.074815 346.350809 627.601647 347.622693 628.539281 348.560327 
C 629.476916 349.497962 630.7488 350.024793 632.074815 350.024793 
z
" clip-path="url(#pa25876e06d)" style="fill: #008000; stroke: #000000; stroke-width: 0.4"/>
    <path d="M 609.056111 375.13884 
C 609.993746 375.13884 610.893104 374.766314 611.556111 374.103306 
C 612.219119 373.440298 612.591645 372.54094 612.591645 371.603306 
C 612.591645 370.665671 612.219119 369.766314 611.556111 369.103306 
C 610.893104 368.440298 609.993746 368.067772 609.056111 368.067772 
C 608.118477 368.067772 607.219119 368.440298 606.556111 369.103306 
C 605.893104 369.766314 605.520577 370.665671 605.520577 371.603306 
C 605.520577 372.54094 605.893104 373.440298 606.556111 374.103306 
C 607.219119 374.766314 608.118477 375.13884 609.056111 375.13884 
z
" clip-path="url(#pa25876e06d)" style="fill: #808080; stroke: #000000; stroke-width: 0.4"/>
    <path d="M 586.037408 323.446281 
C 587.363423 323.446281 588.635307 322.919449 589.572941 321.981815 
C 590.510576 321.04418 591.037408 319.772296 591.037408 318.446281 
C 591.037408 317.120265 590.510576 315.848382 589.572941 314.910747 
C 588.635307 313.973113 587.363423 313.446281 586.037408 313.446281 
C 584.711392 313.446281 583.439508 313.973113 582.501874 314.910747 
C 581.564239 315.848382 581.037408 317.120265 581.037408 318.446281 
C 581.037408 319.772296 581.564239 321.04418 582.501874 321.981815 
C 583.439508 322.919449 584.711392 323.446281 586.037408 323.446281 
z
" clip-path="url(#pa25876e06d)" style="fill: #008000; stroke: #000000; stroke-width: 0.4"/>
    <path d="M 563.018704 348.560327 
C 563.956338 348.560327 564.855696 348.187801 565.518704 347.524793 
C 566.181712 346.861786 566.554238 345.962428 566.554238 345.024793 
C 566.554238 344.087159 566.181712 343.187801 565.518704 342.524793 
C 564.855696 341.861786 563.956338 341.489259 563.018704 341.489259 
C 562.081069 341.489259 561.181712 341.861786 560.518704 342.524793 
C 559.855696 343.187801 559.48317 344.087159 559.48317 345.024793 
C 559.48317 345.962428 559.855696 346.861786 560.518704 347.524793 
C 561.181712 348.187801 562.081069 348.560327 563.018704 348.560327 
z
" clip-path="url(#pa25876e06d)" style="fill: #808080; stroke: #000000; stroke-width: 0.4"/>
    <path d="M 540 323.446281 
C 541.326016 323.446281 542.597899 322.919449 543.535534 321.981815 
C 544.473168 321.04418 545 319.772296 545 318.446281 
C 545 317.120265 544.473168 315.848382 543.535534 314.910747 
C 542.597899 313.973113 541.326016 313.446281 540 313.446281 
C 538.673984 313.446281 537.402101 313.973113 536.464466 314.910747 
C 535.526832 315.848382 535 317.120265 535 318.446281 
C 535 319.772296 535.526832 321.04418 536.464466 321.981815 
C 537.402101 322.919449 538.673984 323.446281 540 323.446281 
z
" clip-path="url(#pa25876e06d)" style="stroke: #000000; stroke-width: 0.4"/>
    <path d="M 470.943889 296.867769 
C 472.269904 296.867769 473.541788 296.340937 474.479423 295.403303 
C 475.417057 294.465668 475.943889 293.193784 475.943889 291.867769 
C 475.943889 290.541753 475.417057 289.269869 474.479423 288.332235 
C 473.541788 287.3946 472.269904 286.867769 470.943889 286.867769 
C 469.617873 286.867769 468.345989 287.3946 467.408355 288.332235 
C 466.47072 289.269869 465.943889 290.541753 465.943889 291.867769 
C 465.943889 293.193784 466.47072 294.465668 467.408355 295.403303 
C 468.345989 296.340937 469.617873 296.867769 470.943889 296.867769 
z
" clip-path="url(#pa25876e06d)" style="stroke: #000000; stroke-width: 0.4"/>
    <path d="M 816.224445 270.289256 
C 817.550461 270.289256 818.822345 269.762425 819.759979 268.82479 
C 820.697614 267.887156 821.224445 266.615272 821.224445 265.289256 
C 821.224445 263.963241 820.697614 262.691357 819.759979 261.753722 
C 818.822345 260.816088 817.550461 260.289256 816.224445 260.289256 
C 814.89843 260.289256 813.626546 260.816088 812.688912 261.753722 
C 811.751277 262.691357 811.224445 263.963241 811.224445 265.289256 
C 811.224445 266.615272 811.751277 267.887156 812.688912 268.82479 
C 813.626546 269.762425 814.89843 270.289256 816.224445 270.289256 
z
" clip-path="url(#pa25876e06d)" style="fill: #ff0000; stroke: #000000; stroke-width: 0.4"/>
    <path d="M 839.243149 295.403303 
C 840.180784 295.403303 841.080141 295.030776 841.743149 294.367769 
C 842.406157 293.704761 842.778683 292.805403 842.778683 291.867769 
C 842.778683 290.930134 842.406157 290.030776 841.743149 289.367769 
C 841.080141 288.704761 840.180784 288.332235 839.243149 288.332235 
C 838.305515 288.332235 837.406157 288.704761 836.743149 289.367769 
C 836.080141 290.030776 835.707615 290.930134 835.707615 291.867769 
C 835.707615 292.805403 836.080141 293.704761 836.743149 294.367769 
C 837.406157 295.030776 838.305515 295.403303 839.243149 295.403303 
z
" clip-path="url(#pa25876e06d)" style="fill: #808080; stroke: #000000; stroke-width: 0.4"/>
    <path d="M 862.261853 243.710744 
C 863.587868 243.710744 864.859752 243.183912 865.797387 242.246278 
C 866.735021 241.308643 867.261853 240.036759 867.261853 238.710744 
C 867.261853 237.384728 866.735021 236.112844 865.797387 235.17521 
C 864.859752 234.237575 863.587868 233.710744 862.261853 233.710744 
C 860.935837 233.710744 859.663954 234.237575 858.726319 235.17521 
C 857.788685 236.112844 857.261853 237.384728 857.261853 238.710744 
C 857.261853 240.036759 857.788685 241.308643 858.726319 242.246278 
C 859.663954 243.183912 860.935837 243.710744 862.261853 243.710744 
z
" clip-path="url(#pa25876e06d)" style="stroke: #000000; stroke-width: 0.4"/>
    <path d="M 885.280557 242.246278 
C 886.218191 242.246278 887.117549 241.873752 887.780557 241.210744 
C 888.443565 240.547736 888.816091 239.648378 888.816091 238.710744 
C 888.816091 237.773109 888.443565 236.873752 887.780557 236.210744 
C 887.117549 235.547736 886.218191 235.17521 885.280557 235.17521 
C 884.342922 235.17521 883.443565 235.547736 882.780557 236.210744 
C 882.117549 236.873752 881.745023 237.773109 881.745023 238.710744 
C 881.745023 239.648378 882.117549 240.547736 882.780557 241.210744 
C 883.443565 241.873752 884.342922 242.246278 885.280557 242.246278 
z
" clip-path="url(#pa25876e06d)" style="fill: #808080; stroke: #000000; stroke-width: 0.4"/>
    <path d="M 401.887777 217.132231 
C 403.213793 217.132231 404.485677 216.6054 405.423311 215.667765 
C 406.360946 214.730131 406.887777 213.458247 406.887777 212.132231 
C 406.887777 210.806216 406.360946 209.534332 405.423311 208.596697 
C 404.485677 207.659063 403.213793 207.132231 401.887777 207.132231 
C 400.561762 207.132231 399.289878 207.659063 398.352243 208.596697 
C 397.414609 209.534332 396.887777 210.806216 396.887777 212.132231 
C 396.887777 213.458247 397.414609 214.730131 398.352243 215.667765 
C 399.289878 216.6054 400.561762 217.132231 401.887777 217.132231 
z
" clip-path="url(#pa25876e06d)" style="stroke: #000000; stroke-width: 0.4"/>
    <path d="M 332.831666 190.553719 
C 334.157681 190.553719 335.429565 190.026887 336.3672 189.089253 
C 337.304834 188.151618 337.831666 186.879735 337.831666 185.553719 
C 337.831666 184.227704 337.304834 182.95582 336.3672 182.018185 
C 335.429565 181.080551 334.157681 180.553719 332.831666 180.553719 
C 331.50565 180.553719 330.233767 181.080551 329.296132 182.018185 
C 328.358497 182.95582 327.831666 184.227704 327.831666 185.553719 
C 327.831666 186.879735 328.358497 188.151618 329.296132 189.089253 
C 330.233767 190.026887 331.50565 190.553719 332.831666 190.553719 
z
" clip-path="url(#pa25876e06d)" style="stroke: #000000; stroke-width: 0.4"/>
    <path d="M 309.812962 215.667765 
C 310.750597 215.667765 311.649954 215.295239 312.312962 214.632231 
C 312.97597 213.969224 313.348496 213.069866 313.348496 212.132231 
C 313.348496 211.194597 312.97597 210.295239 312.312962 209.632231 
C 311.649954 208.969224 310.750597 208.596697 309.812962 208.596697 
C 308.875328 208.596697 307.97597 208.969224 307.312962 209.632231 
C 306.649954 210.295239 306.277428 211.194597 306.277428 212.132231 
C 306.277428 213.069866 306.649954 213.969224 307.312962 214.632231 
C 307.97597 215.295239 308.875328 215.667765 309.812962 215.667765 
z
" clip-path="url(#pa25876e06d)" style="fill: #808080; stroke: #000000; stroke-width: 0.4"/>
    <path d="M 286.794258 163.975207 
C 288.120274 163.975207 289.392158 163.448375 290.329792 162.510741 
C 291.267427 161.573106 291.794258 160.301222 291.794258 158.975207 
C 291.794258 157.649191 291.267427 156.377307 290.329792 155.439673 
C 289.392158 154.502038 288.120274 153.975207 286.794258 153.975207 
C 285.468243 153.975207 284.196359 154.502038 283.258724 155.439673 
C 282.32109 156.377307 281.794258 157.649191 281.794258 158.975207 
C 281.794258 160.301222 282.32109 161.573106 283.258724 162.510741 
C 284.196359 163.448375 285.468243 163.975207 286.794258 163.975207 
z
" clip-path="url(#pa25876e06d)" style="stroke: #000000; stroke-width: 0.4"/>
    <path d="M 263.775555 189.089253 
C 264.713189 189.089253 265.612547 188.716727 266.275555 188.053719 
C 266.938562 187.390711 267.311088 186.491354 267.311088 185.553719 
C 267.311088 184.616084 266.938562 183.716727 266.275555 183.053719 
C 265.612547 182.390711 264.713189 182.018185 263.775555 182.018185 
C 262.83792 182.018185 261.938562 182.390711 261.275555 183.053719 
C 260.612547 183.716727 260.240021 184.616084 260.240021 185.553719 
C 260.240021 186.491354 260.612547 187.390711 261.275555 188.053719 
C 261.938562 188.716727 262.83792 189.089253 263.775555 189.089253 
z
" clip-path="url(#pa25876e06d)" style="fill: #808080; stroke: #000000; stroke-width: 0.4"/>
    <path d="M 908.299261 137.396694 
C 909.625276 137.396694 910.89716 136.869863 911.834794 135.932228 
C 912.772429 134.994594 913.299261 133.72271 913.299261 132.396694 
C 913.299261 131.070679 912.772429 129.798795 911.834794 128.86116 
C 910.89716 127.923526 909.625276 127.396694 908.299261 127.396694 
C 906.973245 127.396694 905.701361 127.923526 904.763727 128.86116 
C 903.826092 129.798795 903.299261 131.070679 903.299261 132.396694 
C 903.299261 133.72271 903.826092 134.994594 904.763727 135.932228 
C 905.701361 136.869863 906.973245 137.396694 908.299261 137.396694 
z
" clip-path="url(#pa25876e06d)" style="stroke: #000000; stroke-width: 0.4"/>
    <path d="M 931.317964 135.932228 
C 932.255599 135.932228 933.154957 135.559702 933.817964 134.896694 
C 934.480972 134.233686 934.853498 133.334329 934.853498 132.396694 
C 934.853498 131.45906 934.480972 130.559702 933.817964 129.896694 
C 933.154957 129.233686 932.255599 128.86116 931.317964 128.86116 
C 930.38033 128.86116 929.480972 129.233686 928.817964 129.896694 
C 928.154957 130.559702 927.78243 131.45906 927.78243 132.396694 
C 927.78243 133.334329 928.154957 134.233686 928.817964 134.896694 
C 929.480972 135.559702 930.38033 135.932228 931.317964 135.932228 
z
" clip-path="url(#pa25876e06d)" style="fill: #808080; stroke: #000000; stroke-width: 0.4"/>
    <path d="M 240.756851 110.818182 
C 242.082866 110.818182 243.35475 110.29135 244.292385 109.353716 
C 245.230019 108.416081 245.756851 107.144197 245.756851 105.818182 
C 245.756851 104.492166 245.230019 103.220282 244.292385 102.282648 
C 243.35475 101.345013 242.082866 100.818182 240.756851 100.818182 
C 239.430835 100.818182 238.158951 101.345013 237.221317 102.282648 
C 236.283682 103.220282 235.756851 104.492166 235.756851 105.818182 
C 235.756851 107.144197 236.283682 108.416081 237.221317 109.353716 
C 238.158951 110.29135 239.430835 110.818182 240.756851 110.818182 
z
" clip-path="url(#pa25876e06d)" style="stroke: #000000; stroke-width: 0.4"/>
    <path d="M 954.336668 84.239669 
C 955.662684 84.239669 956.934567 83.712838 957.872202 82.775203 
C 958.809837 81.837569 959.336668 80.565685 959.336668 79.239669 
C 959.336668 77.913654 958.809837 76.64177 957.872202 75.704136 
C 956.934567 74.766501 955.662684 74.239669 954.336668 74.239669 
C 953.010653 74.239669 951.738769 74.766501 950.801134 75.704136 
C 949.8635 76.64177 949.336668 77.913654 949.336668 79.239669 
C 949.336668 80.565685 949.8635 81.837569 950.801134 82.775203 
C 951.738769 83.712838 953.010653 84.239669 954.336668 84.239669 
z
" clip-path="url(#pa25876e06d)" style="stroke: #000000; stroke-width: 0.4"/>
    <path d="M 977.355372 109.353716 
C 978.293006 109.353716 979.192364 108.98119 979.855372 108.318182 
C 980.51838 107.655174 980.890906 106.755816 980.890906 105.818182 
C 980.890906 104.880547 980.51838 103.98119 979.855372 103.318182 
C 979.192364 102.655174 978.293006 102.282648 977.355372 102.282648 
C 976.417737 102.282648 975.51838 102.655174 974.855372 103.318182 
C 974.192364 103.98119 973.819838 104.880547 973.819838 105.818182 
C 973.819838 106.755816 974.192364 107.655174 974.855372 108.318182 
C 975.51838 108.98119 976.417737 109.353716 977.355372 109.353716 
z
" clip-path="url(#pa25876e06d)" style="fill: #808080; stroke: #000000; stroke-width: 0.4"/>
    <path d="M 171.700739 84.239669 
C 173.026755 84.239669 174.298639 83.712838 175.236273 82.775203 
C 176.173908 81.837569 176.700739 80.565685 176.700739 79.239669 
C 176.700739 77.913654 176.173908 76.64177 175.236273 75.704136 
C 174.298639 74.766501 173.026755 74.239669 171.700739 74.239669 
C 170.374724 74.239669 169.10284 74.766501 168.165206 75.704136 
C 167.227571 76.64177 166.700739 77.913654 166.700739 79.239669 
C 166.700739 80.565685 167.227571 81.837569 168.165206 82.775203 
C 169.10284 83.712838 170.374724 84.239669 171.700739 84.239669 
z
" clip-path="url(#pa25876e06d)" style="stroke: #000000; stroke-width: 0.4"/>
    <path d="M 148.682036 109.353716 
C 149.61967 109.353716 150.519028 108.98119 151.182036 108.318182 
C 151.845043 107.655174 152.21757 106.755816 152.21757 105.818182 
C 152.21757 104.880547 151.845043 103.98119 151.182036 103.318182 
C 150.519028 102.655174 149.61967 102.282648 148.682036 102.282648 
C 147.744401 102.282648 146.845043 102.655174 146.182036 103.318182 
C 145.519028 103.98119 145.146502 104.880547 145.146502 105.818182 
C 145.146502 106.755816 145.519028 107.655174 146.182036 108.318182 
C 146.845043 108.98119 147.744401 109.353716 148.682036 109.353716 
z
" clip-path="url(#pa25876e06d)" style="fill: #808080; stroke: #000000; stroke-width: 0.4"/>
    <path d="M 125.663332 57.661157 
C 126.989347 57.661157 128.261231 57.134325 129.198866 56.196691 
C 130.1365 55.259056 130.663332 53.987173 130.663332 52.661157 
C 130.663332 51.335142 130.1365 50.063258 129.198866 49.125623 
C 128.261231 48.187989 126.989347 47.661157 125.663332 47.661157 
C 124.337316 47.661157 123.065433 48.187989 122.127798 49.125623 
C 121.190163 50.063258 120.663332 51.335142 120.663332 52.661157 
C 120.663332 53.987173 121.190163 55.259056 122.127798 56.196691 
C 123.065433 57.134325 124.337316 57.661157 125.663332 57.661157 
z
" clip-path="url(#pa25876e06d)" style="stroke: #000000; stroke-width: 0.4"/>
    <path d="M 102.644628 82.775203 
C 103.582263 82.775203 104.48162 82.402677 105.144628 81.739669 
C 105.807636 81.076662 106.180162 80.177304 106.180162 79.239669 
C 106.180162 78.302035 105.807636 77.402677 105.144628 76.739669 
C 104.48162 76.076662 103.582263 75.704136 102.644628 75.704136 
C 101.706994 75.704136 100.807636 76.076662 100.144628 76.739669 
C 99.48162 77.402677 99.109094 78.302035 99.109094 79.239669 
C 99.109094 80.177304 99.48162 81.076662 100.144628 81.739669 
C 100.807636 82.402677 101.706994 82.775203 102.644628 82.775203 
z
" clip-path="url(#pa25876e06d)" style="fill: #808080; stroke: #000000; stroke-width: 0.4"/>
   </g>
   <g id="line2d_1">
    <path d="M 816.224445 493.2 
L 816.224445 10.8 
" clip-path="url(#pa25876e06d)" style="fill: none; stroke: #ff0000; stroke-width: 1.5; stroke-linecap: square"/>
   </g>
   <g id="patch_3">
    <path d="M 10.8 493.2 
L 10.8 10.8 
" style="fill: none; stroke: #000000; stroke-width: 0.8; stroke-linejoin: miter; stroke-linecap: square"/>
   </g>
   <g id="patch_4">
    <path d="M 1069.2 493.2 
L 1069.2 10.8 
" style="fill: none; stroke: #000000; stroke-width: 0.8; stroke-linejoin: miter; stroke-linecap: square"/>
   </g>
   <g id="patch_5">
    <path d="M 10.8 493.2 
L 1069.2 493.2 
" style="fill: none; stroke: #000000; stroke-width: 0.8; stroke-linejoin: miter; stroke-linecap: square"/>
   </g>
   <g id="patch_6">
    <path d="M 10.8 10.8 
L 1069.2 10.8 
" style="fill: none; stroke: #000000; stroke-width: 0.8; stroke-linejoin: miter; stroke-linecap: square"/>
   </g>
   <g id="text_1">
    <!-- LO -->
    <g transform="translate(596.037408 313.446281)scale(0.12 -0.12)">
     <defs>
      <path id="DejaVuSans-4c" d="M 628 4666 
L 1259 4666 
L 1259 531 
L 3531 531 
L 3531 0 
L 628 0 
L 628 4666 
z
" transform="scale(0.015625)"/>
      <path id="DejaVuSans-4f" d="M 2522 4238 
Q 1834 4238 1429 3725 
Q 1025 3213 1025 2328 
Q 1025 1447 1429 934 
Q 1834 422 2522 422 
Q 3209 422 3611 934 
Q 4013 1447 4013 2328 
Q 4013 3213 3611 3725 
Q 3209 4238 2522 4238 
z
M 2522 4750 
Q 3503 4750 4090 4092 
Q 4678 3434 4678 2328 
Q 4678 1225 4090 567 
Q 3503 -91 2522 -91 
Q 1538 -91 948 565 
Q 359 1222 359 2328 
Q 359 3434 948 4092 
Q 1538 4750 2522 4750 
z
" transform="scale(0.015625)"/>
     </defs>
     <use xlink:href="#DejaVuSans-4c"/>
     <use xlink:href="#DejaVuSans-4f" x="52.087891"/>
    </g>
   </g>
   <g id="text_2">
    <!-- LE -->
    <g transform="translate(773.205742 471.338843)scale(0.12 -0.12)">
     <defs>
      <path id="DejaVuSans-45" d="M 628 4666 
L 3578 4666 
L 3578 4134 
L 1259 4134 
L 1259 2753 
L 3481 2753 
L 3481 2222 
L 1259 2222 
L 1259 531 
L 3634 531 
L 3634 0 
L 628 0 
L 628 4666 
z
" transform="scale(0.015625)"/>
     </defs>
     <use xlink:href="#DejaVuSans-4c"/>
     <use xlink:href="#DejaVuSans-45" x="55.712891"/>
    </g>
   </g>
   <g id="text_3">
    <!-- KN -->
    <g transform="translate(796.224445 285.289256)scale(0.12 -0.12)">
     <defs>
      <path id="DejaVuSans-4b" d="M 628 4666 
L 1259 4666 
L 1259 2694 
L 3353 4666 
L 4166 4666 
L 1850 2491 
L 4331 0 
L 3500 0 
L 1259 2247 
L 1259 0 
L 628 0 
L 628 4666 
z
" transform="scale(0.015625)"/>
      <path id="DejaVuSans-4e" d="M 628 4666 
L 1478 4666 
L 3547 763 
L 3547 4666 
L 4159 4666 
L 4159 0 
L 3309 0 
L 1241 3903 
L 1241 0 
L 628 0 
L 628 4666 
z
" transform="scale(0.015625)"/>
     </defs>
     <use xlink:href="#DejaVuSans-4b"/>
     <use xlink:href="#DejaVuSans-4e" x="65.576172"/>
    </g>
   </g>
  </g>
 </g>
 <defs>
  <clipPath id="pa25876e06d">
   <rect x="10.8" y="10.8" width="1058.4" height="482.4"/>
  </clipPath>
 </defs>
</svg>
