<?xml version="1.0" encoding="utf-8" standalone="no"?>
<!DOCTYPE svg PUBLIC "-//W3C//DTD SVG 1.1//EN"
  "http://www.w3.org/Graphics/SVG/1.1/DTD/svg11.dtd">
<svg xmlns:xlink="http://www.w3.org/1999/xlink" width="1080pt" height="504pt" viewBox="0 0 1080 504" xmlns="http://www.w3.org/2000/svg" version="1.1">
 <metadata>
  <rdf:RDF xmlns:dc="http://purl.org/dc/elements/1.1/" xmlns:cc="http://creativecommons.org/ns#" xmlns:rdf="http://www.w3.org/1999/02/22-rdf-syntax-ns#">
   <cc:Work>
    <dc:type rdf:resource="http://purl.org/dc/dcmitype/StillImage"/>
    <dc:date>2022-04-22T08:08:50.429562</dc:date>
    <dc:format>image/svg+xml</dc:format>
    <dc:creator>
     <cc:Agent>
      <dc:title>Matplotlib v3.5.1, https://matplotlib.org/</dc:title>
     </cc:Agent>
    </dc:creator>
   </cc:Work>
  </rdf:RDF>
 </metadata>
 <defs>
  <style type="text/css">*{stroke-linejoin: round; stroke-linecap: butt}</style>
 </defs>
 <g id="figure_1">
  <g id="patch_1">
   <path d="M 0 504 
L 1080 504 
L 1080 0 
L 0 0 
z
" style="fill: #ffffff"/>
  </g>
  <g id="axes_1">
   <g id="patch_2">
    <path d="M 10.8 493.2 
L 1069.2 493.2 
L 1069.2 10.8 
L 10.8 10.8 
z
" style="fill: #ffffff"/>
   </g>
   <g id="LineCollection_1">
    <path d="M 197.207952 132.396694 
L 220.848783 132.396694 
" clip-path="url(#pff0b8c4914)" style="fill: none; stroke: #000000; stroke-width: 0.4"/>
    <path d="M 197.207952 132.396694 
L 244.489614 105.818182 
" clip-path="url(#pff0b8c4914)" style="fill: none; stroke: #000000; stroke-width: 0.4"/>
    <path d="M 362.693768 238.710744 
L 386.334599 238.710744 
" clip-path="url(#pff0b8c4914)" style="fill: none; stroke: #000000; stroke-width: 0.4"/>
    <path d="M 362.693768 238.710744 
L 409.97543 212.132231 
" clip-path="url(#pff0b8c4914)" style="fill: none; stroke: #000000; stroke-width: 0.4"/>
    <path d="M 433.616261 318.446281 
L 457.257092 318.446281 
" clip-path="url(#pff0b8c4914)" style="fill: none; stroke: #000000; stroke-width: 0.4"/>
    <path d="M 433.616261 318.446281 
L 480.897923 291.867769 
" clip-path="url(#pff0b8c4914)" style="fill: none; stroke: #000000; stroke-width: 0.4"/>
    <path d="M 504.538754 345.024793 
L 528.179585 345.024793 
" clip-path="url(#pff0b8c4914)" style="fill: none; stroke: #000000; stroke-width: 0.4"/>
    <path d="M 504.538754 345.024793 
L 551.820415 318.446281 
" clip-path="url(#pff0b8c4914)" style="fill: none; stroke: #000000; stroke-width: 0.4"/>
    <path d="M 764.587894 451.338843 
L 788.228725 451.338843 
" clip-path="url(#pff0b8c4914)" style="fill: none; stroke: #000000; stroke-width: 0.4"/>
    <path d="M 764.587894 451.338843 
L 740.947063 424.760331 
" clip-path="url(#pff0b8c4914)" style="fill: none; stroke: #000000; stroke-width: 0.4"/>
    <path d="M 740.947063 424.760331 
L 717.306232 424.760331 
" clip-path="url(#pff0b8c4914)" style="fill: none; stroke: #000000; stroke-width: 0.4"/>
    <path d="M 717.306232 424.760331 
L 693.665401 398.181818 
" clip-path="url(#pff0b8c4914)" style="fill: none; stroke: #000000; stroke-width: 0.4"/>
    <path d="M 693.665401 398.181818 
L 670.02457 398.181818 
" clip-path="url(#pff0b8c4914)" style="fill: none; stroke: #000000; stroke-width: 0.4"/>
    <path d="M 670.02457 398.181818 
L 646.383739 371.603306 
" clip-path="url(#pff0b8c4914)" style="fill: none; stroke: #000000; stroke-width: 0.4"/>
    <path d="M 646.383739 371.603306 
L 622.742908 371.603306 
" clip-path="url(#pff0b8c4914)" style="fill: none; stroke: #000000; stroke-width: 0.4"/>
    <path d="M 622.742908 371.603306 
L 599.102077 345.024793 
" clip-path="url(#pff0b8c4914)" style="fill: none; stroke: #000000; stroke-width: 0.4"/>
    <path d="M 599.102077 345.024793 
L 575.461246 345.024793 
" clip-path="url(#pff0b8c4914)" style="fill: none; stroke: #000000; stroke-width: 0.4"/>
    <path d="M 575.461246 345.024793 
L 551.820415 318.446281 
" clip-path="url(#pff0b8c4914)" style="fill: none; stroke: #000000; stroke-width: 0.4"/>
    <path d="M 551.820415 318.446281 
L 480.897923 291.867769 
" clip-path="url(#pff0b8c4914)" style="fill: none; stroke: #000000; stroke-width: 0.4"/>
    <path d="M 480.897923 291.867769 
L 811.869556 265.289256 
" clip-path="url(#pff0b8c4914)" style="fill: none; stroke: #000000; stroke-width: 0.4"/>
    <path d="M 811.869556 265.289256 
L 835.510386 291.867769 
" clip-path="url(#pff0b8c4914)" style="fill: none; stroke: #000000; stroke-width: 0.4"/>
    <path d="M 811.869556 265.289256 
L 859.151217 238.710744 
" clip-path="url(#pff0b8c4914)" style="fill: none; stroke: #000000; stroke-width: 0.4"/>
    <path d="M 859.151217 238.710744 
L 882.792048 238.710744 
" clip-path="url(#pff0b8c4914)" style="fill: none; stroke: #000000; stroke-width: 0.4"/>
    <path d="M 859.151217 238.710744 
L 409.97543 212.132231 
" clip-path="url(#pff0b8c4914)" style="fill: none; stroke: #000000; stroke-width: 0.4"/>
    <path d="M 409.97543 212.132231 
L 339.052937 185.553719 
" clip-path="url(#pff0b8c4914)" style="fill: none; stroke: #000000; stroke-width: 0.4"/>
    <path d="M 339.052937 185.553719 
L 315.412106 212.132231 
" clip-path="url(#pff0b8c4914)" style="fill: none; stroke: #000000; stroke-width: 0.4"/>
    <path d="M 339.052937 185.553719 
L 291.771275 158.975207 
" clip-path="url(#pff0b8c4914)" style="fill: none; stroke: #000000; stroke-width: 0.4"/>
    <path d="M 291.771275 158.975207 
L 268.130444 185.553719 
" clip-path="url(#pff0b8c4914)" style="fill: none; stroke: #000000; stroke-width: 0.4"/>
    <path d="M 291.771275 158.975207 
L 906.432879 132.396694 
" clip-path="url(#pff0b8c4914)" style="fill: none; stroke: #000000; stroke-width: 0.4"/>
    <path d="M 906.432879 132.396694 
L 930.07371 132.396694 
" clip-path="url(#pff0b8c4914)" style="fill: none; stroke: #000000; stroke-width: 0.4"/>
    <path d="M 906.432879 132.396694 
L 244.489614 105.818182 
" clip-path="url(#pff0b8c4914)" style="fill: none; stroke: #000000; stroke-width: 0.4"/>
    <path d="M 244.489614 105.818182 
L 953.714541 79.239669 
" clip-path="url(#pff0b8c4914)" style="fill: none; stroke: #000000; stroke-width: 0.4"/>
    <path d="M 953.714541 79.239669 
L 977.355372 105.818182 
" clip-path="url(#pff0b8c4914)" style="fill: none; stroke: #000000; stroke-width: 0.4"/>
    <path d="M 953.714541 79.239669 
L 173.567121 79.239669 
" clip-path="url(#pff0b8c4914)" style="fill: none; stroke: #000000; stroke-width: 0.4"/>
    <path d="M 173.567121 79.239669 
L 149.92629 105.818182 
" clip-path="url(#pff0b8c4914)" style="fill: none; stroke: #000000; stroke-width: 0.4"/>
    <path d="M 173.567121 79.239669 
L 126.285459 52.661157 
" clip-path="url(#pff0b8c4914)" style="fill: none; stroke: #000000; stroke-width: 0.4"/>
    <path d="M 126.285459 52.661157 
L 102.644628 79.239669 
" clip-path="url(#pff0b8c4914)" style="fill: none; stroke: #000000; stroke-width: 0.4"/>
   </g>
   <g id="matplotlib.axis_1">
    <g id="xtick_1"/>
    <g id="xtick_2"/>
    <g id="xtick_3"/>
    <g id="xtick_4"/>
    <g id="xtick_5"/>
    <g id="xtick_6"/>
    <g id="xtick_7"/>
    <g id="xtick_8"/>
    <g id="xtick_9"/>
   </g>
   <g id="matplotlib.axis_2">
    <g id="ytick_1"/>
    <g id="ytick_2"/>
    <g id="ytick_3"/>
    <g id="ytick_4"/>
    <g id="ytick_5"/>
    <g id="ytick_6"/>
    <g id="ytick_7"/>
    <g id="ytick_8"/>
   </g>
   <g id="PathCollection_1">
    <path d="M 197.207952 135.932228 
C 198.145586 135.932228 199.044944 135.559702 199.707952 134.896694 
C 200.37096 134.233686 200.743486 133.334329 200.743486 132.396694 
C 200.743486 131.45906 200.37096 130.559702 199.707952 129.896694 
C 199.044944 129.233686 198.145586 128.86116 197.207952 128.86116 
C 196.270317 128.86116 195.37096 129.233686 194.707952 129.896694 
C 194.044944 130.559702 193.672418 131.45906 193.672418 132.396694 
C 193.672418 133.334329 194.044944 134.233686 194.707952 134.896694 
C 195.37096 135.559702 196.270317 135.932228 197.207952 135.932228 
z
" clip-path="url(#pff0b8c4914)" style="fill: #808080; stroke: #000000; stroke-width: 0.4"/>
    <path d="M 220.848783 135.932228 
C 221.786417 135.932228 222.685775 135.559702 223.348783 134.896694 
C 224.01179 134.233686 224.384317 133.334329 224.384317 132.396694 
C 224.384317 131.45906 224.01179 130.559702 223.348783 129.896694 
C 222.685775 129.233686 221.786417 128.86116 220.848783 128.86116 
C 219.911148 128.86116 219.01179 129.233686 218.348783 129.896694 
C 217.685775 130.559702 217.313249 131.45906 217.313249 132.396694 
C 217.313249 133.334329 217.685775 134.233686 218.348783 134.896694 
C 219.01179 135.559702 219.911148 135.932228 220.848783 135.932228 
z
" clip-path="url(#pff0b8c4914)" style="fill: #808080; stroke: #000000; stroke-width: 0.4"/>
    <path d="M 362.693768 242.246278 
C 363.631403 242.246278 364.53076 241.873752 365.193768 241.210744 
C 365.856776 240.547736 366.229302 239.648378 366.229302 238.710744 
C 366.229302 237.773109 365.856776 236.873752 365.193768 236.210744 
C 364.53076 235.547736 363.631403 235.17521 362.693768 235.17521 
C 361.756134 235.17521 360.856776 235.547736 360.193768 236.210744 
C 359.53076 236.873752 359.158234 237.773109 359.158234 238.710744 
C 359.158234 239.648378 359.53076 240.547736 360.193768 241.210744 
C 360.856776 241.873752 361.756134 242.246278 362.693768 242.246278 
z
" clip-path="url(#pff0b8c4914)" style="fill: #808080; stroke: #000000; stroke-width: 0.4"/>
    <path d="M 386.334599 242.246278 
C 387.272234 242.246278 388.171591 241.873752 388.834599 241.210744 
C 389.497607 240.547736 389.870133 239.648378 389.870133 238.710744 
C 389.870133 237.773109 389.497607 236.873752 388.834599 236.210744 
C 388.171591 235.547736 387.272234 235.17521 386.334599 235.17521 
C 385.396965 235.17521 384.497607 235.547736 383.834599 236.210744 
C 383.171591 236.873752 382.799065 237.773109 382.799065 238.710744 
C 382.799065 239.648378 383.171591 240.547736 383.834599 241.210744 
C 384.497607 241.873752 385.396965 242.246278 386.334599 242.246278 
z
" clip-path="url(#pff0b8c4914)" style="fill: #808080; stroke: #000000; stroke-width: 0.4"/>
    <path d="M 433.616261 321.981815 
C 434.553895 321.981815 435.453253 321.609289 436.116261 320.946281 
C 436.779269 320.283273 437.151795 319.383916 437.151795 318.446281 
C 437.151795 317.508646 436.779269 316.609289 436.116261 315.946281 
C 435.453253 315.283273 434.553895 314.910747 433.616261 314.910747 
C 432.678626 314.910747 431.779269 315.283273 431.116261 315.946281 
C 430.453253 316.609289 430.080727 317.508646 430.080727 318.446281 
C 430.080727 319.383916 430.453253 320.283273 431.116261 320.946281 
C 431.779269 321.609289 432.678626 321.981815 433.616261 321.981815 
z
" clip-path="url(#pff0b8c4914)" style="fill: #808080; stroke: #000000; stroke-width: 0.4"/>
    <path d="M 457.257092 321.981815 
C 458.194726 321.981815 459.094084 321.609289 459.757092 320.946281 
C 460.4201 320.283273 460.792626 319.383916 460.792626 318.446281 
C 460.792626 317.508646 460.4201 316.609289 459.757092 315.946281 
C 459.094084 315.283273 458.194726 314.910747 457.257092 314.910747 
C 456.319457 314.910747 455.4201 315.283273 454.757092 315.946281 
C 454.094084 316.609289 453.721558 317.508646 453.721558 318.446281 
C 453.721558 319.383916 454.094084 320.283273 454.757092 320.946281 
C 455.4201 321.609289 456.319457 321.981815 457.257092 321.981815 
z
" clip-path="url(#pff0b8c4914)" style="fill: #808080; stroke: #000000; stroke-width: 0.4"/>
    <path d="M 504.538754 348.560327 
C 505.476388 348.560327 506.375746 348.187801 507.038754 347.524793 
C 507.701761 346.861786 508.074288 345.962428 508.074288 345.024793 
C 508.074288 344.087159 507.701761 343.187801 507.038754 342.524793 
C 506.375746 341.861786 505.476388 341.489259 504.538754 341.489259 
C 503.601119 341.489259 502.701761 341.861786 502.038754 342.524793 
C 501.375746 343.187801 501.00322 344.087159 501.00322 345.024793 
C 501.00322 345.962428 501.375746 346.861786 502.038754 347.524793 
C 502.701761 348.187801 503.601119 348.560327 504.538754 348.560327 
z
" clip-path="url(#pff0b8c4914)" style="fill: #808080; stroke: #000000; stroke-width: 0.4"/>
    <path d="M 528.179585 348.560327 
C 529.117219 348.560327 530.016577 348.187801 530.679585 347.524793 
C 531.342592 346.861786 531.715118 345.962428 531.715118 345.024793 
C 531.715118 344.087159 531.342592 343.187801 530.679585 342.524793 
C 530.016577 341.861786 529.117219 341.489259 528.179585 341.489259 
C 527.24195 341.489259 526.342592 341.861786 525.679585 342.524793 
C 525.016577 343.187801 524.644051 344.087159 524.644051 345.024793 
C 524.644051 345.962428 525.016577 346.861786 525.679585 347.524793 
C 526.342592 348.187801 527.24195 348.560327 528.179585 348.560327 
z
" clip-path="url(#pff0b8c4914)" style="fill: #808080; stroke: #000000; stroke-width: 0.4"/>
    <path d="M 764.587894 454.874377 
C 765.525528 454.874377 766.424886 454.501851 767.087894 453.838843 
C 767.750901 453.175835 768.123428 452.276478 768.123428 451.338843 
C 768.123428 450.401208 767.750901 449.501851 767.087894 448.838843 
C 766.424886 448.175835 765.525528 447.803309 764.587894 447.803309 
C 763.650259 447.803309 762.750901 448.175835 762.087894 448.838843 
C 761.424886 449.501851 761.05236 450.401208 761.05236 451.338843 
C 761.05236 452.276478 761.424886 453.175835 762.087894 453.838843 
C 762.750901 454.501851 763.650259 454.874377 764.587894 454.874377 
z
" clip-path="url(#pff0b8c4914)" style="fill: #808080; stroke: #000000; stroke-width: 0.4"/>
    <path d="M 788.228725 456.338843 
C 789.55474 456.338843 790.826624 455.812011 791.764258 454.874377 
C 792.701893 453.936742 793.228725 452.664858 793.228725 451.338843 
C 793.228725 450.012827 792.701893 448.740944 791.764258 447.803309 
C 790.826624 446.865675 789.55474 446.338843 788.228725 446.338843 
C 786.902709 446.338843 785.630825 446.865675 784.693191 447.803309 
C 783.755556 448.740944 783.228725 450.012827 783.228725 451.338843 
C 783.228725 452.664858 783.755556 453.936742 784.693191 454.874377 
C 785.630825 455.812011 786.902709 456.338843 788.228725 456.338843 
z
" clip-path="url(#pff0b8c4914)" style="fill: #008000; stroke: #000000; stroke-width: 0.4"/>
    <path d="M 740.947063 429.760331 
C 742.273078 429.760331 743.544962 429.233499 744.482597 428.295864 
C 745.420231 427.35823 745.947063 426.086346 745.947063 424.760331 
C 745.947063 423.434315 745.420231 422.162431 744.482597 421.224797 
C 743.544962 420.287162 742.273078 419.760331 740.947063 419.760331 
C 739.621047 419.760331 738.349163 420.287162 737.411529 421.224797 
C 736.473894 422.162431 735.947063 423.434315 735.947063 424.760331 
C 735.947063 426.086346 736.473894 427.35823 737.411529 428.295864 
C 738.349163 429.233499 739.621047 429.760331 740.947063 429.760331 
z
" clip-path="url(#pff0b8c4914)" style="fill: #008000; stroke: #000000; stroke-width: 0.4"/>
    <path d="M 717.306232 428.295864 
C 718.243866 428.295864 719.143224 427.923338 719.806232 427.260331 
C 720.46924 426.597323 720.841766 425.697965 720.841766 424.760331 
C 720.841766 423.822696 720.46924 422.923338 719.806232 422.260331 
C 719.143224 421.597323 718.243866 421.224797 717.306232 421.224797 
C 716.368597 421.224797 715.46924 421.597323 714.806232 422.260331 
C 714.143224 422.923338 713.770698 423.822696 713.770698 424.760331 
C 713.770698 425.697965 714.143224 426.597323 714.806232 427.260331 
C 715.46924 427.923338 716.368597 428.295864 717.306232 428.295864 
z
" clip-path="url(#pff0b8c4914)" style="fill: #808080; stroke: #000000; stroke-width: 0.4"/>
    <path d="M 693.665401 403.181818 
C 694.991416 403.181818 696.2633 402.654987 697.200935 401.717352 
C 698.138569 400.779718 698.665401 399.507834 698.665401 398.181818 
C 698.665401 396.855803 698.138569 395.583919 697.200935 394.646284 
C 696.2633 393.70865 694.991416 393.181818 693.665401 393.181818 
C 692.339385 393.181818 691.067502 393.70865 690.129867 394.646284 
C 689.192232 395.583919 688.665401 396.855803 688.665401 398.181818 
C 688.665401 399.507834 689.192232 400.779718 690.129867 401.717352 
C 691.067502 402.654987 692.339385 403.181818 693.665401 403.181818 
z
" clip-path="url(#pff0b8c4914)" style="fill: #008000; stroke: #000000; stroke-width: 0.4"/>
    <path d="M 670.02457 401.717352 
C 670.962205 401.717352 671.861562 401.344826 672.52457 400.681818 
C 673.187578 400.01881 673.560104 399.119453 673.560104 398.181818 
C 673.560104 397.244184 673.187578 396.344826 672.52457 395.681818 
C 671.861562 395.01881 670.962205 394.646284 670.02457 394.646284 
C 669.086935 394.646284 668.187578 395.01881 667.52457 395.681818 
C 666.861562 396.344826 666.489036 397.244184 666.489036 398.181818 
C 666.489036 399.119453 666.861562 400.01881 667.52457 400.681818 
C 668.187578 401.344826 669.086935 401.717352 670.02457 401.717352 
z
" clip-path="url(#pff0b8c4914)" style="fill: #808080; stroke: #000000; stroke-width: 0.4"/>
    <path d="M 646.383739 376.603306 
C 647.709755 376.603306 648.981638 376.076474 649.919273 375.13884 
C 650.856908 374.201205 651.383739 372.929321 651.383739 371.603306 
C 651.383739 370.27729 650.856908 369.005406 649.919273 368.067772 
C 648.981638 367.130137 647.709755 366.603306 646.383739 366.603306 
C 645.057724 366.603306 643.78584 367.130137 642.848205 368.067772 
C 641.910571 369.005406 641.383739 370.27729 641.383739 371.603306 
C 641.383739 372.929321 641.910571 374.201205 642.848205 375.13884 
C 643.78584 376.076474 645.057724 376.603306 646.383739 376.603306 
z
" clip-path="url(#pff0b8c4914)" style="fill: #008000; stroke: #000000; stroke-width: 0.4"/>
    <path d="M 622.742908 375.13884 
C 623.680543 375.13884 624.5799 374.766314 625.242908 374.103306 
C 625.905916 373.440298 626.278442 372.54094 626.278442 371.603306 
C 626.278442 370.665671 625.905916 369.766314 625.242908 369.103306 
C 624.5799 368.440298 623.680543 368.067772 622.742908 368.067772 
C 621.805274 368.067772 620.905916 368.440298 620.242908 369.103306 
C 619.5799 369.766314 619.207374 370.665671 619.207374 371.603306 
C 619.207374 372.54094 619.5799 373.440298 620.242908 374.103306 
C 620.905916 374.766314 621.805274 375.13884 622.742908 375.13884 
z
" clip-path="url(#pff0b8c4914)" style="fill: #808080; stroke: #000000; stroke-width: 0.4"/>
    <path d="M 599.102077 350.024793 
C 600.428093 350.024793 601.699977 349.497962 602.637611 348.560327 
C 603.575246 347.622693 604.102077 346.350809 604.102077 345.024793 
C 604.102077 343.698778 603.575246 342.426894 602.637611 341.489259 
C 601.699977 340.551625 600.428093 340.024793 599.102077 340.024793 
C 597.776062 340.024793 596.504178 340.551625 595.566543 341.489259 
C 594.628909 342.426894 594.102077 343.698778 594.102077 345.024793 
C 594.102077 346.350809 594.628909 347.622693 595.566543 348.560327 
C 596.504178 349.497962 597.776062 350.024793 599.102077 350.024793 
z
" clip-path="url(#pff0b8c4914)" style="fill: #008000; stroke: #000000; stroke-width: 0.4"/>
    <path d="M 575.461246 348.560327 
C 576.398881 348.560327 577.298239 348.187801 577.961246 347.524793 
C 578.624254 346.861786 578.99678 345.962428 578.99678 345.024793 
C 578.99678 344.087159 578.624254 343.187801 577.961246 342.524793 
C 577.298239 341.861786 576.398881 341.489259 575.461246 341.489259 
C 574.523612 341.489259 573.624254 341.861786 572.961246 342.524793 
C 572.298239 343.187801 571.925712 344.087159 571.925712 345.024793 
C 571.925712 345.962428 572.298239 346.861786 572.961246 347.524793 
C 573.624254 348.187801 574.523612 348.560327 575.461246 348.560327 
z
" clip-path="url(#pff0b8c4914)" style="fill: #808080; stroke: #000000; stroke-width: 0.4"/>
    <path d="M 551.820415 323.446281 
C 553.146431 323.446281 554.418315 322.919449 555.355949 321.981815 
C 556.293584 321.04418 556.820415 319.772296 556.820415 318.446281 
C 556.820415 317.120265 556.293584 315.848382 555.355949 314.910747 
C 554.418315 313.973113 553.146431 313.446281 551.820415 313.446281 
C 550.4944 313.446281 549.222516 313.973113 548.284882 314.910747 
C 547.347247 315.848382 546.820415 317.120265 546.820415 318.446281 
C 546.820415 319.772296 547.347247 321.04418 548.284882 321.981815 
C 549.222516 322.919449 550.4944 323.446281 551.820415 323.446281 
z
" clip-path="url(#pff0b8c4914)" style="stroke: #000000; stroke-width: 0.4"/>
    <path d="M 480.897923 296.867769 
C 482.223938 296.867769 483.495822 296.340937 484.433457 295.403303 
C 485.371091 294.465668 485.897923 293.193784 485.897923 291.867769 
C 485.897923 290.541753 485.371091 289.269869 484.433457 288.332235 
C 483.495822 287.3946 482.223938 286.867769 480.897923 286.867769 
C 479.571907 286.867769 478.300023 287.3946 477.362389 288.332235 
C 476.424754 289.269869 475.897923 290.541753 475.897923 291.867769 
C 475.897923 293.193784 476.424754 294.465668 477.362389 295.403303 
C 478.300023 296.340937 479.571907 296.867769 480.897923 296.867769 
z
" clip-path="url(#pff0b8c4914)" style="stroke: #000000; stroke-width: 0.4"/>
    <path d="M 811.869556 270.289256 
C 813.195571 270.289256 814.467455 269.762425 815.405089 268.82479 
C 816.342724 267.887156 816.869556 266.615272 816.869556 265.289256 
C 816.869556 263.963241 816.342724 262.691357 815.405089 261.753722 
C 814.467455 260.816088 813.195571 260.289256 811.869556 260.289256 
C 810.54354 260.289256 809.271656 260.816088 808.334022 261.753722 
C 807.396387 262.691357 806.869556 263.963241 806.869556 265.289256 
C 806.869556 266.615272 807.396387 267.887156 808.334022 268.82479 
C 809.271656 269.762425 810.54354 270.289256 811.869556 270.289256 
z
" clip-path="url(#pff0b8c4914)" style="fill: #ffff00; stroke: #000000; stroke-width: 0.4"/>
    <path d="M 835.510386 295.403303 
C 836.448021 295.403303 837.347379 295.030776 838.010386 294.367769 
C 838.673394 293.704761 839.04592 292.805403 839.04592 291.867769 
C 839.04592 290.930134 838.673394 290.030776 838.010386 289.367769 
C 837.347379 288.704761 836.448021 288.332235 835.510386 288.332235 
C 834.572752 288.332235 833.673394 288.704761 833.010386 289.367769 
C 832.347379 290.030776 831.974853 290.930134 831.974853 291.867769 
C 831.974853 292.805403 832.347379 293.704761 833.010386 294.367769 
C 833.673394 295.030776 834.572752 295.403303 835.510386 295.403303 
z
" clip-path="url(#pff0b8c4914)" style="fill: #808080; stroke: #000000; stroke-width: 0.4"/>
    <path d="M 859.151217 243.710744 
C 860.477233 243.710744 861.749117 243.183912 862.686751 242.246278 
C 863.624386 241.308643 864.151217 240.036759 864.151217 238.710744 
C 864.151217 237.384728 863.624386 236.112844 862.686751 235.17521 
C 861.749117 234.237575 860.477233 233.710744 859.151217 233.710744 
C 857.825202 233.710744 856.553318 234.237575 855.615683 235.17521 
C 854.678049 236.112844 854.151217 237.384728 854.151217 238.710744 
C 854.151217 240.036759 854.678049 241.308643 855.615683 242.246278 
C 856.553318 243.183912 857.825202 243.710744 859.151217 243.710744 
z
" clip-path="url(#pff0b8c4914)" style="stroke: #000000; stroke-width: 0.4"/>
    <path d="M 882.792048 242.246278 
C 883.729683 242.246278 884.62904 241.873752 885.292048 241.210744 
C 885.955056 240.547736 886.327582 239.648378 886.327582 238.710744 
C 886.327582 237.773109 885.955056 236.873752 885.292048 236.210744 
C 884.62904 235.547736 883.729683 235.17521 882.792048 235.17521 
C 881.854414 235.17521 880.955056 235.547736 880.292048 236.210744 
C 879.62904 236.873752 879.256514 237.773109 879.256514 238.710744 
C 879.256514 239.648378 879.62904 240.547736 880.292048 241.210744 
C 880.955056 241.873752 881.854414 242.246278 882.792048 242.246278 
z
" clip-path="url(#pff0b8c4914)" style="fill: #808080; stroke: #000000; stroke-width: 0.4"/>
    <path d="M 409.97543 217.132231 
C 411.301445 217.132231 412.573329 216.6054 413.510964 215.667765 
C 414.448598 214.730131 414.97543 213.458247 414.97543 212.132231 
C 414.97543 210.806216 414.448598 209.534332 413.510964 208.596697 
C 412.573329 207.659063 411.301445 207.132231 409.97543 207.132231 
C 408.649414 207.132231 407.377531 207.659063 406.439896 208.596697 
C 405.502262 209.534332 404.97543 210.806216 404.97543 212.132231 
C 404.97543 213.458247 405.502262 214.730131 406.439896 215.667765 
C 407.377531 216.6054 408.649414 217.132231 409.97543 217.132231 
z
" clip-path="url(#pff0b8c4914)" style="stroke: #000000; stroke-width: 0.4"/>
    <path d="M 339.052937 190.553719 
C 340.378953 190.553719 341.650837 190.026887 342.588471 189.089253 
C 343.526106 188.151618 344.052937 186.879735 344.052937 185.553719 
C 344.052937 184.227704 343.526106 182.95582 342.588471 182.018185 
C 341.650837 181.080551 340.378953 180.553719 339.052937 180.553719 
C 337.726922 180.553719 336.455038 181.080551 335.517403 182.018185 
C 334.579769 182.95582 334.052937 184.227704 334.052937 185.553719 
C 334.052937 186.879735 334.579769 188.151618 335.517403 189.089253 
C 336.455038 190.026887 337.726922 190.553719 339.052937 190.553719 
z
" clip-path="url(#pff0b8c4914)" style="stroke: #000000; stroke-width: 0.4"/>
    <path d="M 315.412106 215.667765 
C 316.349741 215.667765 317.249099 215.295239 317.912106 214.632231 
C 318.575114 213.969224 318.94764 213.069866 318.94764 212.132231 
C 318.94764 211.194597 318.575114 210.295239 317.912106 209.632231 
C 317.249099 208.969224 316.349741 208.596697 315.412106 208.596697 
C 314.474472 208.596697 313.575114 208.969224 312.912106 209.632231 
C 312.249099 210.295239 311.876572 211.194597 311.876572 212.132231 
C 311.876572 213.069866 312.249099 213.969224 312.912106 214.632231 
C 313.575114 215.295239 314.474472 215.667765 315.412106 215.667765 
z
" clip-path="url(#pff0b8c4914)" style="fill: #808080; stroke: #000000; stroke-width: 0.4"/>
    <path d="M 291.771275 163.975207 
C 293.097291 163.975207 294.369175 163.448375 295.306809 162.510741 
C 296.244444 161.573106 296.771275 160.301222 296.771275 158.975207 
C 296.771275 157.649191 296.244444 156.377307 295.306809 155.439673 
C 294.369175 154.502038 293.097291 153.975207 291.771275 153.975207 
C 290.44526 153.975207 289.173376 154.502038 288.235742 155.439673 
C 287.298107 156.377307 286.771275 157.649191 286.771275 158.975207 
C 286.771275 160.301222 287.298107 161.573106 288.235742 162.510741 
C 289.173376 163.448375 290.44526 163.975207 291.771275 163.975207 
z
" clip-path="url(#pff0b8c4914)" style="stroke: #000000; stroke-width: 0.4"/>
    <path d="M 268.130444 189.089253 
C 269.068079 189.089253 269.967437 188.716727 270.630444 188.053719 
C 271.293452 187.390711 271.665978 186.491354 271.665978 185.553719 
C 271.665978 184.616084 271.293452 183.716727 270.630444 183.053719 
C 269.967437 182.390711 269.068079 182.018185 268.130444 182.018185 
C 267.19281 182.018185 266.293452 182.390711 265.630444 183.053719 
C 264.967437 183.716727 264.594911 184.616084 264.594911 185.553719 
C 264.594911 186.491354 264.967437 187.390711 265.630444 188.053719 
C 266.293452 188.716727 267.19281 189.089253 268.130444 189.089253 
z
" clip-path="url(#pff0b8c4914)" style="fill: #808080; stroke: #000000; stroke-width: 0.4"/>
    <path d="M 906.432879 137.396694 
C 907.758895 137.396694 909.030779 136.869863 909.968413 135.932228 
C 910.906048 134.994594 911.432879 133.72271 911.432879 132.396694 
C 911.432879 131.070679 910.906048 129.798795 909.968413 128.86116 
C 909.030779 127.923526 907.758895 127.396694 906.432879 127.396694 
C 905.106864 127.396694 903.83498 127.923526 902.897345 128.86116 
C 901.959711 129.798795 901.432879 131.070679 901.432879 132.396694 
C 901.432879 133.72271 901.959711 134.994594 902.897345 135.932228 
C 903.83498 136.869863 905.106864 137.396694 906.432879 137.396694 
z
" clip-path="url(#pff0b8c4914)" style="stroke: #000000; stroke-width: 0.4"/>
    <path d="M 930.07371 135.932228 
C 931.011345 135.932228 931.910702 135.559702 932.57371 134.896694 
C 933.236718 134.233686 933.609244 133.334329 933.609244 132.396694 
C 933.609244 131.45906 933.236718 130.559702 932.57371 129.896694 
C 931.910702 129.233686 931.011345 128.86116 930.07371 128.86116 
C 929.136076 128.86116 928.236718 129.233686 927.57371 129.896694 
C 926.910702 130.559702 926.538176 131.45906 926.538176 132.396694 
C 926.538176 133.334329 926.910702 134.233686 927.57371 134.896694 
C 928.236718 135.559702 929.136076 135.932228 930.07371 135.932228 
z
" clip-path="url(#pff0b8c4914)" style="fill: #808080; stroke: #000000; stroke-width: 0.4"/>
    <path d="M 244.489614 110.818182 
C 245.815629 110.818182 247.087513 110.29135 248.025147 109.353716 
C 248.962782 108.416081 249.489614 107.144197 249.489614 105.818182 
C 249.489614 104.492166 248.962782 103.220282 248.025147 102.282648 
C 247.087513 101.345013 245.815629 100.818182 244.489614 100.818182 
C 243.163598 100.818182 241.891714 101.345013 240.95408 102.282648 
C 240.016445 103.220282 239.489614 104.492166 239.489614 105.818182 
C 239.489614 107.144197 240.016445 108.416081 240.95408 109.353716 
C 241.891714 110.29135 243.163598 110.818182 244.489614 110.818182 
z
" clip-path="url(#pff0b8c4914)" style="stroke: #000000; stroke-width: 0.4"/>
    <path d="M 953.714541 84.239669 
C 955.040556 84.239669 956.31244 83.712838 957.250075 82.775203 
C 958.187709 81.837569 958.714541 80.565685 958.714541 79.239669 
C 958.714541 77.913654 958.187709 76.64177 957.250075 75.704136 
C 956.31244 74.766501 955.040556 74.239669 953.714541 74.239669 
C 952.388525 74.239669 951.116642 74.766501 950.179007 75.704136 
C 949.241373 76.64177 948.714541 77.913654 948.714541 79.239669 
C 948.714541 80.565685 949.241373 81.837569 950.179007 82.775203 
C 951.116642 83.712838 952.388525 84.239669 953.714541 84.239669 
z
" clip-path="url(#pff0b8c4914)" style="stroke: #000000; stroke-width: 0.4"/>
    <path d="M 977.355372 109.353716 
C 978.293006 109.353716 979.192364 108.98119 979.855372 108.318182 
C 980.51838 107.655174 980.890906 106.755816 980.890906 105.818182 
C 980.890906 104.880547 980.51838 103.98119 979.855372 103.318182 
C 979.192364 102.655174 978.293006 102.282648 977.355372 102.282648 
C 976.417737 102.282648 975.51838 102.655174 974.855372 103.318182 
C 974.192364 103.98119 973.819838 104.880547 973.819838 105.818182 
C 973.819838 106.755816 974.192364 107.655174 974.855372 108.318182 
C 975.51838 108.98119 976.417737 109.353716 977.355372 109.353716 
z
" clip-path="url(#pff0b8c4914)" style="fill: #808080; stroke: #000000; stroke-width: 0.4"/>
    <path d="M 173.567121 84.239669 
C 174.893136 84.239669 176.16502 83.712838 177.102655 82.775203 
C 178.040289 81.837569 178.567121 80.565685 178.567121 79.239669 
C 178.567121 77.913654 178.040289 76.64177 177.102655 75.704136 
C 176.16502 74.766501 174.893136 74.239669 173.567121 74.239669 
C 172.241105 74.239669 170.969221 74.766501 170.031587 75.704136 
C 169.093952 76.64177 168.567121 77.913654 168.567121 79.239669 
C 168.567121 80.565685 169.093952 81.837569 170.031587 82.775203 
C 170.969221 83.712838 172.241105 84.239669 173.567121 84.239669 
z
" clip-path="url(#pff0b8c4914)" style="stroke: #000000; stroke-width: 0.4"/>
    <path d="M 149.92629 109.353716 
C 150.863924 109.353716 151.763282 108.98119 152.42629 108.318182 
C 153.089298 107.655174 153.461824 106.755816 153.461824 105.818182 
C 153.461824 104.880547 153.089298 103.98119 152.42629 103.318182 
C 151.763282 102.655174 150.863924 102.282648 149.92629 102.282648 
C 148.988655 102.282648 148.089298 102.655174 147.42629 103.318182 
C 146.763282 103.98119 146.390756 104.880547 146.390756 105.818182 
C 146.390756 106.755816 146.763282 107.655174 147.42629 108.318182 
C 148.089298 108.98119 148.988655 109.353716 149.92629 109.353716 
z
" clip-path="url(#pff0b8c4914)" style="fill: #808080; stroke: #000000; stroke-width: 0.4"/>
    <path d="M 126.285459 57.661157 
C 127.611475 57.661157 128.883358 57.134325 129.820993 56.196691 
C 130.758627 55.259056 131.285459 53.987173 131.285459 52.661157 
C 131.285459 51.335142 130.758627 50.063258 129.820993 49.125623 
C 128.883358 48.187989 127.611475 47.661157 126.285459 47.661157 
C 124.959444 47.661157 123.68756 48.187989 122.749925 49.125623 
C 121.812291 50.063258 121.285459 51.335142 121.285459 52.661157 
C 121.285459 53.987173 121.812291 55.259056 122.749925 56.196691 
C 123.68756 57.134325 124.959444 57.661157 126.285459 57.661157 
z
" clip-path="url(#pff0b8c4914)" style="stroke: #000000; stroke-width: 0.4"/>
    <path d="M 102.644628 82.775203 
C 103.582263 82.775203 104.48162 82.402677 105.144628 81.739669 
C 105.807636 81.076662 106.180162 80.177304 106.180162 79.239669 
C 106.180162 78.302035 105.807636 77.402677 105.144628 76.739669 
C 104.48162 76.076662 103.582263 75.704136 102.644628 75.704136 
C 101.706994 75.704136 100.807636 76.076662 100.144628 76.739669 
C 99.48162 77.402677 99.109094 78.302035 99.109094 79.239669 
C 99.109094 80.177304 99.48162 81.076662 100.144628 81.739669 
C 100.807636 82.402677 101.706994 82.775203 102.644628 82.775203 
z
" clip-path="url(#pff0b8c4914)" style="fill: #808080; stroke: #000000; stroke-width: 0.4"/>
   </g>
   <g id="line2d_1">
    <path d="M 823.689971 493.2 
L 823.689971 10.8 
" clip-path="url(#pff0b8c4914)" style="fill: none; stroke: #ff0000; stroke-width: 1.5; stroke-linecap: square"/>
   </g>
   <g id="patch_3">
    <path d="M 10.8 493.2 
L 10.8 10.8 
" style="fill: none; stroke: #000000; stroke-width: 0.8; stroke-linejoin: miter; stroke-linecap: square"/>
   </g>
   <g id="patch_4">
    <path d="M 1069.2 493.2 
L 1069.2 10.8 
" style="fill: none; stroke: #000000; stroke-width: 0.8; stroke-linejoin: miter; stroke-linecap: square"/>
   </g>
   <g id="patch_5">
    <path d="M 10.8 493.2 
L 1069.2 493.2 
" style="fill: none; stroke: #000000; stroke-width: 0.8; stroke-linejoin: miter; stroke-linecap: square"/>
   </g>
   <g id="patch_6">
    <path d="M 10.8 10.8 
L 1069.2 10.8 
" style="fill: none; stroke: #000000; stroke-width: 0.8; stroke-linejoin: miter; stroke-linecap: square"/>
   </g>
   <g id="text_1">
    <!-- LO -->
    <g transform="translate(609.102077 340.024793)scale(0.12 -0.12)">
     <defs>
      <path id="DejaVuSans-4c" d="M 628 4666 
L 1259 4666 
L 1259 531 
L 3531 531 
L 3531 0 
L 628 0 
L 628 4666 
z
" transform="scale(0.015625)"/>
      <path id="DejaVuSans-4f" d="M 2522 4238 
Q 1834 4238 1429 3725 
Q 1025 3213 1025 2328 
Q 1025 1447 1429 934 
Q 1834 422 2522 422 
Q 3209 422 3611 934 
Q 4013 1447 4013 2328 
Q 4013 3213 3611 3725 
Q 3209 4238 2522 4238 
z
M 2522 4750 
Q 3503 4750 4090 4092 
Q 4678 3434 4678 2328 
Q 4678 1225 4090 567 
Q 3503 -91 2522 -91 
Q 1538 -91 948 565 
Q 359 1222 359 2328 
Q 359 3434 948 4092 
Q 1538 4750 2522 4750 
z
" transform="scale(0.015625)"/>
     </defs>
     <use xlink:href="#DejaVuSans-4c"/>
     <use xlink:href="#DejaVuSans-4f" x="52.087891"/>
    </g>
   </g>
   <g id="text_2">
    <!-- LE -->
    <g transform="translate(791.869556 285.289256)scale(0.12 -0.12)">
     <defs>
      <path id="DejaVuSans-45" d="M 628 4666 
L 3578 4666 
L 3578 4134 
L 1259 4134 
L 1259 2753 
L 3481 2753 
L 3481 2222 
L 1259 2222 
L 1259 531 
L 3634 531 
L 3634 0 
L 628 0 
L 628 4666 
z
" transform="scale(0.015625)"/>
     </defs>
     <use xlink:href="#DejaVuSans-4c"/>
     <use xlink:href="#DejaVuSans-45" x="55.712891"/>
    </g>
   </g>
  </g>
 </g>
 <defs>
  <clipPath id="pff0b8c4914">
   <rect x="10.8" y="10.8" width="1058.4" height="482.4"/>
  </clipPath>
 </defs>
</svg>
