<?xml version="1.0" encoding="utf-8" standalone="no"?>
<!DOCTYPE svg PUBLIC "-//W3C//DTD SVG 1.1//EN"
  "http://www.w3.org/Graphics/SVG/1.1/DTD/svg11.dtd">
<svg xmlns:xlink="http://www.w3.org/1999/xlink" width="1080pt" height="504pt" viewBox="0 0 1080 504" xmlns="http://www.w3.org/2000/svg" version="1.1">
 <metadata>
  <rdf:RDF xmlns:dc="http://purl.org/dc/elements/1.1/" xmlns:cc="http://creativecommons.org/ns#" xmlns:rdf="http://www.w3.org/1999/02/22-rdf-syntax-ns#">
   <cc:Work>
    <dc:type rdf:resource="http://purl.org/dc/dcmitype/StillImage"/>
    <dc:date>2022-04-20T07:34:37.625020</dc:date>
    <dc:format>image/svg+xml</dc:format>
    <dc:creator>
     <cc:Agent>
      <dc:title>Matplotlib v3.5.1, https://matplotlib.org/</dc:title>
     </cc:Agent>
    </dc:creator>
   </cc:Work>
  </rdf:RDF>
 </metadata>
 <defs>
  <style type="text/css">*{stroke-linejoin: round; stroke-linecap: butt}</style>
 </defs>
 <g id="figure_1">
  <g id="patch_1">
   <path d="M 0 504 
L 1080 504 
L 1080 0 
L 0 0 
z
" style="fill: #ffffff"/>
  </g>
  <g id="axes_1">
   <g id="patch_2">
    <path d="M 10.8 493.2 
L 1069.2 493.2 
L 1069.2 10.8 
L 10.8 10.8 
z
" style="fill: #ffffff"/>
   </g>
   <g id="LineCollection_1">
    <path d="M 102.644628 52.661157 
L 113.311832 52.661157 
" clip-path="url(#p36be7865a6)" style="fill: none; stroke: #000000; stroke-width: 0.4"/>
    <path d="M 134.646241 109.615112 
L 123.979036 166.569067 
" clip-path="url(#p36be7865a6)" style="fill: none; stroke: #000000; stroke-width: 0.4"/>
    <path d="M 134.646241 109.615112 
L 145.313445 166.569067 
" clip-path="url(#p36be7865a6)" style="fill: none; stroke: #000000; stroke-width: 0.4"/>
    <path d="M 134.646241 109.615112 
L 155.980649 52.661157 
" clip-path="url(#p36be7865a6)" style="fill: none; stroke: #000000; stroke-width: 0.4"/>
    <path d="M 166.647853 166.569067 
L 177.315057 166.569067 
" clip-path="url(#p36be7865a6)" style="fill: none; stroke: #000000; stroke-width: 0.4"/>
    <path d="M 166.647853 166.569067 
L 187.982262 109.615112 
" clip-path="url(#p36be7865a6)" style="fill: none; stroke: #000000; stroke-width: 0.4"/>
    <path d="M 198.649466 166.569067 
L 209.31667 166.569067 
" clip-path="url(#p36be7865a6)" style="fill: none; stroke: #000000; stroke-width: 0.4"/>
    <path d="M 198.649466 166.569067 
L 187.982262 109.615112 
" clip-path="url(#p36be7865a6)" style="fill: none; stroke: #000000; stroke-width: 0.4"/>
    <path d="M 187.982262 109.615112 
L 219.983874 52.661157 
" clip-path="url(#p36be7865a6)" style="fill: none; stroke: #000000; stroke-width: 0.4"/>
    <path d="M 230.651078 223.523022 
L 241.318283 223.523022 
" clip-path="url(#p36be7865a6)" style="fill: none; stroke: #000000; stroke-width: 0.4"/>
    <path d="M 230.651078 223.523022 
L 251.985487 166.569067 
" clip-path="url(#p36be7865a6)" style="fill: none; stroke: #000000; stroke-width: 0.4"/>
    <path d="M 283.987099 223.523022 
L 294.654304 223.523022 
" clip-path="url(#p36be7865a6)" style="fill: none; stroke: #000000; stroke-width: 0.4"/>
    <path d="M 283.987099 223.523022 
L 273.319895 166.569067 
" clip-path="url(#p36be7865a6)" style="fill: none; stroke: #000000; stroke-width: 0.4"/>
    <path d="M 273.319895 166.569067 
L 262.652691 223.523022 
" clip-path="url(#p36be7865a6)" style="fill: none; stroke: #000000; stroke-width: 0.4"/>
    <path d="M 273.319895 166.569067 
L 251.985487 166.569067 
" clip-path="url(#p36be7865a6)" style="fill: none; stroke: #000000; stroke-width: 0.4"/>
    <path d="M 251.985487 166.569067 
L 305.321508 109.615112 
" clip-path="url(#p36be7865a6)" style="fill: none; stroke: #000000; stroke-width: 0.4"/>
    <path d="M 315.988712 223.523022 
L 326.655916 223.523022 
" clip-path="url(#p36be7865a6)" style="fill: none; stroke: #000000; stroke-width: 0.4"/>
    <path d="M 315.988712 223.523022 
L 337.32312 166.569067 
" clip-path="url(#p36be7865a6)" style="fill: none; stroke: #000000; stroke-width: 0.4"/>
    <path d="M 369.324733 223.523022 
L 379.991937 223.523022 
" clip-path="url(#p36be7865a6)" style="fill: none; stroke: #000000; stroke-width: 0.4"/>
    <path d="M 369.324733 223.523022 
L 358.657529 166.569067 
" clip-path="url(#p36be7865a6)" style="fill: none; stroke: #000000; stroke-width: 0.4"/>
    <path d="M 358.657529 166.569067 
L 347.990325 223.523022 
" clip-path="url(#p36be7865a6)" style="fill: none; stroke: #000000; stroke-width: 0.4"/>
    <path d="M 358.657529 166.569067 
L 337.32312 166.569067 
" clip-path="url(#p36be7865a6)" style="fill: none; stroke: #000000; stroke-width: 0.4"/>
    <path d="M 337.32312 166.569067 
L 390.659141 109.615112 
" clip-path="url(#p36be7865a6)" style="fill: none; stroke: #000000; stroke-width: 0.4"/>
    <path d="M 401.326345 280.476978 
L 411.99355 280.476978 
" clip-path="url(#p36be7865a6)" style="fill: none; stroke: #000000; stroke-width: 0.4"/>
    <path d="M 401.326345 280.476978 
L 422.660754 223.523022 
" clip-path="url(#p36be7865a6)" style="fill: none; stroke: #000000; stroke-width: 0.4"/>
    <path d="M 443.995162 223.523022 
L 433.327958 280.476978 
" clip-path="url(#p36be7865a6)" style="fill: none; stroke: #000000; stroke-width: 0.4"/>
    <path d="M 443.995162 223.523022 
L 454.662366 280.476978 
" clip-path="url(#p36be7865a6)" style="fill: none; stroke: #000000; stroke-width: 0.4"/>
    <path d="M 443.995162 223.523022 
L 422.660754 223.523022 
" clip-path="url(#p36be7865a6)" style="fill: none; stroke: #000000; stroke-width: 0.4"/>
    <path d="M 422.660754 223.523022 
L 465.329571 166.569067 
" clip-path="url(#p36be7865a6)" style="fill: none; stroke: #000000; stroke-width: 0.4"/>
    <path d="M 497.331183 337.430933 
L 507.998387 337.430933 
" clip-path="url(#p36be7865a6)" style="fill: none; stroke: #000000; stroke-width: 0.4"/>
    <path d="M 497.331183 337.430933 
L 518.665592 280.476978 
" clip-path="url(#p36be7865a6)" style="fill: none; stroke: #000000; stroke-width: 0.4"/>
    <path d="M 529.332796 337.430933 
L 540 337.430933 
" clip-path="url(#p36be7865a6)" style="fill: none; stroke: #000000; stroke-width: 0.4"/>
    <path d="M 529.332796 337.430933 
L 518.665592 280.476978 
" clip-path="url(#p36be7865a6)" style="fill: none; stroke: #000000; stroke-width: 0.4"/>
    <path d="M 518.665592 280.476978 
L 486.663979 280.476978 
" clip-path="url(#p36be7865a6)" style="fill: none; stroke: #000000; stroke-width: 0.4"/>
    <path d="M 486.663979 280.476978 
L 475.996775 337.430933 
" clip-path="url(#p36be7865a6)" style="fill: none; stroke: #000000; stroke-width: 0.4"/>
    <path d="M 486.663979 280.476978 
L 550.667204 223.523022 
" clip-path="url(#p36be7865a6)" style="fill: none; stroke: #000000; stroke-width: 0.4"/>
    <path d="M 582.668817 451.338843 
L 593.336021 451.338843 
" clip-path="url(#p36be7865a6)" style="fill: none; stroke: #000000; stroke-width: 0.4"/>
    <path d="M 582.668817 451.338843 
L 572.001613 394.384888 
" clip-path="url(#p36be7865a6)" style="fill: none; stroke: #000000; stroke-width: 0.4"/>
    <path d="M 572.001613 394.384888 
L 561.334408 451.338843 
" clip-path="url(#p36be7865a6)" style="fill: none; stroke: #000000; stroke-width: 0.4"/>
    <path d="M 572.001613 394.384888 
L 604.003225 337.430933 
" clip-path="url(#p36be7865a6)" style="fill: none; stroke: #000000; stroke-width: 0.4"/>
    <path d="M 625.337634 451.338843 
L 636.004838 451.338843 
" clip-path="url(#p36be7865a6)" style="fill: none; stroke: #000000; stroke-width: 0.4"/>
    <path d="M 625.337634 451.338843 
L 614.670429 451.338843 
" clip-path="url(#p36be7865a6)" style="fill: none; stroke: #000000; stroke-width: 0.4"/>
    <path d="M 614.670429 451.338843 
L 646.672042 394.384888 
" clip-path="url(#p36be7865a6)" style="fill: none; stroke: #000000; stroke-width: 0.4"/>
    <path d="M 646.672042 394.384888 
L 657.339246 451.338843 
" clip-path="url(#p36be7865a6)" style="fill: none; stroke: #000000; stroke-width: 0.4"/>
    <path d="M 646.672042 394.384888 
L 604.003225 337.430933 
" clip-path="url(#p36be7865a6)" style="fill: none; stroke: #000000; stroke-width: 0.4"/>
    <path d="M 604.003225 337.430933 
L 668.00645 280.476978 
" clip-path="url(#p36be7865a6)" style="fill: none; stroke: #000000; stroke-width: 0.4"/>
    <path d="M 700.008063 451.338843 
L 710.675267 451.338843 
" clip-path="url(#p36be7865a6)" style="fill: none; stroke: #000000; stroke-width: 0.4"/>
    <path d="M 700.008063 451.338843 
L 721.342471 394.384888 
" clip-path="url(#p36be7865a6)" style="fill: none; stroke: #000000; stroke-width: 0.4"/>
    <path d="M 721.342471 394.384888 
L 732.009675 451.338843 
" clip-path="url(#p36be7865a6)" style="fill: none; stroke: #000000; stroke-width: 0.4"/>
    <path d="M 721.342471 394.384888 
L 689.340859 394.384888 
" clip-path="url(#p36be7865a6)" style="fill: none; stroke: #000000; stroke-width: 0.4"/>
    <path d="M 689.340859 394.384888 
L 678.673655 451.338843 
" clip-path="url(#p36be7865a6)" style="fill: none; stroke: #000000; stroke-width: 0.4"/>
    <path d="M 689.340859 394.384888 
L 742.67688 337.430933 
" clip-path="url(#p36be7865a6)" style="fill: none; stroke: #000000; stroke-width: 0.4"/>
    <path d="M 753.344084 451.338843 
L 764.011288 451.338843 
" clip-path="url(#p36be7865a6)" style="fill: none; stroke: #000000; stroke-width: 0.4"/>
    <path d="M 753.344084 451.338843 
L 774.678492 394.384888 
" clip-path="url(#p36be7865a6)" style="fill: none; stroke: #000000; stroke-width: 0.4"/>
    <path d="M 774.678492 394.384888 
L 785.345696 451.338843 
" clip-path="url(#p36be7865a6)" style="fill: none; stroke: #000000; stroke-width: 0.4"/>
    <path d="M 774.678492 394.384888 
L 796.012901 337.430933 
" clip-path="url(#p36be7865a6)" style="fill: none; stroke: #000000; stroke-width: 0.4"/>
    <path d="M 828.014513 451.338843 
L 838.681717 451.338843 
" clip-path="url(#p36be7865a6)" style="fill: none; stroke: #000000; stroke-width: 0.4"/>
    <path d="M 828.014513 451.338843 
L 817.347309 394.384888 
" clip-path="url(#p36be7865a6)" style="fill: none; stroke: #000000; stroke-width: 0.4"/>
    <path d="M 817.347309 394.384888 
L 806.680105 451.338843 
" clip-path="url(#p36be7865a6)" style="fill: none; stroke: #000000; stroke-width: 0.4"/>
    <path d="M 817.347309 394.384888 
L 796.012901 337.430933 
" clip-path="url(#p36be7865a6)" style="fill: none; stroke: #000000; stroke-width: 0.4"/>
    <path d="M 796.012901 337.430933 
L 742.67688 337.430933 
" clip-path="url(#p36be7865a6)" style="fill: none; stroke: #000000; stroke-width: 0.4"/>
    <path d="M 742.67688 337.430933 
L 849.348922 280.476978 
" clip-path="url(#p36be7865a6)" style="fill: none; stroke: #000000; stroke-width: 0.4"/>
    <path d="M 849.348922 280.476978 
L 860.016126 337.430933 
" clip-path="url(#p36be7865a6)" style="fill: none; stroke: #000000; stroke-width: 0.4"/>
    <path d="M 849.348922 280.476978 
L 668.00645 280.476978 
" clip-path="url(#p36be7865a6)" style="fill: none; stroke: #000000; stroke-width: 0.4"/>
    <path d="M 668.00645 280.476978 
L 870.68333 223.523022 
" clip-path="url(#p36be7865a6)" style="fill: none; stroke: #000000; stroke-width: 0.4"/>
    <path d="M 902.684943 337.430933 
L 913.352147 337.430933 
" clip-path="url(#p36be7865a6)" style="fill: none; stroke: #000000; stroke-width: 0.4"/>
    <path d="M 902.684943 337.430933 
L 892.017738 280.476978 
" clip-path="url(#p36be7865a6)" style="fill: none; stroke: #000000; stroke-width: 0.4"/>
    <path d="M 892.017738 280.476978 
L 881.350534 337.430933 
" clip-path="url(#p36be7865a6)" style="fill: none; stroke: #000000; stroke-width: 0.4"/>
    <path d="M 892.017738 280.476978 
L 870.68333 223.523022 
" clip-path="url(#p36be7865a6)" style="fill: none; stroke: #000000; stroke-width: 0.4"/>
    <path d="M 870.68333 223.523022 
L 550.667204 223.523022 
" clip-path="url(#p36be7865a6)" style="fill: none; stroke: #000000; stroke-width: 0.4"/>
    <path d="M 550.667204 223.523022 
L 465.329571 166.569067 
" clip-path="url(#p36be7865a6)" style="fill: none; stroke: #000000; stroke-width: 0.4"/>
    <path d="M 465.329571 166.569067 
L 390.659141 109.615112 
" clip-path="url(#p36be7865a6)" style="fill: none; stroke: #000000; stroke-width: 0.4"/>
    <path d="M 390.659141 109.615112 
L 305.321508 109.615112 
" clip-path="url(#p36be7865a6)" style="fill: none; stroke: #000000; stroke-width: 0.4"/>
    <path d="M 305.321508 109.615112 
L 219.983874 52.661157 
" clip-path="url(#p36be7865a6)" style="fill: none; stroke: #000000; stroke-width: 0.4"/>
    <path d="M 219.983874 52.661157 
L 155.980649 52.661157 
" clip-path="url(#p36be7865a6)" style="fill: none; stroke: #000000; stroke-width: 0.4"/>
    <path d="M 924.019351 109.615112 
L 934.686555 109.615112 
" clip-path="url(#p36be7865a6)" style="fill: none; stroke: #000000; stroke-width: 0.4"/>
    <path d="M 924.019351 109.615112 
L 945.353759 52.661157 
" clip-path="url(#p36be7865a6)" style="fill: none; stroke: #000000; stroke-width: 0.4"/>
    <path d="M 966.688168 52.661157 
L 956.020964 109.615112 
" clip-path="url(#p36be7865a6)" style="fill: none; stroke: #000000; stroke-width: 0.4"/>
    <path d="M 966.688168 52.661157 
L 977.355372 109.615112 
" clip-path="url(#p36be7865a6)" style="fill: none; stroke: #000000; stroke-width: 0.4"/>
    <path d="M 966.688168 52.661157 
L 945.353759 52.661157 
" clip-path="url(#p36be7865a6)" style="fill: none; stroke: #000000; stroke-width: 0.4"/>
   </g>
   <g id="matplotlib.axis_1">
    <g id="xtick_1"/>
    <g id="xtick_2"/>
    <g id="xtick_3"/>
    <g id="xtick_4"/>
    <g id="xtick_5"/>
   </g>
   <g id="matplotlib.axis_2">
    <g id="ytick_1"/>
    <g id="ytick_2"/>
    <g id="ytick_3"/>
    <g id="ytick_4"/>
    <g id="ytick_5"/>
    <g id="ytick_6"/>
    <g id="ytick_7"/>
    <g id="ytick_8"/>
   </g>
   <g id="PathCollection_1">
    <path d="M 102.644628 56.196691 
C 103.582263 56.196691 104.48162 55.824165 105.144628 55.161157 
C 105.807636 54.498149 106.180162 53.598792 106.180162 52.661157 
C 106.180162 51.723522 105.807636 50.824165 105.144628 50.161157 
C 104.48162 49.498149 103.582263 49.125623 102.644628 49.125623 
C 101.706994 49.125623 100.807636 49.498149 100.144628 50.161157 
C 99.48162 50.824165 99.109094 51.723522 99.109094 52.661157 
C 99.109094 53.598792 99.48162 54.498149 100.144628 55.161157 
C 100.807636 55.824165 101.706994 56.196691 102.644628 56.196691 
z
" clip-path="url(#p36be7865a6)" style="fill: #808080; stroke: #000000; stroke-width: 0.4"/>
    <path d="M 113.311832 56.196691 
C 114.249467 56.196691 115.148825 55.824165 115.811832 55.161157 
C 116.47484 54.498149 116.847366 53.598792 116.847366 52.661157 
C 116.847366 51.723522 116.47484 50.824165 115.811832 50.161157 
C 115.148825 49.498149 114.249467 49.125623 113.311832 49.125623 
C 112.374198 49.125623 111.47484 49.498149 110.811832 50.161157 
C 110.148825 50.824165 109.776298 51.723522 109.776298 52.661157 
C 109.776298 53.598792 110.148825 54.498149 110.811832 55.161157 
C 111.47484 55.824165 112.374198 56.196691 113.311832 56.196691 
z
" clip-path="url(#p36be7865a6)" style="fill: #808080; stroke: #000000; stroke-width: 0.4"/>
    <path d="M 134.646241 113.150646 
C 135.583875 113.150646 136.483233 112.77812 137.146241 112.115112 
C 137.809248 111.452104 138.181775 110.552747 138.181775 109.615112 
C 138.181775 108.677478 137.809248 107.77812 137.146241 107.115112 
C 136.483233 106.452104 135.583875 106.079578 134.646241 106.079578 
C 133.708606 106.079578 132.809248 106.452104 132.146241 107.115112 
C 131.483233 107.77812 131.110707 108.677478 131.110707 109.615112 
C 131.110707 110.552747 131.483233 111.452104 132.146241 112.115112 
C 132.809248 112.77812 133.708606 113.150646 134.646241 113.150646 
z
" clip-path="url(#p36be7865a6)" style="fill: #808080; stroke: #000000; stroke-width: 0.4"/>
    <path d="M 123.979036 170.104601 
C 124.916671 170.104601 125.816029 169.732075 126.479036 169.069067 
C 127.142044 168.40606 127.51457 167.506702 127.51457 166.569067 
C 127.51457 165.631433 127.142044 164.732075 126.479036 164.069067 
C 125.816029 163.40606 124.916671 163.033533 123.979036 163.033533 
C 123.041402 163.033533 122.142044 163.40606 121.479036 164.069067 
C 120.816029 164.732075 120.443503 165.631433 120.443503 166.569067 
C 120.443503 167.506702 120.816029 168.40606 121.479036 169.069067 
C 122.142044 169.732075 123.041402 170.104601 123.979036 170.104601 
z
" clip-path="url(#p36be7865a6)" style="fill: #808080; stroke: #000000; stroke-width: 0.4"/>
    <path d="M 145.313445 170.104601 
C 146.251079 170.104601 147.150437 169.732075 147.813445 169.069067 
C 148.476453 168.40606 148.848979 167.506702 148.848979 166.569067 
C 148.848979 165.631433 148.476453 164.732075 147.813445 164.069067 
C 147.150437 163.40606 146.251079 163.033533 145.313445 163.033533 
C 144.37581 163.033533 143.476453 163.40606 142.813445 164.069067 
C 142.150437 164.732075 141.777911 165.631433 141.777911 166.569067 
C 141.777911 167.506702 142.150437 168.40606 142.813445 169.069067 
C 143.476453 169.732075 144.37581 170.104601 145.313445 170.104601 
z
" clip-path="url(#p36be7865a6)" style="fill: #808080; stroke: #000000; stroke-width: 0.4"/>
    <path d="M 166.647853 170.104601 
C 167.585488 170.104601 168.484846 169.732075 169.147853 169.069067 
C 169.810861 168.40606 170.183387 167.506702 170.183387 166.569067 
C 170.183387 165.631433 169.810861 164.732075 169.147853 164.069067 
C 168.484846 163.40606 167.585488 163.033533 166.647853 163.033533 
C 165.710219 163.033533 164.810861 163.40606 164.147853 164.069067 
C 163.484846 164.732075 163.112319 165.631433 163.112319 166.569067 
C 163.112319 167.506702 163.484846 168.40606 164.147853 169.069067 
C 164.810861 169.732075 165.710219 170.104601 166.647853 170.104601 
z
" clip-path="url(#p36be7865a6)" style="fill: #808080; stroke: #000000; stroke-width: 0.4"/>
    <path d="M 177.315057 170.104601 
C 178.252692 170.104601 179.15205 169.732075 179.815057 169.069067 
C 180.478065 168.40606 180.850591 167.506702 180.850591 166.569067 
C 180.850591 165.631433 180.478065 164.732075 179.815057 164.069067 
C 179.15205 163.40606 178.252692 163.033533 177.315057 163.033533 
C 176.377423 163.033533 175.478065 163.40606 174.815057 164.069067 
C 174.15205 164.732075 173.779524 165.631433 173.779524 166.569067 
C 173.779524 167.506702 174.15205 168.40606 174.815057 169.069067 
C 175.478065 169.732075 176.377423 170.104601 177.315057 170.104601 
z
" clip-path="url(#p36be7865a6)" style="fill: #808080; stroke: #000000; stroke-width: 0.4"/>
    <path d="M 198.649466 170.104601 
C 199.5871 170.104601 200.486458 169.732075 201.149466 169.069067 
C 201.812474 168.40606 202.185 167.506702 202.185 166.569067 
C 202.185 165.631433 201.812474 164.732075 201.149466 164.069067 
C 200.486458 163.40606 199.5871 163.033533 198.649466 163.033533 
C 197.711831 163.033533 196.812474 163.40606 196.149466 164.069067 
C 195.486458 164.732075 195.113932 165.631433 195.113932 166.569067 
C 195.113932 167.506702 195.486458 168.40606 196.149466 169.069067 
C 196.812474 169.732075 197.711831 170.104601 198.649466 170.104601 
z
" clip-path="url(#p36be7865a6)" style="fill: #808080; stroke: #000000; stroke-width: 0.4"/>
    <path d="M 209.31667 170.104601 
C 210.254305 170.104601 211.153662 169.732075 211.81667 169.069067 
C 212.479678 168.40606 212.852204 167.506702 212.852204 166.569067 
C 212.852204 165.631433 212.479678 164.732075 211.81667 164.069067 
C 211.153662 163.40606 210.254305 163.033533 209.31667 163.033533 
C 208.379035 163.033533 207.479678 163.40606 206.81667 164.069067 
C 206.153662 164.732075 205.781136 165.631433 205.781136 166.569067 
C 205.781136 167.506702 206.153662 168.40606 206.81667 169.069067 
C 207.479678 169.732075 208.379035 170.104601 209.31667 170.104601 
z
" clip-path="url(#p36be7865a6)" style="fill: #808080; stroke: #000000; stroke-width: 0.4"/>
    <path d="M 187.982262 113.150646 
C 188.919896 113.150646 189.819254 112.77812 190.482262 112.115112 
C 191.145269 111.452104 191.517796 110.552747 191.517796 109.615112 
C 191.517796 108.677478 191.145269 107.77812 190.482262 107.115112 
C 189.819254 106.452104 188.919896 106.079578 187.982262 106.079578 
C 187.044627 106.079578 186.145269 106.452104 185.482262 107.115112 
C 184.819254 107.77812 184.446728 108.677478 184.446728 109.615112 
C 184.446728 110.552747 184.819254 111.452104 185.482262 112.115112 
C 186.145269 112.77812 187.044627 113.150646 187.982262 113.150646 
z
" clip-path="url(#p36be7865a6)" style="fill: #808080; stroke: #000000; stroke-width: 0.4"/>
    <path d="M 230.651078 227.058556 
C 231.588713 227.058556 232.488071 226.68603 233.151078 226.023022 
C 233.814086 225.360015 234.186612 224.460657 234.186612 223.523022 
C 234.186612 222.585388 233.814086 221.68603 233.151078 221.023022 
C 232.488071 220.360015 231.588713 219.987489 230.651078 219.987489 
C 229.713444 219.987489 228.814086 220.360015 228.151078 221.023022 
C 227.488071 221.68603 227.115545 222.585388 227.115545 223.523022 
C 227.115545 224.460657 227.488071 225.360015 228.151078 226.023022 
C 228.814086 226.68603 229.713444 227.058556 230.651078 227.058556 
z
" clip-path="url(#p36be7865a6)" style="fill: #808080; stroke: #000000; stroke-width: 0.4"/>
    <path d="M 241.318283 227.058556 
C 242.255917 227.058556 243.155275 226.68603 243.818283 226.023022 
C 244.48129 225.360015 244.853817 224.460657 244.853817 223.523022 
C 244.853817 222.585388 244.48129 221.68603 243.818283 221.023022 
C 243.155275 220.360015 242.255917 219.987489 241.318283 219.987489 
C 240.380648 219.987489 239.48129 220.360015 238.818283 221.023022 
C 238.155275 221.68603 237.782749 222.585388 237.782749 223.523022 
C 237.782749 224.460657 238.155275 225.360015 238.818283 226.023022 
C 239.48129 226.68603 240.380648 227.058556 241.318283 227.058556 
z
" clip-path="url(#p36be7865a6)" style="fill: #808080; stroke: #000000; stroke-width: 0.4"/>
    <path d="M 283.987099 227.058556 
C 284.924734 227.058556 285.824092 226.68603 286.487099 226.023022 
C 287.150107 225.360015 287.522633 224.460657 287.522633 223.523022 
C 287.522633 222.585388 287.150107 221.68603 286.487099 221.023022 
C 285.824092 220.360015 284.924734 219.987489 283.987099 219.987489 
C 283.049465 219.987489 282.150107 220.360015 281.487099 221.023022 
C 280.824092 221.68603 280.451565 222.585388 280.451565 223.523022 
C 280.451565 224.460657 280.824092 225.360015 281.487099 226.023022 
C 282.150107 226.68603 283.049465 227.058556 283.987099 227.058556 
z
" clip-path="url(#p36be7865a6)" style="fill: #808080; stroke: #000000; stroke-width: 0.4"/>
    <path d="M 294.654304 227.058556 
C 295.591938 227.058556 296.491296 226.68603 297.154304 226.023022 
C 297.817311 225.360015 298.189837 224.460657 298.189837 223.523022 
C 298.189837 222.585388 297.817311 221.68603 297.154304 221.023022 
C 296.491296 220.360015 295.591938 219.987489 294.654304 219.987489 
C 293.716669 219.987489 292.817311 220.360015 292.154304 221.023022 
C 291.491296 221.68603 291.11877 222.585388 291.11877 223.523022 
C 291.11877 224.460657 291.491296 225.360015 292.154304 226.023022 
C 292.817311 226.68603 293.716669 227.058556 294.654304 227.058556 
z
" clip-path="url(#p36be7865a6)" style="fill: #808080; stroke: #000000; stroke-width: 0.4"/>
    <path d="M 273.319895 170.104601 
C 274.25753 170.104601 275.156887 169.732075 275.819895 169.069067 
C 276.482903 168.40606 276.855429 167.506702 276.855429 166.569067 
C 276.855429 165.631433 276.482903 164.732075 275.819895 164.069067 
C 275.156887 163.40606 274.25753 163.033533 273.319895 163.033533 
C 272.382261 163.033533 271.482903 163.40606 270.819895 164.069067 
C 270.156887 164.732075 269.784361 165.631433 269.784361 166.569067 
C 269.784361 167.506702 270.156887 168.40606 270.819895 169.069067 
C 271.482903 169.732075 272.382261 170.104601 273.319895 170.104601 
z
" clip-path="url(#p36be7865a6)" style="fill: #808080; stroke: #000000; stroke-width: 0.4"/>
    <path d="M 262.652691 227.058556 
C 263.590326 227.058556 264.489683 226.68603 265.152691 226.023022 
C 265.815699 225.360015 266.188225 224.460657 266.188225 223.523022 
C 266.188225 222.585388 265.815699 221.68603 265.152691 221.023022 
C 264.489683 220.360015 263.590326 219.987489 262.652691 219.987489 
C 261.715056 219.987489 260.815699 220.360015 260.152691 221.023022 
C 259.489683 221.68603 259.117157 222.585388 259.117157 223.523022 
C 259.117157 224.460657 259.489683 225.360015 260.152691 226.023022 
C 260.815699 226.68603 261.715056 227.058556 262.652691 227.058556 
z
" clip-path="url(#p36be7865a6)" style="fill: #808080; stroke: #000000; stroke-width: 0.4"/>
    <path d="M 251.985487 170.104601 
C 252.923121 170.104601 253.822479 169.732075 254.485487 169.069067 
C 255.148495 168.40606 255.521021 167.506702 255.521021 166.569067 
C 255.521021 165.631433 255.148495 164.732075 254.485487 164.069067 
C 253.822479 163.40606 252.923121 163.033533 251.985487 163.033533 
C 251.047852 163.033533 250.148495 163.40606 249.485487 164.069067 
C 248.822479 164.732075 248.449953 165.631433 248.449953 166.569067 
C 248.449953 167.506702 248.822479 168.40606 249.485487 169.069067 
C 250.148495 169.732075 251.047852 170.104601 251.985487 170.104601 
z
" clip-path="url(#p36be7865a6)" style="fill: #808080; stroke: #000000; stroke-width: 0.4"/>
    <path d="M 315.988712 227.058556 
C 316.926347 227.058556 317.825704 226.68603 318.488712 226.023022 
C 319.15172 225.360015 319.524246 224.460657 319.524246 223.523022 
C 319.524246 222.585388 319.15172 221.68603 318.488712 221.023022 
C 317.825704 220.360015 316.926347 219.987489 315.988712 219.987489 
C 315.051077 219.987489 314.15172 220.360015 313.488712 221.023022 
C 312.825704 221.68603 312.453178 222.585388 312.453178 223.523022 
C 312.453178 224.460657 312.825704 225.360015 313.488712 226.023022 
C 314.15172 226.68603 315.051077 227.058556 315.988712 227.058556 
z
" clip-path="url(#p36be7865a6)" style="fill: #808080; stroke: #000000; stroke-width: 0.4"/>
    <path d="M 326.655916 227.058556 
C 327.593551 227.058556 328.492908 226.68603 329.155916 226.023022 
C 329.818924 225.360015 330.19145 224.460657 330.19145 223.523022 
C 330.19145 222.585388 329.818924 221.68603 329.155916 221.023022 
C 328.492908 220.360015 327.593551 219.987489 326.655916 219.987489 
C 325.718282 219.987489 324.818924 220.360015 324.155916 221.023022 
C 323.492908 221.68603 323.120382 222.585388 323.120382 223.523022 
C 323.120382 224.460657 323.492908 225.360015 324.155916 226.023022 
C 324.818924 226.68603 325.718282 227.058556 326.655916 227.058556 
z
" clip-path="url(#p36be7865a6)" style="fill: #808080; stroke: #000000; stroke-width: 0.4"/>
    <path d="M 369.324733 227.058556 
C 370.262367 227.058556 371.161725 226.68603 371.824733 226.023022 
C 372.487741 225.360015 372.860267 224.460657 372.860267 223.523022 
C 372.860267 222.585388 372.487741 221.68603 371.824733 221.023022 
C 371.161725 220.360015 370.262367 219.987489 369.324733 219.987489 
C 368.387098 219.987489 367.487741 220.360015 366.824733 221.023022 
C 366.161725 221.68603 365.789199 222.585388 365.789199 223.523022 
C 365.789199 224.460657 366.161725 225.360015 366.824733 226.023022 
C 367.487741 226.68603 368.387098 227.058556 369.324733 227.058556 
z
" clip-path="url(#p36be7865a6)" style="fill: #808080; stroke: #000000; stroke-width: 0.4"/>
    <path d="M 379.991937 227.058556 
C 380.929572 227.058556 381.828929 226.68603 382.491937 226.023022 
C 383.154945 225.360015 383.527471 224.460657 383.527471 223.523022 
C 383.527471 222.585388 383.154945 221.68603 382.491937 221.023022 
C 381.828929 220.360015 380.929572 219.987489 379.991937 219.987489 
C 379.054303 219.987489 378.154945 220.360015 377.491937 221.023022 
C 376.828929 221.68603 376.456403 222.585388 376.456403 223.523022 
C 376.456403 224.460657 376.828929 225.360015 377.491937 226.023022 
C 378.154945 226.68603 379.054303 227.058556 379.991937 227.058556 
z
" clip-path="url(#p36be7865a6)" style="fill: #808080; stroke: #000000; stroke-width: 0.4"/>
    <path d="M 358.657529 170.104601 
C 359.595163 170.104601 360.494521 169.732075 361.157529 169.069067 
C 361.820536 168.40606 362.193063 167.506702 362.193063 166.569067 
C 362.193063 165.631433 361.820536 164.732075 361.157529 164.069067 
C 360.494521 163.40606 359.595163 163.033533 358.657529 163.033533 
C 357.719894 163.033533 356.820536 163.40606 356.157529 164.069067 
C 355.494521 164.732075 355.121995 165.631433 355.121995 166.569067 
C 355.121995 167.506702 355.494521 168.40606 356.157529 169.069067 
C 356.820536 169.732075 357.719894 170.104601 358.657529 170.104601 
z
" clip-path="url(#p36be7865a6)" style="fill: #808080; stroke: #000000; stroke-width: 0.4"/>
    <path d="M 347.990325 227.058556 
C 348.927959 227.058556 349.827317 226.68603 350.490325 226.023022 
C 351.153332 225.360015 351.525858 224.460657 351.525858 223.523022 
C 351.525858 222.585388 351.153332 221.68603 350.490325 221.023022 
C 349.827317 220.360015 348.927959 219.987489 347.990325 219.987489 
C 347.05269 219.987489 346.153332 220.360015 345.490325 221.023022 
C 344.827317 221.68603 344.454791 222.585388 344.454791 223.523022 
C 344.454791 224.460657 344.827317 225.360015 345.490325 226.023022 
C 346.153332 226.68603 347.05269 227.058556 347.990325 227.058556 
z
" clip-path="url(#p36be7865a6)" style="fill: #808080; stroke: #000000; stroke-width: 0.4"/>
    <path d="M 337.32312 170.104601 
C 338.260755 170.104601 339.160113 169.732075 339.82312 169.069067 
C 340.486128 168.40606 340.858654 167.506702 340.858654 166.569067 
C 340.858654 165.631433 340.486128 164.732075 339.82312 164.069067 
C 339.160113 163.40606 338.260755 163.033533 337.32312 163.033533 
C 336.385486 163.033533 335.486128 163.40606 334.82312 164.069067 
C 334.160113 164.732075 333.787586 165.631433 333.787586 166.569067 
C 333.787586 167.506702 334.160113 168.40606 334.82312 169.069067 
C 335.486128 169.732075 336.385486 170.104601 337.32312 170.104601 
z
" clip-path="url(#p36be7865a6)" style="fill: #808080; stroke: #000000; stroke-width: 0.4"/>
    <path d="M 401.326345 284.012511 
C 402.26398 284.012511 403.163338 283.639985 403.826345 282.976978 
C 404.489353 282.31397 404.861879 281.414612 404.861879 280.476978 
C 404.861879 279.539343 404.489353 278.639985 403.826345 277.976978 
C 403.163338 277.31397 402.26398 276.941444 401.326345 276.941444 
C 400.388711 276.941444 399.489353 277.31397 398.826345 277.976978 
C 398.163338 278.639985 397.790812 279.539343 397.790812 280.476978 
C 397.790812 281.414612 398.163338 282.31397 398.826345 282.976978 
C 399.489353 283.639985 400.388711 284.012511 401.326345 284.012511 
z
" clip-path="url(#p36be7865a6)" style="fill: #808080; stroke: #000000; stroke-width: 0.4"/>
    <path d="M 411.99355 284.012511 
C 412.931184 284.012511 413.830542 283.639985 414.49355 282.976978 
C 415.156557 282.31397 415.529084 281.414612 415.529084 280.476978 
C 415.529084 279.539343 415.156557 278.639985 414.49355 277.976978 
C 413.830542 277.31397 412.931184 276.941444 411.99355 276.941444 
C 411.055915 276.941444 410.156557 277.31397 409.49355 277.976978 
C 408.830542 278.639985 408.458016 279.539343 408.458016 280.476978 
C 408.458016 281.414612 408.830542 282.31397 409.49355 282.976978 
C 410.156557 283.639985 411.055915 284.012511 411.99355 284.012511 
z
" clip-path="url(#p36be7865a6)" style="fill: #808080; stroke: #000000; stroke-width: 0.4"/>
    <path d="M 443.995162 227.058556 
C 444.932797 227.058556 445.832155 226.68603 446.495162 226.023022 
C 447.15817 225.360015 447.530696 224.460657 447.530696 223.523022 
C 447.530696 222.585388 447.15817 221.68603 446.495162 221.023022 
C 445.832155 220.360015 444.932797 219.987489 443.995162 219.987489 
C 443.057528 219.987489 442.15817 220.360015 441.495162 221.023022 
C 440.832155 221.68603 440.459628 222.585388 440.459628 223.523022 
C 440.459628 224.460657 440.832155 225.360015 441.495162 226.023022 
C 442.15817 226.68603 443.057528 227.058556 443.995162 227.058556 
z
" clip-path="url(#p36be7865a6)" style="fill: #808080; stroke: #000000; stroke-width: 0.4"/>
    <path d="M 433.327958 284.012511 
C 434.265593 284.012511 435.16495 283.639985 435.827958 282.976978 
C 436.490966 282.31397 436.863492 281.414612 436.863492 280.476978 
C 436.863492 279.539343 436.490966 278.639985 435.827958 277.976978 
C 435.16495 277.31397 434.265593 276.941444 433.327958 276.941444 
C 432.390324 276.941444 431.490966 277.31397 430.827958 277.976978 
C 430.16495 278.639985 429.792424 279.539343 429.792424 280.476978 
C 429.792424 281.414612 430.16495 282.31397 430.827958 282.976978 
C 431.490966 283.639985 432.390324 284.012511 433.327958 284.012511 
z
" clip-path="url(#p36be7865a6)" style="fill: #808080; stroke: #000000; stroke-width: 0.4"/>
    <path d="M 454.662366 284.012511 
C 455.600001 284.012511 456.499359 283.639985 457.162366 282.976978 
C 457.825374 282.31397 458.1979 281.414612 458.1979 280.476978 
C 458.1979 279.539343 457.825374 278.639985 457.162366 277.976978 
C 456.499359 277.31397 455.600001 276.941444 454.662366 276.941444 
C 453.724732 276.941444 452.825374 277.31397 452.162366 277.976978 
C 451.499359 278.639985 451.126833 279.539343 451.126833 280.476978 
C 451.126833 281.414612 451.499359 282.31397 452.162366 282.976978 
C 452.825374 283.639985 453.724732 284.012511 454.662366 284.012511 
z
" clip-path="url(#p36be7865a6)" style="fill: #808080; stroke: #000000; stroke-width: 0.4"/>
    <path d="M 422.660754 227.058556 
C 423.598388 227.058556 424.497746 226.68603 425.160754 226.023022 
C 425.823762 225.360015 426.196288 224.460657 426.196288 223.523022 
C 426.196288 222.585388 425.823762 221.68603 425.160754 221.023022 
C 424.497746 220.360015 423.598388 219.987489 422.660754 219.987489 
C 421.723119 219.987489 420.823762 220.360015 420.160754 221.023022 
C 419.497746 221.68603 419.12522 222.585388 419.12522 223.523022 
C 419.12522 224.460657 419.497746 225.360015 420.160754 226.023022 
C 420.823762 226.68603 421.723119 227.058556 422.660754 227.058556 
z
" clip-path="url(#p36be7865a6)" style="fill: #808080; stroke: #000000; stroke-width: 0.4"/>
    <path d="M 497.331183 340.966467 
C 498.268818 340.966467 499.168175 340.59394 499.831183 339.930933 
C 500.494191 339.267925 500.866717 338.368567 500.866717 337.430933 
C 500.866717 336.493298 500.494191 335.59394 499.831183 334.930933 
C 499.168175 334.267925 498.268818 333.895399 497.331183 333.895399 
C 496.393549 333.895399 495.494191 334.267925 494.831183 334.930933 
C 494.168175 335.59394 493.795649 336.493298 493.795649 337.430933 
C 493.795649 338.368567 494.168175 339.267925 494.831183 339.930933 
C 495.494191 340.59394 496.393549 340.966467 497.331183 340.966467 
z
" clip-path="url(#p36be7865a6)" style="fill: #808080; stroke: #000000; stroke-width: 0.4"/>
    <path d="M 507.998387 340.966467 
C 508.936022 340.966467 509.83538 340.59394 510.498387 339.930933 
C 511.161395 339.267925 511.533921 338.368567 511.533921 337.430933 
C 511.533921 336.493298 511.161395 335.59394 510.498387 334.930933 
C 509.83538 334.267925 508.936022 333.895399 507.998387 333.895399 
C 507.060753 333.895399 506.161395 334.267925 505.498387 334.930933 
C 504.83538 335.59394 504.462854 336.493298 504.462854 337.430933 
C 504.462854 338.368567 504.83538 339.267925 505.498387 339.930933 
C 506.161395 340.59394 507.060753 340.966467 507.998387 340.966467 
z
" clip-path="url(#p36be7865a6)" style="fill: #808080; stroke: #000000; stroke-width: 0.4"/>
    <path d="M 529.332796 340.966467 
C 530.27043 340.966467 531.169788 340.59394 531.832796 339.930933 
C 532.495804 339.267925 532.86833 338.368567 532.86833 337.430933 
C 532.86833 336.493298 532.495804 335.59394 531.832796 334.930933 
C 531.169788 334.267925 530.27043 333.895399 529.332796 333.895399 
C 528.395161 333.895399 527.495804 334.267925 526.832796 334.930933 
C 526.169788 335.59394 525.797262 336.493298 525.797262 337.430933 
C 525.797262 338.368567 526.169788 339.267925 526.832796 339.930933 
C 527.495804 340.59394 528.395161 340.966467 529.332796 340.966467 
z
" clip-path="url(#p36be7865a6)" style="fill: #808080; stroke: #000000; stroke-width: 0.4"/>
    <path d="M 540 340.966467 
C 540.937635 340.966467 541.836992 340.59394 542.5 339.930933 
C 543.163008 339.267925 543.535534 338.368567 543.535534 337.430933 
C 543.535534 336.493298 543.163008 335.59394 542.5 334.930933 
C 541.836992 334.267925 540.937635 333.895399 540 333.895399 
C 539.062365 333.895399 538.163008 334.267925 537.5 334.930933 
C 536.836992 335.59394 536.464466 336.493298 536.464466 337.430933 
C 536.464466 338.368567 536.836992 339.267925 537.5 339.930933 
C 538.163008 340.59394 539.062365 340.966467 540 340.966467 
z
" clip-path="url(#p36be7865a6)" style="fill: #808080; stroke: #000000; stroke-width: 0.4"/>
    <path d="M 518.665592 284.012511 
C 519.603226 284.012511 520.502584 283.639985 521.165592 282.976978 
C 521.828599 282.31397 522.201126 281.414612 522.201126 280.476978 
C 522.201126 279.539343 521.828599 278.639985 521.165592 277.976978 
C 520.502584 277.31397 519.603226 276.941444 518.665592 276.941444 
C 517.727957 276.941444 516.828599 277.31397 516.165592 277.976978 
C 515.502584 278.639985 515.130058 279.539343 515.130058 280.476978 
C 515.130058 281.414612 515.502584 282.31397 516.165592 282.976978 
C 516.828599 283.639985 517.727957 284.012511 518.665592 284.012511 
z
" clip-path="url(#p36be7865a6)" style="fill: #808080; stroke: #000000; stroke-width: 0.4"/>
    <path d="M 486.663979 284.012511 
C 487.601614 284.012511 488.500971 283.639985 489.163979 282.976978 
C 489.826987 282.31397 490.199513 281.414612 490.199513 280.476978 
C 490.199513 279.539343 489.826987 278.639985 489.163979 277.976978 
C 488.500971 277.31397 487.601614 276.941444 486.663979 276.941444 
C 485.726344 276.941444 484.826987 277.31397 484.163979 277.976978 
C 483.500971 278.639985 483.128445 279.539343 483.128445 280.476978 
C 483.128445 281.414612 483.500971 282.31397 484.163979 282.976978 
C 484.826987 283.639985 485.726344 284.012511 486.663979 284.012511 
z
" clip-path="url(#p36be7865a6)" style="fill: #808080; stroke: #000000; stroke-width: 0.4"/>
    <path d="M 475.996775 340.966467 
C 476.934409 340.966467 477.833767 340.59394 478.496775 339.930933 
C 479.159783 339.267925 479.532309 338.368567 479.532309 337.430933 
C 479.532309 336.493298 479.159783 335.59394 478.496775 334.930933 
C 477.833767 334.267925 476.934409 333.895399 475.996775 333.895399 
C 475.05914 333.895399 474.159783 334.267925 473.496775 334.930933 
C 472.833767 335.59394 472.461241 336.493298 472.461241 337.430933 
C 472.461241 338.368567 472.833767 339.267925 473.496775 339.930933 
C 474.159783 340.59394 475.05914 340.966467 475.996775 340.966467 
z
" clip-path="url(#p36be7865a6)" style="fill: #808080; stroke: #000000; stroke-width: 0.4"/>
    <path d="M 582.668817 454.874377 
C 583.606451 454.874377 584.505809 454.501851 585.168817 453.838843 
C 585.831825 453.175835 586.204351 452.276478 586.204351 451.338843 
C 586.204351 450.401208 585.831825 449.501851 585.168817 448.838843 
C 584.505809 448.175835 583.606451 447.803309 582.668817 447.803309 
C 581.731182 447.803309 580.831825 448.175835 580.168817 448.838843 
C 579.505809 449.501851 579.133283 450.401208 579.133283 451.338843 
C 579.133283 452.276478 579.505809 453.175835 580.168817 453.838843 
C 580.831825 454.501851 581.731182 454.874377 582.668817 454.874377 
z
" clip-path="url(#p36be7865a6)" style="fill: #808080; stroke: #000000; stroke-width: 0.4"/>
    <path d="M 593.336021 454.874377 
C 594.273656 454.874377 595.173013 454.501851 595.836021 453.838843 
C 596.499029 453.175835 596.871555 452.276478 596.871555 451.338843 
C 596.871555 450.401208 596.499029 449.501851 595.836021 448.838843 
C 595.173013 448.175835 594.273656 447.803309 593.336021 447.803309 
C 592.398386 447.803309 591.499029 448.175835 590.836021 448.838843 
C 590.173013 449.501851 589.800487 450.401208 589.800487 451.338843 
C 589.800487 452.276478 590.173013 453.175835 590.836021 453.838843 
C 591.499029 454.501851 592.398386 454.874377 593.336021 454.874377 
z
" clip-path="url(#p36be7865a6)" style="fill: #808080; stroke: #000000; stroke-width: 0.4"/>
    <path d="M 572.001613 397.920422 
C 572.939247 397.920422 573.838605 397.547896 574.501613 396.884888 
C 575.16462 396.22188 575.537146 395.322522 575.537146 394.384888 
C 575.537146 393.447253 575.16462 392.547896 574.501613 391.884888 
C 573.838605 391.22188 572.939247 390.849354 572.001613 390.849354 
C 571.063978 390.849354 570.16462 391.22188 569.501613 391.884888 
C 568.838605 392.547896 568.466079 393.447253 568.466079 394.384888 
C 568.466079 395.322522 568.838605 396.22188 569.501613 396.884888 
C 570.16462 397.547896 571.063978 397.920422 572.001613 397.920422 
z
" clip-path="url(#p36be7865a6)" style="fill: #808080; stroke: #000000; stroke-width: 0.4"/>
    <path d="M 561.334408 454.874377 
C 562.272043 454.874377 563.171401 454.501851 563.834408 453.838843 
C 564.497416 453.175835 564.869942 452.276478 564.869942 451.338843 
C 564.869942 450.401208 564.497416 449.501851 563.834408 448.838843 
C 563.171401 448.175835 562.272043 447.803309 561.334408 447.803309 
C 560.396774 447.803309 559.497416 448.175835 558.834408 448.838843 
C 558.171401 449.501851 557.798874 450.401208 557.798874 451.338843 
C 557.798874 452.276478 558.171401 453.175835 558.834408 453.838843 
C 559.497416 454.501851 560.396774 454.874377 561.334408 454.874377 
z
" clip-path="url(#p36be7865a6)" style="fill: #808080; stroke: #000000; stroke-width: 0.4"/>
    <path d="M 625.337634 454.874377 
C 626.275268 454.874377 627.174626 454.501851 627.837634 453.838843 
C 628.500641 453.175835 628.873167 452.276478 628.873167 451.338843 
C 628.873167 450.401208 628.500641 449.501851 627.837634 448.838843 
C 627.174626 448.175835 626.275268 447.803309 625.337634 447.803309 
C 624.399999 447.803309 623.500641 448.175835 622.837634 448.838843 
C 622.174626 449.501851 621.8021 450.401208 621.8021 451.338843 
C 621.8021 452.276478 622.174626 453.175835 622.837634 453.838843 
C 623.500641 454.501851 624.399999 454.874377 625.337634 454.874377 
z
" clip-path="url(#p36be7865a6)" style="fill: #808080; stroke: #000000; stroke-width: 0.4"/>
    <path d="M 636.004838 454.874377 
C 636.942472 454.874377 637.84183 454.501851 638.504838 453.838843 
C 639.167845 453.175835 639.540372 452.276478 639.540372 451.338843 
C 639.540372 450.401208 639.167845 449.501851 638.504838 448.838843 
C 637.84183 448.175835 636.942472 447.803309 636.004838 447.803309 
C 635.067203 447.803309 634.167845 448.175835 633.504838 448.838843 
C 632.84183 449.501851 632.469304 450.401208 632.469304 451.338843 
C 632.469304 452.276478 632.84183 453.175835 633.504838 453.838843 
C 634.167845 454.501851 635.067203 454.874377 636.004838 454.874377 
z
" clip-path="url(#p36be7865a6)" style="fill: #808080; stroke: #000000; stroke-width: 0.4"/>
    <path d="M 614.670429 454.874377 
C 615.608064 454.874377 616.507422 454.501851 617.170429 453.838843 
C 617.833437 453.175835 618.205963 452.276478 618.205963 451.338843 
C 618.205963 450.401208 617.833437 449.501851 617.170429 448.838843 
C 616.507422 448.175835 615.608064 447.803309 614.670429 447.803309 
C 613.732795 447.803309 612.833437 448.175835 612.170429 448.838843 
C 611.507422 449.501851 611.134895 450.401208 611.134895 451.338843 
C 611.134895 452.276478 611.507422 453.175835 612.170429 453.838843 
C 612.833437 454.501851 613.732795 454.874377 614.670429 454.874377 
z
" clip-path="url(#p36be7865a6)" style="fill: #808080; stroke: #000000; stroke-width: 0.4"/>
    <path d="M 646.672042 397.920422 
C 647.609676 397.920422 648.509034 397.547896 649.172042 396.884888 
C 649.83505 396.22188 650.207576 395.322522 650.207576 394.384888 
C 650.207576 393.447253 649.83505 392.547896 649.172042 391.884888 
C 648.509034 391.22188 647.609676 390.849354 646.672042 390.849354 
C 645.734407 390.849354 644.83505 391.22188 644.172042 391.884888 
C 643.509034 392.547896 643.136508 393.447253 643.136508 394.384888 
C 643.136508 395.322522 643.509034 396.22188 644.172042 396.884888 
C 644.83505 397.547896 645.734407 397.920422 646.672042 397.920422 
z
" clip-path="url(#p36be7865a6)" style="fill: #808080; stroke: #000000; stroke-width: 0.4"/>
    <path d="M 657.339246 454.874377 
C 658.276881 454.874377 659.176238 454.501851 659.839246 453.838843 
C 660.502254 453.175835 660.87478 452.276478 660.87478 451.338843 
C 660.87478 450.401208 660.502254 449.501851 659.839246 448.838843 
C 659.176238 448.175835 658.276881 447.803309 657.339246 447.803309 
C 656.401612 447.803309 655.502254 448.175835 654.839246 448.838843 
C 654.176238 449.501851 653.803712 450.401208 653.803712 451.338843 
C 653.803712 452.276478 654.176238 453.175835 654.839246 453.838843 
C 655.502254 454.501851 656.401612 454.874377 657.339246 454.874377 
z
" clip-path="url(#p36be7865a6)" style="fill: #808080; stroke: #000000; stroke-width: 0.4"/>
    <path d="M 604.003225 342.430933 
C 605.329241 342.430933 606.601125 341.904101 607.538759 340.966467 
C 608.476394 340.028832 609.003225 338.756948 609.003225 337.430933 
C 609.003225 336.104917 608.476394 334.833033 607.538759 333.895399 
C 606.601125 332.957764 605.329241 332.430933 604.003225 332.430933 
C 602.67721 332.430933 601.405326 332.957764 600.467691 333.895399 
C 599.530057 334.833033 599.003225 336.104917 599.003225 337.430933 
C 599.003225 338.756948 599.530057 340.028832 600.467691 340.966467 
C 601.405326 341.904101 602.67721 342.430933 604.003225 342.430933 
z
" clip-path="url(#p36be7865a6)" style="stroke: #000000; stroke-width: 0.4"/>
    <path d="M 700.008063 456.338843 
C 701.334078 456.338843 702.605962 455.812011 703.543597 454.874377 
C 704.481231 453.936742 705.008063 452.664858 705.008063 451.338843 
C 705.008063 450.012827 704.481231 448.740944 703.543597 447.803309 
C 702.605962 446.865675 701.334078 446.338843 700.008063 446.338843 
C 698.682047 446.338843 697.410164 446.865675 696.472529 447.803309 
C 695.534894 448.740944 695.008063 450.012827 695.008063 451.338843 
C 695.008063 452.664858 695.534894 453.936742 696.472529 454.874377 
C 697.410164 455.812011 698.682047 456.338843 700.008063 456.338843 
z
" clip-path="url(#p36be7865a6)" style="stroke: #000000; stroke-width: 0.4"/>
    <path d="M 710.675267 456.338843 
C 712.001283 456.338843 713.273166 455.812011 714.210801 454.874377 
C 715.148436 453.936742 715.675267 452.664858 715.675267 451.338843 
C 715.675267 450.012827 715.148436 448.740944 714.210801 447.803309 
C 713.273166 446.865675 712.001283 446.338843 710.675267 446.338843 
C 709.349252 446.338843 708.077368 446.865675 707.139733 447.803309 
C 706.202099 448.740944 705.675267 450.012827 705.675267 451.338843 
C 705.675267 452.664858 706.202099 453.936742 707.139733 454.874377 
C 708.077368 455.812011 709.349252 456.338843 710.675267 456.338843 
z
" clip-path="url(#p36be7865a6)" style="fill: #ff0000; stroke: #000000; stroke-width: 0.4"/>
    <path d="M 721.342471 399.384888 
C 722.668487 399.384888 723.940371 398.858056 724.878005 397.920422 
C 725.81564 396.982787 726.342471 395.710903 726.342471 394.384888 
C 726.342471 393.058872 725.81564 391.786988 724.878005 390.849354 
C 723.940371 389.911719 722.668487 389.384888 721.342471 389.384888 
C 720.016456 389.384888 718.744572 389.911719 717.806937 390.849354 
C 716.869303 391.786988 716.342471 393.058872 716.342471 394.384888 
C 716.342471 395.710903 716.869303 396.982787 717.806937 397.920422 
C 718.744572 398.858056 720.016456 399.384888 721.342471 399.384888 
z
" clip-path="url(#p36be7865a6)" style="fill: #008000; stroke: #000000; stroke-width: 0.4"/>
    <path d="M 732.009675 454.874377 
C 732.94731 454.874377 733.846668 454.501851 734.509675 453.838843 
C 735.172683 453.175835 735.545209 452.276478 735.545209 451.338843 
C 735.545209 450.401208 735.172683 449.501851 734.509675 448.838843 
C 733.846668 448.175835 732.94731 447.803309 732.009675 447.803309 
C 731.072041 447.803309 730.172683 448.175835 729.509675 448.838843 
C 728.846668 449.501851 728.474142 450.401208 728.474142 451.338843 
C 728.474142 452.276478 728.846668 453.175835 729.509675 453.838843 
C 730.172683 454.501851 731.072041 454.874377 732.009675 454.874377 
z
" clip-path="url(#p36be7865a6)" style="fill: #808080; stroke: #000000; stroke-width: 0.4"/>
    <path d="M 689.340859 399.384888 
C 690.666874 399.384888 691.938758 398.858056 692.876393 397.920422 
C 693.814027 396.982787 694.340859 395.710903 694.340859 394.384888 
C 694.340859 393.058872 693.814027 391.786988 692.876393 390.849354 
C 691.938758 389.911719 690.666874 389.384888 689.340859 389.384888 
C 688.014843 389.384888 686.742959 389.911719 685.805325 390.849354 
C 684.86769 391.786988 684.340859 393.058872 684.340859 394.384888 
C 684.340859 395.710903 684.86769 396.982787 685.805325 397.920422 
C 686.742959 398.858056 688.014843 399.384888 689.340859 399.384888 
z
" clip-path="url(#p36be7865a6)" style="stroke: #000000; stroke-width: 0.4"/>
    <path d="M 678.673655 454.874377 
C 679.611289 454.874377 680.510647 454.501851 681.173655 453.838843 
C 681.836662 453.175835 682.209188 452.276478 682.209188 451.338843 
C 682.209188 450.401208 681.836662 449.501851 681.173655 448.838843 
C 680.510647 448.175835 679.611289 447.803309 678.673655 447.803309 
C 677.73602 447.803309 676.836662 448.175835 676.173655 448.838843 
C 675.510647 449.501851 675.138121 450.401208 675.138121 451.338843 
C 675.138121 452.276478 675.510647 453.175835 676.173655 453.838843 
C 676.836662 454.501851 677.73602 454.874377 678.673655 454.874377 
z
" clip-path="url(#p36be7865a6)" style="fill: #808080; stroke: #000000; stroke-width: 0.4"/>
    <path d="M 753.344084 454.874377 
C 754.281718 454.874377 755.181076 454.501851 755.844084 453.838843 
C 756.507092 453.175835 756.879618 452.276478 756.879618 451.338843 
C 756.879618 450.401208 756.507092 449.501851 755.844084 448.838843 
C 755.181076 448.175835 754.281718 447.803309 753.344084 447.803309 
C 752.406449 447.803309 751.507092 448.175835 750.844084 448.838843 
C 750.181076 449.501851 749.80855 450.401208 749.80855 451.338843 
C 749.80855 452.276478 750.181076 453.175835 750.844084 453.838843 
C 751.507092 454.501851 752.406449 454.874377 753.344084 454.874377 
z
" clip-path="url(#p36be7865a6)" style="fill: #808080; stroke: #000000; stroke-width: 0.4"/>
    <path d="M 764.011288 454.874377 
C 764.948923 454.874377 765.84828 454.501851 766.511288 453.838843 
C 767.174296 453.175835 767.546822 452.276478 767.546822 451.338843 
C 767.546822 450.401208 767.174296 449.501851 766.511288 448.838843 
C 765.84828 448.175835 764.948923 447.803309 764.011288 447.803309 
C 763.073653 447.803309 762.174296 448.175835 761.511288 448.838843 
C 760.84828 449.501851 760.475754 450.401208 760.475754 451.338843 
C 760.475754 452.276478 760.84828 453.175835 761.511288 453.838843 
C 762.174296 454.501851 763.073653 454.874377 764.011288 454.874377 
z
" clip-path="url(#p36be7865a6)" style="fill: #808080; stroke: #000000; stroke-width: 0.4"/>
    <path d="M 774.678492 397.920422 
C 775.616127 397.920422 776.515484 397.547896 777.178492 396.884888 
C 777.8415 396.22188 778.214026 395.322522 778.214026 394.384888 
C 778.214026 393.447253 777.8415 392.547896 777.178492 391.884888 
C 776.515484 391.22188 775.616127 390.849354 774.678492 390.849354 
C 773.740858 390.849354 772.8415 391.22188 772.178492 391.884888 
C 771.515484 392.547896 771.142958 393.447253 771.142958 394.384888 
C 771.142958 395.322522 771.515484 396.22188 772.178492 396.884888 
C 772.8415 397.547896 773.740858 397.920422 774.678492 397.920422 
z
" clip-path="url(#p36be7865a6)" style="fill: #808080; stroke: #000000; stroke-width: 0.4"/>
    <path d="M 785.345696 454.874377 
C 786.283331 454.874377 787.182689 454.501851 787.845696 453.838843 
C 788.508704 453.175835 788.88123 452.276478 788.88123 451.338843 
C 788.88123 450.401208 788.508704 449.501851 787.845696 448.838843 
C 787.182689 448.175835 786.283331 447.803309 785.345696 447.803309 
C 784.408062 447.803309 783.508704 448.175835 782.845696 448.838843 
C 782.182689 449.501851 781.810163 450.401208 781.810163 451.338843 
C 781.810163 452.276478 782.182689 453.175835 782.845696 453.838843 
C 783.508704 454.501851 784.408062 454.874377 785.345696 454.874377 
z
" clip-path="url(#p36be7865a6)" style="fill: #808080; stroke: #000000; stroke-width: 0.4"/>
    <path d="M 828.014513 454.874377 
C 828.952148 454.874377 829.851505 454.501851 830.514513 453.838843 
C 831.177521 453.175835 831.550047 452.276478 831.550047 451.338843 
C 831.550047 450.401208 831.177521 449.501851 830.514513 448.838843 
C 829.851505 448.175835 828.952148 447.803309 828.014513 447.803309 
C 827.076879 447.803309 826.177521 448.175835 825.514513 448.838843 
C 824.851505 449.501851 824.478979 450.401208 824.478979 451.338843 
C 824.478979 452.276478 824.851505 453.175835 825.514513 453.838843 
C 826.177521 454.501851 827.076879 454.874377 828.014513 454.874377 
z
" clip-path="url(#p36be7865a6)" style="fill: #808080; stroke: #000000; stroke-width: 0.4"/>
    <path d="M 838.681717 454.874377 
C 839.619352 454.874377 840.51871 454.501851 841.181717 453.838843 
C 841.844725 453.175835 842.217251 452.276478 842.217251 451.338843 
C 842.217251 450.401208 841.844725 449.501851 841.181717 448.838843 
C 840.51871 448.175835 839.619352 447.803309 838.681717 447.803309 
C 837.744083 447.803309 836.844725 448.175835 836.181717 448.838843 
C 835.51871 449.501851 835.146183 450.401208 835.146183 451.338843 
C 835.146183 452.276478 835.51871 453.175835 836.181717 453.838843 
C 836.844725 454.501851 837.744083 454.874377 838.681717 454.874377 
z
" clip-path="url(#p36be7865a6)" style="fill: #808080; stroke: #000000; stroke-width: 0.4"/>
    <path d="M 817.347309 397.920422 
C 818.284944 397.920422 819.184301 397.547896 819.847309 396.884888 
C 820.510317 396.22188 820.882843 395.322522 820.882843 394.384888 
C 820.882843 393.447253 820.510317 392.547896 819.847309 391.884888 
C 819.184301 391.22188 818.284944 390.849354 817.347309 390.849354 
C 816.409674 390.849354 815.510317 391.22188 814.847309 391.884888 
C 814.184301 392.547896 813.811775 393.447253 813.811775 394.384888 
C 813.811775 395.322522 814.184301 396.22188 814.847309 396.884888 
C 815.510317 397.547896 816.409674 397.920422 817.347309 397.920422 
z
" clip-path="url(#p36be7865a6)" style="fill: #808080; stroke: #000000; stroke-width: 0.4"/>
    <path d="M 806.680105 454.874377 
C 807.617739 454.874377 808.517097 454.501851 809.180105 453.838843 
C 809.843113 453.175835 810.215639 452.276478 810.215639 451.338843 
C 810.215639 450.401208 809.843113 449.501851 809.180105 448.838843 
C 808.517097 448.175835 807.617739 447.803309 806.680105 447.803309 
C 805.74247 447.803309 804.843113 448.175835 804.180105 448.838843 
C 803.517097 449.501851 803.144571 450.401208 803.144571 451.338843 
C 803.144571 452.276478 803.517097 453.175835 804.180105 453.838843 
C 804.843113 454.501851 805.74247 454.874377 806.680105 454.874377 
z
" clip-path="url(#p36be7865a6)" style="fill: #808080; stroke: #000000; stroke-width: 0.4"/>
    <path d="M 796.012901 342.430933 
C 797.338916 342.430933 798.6108 341.904101 799.548435 340.966467 
C 800.486069 340.028832 801.012901 338.756948 801.012901 337.430933 
C 801.012901 336.104917 800.486069 334.833033 799.548435 333.895399 
C 798.6108 332.957764 797.338916 332.430933 796.012901 332.430933 
C 794.686885 332.430933 793.415001 332.957764 792.477367 333.895399 
C 791.539732 334.833033 791.012901 336.104917 791.012901 337.430933 
C 791.012901 338.756948 791.539732 340.028832 792.477367 340.966467 
C 793.415001 341.904101 794.686885 342.430933 796.012901 342.430933 
z
" clip-path="url(#p36be7865a6)" style="stroke: #000000; stroke-width: 0.4"/>
    <path d="M 742.67688 342.430933 
C 744.002895 342.430933 745.274779 341.904101 746.212414 340.966467 
C 747.150048 340.028832 747.67688 338.756948 747.67688 337.430933 
C 747.67688 336.104917 747.150048 334.833033 746.212414 333.895399 
C 745.274779 332.957764 744.002895 332.430933 742.67688 332.430933 
C 741.350864 332.430933 740.07898 332.957764 739.141346 333.895399 
C 738.203711 334.833033 737.67688 336.104917 737.67688 337.430933 
C 737.67688 338.756948 738.203711 340.028832 739.141346 340.966467 
C 740.07898 341.904101 741.350864 342.430933 742.67688 342.430933 
z
" clip-path="url(#p36be7865a6)" style="fill: #008000; stroke: #000000; stroke-width: 0.4"/>
    <path d="M 849.348922 285.476978 
C 850.674937 285.476978 851.946821 284.950146 852.884455 284.012511 
C 853.82209 283.074877 854.348922 281.802993 854.348922 280.476978 
C 854.348922 279.150962 853.82209 277.879078 852.884455 276.941444 
C 851.946821 276.003809 850.674937 275.476978 849.348922 275.476978 
C 848.022906 275.476978 846.751022 276.003809 845.813388 276.941444 
C 844.875753 277.879078 844.348922 279.150962 844.348922 280.476978 
C 844.348922 281.802993 844.875753 283.074877 845.813388 284.012511 
C 846.751022 284.950146 848.022906 285.476978 849.348922 285.476978 
z
" clip-path="url(#p36be7865a6)" style="stroke: #000000; stroke-width: 0.4"/>
    <path d="M 860.016126 340.966467 
C 860.95376 340.966467 861.853118 340.59394 862.516126 339.930933 
C 863.179134 339.267925 863.55166 338.368567 863.55166 337.430933 
C 863.55166 336.493298 863.179134 335.59394 862.516126 334.930933 
C 861.853118 334.267925 860.95376 333.895399 860.016126 333.895399 
C 859.078491 333.895399 858.179134 334.267925 857.516126 334.930933 
C 856.853118 335.59394 856.480592 336.493298 856.480592 337.430933 
C 856.480592 338.368567 856.853118 339.267925 857.516126 339.930933 
C 858.179134 340.59394 859.078491 340.966467 860.016126 340.966467 
z
" clip-path="url(#p36be7865a6)" style="fill: #808080; stroke: #000000; stroke-width: 0.4"/>
    <path d="M 668.00645 285.476978 
C 669.332466 285.476978 670.60435 284.950146 671.541984 284.012511 
C 672.479619 283.074877 673.00645 281.802993 673.00645 280.476978 
C 673.00645 279.150962 672.479619 277.879078 671.541984 276.941444 
C 670.60435 276.003809 669.332466 275.476978 668.00645 275.476978 
C 666.680435 275.476978 665.408551 276.003809 664.470916 276.941444 
C 663.533282 277.879078 663.00645 279.150962 663.00645 280.476978 
C 663.00645 281.802993 663.533282 283.074877 664.470916 284.012511 
C 665.408551 284.950146 666.680435 285.476978 668.00645 285.476978 
z
" clip-path="url(#p36be7865a6)" style="fill: #008000; stroke: #000000; stroke-width: 0.4"/>
    <path d="M 902.684943 340.966467 
C 903.622577 340.966467 904.521935 340.59394 905.184943 339.930933 
C 905.84795 339.267925 906.220476 338.368567 906.220476 337.430933 
C 906.220476 336.493298 905.84795 335.59394 905.184943 334.930933 
C 904.521935 334.267925 903.622577 333.895399 902.684943 333.895399 
C 901.747308 333.895399 900.84795 334.267925 900.184943 334.930933 
C 899.521935 335.59394 899.149409 336.493298 899.149409 337.430933 
C 899.149409 338.368567 899.521935 339.267925 900.184943 339.930933 
C 900.84795 340.59394 901.747308 340.966467 902.684943 340.966467 
z
" clip-path="url(#p36be7865a6)" style="fill: #808080; stroke: #000000; stroke-width: 0.4"/>
    <path d="M 913.352147 340.966467 
C 914.289781 340.966467 915.189139 340.59394 915.852147 339.930933 
C 916.515154 339.267925 916.887681 338.368567 916.887681 337.430933 
C 916.887681 336.493298 916.515154 335.59394 915.852147 334.930933 
C 915.189139 334.267925 914.289781 333.895399 913.352147 333.895399 
C 912.414512 333.895399 911.515154 334.267925 910.852147 334.930933 
C 910.189139 335.59394 909.816613 336.493298 909.816613 337.430933 
C 909.816613 338.368567 910.189139 339.267925 910.852147 339.930933 
C 911.515154 340.59394 912.414512 340.966467 913.352147 340.966467 
z
" clip-path="url(#p36be7865a6)" style="fill: #808080; stroke: #000000; stroke-width: 0.4"/>
    <path d="M 892.017738 284.012511 
C 892.955373 284.012511 893.854731 283.639985 894.517738 282.976978 
C 895.180746 282.31397 895.553272 281.414612 895.553272 280.476978 
C 895.553272 279.539343 895.180746 278.639985 894.517738 277.976978 
C 893.854731 277.31397 892.955373 276.941444 892.017738 276.941444 
C 891.080104 276.941444 890.180746 277.31397 889.517738 277.976978 
C 888.854731 278.639985 888.482204 279.539343 888.482204 280.476978 
C 888.482204 281.414612 888.854731 282.31397 889.517738 282.976978 
C 890.180746 283.639985 891.080104 284.012511 892.017738 284.012511 
z
" clip-path="url(#p36be7865a6)" style="fill: #808080; stroke: #000000; stroke-width: 0.4"/>
    <path d="M 881.350534 340.966467 
C 882.288169 340.966467 883.187526 340.59394 883.850534 339.930933 
C 884.513542 339.267925 884.886068 338.368567 884.886068 337.430933 
C 884.886068 336.493298 884.513542 335.59394 883.850534 334.930933 
C 883.187526 334.267925 882.288169 333.895399 881.350534 333.895399 
C 880.4129 333.895399 879.513542 334.267925 878.850534 334.930933 
C 878.187526 335.59394 877.815 336.493298 877.815 337.430933 
C 877.815 338.368567 878.187526 339.267925 878.850534 339.930933 
C 879.513542 340.59394 880.4129 340.966467 881.350534 340.966467 
z
" clip-path="url(#p36be7865a6)" style="fill: #808080; stroke: #000000; stroke-width: 0.4"/>
    <path d="M 870.68333 227.058556 
C 871.620965 227.058556 872.520322 226.68603 873.18333 226.023022 
C 873.846338 225.360015 874.218864 224.460657 874.218864 223.523022 
C 874.218864 222.585388 873.846338 221.68603 873.18333 221.023022 
C 872.520322 220.360015 871.620965 219.987489 870.68333 219.987489 
C 869.745695 219.987489 868.846338 220.360015 868.18333 221.023022 
C 867.520322 221.68603 867.147796 222.585388 867.147796 223.523022 
C 867.147796 224.460657 867.520322 225.360015 868.18333 226.023022 
C 868.846338 226.68603 869.745695 227.058556 870.68333 227.058556 
z
" clip-path="url(#p36be7865a6)" style="fill: #008000; stroke: #000000; stroke-width: 0.4"/>
    <path d="M 550.667204 228.523022 
C 551.99322 228.523022 553.265104 227.996191 554.202738 227.058556 
C 555.140373 226.120922 555.667204 224.849038 555.667204 223.523022 
C 555.667204 222.197007 555.140373 220.925123 554.202738 219.987489 
C 553.265104 219.049854 551.99322 218.523022 550.667204 218.523022 
C 549.341189 218.523022 548.069305 219.049854 547.13167 219.987489 
C 546.194036 220.925123 545.667204 222.197007 545.667204 223.523022 
C 545.667204 224.849038 546.194036 226.120922 547.13167 227.058556 
C 548.069305 227.996191 549.341189 228.523022 550.667204 228.523022 
z
" clip-path="url(#p36be7865a6)" style="stroke: #000000; stroke-width: 0.4"/>
    <path d="M 465.329571 171.569067 
C 466.655586 171.569067 467.92747 171.042236 468.865105 170.104601 
C 469.802739 169.166967 470.329571 167.895083 470.329571 166.569067 
C 470.329571 165.243052 469.802739 163.971168 468.865105 163.033533 
C 467.92747 162.095899 466.655586 161.569067 465.329571 161.569067 
C 464.003555 161.569067 462.731671 162.095899 461.794037 163.033533 
C 460.856402 163.971168 460.329571 165.243052 460.329571 166.569067 
C 460.329571 167.895083 460.856402 169.166967 461.794037 170.104601 
C 462.731671 171.042236 464.003555 171.569067 465.329571 171.569067 
z
" clip-path="url(#p36be7865a6)" style="stroke: #000000; stroke-width: 0.4"/>
    <path d="M 390.659141 114.615112 
C 391.985157 114.615112 393.257041 114.088281 394.194675 113.150646 
C 395.13231 112.213012 395.659141 110.941128 395.659141 109.615112 
C 395.659141 108.289097 395.13231 107.017213 394.194675 106.079578 
C 393.257041 105.141944 391.985157 104.615112 390.659141 104.615112 
C 389.333126 104.615112 388.061242 105.141944 387.123607 106.079578 
C 386.185973 107.017213 385.659141 108.289097 385.659141 109.615112 
C 385.659141 110.941128 386.185973 112.213012 387.123607 113.150646 
C 388.061242 114.088281 389.333126 114.615112 390.659141 114.615112 
z
" clip-path="url(#p36be7865a6)" style="stroke: #000000; stroke-width: 0.4"/>
    <path d="M 305.321508 114.615112 
C 306.647523 114.615112 307.919407 114.088281 308.857042 113.150646 
C 309.794676 112.213012 310.321508 110.941128 310.321508 109.615112 
C 310.321508 108.289097 309.794676 107.017213 308.857042 106.079578 
C 307.919407 105.141944 306.647523 104.615112 305.321508 104.615112 
C 303.995492 104.615112 302.723608 105.141944 301.785974 106.079578 
C 300.848339 107.017213 300.321508 108.289097 300.321508 109.615112 
C 300.321508 110.941128 300.848339 112.213012 301.785974 113.150646 
C 302.723608 114.088281 303.995492 114.615112 305.321508 114.615112 
z
" clip-path="url(#p36be7865a6)" style="stroke: #000000; stroke-width: 0.4"/>
    <path d="M 219.983874 57.661157 
C 221.30989 57.661157 222.581774 57.134325 223.519408 56.196691 
C 224.457043 55.259056 224.983874 53.987173 224.983874 52.661157 
C 224.983874 51.335142 224.457043 50.063258 223.519408 49.125623 
C 222.581774 48.187989 221.30989 47.661157 219.983874 47.661157 
C 218.657859 47.661157 217.385975 48.187989 216.44834 49.125623 
C 215.510706 50.063258 214.983874 51.335142 214.983874 52.661157 
C 214.983874 53.987173 215.510706 55.259056 216.44834 56.196691 
C 217.385975 57.134325 218.657859 57.661157 219.983874 57.661157 
z
" clip-path="url(#p36be7865a6)" style="stroke: #000000; stroke-width: 0.4"/>
    <path d="M 155.980649 57.661157 
C 157.306665 57.661157 158.578548 57.134325 159.516183 56.196691 
C 160.453818 55.259056 160.980649 53.987173 160.980649 52.661157 
C 160.980649 51.335142 160.453818 50.063258 159.516183 49.125623 
C 158.578548 48.187989 157.306665 47.661157 155.980649 47.661157 
C 154.654634 47.661157 153.38275 48.187989 152.445115 49.125623 
C 151.507481 50.063258 150.980649 51.335142 150.980649 52.661157 
C 150.980649 53.987173 151.507481 55.259056 152.445115 56.196691 
C 153.38275 57.134325 154.654634 57.661157 155.980649 57.661157 
z
" clip-path="url(#p36be7865a6)" style="stroke: #000000; stroke-width: 0.4"/>
    <path d="M 924.019351 113.150646 
C 924.956985 113.150646 925.856343 112.77812 926.519351 112.115112 
C 927.182359 111.452104 927.554885 110.552747 927.554885 109.615112 
C 927.554885 108.677478 927.182359 107.77812 926.519351 107.115112 
C 925.856343 106.452104 924.956985 106.079578 924.019351 106.079578 
C 923.081716 106.079578 922.182359 106.452104 921.519351 107.115112 
C 920.856343 107.77812 920.483817 108.677478 920.483817 109.615112 
C 920.483817 110.552747 920.856343 111.452104 921.519351 112.115112 
C 922.182359 112.77812 923.081716 113.150646 924.019351 113.150646 
z
" clip-path="url(#p36be7865a6)" style="fill: #808080; stroke: #000000; stroke-width: 0.4"/>
    <path d="M 934.686555 113.150646 
C 935.62419 113.150646 936.523547 112.77812 937.186555 112.115112 
C 937.849563 111.452104 938.222089 110.552747 938.222089 109.615112 
C 938.222089 108.677478 937.849563 107.77812 937.186555 107.115112 
C 936.523547 106.452104 935.62419 106.079578 934.686555 106.079578 
C 933.748921 106.079578 932.849563 106.452104 932.186555 107.115112 
C 931.523547 107.77812 931.151021 108.677478 931.151021 109.615112 
C 931.151021 110.552747 931.523547 111.452104 932.186555 112.115112 
C 932.849563 112.77812 933.748921 113.150646 934.686555 113.150646 
z
" clip-path="url(#p36be7865a6)" style="fill: #808080; stroke: #000000; stroke-width: 0.4"/>
    <path d="M 966.688168 56.196691 
C 967.625802 56.196691 968.52516 55.824165 969.188168 55.161157 
C 969.851175 54.498149 970.223702 53.598792 970.223702 52.661157 
C 970.223702 51.723522 969.851175 50.824165 969.188168 50.161157 
C 968.52516 49.498149 967.625802 49.125623 966.688168 49.125623 
C 965.750533 49.125623 964.851175 49.498149 964.188168 50.161157 
C 963.52516 50.824165 963.152634 51.723522 963.152634 52.661157 
C 963.152634 53.598792 963.52516 54.498149 964.188168 55.161157 
C 964.851175 55.824165 965.750533 56.196691 966.688168 56.196691 
z
" clip-path="url(#p36be7865a6)" style="fill: #808080; stroke: #000000; stroke-width: 0.4"/>
    <path d="M 956.020964 113.150646 
C 956.958598 113.150646 957.857956 112.77812 958.520964 112.115112 
C 959.183971 111.452104 959.556497 110.552747 959.556497 109.615112 
C 959.556497 108.677478 959.183971 107.77812 958.520964 107.115112 
C 957.857956 106.452104 956.958598 106.079578 956.020964 106.079578 
C 955.083329 106.079578 954.183971 106.452104 953.520964 107.115112 
C 952.857956 107.77812 952.48543 108.677478 952.48543 109.615112 
C 952.48543 110.552747 952.857956 111.452104 953.520964 112.115112 
C 954.183971 112.77812 955.083329 113.150646 956.020964 113.150646 
z
" clip-path="url(#p36be7865a6)" style="fill: #808080; stroke: #000000; stroke-width: 0.4"/>
    <path d="M 977.355372 113.150646 
C 978.293006 113.150646 979.192364 112.77812 979.855372 112.115112 
C 980.51838 111.452104 980.890906 110.552747 980.890906 109.615112 
C 980.890906 108.677478 980.51838 107.77812 979.855372 107.115112 
C 979.192364 106.452104 978.293006 106.079578 977.355372 106.079578 
C 976.417737 106.079578 975.51838 106.452104 974.855372 107.115112 
C 974.192364 107.77812 973.819838 108.677478 973.819838 109.615112 
C 973.819838 110.552747 974.192364 111.452104 974.855372 112.115112 
C 975.51838 112.77812 976.417737 113.150646 977.355372 113.150646 
z
" clip-path="url(#p36be7865a6)" style="fill: #808080; stroke: #000000; stroke-width: 0.4"/>
    <path d="M 945.353759 56.196691 
C 946.291394 56.196691 947.190752 55.824165 947.853759 55.161157 
C 948.516767 54.498149 948.889293 53.598792 948.889293 52.661157 
C 948.889293 51.723522 948.516767 50.824165 947.853759 50.161157 
C 947.190752 49.498149 946.291394 49.125623 945.353759 49.125623 
C 944.416125 49.125623 943.516767 49.498149 942.853759 50.161157 
C 942.190752 50.824165 941.818225 51.723522 941.818225 52.661157 
C 941.818225 53.598792 942.190752 54.498149 942.853759 55.161157 
C 943.516767 55.824165 944.416125 56.196691 945.353759 56.196691 
z
" clip-path="url(#p36be7865a6)" style="fill: #808080; stroke: #000000; stroke-width: 0.4"/>
   </g>
   <g id="line2d_1">
    <path d="M 710.675267 493.2 
L 710.675267 10.8 
" clip-path="url(#p36be7865a6)" style="fill: none; stroke: #ff0000; stroke-width: 1.5; stroke-linecap: square"/>
   </g>
   <g id="patch_3">
    <path d="M 10.8 493.2 
L 10.8 10.8 
" style="fill: none; stroke: #000000; stroke-width: 0.8; stroke-linejoin: miter; stroke-linecap: square"/>
   </g>
   <g id="patch_4">
    <path d="M 1069.2 493.2 
L 1069.2 10.8 
" style="fill: none; stroke: #000000; stroke-width: 0.8; stroke-linejoin: miter; stroke-linecap: square"/>
   </g>
   <g id="patch_5">
    <path d="M 10.8 493.2 
L 1069.2 493.2 
" style="fill: none; stroke: #000000; stroke-width: 0.8; stroke-linejoin: miter; stroke-linecap: square"/>
   </g>
   <g id="patch_6">
    <path d="M 10.8 10.8 
L 1069.2 10.8 
" style="fill: none; stroke: #000000; stroke-width: 0.8; stroke-linejoin: miter; stroke-linecap: square"/>
   </g>
  </g>
 </g>
 <defs>
  <clipPath id="p36be7865a6">
   <rect x="10.8" y="10.8" width="1058.4" height="482.4"/>
  </clipPath>
 </defs>
</svg>
