<?xml version="1.0" encoding="utf-8" standalone="no"?>
<!DOCTYPE svg PUBLIC "-//W3C//DTD SVG 1.1//EN"
  "http://www.w3.org/Graphics/SVG/1.1/DTD/svg11.dtd">
<svg xmlns:xlink="http://www.w3.org/1999/xlink" width="1080pt" height="504pt" viewBox="0 0 1080 504" xmlns="http://www.w3.org/2000/svg" version="1.1">
 <metadata>
  <rdf:RDF xmlns:dc="http://purl.org/dc/elements/1.1/" xmlns:cc="http://creativecommons.org/ns#" xmlns:rdf="http://www.w3.org/1999/02/22-rdf-syntax-ns#">
   <cc:Work>
    <dc:type rdf:resource="http://purl.org/dc/dcmitype/StillImage"/>
    <dc:date>2022-04-20T07:34:37.047758</dc:date>
    <dc:format>image/svg+xml</dc:format>
    <dc:creator>
     <cc:Agent>
      <dc:title>Matplotlib v3.5.1, https://matplotlib.org/</dc:title>
     </cc:Agent>
    </dc:creator>
   </cc:Work>
  </rdf:RDF>
 </metadata>
 <defs>
  <style type="text/css">*{stroke-linejoin: round; stroke-linecap: butt}</style>
 </defs>
 <g id="figure_1">
  <g id="patch_1">
   <path d="M 0 504 
L 1080 504 
L 1080 0 
L 0 0 
z
" style="fill: #ffffff"/>
  </g>
  <g id="axes_1">
   <g id="patch_2">
    <path d="M 10.8 493.2 
L 1069.2 493.2 
L 1069.2 10.8 
L 10.8 10.8 
z
" style="fill: #ffffff"/>
   </g>
   <g id="LineCollection_1">
    <path d="M 102.644628 52.661157 
L 113.443526 52.661157 
" clip-path="url(#pb8df52aada)" style="fill: none; stroke: #000000; stroke-width: 0.4"/>
    <path d="M 135.041322 109.615112 
L 124.242424 166.569067 
" clip-path="url(#pb8df52aada)" style="fill: none; stroke: #000000; stroke-width: 0.4"/>
    <path d="M 135.041322 109.615112 
L 145.84022 166.569067 
" clip-path="url(#pb8df52aada)" style="fill: none; stroke: #000000; stroke-width: 0.4"/>
    <path d="M 135.041322 109.615112 
L 156.639118 52.661157 
" clip-path="url(#pb8df52aada)" style="fill: none; stroke: #000000; stroke-width: 0.4"/>
    <path d="M 167.438017 166.569067 
L 178.236915 166.569067 
" clip-path="url(#pb8df52aada)" style="fill: none; stroke: #000000; stroke-width: 0.4"/>
    <path d="M 167.438017 166.569067 
L 189.035813 109.615112 
" clip-path="url(#pb8df52aada)" style="fill: none; stroke: #000000; stroke-width: 0.4"/>
    <path d="M 199.834711 166.569067 
L 210.633609 166.569067 
" clip-path="url(#pb8df52aada)" style="fill: none; stroke: #000000; stroke-width: 0.4"/>
    <path d="M 199.834711 166.569067 
L 189.035813 109.615112 
" clip-path="url(#pb8df52aada)" style="fill: none; stroke: #000000; stroke-width: 0.4"/>
    <path d="M 189.035813 109.615112 
L 221.432507 52.661157 
" clip-path="url(#pb8df52aada)" style="fill: none; stroke: #000000; stroke-width: 0.4"/>
    <path d="M 232.231405 223.523022 
L 243.030303 223.523022 
" clip-path="url(#pb8df52aada)" style="fill: none; stroke: #000000; stroke-width: 0.4"/>
    <path d="M 232.231405 223.523022 
L 253.829201 166.569067 
" clip-path="url(#pb8df52aada)" style="fill: none; stroke: #000000; stroke-width: 0.4"/>
    <path d="M 286.225895 223.523022 
L 297.024793 223.523022 
" clip-path="url(#pb8df52aada)" style="fill: none; stroke: #000000; stroke-width: 0.4"/>
    <path d="M 286.225895 223.523022 
L 275.426997 166.569067 
" clip-path="url(#pb8df52aada)" style="fill: none; stroke: #000000; stroke-width: 0.4"/>
    <path d="M 275.426997 166.569067 
L 264.628099 223.523022 
" clip-path="url(#pb8df52aada)" style="fill: none; stroke: #000000; stroke-width: 0.4"/>
    <path d="M 275.426997 166.569067 
L 253.829201 166.569067 
" clip-path="url(#pb8df52aada)" style="fill: none; stroke: #000000; stroke-width: 0.4"/>
    <path d="M 253.829201 166.569067 
L 307.823691 109.615112 
" clip-path="url(#pb8df52aada)" style="fill: none; stroke: #000000; stroke-width: 0.4"/>
    <path d="M 318.62259 223.523022 
L 329.421488 223.523022 
" clip-path="url(#pb8df52aada)" style="fill: none; stroke: #000000; stroke-width: 0.4"/>
    <path d="M 318.62259 223.523022 
L 340.220386 166.569067 
" clip-path="url(#pb8df52aada)" style="fill: none; stroke: #000000; stroke-width: 0.4"/>
    <path d="M 372.61708 223.523022 
L 383.415978 223.523022 
" clip-path="url(#pb8df52aada)" style="fill: none; stroke: #000000; stroke-width: 0.4"/>
    <path d="M 372.61708 223.523022 
L 361.818182 166.569067 
" clip-path="url(#pb8df52aada)" style="fill: none; stroke: #000000; stroke-width: 0.4"/>
    <path d="M 361.818182 166.569067 
L 351.019284 223.523022 
" clip-path="url(#pb8df52aada)" style="fill: none; stroke: #000000; stroke-width: 0.4"/>
    <path d="M 361.818182 166.569067 
L 340.220386 166.569067 
" clip-path="url(#pb8df52aada)" style="fill: none; stroke: #000000; stroke-width: 0.4"/>
    <path d="M 340.220386 166.569067 
L 394.214876 109.615112 
" clip-path="url(#pb8df52aada)" style="fill: none; stroke: #000000; stroke-width: 0.4"/>
    <path d="M 405.013774 280.476978 
L 415.812672 280.476978 
" clip-path="url(#pb8df52aada)" style="fill: none; stroke: #000000; stroke-width: 0.4"/>
    <path d="M 405.013774 280.476978 
L 426.61157 223.523022 
" clip-path="url(#pb8df52aada)" style="fill: none; stroke: #000000; stroke-width: 0.4"/>
    <path d="M 448.209366 223.523022 
L 437.410468 280.476978 
" clip-path="url(#pb8df52aada)" style="fill: none; stroke: #000000; stroke-width: 0.4"/>
    <path d="M 448.209366 223.523022 
L 459.008264 280.476978 
" clip-path="url(#pb8df52aada)" style="fill: none; stroke: #000000; stroke-width: 0.4"/>
    <path d="M 448.209366 223.523022 
L 426.61157 223.523022 
" clip-path="url(#pb8df52aada)" style="fill: none; stroke: #000000; stroke-width: 0.4"/>
    <path d="M 426.61157 223.523022 
L 469.807163 166.569067 
" clip-path="url(#pb8df52aada)" style="fill: none; stroke: #000000; stroke-width: 0.4"/>
    <path d="M 502.203857 337.430933 
L 513.002755 337.430933 
" clip-path="url(#pb8df52aada)" style="fill: none; stroke: #000000; stroke-width: 0.4"/>
    <path d="M 502.203857 337.430933 
L 523.801653 280.476978 
" clip-path="url(#pb8df52aada)" style="fill: none; stroke: #000000; stroke-width: 0.4"/>
    <path d="M 534.600551 337.430933 
L 545.399449 337.430933 
" clip-path="url(#pb8df52aada)" style="fill: none; stroke: #000000; stroke-width: 0.4"/>
    <path d="M 534.600551 337.430933 
L 523.801653 280.476978 
" clip-path="url(#pb8df52aada)" style="fill: none; stroke: #000000; stroke-width: 0.4"/>
    <path d="M 523.801653 280.476978 
L 491.404959 280.476978 
" clip-path="url(#pb8df52aada)" style="fill: none; stroke: #000000; stroke-width: 0.4"/>
    <path d="M 491.404959 280.476978 
L 480.606061 337.430933 
" clip-path="url(#pb8df52aada)" style="fill: none; stroke: #000000; stroke-width: 0.4"/>
    <path d="M 491.404959 280.476978 
L 556.198347 223.523022 
" clip-path="url(#pb8df52aada)" style="fill: none; stroke: #000000; stroke-width: 0.4"/>
    <path d="M 588.595041 451.338843 
L 599.393939 451.338843 
" clip-path="url(#pb8df52aada)" style="fill: none; stroke: #000000; stroke-width: 0.4"/>
    <path d="M 588.595041 451.338843 
L 577.796143 394.384888 
" clip-path="url(#pb8df52aada)" style="fill: none; stroke: #000000; stroke-width: 0.4"/>
    <path d="M 577.796143 394.384888 
L 566.997245 451.338843 
" clip-path="url(#pb8df52aada)" style="fill: none; stroke: #000000; stroke-width: 0.4"/>
    <path d="M 577.796143 394.384888 
L 610.192837 337.430933 
" clip-path="url(#pb8df52aada)" style="fill: none; stroke: #000000; stroke-width: 0.4"/>
    <path d="M 631.790634 451.338843 
L 642.589532 451.338843 
" clip-path="url(#pb8df52aada)" style="fill: none; stroke: #000000; stroke-width: 0.4"/>
    <path d="M 631.790634 451.338843 
L 620.991736 451.338843 
" clip-path="url(#pb8df52aada)" style="fill: none; stroke: #000000; stroke-width: 0.4"/>
    <path d="M 620.991736 451.338843 
L 653.38843 394.384888 
" clip-path="url(#pb8df52aada)" style="fill: none; stroke: #000000; stroke-width: 0.4"/>
    <path d="M 653.38843 394.384888 
L 664.187328 451.338843 
" clip-path="url(#pb8df52aada)" style="fill: none; stroke: #000000; stroke-width: 0.4"/>
    <path d="M 653.38843 394.384888 
L 674.986226 337.430933 
" clip-path="url(#pb8df52aada)" style="fill: none; stroke: #000000; stroke-width: 0.4"/>
    <path d="M 718.181818 451.338843 
L 728.980716 451.338843 
" clip-path="url(#pb8df52aada)" style="fill: none; stroke: #000000; stroke-width: 0.4"/>
    <path d="M 718.181818 451.338843 
L 707.38292 451.338843 
" clip-path="url(#pb8df52aada)" style="fill: none; stroke: #000000; stroke-width: 0.4"/>
    <path d="M 707.38292 451.338843 
L 739.779614 394.384888 
" clip-path="url(#pb8df52aada)" style="fill: none; stroke: #000000; stroke-width: 0.4"/>
    <path d="M 750.578512 451.338843 
L 761.37741 451.338843 
" clip-path="url(#pb8df52aada)" style="fill: none; stroke: #000000; stroke-width: 0.4"/>
    <path d="M 750.578512 451.338843 
L 772.176309 394.384888 
" clip-path="url(#pb8df52aada)" style="fill: none; stroke: #000000; stroke-width: 0.4"/>
    <path d="M 772.176309 394.384888 
L 782.975207 451.338843 
" clip-path="url(#pb8df52aada)" style="fill: none; stroke: #000000; stroke-width: 0.4"/>
    <path d="M 772.176309 394.384888 
L 739.779614 394.384888 
" clip-path="url(#pb8df52aada)" style="fill: none; stroke: #000000; stroke-width: 0.4"/>
    <path d="M 739.779614 394.384888 
L 696.584022 394.384888 
" clip-path="url(#pb8df52aada)" style="fill: none; stroke: #000000; stroke-width: 0.4"/>
    <path d="M 696.584022 394.384888 
L 685.785124 451.338843 
" clip-path="url(#pb8df52aada)" style="fill: none; stroke: #000000; stroke-width: 0.4"/>
    <path d="M 696.584022 394.384888 
L 793.774105 337.430933 
" clip-path="url(#pb8df52aada)" style="fill: none; stroke: #000000; stroke-width: 0.4"/>
    <path d="M 826.170799 451.338843 
L 836.969697 451.338843 
" clip-path="url(#pb8df52aada)" style="fill: none; stroke: #000000; stroke-width: 0.4"/>
    <path d="M 826.170799 451.338843 
L 815.371901 394.384888 
" clip-path="url(#pb8df52aada)" style="fill: none; stroke: #000000; stroke-width: 0.4"/>
    <path d="M 815.371901 394.384888 
L 804.573003 451.338843 
" clip-path="url(#pb8df52aada)" style="fill: none; stroke: #000000; stroke-width: 0.4"/>
    <path d="M 815.371901 394.384888 
L 793.774105 337.430933 
" clip-path="url(#pb8df52aada)" style="fill: none; stroke: #000000; stroke-width: 0.4"/>
    <path d="M 793.774105 337.430933 
L 674.986226 337.430933 
" clip-path="url(#pb8df52aada)" style="fill: none; stroke: #000000; stroke-width: 0.4"/>
    <path d="M 674.986226 337.430933 
L 610.192837 337.430933 
" clip-path="url(#pb8df52aada)" style="fill: none; stroke: #000000; stroke-width: 0.4"/>
    <path d="M 610.192837 337.430933 
L 847.768595 280.476978 
" clip-path="url(#pb8df52aada)" style="fill: none; stroke: #000000; stroke-width: 0.4"/>
    <path d="M 901.763085 337.430933 
L 912.561983 337.430933 
" clip-path="url(#pb8df52aada)" style="fill: none; stroke: #000000; stroke-width: 0.4"/>
    <path d="M 901.763085 337.430933 
L 890.964187 280.476978 
" clip-path="url(#pb8df52aada)" style="fill: none; stroke: #000000; stroke-width: 0.4"/>
    <path d="M 890.964187 280.476978 
L 880.165289 337.430933 
" clip-path="url(#pb8df52aada)" style="fill: none; stroke: #000000; stroke-width: 0.4"/>
    <path d="M 890.964187 280.476978 
L 869.366391 280.476978 
" clip-path="url(#pb8df52aada)" style="fill: none; stroke: #000000; stroke-width: 0.4"/>
    <path d="M 869.366391 280.476978 
L 858.567493 337.430933 
" clip-path="url(#pb8df52aada)" style="fill: none; stroke: #000000; stroke-width: 0.4"/>
    <path d="M 869.366391 280.476978 
L 847.768595 280.476978 
" clip-path="url(#pb8df52aada)" style="fill: none; stroke: #000000; stroke-width: 0.4"/>
    <path d="M 847.768595 280.476978 
L 556.198347 223.523022 
" clip-path="url(#pb8df52aada)" style="fill: none; stroke: #000000; stroke-width: 0.4"/>
    <path d="M 556.198347 223.523022 
L 469.807163 166.569067 
" clip-path="url(#pb8df52aada)" style="fill: none; stroke: #000000; stroke-width: 0.4"/>
    <path d="M 469.807163 166.569067 
L 394.214876 109.615112 
" clip-path="url(#pb8df52aada)" style="fill: none; stroke: #000000; stroke-width: 0.4"/>
    <path d="M 394.214876 109.615112 
L 307.823691 109.615112 
" clip-path="url(#pb8df52aada)" style="fill: none; stroke: #000000; stroke-width: 0.4"/>
    <path d="M 307.823691 109.615112 
L 221.432507 52.661157 
" clip-path="url(#pb8df52aada)" style="fill: none; stroke: #000000; stroke-width: 0.4"/>
    <path d="M 221.432507 52.661157 
L 156.639118 52.661157 
" clip-path="url(#pb8df52aada)" style="fill: none; stroke: #000000; stroke-width: 0.4"/>
    <path d="M 923.360882 109.615112 
L 934.15978 109.615112 
" clip-path="url(#pb8df52aada)" style="fill: none; stroke: #000000; stroke-width: 0.4"/>
    <path d="M 923.360882 109.615112 
L 944.958678 52.661157 
" clip-path="url(#pb8df52aada)" style="fill: none; stroke: #000000; stroke-width: 0.4"/>
    <path d="M 966.556474 52.661157 
L 955.757576 109.615112 
" clip-path="url(#pb8df52aada)" style="fill: none; stroke: #000000; stroke-width: 0.4"/>
    <path d="M 966.556474 52.661157 
L 977.355372 109.615112 
" clip-path="url(#pb8df52aada)" style="fill: none; stroke: #000000; stroke-width: 0.4"/>
    <path d="M 966.556474 52.661157 
L 944.958678 52.661157 
" clip-path="url(#pb8df52aada)" style="fill: none; stroke: #000000; stroke-width: 0.4"/>
   </g>
   <g id="matplotlib.axis_1">
    <g id="xtick_1"/>
    <g id="xtick_2"/>
    <g id="xtick_3"/>
    <g id="xtick_4"/>
    <g id="xtick_5"/>
   </g>
   <g id="matplotlib.axis_2">
    <g id="ytick_1"/>
    <g id="ytick_2"/>
    <g id="ytick_3"/>
    <g id="ytick_4"/>
    <g id="ytick_5"/>
    <g id="ytick_6"/>
    <g id="ytick_7"/>
    <g id="ytick_8"/>
   </g>
   <g id="PathCollection_1">
    <path d="M 102.644628 56.196691 
C 103.582263 56.196691 104.48162 55.824165 105.144628 55.161157 
C 105.807636 54.498149 106.180162 53.598792 106.180162 52.661157 
C 106.180162 51.723522 105.807636 50.824165 105.144628 50.161157 
C 104.48162 49.498149 103.582263 49.125623 102.644628 49.125623 
C 101.706994 49.125623 100.807636 49.498149 100.144628 50.161157 
C 99.48162 50.824165 99.109094 51.723522 99.109094 52.661157 
C 99.109094 53.598792 99.48162 54.498149 100.144628 55.161157 
C 100.807636 55.824165 101.706994 56.196691 102.644628 56.196691 
z
" clip-path="url(#pb8df52aada)" style="fill: #808080; stroke: #000000; stroke-width: 0.4"/>
    <path d="M 113.443526 56.196691 
C 114.381161 56.196691 115.280518 55.824165 115.943526 55.161157 
C 116.606534 54.498149 116.97906 53.598792 116.97906 52.661157 
C 116.97906 51.723522 116.606534 50.824165 115.943526 50.161157 
C 115.280518 49.498149 114.381161 49.125623 113.443526 49.125623 
C 112.505892 49.125623 111.606534 49.498149 110.943526 50.161157 
C 110.280518 50.824165 109.907992 51.723522 109.907992 52.661157 
C 109.907992 53.598792 110.280518 54.498149 110.943526 55.161157 
C 111.606534 55.824165 112.505892 56.196691 113.443526 56.196691 
z
" clip-path="url(#pb8df52aada)" style="fill: #808080; stroke: #000000; stroke-width: 0.4"/>
    <path d="M 135.041322 113.150646 
C 135.978957 113.150646 136.878315 112.77812 137.541322 112.115112 
C 138.20433 111.452104 138.576856 110.552747 138.576856 109.615112 
C 138.576856 108.677478 138.20433 107.77812 137.541322 107.115112 
C 136.878315 106.452104 135.978957 106.079578 135.041322 106.079578 
C 134.103688 106.079578 133.20433 106.452104 132.541322 107.115112 
C 131.878315 107.77812 131.505788 108.677478 131.505788 109.615112 
C 131.505788 110.552747 131.878315 111.452104 132.541322 112.115112 
C 133.20433 112.77812 134.103688 113.150646 135.041322 113.150646 
z
" clip-path="url(#pb8df52aada)" style="fill: #808080; stroke: #000000; stroke-width: 0.4"/>
    <path d="M 124.242424 170.104601 
C 125.180059 170.104601 126.079416 169.732075 126.742424 169.069067 
C 127.405432 168.40606 127.777958 167.506702 127.777958 166.569067 
C 127.777958 165.631433 127.405432 164.732075 126.742424 164.069067 
C 126.079416 163.40606 125.180059 163.033533 124.242424 163.033533 
C 123.30479 163.033533 122.405432 163.40606 121.742424 164.069067 
C 121.079416 164.732075 120.70689 165.631433 120.70689 166.569067 
C 120.70689 167.506702 121.079416 168.40606 121.742424 169.069067 
C 122.405432 169.732075 123.30479 170.104601 124.242424 170.104601 
z
" clip-path="url(#pb8df52aada)" style="fill: #808080; stroke: #000000; stroke-width: 0.4"/>
    <path d="M 145.84022 170.104601 
C 146.777855 170.104601 147.677213 169.732075 148.34022 169.069067 
C 149.003228 168.40606 149.375754 167.506702 149.375754 166.569067 
C 149.375754 165.631433 149.003228 164.732075 148.34022 164.069067 
C 147.677213 163.40606 146.777855 163.033533 145.84022 163.033533 
C 144.902586 163.033533 144.003228 163.40606 143.34022 164.069067 
C 142.677213 164.732075 142.304686 165.631433 142.304686 166.569067 
C 142.304686 167.506702 142.677213 168.40606 143.34022 169.069067 
C 144.003228 169.732075 144.902586 170.104601 145.84022 170.104601 
z
" clip-path="url(#pb8df52aada)" style="fill: #808080; stroke: #000000; stroke-width: 0.4"/>
    <path d="M 167.438017 170.104601 
C 168.375651 170.104601 169.275009 169.732075 169.938017 169.069067 
C 170.601024 168.40606 170.97355 167.506702 170.97355 166.569067 
C 170.97355 165.631433 170.601024 164.732075 169.938017 164.069067 
C 169.275009 163.40606 168.375651 163.033533 167.438017 163.033533 
C 166.500382 163.033533 165.601024 163.40606 164.938017 164.069067 
C 164.275009 164.732075 163.902483 165.631433 163.902483 166.569067 
C 163.902483 167.506702 164.275009 168.40606 164.938017 169.069067 
C 165.601024 169.732075 166.500382 170.104601 167.438017 170.104601 
z
" clip-path="url(#pb8df52aada)" style="fill: #808080; stroke: #000000; stroke-width: 0.4"/>
    <path d="M 178.236915 170.104601 
C 179.174549 170.104601 180.073907 169.732075 180.736915 169.069067 
C 181.399922 168.40606 181.772449 167.506702 181.772449 166.569067 
C 181.772449 165.631433 181.399922 164.732075 180.736915 164.069067 
C 180.073907 163.40606 179.174549 163.033533 178.236915 163.033533 
C 177.29928 163.033533 176.399922 163.40606 175.736915 164.069067 
C 175.073907 164.732075 174.701381 165.631433 174.701381 166.569067 
C 174.701381 167.506702 175.073907 168.40606 175.736915 169.069067 
C 176.399922 169.732075 177.29928 170.104601 178.236915 170.104601 
z
" clip-path="url(#pb8df52aada)" style="fill: #808080; stroke: #000000; stroke-width: 0.4"/>
    <path d="M 199.834711 170.104601 
C 200.772345 170.104601 201.671703 169.732075 202.334711 169.069067 
C 202.997718 168.40606 203.370245 167.506702 203.370245 166.569067 
C 203.370245 165.631433 202.997718 164.732075 202.334711 164.069067 
C 201.671703 163.40606 200.772345 163.033533 199.834711 163.033533 
C 198.897076 163.033533 197.997718 163.40606 197.334711 164.069067 
C 196.671703 164.732075 196.299177 165.631433 196.299177 166.569067 
C 196.299177 167.506702 196.671703 168.40606 197.334711 169.069067 
C 197.997718 169.732075 198.897076 170.104601 199.834711 170.104601 
z
" clip-path="url(#pb8df52aada)" style="fill: #808080; stroke: #000000; stroke-width: 0.4"/>
    <path d="M 210.633609 170.104601 
C 211.571243 170.104601 212.470601 169.732075 213.133609 169.069067 
C 213.796617 168.40606 214.169143 167.506702 214.169143 166.569067 
C 214.169143 165.631433 213.796617 164.732075 213.133609 164.069067 
C 212.470601 163.40606 211.571243 163.033533 210.633609 163.033533 
C 209.695974 163.033533 208.796617 163.40606 208.133609 164.069067 
C 207.470601 164.732075 207.098075 165.631433 207.098075 166.569067 
C 207.098075 167.506702 207.470601 168.40606 208.133609 169.069067 
C 208.796617 169.732075 209.695974 170.104601 210.633609 170.104601 
z
" clip-path="url(#pb8df52aada)" style="fill: #808080; stroke: #000000; stroke-width: 0.4"/>
    <path d="M 189.035813 113.150646 
C 189.973447 113.150646 190.872805 112.77812 191.535813 112.115112 
C 192.19882 111.452104 192.571347 110.552747 192.571347 109.615112 
C 192.571347 108.677478 192.19882 107.77812 191.535813 107.115112 
C 190.872805 106.452104 189.973447 106.079578 189.035813 106.079578 
C 188.098178 106.079578 187.19882 106.452104 186.535813 107.115112 
C 185.872805 107.77812 185.500279 108.677478 185.500279 109.615112 
C 185.500279 110.552747 185.872805 111.452104 186.535813 112.115112 
C 187.19882 112.77812 188.098178 113.150646 189.035813 113.150646 
z
" clip-path="url(#pb8df52aada)" style="fill: #808080; stroke: #000000; stroke-width: 0.4"/>
    <path d="M 232.231405 227.058556 
C 233.16904 227.058556 234.068397 226.68603 234.731405 226.023022 
C 235.394413 225.360015 235.766939 224.460657 235.766939 223.523022 
C 235.766939 222.585388 235.394413 221.68603 234.731405 221.023022 
C 234.068397 220.360015 233.16904 219.987489 232.231405 219.987489 
C 231.29377 219.987489 230.394413 220.360015 229.731405 221.023022 
C 229.068397 221.68603 228.695871 222.585388 228.695871 223.523022 
C 228.695871 224.460657 229.068397 225.360015 229.731405 226.023022 
C 230.394413 226.68603 231.29377 227.058556 232.231405 227.058556 
z
" clip-path="url(#pb8df52aada)" style="fill: #808080; stroke: #000000; stroke-width: 0.4"/>
    <path d="M 243.030303 227.058556 
C 243.967938 227.058556 244.867295 226.68603 245.530303 226.023022 
C 246.193311 225.360015 246.565837 224.460657 246.565837 223.523022 
C 246.565837 222.585388 246.193311 221.68603 245.530303 221.023022 
C 244.867295 220.360015 243.967938 219.987489 243.030303 219.987489 
C 242.092668 219.987489 241.193311 220.360015 240.530303 221.023022 
C 239.867295 221.68603 239.494769 222.585388 239.494769 223.523022 
C 239.494769 224.460657 239.867295 225.360015 240.530303 226.023022 
C 241.193311 226.68603 242.092668 227.058556 243.030303 227.058556 
z
" clip-path="url(#pb8df52aada)" style="fill: #808080; stroke: #000000; stroke-width: 0.4"/>
    <path d="M 286.225895 227.058556 
C 287.16353 227.058556 288.062888 226.68603 288.725895 226.023022 
C 289.388903 225.360015 289.761429 224.460657 289.761429 223.523022 
C 289.761429 222.585388 289.388903 221.68603 288.725895 221.023022 
C 288.062888 220.360015 287.16353 219.987489 286.225895 219.987489 
C 285.288261 219.987489 284.388903 220.360015 283.725895 221.023022 
C 283.062888 221.68603 282.690361 222.585388 282.690361 223.523022 
C 282.690361 224.460657 283.062888 225.360015 283.725895 226.023022 
C 284.388903 226.68603 285.288261 227.058556 286.225895 227.058556 
z
" clip-path="url(#pb8df52aada)" style="fill: #808080; stroke: #000000; stroke-width: 0.4"/>
    <path d="M 297.024793 227.058556 
C 297.962428 227.058556 298.861786 226.68603 299.524793 226.023022 
C 300.187801 225.360015 300.560327 224.460657 300.560327 223.523022 
C 300.560327 222.585388 300.187801 221.68603 299.524793 221.023022 
C 298.861786 220.360015 297.962428 219.987489 297.024793 219.987489 
C 296.087159 219.987489 295.187801 220.360015 294.524793 221.023022 
C 293.861786 221.68603 293.489259 222.585388 293.489259 223.523022 
C 293.489259 224.460657 293.861786 225.360015 294.524793 226.023022 
C 295.187801 226.68603 296.087159 227.058556 297.024793 227.058556 
z
" clip-path="url(#pb8df52aada)" style="fill: #808080; stroke: #000000; stroke-width: 0.4"/>
    <path d="M 275.426997 170.104601 
C 276.364632 170.104601 277.263989 169.732075 277.926997 169.069067 
C 278.590005 168.40606 278.962531 167.506702 278.962531 166.569067 
C 278.962531 165.631433 278.590005 164.732075 277.926997 164.069067 
C 277.263989 163.40606 276.364632 163.033533 275.426997 163.033533 
C 274.489363 163.033533 273.590005 163.40606 272.926997 164.069067 
C 272.263989 164.732075 271.891463 165.631433 271.891463 166.569067 
C 271.891463 167.506702 272.263989 168.40606 272.926997 169.069067 
C 273.590005 169.732075 274.489363 170.104601 275.426997 170.104601 
z
" clip-path="url(#pb8df52aada)" style="fill: #808080; stroke: #000000; stroke-width: 0.4"/>
    <path d="M 264.628099 227.058556 
C 265.565734 227.058556 266.465091 226.68603 267.128099 226.023022 
C 267.791107 225.360015 268.163633 224.460657 268.163633 223.523022 
C 268.163633 222.585388 267.791107 221.68603 267.128099 221.023022 
C 266.465091 220.360015 265.565734 219.987489 264.628099 219.987489 
C 263.690465 219.987489 262.791107 220.360015 262.128099 221.023022 
C 261.465091 221.68603 261.092565 222.585388 261.092565 223.523022 
C 261.092565 224.460657 261.465091 225.360015 262.128099 226.023022 
C 262.791107 226.68603 263.690465 227.058556 264.628099 227.058556 
z
" clip-path="url(#pb8df52aada)" style="fill: #808080; stroke: #000000; stroke-width: 0.4"/>
    <path d="M 253.829201 170.104601 
C 254.766836 170.104601 255.666193 169.732075 256.329201 169.069067 
C 256.992209 168.40606 257.364735 167.506702 257.364735 166.569067 
C 257.364735 165.631433 256.992209 164.732075 256.329201 164.069067 
C 255.666193 163.40606 254.766836 163.033533 253.829201 163.033533 
C 252.891567 163.033533 251.992209 163.40606 251.329201 164.069067 
C 250.666193 164.732075 250.293667 165.631433 250.293667 166.569067 
C 250.293667 167.506702 250.666193 168.40606 251.329201 169.069067 
C 251.992209 169.732075 252.891567 170.104601 253.829201 170.104601 
z
" clip-path="url(#pb8df52aada)" style="fill: #808080; stroke: #000000; stroke-width: 0.4"/>
    <path d="M 318.62259 227.058556 
C 319.560224 227.058556 320.459582 226.68603 321.12259 226.023022 
C 321.785597 225.360015 322.158123 224.460657 322.158123 223.523022 
C 322.158123 222.585388 321.785597 221.68603 321.12259 221.023022 
C 320.459582 220.360015 319.560224 219.987489 318.62259 219.987489 
C 317.684955 219.987489 316.785597 220.360015 316.12259 221.023022 
C 315.459582 221.68603 315.087056 222.585388 315.087056 223.523022 
C 315.087056 224.460657 315.459582 225.360015 316.12259 226.023022 
C 316.785597 226.68603 317.684955 227.058556 318.62259 227.058556 
z
" clip-path="url(#pb8df52aada)" style="fill: #808080; stroke: #000000; stroke-width: 0.4"/>
    <path d="M 329.421488 227.058556 
C 330.359122 227.058556 331.25848 226.68603 331.921488 226.023022 
C 332.584495 225.360015 332.957022 224.460657 332.957022 223.523022 
C 332.957022 222.585388 332.584495 221.68603 331.921488 221.023022 
C 331.25848 220.360015 330.359122 219.987489 329.421488 219.987489 
C 328.483853 219.987489 327.584495 220.360015 326.921488 221.023022 
C 326.25848 221.68603 325.885954 222.585388 325.885954 223.523022 
C 325.885954 224.460657 326.25848 225.360015 326.921488 226.023022 
C 327.584495 226.68603 328.483853 227.058556 329.421488 227.058556 
z
" clip-path="url(#pb8df52aada)" style="fill: #808080; stroke: #000000; stroke-width: 0.4"/>
    <path d="M 372.61708 227.058556 
C 373.554714 227.058556 374.454072 226.68603 375.11708 226.023022 
C 375.780088 225.360015 376.152614 224.460657 376.152614 223.523022 
C 376.152614 222.585388 375.780088 221.68603 375.11708 221.023022 
C 374.454072 220.360015 373.554714 219.987489 372.61708 219.987489 
C 371.679445 219.987489 370.780088 220.360015 370.11708 221.023022 
C 369.454072 221.68603 369.081546 222.585388 369.081546 223.523022 
C 369.081546 224.460657 369.454072 225.360015 370.11708 226.023022 
C 370.780088 226.68603 371.679445 227.058556 372.61708 227.058556 
z
" clip-path="url(#pb8df52aada)" style="fill: #808080; stroke: #000000; stroke-width: 0.4"/>
    <path d="M 383.415978 227.058556 
C 384.353613 227.058556 385.25297 226.68603 385.915978 226.023022 
C 386.578986 225.360015 386.951512 224.460657 386.951512 223.523022 
C 386.951512 222.585388 386.578986 221.68603 385.915978 221.023022 
C 385.25297 220.360015 384.353613 219.987489 383.415978 219.987489 
C 382.478343 219.987489 381.578986 220.360015 380.915978 221.023022 
C 380.25297 221.68603 379.880444 222.585388 379.880444 223.523022 
C 379.880444 224.460657 380.25297 225.360015 380.915978 226.023022 
C 381.578986 226.68603 382.478343 227.058556 383.415978 227.058556 
z
" clip-path="url(#pb8df52aada)" style="fill: #808080; stroke: #000000; stroke-width: 0.4"/>
    <path d="M 361.818182 170.104601 
C 362.755816 170.104601 363.655174 169.732075 364.318182 169.069067 
C 364.98119 168.40606 365.353716 167.506702 365.353716 166.569067 
C 365.353716 165.631433 364.98119 164.732075 364.318182 164.069067 
C 363.655174 163.40606 362.755816 163.033533 361.818182 163.033533 
C 360.880547 163.033533 359.98119 163.40606 359.318182 164.069067 
C 358.655174 164.732075 358.282648 165.631433 358.282648 166.569067 
C 358.282648 167.506702 358.655174 168.40606 359.318182 169.069067 
C 359.98119 169.732075 360.880547 170.104601 361.818182 170.104601 
z
" clip-path="url(#pb8df52aada)" style="fill: #808080; stroke: #000000; stroke-width: 0.4"/>
    <path d="M 351.019284 227.058556 
C 351.956918 227.058556 352.856276 226.68603 353.519284 226.023022 
C 354.182291 225.360015 354.554818 224.460657 354.554818 223.523022 
C 354.554818 222.585388 354.182291 221.68603 353.519284 221.023022 
C 352.856276 220.360015 351.956918 219.987489 351.019284 219.987489 
C 350.081649 219.987489 349.182291 220.360015 348.519284 221.023022 
C 347.856276 221.68603 347.48375 222.585388 347.48375 223.523022 
C 347.48375 224.460657 347.856276 225.360015 348.519284 226.023022 
C 349.182291 226.68603 350.081649 227.058556 351.019284 227.058556 
z
" clip-path="url(#pb8df52aada)" style="fill: #808080; stroke: #000000; stroke-width: 0.4"/>
    <path d="M 340.220386 170.104601 
C 341.15802 170.104601 342.057378 169.732075 342.720386 169.069067 
C 343.383393 168.40606 343.75592 167.506702 343.75592 166.569067 
C 343.75592 165.631433 343.383393 164.732075 342.720386 164.069067 
C 342.057378 163.40606 341.15802 163.033533 340.220386 163.033533 
C 339.282751 163.033533 338.383393 163.40606 337.720386 164.069067 
C 337.057378 164.732075 336.684852 165.631433 336.684852 166.569067 
C 336.684852 167.506702 337.057378 168.40606 337.720386 169.069067 
C 338.383393 169.732075 339.282751 170.104601 340.220386 170.104601 
z
" clip-path="url(#pb8df52aada)" style="fill: #808080; stroke: #000000; stroke-width: 0.4"/>
    <path d="M 405.013774 284.012511 
C 405.951409 284.012511 406.850766 283.639985 407.513774 282.976978 
C 408.176782 282.31397 408.549308 281.414612 408.549308 280.476978 
C 408.549308 279.539343 408.176782 278.639985 407.513774 277.976978 
C 406.850766 277.31397 405.951409 276.941444 405.013774 276.941444 
C 404.07614 276.941444 403.176782 277.31397 402.513774 277.976978 
C 401.850766 278.639985 401.47824 279.539343 401.47824 280.476978 
C 401.47824 281.414612 401.850766 282.31397 402.513774 282.976978 
C 403.176782 283.639985 404.07614 284.012511 405.013774 284.012511 
z
" clip-path="url(#pb8df52aada)" style="fill: #808080; stroke: #000000; stroke-width: 0.4"/>
    <path d="M 415.812672 284.012511 
C 416.750307 284.012511 417.649664 283.639985 418.312672 282.976978 
C 418.97568 282.31397 419.348206 281.414612 419.348206 280.476978 
C 419.348206 279.539343 418.97568 278.639985 418.312672 277.976978 
C 417.649664 277.31397 416.750307 276.941444 415.812672 276.941444 
C 414.875038 276.941444 413.97568 277.31397 413.312672 277.976978 
C 412.649664 278.639985 412.277138 279.539343 412.277138 280.476978 
C 412.277138 281.414612 412.649664 282.31397 413.312672 282.976978 
C 413.97568 283.639985 414.875038 284.012511 415.812672 284.012511 
z
" clip-path="url(#pb8df52aada)" style="fill: #808080; stroke: #000000; stroke-width: 0.4"/>
    <path d="M 448.209366 227.058556 
C 449.147001 227.058556 450.046359 226.68603 450.709366 226.023022 
C 451.372374 225.360015 451.7449 224.460657 451.7449 223.523022 
C 451.7449 222.585388 451.372374 221.68603 450.709366 221.023022 
C 450.046359 220.360015 449.147001 219.987489 448.209366 219.987489 
C 447.271732 219.987489 446.372374 220.360015 445.709366 221.023022 
C 445.046359 221.68603 444.673832 222.585388 444.673832 223.523022 
C 444.673832 224.460657 445.046359 225.360015 445.709366 226.023022 
C 446.372374 226.68603 447.271732 227.058556 448.209366 227.058556 
z
" clip-path="url(#pb8df52aada)" style="fill: #808080; stroke: #000000; stroke-width: 0.4"/>
    <path d="M 437.410468 284.012511 
C 438.348103 284.012511 439.247461 283.639985 439.910468 282.976978 
C 440.573476 282.31397 440.946002 281.414612 440.946002 280.476978 
C 440.946002 279.539343 440.573476 278.639985 439.910468 277.976978 
C 439.247461 277.31397 438.348103 276.941444 437.410468 276.941444 
C 436.472834 276.941444 435.573476 277.31397 434.910468 277.976978 
C 434.247461 278.639985 433.874934 279.539343 433.874934 280.476978 
C 433.874934 281.414612 434.247461 282.31397 434.910468 282.976978 
C 435.573476 283.639985 436.472834 284.012511 437.410468 284.012511 
z
" clip-path="url(#pb8df52aada)" style="fill: #808080; stroke: #000000; stroke-width: 0.4"/>
    <path d="M 459.008264 284.012511 
C 459.945899 284.012511 460.845257 283.639985 461.508264 282.976978 
C 462.171272 282.31397 462.543798 281.414612 462.543798 280.476978 
C 462.543798 279.539343 462.171272 278.639985 461.508264 277.976978 
C 460.845257 277.31397 459.945899 276.941444 459.008264 276.941444 
C 458.07063 276.941444 457.171272 277.31397 456.508264 277.976978 
C 455.845257 278.639985 455.472731 279.539343 455.472731 280.476978 
C 455.472731 281.414612 455.845257 282.31397 456.508264 282.976978 
C 457.171272 283.639985 458.07063 284.012511 459.008264 284.012511 
z
" clip-path="url(#pb8df52aada)" style="fill: #808080; stroke: #000000; stroke-width: 0.4"/>
    <path d="M 426.61157 227.058556 
C 427.549205 227.058556 428.448562 226.68603 429.11157 226.023022 
C 429.774578 225.360015 430.147104 224.460657 430.147104 223.523022 
C 430.147104 222.585388 429.774578 221.68603 429.11157 221.023022 
C 428.448562 220.360015 427.549205 219.987489 426.61157 219.987489 
C 425.673936 219.987489 424.774578 220.360015 424.11157 221.023022 
C 423.448562 221.68603 423.076036 222.585388 423.076036 223.523022 
C 423.076036 224.460657 423.448562 225.360015 424.11157 226.023022 
C 424.774578 226.68603 425.673936 227.058556 426.61157 227.058556 
z
" clip-path="url(#pb8df52aada)" style="fill: #808080; stroke: #000000; stroke-width: 0.4"/>
    <path d="M 502.203857 340.966467 
C 503.141491 340.966467 504.040849 340.59394 504.703857 339.930933 
C 505.366864 339.267925 505.739391 338.368567 505.739391 337.430933 
C 505.739391 336.493298 505.366864 335.59394 504.703857 334.930933 
C 504.040849 334.267925 503.141491 333.895399 502.203857 333.895399 
C 501.266222 333.895399 500.366864 334.267925 499.703857 334.930933 
C 499.040849 335.59394 498.668323 336.493298 498.668323 337.430933 
C 498.668323 338.368567 499.040849 339.267925 499.703857 339.930933 
C 500.366864 340.59394 501.266222 340.966467 502.203857 340.966467 
z
" clip-path="url(#pb8df52aada)" style="fill: #808080; stroke: #000000; stroke-width: 0.4"/>
    <path d="M 513.002755 340.966467 
C 513.940389 340.966467 514.839747 340.59394 515.502755 339.930933 
C 516.165763 339.267925 516.538289 338.368567 516.538289 337.430933 
C 516.538289 336.493298 516.165763 335.59394 515.502755 334.930933 
C 514.839747 334.267925 513.940389 333.895399 513.002755 333.895399 
C 512.06512 333.895399 511.165763 334.267925 510.502755 334.930933 
C 509.839747 335.59394 509.467221 336.493298 509.467221 337.430933 
C 509.467221 338.368567 509.839747 339.267925 510.502755 339.930933 
C 511.165763 340.59394 512.06512 340.966467 513.002755 340.966467 
z
" clip-path="url(#pb8df52aada)" style="fill: #808080; stroke: #000000; stroke-width: 0.4"/>
    <path d="M 534.600551 340.966467 
C 535.538186 340.966467 536.437543 340.59394 537.100551 339.930933 
C 537.763559 339.267925 538.136085 338.368567 538.136085 337.430933 
C 538.136085 336.493298 537.763559 335.59394 537.100551 334.930933 
C 536.437543 334.267925 535.538186 333.895399 534.600551 333.895399 
C 533.662916 333.895399 532.763559 334.267925 532.100551 334.930933 
C 531.437543 335.59394 531.065017 336.493298 531.065017 337.430933 
C 531.065017 338.368567 531.437543 339.267925 532.100551 339.930933 
C 532.763559 340.59394 533.662916 340.966467 534.600551 340.966467 
z
" clip-path="url(#pb8df52aada)" style="fill: #808080; stroke: #000000; stroke-width: 0.4"/>
    <path d="M 545.399449 340.966467 
C 546.337084 340.966467 547.236441 340.59394 547.899449 339.930933 
C 548.562457 339.267925 548.934983 338.368567 548.934983 337.430933 
C 548.934983 336.493298 548.562457 335.59394 547.899449 334.930933 
C 547.236441 334.267925 546.337084 333.895399 545.399449 333.895399 
C 544.461814 333.895399 543.562457 334.267925 542.899449 334.930933 
C 542.236441 335.59394 541.863915 336.493298 541.863915 337.430933 
C 541.863915 338.368567 542.236441 339.267925 542.899449 339.930933 
C 543.562457 340.59394 544.461814 340.966467 545.399449 340.966467 
z
" clip-path="url(#pb8df52aada)" style="fill: #808080; stroke: #000000; stroke-width: 0.4"/>
    <path d="M 523.801653 284.012511 
C 524.739287 284.012511 525.638645 283.639985 526.301653 282.976978 
C 526.964661 282.31397 527.337187 281.414612 527.337187 280.476978 
C 527.337187 279.539343 526.964661 278.639985 526.301653 277.976978 
C 525.638645 277.31397 524.739287 276.941444 523.801653 276.941444 
C 522.864018 276.941444 521.964661 277.31397 521.301653 277.976978 
C 520.638645 278.639985 520.266119 279.539343 520.266119 280.476978 
C 520.266119 281.414612 520.638645 282.31397 521.301653 282.976978 
C 521.964661 283.639985 522.864018 284.012511 523.801653 284.012511 
z
" clip-path="url(#pb8df52aada)" style="fill: #808080; stroke: #000000; stroke-width: 0.4"/>
    <path d="M 491.404959 284.012511 
C 492.342593 284.012511 493.241951 283.639985 493.904959 282.976978 
C 494.567966 282.31397 494.940493 281.414612 494.940493 280.476978 
C 494.940493 279.539343 494.567966 278.639985 493.904959 277.976978 
C 493.241951 277.31397 492.342593 276.941444 491.404959 276.941444 
C 490.467324 276.941444 489.567966 277.31397 488.904959 277.976978 
C 488.241951 278.639985 487.869425 279.539343 487.869425 280.476978 
C 487.869425 281.414612 488.241951 282.31397 488.904959 282.976978 
C 489.567966 283.639985 490.467324 284.012511 491.404959 284.012511 
z
" clip-path="url(#pb8df52aada)" style="fill: #808080; stroke: #000000; stroke-width: 0.4"/>
    <path d="M 480.606061 340.966467 
C 481.543695 340.966467 482.443053 340.59394 483.106061 339.930933 
C 483.769068 339.267925 484.141595 338.368567 484.141595 337.430933 
C 484.141595 336.493298 483.769068 335.59394 483.106061 334.930933 
C 482.443053 334.267925 481.543695 333.895399 480.606061 333.895399 
C 479.668426 333.895399 478.769068 334.267925 478.106061 334.930933 
C 477.443053 335.59394 477.070527 336.493298 477.070527 337.430933 
C 477.070527 338.368567 477.443053 339.267925 478.106061 339.930933 
C 478.769068 340.59394 479.668426 340.966467 480.606061 340.966467 
z
" clip-path="url(#pb8df52aada)" style="fill: #808080; stroke: #000000; stroke-width: 0.4"/>
    <path d="M 588.595041 454.874377 
C 589.532676 454.874377 590.432034 454.501851 591.095041 453.838843 
C 591.758049 453.175835 592.130575 452.276478 592.130575 451.338843 
C 592.130575 450.401208 591.758049 449.501851 591.095041 448.838843 
C 590.432034 448.175835 589.532676 447.803309 588.595041 447.803309 
C 587.657407 447.803309 586.758049 448.175835 586.095041 448.838843 
C 585.432034 449.501851 585.059507 450.401208 585.059507 451.338843 
C 585.059507 452.276478 585.432034 453.175835 586.095041 453.838843 
C 586.758049 454.501851 587.657407 454.874377 588.595041 454.874377 
z
" clip-path="url(#pb8df52aada)" style="fill: #808080; stroke: #000000; stroke-width: 0.4"/>
    <path d="M 599.393939 454.874377 
C 600.331574 454.874377 601.230932 454.501851 601.893939 453.838843 
C 602.556947 453.175835 602.929473 452.276478 602.929473 451.338843 
C 602.929473 450.401208 602.556947 449.501851 601.893939 448.838843 
C 601.230932 448.175835 600.331574 447.803309 599.393939 447.803309 
C 598.456305 447.803309 597.556947 448.175835 596.893939 448.838843 
C 596.230932 449.501851 595.858405 450.401208 595.858405 451.338843 
C 595.858405 452.276478 596.230932 453.175835 596.893939 453.838843 
C 597.556947 454.501851 598.456305 454.874377 599.393939 454.874377 
z
" clip-path="url(#pb8df52aada)" style="fill: #808080; stroke: #000000; stroke-width: 0.4"/>
    <path d="M 577.796143 397.920422 
C 578.733778 397.920422 579.633136 397.547896 580.296143 396.884888 
C 580.959151 396.22188 581.331677 395.322522 581.331677 394.384888 
C 581.331677 393.447253 580.959151 392.547896 580.296143 391.884888 
C 579.633136 391.22188 578.733778 390.849354 577.796143 390.849354 
C 576.858509 390.849354 575.959151 391.22188 575.296143 391.884888 
C 574.633136 392.547896 574.260609 393.447253 574.260609 394.384888 
C 574.260609 395.322522 574.633136 396.22188 575.296143 396.884888 
C 575.959151 397.547896 576.858509 397.920422 577.796143 397.920422 
z
" clip-path="url(#pb8df52aada)" style="fill: #808080; stroke: #000000; stroke-width: 0.4"/>
    <path d="M 566.997245 454.874377 
C 567.93488 454.874377 568.834237 454.501851 569.497245 453.838843 
C 570.160253 453.175835 570.532779 452.276478 570.532779 451.338843 
C 570.532779 450.401208 570.160253 449.501851 569.497245 448.838843 
C 568.834237 448.175835 567.93488 447.803309 566.997245 447.803309 
C 566.059611 447.803309 565.160253 448.175835 564.497245 448.838843 
C 563.834237 449.501851 563.461711 450.401208 563.461711 451.338843 
C 563.461711 452.276478 563.834237 453.175835 564.497245 453.838843 
C 565.160253 454.501851 566.059611 454.874377 566.997245 454.874377 
z
" clip-path="url(#pb8df52aada)" style="fill: #808080; stroke: #000000; stroke-width: 0.4"/>
    <path d="M 631.790634 454.874377 
C 632.728268 454.874377 633.627626 454.501851 634.290634 453.838843 
C 634.953641 453.175835 635.326168 452.276478 635.326168 451.338843 
C 635.326168 450.401208 634.953641 449.501851 634.290634 448.838843 
C 633.627626 448.175835 632.728268 447.803309 631.790634 447.803309 
C 630.852999 447.803309 629.953641 448.175835 629.290634 448.838843 
C 628.627626 449.501851 628.2551 450.401208 628.2551 451.338843 
C 628.2551 452.276478 628.627626 453.175835 629.290634 453.838843 
C 629.953641 454.501851 630.852999 454.874377 631.790634 454.874377 
z
" clip-path="url(#pb8df52aada)" style="fill: #808080; stroke: #000000; stroke-width: 0.4"/>
    <path d="M 642.589532 454.874377 
C 643.527166 454.874377 644.426524 454.501851 645.089532 453.838843 
C 645.752539 453.175835 646.125066 452.276478 646.125066 451.338843 
C 646.125066 450.401208 645.752539 449.501851 645.089532 448.838843 
C 644.426524 448.175835 643.527166 447.803309 642.589532 447.803309 
C 641.651897 447.803309 640.752539 448.175835 640.089532 448.838843 
C 639.426524 449.501851 639.053998 450.401208 639.053998 451.338843 
C 639.053998 452.276478 639.426524 453.175835 640.089532 453.838843 
C 640.752539 454.501851 641.651897 454.874377 642.589532 454.874377 
z
" clip-path="url(#pb8df52aada)" style="fill: #808080; stroke: #000000; stroke-width: 0.4"/>
    <path d="M 620.991736 454.874377 
C 621.92937 454.874377 622.828728 454.501851 623.491736 453.838843 
C 624.154743 453.175835 624.527269 452.276478 624.527269 451.338843 
C 624.527269 450.401208 624.154743 449.501851 623.491736 448.838843 
C 622.828728 448.175835 621.92937 447.803309 620.991736 447.803309 
C 620.054101 447.803309 619.154743 448.175835 618.491736 448.838843 
C 617.828728 449.501851 617.456202 450.401208 617.456202 451.338843 
C 617.456202 452.276478 617.828728 453.175835 618.491736 453.838843 
C 619.154743 454.501851 620.054101 454.874377 620.991736 454.874377 
z
" clip-path="url(#pb8df52aada)" style="fill: #808080; stroke: #000000; stroke-width: 0.4"/>
    <path d="M 653.38843 397.920422 
C 654.326064 397.920422 655.225422 397.547896 655.88843 396.884888 
C 656.551438 396.22188 656.923964 395.322522 656.923964 394.384888 
C 656.923964 393.447253 656.551438 392.547896 655.88843 391.884888 
C 655.225422 391.22188 654.326064 390.849354 653.38843 390.849354 
C 652.450795 390.849354 651.551438 391.22188 650.88843 391.884888 
C 650.225422 392.547896 649.852896 393.447253 649.852896 394.384888 
C 649.852896 395.322522 650.225422 396.22188 650.88843 396.884888 
C 651.551438 397.547896 652.450795 397.920422 653.38843 397.920422 
z
" clip-path="url(#pb8df52aada)" style="fill: #808080; stroke: #000000; stroke-width: 0.4"/>
    <path d="M 664.187328 454.874377 
C 665.124962 454.874377 666.02432 454.501851 666.687328 453.838843 
C 667.350336 453.175835 667.722862 452.276478 667.722862 451.338843 
C 667.722862 450.401208 667.350336 449.501851 666.687328 448.838843 
C 666.02432 448.175835 665.124962 447.803309 664.187328 447.803309 
C 663.249693 447.803309 662.350336 448.175835 661.687328 448.838843 
C 661.02432 449.501851 660.651794 450.401208 660.651794 451.338843 
C 660.651794 452.276478 661.02432 453.175835 661.687328 453.838843 
C 662.350336 454.501851 663.249693 454.874377 664.187328 454.874377 
z
" clip-path="url(#pb8df52aada)" style="fill: #808080; stroke: #000000; stroke-width: 0.4"/>
    <path d="M 718.181818 456.338843 
C 719.507834 456.338843 720.779718 455.812011 721.717352 454.874377 
C 722.654987 453.936742 723.181818 452.664858 723.181818 451.338843 
C 723.181818 450.012827 722.654987 448.740944 721.717352 447.803309 
C 720.779718 446.865675 719.507834 446.338843 718.181818 446.338843 
C 716.855803 446.338843 715.583919 446.865675 714.646284 447.803309 
C 713.70865 448.740944 713.181818 450.012827 713.181818 451.338843 
C 713.181818 452.664858 713.70865 453.936742 714.646284 454.874377 
C 715.583919 455.812011 716.855803 456.338843 718.181818 456.338843 
z
" clip-path="url(#pb8df52aada)" style="fill: #008000; stroke: #000000; stroke-width: 0.4"/>
    <path d="M 728.980716 454.874377 
C 729.918351 454.874377 730.817709 454.501851 731.480716 453.838843 
C 732.143724 453.175835 732.51625 452.276478 732.51625 451.338843 
C 732.51625 450.401208 732.143724 449.501851 731.480716 448.838843 
C 730.817709 448.175835 729.918351 447.803309 728.980716 447.803309 
C 728.043082 447.803309 727.143724 448.175835 726.480716 448.838843 
C 725.817709 449.501851 725.445182 450.401208 725.445182 451.338843 
C 725.445182 452.276478 725.817709 453.175835 726.480716 453.838843 
C 727.143724 454.501851 728.043082 454.874377 728.980716 454.874377 
z
" clip-path="url(#pb8df52aada)" style="fill: #808080; stroke: #000000; stroke-width: 0.4"/>
    <path d="M 707.38292 456.338843 
C 708.708936 456.338843 709.980819 455.812011 710.918454 454.874377 
C 711.856089 453.936742 712.38292 452.664858 712.38292 451.338843 
C 712.38292 450.012827 711.856089 448.740944 710.918454 447.803309 
C 709.980819 446.865675 708.708936 446.338843 707.38292 446.338843 
C 706.056905 446.338843 704.785021 446.865675 703.847386 447.803309 
C 702.909752 448.740944 702.38292 450.012827 702.38292 451.338843 
C 702.38292 452.664858 702.909752 453.936742 703.847386 454.874377 
C 704.785021 455.812011 706.056905 456.338843 707.38292 456.338843 
z
" clip-path="url(#pb8df52aada)" style="stroke: #000000; stroke-width: 0.4"/>
    <path d="M 750.578512 454.874377 
C 751.516147 454.874377 752.415505 454.501851 753.078512 453.838843 
C 753.74152 453.175835 754.114046 452.276478 754.114046 451.338843 
C 754.114046 450.401208 753.74152 449.501851 753.078512 448.838843 
C 752.415505 448.175835 751.516147 447.803309 750.578512 447.803309 
C 749.640878 447.803309 748.74152 448.175835 748.078512 448.838843 
C 747.415505 449.501851 747.042978 450.401208 747.042978 451.338843 
C 747.042978 452.276478 747.415505 453.175835 748.078512 453.838843 
C 748.74152 454.501851 749.640878 454.874377 750.578512 454.874377 
z
" clip-path="url(#pb8df52aada)" style="fill: #808080; stroke: #000000; stroke-width: 0.4"/>
    <path d="M 761.37741 454.874377 
C 762.315045 454.874377 763.214403 454.501851 763.87741 453.838843 
C 764.540418 453.175835 764.912944 452.276478 764.912944 451.338843 
C 764.912944 450.401208 764.540418 449.501851 763.87741 448.838843 
C 763.214403 448.175835 762.315045 447.803309 761.37741 447.803309 
C 760.439776 447.803309 759.540418 448.175835 758.87741 448.838843 
C 758.214403 449.501851 757.841877 450.401208 757.841877 451.338843 
C 757.841877 452.276478 758.214403 453.175835 758.87741 453.838843 
C 759.540418 454.501851 760.439776 454.874377 761.37741 454.874377 
z
" clip-path="url(#pb8df52aada)" style="fill: #808080; stroke: #000000; stroke-width: 0.4"/>
    <path d="M 772.176309 397.920422 
C 773.113943 397.920422 774.013301 397.547896 774.676309 396.884888 
C 775.339316 396.22188 775.711842 395.322522 775.711842 394.384888 
C 775.711842 393.447253 775.339316 392.547896 774.676309 391.884888 
C 774.013301 391.22188 773.113943 390.849354 772.176309 390.849354 
C 771.238674 390.849354 770.339316 391.22188 769.676309 391.884888 
C 769.013301 392.547896 768.640775 393.447253 768.640775 394.384888 
C 768.640775 395.322522 769.013301 396.22188 769.676309 396.884888 
C 770.339316 397.547896 771.238674 397.920422 772.176309 397.920422 
z
" clip-path="url(#pb8df52aada)" style="fill: #808080; stroke: #000000; stroke-width: 0.4"/>
    <path d="M 782.975207 454.874377 
C 783.912841 454.874377 784.812199 454.501851 785.475207 453.838843 
C 786.138214 453.175835 786.510741 452.276478 786.510741 451.338843 
C 786.510741 450.401208 786.138214 449.501851 785.475207 448.838843 
C 784.812199 448.175835 783.912841 447.803309 782.975207 447.803309 
C 782.037572 447.803309 781.138214 448.175835 780.475207 448.838843 
C 779.812199 449.501851 779.439673 450.401208 779.439673 451.338843 
C 779.439673 452.276478 779.812199 453.175835 780.475207 453.838843 
C 781.138214 454.501851 782.037572 454.874377 782.975207 454.874377 
z
" clip-path="url(#pb8df52aada)" style="fill: #808080; stroke: #000000; stroke-width: 0.4"/>
    <path d="M 739.779614 399.384888 
C 741.10563 399.384888 742.377514 398.858056 743.315148 397.920422 
C 744.252783 396.982787 744.779614 395.710903 744.779614 394.384888 
C 744.779614 393.058872 744.252783 391.786988 743.315148 390.849354 
C 742.377514 389.911719 741.10563 389.384888 739.779614 389.384888 
C 738.453599 389.384888 737.181715 389.911719 736.24408 390.849354 
C 735.306446 391.786988 734.779614 393.058872 734.779614 394.384888 
C 734.779614 395.710903 735.306446 396.982787 736.24408 397.920422 
C 737.181715 398.858056 738.453599 399.384888 739.779614 399.384888 
z
" clip-path="url(#pb8df52aada)" style="fill: #008000; stroke: #000000; stroke-width: 0.4"/>
    <path d="M 696.584022 399.384888 
C 697.910038 399.384888 699.181921 398.858056 700.119556 397.920422 
C 701.05719 396.982787 701.584022 395.710903 701.584022 394.384888 
C 701.584022 393.058872 701.05719 391.786988 700.119556 390.849354 
C 699.181921 389.911719 697.910038 389.384888 696.584022 389.384888 
C 695.258007 389.384888 693.986123 389.911719 693.048488 390.849354 
C 692.110854 391.786988 691.584022 393.058872 691.584022 394.384888 
C 691.584022 395.710903 692.110854 396.982787 693.048488 397.920422 
C 693.986123 398.858056 695.258007 399.384888 696.584022 399.384888 
z
" clip-path="url(#pb8df52aada)" style="stroke: #000000; stroke-width: 0.4"/>
    <path d="M 685.785124 454.874377 
C 686.722759 454.874377 687.622116 454.501851 688.285124 453.838843 
C 688.948132 453.175835 689.320658 452.276478 689.320658 451.338843 
C 689.320658 450.401208 688.948132 449.501851 688.285124 448.838843 
C 687.622116 448.175835 686.722759 447.803309 685.785124 447.803309 
C 684.847489 447.803309 683.948132 448.175835 683.285124 448.838843 
C 682.622116 449.501851 682.24959 450.401208 682.24959 451.338843 
C 682.24959 452.276478 682.622116 453.175835 683.285124 453.838843 
C 683.948132 454.501851 684.847489 454.874377 685.785124 454.874377 
z
" clip-path="url(#pb8df52aada)" style="fill: #808080; stroke: #000000; stroke-width: 0.4"/>
    <path d="M 826.170799 454.874377 
C 827.108433 454.874377 828.007791 454.501851 828.670799 453.838843 
C 829.333807 453.175835 829.706333 452.276478 829.706333 451.338843 
C 829.706333 450.401208 829.333807 449.501851 828.670799 448.838843 
C 828.007791 448.175835 827.108433 447.803309 826.170799 447.803309 
C 825.233164 447.803309 824.333807 448.175835 823.670799 448.838843 
C 823.007791 449.501851 822.635265 450.401208 822.635265 451.338843 
C 822.635265 452.276478 823.007791 453.175835 823.670799 453.838843 
C 824.333807 454.501851 825.233164 454.874377 826.170799 454.874377 
z
" clip-path="url(#pb8df52aada)" style="fill: #808080; stroke: #000000; stroke-width: 0.4"/>
    <path d="M 836.969697 454.874377 
C 837.907332 454.874377 838.806689 454.501851 839.469697 453.838843 
C 840.132705 453.175835 840.505231 452.276478 840.505231 451.338843 
C 840.505231 450.401208 840.132705 449.501851 839.469697 448.838843 
C 838.806689 448.175835 837.907332 447.803309 836.969697 447.803309 
C 836.032062 447.803309 835.132705 448.175835 834.469697 448.838843 
C 833.806689 449.501851 833.434163 450.401208 833.434163 451.338843 
C 833.434163 452.276478 833.806689 453.175835 834.469697 453.838843 
C 835.132705 454.501851 836.032062 454.874377 836.969697 454.874377 
z
" clip-path="url(#pb8df52aada)" style="fill: #808080; stroke: #000000; stroke-width: 0.4"/>
    <path d="M 815.371901 397.920422 
C 816.309535 397.920422 817.208893 397.547896 817.871901 396.884888 
C 818.534909 396.22188 818.907435 395.322522 818.907435 394.384888 
C 818.907435 393.447253 818.534909 392.547896 817.871901 391.884888 
C 817.208893 391.22188 816.309535 390.849354 815.371901 390.849354 
C 814.434266 390.849354 813.534909 391.22188 812.871901 391.884888 
C 812.208893 392.547896 811.836367 393.447253 811.836367 394.384888 
C 811.836367 395.322522 812.208893 396.22188 812.871901 396.884888 
C 813.534909 397.547896 814.434266 397.920422 815.371901 397.920422 
z
" clip-path="url(#pb8df52aada)" style="fill: #808080; stroke: #000000; stroke-width: 0.4"/>
    <path d="M 804.573003 454.874377 
C 805.510637 454.874377 806.409995 454.501851 807.073003 453.838843 
C 807.736011 453.175835 808.108537 452.276478 808.108537 451.338843 
C 808.108537 450.401208 807.736011 449.501851 807.073003 448.838843 
C 806.409995 448.175835 805.510637 447.803309 804.573003 447.803309 
C 803.635368 447.803309 802.736011 448.175835 802.073003 448.838843 
C 801.409995 449.501851 801.037469 450.401208 801.037469 451.338843 
C 801.037469 452.276478 801.409995 453.175835 802.073003 453.838843 
C 802.736011 454.501851 803.635368 454.874377 804.573003 454.874377 
z
" clip-path="url(#pb8df52aada)" style="fill: #808080; stroke: #000000; stroke-width: 0.4"/>
    <path d="M 793.774105 342.430933 
C 795.10012 342.430933 796.372004 341.904101 797.309639 340.966467 
C 798.247273 340.028832 798.774105 338.756948 798.774105 337.430933 
C 798.774105 336.104917 798.247273 334.833033 797.309639 333.895399 
C 796.372004 332.957764 795.10012 332.430933 793.774105 332.430933 
C 792.448089 332.430933 791.176205 332.957764 790.238571 333.895399 
C 789.300936 334.833033 788.774105 336.104917 788.774105 337.430933 
C 788.774105 338.756948 789.300936 340.028832 790.238571 340.966467 
C 791.176205 341.904101 792.448089 342.430933 793.774105 342.430933 
z
" clip-path="url(#pb8df52aada)" style="stroke: #000000; stroke-width: 0.4"/>
    <path d="M 674.986226 342.430933 
C 676.312241 342.430933 677.584125 341.904101 678.52176 340.966467 
C 679.459394 340.028832 679.986226 338.756948 679.986226 337.430933 
C 679.986226 336.104917 679.459394 334.833033 678.52176 333.895399 
C 677.584125 332.957764 676.312241 332.430933 674.986226 332.430933 
C 673.66021 332.430933 672.388327 332.957764 671.450692 333.895399 
C 670.513057 334.833033 669.986226 336.104917 669.986226 337.430933 
C 669.986226 338.756948 670.513057 340.028832 671.450692 340.966467 
C 672.388327 341.904101 673.66021 342.430933 674.986226 342.430933 
z
" clip-path="url(#pb8df52aada)" style="fill: #008000; stroke: #000000; stroke-width: 0.4"/>
    <path d="M 610.192837 342.430933 
C 611.518853 342.430933 612.790737 341.904101 613.728371 340.966467 
C 614.666006 340.028832 615.192837 338.756948 615.192837 337.430933 
C 615.192837 336.104917 614.666006 334.833033 613.728371 333.895399 
C 612.790737 332.957764 611.518853 332.430933 610.192837 332.430933 
C 608.866822 332.430933 607.594938 332.957764 606.657304 333.895399 
C 605.719669 334.833033 605.192837 336.104917 605.192837 337.430933 
C 605.192837 338.756948 605.719669 340.028832 606.657304 340.966467 
C 607.594938 341.904101 608.866822 342.430933 610.192837 342.430933 
z
" clip-path="url(#pb8df52aada)" style="stroke: #000000; stroke-width: 0.4"/>
    <path d="M 901.763085 340.966467 
C 902.70072 340.966467 903.600078 340.59394 904.263085 339.930933 
C 904.926093 339.267925 905.298619 338.368567 905.298619 337.430933 
C 905.298619 336.493298 904.926093 335.59394 904.263085 334.930933 
C 903.600078 334.267925 902.70072 333.895399 901.763085 333.895399 
C 900.825451 333.895399 899.926093 334.267925 899.263085 334.930933 
C 898.600078 335.59394 898.227551 336.493298 898.227551 337.430933 
C 898.227551 338.368567 898.600078 339.267925 899.263085 339.930933 
C 899.926093 340.59394 900.825451 340.966467 901.763085 340.966467 
z
" clip-path="url(#pb8df52aada)" style="fill: #808080; stroke: #000000; stroke-width: 0.4"/>
    <path d="M 912.561983 340.966467 
C 913.499618 340.966467 914.398976 340.59394 915.061983 339.930933 
C 915.724991 339.267925 916.097517 338.368567 916.097517 337.430933 
C 916.097517 336.493298 915.724991 335.59394 915.061983 334.930933 
C 914.398976 334.267925 913.499618 333.895399 912.561983 333.895399 
C 911.624349 333.895399 910.724991 334.267925 910.061983 334.930933 
C 909.398976 335.59394 909.02645 336.493298 909.02645 337.430933 
C 909.02645 338.368567 909.398976 339.267925 910.061983 339.930933 
C 910.724991 340.59394 911.624349 340.966467 912.561983 340.966467 
z
" clip-path="url(#pb8df52aada)" style="fill: #808080; stroke: #000000; stroke-width: 0.4"/>
    <path d="M 890.964187 284.012511 
C 891.901822 284.012511 892.80118 283.639985 893.464187 282.976978 
C 894.127195 282.31397 894.499721 281.414612 894.499721 280.476978 
C 894.499721 279.539343 894.127195 278.639985 893.464187 277.976978 
C 892.80118 277.31397 891.901822 276.941444 890.964187 276.941444 
C 890.026553 276.941444 889.127195 277.31397 888.464187 277.976978 
C 887.80118 278.639985 887.428653 279.539343 887.428653 280.476978 
C 887.428653 281.414612 887.80118 282.31397 888.464187 282.976978 
C 889.127195 283.639985 890.026553 284.012511 890.964187 284.012511 
z
" clip-path="url(#pb8df52aada)" style="fill: #808080; stroke: #000000; stroke-width: 0.4"/>
    <path d="M 880.165289 340.966467 
C 881.102924 340.966467 882.002282 340.59394 882.665289 339.930933 
C 883.328297 339.267925 883.700823 338.368567 883.700823 337.430933 
C 883.700823 336.493298 883.328297 335.59394 882.665289 334.930933 
C 882.002282 334.267925 881.102924 333.895399 880.165289 333.895399 
C 879.227655 333.895399 878.328297 334.267925 877.665289 334.930933 
C 877.002282 335.59394 876.629755 336.493298 876.629755 337.430933 
C 876.629755 338.368567 877.002282 339.267925 877.665289 339.930933 
C 878.328297 340.59394 879.227655 340.966467 880.165289 340.966467 
z
" clip-path="url(#pb8df52aada)" style="fill: #808080; stroke: #000000; stroke-width: 0.4"/>
    <path d="M 869.366391 284.012511 
C 870.304026 284.012511 871.203383 283.639985 871.866391 282.976978 
C 872.529399 282.31397 872.901925 281.414612 872.901925 280.476978 
C 872.901925 279.539343 872.529399 278.639985 871.866391 277.976978 
C 871.203383 277.31397 870.304026 276.941444 869.366391 276.941444 
C 868.428757 276.941444 867.529399 277.31397 866.866391 277.976978 
C 866.203383 278.639985 865.830857 279.539343 865.830857 280.476978 
C 865.830857 281.414612 866.203383 282.31397 866.866391 282.976978 
C 867.529399 283.639985 868.428757 284.012511 869.366391 284.012511 
z
" clip-path="url(#pb8df52aada)" style="fill: #008000; stroke: #000000; stroke-width: 0.4"/>
    <path d="M 858.567493 340.966467 
C 859.505128 340.966467 860.404485 340.59394 861.067493 339.930933 
C 861.730501 339.267925 862.103027 338.368567 862.103027 337.430933 
C 862.103027 336.493298 861.730501 335.59394 861.067493 334.930933 
C 860.404485 334.267925 859.505128 333.895399 858.567493 333.895399 
C 857.629859 333.895399 856.730501 334.267925 856.067493 334.930933 
C 855.404485 335.59394 855.031959 336.493298 855.031959 337.430933 
C 855.031959 338.368567 855.404485 339.267925 856.067493 339.930933 
C 856.730501 340.59394 857.629859 340.966467 858.567493 340.966467 
z
" clip-path="url(#pb8df52aada)" style="fill: #808080; stroke: #000000; stroke-width: 0.4"/>
    <path d="M 847.768595 285.476978 
C 849.094611 285.476978 850.366494 284.950146 851.304129 284.012511 
C 852.241763 283.074877 852.768595 281.802993 852.768595 280.476978 
C 852.768595 279.150962 852.241763 277.879078 851.304129 276.941444 
C 850.366494 276.003809 849.094611 275.476978 847.768595 275.476978 
C 846.44258 275.476978 845.170696 276.003809 844.233061 276.941444 
C 843.295427 277.879078 842.768595 279.150962 842.768595 280.476978 
C 842.768595 281.802993 843.295427 283.074877 844.233061 284.012511 
C 845.170696 284.950146 846.44258 285.476978 847.768595 285.476978 
z
" clip-path="url(#pb8df52aada)" style="stroke: #000000; stroke-width: 0.4"/>
    <path d="M 556.198347 228.523022 
C 557.524363 228.523022 558.796246 227.996191 559.733881 227.058556 
C 560.671516 226.120922 561.198347 224.849038 561.198347 223.523022 
C 561.198347 222.197007 560.671516 220.925123 559.733881 219.987489 
C 558.796246 219.049854 557.524363 218.523022 556.198347 218.523022 
C 554.872332 218.523022 553.600448 219.049854 552.662813 219.987489 
C 551.725179 220.925123 551.198347 222.197007 551.198347 223.523022 
C 551.198347 224.849038 551.725179 226.120922 552.662813 227.058556 
C 553.600448 227.996191 554.872332 228.523022 556.198347 228.523022 
z
" clip-path="url(#pb8df52aada)" style="stroke: #000000; stroke-width: 0.4"/>
    <path d="M 469.807163 171.569067 
C 471.133178 171.569067 472.405062 171.042236 473.342696 170.104601 
C 474.280331 169.166967 474.807163 167.895083 474.807163 166.569067 
C 474.807163 165.243052 474.280331 163.971168 473.342696 163.033533 
C 472.405062 162.095899 471.133178 161.569067 469.807163 161.569067 
C 468.481147 161.569067 467.209263 162.095899 466.271629 163.033533 
C 465.333994 163.971168 464.807163 165.243052 464.807163 166.569067 
C 464.807163 167.895083 465.333994 169.166967 466.271629 170.104601 
C 467.209263 171.042236 468.481147 171.569067 469.807163 171.569067 
z
" clip-path="url(#pb8df52aada)" style="stroke: #000000; stroke-width: 0.4"/>
    <path d="M 394.214876 114.615112 
C 395.540892 114.615112 396.812775 114.088281 397.75041 113.150646 
C 398.688044 112.213012 399.214876 110.941128 399.214876 109.615112 
C 399.214876 108.289097 398.688044 107.017213 397.75041 106.079578 
C 396.812775 105.141944 395.540892 104.615112 394.214876 104.615112 
C 392.888861 104.615112 391.616977 105.141944 390.679342 106.079578 
C 389.741708 107.017213 389.214876 108.289097 389.214876 109.615112 
C 389.214876 110.941128 389.741708 112.213012 390.679342 113.150646 
C 391.616977 114.088281 392.888861 114.615112 394.214876 114.615112 
z
" clip-path="url(#pb8df52aada)" style="stroke: #000000; stroke-width: 0.4"/>
    <path d="M 307.823691 114.615112 
C 309.149707 114.615112 310.421591 114.088281 311.359225 113.150646 
C 312.29686 112.213012 312.823691 110.941128 312.823691 109.615112 
C 312.823691 108.289097 312.29686 107.017213 311.359225 106.079578 
C 310.421591 105.141944 309.149707 104.615112 307.823691 104.615112 
C 306.497676 104.615112 305.225792 105.141944 304.288158 106.079578 
C 303.350523 107.017213 302.823691 108.289097 302.823691 109.615112 
C 302.823691 110.941128 303.350523 112.213012 304.288158 113.150646 
C 305.225792 114.088281 306.497676 114.615112 307.823691 114.615112 
z
" clip-path="url(#pb8df52aada)" style="stroke: #000000; stroke-width: 0.4"/>
    <path d="M 221.432507 57.661157 
C 222.758522 57.661157 224.030406 57.134325 224.968041 56.196691 
C 225.905675 55.259056 226.432507 53.987173 226.432507 52.661157 
C 226.432507 51.335142 225.905675 50.063258 224.968041 49.125623 
C 224.030406 48.187989 222.758522 47.661157 221.432507 47.661157 
C 220.106491 47.661157 218.834608 48.187989 217.896973 49.125623 
C 216.959338 50.063258 216.432507 51.335142 216.432507 52.661157 
C 216.432507 53.987173 216.959338 55.259056 217.896973 56.196691 
C 218.834608 57.134325 220.106491 57.661157 221.432507 57.661157 
z
" clip-path="url(#pb8df52aada)" style="stroke: #000000; stroke-width: 0.4"/>
    <path d="M 156.639118 57.661157 
C 157.965134 57.661157 159.237018 57.134325 160.174652 56.196691 
C 161.112287 55.259056 161.639118 53.987173 161.639118 52.661157 
C 161.639118 51.335142 161.112287 50.063258 160.174652 49.125623 
C 159.237018 48.187989 157.965134 47.661157 156.639118 47.661157 
C 155.313103 47.661157 154.041219 48.187989 153.103585 49.125623 
C 152.16595 50.063258 151.639118 51.335142 151.639118 52.661157 
C 151.639118 53.987173 152.16595 55.259056 153.103585 56.196691 
C 154.041219 57.134325 155.313103 57.661157 156.639118 57.661157 
z
" clip-path="url(#pb8df52aada)" style="stroke: #000000; stroke-width: 0.4"/>
    <path d="M 923.360882 113.150646 
C 924.298516 113.150646 925.197874 112.77812 925.860882 112.115112 
C 926.523889 111.452104 926.896415 110.552747 926.896415 109.615112 
C 926.896415 108.677478 926.523889 107.77812 925.860882 107.115112 
C 925.197874 106.452104 924.298516 106.079578 923.360882 106.079578 
C 922.423247 106.079578 921.523889 106.452104 920.860882 107.115112 
C 920.197874 107.77812 919.825348 108.677478 919.825348 109.615112 
C 919.825348 110.552747 920.197874 111.452104 920.860882 112.115112 
C 921.523889 112.77812 922.423247 113.150646 923.360882 113.150646 
z
" clip-path="url(#pb8df52aada)" style="fill: #808080; stroke: #000000; stroke-width: 0.4"/>
    <path d="M 934.15978 113.150646 
C 935.097414 113.150646 935.996772 112.77812 936.65978 112.115112 
C 937.322787 111.452104 937.695314 110.552747 937.695314 109.615112 
C 937.695314 108.677478 937.322787 107.77812 936.65978 107.115112 
C 935.996772 106.452104 935.097414 106.079578 934.15978 106.079578 
C 933.222145 106.079578 932.322787 106.452104 931.65978 107.115112 
C 930.996772 107.77812 930.624246 108.677478 930.624246 109.615112 
C 930.624246 110.552747 930.996772 111.452104 931.65978 112.115112 
C 932.322787 112.77812 933.222145 113.150646 934.15978 113.150646 
z
" clip-path="url(#pb8df52aada)" style="fill: #808080; stroke: #000000; stroke-width: 0.4"/>
    <path d="M 966.556474 56.196691 
C 967.494108 56.196691 968.393466 55.824165 969.056474 55.161157 
C 969.719482 54.498149 970.092008 53.598792 970.092008 52.661157 
C 970.092008 51.723522 969.719482 50.824165 969.056474 50.161157 
C 968.393466 49.498149 967.494108 49.125623 966.556474 49.125623 
C 965.618839 49.125623 964.719482 49.498149 964.056474 50.161157 
C 963.393466 50.824165 963.02094 51.723522 963.02094 52.661157 
C 963.02094 53.598792 963.393466 54.498149 964.056474 55.161157 
C 964.719482 55.824165 965.618839 56.196691 966.556474 56.196691 
z
" clip-path="url(#pb8df52aada)" style="fill: #808080; stroke: #000000; stroke-width: 0.4"/>
    <path d="M 955.757576 113.150646 
C 956.69521 113.150646 957.594568 112.77812 958.257576 112.115112 
C 958.920584 111.452104 959.29311 110.552747 959.29311 109.615112 
C 959.29311 108.677478 958.920584 107.77812 958.257576 107.115112 
C 957.594568 106.452104 956.69521 106.079578 955.757576 106.079578 
C 954.819941 106.079578 953.920584 106.452104 953.257576 107.115112 
C 952.594568 107.77812 952.222042 108.677478 952.222042 109.615112 
C 952.222042 110.552747 952.594568 111.452104 953.257576 112.115112 
C 953.920584 112.77812 954.819941 113.150646 955.757576 113.150646 
z
" clip-path="url(#pb8df52aada)" style="fill: #808080; stroke: #000000; stroke-width: 0.4"/>
    <path d="M 977.355372 113.150646 
C 978.293006 113.150646 979.192364 112.77812 979.855372 112.115112 
C 980.51838 111.452104 980.890906 110.552747 980.890906 109.615112 
C 980.890906 108.677478 980.51838 107.77812 979.855372 107.115112 
C 979.192364 106.452104 978.293006 106.079578 977.355372 106.079578 
C 976.417737 106.079578 975.51838 106.452104 974.855372 107.115112 
C 974.192364 107.77812 973.819838 108.677478 973.819838 109.615112 
C 973.819838 110.552747 974.192364 111.452104 974.855372 112.115112 
C 975.51838 112.77812 976.417737 113.150646 977.355372 113.150646 
z
" clip-path="url(#pb8df52aada)" style="fill: #808080; stroke: #000000; stroke-width: 0.4"/>
    <path d="M 944.958678 56.196691 
C 945.896312 56.196691 946.79567 55.824165 947.458678 55.161157 
C 948.121685 54.498149 948.494212 53.598792 948.494212 52.661157 
C 948.494212 51.723522 948.121685 50.824165 947.458678 50.161157 
C 946.79567 49.498149 945.896312 49.125623 944.958678 49.125623 
C 944.021043 49.125623 943.121685 49.498149 942.458678 50.161157 
C 941.79567 50.824165 941.423144 51.723522 941.423144 52.661157 
C 941.423144 53.598792 941.79567 54.498149 942.458678 55.161157 
C 943.121685 55.824165 944.021043 56.196691 944.958678 56.196691 
z
" clip-path="url(#pb8df52aada)" style="fill: #808080; stroke: #000000; stroke-width: 0.4"/>
   </g>
   <g id="line2d_1">
    <path d="M 712.782369 493.2 
L 712.782369 10.8 
" clip-path="url(#pb8df52aada)" style="fill: none; stroke: #ff0000; stroke-width: 1.5; stroke-linecap: square"/>
   </g>
   <g id="patch_3">
    <path d="M 10.8 493.2 
L 10.8 10.8 
" style="fill: none; stroke: #000000; stroke-width: 0.8; stroke-linejoin: miter; stroke-linecap: square"/>
   </g>
   <g id="patch_4">
    <path d="M 1069.2 493.2 
L 1069.2 10.8 
" style="fill: none; stroke: #000000; stroke-width: 0.8; stroke-linejoin: miter; stroke-linecap: square"/>
   </g>
   <g id="patch_5">
    <path d="M 10.8 493.2 
L 1069.2 493.2 
" style="fill: none; stroke: #000000; stroke-width: 0.8; stroke-linejoin: miter; stroke-linecap: square"/>
   </g>
   <g id="patch_6">
    <path d="M 10.8 10.8 
L 1069.2 10.8 
" style="fill: none; stroke: #000000; stroke-width: 0.8; stroke-linejoin: miter; stroke-linecap: square"/>
   </g>
  </g>
 </g>
 <defs>
  <clipPath id="pb8df52aada">
   <rect x="10.8" y="10.8" width="1058.4" height="482.4"/>
  </clipPath>
 </defs>
</svg>
