<?xml version="1.0" encoding="utf-8" standalone="no"?>
<!DOCTYPE svg PUBLIC "-//W3C//DTD SVG 1.1//EN"
  "http://www.w3.org/Graphics/SVG/1.1/DTD/svg11.dtd">
<svg xmlns:xlink="http://www.w3.org/1999/xlink" width="1080pt" height="504pt" viewBox="0 0 1080 504" xmlns="http://www.w3.org/2000/svg" version="1.1">
 <metadata>
  <rdf:RDF xmlns:dc="http://purl.org/dc/elements/1.1/" xmlns:cc="http://creativecommons.org/ns#" xmlns:rdf="http://www.w3.org/1999/02/22-rdf-syntax-ns#">
   <cc:Work>
    <dc:type rdf:resource="http://purl.org/dc/dcmitype/StillImage"/>
    <dc:date>2022-04-22T08:08:22.492703</dc:date>
    <dc:format>image/svg+xml</dc:format>
    <dc:creator>
     <cc:Agent>
      <dc:title>Matplotlib v3.5.1, https://matplotlib.org/</dc:title>
     </cc:Agent>
    </dc:creator>
   </cc:Work>
  </rdf:RDF>
 </metadata>
 <defs>
  <style type="text/css">*{stroke-linejoin: round; stroke-linecap: butt}</style>
 </defs>
 <g id="figure_1">
  <g id="patch_1">
   <path d="M 0 504 
L 1080 504 
L 1080 0 
L 0 0 
z
" style="fill: #ffffff"/>
  </g>
  <g id="axes_1">
   <g id="patch_2">
    <path d="M 10.8 493.2 
L 1069.2 493.2 
L 1069.2 10.8 
L 10.8 10.8 
z
" style="fill: #ffffff"/>
   </g>
   <g id="LineCollection_1">
    <path d="M 102.644628 52.661157 
L 116.528926 52.661157 
" clip-path="url(#pe0a00eb29c)" style="fill: none; stroke: #000000; stroke-width: 0.4"/>
    <path d="M 130.413223 52.661157 
L 144.297521 52.661157 
" clip-path="url(#pe0a00eb29c)" style="fill: none; stroke: #000000; stroke-width: 0.4"/>
    <path d="M 172.066116 52.661157 
L 158.181818 96.958678 
" clip-path="url(#pe0a00eb29c)" style="fill: none; stroke: #000000; stroke-width: 0.4"/>
    <path d="M 172.066116 52.661157 
L 185.950413 96.958678 
" clip-path="url(#pe0a00eb29c)" style="fill: none; stroke: #000000; stroke-width: 0.4"/>
    <path d="M 255.371901 141.256198 
L 269.256198 141.256198 
" clip-path="url(#pe0a00eb29c)" style="fill: none; stroke: #000000; stroke-width: 0.4"/>
    <path d="M 255.371901 141.256198 
L 241.487603 96.958678 
" clip-path="url(#pe0a00eb29c)" style="fill: none; stroke: #000000; stroke-width: 0.4"/>
    <path d="M 241.487603 96.958678 
L 227.603306 141.256198 
" clip-path="url(#pe0a00eb29c)" style="fill: none; stroke: #000000; stroke-width: 0.4"/>
    <path d="M 241.487603 96.958678 
L 213.719008 96.958678 
" clip-path="url(#pe0a00eb29c)" style="fill: none; stroke: #000000; stroke-width: 0.4"/>
    <path d="M 213.719008 96.958678 
L 199.834711 141.256198 
" clip-path="url(#pe0a00eb29c)" style="fill: none; stroke: #000000; stroke-width: 0.4"/>
    <path d="M 213.719008 96.958678 
L 283.140496 52.661157 
" clip-path="url(#pe0a00eb29c)" style="fill: none; stroke: #000000; stroke-width: 0.4"/>
    <path d="M 297.024793 274.14876 
L 310.909091 274.14876 
" clip-path="url(#pe0a00eb29c)" style="fill: none; stroke: #000000; stroke-width: 0.4"/>
    <path d="M 297.024793 274.14876 
L 324.793388 229.85124 
" clip-path="url(#pe0a00eb29c)" style="fill: none; stroke: #000000; stroke-width: 0.4"/>
    <path d="M 352.561983 229.85124 
L 338.677686 274.14876 
" clip-path="url(#pe0a00eb29c)" style="fill: none; stroke: #000000; stroke-width: 0.4"/>
    <path d="M 352.561983 229.85124 
L 366.446281 274.14876 
" clip-path="url(#pe0a00eb29c)" style="fill: none; stroke: #000000; stroke-width: 0.4"/>
    <path d="M 352.561983 229.85124 
L 324.793388 229.85124 
" clip-path="url(#pe0a00eb29c)" style="fill: none; stroke: #000000; stroke-width: 0.4"/>
    <path d="M 324.793388 229.85124 
L 380.330579 185.553719 
" clip-path="url(#pe0a00eb29c)" style="fill: none; stroke: #000000; stroke-width: 0.4"/>
    <path d="M 394.214876 318.446281 
L 408.099174 318.446281 
" clip-path="url(#pe0a00eb29c)" style="fill: none; stroke: #000000; stroke-width: 0.4"/>
    <path d="M 394.214876 318.446281 
L 421.983471 274.14876 
" clip-path="url(#pe0a00eb29c)" style="fill: none; stroke: #000000; stroke-width: 0.4"/>
    <path d="M 449.752066 274.14876 
L 435.867769 318.446281 
" clip-path="url(#pe0a00eb29c)" style="fill: none; stroke: #000000; stroke-width: 0.4"/>
    <path d="M 449.752066 274.14876 
L 463.636364 318.446281 
" clip-path="url(#pe0a00eb29c)" style="fill: none; stroke: #000000; stroke-width: 0.4"/>
    <path d="M 449.752066 274.14876 
L 421.983471 274.14876 
" clip-path="url(#pe0a00eb29c)" style="fill: none; stroke: #000000; stroke-width: 0.4"/>
    <path d="M 421.983471 274.14876 
L 477.520661 229.85124 
" clip-path="url(#pe0a00eb29c)" style="fill: none; stroke: #000000; stroke-width: 0.4"/>
    <path d="M 491.404959 318.446281 
L 505.289256 318.446281 
" clip-path="url(#pe0a00eb29c)" style="fill: none; stroke: #000000; stroke-width: 0.4"/>
    <path d="M 491.404959 318.446281 
L 519.173554 274.14876 
" clip-path="url(#pe0a00eb29c)" style="fill: none; stroke: #000000; stroke-width: 0.4"/>
    <path d="M 630.247934 407.041322 
L 644.132231 407.041322 
" clip-path="url(#pe0a00eb29c)" style="fill: none; stroke: #000000; stroke-width: 0.4"/>
    <path d="M 630.247934 407.041322 
L 616.363636 407.041322 
" clip-path="url(#pe0a00eb29c)" style="fill: none; stroke: #000000; stroke-width: 0.4"/>
    <path d="M 616.363636 407.041322 
L 658.016529 362.743802 
" clip-path="url(#pe0a00eb29c)" style="fill: none; stroke: #000000; stroke-width: 0.4"/>
    <path d="M 685.785124 407.041322 
L 699.669421 407.041322 
" clip-path="url(#pe0a00eb29c)" style="fill: none; stroke: #000000; stroke-width: 0.4"/>
    <path d="M 685.785124 407.041322 
L 671.900826 407.041322 
" clip-path="url(#pe0a00eb29c)" style="fill: none; stroke: #000000; stroke-width: 0.4"/>
    <path d="M 671.900826 407.041322 
L 713.553719 362.743802 
" clip-path="url(#pe0a00eb29c)" style="fill: none; stroke: #000000; stroke-width: 0.4"/>
    <path d="M 741.322314 451.338843 
L 755.206612 451.338843 
" clip-path="url(#pe0a00eb29c)" style="fill: none; stroke: #000000; stroke-width: 0.4"/>
    <path d="M 741.322314 451.338843 
L 727.438017 451.338843 
" clip-path="url(#pe0a00eb29c)" style="fill: none; stroke: #000000; stroke-width: 0.4"/>
    <path d="M 727.438017 451.338843 
L 769.090909 407.041322 
" clip-path="url(#pe0a00eb29c)" style="fill: none; stroke: #000000; stroke-width: 0.4"/>
    <path d="M 796.859504 451.338843 
L 810.743802 451.338843 
" clip-path="url(#pe0a00eb29c)" style="fill: none; stroke: #000000; stroke-width: 0.4"/>
    <path d="M 796.859504 451.338843 
L 782.975207 451.338843 
" clip-path="url(#pe0a00eb29c)" style="fill: none; stroke: #000000; stroke-width: 0.4"/>
    <path d="M 782.975207 451.338843 
L 824.628099 407.041322 
" clip-path="url(#pe0a00eb29c)" style="fill: none; stroke: #000000; stroke-width: 0.4"/>
    <path d="M 838.512397 451.338843 
L 852.396694 451.338843 
" clip-path="url(#pe0a00eb29c)" style="fill: none; stroke: #000000; stroke-width: 0.4"/>
    <path d="M 838.512397 451.338843 
L 824.628099 407.041322 
" clip-path="url(#pe0a00eb29c)" style="fill: none; stroke: #000000; stroke-width: 0.4"/>
    <path d="M 824.628099 407.041322 
L 769.090909 407.041322 
" clip-path="url(#pe0a00eb29c)" style="fill: none; stroke: #000000; stroke-width: 0.4"/>
    <path d="M 769.090909 407.041322 
L 713.553719 362.743802 
" clip-path="url(#pe0a00eb29c)" style="fill: none; stroke: #000000; stroke-width: 0.4"/>
    <path d="M 713.553719 362.743802 
L 658.016529 362.743802 
" clip-path="url(#pe0a00eb29c)" style="fill: none; stroke: #000000; stroke-width: 0.4"/>
    <path d="M 658.016529 362.743802 
L 602.479339 318.446281 
" clip-path="url(#pe0a00eb29c)" style="fill: none; stroke: #000000; stroke-width: 0.4"/>
    <path d="M 602.479339 318.446281 
L 588.595041 362.743802 
" clip-path="url(#pe0a00eb29c)" style="fill: none; stroke: #000000; stroke-width: 0.4"/>
    <path d="M 602.479339 318.446281 
L 574.710744 318.446281 
" clip-path="url(#pe0a00eb29c)" style="fill: none; stroke: #000000; stroke-width: 0.4"/>
    <path d="M 574.710744 318.446281 
L 560.826446 362.743802 
" clip-path="url(#pe0a00eb29c)" style="fill: none; stroke: #000000; stroke-width: 0.4"/>
    <path d="M 574.710744 318.446281 
L 546.942149 274.14876 
" clip-path="url(#pe0a00eb29c)" style="fill: none; stroke: #000000; stroke-width: 0.4"/>
    <path d="M 546.942149 274.14876 
L 533.057851 318.446281 
" clip-path="url(#pe0a00eb29c)" style="fill: none; stroke: #000000; stroke-width: 0.4"/>
    <path d="M 546.942149 274.14876 
L 519.173554 274.14876 
" clip-path="url(#pe0a00eb29c)" style="fill: none; stroke: #000000; stroke-width: 0.4"/>
    <path d="M 519.173554 274.14876 
L 477.520661 229.85124 
" clip-path="url(#pe0a00eb29c)" style="fill: none; stroke: #000000; stroke-width: 0.4"/>
    <path d="M 477.520661 229.85124 
L 380.330579 185.553719 
" clip-path="url(#pe0a00eb29c)" style="fill: none; stroke: #000000; stroke-width: 0.4"/>
    <path d="M 380.330579 185.553719 
L 866.280992 141.256198 
" clip-path="url(#pe0a00eb29c)" style="fill: none; stroke: #000000; stroke-width: 0.4"/>
    <path d="M 894.049587 185.553719 
L 880.165289 229.85124 
" clip-path="url(#pe0a00eb29c)" style="fill: none; stroke: #000000; stroke-width: 0.4"/>
    <path d="M 894.049587 185.553719 
L 907.933884 229.85124 
" clip-path="url(#pe0a00eb29c)" style="fill: none; stroke: #000000; stroke-width: 0.4"/>
    <path d="M 894.049587 185.553719 
L 866.280992 141.256198 
" clip-path="url(#pe0a00eb29c)" style="fill: none; stroke: #000000; stroke-width: 0.4"/>
    <path d="M 866.280992 141.256198 
L 921.818182 96.958678 
" clip-path="url(#pe0a00eb29c)" style="fill: none; stroke: #000000; stroke-width: 0.4"/>
    <path d="M 935.702479 141.256198 
L 949.586777 141.256198 
" clip-path="url(#pe0a00eb29c)" style="fill: none; stroke: #000000; stroke-width: 0.4"/>
    <path d="M 935.702479 141.256198 
L 963.471074 96.958678 
" clip-path="url(#pe0a00eb29c)" style="fill: none; stroke: #000000; stroke-width: 0.4"/>
    <path d="M 963.471074 96.958678 
L 977.355372 141.256198 
" clip-path="url(#pe0a00eb29c)" style="fill: none; stroke: #000000; stroke-width: 0.4"/>
    <path d="M 963.471074 96.958678 
L 921.818182 96.958678 
" clip-path="url(#pe0a00eb29c)" style="fill: none; stroke: #000000; stroke-width: 0.4"/>
    <path d="M 921.818182 96.958678 
L 283.140496 52.661157 
" clip-path="url(#pe0a00eb29c)" style="fill: none; stroke: #000000; stroke-width: 0.4"/>
   </g>
   <g id="matplotlib.axis_1">
    <g id="xtick_1"/>
    <g id="xtick_2"/>
    <g id="xtick_3"/>
    <g id="xtick_4"/>
    <g id="xtick_5"/>
    <g id="xtick_6"/>
    <g id="xtick_7"/>
   </g>
   <g id="matplotlib.axis_2">
    <g id="ytick_1"/>
    <g id="ytick_2"/>
    <g id="ytick_3"/>
    <g id="ytick_4"/>
    <g id="ytick_5"/>
   </g>
   <g id="PathCollection_1">
    <path d="M 102.644628 56.196691 
C 103.582263 56.196691 104.48162 55.824165 105.144628 55.161157 
C 105.807636 54.498149 106.180162 53.598792 106.180162 52.661157 
C 106.180162 51.723522 105.807636 50.824165 105.144628 50.161157 
C 104.48162 49.498149 103.582263 49.125623 102.644628 49.125623 
C 101.706994 49.125623 100.807636 49.498149 100.144628 50.161157 
C 99.48162 50.824165 99.109094 51.723522 99.109094 52.661157 
C 99.109094 53.598792 99.48162 54.498149 100.144628 55.161157 
C 100.807636 55.824165 101.706994 56.196691 102.644628 56.196691 
z
" clip-path="url(#pe0a00eb29c)" style="fill: #808080; stroke: #000000; stroke-width: 0.4"/>
    <path d="M 116.528926 56.196691 
C 117.46656 56.196691 118.365918 55.824165 119.028926 55.161157 
C 119.691933 54.498149 120.06446 53.598792 120.06446 52.661157 
C 120.06446 51.723522 119.691933 50.824165 119.028926 50.161157 
C 118.365918 49.498149 117.46656 49.125623 116.528926 49.125623 
C 115.591291 49.125623 114.691933 49.498149 114.028926 50.161157 
C 113.365918 50.824165 112.993392 51.723522 112.993392 52.661157 
C 112.993392 53.598792 113.365918 54.498149 114.028926 55.161157 
C 114.691933 55.824165 115.591291 56.196691 116.528926 56.196691 
z
" clip-path="url(#pe0a00eb29c)" style="fill: #808080; stroke: #000000; stroke-width: 0.4"/>
    <path d="M 130.413223 56.196691 
C 131.350858 56.196691 132.250215 55.824165 132.913223 55.161157 
C 133.576231 54.498149 133.948757 53.598792 133.948757 52.661157 
C 133.948757 51.723522 133.576231 50.824165 132.913223 50.161157 
C 132.250215 49.498149 131.350858 49.125623 130.413223 49.125623 
C 129.475589 49.125623 128.576231 49.498149 127.913223 50.161157 
C 127.250215 50.824165 126.877689 51.723522 126.877689 52.661157 
C 126.877689 53.598792 127.250215 54.498149 127.913223 55.161157 
C 128.576231 55.824165 129.475589 56.196691 130.413223 56.196691 
z
" clip-path="url(#pe0a00eb29c)" style="fill: #808080; stroke: #000000; stroke-width: 0.4"/>
    <path d="M 144.297521 56.196691 
C 145.235155 56.196691 146.134513 55.824165 146.797521 55.161157 
C 147.460528 54.498149 147.833055 53.598792 147.833055 52.661157 
C 147.833055 51.723522 147.460528 50.824165 146.797521 50.161157 
C 146.134513 49.498149 145.235155 49.125623 144.297521 49.125623 
C 143.359886 49.125623 142.460528 49.498149 141.797521 50.161157 
C 141.134513 50.824165 140.761987 51.723522 140.761987 52.661157 
C 140.761987 53.598792 141.134513 54.498149 141.797521 55.161157 
C 142.460528 55.824165 143.359886 56.196691 144.297521 56.196691 
z
" clip-path="url(#pe0a00eb29c)" style="fill: #808080; stroke: #000000; stroke-width: 0.4"/>
    <path d="M 172.066116 56.196691 
C 173.00375 56.196691 173.903108 55.824165 174.566116 55.161157 
C 175.229123 54.498149 175.60165 53.598792 175.60165 52.661157 
C 175.60165 51.723522 175.229123 50.824165 174.566116 50.161157 
C 173.903108 49.498149 173.00375 49.125623 172.066116 49.125623 
C 171.128481 49.125623 170.229123 49.498149 169.566116 50.161157 
C 168.903108 50.824165 168.530582 51.723522 168.530582 52.661157 
C 168.530582 53.598792 168.903108 54.498149 169.566116 55.161157 
C 170.229123 55.824165 171.128481 56.196691 172.066116 56.196691 
z
" clip-path="url(#pe0a00eb29c)" style="fill: #808080; stroke: #000000; stroke-width: 0.4"/>
    <path d="M 158.181818 100.494212 
C 159.119453 100.494212 160.01881 100.121685 160.681818 99.458678 
C 161.344826 98.79567 161.717352 97.896312 161.717352 96.958678 
C 161.717352 96.021043 161.344826 95.121685 160.681818 94.458678 
C 160.01881 93.79567 159.119453 93.423144 158.181818 93.423144 
C 157.244184 93.423144 156.344826 93.79567 155.681818 94.458678 
C 155.01881 95.121685 154.646284 96.021043 154.646284 96.958678 
C 154.646284 97.896312 155.01881 98.79567 155.681818 99.458678 
C 156.344826 100.121685 157.244184 100.494212 158.181818 100.494212 
z
" clip-path="url(#pe0a00eb29c)" style="fill: #808080; stroke: #000000; stroke-width: 0.4"/>
    <path d="M 185.950413 100.494212 
C 186.888048 100.494212 187.787405 100.121685 188.450413 99.458678 
C 189.113421 98.79567 189.485947 97.896312 189.485947 96.958678 
C 189.485947 96.021043 189.113421 95.121685 188.450413 94.458678 
C 187.787405 93.79567 186.888048 93.423144 185.950413 93.423144 
C 185.012779 93.423144 184.113421 93.79567 183.450413 94.458678 
C 182.787405 95.121685 182.414879 96.021043 182.414879 96.958678 
C 182.414879 97.896312 182.787405 98.79567 183.450413 99.458678 
C 184.113421 100.121685 185.012779 100.494212 185.950413 100.494212 
z
" clip-path="url(#pe0a00eb29c)" style="fill: #808080; stroke: #000000; stroke-width: 0.4"/>
    <path d="M 255.371901 144.791732 
C 256.309535 144.791732 257.208893 144.419206 257.871901 143.756198 
C 258.534909 143.093191 258.907435 142.193833 258.907435 141.256198 
C 258.907435 140.318564 258.534909 139.419206 257.871901 138.756198 
C 257.208893 138.093191 256.309535 137.720664 255.371901 137.720664 
C 254.434266 137.720664 253.534909 138.093191 252.871901 138.756198 
C 252.208893 139.419206 251.836367 140.318564 251.836367 141.256198 
C 251.836367 142.193833 252.208893 143.093191 252.871901 143.756198 
C 253.534909 144.419206 254.434266 144.791732 255.371901 144.791732 
z
" clip-path="url(#pe0a00eb29c)" style="fill: #808080; stroke: #000000; stroke-width: 0.4"/>
    <path d="M 269.256198 144.791732 
C 270.193833 144.791732 271.093191 144.419206 271.756198 143.756198 
C 272.419206 143.093191 272.791732 142.193833 272.791732 141.256198 
C 272.791732 140.318564 272.419206 139.419206 271.756198 138.756198 
C 271.093191 138.093191 270.193833 137.720664 269.256198 137.720664 
C 268.318564 137.720664 267.419206 138.093191 266.756198 138.756198 
C 266.093191 139.419206 265.720664 140.318564 265.720664 141.256198 
C 265.720664 142.193833 266.093191 143.093191 266.756198 143.756198 
C 267.419206 144.419206 268.318564 144.791732 269.256198 144.791732 
z
" clip-path="url(#pe0a00eb29c)" style="fill: #808080; stroke: #000000; stroke-width: 0.4"/>
    <path d="M 241.487603 100.494212 
C 242.425238 100.494212 243.324596 100.121685 243.987603 99.458678 
C 244.650611 98.79567 245.023137 97.896312 245.023137 96.958678 
C 245.023137 96.021043 244.650611 95.121685 243.987603 94.458678 
C 243.324596 93.79567 242.425238 93.423144 241.487603 93.423144 
C 240.549969 93.423144 239.650611 93.79567 238.987603 94.458678 
C 238.324596 95.121685 237.952069 96.021043 237.952069 96.958678 
C 237.952069 97.896312 238.324596 98.79567 238.987603 99.458678 
C 239.650611 100.121685 240.549969 100.494212 241.487603 100.494212 
z
" clip-path="url(#pe0a00eb29c)" style="fill: #808080; stroke: #000000; stroke-width: 0.4"/>
    <path d="M 227.603306 144.791732 
C 228.54094 144.791732 229.440298 144.419206 230.103306 143.756198 
C 230.766314 143.093191 231.13884 142.193833 231.13884 141.256198 
C 231.13884 140.318564 230.766314 139.419206 230.103306 138.756198 
C 229.440298 138.093191 228.54094 137.720664 227.603306 137.720664 
C 226.665671 137.720664 225.766314 138.093191 225.103306 138.756198 
C 224.440298 139.419206 224.067772 140.318564 224.067772 141.256198 
C 224.067772 142.193833 224.440298 143.093191 225.103306 143.756198 
C 225.766314 144.419206 226.665671 144.791732 227.603306 144.791732 
z
" clip-path="url(#pe0a00eb29c)" style="fill: #808080; stroke: #000000; stroke-width: 0.4"/>
    <path d="M 213.719008 100.494212 
C 214.656643 100.494212 215.556001 100.121685 216.219008 99.458678 
C 216.882016 98.79567 217.254542 97.896312 217.254542 96.958678 
C 217.254542 96.021043 216.882016 95.121685 216.219008 94.458678 
C 215.556001 93.79567 214.656643 93.423144 213.719008 93.423144 
C 212.781374 93.423144 211.882016 93.79567 211.219008 94.458678 
C 210.556001 95.121685 210.183474 96.021043 210.183474 96.958678 
C 210.183474 97.896312 210.556001 98.79567 211.219008 99.458678 
C 211.882016 100.121685 212.781374 100.494212 213.719008 100.494212 
z
" clip-path="url(#pe0a00eb29c)" style="fill: #808080; stroke: #000000; stroke-width: 0.4"/>
    <path d="M 199.834711 144.791732 
C 200.772345 144.791732 201.671703 144.419206 202.334711 143.756198 
C 202.997718 143.093191 203.370245 142.193833 203.370245 141.256198 
C 203.370245 140.318564 202.997718 139.419206 202.334711 138.756198 
C 201.671703 138.093191 200.772345 137.720664 199.834711 137.720664 
C 198.897076 137.720664 197.997718 138.093191 197.334711 138.756198 
C 196.671703 139.419206 196.299177 140.318564 196.299177 141.256198 
C 196.299177 142.193833 196.671703 143.093191 197.334711 143.756198 
C 197.997718 144.419206 198.897076 144.791732 199.834711 144.791732 
z
" clip-path="url(#pe0a00eb29c)" style="fill: #808080; stroke: #000000; stroke-width: 0.4"/>
    <path d="M 297.024793 277.684294 
C 297.962428 277.684294 298.861786 277.311768 299.524793 276.64876 
C 300.187801 275.985753 300.560327 275.086395 300.560327 274.14876 
C 300.560327 273.211126 300.187801 272.311768 299.524793 271.64876 
C 298.861786 270.985753 297.962428 270.613226 297.024793 270.613226 
C 296.087159 270.613226 295.187801 270.985753 294.524793 271.64876 
C 293.861786 272.311768 293.489259 273.211126 293.489259 274.14876 
C 293.489259 275.086395 293.861786 275.985753 294.524793 276.64876 
C 295.187801 277.311768 296.087159 277.684294 297.024793 277.684294 
z
" clip-path="url(#pe0a00eb29c)" style="fill: #808080; stroke: #000000; stroke-width: 0.4"/>
    <path d="M 310.909091 277.684294 
C 311.846725 277.684294 312.746083 277.311768 313.409091 276.64876 
C 314.072099 275.985753 314.444625 275.086395 314.444625 274.14876 
C 314.444625 273.211126 314.072099 272.311768 313.409091 271.64876 
C 312.746083 270.985753 311.846725 270.613226 310.909091 270.613226 
C 309.971456 270.613226 309.072099 270.985753 308.409091 271.64876 
C 307.746083 272.311768 307.373557 273.211126 307.373557 274.14876 
C 307.373557 275.086395 307.746083 275.985753 308.409091 276.64876 
C 309.072099 277.311768 309.971456 277.684294 310.909091 277.684294 
z
" clip-path="url(#pe0a00eb29c)" style="fill: #808080; stroke: #000000; stroke-width: 0.4"/>
    <path d="M 352.561983 233.386774 
C 353.499618 233.386774 354.398976 233.014247 355.061983 232.35124 
C 355.724991 231.688232 356.097517 230.788874 356.097517 229.85124 
C 356.097517 228.913605 355.724991 228.014247 355.061983 227.35124 
C 354.398976 226.688232 353.499618 226.315706 352.561983 226.315706 
C 351.624349 226.315706 350.724991 226.688232 350.061983 227.35124 
C 349.398976 228.014247 349.02645 228.913605 349.02645 229.85124 
C 349.02645 230.788874 349.398976 231.688232 350.061983 232.35124 
C 350.724991 233.014247 351.624349 233.386774 352.561983 233.386774 
z
" clip-path="url(#pe0a00eb29c)" style="fill: #808080; stroke: #000000; stroke-width: 0.4"/>
    <path d="M 338.677686 277.684294 
C 339.615321 277.684294 340.514678 277.311768 341.177686 276.64876 
C 341.840694 275.985753 342.21322 275.086395 342.21322 274.14876 
C 342.21322 273.211126 341.840694 272.311768 341.177686 271.64876 
C 340.514678 270.985753 339.615321 270.613226 338.677686 270.613226 
C 337.740051 270.613226 336.840694 270.985753 336.177686 271.64876 
C 335.514678 272.311768 335.142152 273.211126 335.142152 274.14876 
C 335.142152 275.086395 335.514678 275.985753 336.177686 276.64876 
C 336.840694 277.311768 337.740051 277.684294 338.677686 277.684294 
z
" clip-path="url(#pe0a00eb29c)" style="fill: #808080; stroke: #000000; stroke-width: 0.4"/>
    <path d="M 366.446281 277.684294 
C 367.383916 277.684294 368.283273 277.311768 368.946281 276.64876 
C 369.609289 275.985753 369.981815 275.086395 369.981815 274.14876 
C 369.981815 273.211126 369.609289 272.311768 368.946281 271.64876 
C 368.283273 270.985753 367.383916 270.613226 366.446281 270.613226 
C 365.508646 270.613226 364.609289 270.985753 363.946281 271.64876 
C 363.283273 272.311768 362.910747 273.211126 362.910747 274.14876 
C 362.910747 275.086395 363.283273 275.985753 363.946281 276.64876 
C 364.609289 277.311768 365.508646 277.684294 366.446281 277.684294 
z
" clip-path="url(#pe0a00eb29c)" style="fill: #808080; stroke: #000000; stroke-width: 0.4"/>
    <path d="M 324.793388 233.386774 
C 325.731023 233.386774 326.630381 233.014247 327.293388 232.35124 
C 327.956396 231.688232 328.328922 230.788874 328.328922 229.85124 
C 328.328922 228.913605 327.956396 228.014247 327.293388 227.35124 
C 326.630381 226.688232 325.731023 226.315706 324.793388 226.315706 
C 323.855754 226.315706 322.956396 226.688232 322.293388 227.35124 
C 321.630381 228.014247 321.257855 228.913605 321.257855 229.85124 
C 321.257855 230.788874 321.630381 231.688232 322.293388 232.35124 
C 322.956396 233.014247 323.855754 233.386774 324.793388 233.386774 
z
" clip-path="url(#pe0a00eb29c)" style="fill: #808080; stroke: #000000; stroke-width: 0.4"/>
    <path d="M 394.214876 321.981815 
C 395.152511 321.981815 396.051868 321.609289 396.714876 320.946281 
C 397.377884 320.283273 397.75041 319.383916 397.75041 318.446281 
C 397.75041 317.508646 397.377884 316.609289 396.714876 315.946281 
C 396.051868 315.283273 395.152511 314.910747 394.214876 314.910747 
C 393.277241 314.910747 392.377884 315.283273 391.714876 315.946281 
C 391.051868 316.609289 390.679342 317.508646 390.679342 318.446281 
C 390.679342 319.383916 391.051868 320.283273 391.714876 320.946281 
C 392.377884 321.609289 393.277241 321.981815 394.214876 321.981815 
z
" clip-path="url(#pe0a00eb29c)" style="fill: #808080; stroke: #000000; stroke-width: 0.4"/>
    <path d="M 408.099174 321.981815 
C 409.036808 321.981815 409.936166 321.609289 410.599174 320.946281 
C 411.262181 320.283273 411.634707 319.383916 411.634707 318.446281 
C 411.634707 317.508646 411.262181 316.609289 410.599174 315.946281 
C 409.936166 315.283273 409.036808 314.910747 408.099174 314.910747 
C 407.161539 314.910747 406.262181 315.283273 405.599174 315.946281 
C 404.936166 316.609289 404.56364 317.508646 404.56364 318.446281 
C 404.56364 319.383916 404.936166 320.283273 405.599174 320.946281 
C 406.262181 321.609289 407.161539 321.981815 408.099174 321.981815 
z
" clip-path="url(#pe0a00eb29c)" style="fill: #808080; stroke: #000000; stroke-width: 0.4"/>
    <path d="M 449.752066 277.684294 
C 450.689701 277.684294 451.589058 277.311768 452.252066 276.64876 
C 452.915074 275.985753 453.2876 275.086395 453.2876 274.14876 
C 453.2876 273.211126 452.915074 272.311768 452.252066 271.64876 
C 451.589058 270.985753 450.689701 270.613226 449.752066 270.613226 
C 448.814432 270.613226 447.915074 270.985753 447.252066 271.64876 
C 446.589058 272.311768 446.216532 273.211126 446.216532 274.14876 
C 446.216532 275.086395 446.589058 275.985753 447.252066 276.64876 
C 447.915074 277.311768 448.814432 277.684294 449.752066 277.684294 
z
" clip-path="url(#pe0a00eb29c)" style="fill: #808080; stroke: #000000; stroke-width: 0.4"/>
    <path d="M 435.867769 321.981815 
C 436.805403 321.981815 437.704761 321.609289 438.367769 320.946281 
C 439.030776 320.283273 439.403303 319.383916 439.403303 318.446281 
C 439.403303 317.508646 439.030776 316.609289 438.367769 315.946281 
C 437.704761 315.283273 436.805403 314.910747 435.867769 314.910747 
C 434.930134 314.910747 434.030776 315.283273 433.367769 315.946281 
C 432.704761 316.609289 432.332235 317.508646 432.332235 318.446281 
C 432.332235 319.383916 432.704761 320.283273 433.367769 320.946281 
C 434.030776 321.609289 434.930134 321.981815 435.867769 321.981815 
z
" clip-path="url(#pe0a00eb29c)" style="fill: #808080; stroke: #000000; stroke-width: 0.4"/>
    <path d="M 463.636364 321.981815 
C 464.573998 321.981815 465.473356 321.609289 466.136364 320.946281 
C 466.799371 320.283273 467.171898 319.383916 467.171898 318.446281 
C 467.171898 317.508646 466.799371 316.609289 466.136364 315.946281 
C 465.473356 315.283273 464.573998 314.910747 463.636364 314.910747 
C 462.698729 314.910747 461.799371 315.283273 461.136364 315.946281 
C 460.473356 316.609289 460.10083 317.508646 460.10083 318.446281 
C 460.10083 319.383916 460.473356 320.283273 461.136364 320.946281 
C 461.799371 321.609289 462.698729 321.981815 463.636364 321.981815 
z
" clip-path="url(#pe0a00eb29c)" style="fill: #808080; stroke: #000000; stroke-width: 0.4"/>
    <path d="M 421.983471 277.684294 
C 422.921106 277.684294 423.820463 277.311768 424.483471 276.64876 
C 425.146479 275.985753 425.519005 275.086395 425.519005 274.14876 
C 425.519005 273.211126 425.146479 272.311768 424.483471 271.64876 
C 423.820463 270.985753 422.921106 270.613226 421.983471 270.613226 
C 421.045837 270.613226 420.146479 270.985753 419.483471 271.64876 
C 418.820463 272.311768 418.447937 273.211126 418.447937 274.14876 
C 418.447937 275.086395 418.820463 275.985753 419.483471 276.64876 
C 420.146479 277.311768 421.045837 277.684294 421.983471 277.684294 
z
" clip-path="url(#pe0a00eb29c)" style="fill: #808080; stroke: #000000; stroke-width: 0.4"/>
    <path d="M 491.404959 321.981815 
C 492.342593 321.981815 493.241951 321.609289 493.904959 320.946281 
C 494.567966 320.283273 494.940493 319.383916 494.940493 318.446281 
C 494.940493 317.508646 494.567966 316.609289 493.904959 315.946281 
C 493.241951 315.283273 492.342593 314.910747 491.404959 314.910747 
C 490.467324 314.910747 489.567966 315.283273 488.904959 315.946281 
C 488.241951 316.609289 487.869425 317.508646 487.869425 318.446281 
C 487.869425 319.383916 488.241951 320.283273 488.904959 320.946281 
C 489.567966 321.609289 490.467324 321.981815 491.404959 321.981815 
z
" clip-path="url(#pe0a00eb29c)" style="fill: #808080; stroke: #000000; stroke-width: 0.4"/>
    <path d="M 505.289256 321.981815 
C 506.226891 321.981815 507.126248 321.609289 507.789256 320.946281 
C 508.452264 320.283273 508.82479 319.383916 508.82479 318.446281 
C 508.82479 317.508646 508.452264 316.609289 507.789256 315.946281 
C 507.126248 315.283273 506.226891 314.910747 505.289256 314.910747 
C 504.351622 314.910747 503.452264 315.283273 502.789256 315.946281 
C 502.126248 316.609289 501.753722 317.508646 501.753722 318.446281 
C 501.753722 319.383916 502.126248 320.283273 502.789256 320.946281 
C 503.452264 321.609289 504.351622 321.981815 505.289256 321.981815 
z
" clip-path="url(#pe0a00eb29c)" style="fill: #808080; stroke: #000000; stroke-width: 0.4"/>
    <path d="M 630.247934 410.576856 
C 631.185568 410.576856 632.084926 410.20433 632.747934 409.541322 
C 633.410942 408.878315 633.783468 407.978957 633.783468 407.041322 
C 633.783468 406.103688 633.410942 405.20433 632.747934 404.541322 
C 632.084926 403.878315 631.185568 403.505788 630.247934 403.505788 
C 629.310299 403.505788 628.410942 403.878315 627.747934 404.541322 
C 627.084926 405.20433 626.7124 406.103688 626.7124 407.041322 
C 626.7124 407.978957 627.084926 408.878315 627.747934 409.541322 
C 628.410942 410.20433 629.310299 410.576856 630.247934 410.576856 
z
" clip-path="url(#pe0a00eb29c)" style="fill: #808080; stroke: #000000; stroke-width: 0.4"/>
    <path d="M 644.132231 410.576856 
C 645.069866 410.576856 645.969224 410.20433 646.632231 409.541322 
C 647.295239 408.878315 647.667765 407.978957 647.667765 407.041322 
C 647.667765 406.103688 647.295239 405.20433 646.632231 404.541322 
C 645.969224 403.878315 645.069866 403.505788 644.132231 403.505788 
C 643.194597 403.505788 642.295239 403.878315 641.632231 404.541322 
C 640.969224 405.20433 640.596697 406.103688 640.596697 407.041322 
C 640.596697 407.978957 640.969224 408.878315 641.632231 409.541322 
C 642.295239 410.20433 643.194597 410.576856 644.132231 410.576856 
z
" clip-path="url(#pe0a00eb29c)" style="fill: #808080; stroke: #000000; stroke-width: 0.4"/>
    <path d="M 616.363636 410.576856 
C 617.301271 410.576856 618.200629 410.20433 618.863636 409.541322 
C 619.526644 408.878315 619.89917 407.978957 619.89917 407.041322 
C 619.89917 406.103688 619.526644 405.20433 618.863636 404.541322 
C 618.200629 403.878315 617.301271 403.505788 616.363636 403.505788 
C 615.426002 403.505788 614.526644 403.878315 613.863636 404.541322 
C 613.200629 405.20433 612.828102 406.103688 612.828102 407.041322 
C 612.828102 407.978957 613.200629 408.878315 613.863636 409.541322 
C 614.526644 410.20433 615.426002 410.576856 616.363636 410.576856 
z
" clip-path="url(#pe0a00eb29c)" style="fill: #808080; stroke: #000000; stroke-width: 0.4"/>
    <path d="M 685.785124 410.576856 
C 686.722759 410.576856 687.622116 410.20433 688.285124 409.541322 
C 688.948132 408.878315 689.320658 407.978957 689.320658 407.041322 
C 689.320658 406.103688 688.948132 405.20433 688.285124 404.541322 
C 687.622116 403.878315 686.722759 403.505788 685.785124 403.505788 
C 684.847489 403.505788 683.948132 403.878315 683.285124 404.541322 
C 682.622116 405.20433 682.24959 406.103688 682.24959 407.041322 
C 682.24959 407.978957 682.622116 408.878315 683.285124 409.541322 
C 683.948132 410.20433 684.847489 410.576856 685.785124 410.576856 
z
" clip-path="url(#pe0a00eb29c)" style="fill: #808080; stroke: #000000; stroke-width: 0.4"/>
    <path d="M 699.669421 410.576856 
C 700.607056 410.576856 701.506414 410.20433 702.169421 409.541322 
C 702.832429 408.878315 703.204955 407.978957 703.204955 407.041322 
C 703.204955 406.103688 702.832429 405.20433 702.169421 404.541322 
C 701.506414 403.878315 700.607056 403.505788 699.669421 403.505788 
C 698.731787 403.505788 697.832429 403.878315 697.169421 404.541322 
C 696.506414 405.20433 696.133888 406.103688 696.133888 407.041322 
C 696.133888 407.978957 696.506414 408.878315 697.169421 409.541322 
C 697.832429 410.20433 698.731787 410.576856 699.669421 410.576856 
z
" clip-path="url(#pe0a00eb29c)" style="fill: #808080; stroke: #000000; stroke-width: 0.4"/>
    <path d="M 671.900826 410.576856 
C 672.838461 410.576856 673.737819 410.20433 674.400826 409.541322 
C 675.063834 408.878315 675.43636 407.978957 675.43636 407.041322 
C 675.43636 406.103688 675.063834 405.20433 674.400826 404.541322 
C 673.737819 403.878315 672.838461 403.505788 671.900826 403.505788 
C 670.963192 403.505788 670.063834 403.878315 669.400826 404.541322 
C 668.737819 405.20433 668.365293 406.103688 668.365293 407.041322 
C 668.365293 407.978957 668.737819 408.878315 669.400826 409.541322 
C 670.063834 410.20433 670.963192 410.576856 671.900826 410.576856 
z
" clip-path="url(#pe0a00eb29c)" style="fill: #808080; stroke: #000000; stroke-width: 0.4"/>
    <path d="M 741.322314 454.874377 
C 742.259949 454.874377 743.159306 454.501851 743.822314 453.838843 
C 744.485322 453.175835 744.857848 452.276478 744.857848 451.338843 
C 744.857848 450.401208 744.485322 449.501851 743.822314 448.838843 
C 743.159306 448.175835 742.259949 447.803309 741.322314 447.803309 
C 740.384679 447.803309 739.485322 448.175835 738.822314 448.838843 
C 738.159306 449.501851 737.78678 450.401208 737.78678 451.338843 
C 737.78678 452.276478 738.159306 453.175835 738.822314 453.838843 
C 739.485322 454.501851 740.384679 454.874377 741.322314 454.874377 
z
" clip-path="url(#pe0a00eb29c)" style="fill: #808080; stroke: #000000; stroke-width: 0.4"/>
    <path d="M 755.206612 454.874377 
C 756.144246 454.874377 757.043604 454.501851 757.706612 453.838843 
C 758.369619 453.175835 758.742145 452.276478 758.742145 451.338843 
C 758.742145 450.401208 758.369619 449.501851 757.706612 448.838843 
C 757.043604 448.175835 756.144246 447.803309 755.206612 447.803309 
C 754.268977 447.803309 753.369619 448.175835 752.706612 448.838843 
C 752.043604 449.501851 751.671078 450.401208 751.671078 451.338843 
C 751.671078 452.276478 752.043604 453.175835 752.706612 453.838843 
C 753.369619 454.501851 754.268977 454.874377 755.206612 454.874377 
z
" clip-path="url(#pe0a00eb29c)" style="fill: #808080; stroke: #000000; stroke-width: 0.4"/>
    <path d="M 727.438017 454.874377 
C 728.375651 454.874377 729.275009 454.501851 729.938017 453.838843 
C 730.601024 453.175835 730.97355 452.276478 730.97355 451.338843 
C 730.97355 450.401208 730.601024 449.501851 729.938017 448.838843 
C 729.275009 448.175835 728.375651 447.803309 727.438017 447.803309 
C 726.500382 447.803309 725.601024 448.175835 724.938017 448.838843 
C 724.275009 449.501851 723.902483 450.401208 723.902483 451.338843 
C 723.902483 452.276478 724.275009 453.175835 724.938017 453.838843 
C 725.601024 454.501851 726.500382 454.874377 727.438017 454.874377 
z
" clip-path="url(#pe0a00eb29c)" style="fill: #808080; stroke: #000000; stroke-width: 0.4"/>
    <path d="M 796.859504 454.874377 
C 797.797139 454.874377 798.696496 454.501851 799.359504 453.838843 
C 800.022512 453.175835 800.395038 452.276478 800.395038 451.338843 
C 800.395038 450.401208 800.022512 449.501851 799.359504 448.838843 
C 798.696496 448.175835 797.797139 447.803309 796.859504 447.803309 
C 795.92187 447.803309 795.022512 448.175835 794.359504 448.838843 
C 793.696496 449.501851 793.32397 450.401208 793.32397 451.338843 
C 793.32397 452.276478 793.696496 453.175835 794.359504 453.838843 
C 795.022512 454.501851 795.92187 454.874377 796.859504 454.874377 
z
" clip-path="url(#pe0a00eb29c)" style="fill: #808080; stroke: #000000; stroke-width: 0.4"/>
    <path d="M 810.743802 454.874377 
C 811.681436 454.874377 812.580794 454.501851 813.243802 453.838843 
C 813.906809 453.175835 814.279336 452.276478 814.279336 451.338843 
C 814.279336 450.401208 813.906809 449.501851 813.243802 448.838843 
C 812.580794 448.175835 811.681436 447.803309 810.743802 447.803309 
C 809.806167 447.803309 808.906809 448.175835 808.243802 448.838843 
C 807.580794 449.501851 807.208268 450.401208 807.208268 451.338843 
C 807.208268 452.276478 807.580794 453.175835 808.243802 453.838843 
C 808.906809 454.501851 809.806167 454.874377 810.743802 454.874377 
z
" clip-path="url(#pe0a00eb29c)" style="fill: #808080; stroke: #000000; stroke-width: 0.4"/>
    <path d="M 782.975207 454.874377 
C 783.912841 454.874377 784.812199 454.501851 785.475207 453.838843 
C 786.138214 453.175835 786.510741 452.276478 786.510741 451.338843 
C 786.510741 450.401208 786.138214 449.501851 785.475207 448.838843 
C 784.812199 448.175835 783.912841 447.803309 782.975207 447.803309 
C 782.037572 447.803309 781.138214 448.175835 780.475207 448.838843 
C 779.812199 449.501851 779.439673 450.401208 779.439673 451.338843 
C 779.439673 452.276478 779.812199 453.175835 780.475207 453.838843 
C 781.138214 454.501851 782.037572 454.874377 782.975207 454.874377 
z
" clip-path="url(#pe0a00eb29c)" style="fill: #808080; stroke: #000000; stroke-width: 0.4"/>
    <path d="M 838.512397 454.874377 
C 839.450031 454.874377 840.349389 454.501851 841.012397 453.838843 
C 841.675404 453.175835 842.047931 452.276478 842.047931 451.338843 
C 842.047931 450.401208 841.675404 449.501851 841.012397 448.838843 
C 840.349389 448.175835 839.450031 447.803309 838.512397 447.803309 
C 837.574762 447.803309 836.675404 448.175835 836.012397 448.838843 
C 835.349389 449.501851 834.976863 450.401208 834.976863 451.338843 
C 834.976863 452.276478 835.349389 453.175835 836.012397 453.838843 
C 836.675404 454.501851 837.574762 454.874377 838.512397 454.874377 
z
" clip-path="url(#pe0a00eb29c)" style="fill: #808080; stroke: #000000; stroke-width: 0.4"/>
    <path d="M 852.396694 456.338843 
C 853.72271 456.338843 854.994594 455.812011 855.932228 454.874377 
C 856.869863 453.936742 857.396694 452.664858 857.396694 451.338843 
C 857.396694 450.012827 856.869863 448.740944 855.932228 447.803309 
C 854.994594 446.865675 853.72271 446.338843 852.396694 446.338843 
C 851.070679 446.338843 849.798795 446.865675 848.86116 447.803309 
C 847.923526 448.740944 847.396694 450.012827 847.396694 451.338843 
C 847.396694 452.664858 847.923526 453.936742 848.86116 454.874377 
C 849.798795 455.812011 851.070679 456.338843 852.396694 456.338843 
z
" clip-path="url(#pe0a00eb29c)" style="fill: #008000; stroke: #000000; stroke-width: 0.4"/>
    <path d="M 824.628099 412.041322 
C 825.954115 412.041322 827.225999 411.514491 828.163633 410.576856 
C 829.101268 409.639222 829.628099 408.367338 829.628099 407.041322 
C 829.628099 405.715307 829.101268 404.443423 828.163633 403.505788 
C 827.225999 402.568154 825.954115 402.041322 824.628099 402.041322 
C 823.302084 402.041322 822.0302 402.568154 821.092565 403.505788 
C 820.154931 404.443423 819.628099 405.715307 819.628099 407.041322 
C 819.628099 408.367338 820.154931 409.639222 821.092565 410.576856 
C 822.0302 411.514491 823.302084 412.041322 824.628099 412.041322 
z
" clip-path="url(#pe0a00eb29c)" style="fill: #008000; stroke: #000000; stroke-width: 0.4"/>
    <path d="M 769.090909 410.576856 
C 770.028544 410.576856 770.927901 410.20433 771.590909 409.541322 
C 772.253917 408.878315 772.626443 407.978957 772.626443 407.041322 
C 772.626443 406.103688 772.253917 405.20433 771.590909 404.541322 
C 770.927901 403.878315 770.028544 403.505788 769.090909 403.505788 
C 768.153275 403.505788 767.253917 403.878315 766.590909 404.541322 
C 765.927901 405.20433 765.555375 406.103688 765.555375 407.041322 
C 765.555375 407.978957 765.927901 408.878315 766.590909 409.541322 
C 767.253917 410.20433 768.153275 410.576856 769.090909 410.576856 
z
" clip-path="url(#pe0a00eb29c)" style="fill: #808080; stroke: #000000; stroke-width: 0.4"/>
    <path d="M 713.553719 367.743802 
C 714.879735 367.743802 716.151618 367.21697 717.089253 366.279336 
C 718.026887 365.341701 718.553719 364.069817 718.553719 362.743802 
C 718.553719 361.417786 718.026887 360.145902 717.089253 359.208268 
C 716.151618 358.270633 714.879735 357.743802 713.553719 357.743802 
C 712.227704 357.743802 710.95582 358.270633 710.018185 359.208268 
C 709.080551 360.145902 708.553719 361.417786 708.553719 362.743802 
C 708.553719 364.069817 709.080551 365.341701 710.018185 366.279336 
C 710.95582 367.21697 712.227704 367.743802 713.553719 367.743802 
z
" clip-path="url(#pe0a00eb29c)" style="fill: #008000; stroke: #000000; stroke-width: 0.4"/>
    <path d="M 658.016529 366.279336 
C 658.954163 366.279336 659.853521 365.906809 660.516529 365.243802 
C 661.179537 364.580794 661.552063 363.681436 661.552063 362.743802 
C 661.552063 361.806167 661.179537 360.906809 660.516529 360.243802 
C 659.853521 359.580794 658.954163 359.208268 658.016529 359.208268 
C 657.078894 359.208268 656.179537 359.580794 655.516529 360.243802 
C 654.853521 360.906809 654.480995 361.806167 654.480995 362.743802 
C 654.480995 363.681436 654.853521 364.580794 655.516529 365.243802 
C 656.179537 365.906809 657.078894 366.279336 658.016529 366.279336 
z
" clip-path="url(#pe0a00eb29c)" style="fill: #808080; stroke: #000000; stroke-width: 0.4"/>
    <path d="M 602.479339 323.446281 
C 603.805354 323.446281 605.077238 322.919449 606.014873 321.981815 
C 606.952507 321.04418 607.479339 319.772296 607.479339 318.446281 
C 607.479339 317.120265 606.952507 315.848382 606.014873 314.910747 
C 605.077238 313.973113 603.805354 313.446281 602.479339 313.446281 
C 601.153323 313.446281 599.881439 313.973113 598.943805 314.910747 
C 598.00617 315.848382 597.479339 317.120265 597.479339 318.446281 
C 597.479339 319.772296 598.00617 321.04418 598.943805 321.981815 
C 599.881439 322.919449 601.153323 323.446281 602.479339 323.446281 
z
" clip-path="url(#pe0a00eb29c)" style="fill: #008000; stroke: #000000; stroke-width: 0.4"/>
    <path d="M 588.595041 366.279336 
C 589.532676 366.279336 590.432034 365.906809 591.095041 365.243802 
C 591.758049 364.580794 592.130575 363.681436 592.130575 362.743802 
C 592.130575 361.806167 591.758049 360.906809 591.095041 360.243802 
C 590.432034 359.580794 589.532676 359.208268 588.595041 359.208268 
C 587.657407 359.208268 586.758049 359.580794 586.095041 360.243802 
C 585.432034 360.906809 585.059507 361.806167 585.059507 362.743802 
C 585.059507 363.681436 585.432034 364.580794 586.095041 365.243802 
C 586.758049 365.906809 587.657407 366.279336 588.595041 366.279336 
z
" clip-path="url(#pe0a00eb29c)" style="fill: #808080; stroke: #000000; stroke-width: 0.4"/>
    <path d="M 574.710744 321.981815 
C 575.648378 321.981815 576.547736 321.609289 577.210744 320.946281 
C 577.873752 320.283273 578.246278 319.383916 578.246278 318.446281 
C 578.246278 317.508646 577.873752 316.609289 577.210744 315.946281 
C 576.547736 315.283273 575.648378 314.910747 574.710744 314.910747 
C 573.773109 314.910747 572.873752 315.283273 572.210744 315.946281 
C 571.547736 316.609289 571.17521 317.508646 571.17521 318.446281 
C 571.17521 319.383916 571.547736 320.283273 572.210744 320.946281 
C 572.873752 321.609289 573.773109 321.981815 574.710744 321.981815 
z
" clip-path="url(#pe0a00eb29c)" style="fill: #808080; stroke: #000000; stroke-width: 0.4"/>
    <path d="M 560.826446 366.279336 
C 561.764081 366.279336 562.663439 365.906809 563.326446 365.243802 
C 563.989454 364.580794 564.36198 363.681436 564.36198 362.743802 
C 564.36198 361.806167 563.989454 360.906809 563.326446 360.243802 
C 562.663439 359.580794 561.764081 359.208268 560.826446 359.208268 
C 559.888812 359.208268 558.989454 359.580794 558.326446 360.243802 
C 557.663439 360.906809 557.290912 361.806167 557.290912 362.743802 
C 557.290912 363.681436 557.663439 364.580794 558.326446 365.243802 
C 558.989454 365.906809 559.888812 366.279336 560.826446 366.279336 
z
" clip-path="url(#pe0a00eb29c)" style="fill: #808080; stroke: #000000; stroke-width: 0.4"/>
    <path d="M 546.942149 279.14876 
C 548.268164 279.14876 549.540048 278.621929 550.477683 277.684294 
C 551.415317 276.74666 551.942149 275.474776 551.942149 274.14876 
C 551.942149 272.822745 551.415317 271.550861 550.477683 270.613226 
C 549.540048 269.675592 548.268164 269.14876 546.942149 269.14876 
C 545.616133 269.14876 544.344249 269.675592 543.406615 270.613226 
C 542.46898 271.550861 541.942149 272.822745 541.942149 274.14876 
C 541.942149 275.474776 542.46898 276.74666 543.406615 277.684294 
C 544.344249 278.621929 545.616133 279.14876 546.942149 279.14876 
z
" clip-path="url(#pe0a00eb29c)" style="fill: #008000; stroke: #000000; stroke-width: 0.4"/>
    <path d="M 533.057851 321.981815 
C 533.995486 321.981815 534.894843 321.609289 535.557851 320.946281 
C 536.220859 320.283273 536.593385 319.383916 536.593385 318.446281 
C 536.593385 317.508646 536.220859 316.609289 535.557851 315.946281 
C 534.894843 315.283273 533.995486 314.910747 533.057851 314.910747 
C 532.120217 314.910747 531.220859 315.283273 530.557851 315.946281 
C 529.894843 316.609289 529.522317 317.508646 529.522317 318.446281 
C 529.522317 319.383916 529.894843 320.283273 530.557851 320.946281 
C 531.220859 321.609289 532.120217 321.981815 533.057851 321.981815 
z
" clip-path="url(#pe0a00eb29c)" style="fill: #808080; stroke: #000000; stroke-width: 0.4"/>
    <path d="M 519.173554 277.684294 
C 520.111188 277.684294 521.010546 277.311768 521.673554 276.64876 
C 522.336561 275.985753 522.709088 275.086395 522.709088 274.14876 
C 522.709088 273.211126 522.336561 272.311768 521.673554 271.64876 
C 521.010546 270.985753 520.111188 270.613226 519.173554 270.613226 
C 518.235919 270.613226 517.336561 270.985753 516.673554 271.64876 
C 516.010546 272.311768 515.63802 273.211126 515.63802 274.14876 
C 515.63802 275.086395 516.010546 275.985753 516.673554 276.64876 
C 517.336561 277.311768 518.235919 277.684294 519.173554 277.684294 
z
" clip-path="url(#pe0a00eb29c)" style="fill: #808080; stroke: #000000; stroke-width: 0.4"/>
    <path d="M 477.520661 234.85124 
C 478.846677 234.85124 480.118561 234.324408 481.056195 233.386774 
C 481.99383 232.449139 482.520661 231.177255 482.520661 229.85124 
C 482.520661 228.525224 481.99383 227.25334 481.056195 226.315706 
C 480.118561 225.378071 478.846677 224.85124 477.520661 224.85124 
C 476.194646 224.85124 474.922762 225.378071 473.985127 226.315706 
C 473.047493 227.25334 472.520661 228.525224 472.520661 229.85124 
C 472.520661 231.177255 473.047493 232.449139 473.985127 233.386774 
C 474.922762 234.324408 476.194646 234.85124 477.520661 234.85124 
z
" clip-path="url(#pe0a00eb29c)" style="stroke: #000000; stroke-width: 0.4"/>
    <path d="M 380.330579 190.553719 
C 381.656594 190.553719 382.928478 190.026887 383.866112 189.089253 
C 384.803747 188.151618 385.330579 186.879735 385.330579 185.553719 
C 385.330579 184.227704 384.803747 182.95582 383.866112 182.018185 
C 382.928478 181.080551 381.656594 180.553719 380.330579 180.553719 
C 379.004563 180.553719 377.732679 181.080551 376.795045 182.018185 
C 375.85741 182.95582 375.330579 184.227704 375.330579 185.553719 
C 375.330579 186.879735 375.85741 188.151618 376.795045 189.089253 
C 377.732679 190.026887 379.004563 190.553719 380.330579 190.553719 
z
" clip-path="url(#pe0a00eb29c)" style="stroke: #000000; stroke-width: 0.4"/>
    <path d="M 894.049587 189.089253 
C 894.987221 189.089253 895.886579 188.716727 896.549587 188.053719 
C 897.212595 187.390711 897.585121 186.491354 897.585121 185.553719 
C 897.585121 184.616084 897.212595 183.716727 896.549587 183.053719 
C 895.886579 182.390711 894.987221 182.018185 894.049587 182.018185 
C 893.111952 182.018185 892.212595 182.390711 891.549587 183.053719 
C 890.886579 183.716727 890.514053 184.616084 890.514053 185.553719 
C 890.514053 186.491354 890.886579 187.390711 891.549587 188.053719 
C 892.212595 188.716727 893.111952 189.089253 894.049587 189.089253 
z
" clip-path="url(#pe0a00eb29c)" style="fill: #808080; stroke: #000000; stroke-width: 0.4"/>
    <path d="M 880.165289 233.386774 
C 881.102924 233.386774 882.002282 233.014247 882.665289 232.35124 
C 883.328297 231.688232 883.700823 230.788874 883.700823 229.85124 
C 883.700823 228.913605 883.328297 228.014247 882.665289 227.35124 
C 882.002282 226.688232 881.102924 226.315706 880.165289 226.315706 
C 879.227655 226.315706 878.328297 226.688232 877.665289 227.35124 
C 877.002282 228.014247 876.629755 228.913605 876.629755 229.85124 
C 876.629755 230.788874 877.002282 231.688232 877.665289 232.35124 
C 878.328297 233.014247 879.227655 233.386774 880.165289 233.386774 
z
" clip-path="url(#pe0a00eb29c)" style="fill: #808080; stroke: #000000; stroke-width: 0.4"/>
    <path d="M 907.933884 233.386774 
C 908.871519 233.386774 909.770877 233.014247 910.433884 232.35124 
C 911.096892 231.688232 911.469418 230.788874 911.469418 229.85124 
C 911.469418 228.913605 911.096892 228.014247 910.433884 227.35124 
C 909.770877 226.688232 908.871519 226.315706 907.933884 226.315706 
C 906.99625 226.315706 906.096892 226.688232 905.433884 227.35124 
C 904.770877 228.014247 904.39835 228.913605 904.39835 229.85124 
C 904.39835 230.788874 904.770877 231.688232 905.433884 232.35124 
C 906.096892 233.014247 906.99625 233.386774 907.933884 233.386774 
z
" clip-path="url(#pe0a00eb29c)" style="fill: #808080; stroke: #000000; stroke-width: 0.4"/>
    <path d="M 866.280992 146.256198 
C 867.607007 146.256198 868.878891 145.729367 869.816526 144.791732 
C 870.75416 143.854098 871.280992 142.582214 871.280992 141.256198 
C 871.280992 139.930183 870.75416 138.658299 869.816526 137.720664 
C 868.878891 136.78303 867.607007 136.256198 866.280992 136.256198 
C 864.954976 136.256198 863.683092 136.78303 862.745458 137.720664 
C 861.807823 138.658299 861.280992 139.930183 861.280992 141.256198 
C 861.280992 142.582214 861.807823 143.854098 862.745458 144.791732 
C 863.683092 145.729367 864.954976 146.256198 866.280992 146.256198 
z
" clip-path="url(#pe0a00eb29c)" style="fill: #ffff00; stroke: #000000; stroke-width: 0.4"/>
    <path d="M 935.702479 144.791732 
C 936.640114 144.791732 937.539472 144.419206 938.202479 143.756198 
C 938.865487 143.093191 939.238013 142.193833 939.238013 141.256198 
C 939.238013 140.318564 938.865487 139.419206 938.202479 138.756198 
C 937.539472 138.093191 936.640114 137.720664 935.702479 137.720664 
C 934.764845 137.720664 933.865487 138.093191 933.202479 138.756198 
C 932.539472 139.419206 932.166945 140.318564 932.166945 141.256198 
C 932.166945 142.193833 932.539472 143.093191 933.202479 143.756198 
C 933.865487 144.419206 934.764845 144.791732 935.702479 144.791732 
z
" clip-path="url(#pe0a00eb29c)" style="fill: #808080; stroke: #000000; stroke-width: 0.4"/>
    <path d="M 949.586777 144.791732 
C 950.524411 144.791732 951.423769 144.419206 952.086777 143.756198 
C 952.749785 143.093191 953.122311 142.193833 953.122311 141.256198 
C 953.122311 140.318564 952.749785 139.419206 952.086777 138.756198 
C 951.423769 138.093191 950.524411 137.720664 949.586777 137.720664 
C 948.649142 137.720664 947.749785 138.093191 947.086777 138.756198 
C 946.423769 139.419206 946.051243 140.318564 946.051243 141.256198 
C 946.051243 142.193833 946.423769 143.093191 947.086777 143.756198 
C 947.749785 144.419206 948.649142 144.791732 949.586777 144.791732 
z
" clip-path="url(#pe0a00eb29c)" style="fill: #808080; stroke: #000000; stroke-width: 0.4"/>
    <path d="M 963.471074 100.494212 
C 964.408709 100.494212 965.308067 100.121685 965.971074 99.458678 
C 966.634082 98.79567 967.006608 97.896312 967.006608 96.958678 
C 967.006608 96.021043 966.634082 95.121685 965.971074 94.458678 
C 965.308067 93.79567 964.408709 93.423144 963.471074 93.423144 
C 962.53344 93.423144 961.634082 93.79567 960.971074 94.458678 
C 960.308067 95.121685 959.93554 96.021043 959.93554 96.958678 
C 959.93554 97.896312 960.308067 98.79567 960.971074 99.458678 
C 961.634082 100.121685 962.53344 100.494212 963.471074 100.494212 
z
" clip-path="url(#pe0a00eb29c)" style="fill: #808080; stroke: #000000; stroke-width: 0.4"/>
    <path d="M 977.355372 144.791732 
C 978.293006 144.791732 979.192364 144.419206 979.855372 143.756198 
C 980.51838 143.093191 980.890906 142.193833 980.890906 141.256198 
C 980.890906 140.318564 980.51838 139.419206 979.855372 138.756198 
C 979.192364 138.093191 978.293006 137.720664 977.355372 137.720664 
C 976.417737 137.720664 975.51838 138.093191 974.855372 138.756198 
C 974.192364 139.419206 973.819838 140.318564 973.819838 141.256198 
C 973.819838 142.193833 974.192364 143.093191 974.855372 143.756198 
C 975.51838 144.419206 976.417737 144.791732 977.355372 144.791732 
z
" clip-path="url(#pe0a00eb29c)" style="fill: #808080; stroke: #000000; stroke-width: 0.4"/>
    <path d="M 921.818182 101.958678 
C 923.144197 101.958678 924.416081 101.431846 925.353716 100.494212 
C 926.29135 99.556577 926.818182 98.284693 926.818182 96.958678 
C 926.818182 95.632662 926.29135 94.360778 925.353716 93.423144 
C 924.416081 92.485509 923.144197 91.958678 921.818182 91.958678 
C 920.492166 91.958678 919.220282 92.485509 918.282648 93.423144 
C 917.345013 94.360778 916.818182 95.632662 916.818182 96.958678 
C 916.818182 98.284693 917.345013 99.556577 918.282648 100.494212 
C 919.220282 101.431846 920.492166 101.958678 921.818182 101.958678 
z
" clip-path="url(#pe0a00eb29c)" style="stroke: #000000; stroke-width: 0.4"/>
    <path d="M 283.140496 57.661157 
C 284.466511 57.661157 285.738395 57.134325 286.67603 56.196691 
C 287.613664 55.259056 288.140496 53.987173 288.140496 52.661157 
C 288.140496 51.335142 287.613664 50.063258 286.67603 49.125623 
C 285.738395 48.187989 284.466511 47.661157 283.140496 47.661157 
C 281.81448 47.661157 280.542597 48.187989 279.604962 49.125623 
C 278.667327 50.063258 278.140496 51.335142 278.140496 52.661157 
C 278.140496 53.987173 278.667327 55.259056 279.604962 56.196691 
C 280.542597 57.134325 281.81448 57.661157 283.140496 57.661157 
z
" clip-path="url(#pe0a00eb29c)" style="stroke: #000000; stroke-width: 0.4"/>
   </g>
   <g id="line2d_1">
    <path d="M 873.22314 493.2 
L 873.22314 10.8 
" clip-path="url(#pe0a00eb29c)" style="fill: none; stroke: #ff0000; stroke-width: 1.5; stroke-linecap: square"/>
   </g>
   <g id="patch_3">
    <path d="M 10.8 493.2 
L 10.8 10.8 
" style="fill: none; stroke: #000000; stroke-width: 0.8; stroke-linejoin: miter; stroke-linecap: square"/>
   </g>
   <g id="patch_4">
    <path d="M 1069.2 493.2 
L 1069.2 10.8 
" style="fill: none; stroke: #000000; stroke-width: 0.8; stroke-linejoin: miter; stroke-linecap: square"/>
   </g>
   <g id="patch_5">
    <path d="M 10.8 493.2 
L 1069.2 493.2 
" style="fill: none; stroke: #000000; stroke-width: 0.8; stroke-linejoin: miter; stroke-linecap: square"/>
   </g>
   <g id="patch_6">
    <path d="M 10.8 10.8 
L 1069.2 10.8 
" style="fill: none; stroke: #000000; stroke-width: 0.8; stroke-linejoin: miter; stroke-linecap: square"/>
   </g>
   <g id="text_1">
    <!-- LO -->
    <g transform="translate(556.942149 269.14876)scale(0.12 -0.12)">
     <defs>
      <path id="DejaVuSans-4c" d="M 628 4666 
L 1259 4666 
L 1259 531 
L 3531 531 
L 3531 0 
L 628 0 
L 628 4666 
z
" transform="scale(0.015625)"/>
      <path id="DejaVuSans-4f" d="M 2522 4238 
Q 1834 4238 1429 3725 
Q 1025 3213 1025 2328 
Q 1025 1447 1429 934 
Q 1834 422 2522 422 
Q 3209 422 3611 934 
Q 4013 1447 4013 2328 
Q 4013 3213 3611 3725 
Q 3209 4238 2522 4238 
z
M 2522 4750 
Q 3503 4750 4090 4092 
Q 4678 3434 4678 2328 
Q 4678 1225 4090 567 
Q 3503 -91 2522 -91 
Q 1538 -91 948 565 
Q 359 1222 359 2328 
Q 359 3434 948 4092 
Q 1538 4750 2522 4750 
z
" transform="scale(0.015625)"/>
     </defs>
     <use xlink:href="#DejaVuSans-4c"/>
     <use xlink:href="#DejaVuSans-4f" x="52.087891"/>
    </g>
   </g>
   <g id="text_2">
    <!-- LE -->
    <g transform="translate(846.280992 161.256198)scale(0.12 -0.12)">
     <defs>
      <path id="DejaVuSans-45" d="M 628 4666 
L 3578 4666 
L 3578 4134 
L 1259 4134 
L 1259 2753 
L 3481 2753 
L 3481 2222 
L 1259 2222 
L 1259 531 
L 3634 531 
L 3634 0 
L 628 0 
L 628 4666 
z
" transform="scale(0.015625)"/>
     </defs>
     <use xlink:href="#DejaVuSans-4c"/>
     <use xlink:href="#DejaVuSans-45" x="55.712891"/>
    </g>
   </g>
  </g>
 </g>
 <defs>
  <clipPath id="pe0a00eb29c">
   <rect x="10.8" y="10.8" width="1058.4" height="482.4"/>
  </clipPath>
 </defs>
</svg>
