<?xml version="1.0" encoding="utf-8" standalone="no"?>
<!DOCTYPE svg PUBLIC "-//W3C//DTD SVG 1.1//EN"
  "http://www.w3.org/Graphics/SVG/1.1/DTD/svg11.dtd">
<svg xmlns:xlink="http://www.w3.org/1999/xlink" width="1080pt" height="504pt" viewBox="0 0 1080 504" xmlns="http://www.w3.org/2000/svg" version="1.1">
 <metadata>
  <rdf:RDF xmlns:dc="http://purl.org/dc/elements/1.1/" xmlns:cc="http://creativecommons.org/ns#" xmlns:rdf="http://www.w3.org/1999/02/22-rdf-syntax-ns#">
   <cc:Work>
    <dc:type rdf:resource="http://purl.org/dc/dcmitype/StillImage"/>
    <dc:date>2022-04-20T07:33:45.333493</dc:date>
    <dc:format>image/svg+xml</dc:format>
    <dc:creator>
     <cc:Agent>
      <dc:title>Matplotlib v3.5.1, https://matplotlib.org/</dc:title>
     </cc:Agent>
    </dc:creator>
   </cc:Work>
  </rdf:RDF>
 </metadata>
 <defs>
  <style type="text/css">*{stroke-linejoin: round; stroke-linecap: butt}</style>
 </defs>
 <g id="figure_1">
  <g id="patch_1">
   <path d="M 0 504 
L 1080 504 
L 1080 0 
L 0 0 
z
" style="fill: #ffffff"/>
  </g>
  <g id="axes_1">
   <g id="patch_2">
    <path d="M 10.8 493.2 
L 1069.2 493.2 
L 1069.2 10.8 
L 10.8 10.8 
z
" style="fill: #ffffff"/>
   </g>
   <g id="LineCollection_1">
    <path d="M 162.969507 132.396694 
L 178.050727 132.396694 
" clip-path="url(#p53aa3762eb)" style="fill: none; stroke: #000000; stroke-width: 0.4"/>
    <path d="M 162.969507 132.396694 
L 193.131946 105.818182 
" clip-path="url(#p53aa3762eb)" style="fill: none; stroke: #000000; stroke-width: 0.4"/>
    <path d="M 268.538045 185.553719 
L 283.619265 185.553719 
" clip-path="url(#p53aa3762eb)" style="fill: none; stroke: #000000; stroke-width: 0.4"/>
    <path d="M 268.538045 185.553719 
L 298.700484 158.975207 
" clip-path="url(#p53aa3762eb)" style="fill: none; stroke: #000000; stroke-width: 0.4"/>
    <path d="M 313.781704 212.132231 
L 328.862924 212.132231 
" clip-path="url(#p53aa3762eb)" style="fill: none; stroke: #000000; stroke-width: 0.4"/>
    <path d="M 313.781704 212.132231 
L 343.944144 185.553719 
" clip-path="url(#p53aa3762eb)" style="fill: none; stroke: #000000; stroke-width: 0.4"/>
    <path d="M 479.675121 318.446281 
L 494.756341 318.446281 
" clip-path="url(#p53aa3762eb)" style="fill: none; stroke: #000000; stroke-width: 0.4"/>
    <path d="M 479.675121 318.446281 
L 509.837561 291.867769 
" clip-path="url(#p53aa3762eb)" style="fill: none; stroke: #000000; stroke-width: 0.4"/>
    <path d="M 524.91878 318.446281 
L 540 318.446281 
" clip-path="url(#p53aa3762eb)" style="fill: none; stroke: #000000; stroke-width: 0.4"/>
    <path d="M 524.91878 318.446281 
L 555.08122 291.867769 
" clip-path="url(#p53aa3762eb)" style="fill: none; stroke: #000000; stroke-width: 0.4"/>
    <path d="M 570.162439 345.024793 
L 585.243659 345.024793 
" clip-path="url(#p53aa3762eb)" style="fill: none; stroke: #000000; stroke-width: 0.4"/>
    <path d="M 570.162439 345.024793 
L 600.324879 318.446281 
" clip-path="url(#p53aa3762eb)" style="fill: none; stroke: #000000; stroke-width: 0.4"/>
    <path d="M 615.406099 371.603306 
L 630.487318 371.603306 
" clip-path="url(#p53aa3762eb)" style="fill: none; stroke: #000000; stroke-width: 0.4"/>
    <path d="M 615.406099 371.603306 
L 645.568538 345.024793 
" clip-path="url(#p53aa3762eb)" style="fill: none; stroke: #000000; stroke-width: 0.4"/>
    <path d="M 675.730977 398.181818 
L 660.649758 424.760331 
" clip-path="url(#p53aa3762eb)" style="fill: none; stroke: #000000; stroke-width: 0.4"/>
    <path d="M 675.730977 398.181818 
L 690.812197 424.760331 
" clip-path="url(#p53aa3762eb)" style="fill: none; stroke: #000000; stroke-width: 0.4"/>
    <path d="M 675.730977 398.181818 
L 705.893417 371.603306 
" clip-path="url(#p53aa3762eb)" style="fill: none; stroke: #000000; stroke-width: 0.4"/>
    <path d="M 751.137076 451.338843 
L 766.218296 451.338843 
" clip-path="url(#p53aa3762eb)" style="fill: none; stroke: #000000; stroke-width: 0.4"/>
    <path d="M 751.137076 451.338843 
L 781.299516 424.760331 
" clip-path="url(#p53aa3762eb)" style="fill: none; stroke: #000000; stroke-width: 0.4"/>
    <path d="M 781.299516 424.760331 
L 796.380735 451.338843 
" clip-path="url(#p53aa3762eb)" style="fill: none; stroke: #000000; stroke-width: 0.4"/>
    <path d="M 781.299516 424.760331 
L 736.055856 424.760331 
" clip-path="url(#p53aa3762eb)" style="fill: none; stroke: #000000; stroke-width: 0.4"/>
    <path d="M 736.055856 424.760331 
L 720.974637 451.338843 
" clip-path="url(#p53aa3762eb)" style="fill: none; stroke: #000000; stroke-width: 0.4"/>
    <path d="M 736.055856 424.760331 
L 811.461955 398.181818 
" clip-path="url(#p53aa3762eb)" style="fill: none; stroke: #000000; stroke-width: 0.4"/>
    <path d="M 841.624394 398.181818 
L 826.543175 424.760331 
" clip-path="url(#p53aa3762eb)" style="fill: none; stroke: #000000; stroke-width: 0.4"/>
    <path d="M 841.624394 398.181818 
L 856.705614 424.760331 
" clip-path="url(#p53aa3762eb)" style="fill: none; stroke: #000000; stroke-width: 0.4"/>
    <path d="M 841.624394 398.181818 
L 811.461955 398.181818 
" clip-path="url(#p53aa3762eb)" style="fill: none; stroke: #000000; stroke-width: 0.4"/>
    <path d="M 811.461955 398.181818 
L 871.786834 371.603306 
" clip-path="url(#p53aa3762eb)" style="fill: none; stroke: #000000; stroke-width: 0.4"/>
    <path d="M 871.786834 371.603306 
L 705.893417 371.603306 
" clip-path="url(#p53aa3762eb)" style="fill: none; stroke: #000000; stroke-width: 0.4"/>
    <path d="M 705.893417 371.603306 
L 886.868054 345.024793 
" clip-path="url(#p53aa3762eb)" style="fill: none; stroke: #000000; stroke-width: 0.4"/>
    <path d="M 886.868054 345.024793 
L 901.949273 371.603306 
" clip-path="url(#p53aa3762eb)" style="fill: none; stroke: #000000; stroke-width: 0.4"/>
    <path d="M 886.868054 345.024793 
L 645.568538 345.024793 
" clip-path="url(#p53aa3762eb)" style="fill: none; stroke: #000000; stroke-width: 0.4"/>
    <path d="M 645.568538 345.024793 
L 600.324879 318.446281 
" clip-path="url(#p53aa3762eb)" style="fill: none; stroke: #000000; stroke-width: 0.4"/>
    <path d="M 600.324879 318.446281 
L 555.08122 291.867769 
" clip-path="url(#p53aa3762eb)" style="fill: none; stroke: #000000; stroke-width: 0.4"/>
    <path d="M 555.08122 291.867769 
L 509.837561 291.867769 
" clip-path="url(#p53aa3762eb)" style="fill: none; stroke: #000000; stroke-width: 0.4"/>
    <path d="M 509.837561 291.867769 
L 464.593901 265.289256 
" clip-path="url(#p53aa3762eb)" style="fill: none; stroke: #000000; stroke-width: 0.4"/>
    <path d="M 464.593901 265.289256 
L 449.512682 291.867769 
" clip-path="url(#p53aa3762eb)" style="fill: none; stroke: #000000; stroke-width: 0.4"/>
    <path d="M 464.593901 265.289256 
L 434.431462 265.289256 
" clip-path="url(#p53aa3762eb)" style="fill: none; stroke: #000000; stroke-width: 0.4"/>
    <path d="M 434.431462 265.289256 
L 419.350242 291.867769 
" clip-path="url(#p53aa3762eb)" style="fill: none; stroke: #000000; stroke-width: 0.4"/>
    <path d="M 434.431462 265.289256 
L 917.030493 238.710744 
" clip-path="url(#p53aa3762eb)" style="fill: none; stroke: #000000; stroke-width: 0.4"/>
    <path d="M 932.111713 265.289256 
L 947.192932 265.289256 
" clip-path="url(#p53aa3762eb)" style="fill: none; stroke: #000000; stroke-width: 0.4"/>
    <path d="M 932.111713 265.289256 
L 917.030493 238.710744 
" clip-path="url(#p53aa3762eb)" style="fill: none; stroke: #000000; stroke-width: 0.4"/>
    <path d="M 917.030493 238.710744 
L 404.269023 212.132231 
" clip-path="url(#p53aa3762eb)" style="fill: none; stroke: #000000; stroke-width: 0.4"/>
    <path d="M 404.269023 212.132231 
L 389.187803 238.710744 
" clip-path="url(#p53aa3762eb)" style="fill: none; stroke: #000000; stroke-width: 0.4"/>
    <path d="M 404.269023 212.132231 
L 374.106583 212.132231 
" clip-path="url(#p53aa3762eb)" style="fill: none; stroke: #000000; stroke-width: 0.4"/>
    <path d="M 374.106583 212.132231 
L 359.025363 238.710744 
" clip-path="url(#p53aa3762eb)" style="fill: none; stroke: #000000; stroke-width: 0.4"/>
    <path d="M 374.106583 212.132231 
L 343.944144 185.553719 
" clip-path="url(#p53aa3762eb)" style="fill: none; stroke: #000000; stroke-width: 0.4"/>
    <path d="M 343.944144 185.553719 
L 298.700484 158.975207 
" clip-path="url(#p53aa3762eb)" style="fill: none; stroke: #000000; stroke-width: 0.4"/>
    <path d="M 298.700484 158.975207 
L 253.456825 132.396694 
" clip-path="url(#p53aa3762eb)" style="fill: none; stroke: #000000; stroke-width: 0.4"/>
    <path d="M 253.456825 132.396694 
L 238.375606 158.975207 
" clip-path="url(#p53aa3762eb)" style="fill: none; stroke: #000000; stroke-width: 0.4"/>
    <path d="M 253.456825 132.396694 
L 223.294386 132.396694 
" clip-path="url(#p53aa3762eb)" style="fill: none; stroke: #000000; stroke-width: 0.4"/>
    <path d="M 223.294386 132.396694 
L 208.213166 158.975207 
" clip-path="url(#p53aa3762eb)" style="fill: none; stroke: #000000; stroke-width: 0.4"/>
    <path d="M 223.294386 132.396694 
L 193.131946 105.818182 
" clip-path="url(#p53aa3762eb)" style="fill: none; stroke: #000000; stroke-width: 0.4"/>
    <path d="M 193.131946 105.818182 
L 962.274152 79.239669 
" clip-path="url(#p53aa3762eb)" style="fill: none; stroke: #000000; stroke-width: 0.4"/>
    <path d="M 962.274152 79.239669 
L 977.355372 105.818182 
" clip-path="url(#p53aa3762eb)" style="fill: none; stroke: #000000; stroke-width: 0.4"/>
    <path d="M 962.274152 79.239669 
L 147.888287 79.239669 
" clip-path="url(#p53aa3762eb)" style="fill: none; stroke: #000000; stroke-width: 0.4"/>
    <path d="M 147.888287 79.239669 
L 132.807068 105.818182 
" clip-path="url(#p53aa3762eb)" style="fill: none; stroke: #000000; stroke-width: 0.4"/>
    <path d="M 147.888287 79.239669 
L 117.725848 52.661157 
" clip-path="url(#p53aa3762eb)" style="fill: none; stroke: #000000; stroke-width: 0.4"/>
    <path d="M 117.725848 52.661157 
L 102.644628 79.239669 
" clip-path="url(#p53aa3762eb)" style="fill: none; stroke: #000000; stroke-width: 0.4"/>
   </g>
   <g id="matplotlib.axis_1">
    <g id="xtick_1"/>
    <g id="xtick_2"/>
    <g id="xtick_3"/>
    <g id="xtick_4"/>
    <g id="xtick_5"/>
    <g id="xtick_6"/>
    <g id="xtick_7"/>
   </g>
   <g id="matplotlib.axis_2">
    <g id="ytick_1"/>
    <g id="ytick_2"/>
    <g id="ytick_3"/>
    <g id="ytick_4"/>
    <g id="ytick_5"/>
    <g id="ytick_6"/>
    <g id="ytick_7"/>
    <g id="ytick_8"/>
   </g>
   <g id="PathCollection_1">
    <path d="M 162.969507 135.932228 
C 163.907142 135.932228 164.806499 135.559702 165.469507 134.896694 
C 166.132515 134.233686 166.505041 133.334329 166.505041 132.396694 
C 166.505041 131.45906 166.132515 130.559702 165.469507 129.896694 
C 164.806499 129.233686 163.907142 128.86116 162.969507 128.86116 
C 162.031872 128.86116 161.132515 129.233686 160.469507 129.896694 
C 159.806499 130.559702 159.433973 131.45906 159.433973 132.396694 
C 159.433973 133.334329 159.806499 134.233686 160.469507 134.896694 
C 161.132515 135.559702 162.031872 135.932228 162.969507 135.932228 
z
" clip-path="url(#p53aa3762eb)" style="fill: #808080; stroke: #000000; stroke-width: 0.4"/>
    <path d="M 178.050727 135.932228 
C 178.988361 135.932228 179.887719 135.559702 180.550727 134.896694 
C 181.213734 134.233686 181.586261 133.334329 181.586261 132.396694 
C 181.586261 131.45906 181.213734 130.559702 180.550727 129.896694 
C 179.887719 129.233686 178.988361 128.86116 178.050727 128.86116 
C 177.113092 128.86116 176.213734 129.233686 175.550727 129.896694 
C 174.887719 130.559702 174.515193 131.45906 174.515193 132.396694 
C 174.515193 133.334329 174.887719 134.233686 175.550727 134.896694 
C 176.213734 135.559702 177.113092 135.932228 178.050727 135.932228 
z
" clip-path="url(#p53aa3762eb)" style="fill: #808080; stroke: #000000; stroke-width: 0.4"/>
    <path d="M 268.538045 189.089253 
C 269.47568 189.089253 270.375037 188.716727 271.038045 188.053719 
C 271.701053 187.390711 272.073579 186.491354 272.073579 185.553719 
C 272.073579 184.616084 271.701053 183.716727 271.038045 183.053719 
C 270.375037 182.390711 269.47568 182.018185 268.538045 182.018185 
C 267.60041 182.018185 266.701053 182.390711 266.038045 183.053719 
C 265.375037 183.716727 265.002511 184.616084 265.002511 185.553719 
C 265.002511 186.491354 265.375037 187.390711 266.038045 188.053719 
C 266.701053 188.716727 267.60041 189.089253 268.538045 189.089253 
z
" clip-path="url(#p53aa3762eb)" style="fill: #808080; stroke: #000000; stroke-width: 0.4"/>
    <path d="M 283.619265 189.089253 
C 284.556899 189.089253 285.456257 188.716727 286.119265 188.053719 
C 286.782272 187.390711 287.154799 186.491354 287.154799 185.553719 
C 287.154799 184.616084 286.782272 183.716727 286.119265 183.053719 
C 285.456257 182.390711 284.556899 182.018185 283.619265 182.018185 
C 282.68163 182.018185 281.782272 182.390711 281.119265 183.053719 
C 280.456257 183.716727 280.083731 184.616084 280.083731 185.553719 
C 280.083731 186.491354 280.456257 187.390711 281.119265 188.053719 
C 281.782272 188.716727 282.68163 189.089253 283.619265 189.089253 
z
" clip-path="url(#p53aa3762eb)" style="fill: #808080; stroke: #000000; stroke-width: 0.4"/>
    <path d="M 313.781704 215.667765 
C 314.719339 215.667765 315.618696 215.295239 316.281704 214.632231 
C 316.944712 213.969224 317.317238 213.069866 317.317238 212.132231 
C 317.317238 211.194597 316.944712 210.295239 316.281704 209.632231 
C 315.618696 208.969224 314.719339 208.596697 313.781704 208.596697 
C 312.84407 208.596697 311.944712 208.969224 311.281704 209.632231 
C 310.618696 210.295239 310.24617 211.194597 310.24617 212.132231 
C 310.24617 213.069866 310.618696 213.969224 311.281704 214.632231 
C 311.944712 215.295239 312.84407 215.667765 313.781704 215.667765 
z
" clip-path="url(#p53aa3762eb)" style="fill: #808080; stroke: #000000; stroke-width: 0.4"/>
    <path d="M 328.862924 215.667765 
C 329.800558 215.667765 330.699916 215.295239 331.362924 214.632231 
C 332.025932 213.969224 332.398458 213.069866 332.398458 212.132231 
C 332.398458 211.194597 332.025932 210.295239 331.362924 209.632231 
C 330.699916 208.969224 329.800558 208.596697 328.862924 208.596697 
C 327.925289 208.596697 327.025932 208.969224 326.362924 209.632231 
C 325.699916 210.295239 325.32739 211.194597 325.32739 212.132231 
C 325.32739 213.069866 325.699916 213.969224 326.362924 214.632231 
C 327.025932 215.295239 327.925289 215.667765 328.862924 215.667765 
z
" clip-path="url(#p53aa3762eb)" style="fill: #808080; stroke: #000000; stroke-width: 0.4"/>
    <path d="M 479.675121 321.981815 
C 480.612756 321.981815 481.512113 321.609289 482.175121 320.946281 
C 482.838129 320.283273 483.210655 319.383916 483.210655 318.446281 
C 483.210655 317.508646 482.838129 316.609289 482.175121 315.946281 
C 481.512113 315.283273 480.612756 314.910747 479.675121 314.910747 
C 478.737487 314.910747 477.838129 315.283273 477.175121 315.946281 
C 476.512113 316.609289 476.139587 317.508646 476.139587 318.446281 
C 476.139587 319.383916 476.512113 320.283273 477.175121 320.946281 
C 477.838129 321.609289 478.737487 321.981815 479.675121 321.981815 
z
" clip-path="url(#p53aa3762eb)" style="fill: #808080; stroke: #000000; stroke-width: 0.4"/>
    <path d="M 494.756341 321.981815 
C 495.693975 321.981815 496.593333 321.609289 497.256341 320.946281 
C 497.919349 320.283273 498.291875 319.383916 498.291875 318.446281 
C 498.291875 317.508646 497.919349 316.609289 497.256341 315.946281 
C 496.593333 315.283273 495.693975 314.910747 494.756341 314.910747 
C 493.818706 314.910747 492.919349 315.283273 492.256341 315.946281 
C 491.593333 316.609289 491.220807 317.508646 491.220807 318.446281 
C 491.220807 319.383916 491.593333 320.283273 492.256341 320.946281 
C 492.919349 321.609289 493.818706 321.981815 494.756341 321.981815 
z
" clip-path="url(#p53aa3762eb)" style="fill: #808080; stroke: #000000; stroke-width: 0.4"/>
    <path d="M 524.91878 321.981815 
C 525.856415 321.981815 526.755773 321.609289 527.41878 320.946281 
C 528.081788 320.283273 528.454314 319.383916 528.454314 318.446281 
C 528.454314 317.508646 528.081788 316.609289 527.41878 315.946281 
C 526.755773 315.283273 525.856415 314.910747 524.91878 314.910747 
C 523.981146 314.910747 523.081788 315.283273 522.41878 315.946281 
C 521.755773 316.609289 521.383246 317.508646 521.383246 318.446281 
C 521.383246 319.383916 521.755773 320.283273 522.41878 320.946281 
C 523.081788 321.609289 523.981146 321.981815 524.91878 321.981815 
z
" clip-path="url(#p53aa3762eb)" style="fill: #808080; stroke: #000000; stroke-width: 0.4"/>
    <path d="M 540 321.981815 
C 540.937635 321.981815 541.836992 321.609289 542.5 320.946281 
C 543.163008 320.283273 543.535534 319.383916 543.535534 318.446281 
C 543.535534 317.508646 543.163008 316.609289 542.5 315.946281 
C 541.836992 315.283273 540.937635 314.910747 540 314.910747 
C 539.062365 314.910747 538.163008 315.283273 537.5 315.946281 
C 536.836992 316.609289 536.464466 317.508646 536.464466 318.446281 
C 536.464466 319.383916 536.836992 320.283273 537.5 320.946281 
C 538.163008 321.609289 539.062365 321.981815 540 321.981815 
z
" clip-path="url(#p53aa3762eb)" style="fill: #808080; stroke: #000000; stroke-width: 0.4"/>
    <path d="M 570.162439 348.560327 
C 571.100074 348.560327 571.999432 348.187801 572.662439 347.524793 
C 573.325447 346.861786 573.697973 345.962428 573.697973 345.024793 
C 573.697973 344.087159 573.325447 343.187801 572.662439 342.524793 
C 571.999432 341.861786 571.100074 341.489259 570.162439 341.489259 
C 569.224805 341.489259 568.325447 341.861786 567.662439 342.524793 
C 566.999432 343.187801 566.626906 344.087159 566.626906 345.024793 
C 566.626906 345.962428 566.999432 346.861786 567.662439 347.524793 
C 568.325447 348.187801 569.224805 348.560327 570.162439 348.560327 
z
" clip-path="url(#p53aa3762eb)" style="fill: #808080; stroke: #000000; stroke-width: 0.4"/>
    <path d="M 585.243659 348.560327 
C 586.181294 348.560327 587.080651 348.187801 587.743659 347.524793 
C 588.406667 346.861786 588.779193 345.962428 588.779193 345.024793 
C 588.779193 344.087159 588.406667 343.187801 587.743659 342.524793 
C 587.080651 341.861786 586.181294 341.489259 585.243659 341.489259 
C 584.306025 341.489259 583.406667 341.861786 582.743659 342.524793 
C 582.080651 343.187801 581.708125 344.087159 581.708125 345.024793 
C 581.708125 345.962428 582.080651 346.861786 582.743659 347.524793 
C 583.406667 348.187801 584.306025 348.560327 585.243659 348.560327 
z
" clip-path="url(#p53aa3762eb)" style="fill: #808080; stroke: #000000; stroke-width: 0.4"/>
    <path d="M 615.406099 375.13884 
C 616.343733 375.13884 617.243091 374.766314 617.906099 374.103306 
C 618.569106 373.440298 618.941633 372.54094 618.941633 371.603306 
C 618.941633 370.665671 618.569106 369.766314 617.906099 369.103306 
C 617.243091 368.440298 616.343733 368.067772 615.406099 368.067772 
C 614.468464 368.067772 613.569106 368.440298 612.906099 369.103306 
C 612.243091 369.766314 611.870565 370.665671 611.870565 371.603306 
C 611.870565 372.54094 612.243091 373.440298 612.906099 374.103306 
C 613.569106 374.766314 614.468464 375.13884 615.406099 375.13884 
z
" clip-path="url(#p53aa3762eb)" style="fill: #808080; stroke: #000000; stroke-width: 0.4"/>
    <path d="M 630.487318 375.13884 
C 631.424953 375.13884 632.324311 374.766314 632.987318 374.103306 
C 633.650326 373.440298 634.022852 372.54094 634.022852 371.603306 
C 634.022852 370.665671 633.650326 369.766314 632.987318 369.103306 
C 632.324311 368.440298 631.424953 368.067772 630.487318 368.067772 
C 629.549684 368.067772 628.650326 368.440298 627.987318 369.103306 
C 627.324311 369.766314 626.951784 370.665671 626.951784 371.603306 
C 626.951784 372.54094 627.324311 373.440298 627.987318 374.103306 
C 628.650326 374.766314 629.549684 375.13884 630.487318 375.13884 
z
" clip-path="url(#p53aa3762eb)" style="fill: #808080; stroke: #000000; stroke-width: 0.4"/>
    <path d="M 675.730977 403.181818 
C 677.056993 403.181818 678.328877 402.654987 679.266511 401.717352 
C 680.204146 400.779718 680.730977 399.507834 680.730977 398.181818 
C 680.730977 396.855803 680.204146 395.583919 679.266511 394.646284 
C 678.328877 393.70865 677.056993 393.181818 675.730977 393.181818 
C 674.404962 393.181818 673.133078 393.70865 672.195444 394.646284 
C 671.257809 395.583919 670.730977 396.855803 670.730977 398.181818 
C 670.730977 399.507834 671.257809 400.779718 672.195444 401.717352 
C 673.133078 402.654987 674.404962 403.181818 675.730977 403.181818 
z
" clip-path="url(#p53aa3762eb)" style="stroke: #000000; stroke-width: 0.4"/>
    <path d="M 660.649758 428.295864 
C 661.587392 428.295864 662.48675 427.923338 663.149758 427.260331 
C 663.812766 426.597323 664.185292 425.697965 664.185292 424.760331 
C 664.185292 423.822696 663.812766 422.923338 663.149758 422.260331 
C 662.48675 421.597323 661.587392 421.224797 660.649758 421.224797 
C 659.712123 421.224797 658.812766 421.597323 658.149758 422.260331 
C 657.48675 422.923338 657.114224 423.822696 657.114224 424.760331 
C 657.114224 425.697965 657.48675 426.597323 658.149758 427.260331 
C 658.812766 427.923338 659.712123 428.295864 660.649758 428.295864 
z
" clip-path="url(#p53aa3762eb)" style="fill: #808080; stroke: #000000; stroke-width: 0.4"/>
    <path d="M 690.812197 428.295864 
C 691.749832 428.295864 692.649189 427.923338 693.312197 427.260331 
C 693.975205 426.597323 694.347731 425.697965 694.347731 424.760331 
C 694.347731 423.822696 693.975205 422.923338 693.312197 422.260331 
C 692.649189 421.597323 691.749832 421.224797 690.812197 421.224797 
C 689.874563 421.224797 688.975205 421.597323 688.312197 422.260331 
C 687.649189 422.923338 687.276663 423.822696 687.276663 424.760331 
C 687.276663 425.697965 687.649189 426.597323 688.312197 427.260331 
C 688.975205 427.923338 689.874563 428.295864 690.812197 428.295864 
z
" clip-path="url(#p53aa3762eb)" style="fill: #808080; stroke: #000000; stroke-width: 0.4"/>
    <path d="M 751.137076 456.338843 
C 752.463092 456.338843 753.734975 455.812011 754.67261 454.874377 
C 755.610245 453.936742 756.137076 452.664858 756.137076 451.338843 
C 756.137076 450.012827 755.610245 448.740944 754.67261 447.803309 
C 753.734975 446.865675 752.463092 446.338843 751.137076 446.338843 
C 749.811061 446.338843 748.539177 446.865675 747.601542 447.803309 
C 746.663908 448.740944 746.137076 450.012827 746.137076 451.338843 
C 746.137076 452.664858 746.663908 453.936742 747.601542 454.874377 
C 748.539177 455.812011 749.811061 456.338843 751.137076 456.338843 
z
" clip-path="url(#p53aa3762eb)" style="stroke: #000000; stroke-width: 0.4"/>
    <path d="M 766.218296 456.338843 
C 767.544311 456.338843 768.816195 455.812011 769.75383 454.874377 
C 770.691464 453.936742 771.218296 452.664858 771.218296 451.338843 
C 771.218296 450.012827 770.691464 448.740944 769.75383 447.803309 
C 768.816195 446.865675 767.544311 446.338843 766.218296 446.338843 
C 764.89228 446.338843 763.620396 446.865675 762.682762 447.803309 
C 761.745127 448.740944 761.218296 450.012827 761.218296 451.338843 
C 761.218296 452.664858 761.745127 453.936742 762.682762 454.874377 
C 763.620396 455.812011 764.89228 456.338843 766.218296 456.338843 
z
" clip-path="url(#p53aa3762eb)" style="fill: #ff0000; stroke: #000000; stroke-width: 0.4"/>
    <path d="M 781.299516 429.760331 
C 782.625531 429.760331 783.897415 429.233499 784.835049 428.295864 
C 785.772684 427.35823 786.299516 426.086346 786.299516 424.760331 
C 786.299516 423.434315 785.772684 422.162431 784.835049 421.224797 
C 783.897415 420.287162 782.625531 419.760331 781.299516 419.760331 
C 779.9735 419.760331 778.701616 420.287162 777.763982 421.224797 
C 776.826347 422.162431 776.299516 423.434315 776.299516 424.760331 
C 776.299516 426.086346 776.826347 427.35823 777.763982 428.295864 
C 778.701616 429.233499 779.9735 429.760331 781.299516 429.760331 
z
" clip-path="url(#p53aa3762eb)" style="fill: #008000; stroke: #000000; stroke-width: 0.4"/>
    <path d="M 796.380735 454.874377 
C 797.31837 454.874377 798.217728 454.501851 798.880735 453.838843 
C 799.543743 453.175835 799.916269 452.276478 799.916269 451.338843 
C 799.916269 450.401208 799.543743 449.501851 798.880735 448.838843 
C 798.217728 448.175835 797.31837 447.803309 796.380735 447.803309 
C 795.443101 447.803309 794.543743 448.175835 793.880735 448.838843 
C 793.217728 449.501851 792.845201 450.401208 792.845201 451.338843 
C 792.845201 452.276478 793.217728 453.175835 793.880735 453.838843 
C 794.543743 454.501851 795.443101 454.874377 796.380735 454.874377 
z
" clip-path="url(#p53aa3762eb)" style="fill: #808080; stroke: #000000; stroke-width: 0.4"/>
    <path d="M 736.055856 429.760331 
C 737.381872 429.760331 738.653756 429.233499 739.59139 428.295864 
C 740.529025 427.35823 741.055856 426.086346 741.055856 424.760331 
C 741.055856 423.434315 740.529025 422.162431 739.59139 421.224797 
C 738.653756 420.287162 737.381872 419.760331 736.055856 419.760331 
C 734.729841 419.760331 733.457957 420.287162 732.520322 421.224797 
C 731.582688 422.162431 731.055856 423.434315 731.055856 424.760331 
C 731.055856 426.086346 731.582688 427.35823 732.520322 428.295864 
C 733.457957 429.233499 734.729841 429.760331 736.055856 429.760331 
z
" clip-path="url(#p53aa3762eb)" style="stroke: #000000; stroke-width: 0.4"/>
    <path d="M 720.974637 454.874377 
C 721.912271 454.874377 722.811629 454.501851 723.474637 453.838843 
C 724.137644 453.175835 724.510171 452.276478 724.510171 451.338843 
C 724.510171 450.401208 724.137644 449.501851 723.474637 448.838843 
C 722.811629 448.175835 721.912271 447.803309 720.974637 447.803309 
C 720.037002 447.803309 719.137644 448.175835 718.474637 448.838843 
C 717.811629 449.501851 717.439103 450.401208 717.439103 451.338843 
C 717.439103 452.276478 717.811629 453.175835 718.474637 453.838843 
C 719.137644 454.501851 720.037002 454.874377 720.974637 454.874377 
z
" clip-path="url(#p53aa3762eb)" style="fill: #808080; stroke: #000000; stroke-width: 0.4"/>
    <path d="M 841.624394 403.181818 
C 842.95041 403.181818 844.222294 402.654987 845.159928 401.717352 
C 846.097563 400.779718 846.624394 399.507834 846.624394 398.181818 
C 846.624394 396.855803 846.097563 395.583919 845.159928 394.646284 
C 844.222294 393.70865 842.95041 393.181818 841.624394 393.181818 
C 840.298379 393.181818 839.026495 393.70865 838.088861 394.646284 
C 837.151226 395.583919 836.624394 396.855803 836.624394 398.181818 
C 836.624394 399.507834 837.151226 400.779718 838.088861 401.717352 
C 839.026495 402.654987 840.298379 403.181818 841.624394 403.181818 
z
" clip-path="url(#p53aa3762eb)" style="stroke: #000000; stroke-width: 0.4"/>
    <path d="M 826.543175 428.295864 
C 827.480809 428.295864 828.380167 427.923338 829.043175 427.260331 
C 829.706182 426.597323 830.078709 425.697965 830.078709 424.760331 
C 830.078709 423.822696 829.706182 422.923338 829.043175 422.260331 
C 828.380167 421.597323 827.480809 421.224797 826.543175 421.224797 
C 825.60554 421.224797 824.706182 421.597323 824.043175 422.260331 
C 823.380167 422.923338 823.007641 423.822696 823.007641 424.760331 
C 823.007641 425.697965 823.380167 426.597323 824.043175 427.260331 
C 824.706182 427.923338 825.60554 428.295864 826.543175 428.295864 
z
" clip-path="url(#p53aa3762eb)" style="fill: #808080; stroke: #000000; stroke-width: 0.4"/>
    <path d="M 856.705614 428.295864 
C 857.643249 428.295864 858.542606 427.923338 859.205614 427.260331 
C 859.868622 426.597323 860.241148 425.697965 860.241148 424.760331 
C 860.241148 423.822696 859.868622 422.923338 859.205614 422.260331 
C 858.542606 421.597323 857.643249 421.224797 856.705614 421.224797 
C 855.76798 421.224797 854.868622 421.597323 854.205614 422.260331 
C 853.542606 422.923338 853.17008 423.822696 853.17008 424.760331 
C 853.17008 425.697965 853.542606 426.597323 854.205614 427.260331 
C 854.868622 427.923338 855.76798 428.295864 856.705614 428.295864 
z
" clip-path="url(#p53aa3762eb)" style="fill: #808080; stroke: #000000; stroke-width: 0.4"/>
    <path d="M 811.461955 403.181818 
C 812.78797 403.181818 814.059854 402.654987 814.997489 401.717352 
C 815.935123 400.779718 816.461955 399.507834 816.461955 398.181818 
C 816.461955 396.855803 815.935123 395.583919 814.997489 394.646284 
C 814.059854 393.70865 812.78797 393.181818 811.461955 393.181818 
C 810.135939 393.181818 808.864056 393.70865 807.926421 394.646284 
C 806.988787 395.583919 806.461955 396.855803 806.461955 398.181818 
C 806.461955 399.507834 806.988787 400.779718 807.926421 401.717352 
C 808.864056 402.654987 810.135939 403.181818 811.461955 403.181818 
z
" clip-path="url(#p53aa3762eb)" style="fill: #008000; stroke: #000000; stroke-width: 0.4"/>
    <path d="M 871.786834 376.603306 
C 873.112849 376.603306 874.384733 376.076474 875.322368 375.13884 
C 876.260002 374.201205 876.786834 372.929321 876.786834 371.603306 
C 876.786834 370.27729 876.260002 369.005406 875.322368 368.067772 
C 874.384733 367.130137 873.112849 366.603306 871.786834 366.603306 
C 870.460818 366.603306 869.188935 367.130137 868.2513 368.067772 
C 867.313665 369.005406 866.786834 370.27729 866.786834 371.603306 
C 866.786834 372.929321 867.313665 374.201205 868.2513 375.13884 
C 869.188935 376.076474 870.460818 376.603306 871.786834 376.603306 
z
" clip-path="url(#p53aa3762eb)" style="stroke: #000000; stroke-width: 0.4"/>
    <path d="M 705.893417 376.603306 
C 707.219432 376.603306 708.491316 376.076474 709.428951 375.13884 
C 710.366585 374.201205 710.893417 372.929321 710.893417 371.603306 
C 710.893417 370.27729 710.366585 369.005406 709.428951 368.067772 
C 708.491316 367.130137 707.219432 366.603306 705.893417 366.603306 
C 704.567401 366.603306 703.295518 367.130137 702.357883 368.067772 
C 701.420248 369.005406 700.893417 370.27729 700.893417 371.603306 
C 700.893417 372.929321 701.420248 374.201205 702.357883 375.13884 
C 703.295518 376.076474 704.567401 376.603306 705.893417 376.603306 
z
" clip-path="url(#p53aa3762eb)" style="fill: #008000; stroke: #000000; stroke-width: 0.4"/>
    <path d="M 886.868054 348.560327 
C 887.805688 348.560327 888.705046 348.187801 889.368054 347.524793 
C 890.031061 346.861786 890.403587 345.962428 890.403587 345.024793 
C 890.403587 344.087159 890.031061 343.187801 889.368054 342.524793 
C 888.705046 341.861786 887.805688 341.489259 886.868054 341.489259 
C 885.930419 341.489259 885.031061 341.861786 884.368054 342.524793 
C 883.705046 343.187801 883.33252 344.087159 883.33252 345.024793 
C 883.33252 345.962428 883.705046 346.861786 884.368054 347.524793 
C 885.031061 348.187801 885.930419 348.560327 886.868054 348.560327 
z
" clip-path="url(#p53aa3762eb)" style="fill: #008000; stroke: #000000; stroke-width: 0.4"/>
    <path d="M 901.949273 375.13884 
C 902.886908 375.13884 903.786266 374.766314 904.449273 374.103306 
C 905.112281 373.440298 905.484807 372.54094 905.484807 371.603306 
C 905.484807 370.665671 905.112281 369.766314 904.449273 369.103306 
C 903.786266 368.440298 902.886908 368.067772 901.949273 368.067772 
C 901.011639 368.067772 900.112281 368.440298 899.449273 369.103306 
C 898.786266 369.766314 898.413739 370.665671 898.413739 371.603306 
C 898.413739 372.54094 898.786266 373.440298 899.449273 374.103306 
C 900.112281 374.766314 901.011639 375.13884 901.949273 375.13884 
z
" clip-path="url(#p53aa3762eb)" style="fill: #808080; stroke: #000000; stroke-width: 0.4"/>
    <path d="M 645.568538 350.024793 
C 646.894554 350.024793 648.166437 349.497962 649.104072 348.560327 
C 650.041707 347.622693 650.568538 346.350809 650.568538 345.024793 
C 650.568538 343.698778 650.041707 342.426894 649.104072 341.489259 
C 648.166437 340.551625 646.894554 340.024793 645.568538 340.024793 
C 644.242523 340.024793 642.970639 340.551625 642.033004 341.489259 
C 641.09537 342.426894 640.568538 343.698778 640.568538 345.024793 
C 640.568538 346.350809 641.09537 347.622693 642.033004 348.560327 
C 642.970639 349.497962 644.242523 350.024793 645.568538 350.024793 
z
" clip-path="url(#p53aa3762eb)" style="stroke: #000000; stroke-width: 0.4"/>
    <path d="M 600.324879 323.446281 
C 601.650894 323.446281 602.922778 322.919449 603.860413 321.981815 
C 604.798047 321.04418 605.324879 319.772296 605.324879 318.446281 
C 605.324879 317.120265 604.798047 315.848382 603.860413 314.910747 
C 602.922778 313.973113 601.650894 313.446281 600.324879 313.446281 
C 598.998863 313.446281 597.72698 313.973113 596.789345 314.910747 
C 595.85171 315.848382 595.324879 317.120265 595.324879 318.446281 
C 595.324879 319.772296 595.85171 321.04418 596.789345 321.981815 
C 597.72698 322.919449 598.998863 323.446281 600.324879 323.446281 
z
" clip-path="url(#p53aa3762eb)" style="stroke: #000000; stroke-width: 0.4"/>
    <path d="M 555.08122 296.867769 
C 556.407235 296.867769 557.679119 296.340937 558.616754 295.403303 
C 559.554388 294.465668 560.08122 293.193784 560.08122 291.867769 
C 560.08122 290.541753 559.554388 289.269869 558.616754 288.332235 
C 557.679119 287.3946 556.407235 286.867769 555.08122 286.867769 
C 553.755204 286.867769 552.48332 287.3946 551.545686 288.332235 
C 550.608051 289.269869 550.08122 290.541753 550.08122 291.867769 
C 550.08122 293.193784 550.608051 294.465668 551.545686 295.403303 
C 552.48332 296.340937 553.755204 296.867769 555.08122 296.867769 
z
" clip-path="url(#p53aa3762eb)" style="stroke: #000000; stroke-width: 0.4"/>
    <path d="M 509.837561 296.867769 
C 511.163576 296.867769 512.43546 296.340937 513.373094 295.403303 
C 514.310729 294.465668 514.837561 293.193784 514.837561 291.867769 
C 514.837561 290.541753 514.310729 289.269869 513.373094 288.332235 
C 512.43546 287.3946 511.163576 286.867769 509.837561 286.867769 
C 508.511545 286.867769 507.239661 287.3946 506.302027 288.332235 
C 505.364392 289.269869 504.837561 290.541753 504.837561 291.867769 
C 504.837561 293.193784 505.364392 294.465668 506.302027 295.403303 
C 507.239661 296.340937 508.511545 296.867769 509.837561 296.867769 
z
" clip-path="url(#p53aa3762eb)" style="stroke: #000000; stroke-width: 0.4"/>
    <path d="M 464.593901 270.289256 
C 465.919917 270.289256 467.191801 269.762425 468.129435 268.82479 
C 469.06707 267.887156 469.593901 266.615272 469.593901 265.289256 
C 469.593901 263.963241 469.06707 262.691357 468.129435 261.753722 
C 467.191801 260.816088 465.919917 260.289256 464.593901 260.289256 
C 463.267886 260.289256 461.996002 260.816088 461.058367 261.753722 
C 460.120733 262.691357 459.593901 263.963241 459.593901 265.289256 
C 459.593901 266.615272 460.120733 267.887156 461.058367 268.82479 
C 461.996002 269.762425 463.267886 270.289256 464.593901 270.289256 
z
" clip-path="url(#p53aa3762eb)" style="stroke: #000000; stroke-width: 0.4"/>
    <path d="M 449.512682 295.403303 
C 450.450316 295.403303 451.349674 295.030776 452.012682 294.367769 
C 452.675689 293.704761 453.048216 292.805403 453.048216 291.867769 
C 453.048216 290.930134 452.675689 290.030776 452.012682 289.367769 
C 451.349674 288.704761 450.450316 288.332235 449.512682 288.332235 
C 448.575047 288.332235 447.675689 288.704761 447.012682 289.367769 
C 446.349674 290.030776 445.977148 290.930134 445.977148 291.867769 
C 445.977148 292.805403 446.349674 293.704761 447.012682 294.367769 
C 447.675689 295.030776 448.575047 295.403303 449.512682 295.403303 
z
" clip-path="url(#p53aa3762eb)" style="fill: #808080; stroke: #000000; stroke-width: 0.4"/>
    <path d="M 434.431462 270.289256 
C 435.757477 270.289256 437.029361 269.762425 437.966996 268.82479 
C 438.90463 267.887156 439.431462 266.615272 439.431462 265.289256 
C 439.431462 263.963241 438.90463 262.691357 437.966996 261.753722 
C 437.029361 260.816088 435.757477 260.289256 434.431462 260.289256 
C 433.105446 260.289256 431.833563 260.816088 430.895928 261.753722 
C 429.958293 262.691357 429.431462 263.963241 429.431462 265.289256 
C 429.431462 266.615272 429.958293 267.887156 430.895928 268.82479 
C 431.833563 269.762425 433.105446 270.289256 434.431462 270.289256 
z
" clip-path="url(#p53aa3762eb)" style="stroke: #000000; stroke-width: 0.4"/>
    <path d="M 419.350242 295.403303 
C 420.287877 295.403303 421.187234 295.030776 421.850242 294.367769 
C 422.51325 293.704761 422.885776 292.805403 422.885776 291.867769 
C 422.885776 290.930134 422.51325 290.030776 421.850242 289.367769 
C 421.187234 288.704761 420.287877 288.332235 419.350242 288.332235 
C 418.412608 288.332235 417.51325 288.704761 416.850242 289.367769 
C 416.187234 290.030776 415.814708 290.930134 415.814708 291.867769 
C 415.814708 292.805403 416.187234 293.704761 416.850242 294.367769 
C 417.51325 295.030776 418.412608 295.403303 419.350242 295.403303 
z
" clip-path="url(#p53aa3762eb)" style="fill: #808080; stroke: #000000; stroke-width: 0.4"/>
    <path d="M 932.111713 268.82479 
C 933.049347 268.82479 933.948705 268.452264 934.611713 267.789256 
C 935.27472 267.126248 935.647247 266.226891 935.647247 265.289256 
C 935.647247 264.351622 935.27472 263.452264 934.611713 262.789256 
C 933.948705 262.126248 933.049347 261.753722 932.111713 261.753722 
C 931.174078 261.753722 930.27472 262.126248 929.611713 262.789256 
C 928.948705 263.452264 928.576179 264.351622 928.576179 265.289256 
C 928.576179 266.226891 928.948705 267.126248 929.611713 267.789256 
C 930.27472 268.452264 931.174078 268.82479 932.111713 268.82479 
z
" clip-path="url(#p53aa3762eb)" style="fill: #808080; stroke: #000000; stroke-width: 0.4"/>
    <path d="M 947.192932 268.82479 
C 948.130567 268.82479 949.029925 268.452264 949.692932 267.789256 
C 950.35594 267.126248 950.728466 266.226891 950.728466 265.289256 
C 950.728466 264.351622 950.35594 263.452264 949.692932 262.789256 
C 949.029925 262.126248 948.130567 261.753722 947.192932 261.753722 
C 946.255298 261.753722 945.35594 262.126248 944.692932 262.789256 
C 944.029925 263.452264 943.657399 264.351622 943.657399 265.289256 
C 943.657399 266.226891 944.029925 267.126248 944.692932 267.789256 
C 945.35594 268.452264 946.255298 268.82479 947.192932 268.82479 
z
" clip-path="url(#p53aa3762eb)" style="fill: #808080; stroke: #000000; stroke-width: 0.4"/>
    <path d="M 917.030493 243.710744 
C 918.356509 243.710744 919.628392 243.183912 920.566027 242.246278 
C 921.503661 241.308643 922.030493 240.036759 922.030493 238.710744 
C 922.030493 237.384728 921.503661 236.112844 920.566027 235.17521 
C 919.628392 234.237575 918.356509 233.710744 917.030493 233.710744 
C 915.704478 233.710744 914.432594 234.237575 913.494959 235.17521 
C 912.557325 236.112844 912.030493 237.384728 912.030493 238.710744 
C 912.030493 240.036759 912.557325 241.308643 913.494959 242.246278 
C 914.432594 243.183912 915.704478 243.710744 917.030493 243.710744 
z
" clip-path="url(#p53aa3762eb)" style="stroke: #000000; stroke-width: 0.4"/>
    <path d="M 404.269023 217.132231 
C 405.595038 217.132231 406.866922 216.6054 407.804556 215.667765 
C 408.742191 214.730131 409.269023 213.458247 409.269023 212.132231 
C 409.269023 210.806216 408.742191 209.534332 407.804556 208.596697 
C 406.866922 207.659063 405.595038 207.132231 404.269023 207.132231 
C 402.943007 207.132231 401.671123 207.659063 400.733489 208.596697 
C 399.795854 209.534332 399.269023 210.806216 399.269023 212.132231 
C 399.269023 213.458247 399.795854 214.730131 400.733489 215.667765 
C 401.671123 216.6054 402.943007 217.132231 404.269023 217.132231 
z
" clip-path="url(#p53aa3762eb)" style="stroke: #000000; stroke-width: 0.4"/>
    <path d="M 389.187803 242.246278 
C 390.125437 242.246278 391.024795 241.873752 391.687803 241.210744 
C 392.350811 240.547736 392.723337 239.648378 392.723337 238.710744 
C 392.723337 237.773109 392.350811 236.873752 391.687803 236.210744 
C 391.024795 235.547736 390.125437 235.17521 389.187803 235.17521 
C 388.250168 235.17521 387.350811 235.547736 386.687803 236.210744 
C 386.024795 236.873752 385.652269 237.773109 385.652269 238.710744 
C 385.652269 239.648378 386.024795 240.547736 386.687803 241.210744 
C 387.350811 241.873752 388.250168 242.246278 389.187803 242.246278 
z
" clip-path="url(#p53aa3762eb)" style="fill: #808080; stroke: #000000; stroke-width: 0.4"/>
    <path d="M 374.106583 217.132231 
C 375.432599 217.132231 376.704482 216.6054 377.642117 215.667765 
C 378.579752 214.730131 379.106583 213.458247 379.106583 212.132231 
C 379.106583 210.806216 378.579752 209.534332 377.642117 208.596697 
C 376.704482 207.659063 375.432599 207.132231 374.106583 207.132231 
C 372.780568 207.132231 371.508684 207.659063 370.571049 208.596697 
C 369.633415 209.534332 369.106583 210.806216 369.106583 212.132231 
C 369.106583 213.458247 369.633415 214.730131 370.571049 215.667765 
C 371.508684 216.6054 372.780568 217.132231 374.106583 217.132231 
z
" clip-path="url(#p53aa3762eb)" style="stroke: #000000; stroke-width: 0.4"/>
    <path d="M 359.025363 242.246278 
C 359.962998 242.246278 360.862356 241.873752 361.525363 241.210744 
C 362.188371 240.547736 362.560897 239.648378 362.560897 238.710744 
C 362.560897 237.773109 362.188371 236.873752 361.525363 236.210744 
C 360.862356 235.547736 359.962998 235.17521 359.025363 235.17521 
C 358.087729 235.17521 357.188371 235.547736 356.525363 236.210744 
C 355.862356 236.873752 355.489829 237.773109 355.489829 238.710744 
C 355.489829 239.648378 355.862356 240.547736 356.525363 241.210744 
C 357.188371 241.873752 358.087729 242.246278 359.025363 242.246278 
z
" clip-path="url(#p53aa3762eb)" style="fill: #808080; stroke: #000000; stroke-width: 0.4"/>
    <path d="M 343.944144 190.553719 
C 345.270159 190.553719 346.542043 190.026887 347.479678 189.089253 
C 348.417312 188.151618 348.944144 186.879735 348.944144 185.553719 
C 348.944144 184.227704 348.417312 182.95582 347.479678 182.018185 
C 346.542043 181.080551 345.270159 180.553719 343.944144 180.553719 
C 342.618128 180.553719 341.346244 181.080551 340.40861 182.018185 
C 339.470975 182.95582 338.944144 184.227704 338.944144 185.553719 
C 338.944144 186.879735 339.470975 188.151618 340.40861 189.089253 
C 341.346244 190.026887 342.618128 190.553719 343.944144 190.553719 
z
" clip-path="url(#p53aa3762eb)" style="stroke: #000000; stroke-width: 0.4"/>
    <path d="M 298.700484 163.975207 
C 300.0265 163.975207 301.298384 163.448375 302.236018 162.510741 
C 303.173653 161.573106 303.700484 160.301222 303.700484 158.975207 
C 303.700484 157.649191 303.173653 156.377307 302.236018 155.439673 
C 301.298384 154.502038 300.0265 153.975207 298.700484 153.975207 
C 297.374469 153.975207 296.102585 154.502038 295.164951 155.439673 
C 294.227316 156.377307 293.700484 157.649191 293.700484 158.975207 
C 293.700484 160.301222 294.227316 161.573106 295.164951 162.510741 
C 296.102585 163.448375 297.374469 163.975207 298.700484 163.975207 
z
" clip-path="url(#p53aa3762eb)" style="stroke: #000000; stroke-width: 0.4"/>
    <path d="M 253.456825 137.396694 
C 254.782841 137.396694 256.054725 136.869863 256.992359 135.932228 
C 257.929994 134.994594 258.456825 133.72271 258.456825 132.396694 
C 258.456825 131.070679 257.929994 129.798795 256.992359 128.86116 
C 256.054725 127.923526 254.782841 127.396694 253.456825 127.396694 
C 252.13081 127.396694 250.858926 127.923526 249.921291 128.86116 
C 248.983657 129.798795 248.456825 131.070679 248.456825 132.396694 
C 248.456825 133.72271 248.983657 134.994594 249.921291 135.932228 
C 250.858926 136.869863 252.13081 137.396694 253.456825 137.396694 
z
" clip-path="url(#p53aa3762eb)" style="stroke: #000000; stroke-width: 0.4"/>
    <path d="M 238.375606 162.510741 
C 239.31324 162.510741 240.212598 162.138214 240.875606 161.475207 
C 241.538613 160.812199 241.911139 159.912841 241.911139 158.975207 
C 241.911139 158.037572 241.538613 157.138214 240.875606 156.475207 
C 240.212598 155.812199 239.31324 155.439673 238.375606 155.439673 
C 237.437971 155.439673 236.538613 155.812199 235.875606 156.475207 
C 235.212598 157.138214 234.840072 158.037572 234.840072 158.975207 
C 234.840072 159.912841 235.212598 160.812199 235.875606 161.475207 
C 236.538613 162.138214 237.437971 162.510741 238.375606 162.510741 
z
" clip-path="url(#p53aa3762eb)" style="fill: #808080; stroke: #000000; stroke-width: 0.4"/>
    <path d="M 223.294386 137.396694 
C 224.620401 137.396694 225.892285 136.869863 226.82992 135.932228 
C 227.767554 134.994594 228.294386 133.72271 228.294386 132.396694 
C 228.294386 131.070679 227.767554 129.798795 226.82992 128.86116 
C 225.892285 127.923526 224.620401 127.396694 223.294386 127.396694 
C 221.96837 127.396694 220.696487 127.923526 219.758852 128.86116 
C 218.821217 129.798795 218.294386 131.070679 218.294386 132.396694 
C 218.294386 133.72271 218.821217 134.994594 219.758852 135.932228 
C 220.696487 136.869863 221.96837 137.396694 223.294386 137.396694 
z
" clip-path="url(#p53aa3762eb)" style="stroke: #000000; stroke-width: 0.4"/>
    <path d="M 208.213166 162.510741 
C 209.150801 162.510741 210.050158 162.138214 210.713166 161.475207 
C 211.376174 160.812199 211.7487 159.912841 211.7487 158.975207 
C 211.7487 158.037572 211.376174 157.138214 210.713166 156.475207 
C 210.050158 155.812199 209.150801 155.439673 208.213166 155.439673 
C 207.275532 155.439673 206.376174 155.812199 205.713166 156.475207 
C 205.050158 157.138214 204.677632 158.037572 204.677632 158.975207 
C 204.677632 159.912841 205.050158 160.812199 205.713166 161.475207 
C 206.376174 162.138214 207.275532 162.510741 208.213166 162.510741 
z
" clip-path="url(#p53aa3762eb)" style="fill: #808080; stroke: #000000; stroke-width: 0.4"/>
    <path d="M 193.131946 110.818182 
C 194.457962 110.818182 195.729846 110.29135 196.66748 109.353716 
C 197.605115 108.416081 198.131946 107.144197 198.131946 105.818182 
C 198.131946 104.492166 197.605115 103.220282 196.66748 102.282648 
C 195.729846 101.345013 194.457962 100.818182 193.131946 100.818182 
C 191.805931 100.818182 190.534047 101.345013 189.596413 102.282648 
C 188.658778 103.220282 188.131946 104.492166 188.131946 105.818182 
C 188.131946 107.144197 188.658778 108.416081 189.596413 109.353716 
C 190.534047 110.29135 191.805931 110.818182 193.131946 110.818182 
z
" clip-path="url(#p53aa3762eb)" style="stroke: #000000; stroke-width: 0.4"/>
    <path d="M 962.274152 84.239669 
C 963.600168 84.239669 964.872052 83.712838 965.809686 82.775203 
C 966.747321 81.837569 967.274152 80.565685 967.274152 79.239669 
C 967.274152 77.913654 966.747321 76.64177 965.809686 75.704136 
C 964.872052 74.766501 963.600168 74.239669 962.274152 74.239669 
C 960.948137 74.239669 959.676253 74.766501 958.738618 75.704136 
C 957.800984 76.64177 957.274152 77.913654 957.274152 79.239669 
C 957.274152 80.565685 957.800984 81.837569 958.738618 82.775203 
C 959.676253 83.712838 960.948137 84.239669 962.274152 84.239669 
z
" clip-path="url(#p53aa3762eb)" style="stroke: #000000; stroke-width: 0.4"/>
    <path d="M 977.355372 109.353716 
C 978.293006 109.353716 979.192364 108.98119 979.855372 108.318182 
C 980.51838 107.655174 980.890906 106.755816 980.890906 105.818182 
C 980.890906 104.880547 980.51838 103.98119 979.855372 103.318182 
C 979.192364 102.655174 978.293006 102.282648 977.355372 102.282648 
C 976.417737 102.282648 975.51838 102.655174 974.855372 103.318182 
C 974.192364 103.98119 973.819838 104.880547 973.819838 105.818182 
C 973.819838 106.755816 974.192364 107.655174 974.855372 108.318182 
C 975.51838 108.98119 976.417737 109.353716 977.355372 109.353716 
z
" clip-path="url(#p53aa3762eb)" style="fill: #808080; stroke: #000000; stroke-width: 0.4"/>
    <path d="M 147.888287 84.239669 
C 149.214303 84.239669 150.486187 83.712838 151.423821 82.775203 
C 152.361456 81.837569 152.888287 80.565685 152.888287 79.239669 
C 152.888287 77.913654 152.361456 76.64177 151.423821 75.704136 
C 150.486187 74.766501 149.214303 74.239669 147.888287 74.239669 
C 146.562272 74.239669 145.290388 74.766501 144.352753 75.704136 
C 143.415119 76.64177 142.888287 77.913654 142.888287 79.239669 
C 142.888287 80.565685 143.415119 81.837569 144.352753 82.775203 
C 145.290388 83.712838 146.562272 84.239669 147.888287 84.239669 
z
" clip-path="url(#p53aa3762eb)" style="stroke: #000000; stroke-width: 0.4"/>
    <path d="M 132.807068 109.353716 
C 133.744702 109.353716 134.64406 108.98119 135.307068 108.318182 
C 135.970075 107.655174 136.342601 106.755816 136.342601 105.818182 
C 136.342601 104.880547 135.970075 103.98119 135.307068 103.318182 
C 134.64406 102.655174 133.744702 102.282648 132.807068 102.282648 
C 131.869433 102.282648 130.970075 102.655174 130.307068 103.318182 
C 129.64406 103.98119 129.271534 104.880547 129.271534 105.818182 
C 129.271534 106.755816 129.64406 107.655174 130.307068 108.318182 
C 130.970075 108.98119 131.869433 109.353716 132.807068 109.353716 
z
" clip-path="url(#p53aa3762eb)" style="fill: #808080; stroke: #000000; stroke-width: 0.4"/>
    <path d="M 117.725848 57.661157 
C 119.051863 57.661157 120.323747 57.134325 121.261382 56.196691 
C 122.199016 55.259056 122.725848 53.987173 122.725848 52.661157 
C 122.725848 51.335142 122.199016 50.063258 121.261382 49.125623 
C 120.323747 48.187989 119.051863 47.661157 117.725848 47.661157 
C 116.399832 47.661157 115.127948 48.187989 114.190314 49.125623 
C 113.252679 50.063258 112.725848 51.335142 112.725848 52.661157 
C 112.725848 53.987173 113.252679 55.259056 114.190314 56.196691 
C 115.127948 57.134325 116.399832 57.661157 117.725848 57.661157 
z
" clip-path="url(#p53aa3762eb)" style="stroke: #000000; stroke-width: 0.4"/>
    <path d="M 102.644628 82.775203 
C 103.582263 82.775203 104.48162 82.402677 105.144628 81.739669 
C 105.807636 81.076662 106.180162 80.177304 106.180162 79.239669 
C 106.180162 78.302035 105.807636 77.402677 105.144628 76.739669 
C 104.48162 76.076662 103.582263 75.704136 102.644628 75.704136 
C 101.706994 75.704136 100.807636 76.076662 100.144628 76.739669 
C 99.48162 77.402677 99.109094 78.302035 99.109094 79.239669 
C 99.109094 80.177304 99.48162 81.076662 100.144628 81.739669 
C 100.807636 82.402677 101.706994 82.775203 102.644628 82.775203 
z
" clip-path="url(#p53aa3762eb)" style="fill: #808080; stroke: #000000; stroke-width: 0.4"/>
   </g>
   <g id="line2d_1">
    <path d="M 766.218296 493.2 
L 766.218296 10.8 
" clip-path="url(#p53aa3762eb)" style="fill: none; stroke: #ff0000; stroke-width: 1.5; stroke-linecap: square"/>
   </g>
   <g id="patch_3">
    <path d="M 10.8 493.2 
L 10.8 10.8 
" style="fill: none; stroke: #000000; stroke-width: 0.8; stroke-linejoin: miter; stroke-linecap: square"/>
   </g>
   <g id="patch_4">
    <path d="M 1069.2 493.2 
L 1069.2 10.8 
" style="fill: none; stroke: #000000; stroke-width: 0.8; stroke-linejoin: miter; stroke-linecap: square"/>
   </g>
   <g id="patch_5">
    <path d="M 10.8 493.2 
L 1069.2 493.2 
" style="fill: none; stroke: #000000; stroke-width: 0.8; stroke-linejoin: miter; stroke-linecap: square"/>
   </g>
   <g id="patch_6">
    <path d="M 10.8 10.8 
L 1069.2 10.8 
" style="fill: none; stroke: #000000; stroke-width: 0.8; stroke-linejoin: miter; stroke-linecap: square"/>
   </g>
  </g>
 </g>
 <defs>
  <clipPath id="p53aa3762eb">
   <rect x="10.8" y="10.8" width="1058.4" height="482.4"/>
  </clipPath>
 </defs>
</svg>
