<?xml version="1.0" encoding="utf-8" standalone="no"?>
<!DOCTYPE svg PUBLIC "-//W3C//DTD SVG 1.1//EN"
  "http://www.w3.org/Graphics/SVG/1.1/DTD/svg11.dtd">
<svg xmlns:xlink="http://www.w3.org/1999/xlink" width="1080pt" height="504pt" viewBox="0 0 1080 504" xmlns="http://www.w3.org/2000/svg" version="1.1">
 <metadata>
  <rdf:RDF xmlns:dc="http://purl.org/dc/elements/1.1/" xmlns:cc="http://creativecommons.org/ns#" xmlns:rdf="http://www.w3.org/1999/02/22-rdf-syntax-ns#">
   <cc:Work>
    <dc:type rdf:resource="http://purl.org/dc/dcmitype/StillImage"/>
    <dc:date>2022-04-22T08:08:21.857637</dc:date>
    <dc:format>image/svg+xml</dc:format>
    <dc:creator>
     <cc:Agent>
      <dc:title>Matplotlib v3.5.1, https://matplotlib.org/</dc:title>
     </cc:Agent>
    </dc:creator>
   </cc:Work>
  </rdf:RDF>
 </metadata>
 <defs>
  <style type="text/css">*{stroke-linejoin: round; stroke-linecap: butt}</style>
 </defs>
 <g id="figure_1">
  <g id="patch_1">
   <path d="M 0 504 
L 1080 504 
L 1080 0 
L 0 0 
z
" style="fill: #ffffff"/>
  </g>
  <g id="axes_1">
   <g id="patch_2">
    <path d="M 10.8 493.2 
L 1069.2 493.2 
L 1069.2 10.8 
L 10.8 10.8 
z
" style="fill: #ffffff"/>
   </g>
   <g id="LineCollection_1">
    <path d="M 102.644628 52.661157 
L 116.311983 52.661157 
" clip-path="url(#pa6381849ea)" style="fill: none; stroke: #000000; stroke-width: 0.4"/>
    <path d="M 129.979339 52.661157 
L 143.646694 52.661157 
" clip-path="url(#pa6381849ea)" style="fill: none; stroke: #000000; stroke-width: 0.4"/>
    <path d="M 170.981405 52.661157 
L 157.31405 96.958678 
" clip-path="url(#pa6381849ea)" style="fill: none; stroke: #000000; stroke-width: 0.4"/>
    <path d="M 170.981405 52.661157 
L 184.64876 96.958678 
" clip-path="url(#pa6381849ea)" style="fill: none; stroke: #000000; stroke-width: 0.4"/>
    <path d="M 252.985537 141.256198 
L 266.652893 141.256198 
" clip-path="url(#pa6381849ea)" style="fill: none; stroke: #000000; stroke-width: 0.4"/>
    <path d="M 252.985537 141.256198 
L 239.318182 96.958678 
" clip-path="url(#pa6381849ea)" style="fill: none; stroke: #000000; stroke-width: 0.4"/>
    <path d="M 239.318182 96.958678 
L 225.650826 141.256198 
" clip-path="url(#pa6381849ea)" style="fill: none; stroke: #000000; stroke-width: 0.4"/>
    <path d="M 239.318182 96.958678 
L 211.983471 96.958678 
" clip-path="url(#pa6381849ea)" style="fill: none; stroke: #000000; stroke-width: 0.4"/>
    <path d="M 211.983471 96.958678 
L 198.316116 141.256198 
" clip-path="url(#pa6381849ea)" style="fill: none; stroke: #000000; stroke-width: 0.4"/>
    <path d="M 211.983471 96.958678 
L 280.320248 52.661157 
" clip-path="url(#pa6381849ea)" style="fill: none; stroke: #000000; stroke-width: 0.4"/>
    <path d="M 293.987603 274.14876 
L 307.654959 274.14876 
" clip-path="url(#pa6381849ea)" style="fill: none; stroke: #000000; stroke-width: 0.4"/>
    <path d="M 293.987603 274.14876 
L 321.322314 229.85124 
" clip-path="url(#pa6381849ea)" style="fill: none; stroke: #000000; stroke-width: 0.4"/>
    <path d="M 348.657025 229.85124 
L 334.989669 274.14876 
" clip-path="url(#pa6381849ea)" style="fill: none; stroke: #000000; stroke-width: 0.4"/>
    <path d="M 348.657025 229.85124 
L 362.32438 274.14876 
" clip-path="url(#pa6381849ea)" style="fill: none; stroke: #000000; stroke-width: 0.4"/>
    <path d="M 348.657025 229.85124 
L 321.322314 229.85124 
" clip-path="url(#pa6381849ea)" style="fill: none; stroke: #000000; stroke-width: 0.4"/>
    <path d="M 321.322314 229.85124 
L 375.991736 185.553719 
" clip-path="url(#pa6381849ea)" style="fill: none; stroke: #000000; stroke-width: 0.4"/>
    <path d="M 389.659091 318.446281 
L 403.326446 318.446281 
" clip-path="url(#pa6381849ea)" style="fill: none; stroke: #000000; stroke-width: 0.4"/>
    <path d="M 389.659091 318.446281 
L 416.993802 274.14876 
" clip-path="url(#pa6381849ea)" style="fill: none; stroke: #000000; stroke-width: 0.4"/>
    <path d="M 444.328512 274.14876 
L 430.661157 318.446281 
" clip-path="url(#pa6381849ea)" style="fill: none; stroke: #000000; stroke-width: 0.4"/>
    <path d="M 444.328512 274.14876 
L 457.995868 318.446281 
" clip-path="url(#pa6381849ea)" style="fill: none; stroke: #000000; stroke-width: 0.4"/>
    <path d="M 444.328512 274.14876 
L 416.993802 274.14876 
" clip-path="url(#pa6381849ea)" style="fill: none; stroke: #000000; stroke-width: 0.4"/>
    <path d="M 416.993802 274.14876 
L 471.663223 229.85124 
" clip-path="url(#pa6381849ea)" style="fill: none; stroke: #000000; stroke-width: 0.4"/>
    <path d="M 485.330579 318.446281 
L 498.997934 318.446281 
" clip-path="url(#pa6381849ea)" style="fill: none; stroke: #000000; stroke-width: 0.4"/>
    <path d="M 485.330579 318.446281 
L 512.665289 274.14876 
" clip-path="url(#pa6381849ea)" style="fill: none; stroke: #000000; stroke-width: 0.4"/>
    <path d="M 512.665289 274.14876 
L 526.332645 318.446281 
" clip-path="url(#pa6381849ea)" style="fill: none; stroke: #000000; stroke-width: 0.4"/>
    <path d="M 512.665289 274.14876 
L 540 229.85124 
" clip-path="url(#pa6381849ea)" style="fill: none; stroke: #000000; stroke-width: 0.4"/>
    <path d="M 567.334711 318.446281 
L 553.667355 362.743802 
" clip-path="url(#pa6381849ea)" style="fill: none; stroke: #000000; stroke-width: 0.4"/>
    <path d="M 567.334711 318.446281 
L 581.002066 362.743802 
" clip-path="url(#pa6381849ea)" style="fill: none; stroke: #000000; stroke-width: 0.4"/>
    <path d="M 567.334711 318.446281 
L 594.669421 274.14876 
" clip-path="url(#pa6381849ea)" style="fill: none; stroke: #000000; stroke-width: 0.4"/>
    <path d="M 622.004132 407.041322 
L 635.671488 407.041322 
" clip-path="url(#pa6381849ea)" style="fill: none; stroke: #000000; stroke-width: 0.4"/>
    <path d="M 622.004132 407.041322 
L 608.336777 407.041322 
" clip-path="url(#pa6381849ea)" style="fill: none; stroke: #000000; stroke-width: 0.4"/>
    <path d="M 608.336777 407.041322 
L 649.338843 362.743802 
" clip-path="url(#pa6381849ea)" style="fill: none; stroke: #000000; stroke-width: 0.4"/>
    <path d="M 676.673554 407.041322 
L 690.340909 407.041322 
" clip-path="url(#pa6381849ea)" style="fill: none; stroke: #000000; stroke-width: 0.4"/>
    <path d="M 676.673554 407.041322 
L 663.006198 407.041322 
" clip-path="url(#pa6381849ea)" style="fill: none; stroke: #000000; stroke-width: 0.4"/>
    <path d="M 663.006198 407.041322 
L 649.338843 362.743802 
" clip-path="url(#pa6381849ea)" style="fill: none; stroke: #000000; stroke-width: 0.4"/>
    <path d="M 649.338843 362.743802 
L 704.008264 318.446281 
" clip-path="url(#pa6381849ea)" style="fill: none; stroke: #000000; stroke-width: 0.4"/>
    <path d="M 731.342975 451.338843 
L 745.010331 451.338843 
" clip-path="url(#pa6381849ea)" style="fill: none; stroke: #000000; stroke-width: 0.4"/>
    <path d="M 731.342975 451.338843 
L 717.67562 451.338843 
" clip-path="url(#pa6381849ea)" style="fill: none; stroke: #000000; stroke-width: 0.4"/>
    <path d="M 717.67562 451.338843 
L 758.677686 407.041322 
" clip-path="url(#pa6381849ea)" style="fill: none; stroke: #000000; stroke-width: 0.4"/>
    <path d="M 786.012397 451.338843 
L 799.679752 451.338843 
" clip-path="url(#pa6381849ea)" style="fill: none; stroke: #000000; stroke-width: 0.4"/>
    <path d="M 786.012397 451.338843 
L 772.345041 451.338843 
" clip-path="url(#pa6381849ea)" style="fill: none; stroke: #000000; stroke-width: 0.4"/>
    <path d="M 772.345041 451.338843 
L 758.677686 407.041322 
" clip-path="url(#pa6381849ea)" style="fill: none; stroke: #000000; stroke-width: 0.4"/>
    <path d="M 758.677686 407.041322 
L 813.347107 362.743802 
" clip-path="url(#pa6381849ea)" style="fill: none; stroke: #000000; stroke-width: 0.4"/>
    <path d="M 840.681818 407.041322 
L 827.014463 451.338843 
" clip-path="url(#pa6381849ea)" style="fill: none; stroke: #000000; stroke-width: 0.4"/>
    <path d="M 840.681818 407.041322 
L 854.349174 451.338843 
" clip-path="url(#pa6381849ea)" style="fill: none; stroke: #000000; stroke-width: 0.4"/>
    <path d="M 840.681818 407.041322 
L 813.347107 362.743802 
" clip-path="url(#pa6381849ea)" style="fill: none; stroke: #000000; stroke-width: 0.4"/>
    <path d="M 813.347107 362.743802 
L 704.008264 318.446281 
" clip-path="url(#pa6381849ea)" style="fill: none; stroke: #000000; stroke-width: 0.4"/>
    <path d="M 704.008264 318.446281 
L 594.669421 274.14876 
" clip-path="url(#pa6381849ea)" style="fill: none; stroke: #000000; stroke-width: 0.4"/>
    <path d="M 594.669421 274.14876 
L 540 229.85124 
" clip-path="url(#pa6381849ea)" style="fill: none; stroke: #000000; stroke-width: 0.4"/>
    <path d="M 540 229.85124 
L 471.663223 229.85124 
" clip-path="url(#pa6381849ea)" style="fill: none; stroke: #000000; stroke-width: 0.4"/>
    <path d="M 471.663223 229.85124 
L 375.991736 185.553719 
" clip-path="url(#pa6381849ea)" style="fill: none; stroke: #000000; stroke-width: 0.4"/>
    <path d="M 375.991736 185.553719 
L 868.016529 141.256198 
" clip-path="url(#pa6381849ea)" style="fill: none; stroke: #000000; stroke-width: 0.4"/>
    <path d="M 895.35124 185.553719 
L 881.683884 229.85124 
" clip-path="url(#pa6381849ea)" style="fill: none; stroke: #000000; stroke-width: 0.4"/>
    <path d="M 895.35124 185.553719 
L 909.018595 229.85124 
" clip-path="url(#pa6381849ea)" style="fill: none; stroke: #000000; stroke-width: 0.4"/>
    <path d="M 895.35124 185.553719 
L 868.016529 141.256198 
" clip-path="url(#pa6381849ea)" style="fill: none; stroke: #000000; stroke-width: 0.4"/>
    <path d="M 868.016529 141.256198 
L 922.68595 96.958678 
" clip-path="url(#pa6381849ea)" style="fill: none; stroke: #000000; stroke-width: 0.4"/>
    <path d="M 936.353306 141.256198 
L 950.020661 141.256198 
" clip-path="url(#pa6381849ea)" style="fill: none; stroke: #000000; stroke-width: 0.4"/>
    <path d="M 936.353306 141.256198 
L 963.688017 96.958678 
" clip-path="url(#pa6381849ea)" style="fill: none; stroke: #000000; stroke-width: 0.4"/>
    <path d="M 963.688017 96.958678 
L 977.355372 141.256198 
" clip-path="url(#pa6381849ea)" style="fill: none; stroke: #000000; stroke-width: 0.4"/>
    <path d="M 963.688017 96.958678 
L 922.68595 96.958678 
" clip-path="url(#pa6381849ea)" style="fill: none; stroke: #000000; stroke-width: 0.4"/>
    <path d="M 922.68595 96.958678 
L 280.320248 52.661157 
" clip-path="url(#pa6381849ea)" style="fill: none; stroke: #000000; stroke-width: 0.4"/>
   </g>
   <g id="matplotlib.axis_1">
    <g id="xtick_1"/>
    <g id="xtick_2"/>
    <g id="xtick_3"/>
    <g id="xtick_4"/>
    <g id="xtick_5"/>
    <g id="xtick_6"/>
    <g id="xtick_7"/>
    <g id="xtick_8"/>
   </g>
   <g id="matplotlib.axis_2">
    <g id="ytick_1"/>
    <g id="ytick_2"/>
    <g id="ytick_3"/>
    <g id="ytick_4"/>
    <g id="ytick_5"/>
   </g>
   <g id="PathCollection_1">
    <path d="M 102.644628 56.196691 
C 103.582263 56.196691 104.48162 55.824165 105.144628 55.161157 
C 105.807636 54.498149 106.180162 53.598792 106.180162 52.661157 
C 106.180162 51.723522 105.807636 50.824165 105.144628 50.161157 
C 104.48162 49.498149 103.582263 49.125623 102.644628 49.125623 
C 101.706994 49.125623 100.807636 49.498149 100.144628 50.161157 
C 99.48162 50.824165 99.109094 51.723522 99.109094 52.661157 
C 99.109094 53.598792 99.48162 54.498149 100.144628 55.161157 
C 100.807636 55.824165 101.706994 56.196691 102.644628 56.196691 
z
" clip-path="url(#pa6381849ea)" style="fill: #808080; stroke: #000000; stroke-width: 0.4"/>
    <path d="M 116.311983 56.196691 
C 117.249618 56.196691 118.148976 55.824165 118.811983 55.161157 
C 119.474991 54.498149 119.847517 53.598792 119.847517 52.661157 
C 119.847517 51.723522 119.474991 50.824165 118.811983 50.161157 
C 118.148976 49.498149 117.249618 49.125623 116.311983 49.125623 
C 115.374349 49.125623 114.474991 49.498149 113.811983 50.161157 
C 113.148976 50.824165 112.77645 51.723522 112.77645 52.661157 
C 112.77645 53.598792 113.148976 54.498149 113.811983 55.161157 
C 114.474991 55.824165 115.374349 56.196691 116.311983 56.196691 
z
" clip-path="url(#pa6381849ea)" style="fill: #808080; stroke: #000000; stroke-width: 0.4"/>
    <path d="M 129.979339 56.196691 
C 130.916973 56.196691 131.816331 55.824165 132.479339 55.161157 
C 133.142347 54.498149 133.514873 53.598792 133.514873 52.661157 
C 133.514873 51.723522 133.142347 50.824165 132.479339 50.161157 
C 131.816331 49.498149 130.916973 49.125623 129.979339 49.125623 
C 129.041704 49.125623 128.142347 49.498149 127.479339 50.161157 
C 126.816331 50.824165 126.443805 51.723522 126.443805 52.661157 
C 126.443805 53.598792 126.816331 54.498149 127.479339 55.161157 
C 128.142347 55.824165 129.041704 56.196691 129.979339 56.196691 
z
" clip-path="url(#pa6381849ea)" style="fill: #808080; stroke: #000000; stroke-width: 0.4"/>
    <path d="M 143.646694 56.196691 
C 144.584329 56.196691 145.483686 55.824165 146.146694 55.161157 
C 146.809702 54.498149 147.182228 53.598792 147.182228 52.661157 
C 147.182228 51.723522 146.809702 50.824165 146.146694 50.161157 
C 145.483686 49.498149 144.584329 49.125623 143.646694 49.125623 
C 142.70906 49.125623 141.809702 49.498149 141.146694 50.161157 
C 140.483686 50.824165 140.11116 51.723522 140.11116 52.661157 
C 140.11116 53.598792 140.483686 54.498149 141.146694 55.161157 
C 141.809702 55.824165 142.70906 56.196691 143.646694 56.196691 
z
" clip-path="url(#pa6381849ea)" style="fill: #808080; stroke: #000000; stroke-width: 0.4"/>
    <path d="M 170.981405 56.196691 
C 171.91904 56.196691 172.818397 55.824165 173.481405 55.161157 
C 174.144413 54.498149 174.516939 53.598792 174.516939 52.661157 
C 174.516939 51.723522 174.144413 50.824165 173.481405 50.161157 
C 172.818397 49.498149 171.91904 49.125623 170.981405 49.125623 
C 170.04377 49.125623 169.144413 49.498149 168.481405 50.161157 
C 167.818397 50.824165 167.445871 51.723522 167.445871 52.661157 
C 167.445871 53.598792 167.818397 54.498149 168.481405 55.161157 
C 169.144413 55.824165 170.04377 56.196691 170.981405 56.196691 
z
" clip-path="url(#pa6381849ea)" style="fill: #808080; stroke: #000000; stroke-width: 0.4"/>
    <path d="M 157.31405 100.494212 
C 158.251684 100.494212 159.151042 100.121685 159.81405 99.458678 
C 160.477057 98.79567 160.849583 97.896312 160.849583 96.958678 
C 160.849583 96.021043 160.477057 95.121685 159.81405 94.458678 
C 159.151042 93.79567 158.251684 93.423144 157.31405 93.423144 
C 156.376415 93.423144 155.477057 93.79567 154.81405 94.458678 
C 154.151042 95.121685 153.778516 96.021043 153.778516 96.958678 
C 153.778516 97.896312 154.151042 98.79567 154.81405 99.458678 
C 155.477057 100.121685 156.376415 100.494212 157.31405 100.494212 
z
" clip-path="url(#pa6381849ea)" style="fill: #808080; stroke: #000000; stroke-width: 0.4"/>
    <path d="M 184.64876 100.494212 
C 185.586395 100.494212 186.485753 100.121685 187.14876 99.458678 
C 187.811768 98.79567 188.184294 97.896312 188.184294 96.958678 
C 188.184294 96.021043 187.811768 95.121685 187.14876 94.458678 
C 186.485753 93.79567 185.586395 93.423144 184.64876 93.423144 
C 183.711126 93.423144 182.811768 93.79567 182.14876 94.458678 
C 181.485753 95.121685 181.113226 96.021043 181.113226 96.958678 
C 181.113226 97.896312 181.485753 98.79567 182.14876 99.458678 
C 182.811768 100.121685 183.711126 100.494212 184.64876 100.494212 
z
" clip-path="url(#pa6381849ea)" style="fill: #808080; stroke: #000000; stroke-width: 0.4"/>
    <path d="M 252.985537 144.791732 
C 253.923172 144.791732 254.822529 144.419206 255.485537 143.756198 
C 256.148545 143.093191 256.521071 142.193833 256.521071 141.256198 
C 256.521071 140.318564 256.148545 139.419206 255.485537 138.756198 
C 254.822529 138.093191 253.923172 137.720664 252.985537 137.720664 
C 252.047903 137.720664 251.148545 138.093191 250.485537 138.756198 
C 249.822529 139.419206 249.450003 140.318564 249.450003 141.256198 
C 249.450003 142.193833 249.822529 143.093191 250.485537 143.756198 
C 251.148545 144.419206 252.047903 144.791732 252.985537 144.791732 
z
" clip-path="url(#pa6381849ea)" style="fill: #808080; stroke: #000000; stroke-width: 0.4"/>
    <path d="M 266.652893 144.791732 
C 267.590527 144.791732 268.489885 144.419206 269.152893 143.756198 
C 269.8159 143.093191 270.188426 142.193833 270.188426 141.256198 
C 270.188426 140.318564 269.8159 139.419206 269.152893 138.756198 
C 268.489885 138.093191 267.590527 137.720664 266.652893 137.720664 
C 265.715258 137.720664 264.8159 138.093191 264.152893 138.756198 
C 263.489885 139.419206 263.117359 140.318564 263.117359 141.256198 
C 263.117359 142.193833 263.489885 143.093191 264.152893 143.756198 
C 264.8159 144.419206 265.715258 144.791732 266.652893 144.791732 
z
" clip-path="url(#pa6381849ea)" style="fill: #808080; stroke: #000000; stroke-width: 0.4"/>
    <path d="M 239.318182 100.494212 
C 240.255816 100.494212 241.155174 100.121685 241.818182 99.458678 
C 242.48119 98.79567 242.853716 97.896312 242.853716 96.958678 
C 242.853716 96.021043 242.48119 95.121685 241.818182 94.458678 
C 241.155174 93.79567 240.255816 93.423144 239.318182 93.423144 
C 238.380547 93.423144 237.48119 93.79567 236.818182 94.458678 
C 236.155174 95.121685 235.782648 96.021043 235.782648 96.958678 
C 235.782648 97.896312 236.155174 98.79567 236.818182 99.458678 
C 237.48119 100.121685 238.380547 100.494212 239.318182 100.494212 
z
" clip-path="url(#pa6381849ea)" style="fill: #808080; stroke: #000000; stroke-width: 0.4"/>
    <path d="M 225.650826 144.791732 
C 226.588461 144.791732 227.487819 144.419206 228.150826 143.756198 
C 228.813834 143.093191 229.18636 142.193833 229.18636 141.256198 
C 229.18636 140.318564 228.813834 139.419206 228.150826 138.756198 
C 227.487819 138.093191 226.588461 137.720664 225.650826 137.720664 
C 224.713192 137.720664 223.813834 138.093191 223.150826 138.756198 
C 222.487819 139.419206 222.115293 140.318564 222.115293 141.256198 
C 222.115293 142.193833 222.487819 143.093191 223.150826 143.756198 
C 223.813834 144.419206 224.713192 144.791732 225.650826 144.791732 
z
" clip-path="url(#pa6381849ea)" style="fill: #808080; stroke: #000000; stroke-width: 0.4"/>
    <path d="M 211.983471 100.494212 
C 212.921106 100.494212 213.820463 100.121685 214.483471 99.458678 
C 215.146479 98.79567 215.519005 97.896312 215.519005 96.958678 
C 215.519005 96.021043 215.146479 95.121685 214.483471 94.458678 
C 213.820463 93.79567 212.921106 93.423144 211.983471 93.423144 
C 211.045837 93.423144 210.146479 93.79567 209.483471 94.458678 
C 208.820463 95.121685 208.447937 96.021043 208.447937 96.958678 
C 208.447937 97.896312 208.820463 98.79567 209.483471 99.458678 
C 210.146479 100.121685 211.045837 100.494212 211.983471 100.494212 
z
" clip-path="url(#pa6381849ea)" style="fill: #808080; stroke: #000000; stroke-width: 0.4"/>
    <path d="M 198.316116 144.791732 
C 199.25375 144.791732 200.153108 144.419206 200.816116 143.756198 
C 201.479123 143.093191 201.85165 142.193833 201.85165 141.256198 
C 201.85165 140.318564 201.479123 139.419206 200.816116 138.756198 
C 200.153108 138.093191 199.25375 137.720664 198.316116 137.720664 
C 197.378481 137.720664 196.479123 138.093191 195.816116 138.756198 
C 195.153108 139.419206 194.780582 140.318564 194.780582 141.256198 
C 194.780582 142.193833 195.153108 143.093191 195.816116 143.756198 
C 196.479123 144.419206 197.378481 144.791732 198.316116 144.791732 
z
" clip-path="url(#pa6381849ea)" style="fill: #808080; stroke: #000000; stroke-width: 0.4"/>
    <path d="M 293.987603 277.684294 
C 294.925238 277.684294 295.824596 277.311768 296.487603 276.64876 
C 297.150611 275.985753 297.523137 275.086395 297.523137 274.14876 
C 297.523137 273.211126 297.150611 272.311768 296.487603 271.64876 
C 295.824596 270.985753 294.925238 270.613226 293.987603 270.613226 
C 293.049969 270.613226 292.150611 270.985753 291.487603 271.64876 
C 290.824596 272.311768 290.452069 273.211126 290.452069 274.14876 
C 290.452069 275.086395 290.824596 275.985753 291.487603 276.64876 
C 292.150611 277.311768 293.049969 277.684294 293.987603 277.684294 
z
" clip-path="url(#pa6381849ea)" style="fill: #808080; stroke: #000000; stroke-width: 0.4"/>
    <path d="M 307.654959 277.684294 
C 308.592593 277.684294 309.491951 277.311768 310.154959 276.64876 
C 310.817966 275.985753 311.190493 275.086395 311.190493 274.14876 
C 311.190493 273.211126 310.817966 272.311768 310.154959 271.64876 
C 309.491951 270.985753 308.592593 270.613226 307.654959 270.613226 
C 306.717324 270.613226 305.817966 270.985753 305.154959 271.64876 
C 304.491951 272.311768 304.119425 273.211126 304.119425 274.14876 
C 304.119425 275.086395 304.491951 275.985753 305.154959 276.64876 
C 305.817966 277.311768 306.717324 277.684294 307.654959 277.684294 
z
" clip-path="url(#pa6381849ea)" style="fill: #808080; stroke: #000000; stroke-width: 0.4"/>
    <path d="M 348.657025 233.386774 
C 349.594659 233.386774 350.494017 233.014247 351.157025 232.35124 
C 351.820033 231.688232 352.192559 230.788874 352.192559 229.85124 
C 352.192559 228.913605 351.820033 228.014247 351.157025 227.35124 
C 350.494017 226.688232 349.594659 226.315706 348.657025 226.315706 
C 347.71939 226.315706 346.820033 226.688232 346.157025 227.35124 
C 345.494017 228.014247 345.121491 228.913605 345.121491 229.85124 
C 345.121491 230.788874 345.494017 231.688232 346.157025 232.35124 
C 346.820033 233.014247 347.71939 233.386774 348.657025 233.386774 
z
" clip-path="url(#pa6381849ea)" style="fill: #808080; stroke: #000000; stroke-width: 0.4"/>
    <path d="M 334.989669 277.684294 
C 335.927304 277.684294 336.826662 277.311768 337.489669 276.64876 
C 338.152677 275.985753 338.525203 275.086395 338.525203 274.14876 
C 338.525203 273.211126 338.152677 272.311768 337.489669 271.64876 
C 336.826662 270.985753 335.927304 270.613226 334.989669 270.613226 
C 334.052035 270.613226 333.152677 270.985753 332.489669 271.64876 
C 331.826662 272.311768 331.454136 273.211126 331.454136 274.14876 
C 331.454136 275.086395 331.826662 275.985753 332.489669 276.64876 
C 333.152677 277.311768 334.052035 277.684294 334.989669 277.684294 
z
" clip-path="url(#pa6381849ea)" style="fill: #808080; stroke: #000000; stroke-width: 0.4"/>
    <path d="M 362.32438 277.684294 
C 363.262015 277.684294 364.161372 277.311768 364.82438 276.64876 
C 365.487388 275.985753 365.859914 275.086395 365.859914 274.14876 
C 365.859914 273.211126 365.487388 272.311768 364.82438 271.64876 
C 364.161372 270.985753 363.262015 270.613226 362.32438 270.613226 
C 361.386746 270.613226 360.487388 270.985753 359.82438 271.64876 
C 359.161372 272.311768 358.788846 273.211126 358.788846 274.14876 
C 358.788846 275.086395 359.161372 275.985753 359.82438 276.64876 
C 360.487388 277.311768 361.386746 277.684294 362.32438 277.684294 
z
" clip-path="url(#pa6381849ea)" style="fill: #808080; stroke: #000000; stroke-width: 0.4"/>
    <path d="M 321.322314 233.386774 
C 322.259949 233.386774 323.159306 233.014247 323.822314 232.35124 
C 324.485322 231.688232 324.857848 230.788874 324.857848 229.85124 
C 324.857848 228.913605 324.485322 228.014247 323.822314 227.35124 
C 323.159306 226.688232 322.259949 226.315706 321.322314 226.315706 
C 320.384679 226.315706 319.485322 226.688232 318.822314 227.35124 
C 318.159306 228.014247 317.78678 228.913605 317.78678 229.85124 
C 317.78678 230.788874 318.159306 231.688232 318.822314 232.35124 
C 319.485322 233.014247 320.384679 233.386774 321.322314 233.386774 
z
" clip-path="url(#pa6381849ea)" style="fill: #808080; stroke: #000000; stroke-width: 0.4"/>
    <path d="M 389.659091 321.981815 
C 390.596725 321.981815 391.496083 321.609289 392.159091 320.946281 
C 392.822099 320.283273 393.194625 319.383916 393.194625 318.446281 
C 393.194625 317.508646 392.822099 316.609289 392.159091 315.946281 
C 391.496083 315.283273 390.596725 314.910747 389.659091 314.910747 
C 388.721456 314.910747 387.822099 315.283273 387.159091 315.946281 
C 386.496083 316.609289 386.123557 317.508646 386.123557 318.446281 
C 386.123557 319.383916 386.496083 320.283273 387.159091 320.946281 
C 387.822099 321.609289 388.721456 321.981815 389.659091 321.981815 
z
" clip-path="url(#pa6381849ea)" style="fill: #808080; stroke: #000000; stroke-width: 0.4"/>
    <path d="M 403.326446 321.981815 
C 404.264081 321.981815 405.163439 321.609289 405.826446 320.946281 
C 406.489454 320.283273 406.86198 319.383916 406.86198 318.446281 
C 406.86198 317.508646 406.489454 316.609289 405.826446 315.946281 
C 405.163439 315.283273 404.264081 314.910747 403.326446 314.910747 
C 402.388812 314.910747 401.489454 315.283273 400.826446 315.946281 
C 400.163439 316.609289 399.790912 317.508646 399.790912 318.446281 
C 399.790912 319.383916 400.163439 320.283273 400.826446 320.946281 
C 401.489454 321.609289 402.388812 321.981815 403.326446 321.981815 
z
" clip-path="url(#pa6381849ea)" style="fill: #808080; stroke: #000000; stroke-width: 0.4"/>
    <path d="M 444.328512 277.684294 
C 445.266147 277.684294 446.165505 277.311768 446.828512 276.64876 
C 447.49152 275.985753 447.864046 275.086395 447.864046 274.14876 
C 447.864046 273.211126 447.49152 272.311768 446.828512 271.64876 
C 446.165505 270.985753 445.266147 270.613226 444.328512 270.613226 
C 443.390878 270.613226 442.49152 270.985753 441.828512 271.64876 
C 441.165505 272.311768 440.792978 273.211126 440.792978 274.14876 
C 440.792978 275.086395 441.165505 275.985753 441.828512 276.64876 
C 442.49152 277.311768 443.390878 277.684294 444.328512 277.684294 
z
" clip-path="url(#pa6381849ea)" style="fill: #808080; stroke: #000000; stroke-width: 0.4"/>
    <path d="M 430.661157 321.981815 
C 431.598792 321.981815 432.498149 321.609289 433.161157 320.946281 
C 433.824165 320.283273 434.196691 319.383916 434.196691 318.446281 
C 434.196691 317.508646 433.824165 316.609289 433.161157 315.946281 
C 432.498149 315.283273 431.598792 314.910747 430.661157 314.910747 
C 429.723522 314.910747 428.824165 315.283273 428.161157 315.946281 
C 427.498149 316.609289 427.125623 317.508646 427.125623 318.446281 
C 427.125623 319.383916 427.498149 320.283273 428.161157 320.946281 
C 428.824165 321.609289 429.723522 321.981815 430.661157 321.981815 
z
" clip-path="url(#pa6381849ea)" style="fill: #808080; stroke: #000000; stroke-width: 0.4"/>
    <path d="M 457.995868 321.981815 
C 458.933502 321.981815 459.83286 321.609289 460.495868 320.946281 
C 461.158876 320.283273 461.531402 319.383916 461.531402 318.446281 
C 461.531402 317.508646 461.158876 316.609289 460.495868 315.946281 
C 459.83286 315.283273 458.933502 314.910747 457.995868 314.910747 
C 457.058233 314.910747 456.158876 315.283273 455.495868 315.946281 
C 454.83286 316.609289 454.460334 317.508646 454.460334 318.446281 
C 454.460334 319.383916 454.83286 320.283273 455.495868 320.946281 
C 456.158876 321.609289 457.058233 321.981815 457.995868 321.981815 
z
" clip-path="url(#pa6381849ea)" style="fill: #808080; stroke: #000000; stroke-width: 0.4"/>
    <path d="M 416.993802 277.684294 
C 417.931436 277.684294 418.830794 277.311768 419.493802 276.64876 
C 420.156809 275.985753 420.529336 275.086395 420.529336 274.14876 
C 420.529336 273.211126 420.156809 272.311768 419.493802 271.64876 
C 418.830794 270.985753 417.931436 270.613226 416.993802 270.613226 
C 416.056167 270.613226 415.156809 270.985753 414.493802 271.64876 
C 413.830794 272.311768 413.458268 273.211126 413.458268 274.14876 
C 413.458268 275.086395 413.830794 275.985753 414.493802 276.64876 
C 415.156809 277.311768 416.056167 277.684294 416.993802 277.684294 
z
" clip-path="url(#pa6381849ea)" style="fill: #808080; stroke: #000000; stroke-width: 0.4"/>
    <path d="M 485.330579 321.981815 
C 486.268213 321.981815 487.167571 321.609289 487.830579 320.946281 
C 488.493586 320.283273 488.866112 319.383916 488.866112 318.446281 
C 488.866112 317.508646 488.493586 316.609289 487.830579 315.946281 
C 487.167571 315.283273 486.268213 314.910747 485.330579 314.910747 
C 484.392944 314.910747 483.493586 315.283273 482.830579 315.946281 
C 482.167571 316.609289 481.795045 317.508646 481.795045 318.446281 
C 481.795045 319.383916 482.167571 320.283273 482.830579 320.946281 
C 483.493586 321.609289 484.392944 321.981815 485.330579 321.981815 
z
" clip-path="url(#pa6381849ea)" style="fill: #808080; stroke: #000000; stroke-width: 0.4"/>
    <path d="M 498.997934 321.981815 
C 499.935568 321.981815 500.834926 321.609289 501.497934 320.946281 
C 502.160942 320.283273 502.533468 319.383916 502.533468 318.446281 
C 502.533468 317.508646 502.160942 316.609289 501.497934 315.946281 
C 500.834926 315.283273 499.935568 314.910747 498.997934 314.910747 
C 498.060299 314.910747 497.160942 315.283273 496.497934 315.946281 
C 495.834926 316.609289 495.4624 317.508646 495.4624 318.446281 
C 495.4624 319.383916 495.834926 320.283273 496.497934 320.946281 
C 497.160942 321.609289 498.060299 321.981815 498.997934 321.981815 
z
" clip-path="url(#pa6381849ea)" style="fill: #808080; stroke: #000000; stroke-width: 0.4"/>
    <path d="M 512.665289 277.684294 
C 513.602924 277.684294 514.502282 277.311768 515.165289 276.64876 
C 515.828297 275.985753 516.200823 275.086395 516.200823 274.14876 
C 516.200823 273.211126 515.828297 272.311768 515.165289 271.64876 
C 514.502282 270.985753 513.602924 270.613226 512.665289 270.613226 
C 511.727655 270.613226 510.828297 270.985753 510.165289 271.64876 
C 509.502282 272.311768 509.129755 273.211126 509.129755 274.14876 
C 509.129755 275.086395 509.502282 275.985753 510.165289 276.64876 
C 510.828297 277.311768 511.727655 277.684294 512.665289 277.684294 
z
" clip-path="url(#pa6381849ea)" style="fill: #808080; stroke: #000000; stroke-width: 0.4"/>
    <path d="M 526.332645 321.981815 
C 527.270279 321.981815 528.169637 321.609289 528.832645 320.946281 
C 529.495652 320.283273 529.868179 319.383916 529.868179 318.446281 
C 529.868179 317.508646 529.495652 316.609289 528.832645 315.946281 
C 528.169637 315.283273 527.270279 314.910747 526.332645 314.910747 
C 525.39501 314.910747 524.495652 315.283273 523.832645 315.946281 
C 523.169637 316.609289 522.797111 317.508646 522.797111 318.446281 
C 522.797111 319.383916 523.169637 320.283273 523.832645 320.946281 
C 524.495652 321.609289 525.39501 321.981815 526.332645 321.981815 
z
" clip-path="url(#pa6381849ea)" style="fill: #808080; stroke: #000000; stroke-width: 0.4"/>
    <path d="M 567.334711 321.981815 
C 568.272345 321.981815 569.171703 321.609289 569.834711 320.946281 
C 570.497718 320.283273 570.870245 319.383916 570.870245 318.446281 
C 570.870245 317.508646 570.497718 316.609289 569.834711 315.946281 
C 569.171703 315.283273 568.272345 314.910747 567.334711 314.910747 
C 566.397076 314.910747 565.497718 315.283273 564.834711 315.946281 
C 564.171703 316.609289 563.799177 317.508646 563.799177 318.446281 
C 563.799177 319.383916 564.171703 320.283273 564.834711 320.946281 
C 565.497718 321.609289 566.397076 321.981815 567.334711 321.981815 
z
" clip-path="url(#pa6381849ea)" style="fill: #808080; stroke: #000000; stroke-width: 0.4"/>
    <path d="M 553.667355 366.279336 
C 554.60499 366.279336 555.504348 365.906809 556.167355 365.243802 
C 556.830363 364.580794 557.202889 363.681436 557.202889 362.743802 
C 557.202889 361.806167 556.830363 360.906809 556.167355 360.243802 
C 555.504348 359.580794 554.60499 359.208268 553.667355 359.208268 
C 552.729721 359.208268 551.830363 359.580794 551.167355 360.243802 
C 550.504348 360.906809 550.131821 361.806167 550.131821 362.743802 
C 550.131821 363.681436 550.504348 364.580794 551.167355 365.243802 
C 551.830363 365.906809 552.729721 366.279336 553.667355 366.279336 
z
" clip-path="url(#pa6381849ea)" style="fill: #808080; stroke: #000000; stroke-width: 0.4"/>
    <path d="M 581.002066 366.279336 
C 581.939701 366.279336 582.839058 365.906809 583.502066 365.243802 
C 584.165074 364.580794 584.5376 363.681436 584.5376 362.743802 
C 584.5376 361.806167 584.165074 360.906809 583.502066 360.243802 
C 582.839058 359.580794 581.939701 359.208268 581.002066 359.208268 
C 580.064432 359.208268 579.165074 359.580794 578.502066 360.243802 
C 577.839058 360.906809 577.466532 361.806167 577.466532 362.743802 
C 577.466532 363.681436 577.839058 364.580794 578.502066 365.243802 
C 579.165074 365.906809 580.064432 366.279336 581.002066 366.279336 
z
" clip-path="url(#pa6381849ea)" style="fill: #808080; stroke: #000000; stroke-width: 0.4"/>
    <path d="M 622.004132 410.576856 
C 622.941767 410.576856 623.841124 410.20433 624.504132 409.541322 
C 625.16714 408.878315 625.539666 407.978957 625.539666 407.041322 
C 625.539666 406.103688 625.16714 405.20433 624.504132 404.541322 
C 623.841124 403.878315 622.941767 403.505788 622.004132 403.505788 
C 621.066498 403.505788 620.16714 403.878315 619.504132 404.541322 
C 618.841124 405.20433 618.468598 406.103688 618.468598 407.041322 
C 618.468598 407.978957 618.841124 408.878315 619.504132 409.541322 
C 620.16714 410.20433 621.066498 410.576856 622.004132 410.576856 
z
" clip-path="url(#pa6381849ea)" style="fill: #808080; stroke: #000000; stroke-width: 0.4"/>
    <path d="M 635.671488 410.576856 
C 636.609122 410.576856 637.50848 410.20433 638.171488 409.541322 
C 638.834495 408.878315 639.207022 407.978957 639.207022 407.041322 
C 639.207022 406.103688 638.834495 405.20433 638.171488 404.541322 
C 637.50848 403.878315 636.609122 403.505788 635.671488 403.505788 
C 634.733853 403.505788 633.834495 403.878315 633.171488 404.541322 
C 632.50848 405.20433 632.135954 406.103688 632.135954 407.041322 
C 632.135954 407.978957 632.50848 408.878315 633.171488 409.541322 
C 633.834495 410.20433 634.733853 410.576856 635.671488 410.576856 
z
" clip-path="url(#pa6381849ea)" style="fill: #808080; stroke: #000000; stroke-width: 0.4"/>
    <path d="M 608.336777 410.576856 
C 609.274411 410.576856 610.173769 410.20433 610.836777 409.541322 
C 611.499785 408.878315 611.872311 407.978957 611.872311 407.041322 
C 611.872311 406.103688 611.499785 405.20433 610.836777 404.541322 
C 610.173769 403.878315 609.274411 403.505788 608.336777 403.505788 
C 607.399142 403.505788 606.499785 403.878315 605.836777 404.541322 
C 605.173769 405.20433 604.801243 406.103688 604.801243 407.041322 
C 604.801243 407.978957 605.173769 408.878315 605.836777 409.541322 
C 606.499785 410.20433 607.399142 410.576856 608.336777 410.576856 
z
" clip-path="url(#pa6381849ea)" style="fill: #808080; stroke: #000000; stroke-width: 0.4"/>
    <path d="M 676.673554 410.576856 
C 677.611188 410.576856 678.510546 410.20433 679.173554 409.541322 
C 679.836561 408.878315 680.209088 407.978957 680.209088 407.041322 
C 680.209088 406.103688 679.836561 405.20433 679.173554 404.541322 
C 678.510546 403.878315 677.611188 403.505788 676.673554 403.505788 
C 675.735919 403.505788 674.836561 403.878315 674.173554 404.541322 
C 673.510546 405.20433 673.13802 406.103688 673.13802 407.041322 
C 673.13802 407.978957 673.510546 408.878315 674.173554 409.541322 
C 674.836561 410.20433 675.735919 410.576856 676.673554 410.576856 
z
" clip-path="url(#pa6381849ea)" style="fill: #808080; stroke: #000000; stroke-width: 0.4"/>
    <path d="M 690.340909 410.576856 
C 691.278544 410.576856 692.177901 410.20433 692.840909 409.541322 
C 693.503917 408.878315 693.876443 407.978957 693.876443 407.041322 
C 693.876443 406.103688 693.503917 405.20433 692.840909 404.541322 
C 692.177901 403.878315 691.278544 403.505788 690.340909 403.505788 
C 689.403275 403.505788 688.503917 403.878315 687.840909 404.541322 
C 687.177901 405.20433 686.805375 406.103688 686.805375 407.041322 
C 686.805375 407.978957 687.177901 408.878315 687.840909 409.541322 
C 688.503917 410.20433 689.403275 410.576856 690.340909 410.576856 
z
" clip-path="url(#pa6381849ea)" style="fill: #808080; stroke: #000000; stroke-width: 0.4"/>
    <path d="M 663.006198 410.576856 
C 663.943833 410.576856 664.843191 410.20433 665.506198 409.541322 
C 666.169206 408.878315 666.541732 407.978957 666.541732 407.041322 
C 666.541732 406.103688 666.169206 405.20433 665.506198 404.541322 
C 664.843191 403.878315 663.943833 403.505788 663.006198 403.505788 
C 662.068564 403.505788 661.169206 403.878315 660.506198 404.541322 
C 659.843191 405.20433 659.470664 406.103688 659.470664 407.041322 
C 659.470664 407.978957 659.843191 408.878315 660.506198 409.541322 
C 661.169206 410.20433 662.068564 410.576856 663.006198 410.576856 
z
" clip-path="url(#pa6381849ea)" style="fill: #808080; stroke: #000000; stroke-width: 0.4"/>
    <path d="M 649.338843 366.279336 
C 650.276478 366.279336 651.175835 365.906809 651.838843 365.243802 
C 652.501851 364.580794 652.874377 363.681436 652.874377 362.743802 
C 652.874377 361.806167 652.501851 360.906809 651.838843 360.243802 
C 651.175835 359.580794 650.276478 359.208268 649.338843 359.208268 
C 648.401208 359.208268 647.501851 359.580794 646.838843 360.243802 
C 646.175835 360.906809 645.803309 361.806167 645.803309 362.743802 
C 645.803309 363.681436 646.175835 364.580794 646.838843 365.243802 
C 647.501851 365.906809 648.401208 366.279336 649.338843 366.279336 
z
" clip-path="url(#pa6381849ea)" style="fill: #808080; stroke: #000000; stroke-width: 0.4"/>
    <path d="M 731.342975 454.874377 
C 732.28061 454.874377 733.179967 454.501851 733.842975 453.838843 
C 734.505983 453.175835 734.878509 452.276478 734.878509 451.338843 
C 734.878509 450.401208 734.505983 449.501851 733.842975 448.838843 
C 733.179967 448.175835 732.28061 447.803309 731.342975 447.803309 
C 730.405341 447.803309 729.505983 448.175835 728.842975 448.838843 
C 728.179967 449.501851 727.807441 450.401208 727.807441 451.338843 
C 727.807441 452.276478 728.179967 453.175835 728.842975 453.838843 
C 729.505983 454.501851 730.405341 454.874377 731.342975 454.874377 
z
" clip-path="url(#pa6381849ea)" style="fill: #808080; stroke: #000000; stroke-width: 0.4"/>
    <path d="M 745.010331 454.874377 
C 745.947965 454.874377 746.847323 454.501851 747.510331 453.838843 
C 748.173338 453.175835 748.545864 452.276478 748.545864 451.338843 
C 748.545864 450.401208 748.173338 449.501851 747.510331 448.838843 
C 746.847323 448.175835 745.947965 447.803309 745.010331 447.803309 
C 744.072696 447.803309 743.173338 448.175835 742.510331 448.838843 
C 741.847323 449.501851 741.474797 450.401208 741.474797 451.338843 
C 741.474797 452.276478 741.847323 453.175835 742.510331 453.838843 
C 743.173338 454.501851 744.072696 454.874377 745.010331 454.874377 
z
" clip-path="url(#pa6381849ea)" style="fill: #808080; stroke: #000000; stroke-width: 0.4"/>
    <path d="M 717.67562 454.874377 
C 718.613254 454.874377 719.512612 454.501851 720.17562 453.838843 
C 720.838628 453.175835 721.211154 452.276478 721.211154 451.338843 
C 721.211154 450.401208 720.838628 449.501851 720.17562 448.838843 
C 719.512612 448.175835 718.613254 447.803309 717.67562 447.803309 
C 716.737985 447.803309 715.838628 448.175835 715.17562 448.838843 
C 714.512612 449.501851 714.140086 450.401208 714.140086 451.338843 
C 714.140086 452.276478 714.512612 453.175835 715.17562 453.838843 
C 715.838628 454.501851 716.737985 454.874377 717.67562 454.874377 
z
" clip-path="url(#pa6381849ea)" style="fill: #808080; stroke: #000000; stroke-width: 0.4"/>
    <path d="M 786.012397 454.874377 
C 786.950031 454.874377 787.849389 454.501851 788.512397 453.838843 
C 789.175404 453.175835 789.547931 452.276478 789.547931 451.338843 
C 789.547931 450.401208 789.175404 449.501851 788.512397 448.838843 
C 787.849389 448.175835 786.950031 447.803309 786.012397 447.803309 
C 785.074762 447.803309 784.175404 448.175835 783.512397 448.838843 
C 782.849389 449.501851 782.476863 450.401208 782.476863 451.338843 
C 782.476863 452.276478 782.849389 453.175835 783.512397 453.838843 
C 784.175404 454.501851 785.074762 454.874377 786.012397 454.874377 
z
" clip-path="url(#pa6381849ea)" style="fill: #808080; stroke: #000000; stroke-width: 0.4"/>
    <path d="M 799.679752 454.874377 
C 800.617387 454.874377 801.516744 454.501851 802.179752 453.838843 
C 802.84276 453.175835 803.215286 452.276478 803.215286 451.338843 
C 803.215286 450.401208 802.84276 449.501851 802.179752 448.838843 
C 801.516744 448.175835 800.617387 447.803309 799.679752 447.803309 
C 798.742118 447.803309 797.84276 448.175835 797.179752 448.838843 
C 796.516744 449.501851 796.144218 450.401208 796.144218 451.338843 
C 796.144218 452.276478 796.516744 453.175835 797.179752 453.838843 
C 797.84276 454.501851 798.742118 454.874377 799.679752 454.874377 
z
" clip-path="url(#pa6381849ea)" style="fill: #808080; stroke: #000000; stroke-width: 0.4"/>
    <path d="M 772.345041 454.874377 
C 773.282676 454.874377 774.182034 454.501851 774.845041 453.838843 
C 775.508049 453.175835 775.880575 452.276478 775.880575 451.338843 
C 775.880575 450.401208 775.508049 449.501851 774.845041 448.838843 
C 774.182034 448.175835 773.282676 447.803309 772.345041 447.803309 
C 771.407407 447.803309 770.508049 448.175835 769.845041 448.838843 
C 769.182034 449.501851 768.809507 450.401208 768.809507 451.338843 
C 768.809507 452.276478 769.182034 453.175835 769.845041 453.838843 
C 770.508049 454.501851 771.407407 454.874377 772.345041 454.874377 
z
" clip-path="url(#pa6381849ea)" style="fill: #808080; stroke: #000000; stroke-width: 0.4"/>
    <path d="M 758.677686 410.576856 
C 759.615321 410.576856 760.514678 410.20433 761.177686 409.541322 
C 761.840694 408.878315 762.21322 407.978957 762.21322 407.041322 
C 762.21322 406.103688 761.840694 405.20433 761.177686 404.541322 
C 760.514678 403.878315 759.615321 403.505788 758.677686 403.505788 
C 757.740051 403.505788 756.840694 403.878315 756.177686 404.541322 
C 755.514678 405.20433 755.142152 406.103688 755.142152 407.041322 
C 755.142152 407.978957 755.514678 408.878315 756.177686 409.541322 
C 756.840694 410.20433 757.740051 410.576856 758.677686 410.576856 
z
" clip-path="url(#pa6381849ea)" style="fill: #808080; stroke: #000000; stroke-width: 0.4"/>
    <path d="M 840.681818 412.041322 
C 842.007834 412.041322 843.279718 411.514491 844.217352 410.576856 
C 845.154987 409.639222 845.681818 408.367338 845.681818 407.041322 
C 845.681818 405.715307 845.154987 404.443423 844.217352 403.505788 
C 843.279718 402.568154 842.007834 402.041322 840.681818 402.041322 
C 839.355803 402.041322 838.083919 402.568154 837.146284 403.505788 
C 836.20865 404.443423 835.681818 405.715307 835.681818 407.041322 
C 835.681818 408.367338 836.20865 409.639222 837.146284 410.576856 
C 838.083919 411.514491 839.355803 412.041322 840.681818 412.041322 
z
" clip-path="url(#pa6381849ea)" style="fill: #008000; stroke: #000000; stroke-width: 0.4"/>
    <path d="M 827.014463 454.874377 
C 827.952097 454.874377 828.851455 454.501851 829.514463 453.838843 
C 830.177471 453.175835 830.549997 452.276478 830.549997 451.338843 
C 830.549997 450.401208 830.177471 449.501851 829.514463 448.838843 
C 828.851455 448.175835 827.952097 447.803309 827.014463 447.803309 
C 826.076828 447.803309 825.177471 448.175835 824.514463 448.838843 
C 823.851455 449.501851 823.478929 450.401208 823.478929 451.338843 
C 823.478929 452.276478 823.851455 453.175835 824.514463 453.838843 
C 825.177471 454.501851 826.076828 454.874377 827.014463 454.874377 
z
" clip-path="url(#pa6381849ea)" style="fill: #808080; stroke: #000000; stroke-width: 0.4"/>
    <path d="M 854.349174 456.338843 
C 855.675189 456.338843 856.947073 455.812011 857.884707 454.874377 
C 858.822342 453.936742 859.349174 452.664858 859.349174 451.338843 
C 859.349174 450.012827 858.822342 448.740944 857.884707 447.803309 
C 856.947073 446.865675 855.675189 446.338843 854.349174 446.338843 
C 853.023158 446.338843 851.751274 446.865675 850.81364 447.803309 
C 849.876005 448.740944 849.349174 450.012827 849.349174 451.338843 
C 849.349174 452.664858 849.876005 453.936742 850.81364 454.874377 
C 851.751274 455.812011 853.023158 456.338843 854.349174 456.338843 
z
" clip-path="url(#pa6381849ea)" style="fill: #ffff00; stroke: #000000; stroke-width: 0.4"/>
    <path d="M 813.347107 367.743802 
C 814.673123 367.743802 815.945007 367.21697 816.882641 366.279336 
C 817.820276 365.341701 818.347107 364.069817 818.347107 362.743802 
C 818.347107 361.417786 817.820276 360.145902 816.882641 359.208268 
C 815.945007 358.270633 814.673123 357.743802 813.347107 357.743802 
C 812.021092 357.743802 810.749208 358.270633 809.811574 359.208268 
C 808.873939 360.145902 808.347107 361.417786 808.347107 362.743802 
C 808.347107 364.069817 808.873939 365.341701 809.811574 366.279336 
C 810.749208 367.21697 812.021092 367.743802 813.347107 367.743802 
z
" clip-path="url(#pa6381849ea)" style="fill: #008000; stroke: #000000; stroke-width: 0.4"/>
    <path d="M 704.008264 323.446281 
C 705.33428 323.446281 706.606164 322.919449 707.543798 321.981815 
C 708.481433 321.04418 709.008264 319.772296 709.008264 318.446281 
C 709.008264 317.120265 708.481433 315.848382 707.543798 314.910747 
C 706.606164 313.973113 705.33428 313.446281 704.008264 313.446281 
C 702.682249 313.446281 701.410365 313.973113 700.472731 314.910747 
C 699.535096 315.848382 699.008264 317.120265 699.008264 318.446281 
C 699.008264 319.772296 699.535096 321.04418 700.472731 321.981815 
C 701.410365 322.919449 702.682249 323.446281 704.008264 323.446281 
z
" clip-path="url(#pa6381849ea)" style="fill: #008000; stroke: #000000; stroke-width: 0.4"/>
    <path d="M 594.669421 279.14876 
C 595.995437 279.14876 597.267321 278.621929 598.204955 277.684294 
C 599.14259 276.74666 599.669421 275.474776 599.669421 274.14876 
C 599.669421 272.822745 599.14259 271.550861 598.204955 270.613226 
C 597.267321 269.675592 595.995437 269.14876 594.669421 269.14876 
C 593.343406 269.14876 592.071522 269.675592 591.133888 270.613226 
C 590.196253 271.550861 589.669421 272.822745 589.669421 274.14876 
C 589.669421 275.474776 590.196253 276.74666 591.133888 277.684294 
C 592.071522 278.621929 593.343406 279.14876 594.669421 279.14876 
z
" clip-path="url(#pa6381849ea)" style="fill: #008000; stroke: #000000; stroke-width: 0.4"/>
    <path d="M 540 234.85124 
C 541.326016 234.85124 542.597899 234.324408 543.535534 233.386774 
C 544.473168 232.449139 545 231.177255 545 229.85124 
C 545 228.525224 544.473168 227.25334 543.535534 226.315706 
C 542.597899 225.378071 541.326016 224.85124 540 224.85124 
C 538.673984 224.85124 537.402101 225.378071 536.464466 226.315706 
C 535.526832 227.25334 535 228.525224 535 229.85124 
C 535 231.177255 535.526832 232.449139 536.464466 233.386774 
C 537.402101 234.324408 538.673984 234.85124 540 234.85124 
z
" clip-path="url(#pa6381849ea)" style="fill: #008000; stroke: #000000; stroke-width: 0.4"/>
    <path d="M 471.663223 234.85124 
C 472.989239 234.85124 474.261122 234.324408 475.198757 233.386774 
C 476.136392 232.449139 476.663223 231.177255 476.663223 229.85124 
C 476.663223 228.525224 476.136392 227.25334 475.198757 226.315706 
C 474.261122 225.378071 472.989239 224.85124 471.663223 224.85124 
C 470.337208 224.85124 469.065324 225.378071 468.127689 226.315706 
C 467.190055 227.25334 466.663223 228.525224 466.663223 229.85124 
C 466.663223 231.177255 467.190055 232.449139 468.127689 233.386774 
C 469.065324 234.324408 470.337208 234.85124 471.663223 234.85124 
z
" clip-path="url(#pa6381849ea)" style="stroke: #000000; stroke-width: 0.4"/>
    <path d="M 375.991736 190.553719 
C 377.317751 190.553719 378.589635 190.026887 379.527269 189.089253 
C 380.464904 188.151618 380.991736 186.879735 380.991736 185.553719 
C 380.991736 184.227704 380.464904 182.95582 379.527269 182.018185 
C 378.589635 181.080551 377.317751 180.553719 375.991736 180.553719 
C 374.66572 180.553719 373.393836 181.080551 372.456202 182.018185 
C 371.518567 182.95582 370.991736 184.227704 370.991736 185.553719 
C 370.991736 186.879735 371.518567 188.151618 372.456202 189.089253 
C 373.393836 190.026887 374.66572 190.553719 375.991736 190.553719 
z
" clip-path="url(#pa6381849ea)" style="stroke: #000000; stroke-width: 0.4"/>
    <path d="M 895.35124 189.089253 
C 896.288874 189.089253 897.188232 188.716727 897.85124 188.053719 
C 898.514247 187.390711 898.886774 186.491354 898.886774 185.553719 
C 898.886774 184.616084 898.514247 183.716727 897.85124 183.053719 
C 897.188232 182.390711 896.288874 182.018185 895.35124 182.018185 
C 894.413605 182.018185 893.514247 182.390711 892.85124 183.053719 
C 892.188232 183.716727 891.815706 184.616084 891.815706 185.553719 
C 891.815706 186.491354 892.188232 187.390711 892.85124 188.053719 
C 893.514247 188.716727 894.413605 189.089253 895.35124 189.089253 
z
" clip-path="url(#pa6381849ea)" style="fill: #808080; stroke: #000000; stroke-width: 0.4"/>
    <path d="M 881.683884 233.386774 
C 882.621519 233.386774 883.520877 233.014247 884.183884 232.35124 
C 884.846892 231.688232 885.219418 230.788874 885.219418 229.85124 
C 885.219418 228.913605 884.846892 228.014247 884.183884 227.35124 
C 883.520877 226.688232 882.621519 226.315706 881.683884 226.315706 
C 880.74625 226.315706 879.846892 226.688232 879.183884 227.35124 
C 878.520877 228.014247 878.14835 228.913605 878.14835 229.85124 
C 878.14835 230.788874 878.520877 231.688232 879.183884 232.35124 
C 879.846892 233.014247 880.74625 233.386774 881.683884 233.386774 
z
" clip-path="url(#pa6381849ea)" style="fill: #808080; stroke: #000000; stroke-width: 0.4"/>
    <path d="M 909.018595 233.386774 
C 909.95623 233.386774 910.855587 233.014247 911.518595 232.35124 
C 912.181603 231.688232 912.554129 230.788874 912.554129 229.85124 
C 912.554129 228.913605 912.181603 228.014247 911.518595 227.35124 
C 910.855587 226.688232 909.95623 226.315706 909.018595 226.315706 
C 908.08096 226.315706 907.181603 226.688232 906.518595 227.35124 
C 905.855587 228.014247 905.483061 228.913605 905.483061 229.85124 
C 905.483061 230.788874 905.855587 231.688232 906.518595 232.35124 
C 907.181603 233.014247 908.08096 233.386774 909.018595 233.386774 
z
" clip-path="url(#pa6381849ea)" style="fill: #808080; stroke: #000000; stroke-width: 0.4"/>
    <path d="M 868.016529 146.256198 
C 869.342544 146.256198 870.614428 145.729367 871.552063 144.791732 
C 872.489697 143.854098 873.016529 142.582214 873.016529 141.256198 
C 873.016529 139.930183 872.489697 138.658299 871.552063 137.720664 
C 870.614428 136.78303 869.342544 136.256198 868.016529 136.256198 
C 866.690513 136.256198 865.41863 136.78303 864.480995 137.720664 
C 863.54336 138.658299 863.016529 139.930183 863.016529 141.256198 
C 863.016529 142.582214 863.54336 143.854098 864.480995 144.791732 
C 865.41863 145.729367 866.690513 146.256198 868.016529 146.256198 
z
" clip-path="url(#pa6381849ea)" style="fill: #ff0000; stroke: #000000; stroke-width: 0.4"/>
    <path d="M 936.353306 144.791732 
C 937.29094 144.791732 938.190298 144.419206 938.853306 143.756198 
C 939.516314 143.093191 939.88884 142.193833 939.88884 141.256198 
C 939.88884 140.318564 939.516314 139.419206 938.853306 138.756198 
C 938.190298 138.093191 937.29094 137.720664 936.353306 137.720664 
C 935.415671 137.720664 934.516314 138.093191 933.853306 138.756198 
C 933.190298 139.419206 932.817772 140.318564 932.817772 141.256198 
C 932.817772 142.193833 933.190298 143.093191 933.853306 143.756198 
C 934.516314 144.419206 935.415671 144.791732 936.353306 144.791732 
z
" clip-path="url(#pa6381849ea)" style="fill: #808080; stroke: #000000; stroke-width: 0.4"/>
    <path d="M 950.020661 144.791732 
C 950.958296 144.791732 951.857653 144.419206 952.520661 143.756198 
C 953.183669 143.093191 953.556195 142.193833 953.556195 141.256198 
C 953.556195 140.318564 953.183669 139.419206 952.520661 138.756198 
C 951.857653 138.093191 950.958296 137.720664 950.020661 137.720664 
C 949.083027 137.720664 948.183669 138.093191 947.520661 138.756198 
C 946.857653 139.419206 946.485127 140.318564 946.485127 141.256198 
C 946.485127 142.193833 946.857653 143.093191 947.520661 143.756198 
C 948.183669 144.419206 949.083027 144.791732 950.020661 144.791732 
z
" clip-path="url(#pa6381849ea)" style="fill: #808080; stroke: #000000; stroke-width: 0.4"/>
    <path d="M 963.688017 100.494212 
C 964.625651 100.494212 965.525009 100.121685 966.188017 99.458678 
C 966.851024 98.79567 967.22355 97.896312 967.22355 96.958678 
C 967.22355 96.021043 966.851024 95.121685 966.188017 94.458678 
C 965.525009 93.79567 964.625651 93.423144 963.688017 93.423144 
C 962.750382 93.423144 961.851024 93.79567 961.188017 94.458678 
C 960.525009 95.121685 960.152483 96.021043 960.152483 96.958678 
C 960.152483 97.896312 960.525009 98.79567 961.188017 99.458678 
C 961.851024 100.121685 962.750382 100.494212 963.688017 100.494212 
z
" clip-path="url(#pa6381849ea)" style="fill: #808080; stroke: #000000; stroke-width: 0.4"/>
    <path d="M 977.355372 144.791732 
C 978.293006 144.791732 979.192364 144.419206 979.855372 143.756198 
C 980.51838 143.093191 980.890906 142.193833 980.890906 141.256198 
C 980.890906 140.318564 980.51838 139.419206 979.855372 138.756198 
C 979.192364 138.093191 978.293006 137.720664 977.355372 137.720664 
C 976.417737 137.720664 975.51838 138.093191 974.855372 138.756198 
C 974.192364 139.419206 973.819838 140.318564 973.819838 141.256198 
C 973.819838 142.193833 974.192364 143.093191 974.855372 143.756198 
C 975.51838 144.419206 976.417737 144.791732 977.355372 144.791732 
z
" clip-path="url(#pa6381849ea)" style="fill: #808080; stroke: #000000; stroke-width: 0.4"/>
    <path d="M 922.68595 101.958678 
C 924.011966 101.958678 925.28385 101.431846 926.221484 100.494212 
C 927.159119 99.556577 927.68595 98.284693 927.68595 96.958678 
C 927.68595 95.632662 927.159119 94.360778 926.221484 93.423144 
C 925.28385 92.485509 924.011966 91.958678 922.68595 91.958678 
C 921.359935 91.958678 920.088051 92.485509 919.150417 93.423144 
C 918.212782 94.360778 917.68595 95.632662 917.68595 96.958678 
C 917.68595 98.284693 918.212782 99.556577 919.150417 100.494212 
C 920.088051 101.431846 921.359935 101.958678 922.68595 101.958678 
z
" clip-path="url(#pa6381849ea)" style="stroke: #000000; stroke-width: 0.4"/>
    <path d="M 280.320248 57.661157 
C 281.646263 57.661157 282.918147 57.134325 283.855782 56.196691 
C 284.793416 55.259056 285.320248 53.987173 285.320248 52.661157 
C 285.320248 51.335142 284.793416 50.063258 283.855782 49.125623 
C 282.918147 48.187989 281.646263 47.661157 280.320248 47.661157 
C 278.994232 47.661157 277.722349 48.187989 276.784714 49.125623 
C 275.847079 50.063258 275.320248 51.335142 275.320248 52.661157 
C 275.320248 53.987173 275.847079 55.259056 276.784714 56.196691 
C 277.722349 57.134325 278.994232 57.661157 280.320248 57.661157 
z
" clip-path="url(#pa6381849ea)" style="stroke: #000000; stroke-width: 0.4"/>
   </g>
   <g id="line2d_1">
    <path d="M 868.016529 493.2 
L 868.016529 10.8 
" clip-path="url(#pa6381849ea)" style="fill: none; stroke: #ff0000; stroke-width: 1.5; stroke-linecap: square"/>
   </g>
   <g id="patch_3">
    <path d="M 10.8 493.2 
L 10.8 10.8 
" style="fill: none; stroke: #000000; stroke-width: 0.8; stroke-linejoin: miter; stroke-linecap: square"/>
   </g>
   <g id="patch_4">
    <path d="M 1069.2 493.2 
L 1069.2 10.8 
" style="fill: none; stroke: #000000; stroke-width: 0.8; stroke-linejoin: miter; stroke-linecap: square"/>
   </g>
   <g id="patch_5">
    <path d="M 10.8 493.2 
L 1069.2 493.2 
" style="fill: none; stroke: #000000; stroke-width: 0.8; stroke-linejoin: miter; stroke-linecap: square"/>
   </g>
   <g id="patch_6">
    <path d="M 10.8 10.8 
L 1069.2 10.8 
" style="fill: none; stroke: #000000; stroke-width: 0.8; stroke-linejoin: miter; stroke-linecap: square"/>
   </g>
   <g id="text_1">
    <!-- LO -->
    <g transform="translate(550 224.85124)scale(0.12 -0.12)">
     <defs>
      <path id="DejaVuSans-4c" d="M 628 4666 
L 1259 4666 
L 1259 531 
L 3531 531 
L 3531 0 
L 628 0 
L 628 4666 
z
" transform="scale(0.015625)"/>
      <path id="DejaVuSans-4f" d="M 2522 4238 
Q 1834 4238 1429 3725 
Q 1025 3213 1025 2328 
Q 1025 1447 1429 934 
Q 1834 422 2522 422 
Q 3209 422 3611 934 
Q 4013 1447 4013 2328 
Q 4013 3213 3611 3725 
Q 3209 4238 2522 4238 
z
M 2522 4750 
Q 3503 4750 4090 4092 
Q 4678 3434 4678 2328 
Q 4678 1225 4090 567 
Q 3503 -91 2522 -91 
Q 1538 -91 948 565 
Q 359 1222 359 2328 
Q 359 3434 948 4092 
Q 1538 4750 2522 4750 
z
" transform="scale(0.015625)"/>
     </defs>
     <use xlink:href="#DejaVuSans-4c"/>
     <use xlink:href="#DejaVuSans-4f" x="52.087891"/>
    </g>
   </g>
   <g id="text_2">
    <!-- LE -->
    <g transform="translate(834.349174 471.338843)scale(0.12 -0.12)">
     <defs>
      <path id="DejaVuSans-45" d="M 628 4666 
L 3578 4666 
L 3578 4134 
L 1259 4134 
L 1259 2753 
L 3481 2753 
L 3481 2222 
L 1259 2222 
L 1259 531 
L 3634 531 
L 3634 0 
L 628 0 
L 628 4666 
z
" transform="scale(0.015625)"/>
     </defs>
     <use xlink:href="#DejaVuSans-4c"/>
     <use xlink:href="#DejaVuSans-45" x="55.712891"/>
    </g>
   </g>
   <g id="text_3">
    <!-- KN -->
    <g transform="translate(848.016529 161.256198)scale(0.12 -0.12)">
     <defs>
      <path id="DejaVuSans-4b" d="M 628 4666 
L 1259 4666 
L 1259 2694 
L 3353 4666 
L 4166 4666 
L 1850 2491 
L 4331 0 
L 3500 0 
L 1259 2247 
L 1259 0 
L 628 0 
L 628 4666 
z
" transform="scale(0.015625)"/>
      <path id="DejaVuSans-4e" d="M 628 4666 
L 1478 4666 
L 3547 763 
L 3547 4666 
L 4159 4666 
L 4159 0 
L 3309 0 
L 1241 3903 
L 1241 0 
L 628 0 
L 628 4666 
z
" transform="scale(0.015625)"/>
     </defs>
     <use xlink:href="#DejaVuSans-4b"/>
     <use xlink:href="#DejaVuSans-4e" x="65.576172"/>
    </g>
   </g>
  </g>
 </g>
 <defs>
  <clipPath id="pa6381849ea">
   <rect x="10.8" y="10.8" width="1058.4" height="482.4"/>
  </clipPath>
 </defs>
</svg>
