<?xml version="1.0" encoding="utf-8" standalone="no"?>
<!DOCTYPE svg PUBLIC "-//W3C//DTD SVG 1.1//EN"
  "http://www.w3.org/Graphics/SVG/1.1/DTD/svg11.dtd">
<svg height="504pt" version="1.1" viewBox="0 0 1080 504" width="1080pt" xmlns="http://www.w3.org/2000/svg" xmlns:xlink="http://www.w3.org/1999/xlink">
 <metadata>
  <rdf:RDF xmlns:cc="http://creativecommons.org/ns#" xmlns:dc="http://purl.org/dc/elements/1.1/" xmlns:rdf="http://www.w3.org/1999/02/22-rdf-syntax-ns#">
   <cc:Work>
    <dc:type rdf:resource="http://purl.org/dc/dcmitype/StillImage"/>
    <dc:date>2022-04-01T05:35:49.259712</dc:date>
    <dc:format>image/svg+xml</dc:format>
    <dc:creator>
     <cc:Agent>
      <dc:title>Matplotlib v3.4.3, https://matplotlib.org/</dc:title>
     </cc:Agent>
    </dc:creator>
   </cc:Work>
  </rdf:RDF>
 </metadata>
 <defs>
  <style type="text/css">*{stroke-linecap:butt;stroke-linejoin:round;}</style>
 </defs>
 <g id="figure_1">
  <g id="patch_1">
   <path d="M 0 504 
L 1080 504 
L 1080 0 
L 0 0 
z
" style="fill:#ffffff;"/>
  </g>
  <g id="axes_1">
   <g id="patch_2">
    <path d="M 10.8 493.2 
L 1069.2 493.2 
L 1069.2 10.8 
L 10.8 10.8 
z
" style="fill:#ffffff;"/>
   </g>
   <g id="patch_3">
    <path clip-path="url(#p00f891b574)" d="M 218.024416 451.338843 
Q 221.925105 451.338843 224.260546 451.338843 
" style="fill:none;stroke:#000000;stroke-linecap:round;stroke-width:1.4;"/>
    <path clip-path="url(#p00f891b574)" d="M 220.260546 449.338843 
L 224.260546 451.338843 
L 220.260546 453.338843 
L 220.260546 449.338843 
z
" style="stroke:#000000;stroke-linecap:round;stroke-width:1.4;"/>
   </g>
   <g id="patch_4">
    <path clip-path="url(#p00f891b574)" d="M 257.29056 359.927554 
Q 235.177097 401.50312 213.798664 441.696755 
" style="fill:none;stroke:#000000;stroke-linecap:round;stroke-width:1.4;"/>
    <path clip-path="url(#p00f891b574)" d="M 217.442803 439.10441 
L 213.798664 441.696755 
L 213.911271 437.226037 
L 217.442803 439.10441 
z
" style="stroke:#000000;stroke-linecap:round;stroke-width:1.4;"/>
   </g>
   <g id="patch_5">
    <path clip-path="url(#p00f891b574)" d="M 271.037189 351.669421 
Q 274.937877 351.669421 277.273318 351.669421 
" style="fill:none;stroke:#000000;stroke-linecap:round;stroke-width:1.4;"/>
    <path clip-path="url(#p00f891b574)" d="M 273.273318 349.669421 
L 277.273318 351.669421 
L 273.273318 353.669421 
L 273.273318 349.669421 
z
" style="stroke:#000000;stroke-linecap:round;stroke-width:1.4;"/>
   </g>
   <g id="patch_6">
    <path clip-path="url(#p00f891b574)" d="M 179.758895 360.712304 
Q 168.910354 401.505033 158.464097 440.785093 
" style="fill:none;stroke:#000000;stroke-linecap:round;stroke-width:1.4;"/>
    <path clip-path="url(#p00f891b574)" d="M 161.424953 437.433477 
L 158.464097 440.785093 
L 157.559318 436.405438 
L 161.424953 437.433477 
z
" style="stroke:#000000;stroke-linecap:round;stroke-width:1.4;"/>
   </g>
   <g id="patch_7">
    <path clip-path="url(#p00f891b574)" d="M 191.516412 351.669421 
Q 221.920911 351.669421 250.760161 351.669421 
" style="fill:none;stroke:#000000;stroke-linecap:round;stroke-width:1.4;"/>
    <path clip-path="url(#p00f891b574)" d="M 246.760161 349.669421 
L 250.760161 351.669421 
L 246.760161 353.669421 
L 246.760161 349.669421 
z
" style="stroke:#000000;stroke-linecap:round;stroke-width:1.4;"/>
   </g>
   <g id="patch_8">
    <path clip-path="url(#p00f891b574)" d="M 307.21936 257.622526 
Q 248.429731 301.834727 190.891073 345.106146 
" style="fill:none;stroke:#000000;stroke-linecap:round;stroke-width:1.4;"/>
    <path clip-path="url(#p00f891b574)" d="M 195.290025 344.300406 
L 190.891073 345.106146 
L 192.885851 341.10354 
L 195.290025 344.300406 
z
" style="stroke:#000000;stroke-linecap:round;stroke-width:1.4;"/>
   </g>
   <g id="patch_9">
    <path clip-path="url(#p00f891b574)" d="M 317.100609 261.042883 
Q 327.94915 301.835612 338.395407 341.115671 
" style="fill:none;stroke:#000000;stroke-linecap:round;stroke-width:1.4;"/>
    <path clip-path="url(#p00f891b574)" d="M 339.300186 336.736016 
L 338.395407 341.115671 
L 335.434551 337.764055 
L 339.300186 336.736016 
z
" style="stroke:#000000;stroke-linecap:round;stroke-width:1.4;"/>
   </g>
   <g id="patch_10">
    <path clip-path="url(#p00f891b574)" d="M 403.569119 451.338843 
Q 407.469808 451.338843 409.805249 451.338843 
" style="fill:none;stroke:#000000;stroke-linecap:round;stroke-width:1.4;"/>
    <path clip-path="url(#p00f891b574)" d="M 405.805249 449.338843 
L 409.805249 451.338843 
L 405.805249 453.338843 
L 405.805249 449.338843 
z
" style="stroke:#000000;stroke-linecap:round;stroke-width:1.4;"/>
   </g>
   <g id="patch_11">
    <path clip-path="url(#p00f891b574)" d="M 442.835263 359.927554 
Q 420.721801 401.50312 399.343368 441.696755 
" style="fill:none;stroke:#000000;stroke-linecap:round;stroke-width:1.4;"/>
    <path clip-path="url(#p00f891b574)" d="M 402.987506 439.10441 
L 399.343368 441.696755 
L 399.455974 437.226037 
L 402.987506 439.10441 
z
" style="stroke:#000000;stroke-linecap:round;stroke-width:1.4;"/>
   </g>
   <g id="patch_12">
    <path clip-path="url(#p00f891b574)" d="M 562.607437 451.338843 
Q 566.508125 451.338843 568.843566 451.338843 
" style="fill:none;stroke:#000000;stroke-linecap:round;stroke-width:1.4;"/>
    <path clip-path="url(#p00f891b574)" d="M 564.843566 449.338843 
L 568.843566 451.338843 
L 564.843566 453.338843 
L 564.843566 449.338843 
z
" style="stroke:#000000;stroke-linecap:round;stroke-width:1.4;"/>
   </g>
   <g id="patch_13">
    <path clip-path="url(#p00f891b574)" d="M 536.10105 451.338843 
Q 540.001739 451.338843 542.33718 451.338843 
" style="fill:none;stroke:#000000;stroke-linecap:round;stroke-width:1.4;"/>
    <path clip-path="url(#p00f891b574)" d="M 538.33718 449.338843 
L 542.33718 451.338843 
L 538.33718 453.338843 
L 538.33718 449.338843 
z
" style="stroke:#000000;stroke-linecap:round;stroke-width:1.4;"/>
   </g>
   <g id="patch_14">
    <path clip-path="url(#p00f891b574)" d="M 509.594664 451.338843 
Q 513.495353 451.338843 515.830794 451.338843 
" style="fill:none;stroke:#000000;stroke-linecap:round;stroke-width:1.4;"/>
    <path clip-path="url(#p00f891b574)" d="M 511.830794 449.338843 
L 515.830794 451.338843 
L 511.830794 453.338843 
L 511.830794 449.338843 
z
" style="stroke:#000000;stroke-linecap:round;stroke-width:1.4;"/>
   </g>
   <g id="patch_15">
    <path clip-path="url(#p00f891b574)" d="M 748.15214 451.338843 
Q 752.052828 451.338843 754.38827 451.338843 
" style="fill:none;stroke:#000000;stroke-linecap:round;stroke-width:1.4;"/>
    <path clip-path="url(#p00f891b574)" d="M 750.38827 449.338843 
L 754.38827 451.338843 
L 750.38827 453.338843 
L 750.38827 449.338843 
z
" style="stroke:#000000;stroke-linecap:round;stroke-width:1.4;"/>
   </g>
   <g id="patch_16">
    <path clip-path="url(#p00f891b574)" d="M 721.645754 451.338843 
Q 725.546442 451.338843 727.881883 451.338843 
" style="fill:none;stroke:#000000;stroke-linecap:round;stroke-width:1.4;"/>
    <path clip-path="url(#p00f891b574)" d="M 723.881883 449.338843 
L 727.881883 451.338843 
L 723.881883 453.338843 
L 723.881883 449.338843 
z
" style="stroke:#000000;stroke-linecap:round;stroke-width:1.4;"/>
   </g>
   <g id="patch_17">
    <path clip-path="url(#p00f891b574)" d="M 695.139367 451.338843 
Q 699.040056 451.338843 701.375497 451.338843 
" style="fill:none;stroke:#000000;stroke-linecap:round;stroke-width:1.4;"/>
    <path clip-path="url(#p00f891b574)" d="M 697.375497 449.338843 
L 701.375497 451.338843 
L 697.375497 453.338843 
L 697.375497 449.338843 
z
" style="stroke:#000000;stroke-linecap:round;stroke-width:1.4;"/>
   </g>
   <g id="patch_18">
    <path clip-path="url(#p00f891b574)" d="M 656.873846 360.712304 
Q 646.025305 401.505033 635.579048 440.785093 
" style="fill:none;stroke:#000000;stroke-linecap:round;stroke-width:1.4;"/>
    <path clip-path="url(#p00f891b574)" d="M 638.539904 437.433477 
L 635.579048 440.785093 
L 634.674269 436.405438 
L 638.539904 437.433477 
z
" style="stroke:#000000;stroke-linecap:round;stroke-width:1.4;"/>
   </g>
   <g id="patch_19">
    <path clip-path="url(#p00f891b574)" d="M 661.683629 360.712304 
Q 672.53217 401.505033 682.978428 440.785093 
" style="fill:none;stroke:#000000;stroke-linecap:round;stroke-width:1.4;"/>
    <path clip-path="url(#p00f891b574)" d="M 683.883207 436.405438 
L 682.978428 440.785093 
L 680.017571 437.433477 
L 683.883207 436.405438 
z
" style="stroke:#000000;stroke-linecap:round;stroke-width:1.4;"/>
   </g>
   <g id="patch_20">
    <path clip-path="url(#p00f891b574)" d="M 599.448466 358.078219 
Q 553.251995 401.505258 508.195978 443.860213 
" style="fill:none;stroke:#000000;stroke-linecap:round;stroke-width:1.4;"/>
    <path clip-path="url(#p00f891b574)" d="M 512.480274 442.577713 
L 508.195978 443.860213 
L 509.740555 439.663276 
L 512.480274 442.577713 
z
" style="stroke:#000000;stroke-linecap:round;stroke-width:1.4;"/>
   </g>
   <g id="patch_21">
    <path clip-path="url(#p00f891b574)" d="M 615.620209 351.669421 
Q 632.771583 351.669421 648.35771 351.669421 
" style="fill:none;stroke:#000000;stroke-linecap:round;stroke-width:1.4;"/>
    <path clip-path="url(#p00f891b574)" d="M 644.35771 349.669421 
L 648.35771 351.669421 
L 644.35771 353.669421 
L 644.35771 349.669421 
z
" style="stroke:#000000;stroke-linecap:round;stroke-width:1.4;"/>
   </g>
   <g id="patch_22">
    <path clip-path="url(#p00f891b574)" d="M 842.418549 360.712304 
Q 831.570008 401.505033 821.123751 440.785093 
" style="fill:none;stroke:#000000;stroke-linecap:round;stroke-width:1.4;"/>
    <path clip-path="url(#p00f891b574)" d="M 824.084607 437.433477 
L 821.123751 440.785093 
L 820.218972 436.405438 
L 824.084607 437.433477 
z
" style="stroke:#000000;stroke-linecap:round;stroke-width:1.4;"/>
   </g>
   <g id="patch_23">
    <path clip-path="url(#p00f891b574)" d="M 847.228333 360.712304 
Q 858.076874 401.505033 868.523131 440.785093 
" style="fill:none;stroke:#000000;stroke-linecap:round;stroke-width:1.4;"/>
    <path clip-path="url(#p00f891b574)" d="M 869.42791 436.405438 
L 868.523131 440.785093 
L 865.562275 437.433477 
L 869.42791 436.405438 
z
" style="stroke:#000000;stroke-linecap:round;stroke-width:1.4;"/>
   </g>
   <g id="patch_24">
    <path clip-path="url(#p00f891b574)" d="M 893.443828 260.258132 
Q 871.330366 301.833698 849.951933 342.027334 
" style="fill:none;stroke:#000000;stroke-linecap:round;stroke-width:1.4;"/>
    <path clip-path="url(#p00f891b574)" d="M 853.596071 339.434988 
L 849.951933 342.027334 
L 850.064539 337.556616 
L 853.596071 339.434988 
z
" style="stroke:#000000;stroke-linecap:round;stroke-width:1.4;"/>
   </g>
   <g id="patch_25">
    <path clip-path="url(#p00f891b574)" d="M 783.569082 256.42715 
Q 699.036542 301.835664 615.882899 346.503474 
" style="fill:none;stroke:#000000;stroke-linecap:round;stroke-width:1.4;"/>
    <path clip-path="url(#p00f891b574)" d="M 620.353117 346.372488 
L 615.882899 346.503474 
L 618.460241 342.848708 
L 620.353117 346.372488 
z
" style="stroke:#000000;stroke-linecap:round;stroke-width:1.4;"/>
   </g>
   <g id="patch_26">
    <path clip-path="url(#p00f891b574)" d="M 801.164912 252 
Q 844.823062 252 886.915964 252 
" style="fill:none;stroke:#000000;stroke-linecap:round;stroke-width:1.4;"/>
    <path clip-path="url(#p00f891b574)" d="M 882.915964 250 
L 886.915964 252 
L 882.915964 254 
L 882.915964 250 
z
" style="stroke:#000000;stroke-linecap:round;stroke-width:1.4;"/>
   </g>
   <g id="patch_27">
    <path clip-path="url(#p00f891b574)" d="M 471.329143 261.042883 
Q 460.480602 301.835612 450.034345 341.115671 
" style="fill:none;stroke:#000000;stroke-linecap:round;stroke-width:1.4;"/>
    <path clip-path="url(#p00f891b574)" d="M 452.995201 337.764055 
L 450.034345 341.115671 
L 449.129566 336.736016 
L 452.995201 337.764055 
z
" style="stroke:#000000;stroke-linecap:round;stroke-width:1.4;"/>
   </g>
   <g id="patch_28">
    <path clip-path="url(#p00f891b574)" d="M 483.08666 252 
Q 632.773241 252 780.894573 252 
" style="fill:none;stroke:#000000;stroke-linecap:round;stroke-width:1.4;"/>
    <path clip-path="url(#p00f891b574)" d="M 776.894573 250 
L 780.894573 252 
L 776.894573 254 
L 776.894573 250 
z
" style="stroke:#000000;stroke-linecap:round;stroke-width:1.4;"/>
   </g>
   <g id="patch_29">
    <path clip-path="url(#p00f891b574)" d="M 960.203229 451.338843 
Q 964.103918 451.338843 966.439359 451.338843 
" style="fill:none;stroke:#000000;stroke-linecap:round;stroke-width:1.4;"/>
    <path clip-path="url(#p00f891b574)" d="M 962.439359 449.338843 
L 966.439359 451.338843 
L 962.439359 453.338843 
L 962.439359 449.338843 
z
" style="stroke:#000000;stroke-linecap:round;stroke-width:1.4;"/>
   </g>
   <g id="patch_30">
    <path clip-path="url(#p00f891b574)" d="M 915.208178 154.351007 
Q 699.036675 202.165653 484.39348 249.642254 
" style="fill:none;stroke:#000000;stroke-linecap:round;stroke-width:1.4;"/>
    <path clip-path="url(#p00f891b574)" d="M 488.731018 250.73118 
L 484.39348 249.642254 
L 487.867144 246.825579 
L 488.731018 250.73118 
z
" style="stroke:#000000;stroke-linecap:round;stroke-width:1.4;"/>
   </g>
   <g id="patch_31">
    <path clip-path="url(#p00f891b574)" d="M 925.168902 161.651774 
Q 937.596133 301.83855 949.885151 440.466193 
" style="fill:none;stroke:#000000;stroke-linecap:round;stroke-width:1.4;"/>
    <path clip-path="url(#p00f891b574)" d="M 951.524133 436.305214 
L 949.885151 440.466193 
L 947.539757 436.65842 
L 951.524133 436.305214 
z
" style="stroke:#000000;stroke-linecap:round;stroke-width:1.4;"/>
   </g>
   <g id="patch_32">
    <path clip-path="url(#p00f891b574)" d="M 363.316105 160.588711 
Q 341.202642 202.164277 319.824209 242.357913 
" style="fill:none;stroke:#000000;stroke-linecap:round;stroke-width:1.4;"/>
    <path clip-path="url(#p00f891b574)" d="M 323.468347 239.765567 
L 319.824209 242.357913 
L 319.936816 237.887194 
L 323.468347 239.765567 
z
" style="stroke:#000000;stroke-linecap:round;stroke-width:1.4;"/>
   </g>
   <g id="patch_33">
    <path clip-path="url(#p00f891b574)" d="M 377.064149 152.330579 
Q 646.024835 152.330579 913.420273 152.330579 
" style="fill:none;stroke:#000000;stroke-linecap:round;stroke-width:1.4;"/>
    <path clip-path="url(#p00f891b574)" d="M 909.420273 150.330579 
L 913.420273 152.330579 
L 909.420273 154.330579 
L 909.420273 150.330579 
z
" style="stroke:#000000;stroke-linecap:round;stroke-width:1.4;"/>
   </g>
   <g id="patch_34">
    <path clip-path="url(#p00f891b574)" d="M 128.324712 61.982353 
Q 115.897481 202.169129 103.608463 340.796771 
" style="fill:none;stroke:#000000;stroke-linecap:round;stroke-width:1.4;"/>
    <path clip-path="url(#p00f891b574)" d="M 105.953856 336.988999 
L 103.608463 340.796771 
L 101.969481 336.635793 
L 105.953856 336.988999 
z
" style="stroke:#000000;stroke-linecap:round;stroke-width:1.4;"/>
   </g>
   <g id="patch_35">
    <path clip-path="url(#p00f891b574)" d="M 137.781687 56.267056 
Q 248.427997 102.495134 357.630044 148.119799 
" style="fill:none;stroke:#000000;stroke-linecap:round;stroke-width:1.4;"/>
    <path clip-path="url(#p00f891b574)" d="M 354.710237 144.732363 
L 357.630044 148.119799 
L 353.168211 148.423183 
L 354.710237 144.732363 
z
" style="stroke:#000000;stroke-linecap:round;stroke-width:1.4;"/>
   </g>
   <g id="matplotlib.axis_1">
    <g id="xtick_1"/>
    <g id="xtick_2"/>
    <g id="xtick_3"/>
    <g id="xtick_4"/>
    <g id="xtick_5"/>
    <g id="xtick_6"/>
    <g id="xtick_7"/>
    <g id="xtick_8"/>
   </g>
   <g id="matplotlib.axis_2">
    <g id="ytick_1"/>
    <g id="ytick_2"/>
    <g id="ytick_3"/>
    <g id="ytick_4"/>
    <g id="ytick_5"/>
   </g>
   <g id="PathCollection_1">
    <defs>
     <path d="M 0 9.354143 
C 2.480748 9.354143 4.860225 8.368532 6.614378 6.614378 
C 8.368532 4.860225 9.354143 2.480748 9.354143 0 
C 9.354143 -2.480748 8.368532 -4.860225 6.614378 -6.614378 
C 4.860225 -8.368532 2.480748 -9.354143 0 -9.354143 
C -2.480748 -9.354143 -4.860225 -8.368532 -6.614378 -6.614378 
C -8.368532 -4.860225 -9.354143 -2.480748 -9.354143 0 
C -9.354143 2.480748 -8.368532 4.860225 -6.614378 6.614378 
C -4.860225 8.368532 -2.480748 9.354143 0 9.354143 
z
" id="mfb0a0270f7" style="stroke:#000000;stroke-width:1.4;"/>
    </defs>
    <g clip-path="url(#p00f891b574)">
     <use style="fill:#ffffff;stroke:#000000;stroke-width:1.4;" x="208.670173" xlink:href="#mfb0a0270f7" y="451.338843"/>
     <use style="fill:#ffffff;stroke:#000000;stroke-width:1.4;" x="235.176559" xlink:href="#mfb0a0270f7" y="451.338843"/>
     <use style="fill:#ffffff;stroke:#000000;stroke-width:1.4;" x="261.682945" xlink:href="#mfb0a0270f7" y="351.669421"/>
     <use style="fill:#ffffff;stroke:#000000;stroke-width:1.4;" x="288.189331" xlink:href="#mfb0a0270f7" y="351.669421"/>
     <use style="fill:#ffffff;stroke:#000000;stroke-width:1.4;" x="182.163787" xlink:href="#mfb0a0270f7" y="351.669421"/>
     <use style="fill:#ffffff;stroke:#000000;stroke-width:1.4;" x="155.6574" xlink:href="#mfb0a0270f7" y="451.338843"/>
     <use style="fill:#ffffff;stroke:#000000;stroke-width:1.4;" x="314.695718" xlink:href="#mfb0a0270f7" y="252"/>
     <use style="fill:#ffffff;stroke:#000000;stroke-width:1.4;" x="341.202104" xlink:href="#mfb0a0270f7" y="351.669421"/>
     <use style="fill:#ffffff;stroke:#000000;stroke-width:1.4;" x="394.214876" xlink:href="#mfb0a0270f7" y="451.338843"/>
     <use style="fill:#ffffff;stroke:#000000;stroke-width:1.4;" x="420.721262" xlink:href="#mfb0a0270f7" y="451.338843"/>
     <use style="fill:#ffffff;stroke:#000000;stroke-width:1.4;" x="447.227648" xlink:href="#mfb0a0270f7" y="351.669421"/>
     <use style="fill:#ffffff;stroke:#000000;stroke-width:1.4;" x="553.253193" xlink:href="#mfb0a0270f7" y="451.338843"/>
     <use style="fill:#ffffff;stroke:#000000;stroke-width:1.4;" x="579.759579" xlink:href="#mfb0a0270f7" y="451.338843"/>
     <use style="fill:#ffffff;stroke:#000000;stroke-width:1.4;" x="526.746807" xlink:href="#mfb0a0270f7" y="451.338843"/>
     <use style="fill:#ffffff;stroke:#000000;stroke-width:1.4;" x="500.240421" xlink:href="#mfb0a0270f7" y="451.338843"/>
     <use style="fill:#ffffff;stroke:#000000;stroke-width:1.4;" x="738.797896" xlink:href="#mfb0a0270f7" y="451.338843"/>
     <use style="fill:#ffffff;stroke:#000000;stroke-width:1.4;" x="765.304282" xlink:href="#mfb0a0270f7" y="451.338843"/>
     <use style="fill:#ffffff;stroke:#000000;stroke-width:1.4;" x="712.29151" xlink:href="#mfb0a0270f7" y="451.338843"/>
     <use style="fill:#ffffff;stroke:#000000;stroke-width:1.4;" x="685.785124" xlink:href="#mfb0a0270f7" y="451.338843"/>
     <use style="fill:#ffffff;stroke:#000000;stroke-width:1.4;" x="659.278738" xlink:href="#mfb0a0270f7" y="351.669421"/>
     <use style="fill:#ffffff;stroke:#000000;stroke-width:1.4;" x="632.772352" xlink:href="#mfb0a0270f7" y="451.338843"/>
     <use style="fill:#ffffff;stroke:#000000;stroke-width:1.4;" x="606.265965" xlink:href="#mfb0a0270f7" y="351.669421"/>
     <use style="fill:#ffffff;stroke:#000000;stroke-width:1.4;" x="844.823441" xlink:href="#mfb0a0270f7" y="351.669421"/>
     <use style="fill:#ffffff;stroke:#000000;stroke-width:1.4;" x="818.317055" xlink:href="#mfb0a0270f7" y="451.338843"/>
     <use style="fill:#ffffff;stroke:#000000;stroke-width:1.4;" x="871.329827" xlink:href="#mfb0a0270f7" y="451.338843"/>
     <use style="fill:#ffffff;stroke:#000000;stroke-width:1.4;" x="897.836213" xlink:href="#mfb0a0270f7" y="252"/>
     <use style="fill:#ffffff;stroke:#000000;stroke-width:1.4;" x="791.810669" xlink:href="#mfb0a0270f7" y="252"/>
     <use style="fill:#ffffff;stroke:#000000;stroke-width:1.4;" x="473.734035" xlink:href="#mfb0a0270f7" y="252"/>
     <use style="fill:#ffffff;stroke:#000000;stroke-width:1.4;" x="950.848986" xlink:href="#mfb0a0270f7" y="451.338843"/>
     <use style="fill:#ffffff;stroke:#000000;stroke-width:1.4;" x="977.355372" xlink:href="#mfb0a0270f7" y="451.338843"/>
     <use style="fill:#ffffff;stroke:#000000;stroke-width:1.4;" x="924.3426" xlink:href="#mfb0a0270f7" y="152.330579"/>
     <use style="fill:#ffffff;stroke:#000000;stroke-width:1.4;" x="367.70849" xlink:href="#mfb0a0270f7" y="152.330579"/>
     <use style="fill:#ffffff;stroke:#000000;stroke-width:1.4;" x="129.151014" xlink:href="#mfb0a0270f7" y="52.661157"/>
     <use style="fill:#ffffff;stroke:#000000;stroke-width:1.4;" x="102.644628" xlink:href="#mfb0a0270f7" y="351.669421"/>
    </g>
   </g>
   <g id="patch_36">
    <path d="M 10.8 493.2 
L 10.8 10.8 
" style="fill:none;stroke:#000000;stroke-linecap:square;stroke-linejoin:miter;stroke-width:0.8;"/>
   </g>
   <g id="patch_37">
    <path d="M 1069.2 493.2 
L 1069.2 10.8 
" style="fill:none;stroke:#000000;stroke-linecap:square;stroke-linejoin:miter;stroke-width:0.8;"/>
   </g>
   <g id="patch_38">
    <path d="M 10.8 493.2 
L 1069.2 493.2 
" style="fill:none;stroke:#000000;stroke-linecap:square;stroke-linejoin:miter;stroke-width:0.8;"/>
   </g>
   <g id="patch_39">
    <path d="M 10.8 10.8 
L 1069.2 10.8 
" style="fill:none;stroke:#000000;stroke-linecap:square;stroke-linejoin:miter;stroke-width:0.8;"/>
   </g>
   <g id="text_1">
    <g clip-path="url(#p00f891b574)">
     <!-- 9 -->
     <g transform="translate(205.107173 454.429343)scale(0.112 -0.112)">
      <defs>
       <path d="M 703 97 
L 703 672 
Q 941 559 1184 500 
Q 1428 441 1663 441 
Q 2288 441 2617 861 
Q 2947 1281 2994 2138 
Q 2813 1869 2534 1725 
Q 2256 1581 1919 1581 
Q 1219 1581 811 2004 
Q 403 2428 403 3163 
Q 403 3881 828 4315 
Q 1253 4750 1959 4750 
Q 2769 4750 3195 4129 
Q 3622 3509 3622 2328 
Q 3622 1225 3098 567 
Q 2575 -91 1691 -91 
Q 1453 -91 1209 -44 
Q 966 3 703 97 
z
M 1959 2075 
Q 2384 2075 2632 2365 
Q 2881 2656 2881 3163 
Q 2881 3666 2632 3958 
Q 2384 4250 1959 4250 
Q 1534 4250 1286 3958 
Q 1038 3666 1038 3163 
Q 1038 2656 1286 2365 
Q 1534 2075 1959 2075 
z
" id="DejaVuSans-39" transform="scale(0.015625)"/>
      </defs>
      <use xlink:href="#DejaVuSans-39"/>
     </g>
    </g>
   </g>
   <g id="text_2">
    <g clip-path="url(#p00f891b574)">
     <!-- 11 -->
     <g transform="translate(228.050559 454.429343)scale(0.112 -0.112)">
      <defs>
       <path d="M 794 531 
L 1825 531 
L 1825 4091 
L 703 3866 
L 703 4441 
L 1819 4666 
L 2450 4666 
L 2450 531 
L 3481 531 
L 3481 0 
L 794 0 
L 794 531 
z
" id="DejaVuSans-31" transform="scale(0.015625)"/>
      </defs>
      <use xlink:href="#DejaVuSans-31"/>
      <use x="63.623047" xlink:href="#DejaVuSans-31"/>
     </g>
    </g>
   </g>
   <g id="text_3">
    <g clip-path="url(#p00f891b574)">
     <!-- 12 -->
     <g transform="translate(254.556945 354.759921)scale(0.112 -0.112)">
      <defs>
       <path d="M 1228 531 
L 3431 531 
L 3431 0 
L 469 0 
L 469 531 
Q 828 903 1448 1529 
Q 2069 2156 2228 2338 
Q 2531 2678 2651 2914 
Q 2772 3150 2772 3378 
Q 2772 3750 2511 3984 
Q 2250 4219 1831 4219 
Q 1534 4219 1204 4116 
Q 875 4013 500 3803 
L 500 4441 
Q 881 4594 1212 4672 
Q 1544 4750 1819 4750 
Q 2544 4750 2975 4387 
Q 3406 4025 3406 3419 
Q 3406 3131 3298 2873 
Q 3191 2616 2906 2266 
Q 2828 2175 2409 1742 
Q 1991 1309 1228 531 
z
" id="DejaVuSans-32" transform="scale(0.015625)"/>
      </defs>
      <use xlink:href="#DejaVuSans-31"/>
      <use x="63.623047" xlink:href="#DejaVuSans-32"/>
     </g>
    </g>
   </g>
   <g id="text_4">
    <g clip-path="url(#p00f891b574)">
     <!-- 13 -->
     <g transform="translate(281.063331 354.759921)scale(0.112 -0.112)">
      <defs>
       <path d="M 2597 2516 
Q 3050 2419 3304 2112 
Q 3559 1806 3559 1356 
Q 3559 666 3084 287 
Q 2609 -91 1734 -91 
Q 1441 -91 1130 -33 
Q 819 25 488 141 
L 488 750 
Q 750 597 1062 519 
Q 1375 441 1716 441 
Q 2309 441 2620 675 
Q 2931 909 2931 1356 
Q 2931 1769 2642 2001 
Q 2353 2234 1838 2234 
L 1294 2234 
L 1294 2753 
L 1863 2753 
Q 2328 2753 2575 2939 
Q 2822 3125 2822 3475 
Q 2822 3834 2567 4026 
Q 2313 4219 1838 4219 
Q 1578 4219 1281 4162 
Q 984 4106 628 3988 
L 628 4550 
Q 988 4650 1302 4700 
Q 1616 4750 1894 4750 
Q 2613 4750 3031 4423 
Q 3450 4097 3450 3541 
Q 3450 3153 3228 2886 
Q 3006 2619 2597 2516 
z
" id="DejaVuSans-33" transform="scale(0.015625)"/>
      </defs>
      <use xlink:href="#DejaVuSans-31"/>
      <use x="63.623047" xlink:href="#DejaVuSans-33"/>
     </g>
    </g>
   </g>
   <g id="text_5">
    <g clip-path="url(#p00f891b574)">
     <!-- 8 -->
     <g transform="translate(178.600787 354.759921)scale(0.112 -0.112)">
      <defs>
       <path d="M 2034 2216 
Q 1584 2216 1326 1975 
Q 1069 1734 1069 1313 
Q 1069 891 1326 650 
Q 1584 409 2034 409 
Q 2484 409 2743 651 
Q 3003 894 3003 1313 
Q 3003 1734 2745 1975 
Q 2488 2216 2034 2216 
z
M 1403 2484 
Q 997 2584 770 2862 
Q 544 3141 544 3541 
Q 544 4100 942 4425 
Q 1341 4750 2034 4750 
Q 2731 4750 3128 4425 
Q 3525 4100 3525 3541 
Q 3525 3141 3298 2862 
Q 3072 2584 2669 2484 
Q 3125 2378 3379 2068 
Q 3634 1759 3634 1313 
Q 3634 634 3220 271 
Q 2806 -91 2034 -91 
Q 1263 -91 848 271 
Q 434 634 434 1313 
Q 434 1759 690 2068 
Q 947 2378 1403 2484 
z
M 1172 3481 
Q 1172 3119 1398 2916 
Q 1625 2713 2034 2713 
Q 2441 2713 2670 2916 
Q 2900 3119 2900 3481 
Q 2900 3844 2670 4047 
Q 2441 4250 2034 4250 
Q 1625 4250 1398 4047 
Q 1172 3844 1172 3481 
z
" id="DejaVuSans-38" transform="scale(0.015625)"/>
      </defs>
      <use xlink:href="#DejaVuSans-38"/>
     </g>
    </g>
   </g>
   <g id="text_6">
    <g clip-path="url(#p00f891b574)">
     <!-- 6 -->
     <g transform="translate(152.0944 454.429343)scale(0.112 -0.112)">
      <defs>
       <path d="M 2113 2584 
Q 1688 2584 1439 2293 
Q 1191 2003 1191 1497 
Q 1191 994 1439 701 
Q 1688 409 2113 409 
Q 2538 409 2786 701 
Q 3034 994 3034 1497 
Q 3034 2003 2786 2293 
Q 2538 2584 2113 2584 
z
M 3366 4563 
L 3366 3988 
Q 3128 4100 2886 4159 
Q 2644 4219 2406 4219 
Q 1781 4219 1451 3797 
Q 1122 3375 1075 2522 
Q 1259 2794 1537 2939 
Q 1816 3084 2150 3084 
Q 2853 3084 3261 2657 
Q 3669 2231 3669 1497 
Q 3669 778 3244 343 
Q 2819 -91 2113 -91 
Q 1303 -91 875 529 
Q 447 1150 447 2328 
Q 447 3434 972 4092 
Q 1497 4750 2381 4750 
Q 2619 4750 2861 4703 
Q 3103 4656 3366 4563 
z
" id="DejaVuSans-36" transform="scale(0.015625)"/>
      </defs>
      <use xlink:href="#DejaVuSans-36"/>
     </g>
    </g>
   </g>
   <g id="text_7">
    <g clip-path="url(#p00f891b574)">
     <!-- 17 -->
     <g transform="translate(307.569718 255.0905)scale(0.112 -0.112)">
      <defs>
       <path d="M 525 4666 
L 3525 4666 
L 3525 4397 
L 1831 0 
L 1172 0 
L 2766 4134 
L 525 4134 
L 525 4666 
z
" id="DejaVuSans-37" transform="scale(0.015625)"/>
      </defs>
      <use xlink:href="#DejaVuSans-31"/>
      <use x="63.623047" xlink:href="#DejaVuSans-37"/>
     </g>
    </g>
   </g>
   <g id="text_8">
    <g clip-path="url(#p00f891b574)">
     <!-- 19 -->
     <g transform="translate(334.076104 354.759921)scale(0.112 -0.112)">
      <use xlink:href="#DejaVuSans-31"/>
      <use x="63.623047" xlink:href="#DejaVuSans-39"/>
     </g>
    </g>
   </g>
   <g id="text_9">
    <g clip-path="url(#p00f891b574)">
     <!-- 21 -->
     <g transform="translate(387.088876 454.429343)scale(0.112 -0.112)">
      <use xlink:href="#DejaVuSans-32"/>
      <use x="63.623047" xlink:href="#DejaVuSans-31"/>
     </g>
    </g>
   </g>
   <g id="text_10">
    <g clip-path="url(#p00f891b574)">
     <!-- 22 -->
     <g transform="translate(413.595262 454.429343)scale(0.112 -0.112)">
      <use xlink:href="#DejaVuSans-32"/>
      <use x="63.623047" xlink:href="#DejaVuSans-32"/>
     </g>
    </g>
   </g>
   <g id="text_11">
    <g clip-path="url(#p00f891b574)">
     <!-- 23 -->
     <g transform="translate(440.101648 354.759921)scale(0.112 -0.112)">
      <use xlink:href="#DejaVuSans-32"/>
      <use x="63.623047" xlink:href="#DejaVuSans-33"/>
     </g>
    </g>
   </g>
   <g id="text_12">
    <g clip-path="url(#p00f891b574)">
     <!-- 27 -->
     <g transform="translate(546.127193 454.429343)scale(0.112 -0.112)">
      <use xlink:href="#DejaVuSans-32"/>
      <use x="63.623047" xlink:href="#DejaVuSans-37"/>
     </g>
    </g>
   </g>
   <g id="text_13">
    <g clip-path="url(#p00f891b574)">
     <!-- 28 -->
     <g transform="translate(572.633579 454.429343)scale(0.112 -0.112)">
      <use xlink:href="#DejaVuSans-32"/>
      <use x="63.623047" xlink:href="#DejaVuSans-38"/>
     </g>
    </g>
   </g>
   <g id="text_14">
    <g clip-path="url(#p00f891b574)">
     <!-- 26 -->
     <g transform="translate(519.620807 454.429343)scale(0.112 -0.112)">
      <use xlink:href="#DejaVuSans-32"/>
      <use x="63.623047" xlink:href="#DejaVuSans-36"/>
     </g>
    </g>
   </g>
   <g id="text_15">
    <g clip-path="url(#p00f891b574)">
     <!-- 25 -->
     <g transform="translate(493.114421 454.429343)scale(0.112 -0.112)">
      <defs>
       <path d="M 691 4666 
L 3169 4666 
L 3169 4134 
L 1269 4134 
L 1269 2991 
Q 1406 3038 1543 3061 
Q 1681 3084 1819 3084 
Q 2600 3084 3056 2656 
Q 3513 2228 3513 1497 
Q 3513 744 3044 326 
Q 2575 -91 1722 -91 
Q 1428 -91 1123 -41 
Q 819 9 494 109 
L 494 744 
Q 775 591 1075 516 
Q 1375 441 1709 441 
Q 2250 441 2565 725 
Q 2881 1009 2881 1497 
Q 2881 1984 2565 2268 
Q 2250 2553 1709 2553 
Q 1456 2553 1204 2497 
Q 953 2441 691 2322 
L 691 4666 
z
" id="DejaVuSans-35" transform="scale(0.015625)"/>
      </defs>
      <use xlink:href="#DejaVuSans-32"/>
      <use x="63.623047" xlink:href="#DejaVuSans-35"/>
     </g>
    </g>
   </g>
   <g id="text_16">
    <g clip-path="url(#p00f891b574)">
     <!-- 37 -->
     <g transform="translate(731.671896 454.429343)scale(0.112 -0.112)">
      <use xlink:href="#DejaVuSans-33"/>
      <use x="63.623047" xlink:href="#DejaVuSans-37"/>
     </g>
    </g>
   </g>
   <g id="text_17">
    <g clip-path="url(#p00f891b574)">
     <!-- 39 -->
     <g transform="translate(758.178282 454.429343)scale(0.112 -0.112)">
      <use xlink:href="#DejaVuSans-33"/>
      <use x="63.623047" xlink:href="#DejaVuSans-39"/>
     </g>
    </g>
   </g>
   <g id="text_18">
    <g clip-path="url(#p00f891b574)">
     <!-- 36 -->
     <g transform="translate(705.16551 454.429343)scale(0.112 -0.112)">
      <use xlink:href="#DejaVuSans-33"/>
      <use x="63.623047" xlink:href="#DejaVuSans-36"/>
     </g>
    </g>
   </g>
   <g id="text_19">
    <g clip-path="url(#p00f891b574)">
     <!-- 35 -->
     <g transform="translate(678.659124 454.429343)scale(0.112 -0.112)">
      <use xlink:href="#DejaVuSans-33"/>
      <use x="63.623047" xlink:href="#DejaVuSans-35"/>
     </g>
    </g>
   </g>
   <g id="text_20">
    <g clip-path="url(#p00f891b574)">
     <!-- 34 -->
     <g transform="translate(652.152738 354.759921)scale(0.112 -0.112)">
      <defs>
       <path d="M 2419 4116 
L 825 1625 
L 2419 1625 
L 2419 4116 
z
M 2253 4666 
L 3047 4666 
L 3047 1625 
L 3713 1625 
L 3713 1100 
L 3047 1100 
L 3047 0 
L 2419 0 
L 2419 1100 
L 313 1100 
L 313 1709 
L 2253 4666 
z
" id="DejaVuSans-34" transform="scale(0.015625)"/>
      </defs>
      <use xlink:href="#DejaVuSans-33"/>
      <use x="63.623047" xlink:href="#DejaVuSans-34"/>
     </g>
    </g>
   </g>
   <g id="text_21">
    <g clip-path="url(#p00f891b574)">
     <!-- 31 -->
     <g transform="translate(625.646352 454.429343)scale(0.112 -0.112)">
      <use xlink:href="#DejaVuSans-33"/>
      <use x="63.623047" xlink:href="#DejaVuSans-31"/>
     </g>
    </g>
   </g>
   <g id="text_22">
    <g clip-path="url(#p00f891b574)">
     <!-- 29 -->
     <g transform="translate(599.139965 354.759921)scale(0.112 -0.112)">
      <use xlink:href="#DejaVuSans-32"/>
      <use x="63.623047" xlink:href="#DejaVuSans-39"/>
     </g>
    </g>
   </g>
   <g id="text_23">
    <g clip-path="url(#p00f891b574)">
     <!-- 42 -->
     <g transform="translate(837.697441 354.759921)scale(0.112 -0.112)">
      <use xlink:href="#DejaVuSans-34"/>
      <use x="63.623047" xlink:href="#DejaVuSans-32"/>
     </g>
    </g>
   </g>
   <g id="text_24">
    <g clip-path="url(#p00f891b574)">
     <!-- 41 -->
     <g transform="translate(811.191055 454.429343)scale(0.112 -0.112)">
      <use xlink:href="#DejaVuSans-34"/>
      <use x="63.623047" xlink:href="#DejaVuSans-31"/>
     </g>
    </g>
   </g>
   <g id="text_25">
    <g clip-path="url(#p00f891b574)">
     <!-- 43 -->
     <g transform="translate(864.203827 454.429343)scale(0.112 -0.112)">
      <use xlink:href="#DejaVuSans-34"/>
      <use x="63.623047" xlink:href="#DejaVuSans-33"/>
     </g>
    </g>
   </g>
   <g id="text_26">
    <g clip-path="url(#p00f891b574)">
     <!-- 45 -->
     <g transform="translate(890.710213 255.0905)scale(0.112 -0.112)">
      <use xlink:href="#DejaVuSans-34"/>
      <use x="63.623047" xlink:href="#DejaVuSans-35"/>
     </g>
    </g>
   </g>
   <g id="text_27">
    <g clip-path="url(#p00f891b574)">
     <!-- 40 -->
     <g transform="translate(784.684669 255.0905)scale(0.112 -0.112)">
      <defs>
       <path d="M 2034 4250 
Q 1547 4250 1301 3770 
Q 1056 3291 1056 2328 
Q 1056 1369 1301 889 
Q 1547 409 2034 409 
Q 2525 409 2770 889 
Q 3016 1369 3016 2328 
Q 3016 3291 2770 3770 
Q 2525 4250 2034 4250 
z
M 2034 4750 
Q 2819 4750 3233 4129 
Q 3647 3509 3647 2328 
Q 3647 1150 3233 529 
Q 2819 -91 2034 -91 
Q 1250 -91 836 529 
Q 422 1150 422 2328 
Q 422 3509 836 4129 
Q 1250 4750 2034 4750 
z
" id="DejaVuSans-30" transform="scale(0.015625)"/>
      </defs>
      <use xlink:href="#DejaVuSans-34"/>
      <use x="63.623047" xlink:href="#DejaVuSans-30"/>
     </g>
    </g>
   </g>
   <g id="text_28">
    <g clip-path="url(#p00f891b574)">
     <!-- 24 -->
     <g transform="translate(466.608035 255.0905)scale(0.112 -0.112)">
      <use xlink:href="#DejaVuSans-32"/>
      <use x="63.623047" xlink:href="#DejaVuSans-34"/>
     </g>
    </g>
   </g>
   <g id="text_29">
    <g clip-path="url(#p00f891b574)">
     <!-- 48 -->
     <g transform="translate(943.722986 454.429343)scale(0.112 -0.112)">
      <use xlink:href="#DejaVuSans-34"/>
      <use x="63.623047" xlink:href="#DejaVuSans-38"/>
     </g>
    </g>
   </g>
   <g id="text_30">
    <g clip-path="url(#p00f891b574)">
     <!-- 50 -->
     <g transform="translate(970.229372 454.429343)scale(0.112 -0.112)">
      <use xlink:href="#DejaVuSans-35"/>
      <use x="63.623047" xlink:href="#DejaVuSans-30"/>
     </g>
    </g>
   </g>
   <g id="text_31">
    <g clip-path="url(#p00f891b574)">
     <!-- 47 -->
     <g transform="translate(917.2166 155.421079)scale(0.112 -0.112)">
      <use xlink:href="#DejaVuSans-34"/>
      <use x="63.623047" xlink:href="#DejaVuSans-37"/>
     </g>
    </g>
   </g>
   <g id="text_32">
    <g clip-path="url(#p00f891b574)">
     <!-- 20 -->
     <g transform="translate(360.58249 155.421079)scale(0.112 -0.112)">
      <use xlink:href="#DejaVuSans-32"/>
      <use x="63.623047" xlink:href="#DejaVuSans-30"/>
     </g>
    </g>
   </g>
   <g id="text_33">
    <g clip-path="url(#p00f891b574)">
     <!-- 1 -->
     <g transform="translate(125.588014 55.751657)scale(0.112 -0.112)">
      <use xlink:href="#DejaVuSans-31"/>
     </g>
    </g>
   </g>
   <g id="text_34">
    <g clip-path="url(#p00f891b574)">
     <!-- 0 -->
     <g transform="translate(99.081628 354.759921)scale(0.112 -0.112)">
      <use xlink:href="#DejaVuSans-30"/>
     </g>
    </g>
   </g>
  </g>
 </g>
 <defs>
  <clipPath id="p00f891b574">
   <rect height="482.4" width="1058.4" x="10.8" y="10.8"/>
  </clipPath>
 </defs>
</svg>
