<?xml version="1.0" encoding="utf-8" standalone="no"?>
<!DOCTYPE svg PUBLIC "-//W3C//DTD SVG 1.1//EN"
  "http://www.w3.org/Graphics/SVG/1.1/DTD/svg11.dtd">
<svg height="504pt" version="1.1" viewBox="0 0 1080 504" width="1080pt" xmlns="http://www.w3.org/2000/svg" xmlns:xlink="http://www.w3.org/1999/xlink">
 <metadata>
  <rdf:RDF xmlns:cc="http://creativecommons.org/ns#" xmlns:dc="http://purl.org/dc/elements/1.1/" xmlns:rdf="http://www.w3.org/1999/02/22-rdf-syntax-ns#">
   <cc:Work>
    <dc:type rdf:resource="http://purl.org/dc/dcmitype/StillImage"/>
    <dc:date>2022-04-01T05:38:50.074273</dc:date>
    <dc:format>image/svg+xml</dc:format>
    <dc:creator>
     <cc:Agent>
      <dc:title>Matplotlib v3.4.3, https://matplotlib.org/</dc:title>
     </cc:Agent>
    </dc:creator>
   </cc:Work>
  </rdf:RDF>
 </metadata>
 <defs>
  <style type="text/css">*{stroke-linecap:butt;stroke-linejoin:round;}</style>
 </defs>
 <g id="figure_1">
  <g id="patch_1">
   <path d="M 0 504 
L 1080 504 
L 1080 0 
L 0 0 
z
" style="fill:#ffffff;"/>
  </g>
  <g id="axes_1">
   <g id="patch_2">
    <path d="M 10.8 493.2 
L 1069.2 493.2 
L 1069.2 10.8 
L 10.8 10.8 
z
" style="fill:#ffffff;"/>
   </g>
   <g id="patch_3">
    <path clip-path="url(#pa11086f4f3)" d="M 221.3364 451.338843 
Q 266.653197 451.338843 310.404746 451.338843 
" style="fill:none;stroke:#000000;stroke-linecap:round;stroke-width:1.4;"/>
    <path clip-path="url(#pa11086f4f3)" d="M 306.404746 449.338843 
L 310.404746 451.338843 
L 306.404746 453.338843 
L 306.404746 449.338843 
z
" style="stroke:#000000;stroke-linecap:round;stroke-width:1.4;"/>
   </g>
   <g id="patch_4">
    <path clip-path="url(#pa11086f4f3)" d="M 422.669625 323.302813 
Q 321.324171 384.891433 221.316335 445.667171 
" style="fill:none;stroke:#000000;stroke-linecap:round;stroke-width:1.4;"/>
    <path clip-path="url(#pa11086f4f3)" d="M 225.773289 445.298987 
L 221.316335 445.667171 
L 223.695961 441.880697 
L 225.773289 445.298987 
z
" style="stroke:#000000;stroke-linecap:round;stroke-width:1.4;"/>
   </g>
   <g id="patch_5">
    <path clip-path="url(#pa11086f4f3)" d="M 436.605589 325.67126 
Q 485.332035 384.894333 533.063996 442.908688 
" style="fill:none;stroke:#000000;stroke-linecap:round;stroke-width:1.4;"/>
    <path clip-path="url(#pa11086f4f3)" d="M 532.067024 438.549096 
L 533.063996 442.908688 
L 528.978138 441.09051 
L 532.067024 438.549096 
z
" style="stroke:#000000;stroke-linecap:round;stroke-width:1.4;"/>
   </g>
   <g id="patch_6">
    <path clip-path="url(#pa11086f4f3)" d="M 111.996723 318.446281 
Q 266.65371 318.446281 419.74545 318.446281 
" style="fill:none;stroke:#000000;stroke-linecap:round;stroke-width:1.4;"/>
    <path clip-path="url(#pa11086f4f3)" d="M 415.74545 316.446281 
L 419.74545 318.446281 
L 415.74545 320.446281 
L 415.74545 316.446281 
z
" style="stroke:#000000;stroke-linecap:round;stroke-width:1.4;"/>
   </g>
   <g id="patch_7">
    <path clip-path="url(#pa11086f4f3)" d="M 864.457878 194.204227 
Q 813.347303 318.445807 762.832219 441.239841 
" style="fill:none;stroke:#000000;stroke-linecap:round;stroke-width:1.4;"/>
    <path clip-path="url(#pa11086f4f3)" d="M 766.20361 438.301521 
L 762.832219 441.239841 
L 762.504397 436.779736 
L 766.20361 438.301521 
z
" style="stroke:#000000;stroke-linecap:round;stroke-width:1.4;"/>
   </g>
   <g id="patch_8">
    <path clip-path="url(#pa11086f4f3)" d="M 640.250352 187.762985 
Q 375.99412 251.99942 113.258845 315.866136 
" style="fill:none;stroke:#000000;stroke-linecap:round;stroke-width:1.4;"/>
    <path clip-path="url(#pa11086f4f3)" d="M 117.618068 316.86472 
L 113.258845 315.866136 
L 116.673247 312.977908 
L 117.618068 316.86472 
z
" style="stroke:#000000;stroke-linecap:round;stroke-width:1.4;"/>
   </g>
   <g id="patch_9">
    <path clip-path="url(#pa11086f4f3)" d="M 658.691772 185.553719 
Q 758.676475 185.553719 857.095931 185.553719 
" style="fill:none;stroke:#000000;stroke-linecap:round;stroke-width:1.4;"/>
    <path clip-path="url(#pa11086f4f3)" d="M 853.095931 183.553719 
L 857.095931 185.553719 
L 853.095931 187.553719 
L 853.095931 183.553719 
z
" style="stroke:#000000;stroke-linecap:round;stroke-width:1.4;"/>
   </g>
   <g id="patch_10">
    <path clip-path="url(#pa11086f4f3)" d="M 968.683975 56.174285 
Q 813.347001 119.107481 659.460737 181.452937 
" style="fill:none;stroke:#000000;stroke-linecap:round;stroke-width:1.4;"/>
    <path clip-path="url(#pa11086f4f3)" d="M 663.919024 181.804612 
L 659.460737 181.452937 
L 662.417049 178.097312 
L 663.919024 181.804612 
z
" style="stroke:#000000;stroke-linecap:round;stroke-width:1.4;"/>
   </g>
   <g id="matplotlib.axis_1">
    <g id="xtick_1"/>
    <g id="xtick_2"/>
    <g id="xtick_3"/>
    <g id="xtick_4"/>
    <g id="xtick_5"/>
   </g>
   <g id="matplotlib.axis_2">
    <g id="ytick_1"/>
    <g id="ytick_2"/>
    <g id="ytick_3"/>
    <g id="ytick_4"/>
    <g id="ytick_5"/>
    <g id="ytick_6"/>
    <g id="ytick_7"/>
   </g>
   <g id="PathCollection_1">
    <defs>
     <path d="M 0 9.354143 
C 2.480748 9.354143 4.860225 8.368532 6.614378 6.614378 
C 8.368532 4.860225 9.354143 2.480748 9.354143 0 
C 9.354143 -2.480748 8.368532 -4.860225 6.614378 -6.614378 
C 4.860225 -8.368532 2.480748 -9.354143 0 -9.354143 
C -2.480748 -9.354143 -4.860225 -8.368532 -6.614378 -6.614378 
C -8.368532 -4.860225 -9.354143 -2.480748 -9.354143 0 
C -9.354143 2.480748 -8.368532 4.860225 -6.614378 6.614378 
C -4.860225 8.368532 -2.480748 9.354143 0 9.354143 
z
" id="me0fb81b657" style="stroke:#000000;stroke-width:1.4;"/>
    </defs>
    <g clip-path="url(#pa11086f4f3)">
     <use style="fill:#ffffff;stroke:#000000;stroke-width:1.4;" x="211.983471" xlink:href="#me0fb81b657" y="451.338843"/>
     <use style="fill:#ffffff;stroke:#000000;stroke-width:1.4;" x="321.322314" xlink:href="#me0fb81b657" y="451.338843"/>
     <use style="fill:#ffffff;stroke:#000000;stroke-width:1.4;" x="430.661157" xlink:href="#me0fb81b657" y="318.446281"/>
     <use style="fill:#ffffff;stroke:#000000;stroke-width:1.4;" x="540" xlink:href="#me0fb81b657" y="451.338843"/>
     <use style="fill:#ffffff;stroke:#000000;stroke-width:1.4;" x="102.644628" xlink:href="#me0fb81b657" y="318.446281"/>
     <use style="fill:#ffffff;stroke:#000000;stroke-width:1.4;" x="868.016529" xlink:href="#me0fb81b657" y="185.553719"/>
     <use style="fill:#ffffff;stroke:#000000;stroke-width:1.4;" x="758.677686" xlink:href="#me0fb81b657" y="451.338843"/>
     <use style="fill:#ffffff;stroke:#000000;stroke-width:1.4;" x="649.338843" xlink:href="#me0fb81b657" y="185.553719"/>
     <use style="fill:#ffffff;stroke:#000000;stroke-width:1.4;" x="977.355372" xlink:href="#me0fb81b657" y="52.661157"/>
    </g>
   </g>
   <g id="patch_11">
    <path d="M 10.8 493.2 
L 10.8 10.8 
" style="fill:none;stroke:#000000;stroke-linecap:square;stroke-linejoin:miter;stroke-width:0.8;"/>
   </g>
   <g id="patch_12">
    <path d="M 1069.2 493.2 
L 1069.2 10.8 
" style="fill:none;stroke:#000000;stroke-linecap:square;stroke-linejoin:miter;stroke-width:0.8;"/>
   </g>
   <g id="patch_13">
    <path d="M 10.8 493.2 
L 1069.2 493.2 
" style="fill:none;stroke:#000000;stroke-linecap:square;stroke-linejoin:miter;stroke-width:0.8;"/>
   </g>
   <g id="patch_14">
    <path d="M 10.8 10.8 
L 1069.2 10.8 
" style="fill:none;stroke:#000000;stroke-linecap:square;stroke-linejoin:miter;stroke-width:0.8;"/>
   </g>
   <g id="text_1">
    <g clip-path="url(#pa11086f4f3)">
     <!-- 2 -->
     <g transform="translate(208.420471 454.429343)scale(0.112 -0.112)">
      <defs>
       <path d="M 1228 531 
L 3431 531 
L 3431 0 
L 469 0 
L 469 531 
Q 828 903 1448 1529 
Q 2069 2156 2228 2338 
Q 2531 2678 2651 2914 
Q 2772 3150 2772 3378 
Q 2772 3750 2511 3984 
Q 2250 4219 1831 4219 
Q 1534 4219 1204 4116 
Q 875 4013 500 3803 
L 500 4441 
Q 881 4594 1212 4672 
Q 1544 4750 1819 4750 
Q 2544 4750 2975 4387 
Q 3406 4025 3406 3419 
Q 3406 3131 3298 2873 
Q 3191 2616 2906 2266 
Q 2828 2175 2409 1742 
Q 1991 1309 1228 531 
z
" id="DejaVuSans-32" transform="scale(0.015625)"/>
      </defs>
      <use xlink:href="#DejaVuSans-32"/>
     </g>
    </g>
   </g>
   <g id="text_2">
    <g clip-path="url(#pa11086f4f3)">
     <!-- 4 -->
     <g transform="translate(317.759314 454.429343)scale(0.112 -0.112)">
      <defs>
       <path d="M 2419 4116 
L 825 1625 
L 2419 1625 
L 2419 4116 
z
M 2253 4666 
L 3047 4666 
L 3047 1625 
L 3713 1625 
L 3713 1100 
L 3047 1100 
L 3047 0 
L 2419 0 
L 2419 1100 
L 313 1100 
L 313 1709 
L 2253 4666 
z
" id="DejaVuSans-34" transform="scale(0.015625)"/>
      </defs>
      <use xlink:href="#DejaVuSans-34"/>
     </g>
    </g>
   </g>
   <g id="text_3">
    <g clip-path="url(#pa11086f4f3)">
     <!-- 5 -->
     <g transform="translate(427.098157 321.536781)scale(0.112 -0.112)">
      <defs>
       <path d="M 691 4666 
L 3169 4666 
L 3169 4134 
L 1269 4134 
L 1269 2991 
Q 1406 3038 1543 3061 
Q 1681 3084 1819 3084 
Q 2600 3084 3056 2656 
Q 3513 2228 3513 1497 
Q 3513 744 3044 326 
Q 2575 -91 1722 -91 
Q 1428 -91 1123 -41 
Q 819 9 494 109 
L 494 744 
Q 775 591 1075 516 
Q 1375 441 1709 441 
Q 2250 441 2565 725 
Q 2881 1009 2881 1497 
Q 2881 1984 2565 2268 
Q 2250 2553 1709 2553 
Q 1456 2553 1204 2497 
Q 953 2441 691 2322 
L 691 4666 
z
" id="DejaVuSans-35" transform="scale(0.015625)"/>
      </defs>
      <use xlink:href="#DejaVuSans-35"/>
     </g>
    </g>
   </g>
   <g id="text_4">
    <g clip-path="url(#pa11086f4f3)">
     <!-- 9 -->
     <g transform="translate(536.437 454.429343)scale(0.112 -0.112)">
      <defs>
       <path d="M 703 97 
L 703 672 
Q 941 559 1184 500 
Q 1428 441 1663 441 
Q 2288 441 2617 861 
Q 2947 1281 2994 2138 
Q 2813 1869 2534 1725 
Q 2256 1581 1919 1581 
Q 1219 1581 811 2004 
Q 403 2428 403 3163 
Q 403 3881 828 4315 
Q 1253 4750 1959 4750 
Q 2769 4750 3195 4129 
Q 3622 3509 3622 2328 
Q 3622 1225 3098 567 
Q 2575 -91 1691 -91 
Q 1453 -91 1209 -44 
Q 966 3 703 97 
z
M 1959 2075 
Q 2384 2075 2632 2365 
Q 2881 2656 2881 3163 
Q 2881 3666 2632 3958 
Q 2384 4250 1959 4250 
Q 1534 4250 1286 3958 
Q 1038 3666 1038 3163 
Q 1038 2656 1286 2365 
Q 1534 2075 1959 2075 
z
" id="DejaVuSans-39" transform="scale(0.015625)"/>
      </defs>
      <use xlink:href="#DejaVuSans-39"/>
     </g>
    </g>
   </g>
   <g id="text_5">
    <g clip-path="url(#pa11086f4f3)">
     <!-- 0 -->
     <g transform="translate(99.081628 321.536781)scale(0.112 -0.112)">
      <defs>
       <path d="M 2034 4250 
Q 1547 4250 1301 3770 
Q 1056 3291 1056 2328 
Q 1056 1369 1301 889 
Q 1547 409 2034 409 
Q 2525 409 2770 889 
Q 3016 1369 3016 2328 
Q 3016 3291 2770 3770 
Q 2525 4250 2034 4250 
z
M 2034 4750 
Q 2819 4750 3233 4129 
Q 3647 3509 3647 2328 
Q 3647 1150 3233 529 
Q 2819 -91 2034 -91 
Q 1250 -91 836 529 
Q 422 1150 422 2328 
Q 422 3509 836 4129 
Q 1250 4750 2034 4750 
z
" id="DejaVuSans-30" transform="scale(0.015625)"/>
      </defs>
      <use xlink:href="#DejaVuSans-30"/>
     </g>
    </g>
   </g>
   <g id="text_6">
    <g clip-path="url(#pa11086f4f3)">
     <!-- 18 -->
     <g transform="translate(860.890529 188.644219)scale(0.112 -0.112)">
      <defs>
       <path d="M 794 531 
L 1825 531 
L 1825 4091 
L 703 3866 
L 703 4441 
L 1819 4666 
L 2450 4666 
L 2450 531 
L 3481 531 
L 3481 0 
L 794 0 
L 794 531 
z
" id="DejaVuSans-31" transform="scale(0.015625)"/>
       <path d="M 2034 2216 
Q 1584 2216 1326 1975 
Q 1069 1734 1069 1313 
Q 1069 891 1326 650 
Q 1584 409 2034 409 
Q 2484 409 2743 651 
Q 3003 894 3003 1313 
Q 3003 1734 2745 1975 
Q 2488 2216 2034 2216 
z
M 1403 2484 
Q 997 2584 770 2862 
Q 544 3141 544 3541 
Q 544 4100 942 4425 
Q 1341 4750 2034 4750 
Q 2731 4750 3128 4425 
Q 3525 4100 3525 3541 
Q 3525 3141 3298 2862 
Q 3072 2584 2669 2484 
Q 3125 2378 3379 2068 
Q 3634 1759 3634 1313 
Q 3634 634 3220 271 
Q 2806 -91 2034 -91 
Q 1263 -91 848 271 
Q 434 634 434 1313 
Q 434 1759 690 2068 
Q 947 2378 1403 2484 
z
M 1172 3481 
Q 1172 3119 1398 2916 
Q 1625 2713 2034 2713 
Q 2441 2713 2670 2916 
Q 2900 3119 2900 3481 
Q 2900 3844 2670 4047 
Q 2441 4250 2034 4250 
Q 1625 4250 1398 4047 
Q 1172 3844 1172 3481 
z
" id="DejaVuSans-38" transform="scale(0.015625)"/>
      </defs>
      <use xlink:href="#DejaVuSans-31"/>
      <use x="63.623047" xlink:href="#DejaVuSans-38"/>
     </g>
    </g>
   </g>
   <g id="text_7">
    <g clip-path="url(#pa11086f4f3)">
     <!-- 17 -->
     <g transform="translate(751.551686 454.429343)scale(0.112 -0.112)">
      <defs>
       <path d="M 525 4666 
L 3525 4666 
L 3525 4397 
L 1831 0 
L 1172 0 
L 2766 4134 
L 525 4134 
L 525 4666 
z
" id="DejaVuSans-37" transform="scale(0.015625)"/>
      </defs>
      <use xlink:href="#DejaVuSans-31"/>
      <use x="63.623047" xlink:href="#DejaVuSans-37"/>
     </g>
    </g>
   </g>
   <g id="text_8">
    <g clip-path="url(#pa11086f4f3)">
     <!-- 16 -->
     <g transform="translate(642.212843 188.644219)scale(0.112 -0.112)">
      <defs>
       <path d="M 2113 2584 
Q 1688 2584 1439 2293 
Q 1191 2003 1191 1497 
Q 1191 994 1439 701 
Q 1688 409 2113 409 
Q 2538 409 2786 701 
Q 3034 994 3034 1497 
Q 3034 2003 2786 2293 
Q 2538 2584 2113 2584 
z
M 3366 4563 
L 3366 3988 
Q 3128 4100 2886 4159 
Q 2644 4219 2406 4219 
Q 1781 4219 1451 3797 
Q 1122 3375 1075 2522 
Q 1259 2794 1537 2939 
Q 1816 3084 2150 3084 
Q 2853 3084 3261 2657 
Q 3669 2231 3669 1497 
Q 3669 778 3244 343 
Q 2819 -91 2113 -91 
Q 1303 -91 875 529 
Q 447 1150 447 2328 
Q 447 3434 972 4092 
Q 1497 4750 2381 4750 
Q 2619 4750 2861 4703 
Q 3103 4656 3366 4563 
z
" id="DejaVuSans-36" transform="scale(0.015625)"/>
      </defs>
      <use xlink:href="#DejaVuSans-31"/>
      <use x="63.623047" xlink:href="#DejaVuSans-36"/>
     </g>
    </g>
   </g>
   <g id="text_9">
    <g clip-path="url(#pa11086f4f3)">
     <!-- 19 -->
     <g transform="translate(970.229372 55.751657)scale(0.112 -0.112)">
      <use xlink:href="#DejaVuSans-31"/>
      <use x="63.623047" xlink:href="#DejaVuSans-39"/>
     </g>
    </g>
   </g>
  </g>
 </g>
 <defs>
  <clipPath id="pa11086f4f3">
   <rect height="482.4" width="1058.4" x="10.8" y="10.8"/>
  </clipPath>
 </defs>
</svg>
