<?xml version="1.0" encoding="utf-8" standalone="no"?>
<!DOCTYPE svg PUBLIC "-//W3C//DTD SVG 1.1//EN"
  "http://www.w3.org/Graphics/SVG/1.1/DTD/svg11.dtd">
<svg height="504pt" version="1.1" viewBox="0 0 1080 504" width="1080pt" xmlns="http://www.w3.org/2000/svg" xmlns:xlink="http://www.w3.org/1999/xlink">
 <metadata>
  <rdf:RDF xmlns:cc="http://creativecommons.org/ns#" xmlns:dc="http://purl.org/dc/elements/1.1/" xmlns:rdf="http://www.w3.org/1999/02/22-rdf-syntax-ns#">
   <cc:Work>
    <dc:type rdf:resource="http://purl.org/dc/dcmitype/StillImage"/>
    <dc:date>2022-04-03T07:42:32.405892</dc:date>
    <dc:format>image/svg+xml</dc:format>
    <dc:creator>
     <cc:Agent>
      <dc:title>Matplotlib v3.4.3, https://matplotlib.org/</dc:title>
     </cc:Agent>
    </dc:creator>
   </cc:Work>
  </rdf:RDF>
 </metadata>
 <defs>
  <style type="text/css">*{stroke-linecap:butt;stroke-linejoin:round;}</style>
 </defs>
 <g id="figure_1">
  <g id="patch_1">
   <path d="M 0 504 
L 1080 504 
L 1080 0 
L 0 0 
z
" style="fill:#ffffff;"/>
  </g>
  <g id="axes_1">
   <g id="patch_2">
    <path d="M 10.8 493.2 
L 1069.2 493.2 
L 1069.2 10.8 
L 10.8 10.8 
z
" style="fill:#ffffff;"/>
   </g>
   <g id="LineCollection_1">
    <path clip-path="url(#p5459a76746)" d="M 102.644628 73.644193 
L 118.54846 73.644193 
" style="fill:none;stroke:#000000;stroke-width:0.4;"/>
    <path clip-path="url(#p5459a76746)" d="M 102.644628 73.644193 
L 134.452292 52.661157 
" style="fill:none;stroke:#000000;stroke-width:0.4;"/>
    <path clip-path="url(#p5459a76746)" d="M 213.97145 178.559374 
L 229.875282 178.559374 
" style="fill:none;stroke:#000000;stroke-width:0.4;"/>
    <path clip-path="url(#p5459a76746)" d="M 213.97145 178.559374 
L 198.067618 178.559374 
" style="fill:none;stroke:#000000;stroke-width:0.4;"/>
    <path clip-path="url(#p5459a76746)" d="M 198.067618 178.559374 
L 182.163787 178.559374 
" style="fill:none;stroke:#000000;stroke-width:0.4;"/>
    <path clip-path="url(#p5459a76746)" d="M 182.163787 178.559374 
L 245.779113 157.576338 
" style="fill:none;stroke:#000000;stroke-width:0.4;"/>
    <path clip-path="url(#p5459a76746)" d="M 309.39444 451.338843 
L 325.298272 451.338843 
" style="fill:none;stroke:#000000;stroke-width:0.4;"/>
    <path clip-path="url(#p5459a76746)" d="M 309.39444 451.338843 
L 293.490609 451.338843 
" style="fill:none;stroke:#000000;stroke-width:0.4;"/>
    <path clip-path="url(#p5459a76746)" d="M 293.490609 451.338843 
L 341.202104 409.372771 
" style="fill:none;stroke:#000000;stroke-width:0.4;"/>
    <path clip-path="url(#p5459a76746)" d="M 420.721262 451.338843 
L 436.625094 451.338843 
" style="fill:none;stroke:#000000;stroke-width:0.4;"/>
    <path clip-path="url(#p5459a76746)" d="M 420.721262 451.338843 
L 404.817431 451.338843 
" style="fill:none;stroke:#000000;stroke-width:0.4;"/>
    <path clip-path="url(#p5459a76746)" d="M 404.817431 451.338843 
L 388.913599 451.338843 
" style="fill:none;stroke:#000000;stroke-width:0.4;"/>
    <path clip-path="url(#p5459a76746)" d="M 388.913599 451.338843 
L 452.528926 430.355807 
" style="fill:none;stroke:#000000;stroke-width:0.4;"/>
    <path clip-path="url(#p5459a76746)" d="M 468.432757 430.355807 
L 484.336589 430.355807 
" style="fill:none;stroke:#000000;stroke-width:0.4;"/>
    <path clip-path="url(#p5459a76746)" d="M 468.432757 430.355807 
L 452.528926 430.355807 
" style="fill:none;stroke:#000000;stroke-width:0.4;"/>
    <path clip-path="url(#p5459a76746)" d="M 452.528926 430.355807 
L 500.240421 409.372771 
" style="fill:none;stroke:#000000;stroke-width:0.4;"/>
    <path clip-path="url(#p5459a76746)" d="M 516.144252 409.372771 
L 532.048084 409.372771 
" style="fill:none;stroke:#000000;stroke-width:0.4;"/>
    <path clip-path="url(#p5459a76746)" d="M 516.144252 409.372771 
L 500.240421 409.372771 
" style="fill:none;stroke:#000000;stroke-width:0.4;"/>
    <path clip-path="url(#p5459a76746)" d="M 500.240421 409.372771 
L 373.009767 409.372771 
" style="fill:none;stroke:#000000;stroke-width:0.4;"/>
    <path clip-path="url(#p5459a76746)" d="M 373.009767 409.372771 
L 357.105935 430.355807 
" style="fill:none;stroke:#000000;stroke-width:0.4;"/>
    <path clip-path="url(#p5459a76746)" d="M 373.009767 409.372771 
L 341.202104 409.372771 
" style="fill:none;stroke:#000000;stroke-width:0.4;"/>
    <path clip-path="url(#p5459a76746)" d="M 341.202104 409.372771 
L 547.951916 388.389735 
" style="fill:none;stroke:#000000;stroke-width:0.4;"/>
    <path clip-path="url(#p5459a76746)" d="M 627.471074 388.389735 
L 643.374906 388.389735 
" style="fill:none;stroke:#000000;stroke-width:0.4;"/>
    <path clip-path="url(#p5459a76746)" d="M 627.471074 388.389735 
L 611.567243 388.389735 
" style="fill:none;stroke:#000000;stroke-width:0.4;"/>
    <path clip-path="url(#p5459a76746)" d="M 611.567243 388.389735 
L 595.663411 388.389735 
" style="fill:none;stroke:#000000;stroke-width:0.4;"/>
    <path clip-path="url(#p5459a76746)" d="M 595.663411 388.389735 
L 579.759579 388.389735 
" style="fill:none;stroke:#000000;stroke-width:0.4;"/>
    <path clip-path="url(#p5459a76746)" d="M 579.759579 388.389735 
L 563.855748 388.389735 
" style="fill:none;stroke:#000000;stroke-width:0.4;"/>
    <path clip-path="url(#p5459a76746)" d="M 563.855748 388.389735 
L 547.951916 388.389735 
" style="fill:none;stroke:#000000;stroke-width:0.4;"/>
    <path clip-path="url(#p5459a76746)" d="M 547.951916 388.389735 
L 659.278738 346.423662 
" style="fill:none;stroke:#000000;stroke-width:0.4;"/>
    <path clip-path="url(#p5459a76746)" d="M 691.086401 346.423662 
L 706.990233 346.423662 
" style="fill:none;stroke:#000000;stroke-width:0.4;"/>
    <path clip-path="url(#p5459a76746)" d="M 691.086401 346.423662 
L 675.182569 346.423662 
" style="fill:none;stroke:#000000;stroke-width:0.4;"/>
    <path clip-path="url(#p5459a76746)" d="M 675.182569 346.423662 
L 659.278738 346.423662 
" style="fill:none;stroke:#000000;stroke-width:0.4;"/>
    <path clip-path="url(#p5459a76746)" d="M 659.278738 346.423662 
L 722.894065 325.440626 
" style="fill:none;stroke:#000000;stroke-width:0.4;"/>
    <path clip-path="url(#p5459a76746)" d="M 722.894065 325.440626 
L 738.797896 346.423662 
" style="fill:none;stroke:#000000;stroke-width:0.4;"/>
    <path clip-path="url(#p5459a76746)" d="M 722.894065 325.440626 
L 754.701728 262.491518 
" style="fill:none;stroke:#000000;stroke-width:0.4;"/>
    <path clip-path="url(#p5459a76746)" d="M 786.509391 262.491518 
L 802.413223 262.491518 
" style="fill:none;stroke:#000000;stroke-width:0.4;"/>
    <path clip-path="url(#p5459a76746)" d="M 786.509391 262.491518 
L 770.60556 262.491518 
" style="fill:none;stroke:#000000;stroke-width:0.4;"/>
    <path clip-path="url(#p5459a76746)" d="M 770.60556 262.491518 
L 754.701728 262.491518 
" style="fill:none;stroke:#000000;stroke-width:0.4;"/>
    <path clip-path="url(#p5459a76746)" d="M 754.701728 262.491518 
L 277.586777 262.491518 
" style="fill:none;stroke:#000000;stroke-width:0.4;"/>
    <path clip-path="url(#p5459a76746)" d="M 277.586777 262.491518 
L 261.682945 283.474554 
" style="fill:none;stroke:#000000;stroke-width:0.4;"/>
    <path clip-path="url(#p5459a76746)" d="M 277.586777 262.491518 
L 818.317055 199.54241 
" style="fill:none;stroke:#000000;stroke-width:0.4;"/>
    <path clip-path="url(#p5459a76746)" d="M 818.317055 199.54241 
L 834.220887 199.54241 
" style="fill:none;stroke:#000000;stroke-width:0.4;"/>
    <path clip-path="url(#p5459a76746)" d="M 818.317055 199.54241 
L 850.124718 178.559374 
" style="fill:none;stroke:#000000;stroke-width:0.4;"/>
    <path clip-path="url(#p5459a76746)" d="M 866.02855 220.525446 
L 881.932382 220.525446 
" style="fill:none;stroke:#000000;stroke-width:0.4;"/>
    <path clip-path="url(#p5459a76746)" d="M 866.02855 220.525446 
L 850.124718 178.559374 
" style="fill:none;stroke:#000000;stroke-width:0.4;"/>
    <path clip-path="url(#p5459a76746)" d="M 850.124718 178.559374 
L 245.779113 157.576338 
" style="fill:none;stroke:#000000;stroke-width:0.4;"/>
    <path clip-path="url(#p5459a76746)" d="M 245.779113 157.576338 
L 897.836213 115.610265 
" style="fill:none;stroke:#000000;stroke-width:0.4;"/>
    <path clip-path="url(#p5459a76746)" d="M 897.836213 115.610265 
L 913.740045 136.593301 
" style="fill:none;stroke:#000000;stroke-width:0.4;"/>
    <path clip-path="url(#p5459a76746)" d="M 897.836213 115.610265 
L 929.643877 94.627229 
" style="fill:none;stroke:#000000;stroke-width:0.4;"/>
    <path clip-path="url(#p5459a76746)" d="M 961.45154 115.610265 
L 977.355372 115.610265 
" style="fill:none;stroke:#000000;stroke-width:0.4;"/>
    <path clip-path="url(#p5459a76746)" d="M 961.45154 115.610265 
L 945.547708 115.610265 
" style="fill:none;stroke:#000000;stroke-width:0.4;"/>
    <path clip-path="url(#p5459a76746)" d="M 945.547708 115.610265 
L 929.643877 94.627229 
" style="fill:none;stroke:#000000;stroke-width:0.4;"/>
    <path clip-path="url(#p5459a76746)" d="M 929.643877 94.627229 
L 166.259955 73.644193 
" style="fill:none;stroke:#000000;stroke-width:0.4;"/>
    <path clip-path="url(#p5459a76746)" d="M 166.259955 73.644193 
L 150.356123 94.627229 
" style="fill:none;stroke:#000000;stroke-width:0.4;"/>
    <path clip-path="url(#p5459a76746)" d="M 166.259955 73.644193 
L 134.452292 52.661157 
" style="fill:none;stroke:#000000;stroke-width:0.4;"/>
   </g>
   <g id="matplotlib.axis_1">
    <g id="xtick_1"/>
    <g id="xtick_2"/>
    <g id="xtick_3"/>
    <g id="xtick_4"/>
    <g id="xtick_5"/>
    <g id="xtick_6"/>
    <g id="xtick_7"/>
   </g>
   <g id="matplotlib.axis_2">
    <g id="ytick_1"/>
    <g id="ytick_2"/>
    <g id="ytick_3"/>
    <g id="ytick_4"/>
    <g id="ytick_5"/>
   </g>
   <g id="PathCollection_1">
    <path clip-path="url(#p5459a76746)" d="M 102.644628 77.179727 
C 103.582263 77.179727 104.48162 76.807201 105.144628 76.144193 
C 105.807636 75.481185 106.180162 74.581828 106.180162 73.644193 
C 106.180162 72.706559 105.807636 71.807201 105.144628 71.144193 
C 104.48162 70.481185 103.582263 70.108659 102.644628 70.108659 
C 101.706994 70.108659 100.807636 70.481185 100.144628 71.144193 
C 99.48162 71.807201 99.109094 72.706559 99.109094 73.644193 
C 99.109094 74.581828 99.48162 75.481185 100.144628 76.144193 
C 100.807636 76.807201 101.706994 77.179727 102.644628 77.179727 
z
" style="fill:#808080;stroke:#000000;stroke-width:0.4;"/>
    <path clip-path="url(#p5459a76746)" d="M 118.54846 77.179727 
C 119.486094 77.179727 120.385452 76.807201 121.04846 76.144193 
C 121.711468 75.481185 122.083994 74.581828 122.083994 73.644193 
C 122.083994 72.706559 121.711468 71.807201 121.04846 71.144193 
C 120.385452 70.481185 119.486094 70.108659 118.54846 70.108659 
C 117.610825 70.108659 116.711468 70.481185 116.04846 71.144193 
C 115.385452 71.807201 115.012926 72.706559 115.012926 73.644193 
C 115.012926 74.581828 115.385452 75.481185 116.04846 76.144193 
C 116.711468 76.807201 117.610825 77.179727 118.54846 77.179727 
z
" style="fill:#808080;stroke:#000000;stroke-width:0.4;"/>
    <path clip-path="url(#p5459a76746)" d="M 213.97145 182.094908 
C 214.909085 182.094908 215.808442 181.722381 216.47145 181.059374 
C 217.134458 180.396366 217.506984 179.497008 217.506984 178.559374 
C 217.506984 177.621739 217.134458 176.722381 216.47145 176.059374 
C 215.808442 175.396366 214.909085 175.02384 213.97145 175.02384 
C 213.033815 175.02384 212.134458 175.396366 211.47145 176.059374 
C 210.808442 176.722381 210.435916 177.621739 210.435916 178.559374 
C 210.435916 179.497008 210.808442 180.396366 211.47145 181.059374 
C 212.134458 181.722381 213.033815 182.094908 213.97145 182.094908 
z
" style="fill:#808080;stroke:#000000;stroke-width:0.4;"/>
    <path clip-path="url(#p5459a76746)" d="M 229.875282 182.094908 
C 230.812916 182.094908 231.712274 181.722381 232.375282 181.059374 
C 233.038289 180.396366 233.410816 179.497008 233.410816 178.559374 
C 233.410816 177.621739 233.038289 176.722381 232.375282 176.059374 
C 231.712274 175.396366 230.812916 175.02384 229.875282 175.02384 
C 228.937647 175.02384 228.038289 175.396366 227.375282 176.059374 
C 226.712274 176.722381 226.339748 177.621739 226.339748 178.559374 
C 226.339748 179.497008 226.712274 180.396366 227.375282 181.059374 
C 228.038289 181.722381 228.937647 182.094908 229.875282 182.094908 
z
" style="fill:#808080;stroke:#000000;stroke-width:0.4;"/>
    <path clip-path="url(#p5459a76746)" d="M 198.067618 182.094908 
C 199.005253 182.094908 199.904611 181.722381 200.567618 181.059374 
C 201.230626 180.396366 201.603152 179.497008 201.603152 178.559374 
C 201.603152 177.621739 201.230626 176.722381 200.567618 176.059374 
C 199.904611 175.396366 199.005253 175.02384 198.067618 175.02384 
C 197.129984 175.02384 196.230626 175.396366 195.567618 176.059374 
C 194.904611 176.722381 194.532084 177.621739 194.532084 178.559374 
C 194.532084 179.497008 194.904611 180.396366 195.567618 181.059374 
C 196.230626 181.722381 197.129984 182.094908 198.067618 182.094908 
z
" style="fill:#808080;stroke:#000000;stroke-width:0.4;"/>
    <path clip-path="url(#p5459a76746)" d="M 182.163787 182.094908 
C 183.101421 182.094908 184.000779 181.722381 184.663787 181.059374 
C 185.326794 180.396366 185.699321 179.497008 185.699321 178.559374 
C 185.699321 177.621739 185.326794 176.722381 184.663787 176.059374 
C 184.000779 175.396366 183.101421 175.02384 182.163787 175.02384 
C 181.226152 175.02384 180.326794 175.396366 179.663787 176.059374 
C 179.000779 176.722381 178.628253 177.621739 178.628253 178.559374 
C 178.628253 179.497008 179.000779 180.396366 179.663787 181.059374 
C 180.326794 181.722381 181.226152 182.094908 182.163787 182.094908 
z
" style="fill:#808080;stroke:#000000;stroke-width:0.4;"/>
    <path clip-path="url(#p5459a76746)" d="M 309.39444 454.874377 
C 310.332075 454.874377 311.231433 454.501851 311.89444 453.838843 
C 312.557448 453.175835 312.929974 452.276478 312.929974 451.338843 
C 312.929974 450.401208 312.557448 449.501851 311.89444 448.838843 
C 311.231433 448.175835 310.332075 447.803309 309.39444 447.803309 
C 308.456806 447.803309 307.557448 448.175835 306.89444 448.838843 
C 306.231433 449.501851 305.858906 450.401208 305.858906 451.338843 
C 305.858906 452.276478 306.231433 453.175835 306.89444 453.838843 
C 307.557448 454.501851 308.456806 454.874377 309.39444 454.874377 
z
" style="fill:#808080;stroke:#000000;stroke-width:0.4;"/>
    <path clip-path="url(#p5459a76746)" d="M 325.298272 454.874377 
C 326.235907 454.874377 327.135264 454.501851 327.798272 453.838843 
C 328.46128 453.175835 328.833806 452.276478 328.833806 451.338843 
C 328.833806 450.401208 328.46128 449.501851 327.798272 448.838843 
C 327.135264 448.175835 326.235907 447.803309 325.298272 447.803309 
C 324.360637 447.803309 323.46128 448.175835 322.798272 448.838843 
C 322.135264 449.501851 321.762738 450.401208 321.762738 451.338843 
C 321.762738 452.276478 322.135264 453.175835 322.798272 453.838843 
C 323.46128 454.501851 324.360637 454.874377 325.298272 454.874377 
z
" style="fill:#808080;stroke:#000000;stroke-width:0.4;"/>
    <path clip-path="url(#p5459a76746)" d="M 293.490609 454.874377 
C 294.428243 454.874377 295.327601 454.501851 295.990609 453.838843 
C 296.653616 453.175835 297.026142 452.276478 297.026142 451.338843 
C 297.026142 450.401208 296.653616 449.501851 295.990609 448.838843 
C 295.327601 448.175835 294.428243 447.803309 293.490609 447.803309 
C 292.552974 447.803309 291.653616 448.175835 290.990609 448.838843 
C 290.327601 449.501851 289.955075 450.401208 289.955075 451.338843 
C 289.955075 452.276478 290.327601 453.175835 290.990609 453.838843 
C 291.653616 454.501851 292.552974 454.874377 293.490609 454.874377 
z
" style="fill:#808080;stroke:#000000;stroke-width:0.4;"/>
    <path clip-path="url(#p5459a76746)" d="M 420.721262 454.874377 
C 421.658897 454.874377 422.558254 454.501851 423.221262 453.838843 
C 423.88427 453.175835 424.256796 452.276478 424.256796 451.338843 
C 424.256796 450.401208 423.88427 449.501851 423.221262 448.838843 
C 422.558254 448.175835 421.658897 447.803309 420.721262 447.803309 
C 419.783628 447.803309 418.88427 448.175835 418.221262 448.838843 
C 417.558254 449.501851 417.185728 450.401208 417.185728 451.338843 
C 417.185728 452.276478 417.558254 453.175835 418.221262 453.838843 
C 418.88427 454.501851 419.783628 454.874377 420.721262 454.874377 
z
" style="fill:#808080;stroke:#000000;stroke-width:0.4;"/>
    <path clip-path="url(#p5459a76746)" d="M 436.625094 454.874377 
C 437.562728 454.874377 438.462086 454.501851 439.125094 453.838843 
C 439.788102 453.175835 440.160628 452.276478 440.160628 451.338843 
C 440.160628 450.401208 439.788102 449.501851 439.125094 448.838843 
C 438.462086 448.175835 437.562728 447.803309 436.625094 447.803309 
C 435.687459 447.803309 434.788102 448.175835 434.125094 448.838843 
C 433.462086 449.501851 433.08956 450.401208 433.08956 451.338843 
C 433.08956 452.276478 433.462086 453.175835 434.125094 453.838843 
C 434.788102 454.501851 435.687459 454.874377 436.625094 454.874377 
z
" style="fill:#808080;stroke:#000000;stroke-width:0.4;"/>
    <path clip-path="url(#p5459a76746)" d="M 404.817431 454.874377 
C 405.755065 454.874377 406.654423 454.501851 407.317431 453.838843 
C 407.980438 453.175835 408.352964 452.276478 408.352964 451.338843 
C 408.352964 450.401208 407.980438 449.501851 407.317431 448.838843 
C 406.654423 448.175835 405.755065 447.803309 404.817431 447.803309 
C 403.879796 447.803309 402.980438 448.175835 402.317431 448.838843 
C 401.654423 449.501851 401.281897 450.401208 401.281897 451.338843 
C 401.281897 452.276478 401.654423 453.175835 402.317431 453.838843 
C 402.980438 454.501851 403.879796 454.874377 404.817431 454.874377 
z
" style="fill:#808080;stroke:#000000;stroke-width:0.4;"/>
    <path clip-path="url(#p5459a76746)" d="M 388.913599 456.338843 
C 390.239614 456.338843 391.511498 455.812011 392.449133 454.874377 
C 393.386767 453.936742 393.913599 452.664858 393.913599 451.338843 
C 393.913599 450.012827 393.386767 448.740944 392.449133 447.803309 
C 391.511498 446.865675 390.239614 446.338843 388.913599 446.338843 
C 387.587583 446.338843 386.315699 446.865675 385.378065 447.803309 
C 384.44043 448.740944 383.913599 450.012827 383.913599 451.338843 
C 383.913599 452.664858 384.44043 453.936742 385.378065 454.874377 
C 386.315699 455.812011 387.587583 456.338843 388.913599 456.338843 
z
" style="stroke:#000000;stroke-width:0.4;"/>
    <path clip-path="url(#p5459a76746)" d="M 468.432757 433.891341 
C 469.370392 433.891341 470.26975 433.518815 470.932757 432.855807 
C 471.595765 432.192799 471.968291 431.293441 471.968291 430.355807 
C 471.968291 429.418172 471.595765 428.518815 470.932757 427.855807 
C 470.26975 427.192799 469.370392 426.820273 468.432757 426.820273 
C 467.495123 426.820273 466.595765 427.192799 465.932757 427.855807 
C 465.26975 428.518815 464.897223 429.418172 464.897223 430.355807 
C 464.897223 431.293441 465.26975 432.192799 465.932757 432.855807 
C 466.595765 433.518815 467.495123 433.891341 468.432757 433.891341 
z
" style="fill:#808080;stroke:#000000;stroke-width:0.4;"/>
    <path clip-path="url(#p5459a76746)" d="M 484.336589 433.891341 
C 485.274224 433.891341 486.173581 433.518815 486.836589 432.855807 
C 487.499597 432.192799 487.872123 431.293441 487.872123 430.355807 
C 487.872123 429.418172 487.499597 428.518815 486.836589 427.855807 
C 486.173581 427.192799 485.274224 426.820273 484.336589 426.820273 
C 483.398954 426.820273 482.499597 427.192799 481.836589 427.855807 
C 481.173581 428.518815 480.801055 429.418172 480.801055 430.355807 
C 480.801055 431.293441 481.173581 432.192799 481.836589 432.855807 
C 482.499597 433.518815 483.398954 433.891341 484.336589 433.891341 
z
" style="fill:#808080;stroke:#000000;stroke-width:0.4;"/>
    <path clip-path="url(#p5459a76746)" d="M 452.528926 435.355807 
C 453.854941 435.355807 455.126825 434.828975 456.06446 433.891341 
C 457.002094 432.953706 457.528926 431.681822 457.528926 430.355807 
C 457.528926 429.029791 457.002094 427.757908 456.06446 426.820273 
C 455.126825 425.882638 453.854941 425.355807 452.528926 425.355807 
C 451.20291 425.355807 449.931026 425.882638 448.993392 426.820273 
C 448.055757 427.757908 447.528926 429.029791 447.528926 430.355807 
C 447.528926 431.681822 448.055757 432.953706 448.993392 433.891341 
C 449.931026 434.828975 451.20291 435.355807 452.528926 435.355807 
z
" style="stroke:#000000;stroke-width:0.4;"/>
    <path clip-path="url(#p5459a76746)" d="M 516.144252 412.908305 
C 517.081887 412.908305 517.981245 412.535779 518.644252 411.872771 
C 519.30726 411.209763 519.679786 410.310405 519.679786 409.372771 
C 519.679786 408.435136 519.30726 407.535779 518.644252 406.872771 
C 517.981245 406.209763 517.081887 405.837237 516.144252 405.837237 
C 515.206618 405.837237 514.30726 406.209763 513.644252 406.872771 
C 512.981245 407.535779 512.608719 408.435136 512.608719 409.372771 
C 512.608719 410.310405 512.981245 411.209763 513.644252 411.872771 
C 514.30726 412.535779 515.206618 412.908305 516.144252 412.908305 
z
" style="fill:#808080;stroke:#000000;stroke-width:0.4;"/>
    <path clip-path="url(#p5459a76746)" d="M 532.048084 412.908305 
C 532.985719 412.908305 533.885076 412.535779 534.548084 411.872771 
C 535.211092 411.209763 535.583618 410.310405 535.583618 409.372771 
C 535.583618 408.435136 535.211092 407.535779 534.548084 406.872771 
C 533.885076 406.209763 532.985719 405.837237 532.048084 405.837237 
C 531.11045 405.837237 530.211092 406.209763 529.548084 406.872771 
C 528.885076 407.535779 528.51255 408.435136 528.51255 409.372771 
C 528.51255 410.310405 528.885076 411.209763 529.548084 411.872771 
C 530.211092 412.535779 531.11045 412.908305 532.048084 412.908305 
z
" style="fill:#808080;stroke:#000000;stroke-width:0.4;"/>
    <path clip-path="url(#p5459a76746)" d="M 500.240421 414.372771 
C 501.566436 414.372771 502.83832 413.845939 503.775955 412.908305 
C 504.713589 411.97067 505.240421 410.698786 505.240421 409.372771 
C 505.240421 408.046755 504.713589 406.774871 503.775955 405.837237 
C 502.83832 404.899602 501.566436 404.372771 500.240421 404.372771 
C 498.914405 404.372771 497.642521 404.899602 496.704887 405.837237 
C 495.767252 406.774871 495.240421 408.046755 495.240421 409.372771 
C 495.240421 410.698786 495.767252 411.97067 496.704887 412.908305 
C 497.642521 413.845939 498.914405 414.372771 500.240421 414.372771 
z
" style="stroke:#000000;stroke-width:0.4;"/>
    <path clip-path="url(#p5459a76746)" d="M 373.009767 414.372771 
C 374.335783 414.372771 375.607666 413.845939 376.545301 412.908305 
C 377.482936 411.97067 378.009767 410.698786 378.009767 409.372771 
C 378.009767 408.046755 377.482936 406.774871 376.545301 405.837237 
C 375.607666 404.899602 374.335783 404.372771 373.009767 404.372771 
C 371.683752 404.372771 370.411868 404.899602 369.474233 405.837237 
C 368.536599 406.774871 368.009767 408.046755 368.009767 409.372771 
C 368.009767 410.698786 368.536599 411.97067 369.474233 412.908305 
C 370.411868 413.845939 371.683752 414.372771 373.009767 414.372771 
z
" style="stroke:#000000;stroke-width:0.4;"/>
    <path clip-path="url(#p5459a76746)" d="M 357.105935 433.891341 
C 358.04357 433.891341 358.942928 433.518815 359.605935 432.855807 
C 360.268943 432.192799 360.641469 431.293441 360.641469 430.355807 
C 360.641469 429.418172 360.268943 428.518815 359.605935 427.855807 
C 358.942928 427.192799 358.04357 426.820273 357.105935 426.820273 
C 356.168301 426.820273 355.268943 427.192799 354.605935 427.855807 
C 353.942928 428.518815 353.570401 429.418172 353.570401 430.355807 
C 353.570401 431.293441 353.942928 432.192799 354.605935 432.855807 
C 355.268943 433.518815 356.168301 433.891341 357.105935 433.891341 
z
" style="fill:#808080;stroke:#000000;stroke-width:0.4;"/>
    <path clip-path="url(#p5459a76746)" d="M 341.202104 414.372771 
C 342.528119 414.372771 343.800003 413.845939 344.737638 412.908305 
C 345.675272 411.97067 346.202104 410.698786 346.202104 409.372771 
C 346.202104 408.046755 345.675272 406.774871 344.737638 405.837237 
C 343.800003 404.899602 342.528119 404.372771 341.202104 404.372771 
C 339.876088 404.372771 338.604204 404.899602 337.66657 405.837237 
C 336.728935 406.774871 336.202104 408.046755 336.202104 409.372771 
C 336.202104 410.698786 336.728935 411.97067 337.66657 412.908305 
C 338.604204 413.845939 339.876088 414.372771 341.202104 414.372771 
z
" style="stroke:#000000;stroke-width:0.4;"/>
    <path clip-path="url(#p5459a76746)" d="M 627.471074 391.925269 
C 628.408709 391.925269 629.308067 391.552742 629.971074 390.889735 
C 630.634082 390.226727 631.006608 389.327369 631.006608 388.389735 
C 631.006608 387.4521 630.634082 386.552742 629.971074 385.889735 
C 629.308067 385.226727 628.408709 384.854201 627.471074 384.854201 
C 626.53344 384.854201 625.634082 385.226727 624.971074 385.889735 
C 624.308067 386.552742 623.93554 387.4521 623.93554 388.389735 
C 623.93554 389.327369 624.308067 390.226727 624.971074 390.889735 
C 625.634082 391.552742 626.53344 391.925269 627.471074 391.925269 
z
" style="fill:#808080;stroke:#000000;stroke-width:0.4;"/>
    <path clip-path="url(#p5459a76746)" d="M 643.374906 391.925269 
C 644.312541 391.925269 645.211898 391.552742 645.874906 390.889735 
C 646.537914 390.226727 646.91044 389.327369 646.91044 388.389735 
C 646.91044 387.4521 646.537914 386.552742 645.874906 385.889735 
C 645.211898 385.226727 644.312541 384.854201 643.374906 384.854201 
C 642.437272 384.854201 641.537914 385.226727 640.874906 385.889735 
C 640.211898 386.552742 639.839372 387.4521 639.839372 388.389735 
C 639.839372 389.327369 640.211898 390.226727 640.874906 390.889735 
C 641.537914 391.552742 642.437272 391.925269 643.374906 391.925269 
z
" style="fill:#808080;stroke:#000000;stroke-width:0.4;"/>
    <path clip-path="url(#p5459a76746)" d="M 611.567243 391.925269 
C 612.504877 391.925269 613.404235 391.552742 614.067243 390.889735 
C 614.73025 390.226727 615.102777 389.327369 615.102777 388.389735 
C 615.102777 387.4521 614.73025 386.552742 614.067243 385.889735 
C 613.404235 385.226727 612.504877 384.854201 611.567243 384.854201 
C 610.629608 384.854201 609.73025 385.226727 609.067243 385.889735 
C 608.404235 386.552742 608.031709 387.4521 608.031709 388.389735 
C 608.031709 389.327369 608.404235 390.226727 609.067243 390.889735 
C 609.73025 391.552742 610.629608 391.925269 611.567243 391.925269 
z
" style="fill:#808080;stroke:#000000;stroke-width:0.4;"/>
    <path clip-path="url(#p5459a76746)" d="M 595.663411 391.925269 
C 596.601046 391.925269 597.500403 391.552742 598.163411 390.889735 
C 598.826419 390.226727 599.198945 389.327369 599.198945 388.389735 
C 599.198945 387.4521 598.826419 386.552742 598.163411 385.889735 
C 597.500403 385.226727 596.601046 384.854201 595.663411 384.854201 
C 594.725776 384.854201 593.826419 385.226727 593.163411 385.889735 
C 592.500403 386.552742 592.127877 387.4521 592.127877 388.389735 
C 592.127877 389.327369 592.500403 390.226727 593.163411 390.889735 
C 593.826419 391.552742 594.725776 391.925269 595.663411 391.925269 
z
" style="fill:#808080;stroke:#000000;stroke-width:0.4;"/>
    <path clip-path="url(#p5459a76746)" d="M 579.759579 391.925269 
C 580.697214 391.925269 581.596572 391.552742 582.259579 390.889735 
C 582.922587 390.226727 583.295113 389.327369 583.295113 388.389735 
C 583.295113 387.4521 582.922587 386.552742 582.259579 385.889735 
C 581.596572 385.226727 580.697214 384.854201 579.759579 384.854201 
C 578.821945 384.854201 577.922587 385.226727 577.259579 385.889735 
C 576.596572 386.552742 576.224045 387.4521 576.224045 388.389735 
C 576.224045 389.327369 576.596572 390.226727 577.259579 390.889735 
C 577.922587 391.552742 578.821945 391.925269 579.759579 391.925269 
z
" style="fill:#808080;stroke:#000000;stroke-width:0.4;"/>
    <path clip-path="url(#p5459a76746)" d="M 563.855748 391.925269 
C 564.793382 391.925269 565.69274 391.552742 566.355748 390.889735 
C 567.018755 390.226727 567.391281 389.327369 567.391281 388.389735 
C 567.391281 387.4521 567.018755 386.552742 566.355748 385.889735 
C 565.69274 385.226727 564.793382 384.854201 563.855748 384.854201 
C 562.918113 384.854201 562.018755 385.226727 561.355748 385.889735 
C 560.69274 386.552742 560.320214 387.4521 560.320214 388.389735 
C 560.320214 389.327369 560.69274 390.226727 561.355748 390.889735 
C 562.018755 391.552742 562.918113 391.925269 563.855748 391.925269 
z
" style="fill:#808080;stroke:#000000;stroke-width:0.4;"/>
    <path clip-path="url(#p5459a76746)" d="M 547.951916 393.389735 
C 549.277931 393.389735 550.549815 392.862903 551.48745 391.925269 
C 552.425084 390.987634 552.951916 389.71575 552.951916 388.389735 
C 552.951916 387.063719 552.425084 385.791835 551.48745 384.854201 
C 550.549815 383.916566 549.277931 383.389735 547.951916 383.389735 
C 546.6259 383.389735 545.354016 383.916566 544.416382 384.854201 
C 543.478747 385.791835 542.951916 387.063719 542.951916 388.389735 
C 542.951916 389.71575 543.478747 390.987634 544.416382 391.925269 
C 545.354016 392.862903 546.6259 393.389735 547.951916 393.389735 
z
" style="stroke:#000000;stroke-width:0.4;"/>
    <path clip-path="url(#p5459a76746)" d="M 691.086401 349.959196 
C 692.024036 349.959196 692.923393 349.58667 693.586401 348.923662 
C 694.249409 348.260655 694.621935 347.361297 694.621935 346.423662 
C 694.621935 345.486028 694.249409 344.58667 693.586401 343.923662 
C 692.923393 343.260655 692.024036 342.888129 691.086401 342.888129 
C 690.148767 342.888129 689.249409 343.260655 688.586401 343.923662 
C 687.923393 344.58667 687.550867 345.486028 687.550867 346.423662 
C 687.550867 347.361297 687.923393 348.260655 688.586401 348.923662 
C 689.249409 349.58667 690.148767 349.959196 691.086401 349.959196 
z
" style="fill:#808080;stroke:#000000;stroke-width:0.4;"/>
    <path clip-path="url(#p5459a76746)" d="M 706.990233 349.959196 
C 707.927867 349.959196 708.827225 349.58667 709.490233 348.923662 
C 710.153241 348.260655 710.525767 347.361297 710.525767 346.423662 
C 710.525767 345.486028 710.153241 344.58667 709.490233 343.923662 
C 708.827225 343.260655 707.927867 342.888129 706.990233 342.888129 
C 706.052598 342.888129 705.153241 343.260655 704.490233 343.923662 
C 703.827225 344.58667 703.454699 345.486028 703.454699 346.423662 
C 703.454699 347.361297 703.827225 348.260655 704.490233 348.923662 
C 705.153241 349.58667 706.052598 349.959196 706.990233 349.959196 
z
" style="fill:#808080;stroke:#000000;stroke-width:0.4;"/>
    <path clip-path="url(#p5459a76746)" d="M 675.182569 349.959196 
C 676.120204 349.959196 677.019562 349.58667 677.682569 348.923662 
C 678.345577 348.260655 678.718103 347.361297 678.718103 346.423662 
C 678.718103 345.486028 678.345577 344.58667 677.682569 343.923662 
C 677.019562 343.260655 676.120204 342.888129 675.182569 342.888129 
C 674.244935 342.888129 673.345577 343.260655 672.682569 343.923662 
C 672.019562 344.58667 671.647036 345.486028 671.647036 346.423662 
C 671.647036 347.361297 672.019562 348.260655 672.682569 348.923662 
C 673.345577 349.58667 674.244935 349.959196 675.182569 349.959196 
z
" style="fill:#808080;stroke:#000000;stroke-width:0.4;"/>
    <path clip-path="url(#p5459a76746)" d="M 659.278738 351.423662 
C 660.604753 351.423662 661.876637 350.896831 662.814272 349.959196 
C 663.751906 349.021562 664.278738 347.749678 664.278738 346.423662 
C 664.278738 345.097647 663.751906 343.825763 662.814272 342.888129 
C 661.876637 341.950494 660.604753 341.423662 659.278738 341.423662 
C 657.952722 341.423662 656.680838 341.950494 655.743204 342.888129 
C 654.805569 343.825763 654.278738 345.097647 654.278738 346.423662 
C 654.278738 347.749678 654.805569 349.021562 655.743204 349.959196 
C 656.680838 350.896831 657.952722 351.423662 659.278738 351.423662 
z
" style="stroke:#000000;stroke-width:0.4;"/>
    <path clip-path="url(#p5459a76746)" d="M 722.894065 330.440626 
C 724.22008 330.440626 725.491964 329.913795 726.429599 328.97616 
C 727.367233 328.038526 727.894065 326.766642 727.894065 325.440626 
C 727.894065 324.114611 727.367233 322.842727 726.429599 321.905092 
C 725.491964 320.967458 724.22008 320.440626 722.894065 320.440626 
C 721.568049 320.440626 720.296165 320.967458 719.358531 321.905092 
C 718.420896 322.842727 717.894065 324.114611 717.894065 325.440626 
C 717.894065 326.766642 718.420896 328.038526 719.358531 328.97616 
C 720.296165 329.913795 721.568049 330.440626 722.894065 330.440626 
z
" style="stroke:#000000;stroke-width:0.4;"/>
    <path clip-path="url(#p5459a76746)" d="M 738.797896 349.959196 
C 739.735531 349.959196 740.634889 349.58667 741.297896 348.923662 
C 741.960904 348.260655 742.33343 347.361297 742.33343 346.423662 
C 742.33343 345.486028 741.960904 344.58667 741.297896 343.923662 
C 740.634889 343.260655 739.735531 342.888129 738.797896 342.888129 
C 737.860262 342.888129 736.960904 343.260655 736.297896 343.923662 
C 735.634889 344.58667 735.262362 345.486028 735.262362 346.423662 
C 735.262362 347.361297 735.634889 348.260655 736.297896 348.923662 
C 736.960904 349.58667 737.860262 349.959196 738.797896 349.959196 
z
" style="fill:#808080;stroke:#000000;stroke-width:0.4;"/>
    <path clip-path="url(#p5459a76746)" d="M 786.509391 266.027052 
C 787.447026 266.027052 788.346384 265.654526 789.009391 264.991518 
C 789.672399 264.32851 790.044925 263.429153 790.044925 262.491518 
C 790.044925 261.553883 789.672399 260.654526 789.009391 259.991518 
C 788.346384 259.32851 787.447026 258.955984 786.509391 258.955984 
C 785.571757 258.955984 784.672399 259.32851 784.009391 259.991518 
C 783.346384 260.654526 782.973858 261.553883 782.973858 262.491518 
C 782.973858 263.429153 783.346384 264.32851 784.009391 264.991518 
C 784.672399 265.654526 785.571757 266.027052 786.509391 266.027052 
z
" style="fill:#808080;stroke:#000000;stroke-width:0.4;"/>
    <path clip-path="url(#p5459a76746)" d="M 802.413223 266.027052 
C 803.350858 266.027052 804.250215 265.654526 804.913223 264.991518 
C 805.576231 264.32851 805.948757 263.429153 805.948757 262.491518 
C 805.948757 261.553883 805.576231 260.654526 804.913223 259.991518 
C 804.250215 259.32851 803.350858 258.955984 802.413223 258.955984 
C 801.475589 258.955984 800.576231 259.32851 799.913223 259.991518 
C 799.250215 260.654526 798.877689 261.553883 798.877689 262.491518 
C 798.877689 263.429153 799.250215 264.32851 799.913223 264.991518 
C 800.576231 265.654526 801.475589 266.027052 802.413223 266.027052 
z
" style="fill:#808080;stroke:#000000;stroke-width:0.4;"/>
    <path clip-path="url(#p5459a76746)" d="M 770.60556 266.027052 
C 771.543194 266.027052 772.442552 265.654526 773.10556 264.991518 
C 773.768567 264.32851 774.141094 263.429153 774.141094 262.491518 
C 774.141094 261.553883 773.768567 260.654526 773.10556 259.991518 
C 772.442552 259.32851 771.543194 258.955984 770.60556 258.955984 
C 769.667925 258.955984 768.768567 259.32851 768.10556 259.991518 
C 767.442552 260.654526 767.070026 261.553883 767.070026 262.491518 
C 767.070026 263.429153 767.442552 264.32851 768.10556 264.991518 
C 768.768567 265.654526 769.667925 266.027052 770.60556 266.027052 
z
" style="fill:#808080;stroke:#000000;stroke-width:0.4;"/>
    <path clip-path="url(#p5459a76746)" d="M 754.701728 267.491518 
C 756.027744 267.491518 757.299627 266.964687 758.237262 266.027052 
C 759.174896 265.089417 759.701728 263.817534 759.701728 262.491518 
C 759.701728 261.165503 759.174896 259.893619 758.237262 258.955984 
C 757.299627 258.01835 756.027744 257.491518 754.701728 257.491518 
C 753.375713 257.491518 752.103829 258.01835 751.166194 258.955984 
C 750.22856 259.893619 749.701728 261.165503 749.701728 262.491518 
C 749.701728 263.817534 750.22856 265.089417 751.166194 266.027052 
C 752.103829 266.964687 753.375713 267.491518 754.701728 267.491518 
z
" style="stroke:#000000;stroke-width:0.4;"/>
    <path clip-path="url(#p5459a76746)" d="M 277.586777 267.491518 
C 278.912792 267.491518 280.184676 266.964687 281.122311 266.027052 
C 282.059945 265.089417 282.586777 263.817534 282.586777 262.491518 
C 282.586777 261.165503 282.059945 259.893619 281.122311 258.955984 
C 280.184676 258.01835 278.912792 257.491518 277.586777 257.491518 
C 276.260761 257.491518 274.988878 258.01835 274.051243 258.955984 
C 273.113608 259.893619 272.586777 261.165503 272.586777 262.491518 
C 272.586777 263.817534 273.113608 265.089417 274.051243 266.027052 
C 274.988878 266.964687 276.260761 267.491518 277.586777 267.491518 
z
" style="stroke:#000000;stroke-width:0.4;"/>
    <path clip-path="url(#p5459a76746)" d="M 261.682945 287.010088 
C 262.62058 287.010088 263.519937 286.637562 264.182945 285.974554 
C 264.845953 285.311546 265.218479 284.412189 265.218479 283.474554 
C 265.218479 282.53692 264.845953 281.637562 264.182945 280.974554 
C 263.519937 280.311546 262.62058 279.93902 261.682945 279.93902 
C 260.745311 279.93902 259.845953 280.311546 259.182945 280.974554 
C 258.519937 281.637562 258.147411 282.53692 258.147411 283.474554 
C 258.147411 284.412189 258.519937 285.311546 259.182945 285.974554 
C 259.845953 286.637562 260.745311 287.010088 261.682945 287.010088 
z
" style="fill:#808080;stroke:#000000;stroke-width:0.4;"/>
    <path clip-path="url(#p5459a76746)" d="M 818.317055 204.54241 
C 819.64307 204.54241 820.914954 204.015578 821.852589 203.077944 
C 822.790223 202.140309 823.317055 200.868425 823.317055 199.54241 
C 823.317055 198.216394 822.790223 196.94451 821.852589 196.006876 
C 820.914954 195.069241 819.64307 194.54241 818.317055 194.54241 
C 816.991039 194.54241 815.719155 195.069241 814.781521 196.006876 
C 813.843886 196.94451 813.317055 198.216394 813.317055 199.54241 
C 813.317055 200.868425 813.843886 202.140309 814.781521 203.077944 
C 815.719155 204.015578 816.991039 204.54241 818.317055 204.54241 
z
" style="stroke:#000000;stroke-width:0.4;"/>
    <path clip-path="url(#p5459a76746)" d="M 834.220887 203.077944 
C 835.158521 203.077944 836.057879 202.705417 836.720887 202.04241 
C 837.383894 201.379402 837.75642 200.480044 837.75642 199.54241 
C 837.75642 198.604775 837.383894 197.705417 836.720887 197.04241 
C 836.057879 196.379402 835.158521 196.006876 834.220887 196.006876 
C 833.283252 196.006876 832.383894 196.379402 831.720887 197.04241 
C 831.057879 197.705417 830.685353 198.604775 830.685353 199.54241 
C 830.685353 200.480044 831.057879 201.379402 831.720887 202.04241 
C 832.383894 202.705417 833.283252 203.077944 834.220887 203.077944 
z
" style="fill:#808080;stroke:#000000;stroke-width:0.4;"/>
    <path clip-path="url(#p5459a76746)" d="M 866.02855 224.06098 
C 866.966185 224.06098 867.865542 223.688454 868.52855 223.025446 
C 869.191558 222.362438 869.564084 221.46308 869.564084 220.525446 
C 869.564084 219.587811 869.191558 218.688454 868.52855 218.025446 
C 867.865542 217.362438 866.966185 216.989912 866.02855 216.989912 
C 865.090915 216.989912 864.191558 217.362438 863.52855 218.025446 
C 862.865542 218.688454 862.493016 219.587811 862.493016 220.525446 
C 862.493016 221.46308 862.865542 222.362438 863.52855 223.025446 
C 864.191558 223.688454 865.090915 224.06098 866.02855 224.06098 
z
" style="fill:#808080;stroke:#000000;stroke-width:0.4;"/>
    <path clip-path="url(#p5459a76746)" d="M 881.932382 224.06098 
C 882.870016 224.06098 883.769374 223.688454 884.432382 223.025446 
C 885.095389 222.362438 885.467916 221.46308 885.467916 220.525446 
C 885.467916 219.587811 885.095389 218.688454 884.432382 218.025446 
C 883.769374 217.362438 882.870016 216.989912 881.932382 216.989912 
C 880.994747 216.989912 880.095389 217.362438 879.432382 218.025446 
C 878.769374 218.688454 878.396848 219.587811 878.396848 220.525446 
C 878.396848 221.46308 878.769374 222.362438 879.432382 223.025446 
C 880.095389 223.688454 880.994747 224.06098 881.932382 224.06098 
z
" style="fill:#808080;stroke:#000000;stroke-width:0.4;"/>
    <path clip-path="url(#p5459a76746)" d="M 850.124718 183.559374 
C 851.450734 183.559374 852.722618 183.032542 853.660252 182.094908 
C 854.597887 181.157273 855.124718 179.885389 855.124718 178.559374 
C 855.124718 177.233358 854.597887 175.961474 853.660252 175.02384 
C 852.722618 174.086205 851.450734 173.559374 850.124718 173.559374 
C 848.798703 173.559374 847.526819 174.086205 846.589184 175.02384 
C 845.65155 175.961474 845.124718 177.233358 845.124718 178.559374 
C 845.124718 179.885389 845.65155 181.157273 846.589184 182.094908 
C 847.526819 183.032542 848.798703 183.559374 850.124718 183.559374 
z
" style="stroke:#000000;stroke-width:0.4;"/>
    <path clip-path="url(#p5459a76746)" d="M 245.779113 162.576338 
C 247.105129 162.576338 248.377013 162.049506 249.314647 161.111871 
C 250.252282 160.174237 250.779113 158.902353 250.779113 157.576338 
C 250.779113 156.250322 250.252282 154.978438 249.314647 154.040804 
C 248.377013 153.103169 247.105129 152.576338 245.779113 152.576338 
C 244.453098 152.576338 243.181214 153.103169 242.24358 154.040804 
C 241.305945 154.978438 240.779113 156.250322 240.779113 157.576338 
C 240.779113 158.902353 241.305945 160.174237 242.24358 161.111871 
C 243.181214 162.049506 244.453098 162.576338 245.779113 162.576338 
z
" style="stroke:#000000;stroke-width:0.4;"/>
    <path clip-path="url(#p5459a76746)" d="M 897.836213 120.610265 
C 899.162229 120.610265 900.434113 120.083434 901.371747 119.145799 
C 902.309382 118.208165 902.836213 116.936281 902.836213 115.610265 
C 902.836213 114.28425 902.309382 113.012366 901.371747 112.074731 
C 900.434113 111.137097 899.162229 110.610265 897.836213 110.610265 
C 896.510198 110.610265 895.238314 111.137097 894.300679 112.074731 
C 893.363045 113.012366 892.836213 114.28425 892.836213 115.610265 
C 892.836213 116.936281 893.363045 118.208165 894.300679 119.145799 
C 895.238314 120.083434 896.510198 120.610265 897.836213 120.610265 
z
" style="stroke:#000000;stroke-width:0.4;"/>
    <path clip-path="url(#p5459a76746)" d="M 913.740045 140.128835 
C 914.67768 140.128835 915.577037 139.756309 916.240045 139.093301 
C 916.903053 138.430294 917.275579 137.530936 917.275579 136.593301 
C 917.275579 135.655667 916.903053 134.756309 916.240045 134.093301 
C 915.577037 133.430294 914.67768 133.057768 913.740045 133.057768 
C 912.802411 133.057768 911.903053 133.430294 911.240045 134.093301 
C 910.577037 134.756309 910.204511 135.655667 910.204511 136.593301 
C 910.204511 137.530936 910.577037 138.430294 911.240045 139.093301 
C 911.903053 139.756309 912.802411 140.128835 913.740045 140.128835 
z
" style="fill:#808080;stroke:#000000;stroke-width:0.4;"/>
    <path clip-path="url(#p5459a76746)" d="M 961.45154 119.145799 
C 962.389175 119.145799 963.288532 118.773273 963.95154 118.110265 
C 964.614548 117.447258 964.987074 116.5479 964.987074 115.610265 
C 964.987074 114.672631 964.614548 113.773273 963.95154 113.110265 
C 963.288532 112.447258 962.389175 112.074731 961.45154 112.074731 
C 960.513906 112.074731 959.614548 112.447258 958.95154 113.110265 
C 958.288532 113.773273 957.916006 114.672631 957.916006 115.610265 
C 957.916006 116.5479 958.288532 117.447258 958.95154 118.110265 
C 959.614548 118.773273 960.513906 119.145799 961.45154 119.145799 
z
" style="fill:#808080;stroke:#000000;stroke-width:0.4;"/>
    <path clip-path="url(#p5459a76746)" d="M 977.355372 119.145799 
C 978.293006 119.145799 979.192364 118.773273 979.855372 118.110265 
C 980.51838 117.447258 980.890906 116.5479 980.890906 115.610265 
C 980.890906 114.672631 980.51838 113.773273 979.855372 113.110265 
C 979.192364 112.447258 978.293006 112.074731 977.355372 112.074731 
C 976.417737 112.074731 975.51838 112.447258 974.855372 113.110265 
C 974.192364 113.773273 973.819838 114.672631 973.819838 115.610265 
C 973.819838 116.5479 974.192364 117.447258 974.855372 118.110265 
C 975.51838 118.773273 976.417737 119.145799 977.355372 119.145799 
z
" style="fill:#808080;stroke:#000000;stroke-width:0.4;"/>
    <path clip-path="url(#p5459a76746)" d="M 945.547708 119.145799 
C 946.485343 119.145799 947.384701 118.773273 948.047708 118.110265 
C 948.710716 117.447258 949.083242 116.5479 949.083242 115.610265 
C 949.083242 114.672631 948.710716 113.773273 948.047708 113.110265 
C 947.384701 112.447258 946.485343 112.074731 945.547708 112.074731 
C 944.610074 112.074731 943.710716 112.447258 943.047708 113.110265 
C 942.384701 113.773273 942.012175 114.672631 942.012175 115.610265 
C 942.012175 116.5479 942.384701 117.447258 943.047708 118.110265 
C 943.710716 118.773273 944.610074 119.145799 945.547708 119.145799 
z
" style="fill:#808080;stroke:#000000;stroke-width:0.4;"/>
    <path clip-path="url(#p5459a76746)" d="M 929.643877 99.627229 
C 930.969892 99.627229 932.241776 99.100398 933.179411 98.162763 
C 934.117045 97.225129 934.643877 95.953245 934.643877 94.627229 
C 934.643877 93.301214 934.117045 92.02933 933.179411 91.091695 
C 932.241776 90.154061 930.969892 89.627229 929.643877 89.627229 
C 928.317861 89.627229 927.045977 90.154061 926.108343 91.091695 
C 925.170708 92.02933 924.643877 93.301214 924.643877 94.627229 
C 924.643877 95.953245 925.170708 97.225129 926.108343 98.162763 
C 927.045977 99.100398 928.317861 99.627229 929.643877 99.627229 
z
" style="stroke:#000000;stroke-width:0.4;"/>
    <path clip-path="url(#p5459a76746)" d="M 166.259955 78.644193 
C 167.58597 78.644193 168.857854 78.117362 169.795489 77.179727 
C 170.733123 76.242092 171.259955 74.970209 171.259955 73.644193 
C 171.259955 72.318178 170.733123 71.046294 169.795489 70.108659 
C 168.857854 69.171025 167.58597 68.644193 166.259955 68.644193 
C 164.933939 68.644193 163.662056 69.171025 162.724421 70.108659 
C 161.786786 71.046294 161.259955 72.318178 161.259955 73.644193 
C 161.259955 74.970209 161.786786 76.242092 162.724421 77.179727 
C 163.662056 78.117362 164.933939 78.644193 166.259955 78.644193 
z
" style="stroke:#000000;stroke-width:0.4;"/>
    <path clip-path="url(#p5459a76746)" d="M 150.356123 98.162763 
C 151.293758 98.162763 152.193115 97.790237 152.856123 97.127229 
C 153.519131 96.464221 153.891657 95.564864 153.891657 94.627229 
C 153.891657 93.689595 153.519131 92.790237 152.856123 92.127229 
C 152.193115 91.464221 151.293758 91.091695 150.356123 91.091695 
C 149.418489 91.091695 148.519131 91.464221 147.856123 92.127229 
C 147.193115 92.790237 146.820589 93.689595 146.820589 94.627229 
C 146.820589 95.564864 147.193115 96.464221 147.856123 97.127229 
C 148.519131 97.790237 149.418489 98.162763 150.356123 98.162763 
z
" style="fill:#808080;stroke:#000000;stroke-width:0.4;"/>
    <path clip-path="url(#p5459a76746)" d="M 134.452292 57.661157 
C 135.778307 57.661157 137.050191 57.134325 137.987825 56.196691 
C 138.92546 55.259056 139.452292 53.987173 139.452292 52.661157 
C 139.452292 51.335142 138.92546 50.063258 137.987825 49.125623 
C 137.050191 48.187989 135.778307 47.661157 134.452292 47.661157 
C 133.126276 47.661157 131.854392 48.187989 130.916758 49.125623 
C 129.979123 50.063258 129.452292 51.335142 129.452292 52.661157 
C 129.452292 53.987173 129.979123 55.259056 130.916758 56.196691 
C 131.854392 57.134325 133.126276 57.661157 134.452292 57.661157 
z
" style="stroke:#000000;stroke-width:0.4;"/>
   </g>
   <g id="line2d_1">
    <path clip-path="url(#p5459a76746)" d="M 380.961683 493.2 
L 380.961683 10.8 
" style="fill:none;stroke:#ff0000;stroke-linecap:square;stroke-width:1.5;"/>
   </g>
   <g id="patch_3">
    <path d="M 10.8 493.2 
L 10.8 10.8 
" style="fill:none;stroke:#000000;stroke-linecap:square;stroke-linejoin:miter;stroke-width:0.8;"/>
   </g>
   <g id="patch_4">
    <path d="M 1069.2 493.2 
L 1069.2 10.8 
" style="fill:none;stroke:#000000;stroke-linecap:square;stroke-linejoin:miter;stroke-width:0.8;"/>
   </g>
   <g id="patch_5">
    <path d="M 10.8 493.2 
L 1069.2 493.2 
" style="fill:none;stroke:#000000;stroke-linecap:square;stroke-linejoin:miter;stroke-width:0.8;"/>
   </g>
   <g id="patch_6">
    <path d="M 10.8 10.8 
L 1069.2 10.8 
" style="fill:none;stroke:#000000;stroke-linecap:square;stroke-linejoin:miter;stroke-width:0.8;"/>
   </g>
  </g>
 </g>
 <defs>
  <clipPath id="p5459a76746">
   <rect height="482.4" width="1058.4" x="10.8" y="10.8"/>
  </clipPath>
 </defs>
</svg>
