<?xml version="1.0" encoding="utf-8" standalone="no"?>
<!DOCTYPE svg PUBLIC "-//W3C//DTD SVG 1.1//EN"
  "http://www.w3.org/Graphics/SVG/1.1/DTD/svg11.dtd">
<svg height="504pt" version="1.1" viewBox="0 0 1080 504" width="1080pt" xmlns="http://www.w3.org/2000/svg" xmlns:xlink="http://www.w3.org/1999/xlink">
 <metadata>
  <rdf:RDF xmlns:cc="http://creativecommons.org/ns#" xmlns:dc="http://purl.org/dc/elements/1.1/" xmlns:rdf="http://www.w3.org/1999/02/22-rdf-syntax-ns#">
   <cc:Work>
    <dc:type rdf:resource="http://purl.org/dc/dcmitype/StillImage"/>
    <dc:date>2022-04-03T07:44:53.788983</dc:date>
    <dc:format>image/svg+xml</dc:format>
    <dc:creator>
     <cc:Agent>
      <dc:title>Matplotlib v3.4.3, https://matplotlib.org/</dc:title>
     </cc:Agent>
    </dc:creator>
   </cc:Work>
  </rdf:RDF>
 </metadata>
 <defs>
  <style type="text/css">*{stroke-linecap:butt;stroke-linejoin:round;}</style>
 </defs>
 <g id="figure_1">
  <g id="patch_1">
   <path d="M 0 504 
L 1080 504 
L 1080 0 
L 0 0 
z
" style="fill:#ffffff;"/>
  </g>
  <g id="axes_1">
   <g id="patch_2">
    <path d="M 10.8 493.2 
L 1069.2 493.2 
L 1069.2 10.8 
L 10.8 10.8 
z
" style="fill:#ffffff;"/>
   </g>
   <g id="LineCollection_1">
    <path clip-path="url(#pfe34e1a3b6)" d="M 102.644628 73.644193 
L 116.528926 73.644193 
" style="fill:none;stroke:#000000;stroke-width:0.4;"/>
    <path clip-path="url(#pfe34e1a3b6)" d="M 102.644628 73.644193 
L 130.413223 52.661157 
" style="fill:none;stroke:#000000;stroke-width:0.4;"/>
    <path clip-path="url(#pfe34e1a3b6)" d="M 172.066116 220.525446 
L 185.950413 220.525446 
" style="fill:none;stroke:#000000;stroke-width:0.4;"/>
    <path clip-path="url(#pfe34e1a3b6)" d="M 172.066116 220.525446 
L 199.834711 199.54241 
" style="fill:none;stroke:#000000;stroke-width:0.4;"/>
    <path clip-path="url(#pfe34e1a3b6)" d="M 227.603306 325.440626 
L 241.487603 325.440626 
" style="fill:none;stroke:#000000;stroke-width:0.4;"/>
    <path clip-path="url(#pfe34e1a3b6)" d="M 227.603306 325.440626 
L 213.719008 325.440626 
" style="fill:none;stroke:#000000;stroke-width:0.4;"/>
    <path clip-path="url(#pfe34e1a3b6)" d="M 213.719008 325.440626 
L 255.371901 283.474554 
" style="fill:none;stroke:#000000;stroke-width:0.4;"/>
    <path clip-path="url(#pfe34e1a3b6)" d="M 297.024793 346.423662 
L 310.909091 346.423662 
" style="fill:none;stroke:#000000;stroke-width:0.4;"/>
    <path clip-path="url(#pfe34e1a3b6)" d="M 297.024793 346.423662 
L 324.793388 283.474554 
" style="fill:none;stroke:#000000;stroke-width:0.4;"/>
    <path clip-path="url(#pfe34e1a3b6)" d="M 463.636364 430.355807 
L 477.520661 430.355807 
" style="fill:none;stroke:#000000;stroke-width:0.4;"/>
    <path clip-path="url(#pfe34e1a3b6)" d="M 463.636364 430.355807 
L 449.752066 430.355807 
" style="fill:none;stroke:#000000;stroke-width:0.4;"/>
    <path clip-path="url(#pfe34e1a3b6)" d="M 449.752066 430.355807 
L 435.867769 430.355807 
" style="fill:none;stroke:#000000;stroke-width:0.4;"/>
    <path clip-path="url(#pfe34e1a3b6)" d="M 435.867769 430.355807 
L 421.983471 430.355807 
" style="fill:none;stroke:#000000;stroke-width:0.4;"/>
    <path clip-path="url(#pfe34e1a3b6)" d="M 421.983471 430.355807 
L 491.404959 346.423662 
" style="fill:none;stroke:#000000;stroke-width:0.4;"/>
    <path clip-path="url(#pfe34e1a3b6)" d="M 505.289256 388.389735 
L 519.173554 388.389735 
" style="fill:none;stroke:#000000;stroke-width:0.4;"/>
    <path clip-path="url(#pfe34e1a3b6)" d="M 505.289256 388.389735 
L 533.057851 346.423662 
" style="fill:none;stroke:#000000;stroke-width:0.4;"/>
    <path clip-path="url(#pfe34e1a3b6)" d="M 588.595041 430.355807 
L 574.710744 451.338843 
" style="fill:none;stroke:#000000;stroke-width:0.4;"/>
    <path clip-path="url(#pfe34e1a3b6)" d="M 588.595041 430.355807 
L 602.479339 430.355807 
" style="fill:none;stroke:#000000;stroke-width:0.4;"/>
    <path clip-path="url(#pfe34e1a3b6)" d="M 588.595041 430.355807 
L 616.363636 388.389735 
" style="fill:none;stroke:#000000;stroke-width:0.4;"/>
    <path clip-path="url(#pfe34e1a3b6)" d="M 616.363636 388.389735 
L 630.247934 409.372771 
" style="fill:none;stroke:#000000;stroke-width:0.4;"/>
    <path clip-path="url(#pfe34e1a3b6)" d="M 616.363636 388.389735 
L 644.132231 367.406699 
" style="fill:none;stroke:#000000;stroke-width:0.4;"/>
    <path clip-path="url(#pfe34e1a3b6)" d="M 671.900826 388.389735 
L 685.785124 388.389735 
" style="fill:none;stroke:#000000;stroke-width:0.4;"/>
    <path clip-path="url(#pfe34e1a3b6)" d="M 671.900826 388.389735 
L 658.016529 388.389735 
" style="fill:none;stroke:#000000;stroke-width:0.4;"/>
    <path clip-path="url(#pfe34e1a3b6)" d="M 658.016529 388.389735 
L 644.132231 367.406699 
" style="fill:none;stroke:#000000;stroke-width:0.4;"/>
    <path clip-path="url(#pfe34e1a3b6)" d="M 644.132231 367.406699 
L 560.826446 367.406699 
" style="fill:none;stroke:#000000;stroke-width:0.4;"/>
    <path clip-path="url(#pfe34e1a3b6)" d="M 560.826446 367.406699 
L 546.942149 409.372771 
" style="fill:none;stroke:#000000;stroke-width:0.4;"/>
    <path clip-path="url(#pfe34e1a3b6)" d="M 560.826446 367.406699 
L 699.669421 346.423662 
" style="fill:none;stroke:#000000;stroke-width:0.4;"/>
    <path clip-path="url(#pfe34e1a3b6)" d="M 699.669421 346.423662 
L 713.553719 346.423662 
" style="fill:none;stroke:#000000;stroke-width:0.4;"/>
    <path clip-path="url(#pfe34e1a3b6)" d="M 699.669421 346.423662 
L 533.057851 346.423662 
" style="fill:none;stroke:#000000;stroke-width:0.4;"/>
    <path clip-path="url(#pfe34e1a3b6)" d="M 533.057851 346.423662 
L 491.404959 346.423662 
" style="fill:none;stroke:#000000;stroke-width:0.4;"/>
    <path clip-path="url(#pfe34e1a3b6)" d="M 491.404959 346.423662 
L 727.438017 325.440626 
" style="fill:none;stroke:#000000;stroke-width:0.4;"/>
    <path clip-path="url(#pfe34e1a3b6)" d="M 727.438017 325.440626 
L 741.322314 346.423662 
" style="fill:none;stroke:#000000;stroke-width:0.4;"/>
    <path clip-path="url(#pfe34e1a3b6)" d="M 727.438017 325.440626 
L 408.099174 304.45759 
" style="fill:none;stroke:#000000;stroke-width:0.4;"/>
    <path clip-path="url(#pfe34e1a3b6)" d="M 408.099174 304.45759 
L 394.214876 325.440626 
" style="fill:none;stroke:#000000;stroke-width:0.4;"/>
    <path clip-path="url(#pfe34e1a3b6)" d="M 408.099174 304.45759 
L 380.330579 304.45759 
" style="fill:none;stroke:#000000;stroke-width:0.4;"/>
    <path clip-path="url(#pfe34e1a3b6)" d="M 380.330579 304.45759 
L 366.446281 367.406699 
" style="fill:none;stroke:#000000;stroke-width:0.4;"/>
    <path clip-path="url(#pfe34e1a3b6)" d="M 380.330579 304.45759 
L 352.561983 304.45759 
" style="fill:none;stroke:#000000;stroke-width:0.4;"/>
    <path clip-path="url(#pfe34e1a3b6)" d="M 352.561983 304.45759 
L 338.677686 325.440626 
" style="fill:none;stroke:#000000;stroke-width:0.4;"/>
    <path clip-path="url(#pfe34e1a3b6)" d="M 352.561983 304.45759 
L 324.793388 283.474554 
" style="fill:none;stroke:#000000;stroke-width:0.4;"/>
    <path clip-path="url(#pfe34e1a3b6)" d="M 324.793388 283.474554 
L 283.140496 283.474554 
" style="fill:none;stroke:#000000;stroke-width:0.4;"/>
    <path clip-path="url(#pfe34e1a3b6)" d="M 283.140496 283.474554 
L 269.256198 346.423662 
" style="fill:none;stroke:#000000;stroke-width:0.4;"/>
    <path clip-path="url(#pfe34e1a3b6)" d="M 283.140496 283.474554 
L 255.371901 283.474554 
" style="fill:none;stroke:#000000;stroke-width:0.4;"/>
    <path clip-path="url(#pfe34e1a3b6)" d="M 255.371901 283.474554 
L 755.206612 262.491518 
" style="fill:none;stroke:#000000;stroke-width:0.4;"/>
    <path clip-path="url(#pfe34e1a3b6)" d="M 769.090909 262.491518 
L 782.975207 262.491518 
" style="fill:none;stroke:#000000;stroke-width:0.4;"/>
    <path clip-path="url(#pfe34e1a3b6)" d="M 769.090909 262.491518 
L 755.206612 262.491518 
" style="fill:none;stroke:#000000;stroke-width:0.4;"/>
    <path clip-path="url(#pfe34e1a3b6)" d="M 755.206612 262.491518 
L 796.859504 241.508482 
" style="fill:none;stroke:#000000;stroke-width:0.4;"/>
    <path clip-path="url(#pfe34e1a3b6)" d="M 796.859504 241.508482 
L 810.743802 283.474554 
" style="fill:none;stroke:#000000;stroke-width:0.4;"/>
    <path clip-path="url(#pfe34e1a3b6)" d="M 796.859504 241.508482 
L 199.834711 199.54241 
" style="fill:none;stroke:#000000;stroke-width:0.4;"/>
    <path clip-path="url(#pfe34e1a3b6)" d="M 199.834711 199.54241 
L 824.628099 178.559374 
" style="fill:none;stroke:#000000;stroke-width:0.4;"/>
    <path clip-path="url(#pfe34e1a3b6)" d="M 852.396694 178.559374 
L 866.280992 178.559374 
" style="fill:none;stroke:#000000;stroke-width:0.4;"/>
    <path clip-path="url(#pfe34e1a3b6)" d="M 852.396694 178.559374 
L 838.512397 178.559374 
" style="fill:none;stroke:#000000;stroke-width:0.4;"/>
    <path clip-path="url(#pfe34e1a3b6)" d="M 838.512397 178.559374 
L 824.628099 178.559374 
" style="fill:none;stroke:#000000;stroke-width:0.4;"/>
    <path clip-path="url(#pfe34e1a3b6)" d="M 824.628099 178.559374 
L 880.165289 157.576338 
" style="fill:none;stroke:#000000;stroke-width:0.4;"/>
    <path clip-path="url(#pfe34e1a3b6)" d="M 880.165289 157.576338 
L 894.049587 178.559374 
" style="fill:none;stroke:#000000;stroke-width:0.4;"/>
    <path clip-path="url(#pfe34e1a3b6)" d="M 880.165289 157.576338 
L 907.933884 115.610265 
" style="fill:none;stroke:#000000;stroke-width:0.4;"/>
    <path clip-path="url(#pfe34e1a3b6)" d="M 907.933884 115.610265 
L 921.818182 136.593301 
" style="fill:none;stroke:#000000;stroke-width:0.4;"/>
    <path clip-path="url(#pfe34e1a3b6)" d="M 907.933884 115.610265 
L 935.702479 94.627229 
" style="fill:none;stroke:#000000;stroke-width:0.4;"/>
    <path clip-path="url(#pfe34e1a3b6)" d="M 963.471074 115.610265 
L 977.355372 115.610265 
" style="fill:none;stroke:#000000;stroke-width:0.4;"/>
    <path clip-path="url(#pfe34e1a3b6)" d="M 963.471074 115.610265 
L 949.586777 115.610265 
" style="fill:none;stroke:#000000;stroke-width:0.4;"/>
    <path clip-path="url(#pfe34e1a3b6)" d="M 949.586777 115.610265 
L 935.702479 94.627229 
" style="fill:none;stroke:#000000;stroke-width:0.4;"/>
    <path clip-path="url(#pfe34e1a3b6)" d="M 935.702479 94.627229 
L 158.181818 73.644193 
" style="fill:none;stroke:#000000;stroke-width:0.4;"/>
    <path clip-path="url(#pfe34e1a3b6)" d="M 158.181818 73.644193 
L 144.297521 94.627229 
" style="fill:none;stroke:#000000;stroke-width:0.4;"/>
    <path clip-path="url(#pfe34e1a3b6)" d="M 158.181818 73.644193 
L 130.413223 52.661157 
" style="fill:none;stroke:#000000;stroke-width:0.4;"/>
   </g>
   <g id="matplotlib.axis_1">
    <g id="xtick_1"/>
    <g id="xtick_2"/>
    <g id="xtick_3"/>
    <g id="xtick_4"/>
    <g id="xtick_5"/>
    <g id="xtick_6"/>
    <g id="xtick_7"/>
   </g>
   <g id="matplotlib.axis_2">
    <g id="ytick_1"/>
    <g id="ytick_2"/>
    <g id="ytick_3"/>
    <g id="ytick_4"/>
    <g id="ytick_5"/>
   </g>
   <g id="PathCollection_1">
    <path clip-path="url(#pfe34e1a3b6)" d="M 102.644628 77.179727 
C 103.582263 77.179727 104.48162 76.807201 105.144628 76.144193 
C 105.807636 75.481185 106.180162 74.581828 106.180162 73.644193 
C 106.180162 72.706559 105.807636 71.807201 105.144628 71.144193 
C 104.48162 70.481185 103.582263 70.108659 102.644628 70.108659 
C 101.706994 70.108659 100.807636 70.481185 100.144628 71.144193 
C 99.48162 71.807201 99.109094 72.706559 99.109094 73.644193 
C 99.109094 74.581828 99.48162 75.481185 100.144628 76.144193 
C 100.807636 76.807201 101.706994 77.179727 102.644628 77.179727 
z
" style="fill:#808080;stroke:#000000;stroke-width:0.4;"/>
    <path clip-path="url(#pfe34e1a3b6)" d="M 116.528926 77.179727 
C 117.46656 77.179727 118.365918 76.807201 119.028926 76.144193 
C 119.691933 75.481185 120.06446 74.581828 120.06446 73.644193 
C 120.06446 72.706559 119.691933 71.807201 119.028926 71.144193 
C 118.365918 70.481185 117.46656 70.108659 116.528926 70.108659 
C 115.591291 70.108659 114.691933 70.481185 114.028926 71.144193 
C 113.365918 71.807201 112.993392 72.706559 112.993392 73.644193 
C 112.993392 74.581828 113.365918 75.481185 114.028926 76.144193 
C 114.691933 76.807201 115.591291 77.179727 116.528926 77.179727 
z
" style="fill:#808080;stroke:#000000;stroke-width:0.4;"/>
    <path clip-path="url(#pfe34e1a3b6)" d="M 172.066116 224.06098 
C 173.00375 224.06098 173.903108 223.688454 174.566116 223.025446 
C 175.229123 222.362438 175.60165 221.46308 175.60165 220.525446 
C 175.60165 219.587811 175.229123 218.688454 174.566116 218.025446 
C 173.903108 217.362438 173.00375 216.989912 172.066116 216.989912 
C 171.128481 216.989912 170.229123 217.362438 169.566116 218.025446 
C 168.903108 218.688454 168.530582 219.587811 168.530582 220.525446 
C 168.530582 221.46308 168.903108 222.362438 169.566116 223.025446 
C 170.229123 223.688454 171.128481 224.06098 172.066116 224.06098 
z
" style="fill:#808080;stroke:#000000;stroke-width:0.4;"/>
    <path clip-path="url(#pfe34e1a3b6)" d="M 185.950413 224.06098 
C 186.888048 224.06098 187.787405 223.688454 188.450413 223.025446 
C 189.113421 222.362438 189.485947 221.46308 189.485947 220.525446 
C 189.485947 219.587811 189.113421 218.688454 188.450413 218.025446 
C 187.787405 217.362438 186.888048 216.989912 185.950413 216.989912 
C 185.012779 216.989912 184.113421 217.362438 183.450413 218.025446 
C 182.787405 218.688454 182.414879 219.587811 182.414879 220.525446 
C 182.414879 221.46308 182.787405 222.362438 183.450413 223.025446 
C 184.113421 223.688454 185.012779 224.06098 185.950413 224.06098 
z
" style="fill:#808080;stroke:#000000;stroke-width:0.4;"/>
    <path clip-path="url(#pfe34e1a3b6)" d="M 227.603306 328.97616 
C 228.54094 328.97616 229.440298 328.603634 230.103306 327.940626 
C 230.766314 327.277619 231.13884 326.378261 231.13884 325.440626 
C 231.13884 324.502992 230.766314 323.603634 230.103306 322.940626 
C 229.440298 322.277619 228.54094 321.905092 227.603306 321.905092 
C 226.665671 321.905092 225.766314 322.277619 225.103306 322.940626 
C 224.440298 323.603634 224.067772 324.502992 224.067772 325.440626 
C 224.067772 326.378261 224.440298 327.277619 225.103306 327.940626 
C 225.766314 328.603634 226.665671 328.97616 227.603306 328.97616 
z
" style="fill:#808080;stroke:#000000;stroke-width:0.4;"/>
    <path clip-path="url(#pfe34e1a3b6)" d="M 241.487603 328.97616 
C 242.425238 328.97616 243.324596 328.603634 243.987603 327.940626 
C 244.650611 327.277619 245.023137 326.378261 245.023137 325.440626 
C 245.023137 324.502992 244.650611 323.603634 243.987603 322.940626 
C 243.324596 322.277619 242.425238 321.905092 241.487603 321.905092 
C 240.549969 321.905092 239.650611 322.277619 238.987603 322.940626 
C 238.324596 323.603634 237.952069 324.502992 237.952069 325.440626 
C 237.952069 326.378261 238.324596 327.277619 238.987603 327.940626 
C 239.650611 328.603634 240.549969 328.97616 241.487603 328.97616 
z
" style="fill:#808080;stroke:#000000;stroke-width:0.4;"/>
    <path clip-path="url(#pfe34e1a3b6)" d="M 213.719008 328.97616 
C 214.656643 328.97616 215.556001 328.603634 216.219008 327.940626 
C 216.882016 327.277619 217.254542 326.378261 217.254542 325.440626 
C 217.254542 324.502992 216.882016 323.603634 216.219008 322.940626 
C 215.556001 322.277619 214.656643 321.905092 213.719008 321.905092 
C 212.781374 321.905092 211.882016 322.277619 211.219008 322.940626 
C 210.556001 323.603634 210.183474 324.502992 210.183474 325.440626 
C 210.183474 326.378261 210.556001 327.277619 211.219008 327.940626 
C 211.882016 328.603634 212.781374 328.97616 213.719008 328.97616 
z
" style="fill:#808080;stroke:#000000;stroke-width:0.4;"/>
    <path clip-path="url(#pfe34e1a3b6)" d="M 297.024793 349.959196 
C 297.962428 349.959196 298.861786 349.58667 299.524793 348.923662 
C 300.187801 348.260655 300.560327 347.361297 300.560327 346.423662 
C 300.560327 345.486028 300.187801 344.58667 299.524793 343.923662 
C 298.861786 343.260655 297.962428 342.888129 297.024793 342.888129 
C 296.087159 342.888129 295.187801 343.260655 294.524793 343.923662 
C 293.861786 344.58667 293.489259 345.486028 293.489259 346.423662 
C 293.489259 347.361297 293.861786 348.260655 294.524793 348.923662 
C 295.187801 349.58667 296.087159 349.959196 297.024793 349.959196 
z
" style="fill:#808080;stroke:#000000;stroke-width:0.4;"/>
    <path clip-path="url(#pfe34e1a3b6)" d="M 310.909091 349.959196 
C 311.846725 349.959196 312.746083 349.58667 313.409091 348.923662 
C 314.072099 348.260655 314.444625 347.361297 314.444625 346.423662 
C 314.444625 345.486028 314.072099 344.58667 313.409091 343.923662 
C 312.746083 343.260655 311.846725 342.888129 310.909091 342.888129 
C 309.971456 342.888129 309.072099 343.260655 308.409091 343.923662 
C 307.746083 344.58667 307.373557 345.486028 307.373557 346.423662 
C 307.373557 347.361297 307.746083 348.260655 308.409091 348.923662 
C 309.072099 349.58667 309.971456 349.959196 310.909091 349.959196 
z
" style="fill:#808080;stroke:#000000;stroke-width:0.4;"/>
    <path clip-path="url(#pfe34e1a3b6)" d="M 463.636364 433.891341 
C 464.573998 433.891341 465.473356 433.518815 466.136364 432.855807 
C 466.799371 432.192799 467.171898 431.293441 467.171898 430.355807 
C 467.171898 429.418172 466.799371 428.518815 466.136364 427.855807 
C 465.473356 427.192799 464.573998 426.820273 463.636364 426.820273 
C 462.698729 426.820273 461.799371 427.192799 461.136364 427.855807 
C 460.473356 428.518815 460.10083 429.418172 460.10083 430.355807 
C 460.10083 431.293441 460.473356 432.192799 461.136364 432.855807 
C 461.799371 433.518815 462.698729 433.891341 463.636364 433.891341 
z
" style="fill:#808080;stroke:#000000;stroke-width:0.4;"/>
    <path clip-path="url(#pfe34e1a3b6)" d="M 477.520661 433.891341 
C 478.458296 433.891341 479.357653 433.518815 480.020661 432.855807 
C 480.683669 432.192799 481.056195 431.293441 481.056195 430.355807 
C 481.056195 429.418172 480.683669 428.518815 480.020661 427.855807 
C 479.357653 427.192799 478.458296 426.820273 477.520661 426.820273 
C 476.583027 426.820273 475.683669 427.192799 475.020661 427.855807 
C 474.357653 428.518815 473.985127 429.418172 473.985127 430.355807 
C 473.985127 431.293441 474.357653 432.192799 475.020661 432.855807 
C 475.683669 433.518815 476.583027 433.891341 477.520661 433.891341 
z
" style="fill:#808080;stroke:#000000;stroke-width:0.4;"/>
    <path clip-path="url(#pfe34e1a3b6)" d="M 449.752066 433.891341 
C 450.689701 433.891341 451.589058 433.518815 452.252066 432.855807 
C 452.915074 432.192799 453.2876 431.293441 453.2876 430.355807 
C 453.2876 429.418172 452.915074 428.518815 452.252066 427.855807 
C 451.589058 427.192799 450.689701 426.820273 449.752066 426.820273 
C 448.814432 426.820273 447.915074 427.192799 447.252066 427.855807 
C 446.589058 428.518815 446.216532 429.418172 446.216532 430.355807 
C 446.216532 431.293441 446.589058 432.192799 447.252066 432.855807 
C 447.915074 433.518815 448.814432 433.891341 449.752066 433.891341 
z
" style="fill:#808080;stroke:#000000;stroke-width:0.4;"/>
    <path clip-path="url(#pfe34e1a3b6)" d="M 435.867769 433.891341 
C 436.805403 433.891341 437.704761 433.518815 438.367769 432.855807 
C 439.030776 432.192799 439.403303 431.293441 439.403303 430.355807 
C 439.403303 429.418172 439.030776 428.518815 438.367769 427.855807 
C 437.704761 427.192799 436.805403 426.820273 435.867769 426.820273 
C 434.930134 426.820273 434.030776 427.192799 433.367769 427.855807 
C 432.704761 428.518815 432.332235 429.418172 432.332235 430.355807 
C 432.332235 431.293441 432.704761 432.192799 433.367769 432.855807 
C 434.030776 433.518815 434.930134 433.891341 435.867769 433.891341 
z
" style="fill:#808080;stroke:#000000;stroke-width:0.4;"/>
    <path clip-path="url(#pfe34e1a3b6)" d="M 421.983471 433.891341 
C 422.921106 433.891341 423.820463 433.518815 424.483471 432.855807 
C 425.146479 432.192799 425.519005 431.293441 425.519005 430.355807 
C 425.519005 429.418172 425.146479 428.518815 424.483471 427.855807 
C 423.820463 427.192799 422.921106 426.820273 421.983471 426.820273 
C 421.045837 426.820273 420.146479 427.192799 419.483471 427.855807 
C 418.820463 428.518815 418.447937 429.418172 418.447937 430.355807 
C 418.447937 431.293441 418.820463 432.192799 419.483471 432.855807 
C 420.146479 433.518815 421.045837 433.891341 421.983471 433.891341 
z
" style="fill:#808080;stroke:#000000;stroke-width:0.4;"/>
    <path clip-path="url(#pfe34e1a3b6)" d="M 505.289256 391.925269 
C 506.226891 391.925269 507.126248 391.552742 507.789256 390.889735 
C 508.452264 390.226727 508.82479 389.327369 508.82479 388.389735 
C 508.82479 387.4521 508.452264 386.552742 507.789256 385.889735 
C 507.126248 385.226727 506.226891 384.854201 505.289256 384.854201 
C 504.351622 384.854201 503.452264 385.226727 502.789256 385.889735 
C 502.126248 386.552742 501.753722 387.4521 501.753722 388.389735 
C 501.753722 389.327369 502.126248 390.226727 502.789256 390.889735 
C 503.452264 391.552742 504.351622 391.925269 505.289256 391.925269 
z
" style="fill:#808080;stroke:#000000;stroke-width:0.4;"/>
    <path clip-path="url(#pfe34e1a3b6)" d="M 519.173554 391.925269 
C 520.111188 391.925269 521.010546 391.552742 521.673554 390.889735 
C 522.336561 390.226727 522.709088 389.327369 522.709088 388.389735 
C 522.709088 387.4521 522.336561 386.552742 521.673554 385.889735 
C 521.010546 385.226727 520.111188 384.854201 519.173554 384.854201 
C 518.235919 384.854201 517.336561 385.226727 516.673554 385.889735 
C 516.010546 386.552742 515.63802 387.4521 515.63802 388.389735 
C 515.63802 389.327369 516.010546 390.226727 516.673554 390.889735 
C 517.336561 391.552742 518.235919 391.925269 519.173554 391.925269 
z
" style="fill:#808080;stroke:#000000;stroke-width:0.4;"/>
    <path clip-path="url(#pfe34e1a3b6)" d="M 588.595041 435.355807 
C 589.921057 435.355807 591.192941 434.828975 592.130575 433.891341 
C 593.06821 432.953706 593.595041 431.681822 593.595041 430.355807 
C 593.595041 429.029791 593.06821 427.757908 592.130575 426.820273 
C 591.192941 425.882638 589.921057 425.355807 588.595041 425.355807 
C 587.269026 425.355807 585.997142 425.882638 585.059507 426.820273 
C 584.121873 427.757908 583.595041 429.029791 583.595041 430.355807 
C 583.595041 431.681822 584.121873 432.953706 585.059507 433.891341 
C 585.997142 434.828975 587.269026 435.355807 588.595041 435.355807 
z
" style="stroke:#000000;stroke-width:0.4;"/>
    <path clip-path="url(#pfe34e1a3b6)" d="M 574.710744 456.338843 
C 576.036759 456.338843 577.308643 455.812011 578.246278 454.874377 
C 579.183912 453.936742 579.710744 452.664858 579.710744 451.338843 
C 579.710744 450.012827 579.183912 448.740944 578.246278 447.803309 
C 577.308643 446.865675 576.036759 446.338843 574.710744 446.338843 
C 573.384728 446.338843 572.112844 446.865675 571.17521 447.803309 
C 570.237575 448.740944 569.710744 450.012827 569.710744 451.338843 
C 569.710744 452.664858 570.237575 453.936742 571.17521 454.874377 
C 572.112844 455.812011 573.384728 456.338843 574.710744 456.338843 
z
" style="stroke:#000000;stroke-width:0.4;"/>
    <path clip-path="url(#pfe34e1a3b6)" d="M 602.479339 433.891341 
C 603.416973 433.891341 604.316331 433.518815 604.979339 432.855807 
C 605.642347 432.192799 606.014873 431.293441 606.014873 430.355807 
C 606.014873 429.418172 605.642347 428.518815 604.979339 427.855807 
C 604.316331 427.192799 603.416973 426.820273 602.479339 426.820273 
C 601.541704 426.820273 600.642347 427.192799 599.979339 427.855807 
C 599.316331 428.518815 598.943805 429.418172 598.943805 430.355807 
C 598.943805 431.293441 599.316331 432.192799 599.979339 432.855807 
C 600.642347 433.518815 601.541704 433.891341 602.479339 433.891341 
z
" style="fill:#808080;stroke:#000000;stroke-width:0.4;"/>
    <path clip-path="url(#pfe34e1a3b6)" d="M 616.363636 393.389735 
C 617.689652 393.389735 618.961536 392.862903 619.89917 391.925269 
C 620.836805 390.987634 621.363636 389.71575 621.363636 388.389735 
C 621.363636 387.063719 620.836805 385.791835 619.89917 384.854201 
C 618.961536 383.916566 617.689652 383.389735 616.363636 383.389735 
C 615.037621 383.389735 613.765737 383.916566 612.828102 384.854201 
C 611.890468 385.791835 611.363636 387.063719 611.363636 388.389735 
C 611.363636 389.71575 611.890468 390.987634 612.828102 391.925269 
C 613.765737 392.862903 615.037621 393.389735 616.363636 393.389735 
z
" style="stroke:#000000;stroke-width:0.4;"/>
    <path clip-path="url(#pfe34e1a3b6)" d="M 630.247934 412.908305 
C 631.185568 412.908305 632.084926 412.535779 632.747934 411.872771 
C 633.410942 411.209763 633.783468 410.310405 633.783468 409.372771 
C 633.783468 408.435136 633.410942 407.535779 632.747934 406.872771 
C 632.084926 406.209763 631.185568 405.837237 630.247934 405.837237 
C 629.310299 405.837237 628.410942 406.209763 627.747934 406.872771 
C 627.084926 407.535779 626.7124 408.435136 626.7124 409.372771 
C 626.7124 410.310405 627.084926 411.209763 627.747934 411.872771 
C 628.410942 412.535779 629.310299 412.908305 630.247934 412.908305 
z
" style="fill:#808080;stroke:#000000;stroke-width:0.4;"/>
    <path clip-path="url(#pfe34e1a3b6)" d="M 671.900826 391.925269 
C 672.838461 391.925269 673.737819 391.552742 674.400826 390.889735 
C 675.063834 390.226727 675.43636 389.327369 675.43636 388.389735 
C 675.43636 387.4521 675.063834 386.552742 674.400826 385.889735 
C 673.737819 385.226727 672.838461 384.854201 671.900826 384.854201 
C 670.963192 384.854201 670.063834 385.226727 669.400826 385.889735 
C 668.737819 386.552742 668.365293 387.4521 668.365293 388.389735 
C 668.365293 389.327369 668.737819 390.226727 669.400826 390.889735 
C 670.063834 391.552742 670.963192 391.925269 671.900826 391.925269 
z
" style="fill:#808080;stroke:#000000;stroke-width:0.4;"/>
    <path clip-path="url(#pfe34e1a3b6)" d="M 685.785124 391.925269 
C 686.722759 391.925269 687.622116 391.552742 688.285124 390.889735 
C 688.948132 390.226727 689.320658 389.327369 689.320658 388.389735 
C 689.320658 387.4521 688.948132 386.552742 688.285124 385.889735 
C 687.622116 385.226727 686.722759 384.854201 685.785124 384.854201 
C 684.847489 384.854201 683.948132 385.226727 683.285124 385.889735 
C 682.622116 386.552742 682.24959 387.4521 682.24959 388.389735 
C 682.24959 389.327369 682.622116 390.226727 683.285124 390.889735 
C 683.948132 391.552742 684.847489 391.925269 685.785124 391.925269 
z
" style="fill:#808080;stroke:#000000;stroke-width:0.4;"/>
    <path clip-path="url(#pfe34e1a3b6)" d="M 658.016529 391.925269 
C 658.954163 391.925269 659.853521 391.552742 660.516529 390.889735 
C 661.179537 390.226727 661.552063 389.327369 661.552063 388.389735 
C 661.552063 387.4521 661.179537 386.552742 660.516529 385.889735 
C 659.853521 385.226727 658.954163 384.854201 658.016529 384.854201 
C 657.078894 384.854201 656.179537 385.226727 655.516529 385.889735 
C 654.853521 386.552742 654.480995 387.4521 654.480995 388.389735 
C 654.480995 389.327369 654.853521 390.226727 655.516529 390.889735 
C 656.179537 391.552742 657.078894 391.925269 658.016529 391.925269 
z
" style="fill:#808080;stroke:#000000;stroke-width:0.4;"/>
    <path clip-path="url(#pfe34e1a3b6)" d="M 644.132231 372.406699 
C 645.458247 372.406699 646.730131 371.879867 647.667765 370.942232 
C 648.6054 370.004598 649.132231 368.732714 649.132231 367.406699 
C 649.132231 366.080683 648.6054 364.808799 647.667765 363.871165 
C 646.730131 362.93353 645.458247 362.406699 644.132231 362.406699 
C 642.806216 362.406699 641.534332 362.93353 640.596697 363.871165 
C 639.659063 364.808799 639.132231 366.080683 639.132231 367.406699 
C 639.132231 368.732714 639.659063 370.004598 640.596697 370.942232 
C 641.534332 371.879867 642.806216 372.406699 644.132231 372.406699 
z
" style="stroke:#000000;stroke-width:0.4;"/>
    <path clip-path="url(#pfe34e1a3b6)" d="M 560.826446 372.406699 
C 562.152462 372.406699 563.424346 371.879867 564.36198 370.942232 
C 565.299615 370.004598 565.826446 368.732714 565.826446 367.406699 
C 565.826446 366.080683 565.299615 364.808799 564.36198 363.871165 
C 563.424346 362.93353 562.152462 362.406699 560.826446 362.406699 
C 559.500431 362.406699 558.228547 362.93353 557.290912 363.871165 
C 556.353278 364.808799 555.826446 366.080683 555.826446 367.406699 
C 555.826446 368.732714 556.353278 370.004598 557.290912 370.942232 
C 558.228547 371.879867 559.500431 372.406699 560.826446 372.406699 
z
" style="stroke:#000000;stroke-width:0.4;"/>
    <path clip-path="url(#pfe34e1a3b6)" d="M 546.942149 412.908305 
C 547.879783 412.908305 548.779141 412.535779 549.442149 411.872771 
C 550.105157 411.209763 550.477683 410.310405 550.477683 409.372771 
C 550.477683 408.435136 550.105157 407.535779 549.442149 406.872771 
C 548.779141 406.209763 547.879783 405.837237 546.942149 405.837237 
C 546.004514 405.837237 545.105157 406.209763 544.442149 406.872771 
C 543.779141 407.535779 543.406615 408.435136 543.406615 409.372771 
C 543.406615 410.310405 543.779141 411.209763 544.442149 411.872771 
C 545.105157 412.535779 546.004514 412.908305 546.942149 412.908305 
z
" style="fill:#808080;stroke:#000000;stroke-width:0.4;"/>
    <path clip-path="url(#pfe34e1a3b6)" d="M 699.669421 351.423662 
C 700.995437 351.423662 702.267321 350.896831 703.204955 349.959196 
C 704.14259 349.021562 704.669421 347.749678 704.669421 346.423662 
C 704.669421 345.097647 704.14259 343.825763 703.204955 342.888129 
C 702.267321 341.950494 700.995437 341.423662 699.669421 341.423662 
C 698.343406 341.423662 697.071522 341.950494 696.133888 342.888129 
C 695.196253 343.825763 694.669421 345.097647 694.669421 346.423662 
C 694.669421 347.749678 695.196253 349.021562 696.133888 349.959196 
C 697.071522 350.896831 698.343406 351.423662 699.669421 351.423662 
z
" style="stroke:#000000;stroke-width:0.4;"/>
    <path clip-path="url(#pfe34e1a3b6)" d="M 713.553719 349.959196 
C 714.491354 349.959196 715.390711 349.58667 716.053719 348.923662 
C 716.716727 348.260655 717.089253 347.361297 717.089253 346.423662 
C 717.089253 345.486028 716.716727 344.58667 716.053719 343.923662 
C 715.390711 343.260655 714.491354 342.888129 713.553719 342.888129 
C 712.616084 342.888129 711.716727 343.260655 711.053719 343.923662 
C 710.390711 344.58667 710.018185 345.486028 710.018185 346.423662 
C 710.018185 347.361297 710.390711 348.260655 711.053719 348.923662 
C 711.716727 349.58667 712.616084 349.959196 713.553719 349.959196 
z
" style="fill:#808080;stroke:#000000;stroke-width:0.4;"/>
    <path clip-path="url(#pfe34e1a3b6)" d="M 533.057851 351.423662 
C 534.383867 351.423662 535.655751 350.896831 536.593385 349.959196 
C 537.53102 349.021562 538.057851 347.749678 538.057851 346.423662 
C 538.057851 345.097647 537.53102 343.825763 536.593385 342.888129 
C 535.655751 341.950494 534.383867 341.423662 533.057851 341.423662 
C 531.731836 341.423662 530.459952 341.950494 529.522317 342.888129 
C 528.584683 343.825763 528.057851 345.097647 528.057851 346.423662 
C 528.057851 347.749678 528.584683 349.021562 529.522317 349.959196 
C 530.459952 350.896831 531.731836 351.423662 533.057851 351.423662 
z
" style="stroke:#000000;stroke-width:0.4;"/>
    <path clip-path="url(#pfe34e1a3b6)" d="M 491.404959 351.423662 
C 492.730974 351.423662 494.002858 350.896831 494.940493 349.959196 
C 495.878127 349.021562 496.404959 347.749678 496.404959 346.423662 
C 496.404959 345.097647 495.878127 343.825763 494.940493 342.888129 
C 494.002858 341.950494 492.730974 341.423662 491.404959 341.423662 
C 490.078943 341.423662 488.807059 341.950494 487.869425 342.888129 
C 486.93179 343.825763 486.404959 345.097647 486.404959 346.423662 
C 486.404959 347.749678 486.93179 349.021562 487.869425 349.959196 
C 488.807059 350.896831 490.078943 351.423662 491.404959 351.423662 
z
" style="stroke:#000000;stroke-width:0.4;"/>
    <path clip-path="url(#pfe34e1a3b6)" d="M 727.438017 330.440626 
C 728.764032 330.440626 730.035916 329.913795 730.97355 328.97616 
C 731.911185 328.038526 732.438017 326.766642 732.438017 325.440626 
C 732.438017 324.114611 731.911185 322.842727 730.97355 321.905092 
C 730.035916 320.967458 728.764032 320.440626 727.438017 320.440626 
C 726.112001 320.440626 724.840117 320.967458 723.902483 321.905092 
C 722.964848 322.842727 722.438017 324.114611 722.438017 325.440626 
C 722.438017 326.766642 722.964848 328.038526 723.902483 328.97616 
C 724.840117 329.913795 726.112001 330.440626 727.438017 330.440626 
z
" style="stroke:#000000;stroke-width:0.4;"/>
    <path clip-path="url(#pfe34e1a3b6)" d="M 741.322314 349.959196 
C 742.259949 349.959196 743.159306 349.58667 743.822314 348.923662 
C 744.485322 348.260655 744.857848 347.361297 744.857848 346.423662 
C 744.857848 345.486028 744.485322 344.58667 743.822314 343.923662 
C 743.159306 343.260655 742.259949 342.888129 741.322314 342.888129 
C 740.384679 342.888129 739.485322 343.260655 738.822314 343.923662 
C 738.159306 344.58667 737.78678 345.486028 737.78678 346.423662 
C 737.78678 347.361297 738.159306 348.260655 738.822314 348.923662 
C 739.485322 349.58667 740.384679 349.959196 741.322314 349.959196 
z
" style="fill:#808080;stroke:#000000;stroke-width:0.4;"/>
    <path clip-path="url(#pfe34e1a3b6)" d="M 408.099174 309.45759 
C 409.425189 309.45759 410.697073 308.930759 411.634707 307.993124 
C 412.572342 307.05549 413.099174 305.783606 413.099174 304.45759 
C 413.099174 303.131575 412.572342 301.859691 411.634707 300.922056 
C 410.697073 299.984422 409.425189 299.45759 408.099174 299.45759 
C 406.773158 299.45759 405.501274 299.984422 404.56364 300.922056 
C 403.626005 301.859691 403.099174 303.131575 403.099174 304.45759 
C 403.099174 305.783606 403.626005 307.05549 404.56364 307.993124 
C 405.501274 308.930759 406.773158 309.45759 408.099174 309.45759 
z
" style="stroke:#000000;stroke-width:0.4;"/>
    <path clip-path="url(#pfe34e1a3b6)" d="M 394.214876 328.97616 
C 395.152511 328.97616 396.051868 328.603634 396.714876 327.940626 
C 397.377884 327.277619 397.75041 326.378261 397.75041 325.440626 
C 397.75041 324.502992 397.377884 323.603634 396.714876 322.940626 
C 396.051868 322.277619 395.152511 321.905092 394.214876 321.905092 
C 393.277241 321.905092 392.377884 322.277619 391.714876 322.940626 
C 391.051868 323.603634 390.679342 324.502992 390.679342 325.440626 
C 390.679342 326.378261 391.051868 327.277619 391.714876 327.940626 
C 392.377884 328.603634 393.277241 328.97616 394.214876 328.97616 
z
" style="fill:#808080;stroke:#000000;stroke-width:0.4;"/>
    <path clip-path="url(#pfe34e1a3b6)" d="M 380.330579 309.45759 
C 381.656594 309.45759 382.928478 308.930759 383.866112 307.993124 
C 384.803747 307.05549 385.330579 305.783606 385.330579 304.45759 
C 385.330579 303.131575 384.803747 301.859691 383.866112 300.922056 
C 382.928478 299.984422 381.656594 299.45759 380.330579 299.45759 
C 379.004563 299.45759 377.732679 299.984422 376.795045 300.922056 
C 375.85741 301.859691 375.330579 303.131575 375.330579 304.45759 
C 375.330579 305.783606 375.85741 307.05549 376.795045 307.993124 
C 377.732679 308.930759 379.004563 309.45759 380.330579 309.45759 
z
" style="stroke:#000000;stroke-width:0.4;"/>
    <path clip-path="url(#pfe34e1a3b6)" d="M 366.446281 370.942232 
C 367.383916 370.942232 368.283273 370.569706 368.946281 369.906699 
C 369.609289 369.243691 369.981815 368.344333 369.981815 367.406699 
C 369.981815 366.469064 369.609289 365.569706 368.946281 364.906699 
C 368.283273 364.243691 367.383916 363.871165 366.446281 363.871165 
C 365.508646 363.871165 364.609289 364.243691 363.946281 364.906699 
C 363.283273 365.569706 362.910747 366.469064 362.910747 367.406699 
C 362.910747 368.344333 363.283273 369.243691 363.946281 369.906699 
C 364.609289 370.569706 365.508646 370.942232 366.446281 370.942232 
z
" style="fill:#808080;stroke:#000000;stroke-width:0.4;"/>
    <path clip-path="url(#pfe34e1a3b6)" d="M 352.561983 309.45759 
C 353.887999 309.45759 355.159883 308.930759 356.097517 307.993124 
C 357.035152 307.05549 357.561983 305.783606 357.561983 304.45759 
C 357.561983 303.131575 357.035152 301.859691 356.097517 300.922056 
C 355.159883 299.984422 353.887999 299.45759 352.561983 299.45759 
C 351.235968 299.45759 349.964084 299.984422 349.02645 300.922056 
C 348.088815 301.859691 347.561983 303.131575 347.561983 304.45759 
C 347.561983 305.783606 348.088815 307.05549 349.02645 307.993124 
C 349.964084 308.930759 351.235968 309.45759 352.561983 309.45759 
z
" style="stroke:#000000;stroke-width:0.4;"/>
    <path clip-path="url(#pfe34e1a3b6)" d="M 338.677686 328.97616 
C 339.615321 328.97616 340.514678 328.603634 341.177686 327.940626 
C 341.840694 327.277619 342.21322 326.378261 342.21322 325.440626 
C 342.21322 324.502992 341.840694 323.603634 341.177686 322.940626 
C 340.514678 322.277619 339.615321 321.905092 338.677686 321.905092 
C 337.740051 321.905092 336.840694 322.277619 336.177686 322.940626 
C 335.514678 323.603634 335.142152 324.502992 335.142152 325.440626 
C 335.142152 326.378261 335.514678 327.277619 336.177686 327.940626 
C 336.840694 328.603634 337.740051 328.97616 338.677686 328.97616 
z
" style="fill:#808080;stroke:#000000;stroke-width:0.4;"/>
    <path clip-path="url(#pfe34e1a3b6)" d="M 324.793388 288.474554 
C 326.119404 288.474554 327.391288 287.947723 328.328922 287.010088 
C 329.266557 286.072454 329.793388 284.80057 329.793388 283.474554 
C 329.793388 282.148539 329.266557 280.876655 328.328922 279.93902 
C 327.391288 279.001386 326.119404 278.474554 324.793388 278.474554 
C 323.467373 278.474554 322.195489 279.001386 321.257855 279.93902 
C 320.32022 280.876655 319.793388 282.148539 319.793388 283.474554 
C 319.793388 284.80057 320.32022 286.072454 321.257855 287.010088 
C 322.195489 287.947723 323.467373 288.474554 324.793388 288.474554 
z
" style="stroke:#000000;stroke-width:0.4;"/>
    <path clip-path="url(#pfe34e1a3b6)" d="M 283.140496 288.474554 
C 284.466511 288.474554 285.738395 287.947723 286.67603 287.010088 
C 287.613664 286.072454 288.140496 284.80057 288.140496 283.474554 
C 288.140496 282.148539 287.613664 280.876655 286.67603 279.93902 
C 285.738395 279.001386 284.466511 278.474554 283.140496 278.474554 
C 281.81448 278.474554 280.542597 279.001386 279.604962 279.93902 
C 278.667327 280.876655 278.140496 282.148539 278.140496 283.474554 
C 278.140496 284.80057 278.667327 286.072454 279.604962 287.010088 
C 280.542597 287.947723 281.81448 288.474554 283.140496 288.474554 
z
" style="stroke:#000000;stroke-width:0.4;"/>
    <path clip-path="url(#pfe34e1a3b6)" d="M 269.256198 349.959196 
C 270.193833 349.959196 271.093191 349.58667 271.756198 348.923662 
C 272.419206 348.260655 272.791732 347.361297 272.791732 346.423662 
C 272.791732 345.486028 272.419206 344.58667 271.756198 343.923662 
C 271.093191 343.260655 270.193833 342.888129 269.256198 342.888129 
C 268.318564 342.888129 267.419206 343.260655 266.756198 343.923662 
C 266.093191 344.58667 265.720664 345.486028 265.720664 346.423662 
C 265.720664 347.361297 266.093191 348.260655 266.756198 348.923662 
C 267.419206 349.58667 268.318564 349.959196 269.256198 349.959196 
z
" style="fill:#808080;stroke:#000000;stroke-width:0.4;"/>
    <path clip-path="url(#pfe34e1a3b6)" d="M 255.371901 288.474554 
C 256.697916 288.474554 257.9698 287.947723 258.907435 287.010088 
C 259.845069 286.072454 260.371901 284.80057 260.371901 283.474554 
C 260.371901 282.148539 259.845069 280.876655 258.907435 279.93902 
C 257.9698 279.001386 256.697916 278.474554 255.371901 278.474554 
C 254.045885 278.474554 252.774001 279.001386 251.836367 279.93902 
C 250.898732 280.876655 250.371901 282.148539 250.371901 283.474554 
C 250.371901 284.80057 250.898732 286.072454 251.836367 287.010088 
C 252.774001 287.947723 254.045885 288.474554 255.371901 288.474554 
z
" style="stroke:#000000;stroke-width:0.4;"/>
    <path clip-path="url(#pfe34e1a3b6)" d="M 769.090909 266.027052 
C 770.028544 266.027052 770.927901 265.654526 771.590909 264.991518 
C 772.253917 264.32851 772.626443 263.429153 772.626443 262.491518 
C 772.626443 261.553883 772.253917 260.654526 771.590909 259.991518 
C 770.927901 259.32851 770.028544 258.955984 769.090909 258.955984 
C 768.153275 258.955984 767.253917 259.32851 766.590909 259.991518 
C 765.927901 260.654526 765.555375 261.553883 765.555375 262.491518 
C 765.555375 263.429153 765.927901 264.32851 766.590909 264.991518 
C 767.253917 265.654526 768.153275 266.027052 769.090909 266.027052 
z
" style="fill:#808080;stroke:#000000;stroke-width:0.4;"/>
    <path clip-path="url(#pfe34e1a3b6)" d="M 782.975207 266.027052 
C 783.912841 266.027052 784.812199 265.654526 785.475207 264.991518 
C 786.138214 264.32851 786.510741 263.429153 786.510741 262.491518 
C 786.510741 261.553883 786.138214 260.654526 785.475207 259.991518 
C 784.812199 259.32851 783.912841 258.955984 782.975207 258.955984 
C 782.037572 258.955984 781.138214 259.32851 780.475207 259.991518 
C 779.812199 260.654526 779.439673 261.553883 779.439673 262.491518 
C 779.439673 263.429153 779.812199 264.32851 780.475207 264.991518 
C 781.138214 265.654526 782.037572 266.027052 782.975207 266.027052 
z
" style="fill:#808080;stroke:#000000;stroke-width:0.4;"/>
    <path clip-path="url(#pfe34e1a3b6)" d="M 755.206612 267.491518 
C 756.532627 267.491518 757.804511 266.964687 758.742145 266.027052 
C 759.67978 265.089417 760.206612 263.817534 760.206612 262.491518 
C 760.206612 261.165503 759.67978 259.893619 758.742145 258.955984 
C 757.804511 258.01835 756.532627 257.491518 755.206612 257.491518 
C 753.880596 257.491518 752.608712 258.01835 751.671078 258.955984 
C 750.733443 259.893619 750.206612 261.165503 750.206612 262.491518 
C 750.206612 263.817534 750.733443 265.089417 751.671078 266.027052 
C 752.608712 266.964687 753.880596 267.491518 755.206612 267.491518 
z
" style="stroke:#000000;stroke-width:0.4;"/>
    <path clip-path="url(#pfe34e1a3b6)" d="M 796.859504 246.508482 
C 798.18552 246.508482 799.457403 245.98165 800.395038 245.044016 
C 801.332673 244.106381 801.859504 242.834497 801.859504 241.508482 
C 801.859504 240.182466 801.332673 238.910583 800.395038 237.972948 
C 799.457403 237.035313 798.18552 236.508482 796.859504 236.508482 
C 795.533489 236.508482 794.261605 237.035313 793.32397 237.972948 
C 792.386336 238.910583 791.859504 240.182466 791.859504 241.508482 
C 791.859504 242.834497 792.386336 244.106381 793.32397 245.044016 
C 794.261605 245.98165 795.533489 246.508482 796.859504 246.508482 
z
" style="stroke:#000000;stroke-width:0.4;"/>
    <path clip-path="url(#pfe34e1a3b6)" d="M 810.743802 287.010088 
C 811.681436 287.010088 812.580794 286.637562 813.243802 285.974554 
C 813.906809 285.311546 814.279336 284.412189 814.279336 283.474554 
C 814.279336 282.53692 813.906809 281.637562 813.243802 280.974554 
C 812.580794 280.311546 811.681436 279.93902 810.743802 279.93902 
C 809.806167 279.93902 808.906809 280.311546 808.243802 280.974554 
C 807.580794 281.637562 807.208268 282.53692 807.208268 283.474554 
C 807.208268 284.412189 807.580794 285.311546 808.243802 285.974554 
C 808.906809 286.637562 809.806167 287.010088 810.743802 287.010088 
z
" style="fill:#808080;stroke:#000000;stroke-width:0.4;"/>
    <path clip-path="url(#pfe34e1a3b6)" d="M 199.834711 204.54241 
C 201.160726 204.54241 202.43261 204.015578 203.370245 203.077944 
C 204.307879 202.140309 204.834711 200.868425 204.834711 199.54241 
C 204.834711 198.216394 204.307879 196.94451 203.370245 196.006876 
C 202.43261 195.069241 201.160726 194.54241 199.834711 194.54241 
C 198.508695 194.54241 197.236811 195.069241 196.299177 196.006876 
C 195.361542 196.94451 194.834711 198.216394 194.834711 199.54241 
C 194.834711 200.868425 195.361542 202.140309 196.299177 203.077944 
C 197.236811 204.015578 198.508695 204.54241 199.834711 204.54241 
z
" style="stroke:#000000;stroke-width:0.4;"/>
    <path clip-path="url(#pfe34e1a3b6)" d="M 852.396694 182.094908 
C 853.334329 182.094908 854.233686 181.722381 854.896694 181.059374 
C 855.559702 180.396366 855.932228 179.497008 855.932228 178.559374 
C 855.932228 177.621739 855.559702 176.722381 854.896694 176.059374 
C 854.233686 175.396366 853.334329 175.02384 852.396694 175.02384 
C 851.45906 175.02384 850.559702 175.396366 849.896694 176.059374 
C 849.233686 176.722381 848.86116 177.621739 848.86116 178.559374 
C 848.86116 179.497008 849.233686 180.396366 849.896694 181.059374 
C 850.559702 181.722381 851.45906 182.094908 852.396694 182.094908 
z
" style="fill:#808080;stroke:#000000;stroke-width:0.4;"/>
    <path clip-path="url(#pfe34e1a3b6)" d="M 866.280992 182.094908 
C 867.218626 182.094908 868.117984 181.722381 868.780992 181.059374 
C 869.443999 180.396366 869.816526 179.497008 869.816526 178.559374 
C 869.816526 177.621739 869.443999 176.722381 868.780992 176.059374 
C 868.117984 175.396366 867.218626 175.02384 866.280992 175.02384 
C 865.343357 175.02384 864.443999 175.396366 863.780992 176.059374 
C 863.117984 176.722381 862.745458 177.621739 862.745458 178.559374 
C 862.745458 179.497008 863.117984 180.396366 863.780992 181.059374 
C 864.443999 181.722381 865.343357 182.094908 866.280992 182.094908 
z
" style="fill:#808080;stroke:#000000;stroke-width:0.4;"/>
    <path clip-path="url(#pfe34e1a3b6)" d="M 838.512397 182.094908 
C 839.450031 182.094908 840.349389 181.722381 841.012397 181.059374 
C 841.675404 180.396366 842.047931 179.497008 842.047931 178.559374 
C 842.047931 177.621739 841.675404 176.722381 841.012397 176.059374 
C 840.349389 175.396366 839.450031 175.02384 838.512397 175.02384 
C 837.574762 175.02384 836.675404 175.396366 836.012397 176.059374 
C 835.349389 176.722381 834.976863 177.621739 834.976863 178.559374 
C 834.976863 179.497008 835.349389 180.396366 836.012397 181.059374 
C 836.675404 181.722381 837.574762 182.094908 838.512397 182.094908 
z
" style="fill:#808080;stroke:#000000;stroke-width:0.4;"/>
    <path clip-path="url(#pfe34e1a3b6)" d="M 824.628099 183.559374 
C 825.954115 183.559374 827.225999 183.032542 828.163633 182.094908 
C 829.101268 181.157273 829.628099 179.885389 829.628099 178.559374 
C 829.628099 177.233358 829.101268 175.961474 828.163633 175.02384 
C 827.225999 174.086205 825.954115 173.559374 824.628099 173.559374 
C 823.302084 173.559374 822.0302 174.086205 821.092565 175.02384 
C 820.154931 175.961474 819.628099 177.233358 819.628099 178.559374 
C 819.628099 179.885389 820.154931 181.157273 821.092565 182.094908 
C 822.0302 183.032542 823.302084 183.559374 824.628099 183.559374 
z
" style="stroke:#000000;stroke-width:0.4;"/>
    <path clip-path="url(#pfe34e1a3b6)" d="M 880.165289 162.576338 
C 881.491305 162.576338 882.763189 162.049506 883.700823 161.111871 
C 884.638458 160.174237 885.165289 158.902353 885.165289 157.576338 
C 885.165289 156.250322 884.638458 154.978438 883.700823 154.040804 
C 882.763189 153.103169 881.491305 152.576338 880.165289 152.576338 
C 878.839274 152.576338 877.56739 153.103169 876.629755 154.040804 
C 875.692121 154.978438 875.165289 156.250322 875.165289 157.576338 
C 875.165289 158.902353 875.692121 160.174237 876.629755 161.111871 
C 877.56739 162.049506 878.839274 162.576338 880.165289 162.576338 
z
" style="stroke:#000000;stroke-width:0.4;"/>
    <path clip-path="url(#pfe34e1a3b6)" d="M 894.049587 182.094908 
C 894.987221 182.094908 895.886579 181.722381 896.549587 181.059374 
C 897.212595 180.396366 897.585121 179.497008 897.585121 178.559374 
C 897.585121 177.621739 897.212595 176.722381 896.549587 176.059374 
C 895.886579 175.396366 894.987221 175.02384 894.049587 175.02384 
C 893.111952 175.02384 892.212595 175.396366 891.549587 176.059374 
C 890.886579 176.722381 890.514053 177.621739 890.514053 178.559374 
C 890.514053 179.497008 890.886579 180.396366 891.549587 181.059374 
C 892.212595 181.722381 893.111952 182.094908 894.049587 182.094908 
z
" style="fill:#808080;stroke:#000000;stroke-width:0.4;"/>
    <path clip-path="url(#pfe34e1a3b6)" d="M 907.933884 120.610265 
C 909.2599 120.610265 910.531784 120.083434 911.469418 119.145799 
C 912.407053 118.208165 912.933884 116.936281 912.933884 115.610265 
C 912.933884 114.28425 912.407053 113.012366 911.469418 112.074731 
C 910.531784 111.137097 909.2599 110.610265 907.933884 110.610265 
C 906.607869 110.610265 905.335985 111.137097 904.39835 112.074731 
C 903.460716 113.012366 902.933884 114.28425 902.933884 115.610265 
C 902.933884 116.936281 903.460716 118.208165 904.39835 119.145799 
C 905.335985 120.083434 906.607869 120.610265 907.933884 120.610265 
z
" style="stroke:#000000;stroke-width:0.4;"/>
    <path clip-path="url(#pfe34e1a3b6)" d="M 921.818182 140.128835 
C 922.755816 140.128835 923.655174 139.756309 924.318182 139.093301 
C 924.98119 138.430294 925.353716 137.530936 925.353716 136.593301 
C 925.353716 135.655667 924.98119 134.756309 924.318182 134.093301 
C 923.655174 133.430294 922.755816 133.057768 921.818182 133.057768 
C 920.880547 133.057768 919.98119 133.430294 919.318182 134.093301 
C 918.655174 134.756309 918.282648 135.655667 918.282648 136.593301 
C 918.282648 137.530936 918.655174 138.430294 919.318182 139.093301 
C 919.98119 139.756309 920.880547 140.128835 921.818182 140.128835 
z
" style="fill:#808080;stroke:#000000;stroke-width:0.4;"/>
    <path clip-path="url(#pfe34e1a3b6)" d="M 963.471074 119.145799 
C 964.408709 119.145799 965.308067 118.773273 965.971074 118.110265 
C 966.634082 117.447258 967.006608 116.5479 967.006608 115.610265 
C 967.006608 114.672631 966.634082 113.773273 965.971074 113.110265 
C 965.308067 112.447258 964.408709 112.074731 963.471074 112.074731 
C 962.53344 112.074731 961.634082 112.447258 960.971074 113.110265 
C 960.308067 113.773273 959.93554 114.672631 959.93554 115.610265 
C 959.93554 116.5479 960.308067 117.447258 960.971074 118.110265 
C 961.634082 118.773273 962.53344 119.145799 963.471074 119.145799 
z
" style="fill:#808080;stroke:#000000;stroke-width:0.4;"/>
    <path clip-path="url(#pfe34e1a3b6)" d="M 977.355372 119.145799 
C 978.293006 119.145799 979.192364 118.773273 979.855372 118.110265 
C 980.51838 117.447258 980.890906 116.5479 980.890906 115.610265 
C 980.890906 114.672631 980.51838 113.773273 979.855372 113.110265 
C 979.192364 112.447258 978.293006 112.074731 977.355372 112.074731 
C 976.417737 112.074731 975.51838 112.447258 974.855372 113.110265 
C 974.192364 113.773273 973.819838 114.672631 973.819838 115.610265 
C 973.819838 116.5479 974.192364 117.447258 974.855372 118.110265 
C 975.51838 118.773273 976.417737 119.145799 977.355372 119.145799 
z
" style="fill:#808080;stroke:#000000;stroke-width:0.4;"/>
    <path clip-path="url(#pfe34e1a3b6)" d="M 949.586777 119.145799 
C 950.524411 119.145799 951.423769 118.773273 952.086777 118.110265 
C 952.749785 117.447258 953.122311 116.5479 953.122311 115.610265 
C 953.122311 114.672631 952.749785 113.773273 952.086777 113.110265 
C 951.423769 112.447258 950.524411 112.074731 949.586777 112.074731 
C 948.649142 112.074731 947.749785 112.447258 947.086777 113.110265 
C 946.423769 113.773273 946.051243 114.672631 946.051243 115.610265 
C 946.051243 116.5479 946.423769 117.447258 947.086777 118.110265 
C 947.749785 118.773273 948.649142 119.145799 949.586777 119.145799 
z
" style="fill:#808080;stroke:#000000;stroke-width:0.4;"/>
    <path clip-path="url(#pfe34e1a3b6)" d="M 935.702479 99.627229 
C 937.028495 99.627229 938.300379 99.100398 939.238013 98.162763 
C 940.175648 97.225129 940.702479 95.953245 940.702479 94.627229 
C 940.702479 93.301214 940.175648 92.02933 939.238013 91.091695 
C 938.300379 90.154061 937.028495 89.627229 935.702479 89.627229 
C 934.376464 89.627229 933.10458 90.154061 932.166945 91.091695 
C 931.229311 92.02933 930.702479 93.301214 930.702479 94.627229 
C 930.702479 95.953245 931.229311 97.225129 932.166945 98.162763 
C 933.10458 99.100398 934.376464 99.627229 935.702479 99.627229 
z
" style="stroke:#000000;stroke-width:0.4;"/>
    <path clip-path="url(#pfe34e1a3b6)" d="M 158.181818 78.644193 
C 159.507834 78.644193 160.779718 78.117362 161.717352 77.179727 
C 162.654987 76.242092 163.181818 74.970209 163.181818 73.644193 
C 163.181818 72.318178 162.654987 71.046294 161.717352 70.108659 
C 160.779718 69.171025 159.507834 68.644193 158.181818 68.644193 
C 156.855803 68.644193 155.583919 69.171025 154.646284 70.108659 
C 153.70865 71.046294 153.181818 72.318178 153.181818 73.644193 
C 153.181818 74.970209 153.70865 76.242092 154.646284 77.179727 
C 155.583919 78.117362 156.855803 78.644193 158.181818 78.644193 
z
" style="stroke:#000000;stroke-width:0.4;"/>
    <path clip-path="url(#pfe34e1a3b6)" d="M 144.297521 98.162763 
C 145.235155 98.162763 146.134513 97.790237 146.797521 97.127229 
C 147.460528 96.464221 147.833055 95.564864 147.833055 94.627229 
C 147.833055 93.689595 147.460528 92.790237 146.797521 92.127229 
C 146.134513 91.464221 145.235155 91.091695 144.297521 91.091695 
C 143.359886 91.091695 142.460528 91.464221 141.797521 92.127229 
C 141.134513 92.790237 140.761987 93.689595 140.761987 94.627229 
C 140.761987 95.564864 141.134513 96.464221 141.797521 97.127229 
C 142.460528 97.790237 143.359886 98.162763 144.297521 98.162763 
z
" style="fill:#808080;stroke:#000000;stroke-width:0.4;"/>
    <path clip-path="url(#pfe34e1a3b6)" d="M 130.413223 57.661157 
C 131.739239 57.661157 133.011122 57.134325 133.948757 56.196691 
C 134.886392 55.259056 135.413223 53.987173 135.413223 52.661157 
C 135.413223 51.335142 134.886392 50.063258 133.948757 49.125623 
C 133.011122 48.187989 131.739239 47.661157 130.413223 47.661157 
C 129.087208 47.661157 127.815324 48.187989 126.877689 49.125623 
C 125.940055 50.063258 125.413223 51.335142 125.413223 52.661157 
C 125.413223 53.987173 125.940055 55.259056 126.877689 56.196691 
C 127.815324 57.134325 129.087208 57.661157 130.413223 57.661157 
z
" style="stroke:#000000;stroke-width:0.4;"/>
   </g>
   <g id="line2d_1">
    <path clip-path="url(#pfe34e1a3b6)" d="M 588.595041 493.2 
L 588.595041 10.8 
" style="fill:none;stroke:#ff0000;stroke-linecap:square;stroke-width:1.5;"/>
   </g>
   <g id="patch_3">
    <path d="M 10.8 493.2 
L 10.8 10.8 
" style="fill:none;stroke:#000000;stroke-linecap:square;stroke-linejoin:miter;stroke-width:0.8;"/>
   </g>
   <g id="patch_4">
    <path d="M 1069.2 493.2 
L 1069.2 10.8 
" style="fill:none;stroke:#000000;stroke-linecap:square;stroke-linejoin:miter;stroke-width:0.8;"/>
   </g>
   <g id="patch_5">
    <path d="M 10.8 493.2 
L 1069.2 493.2 
" style="fill:none;stroke:#000000;stroke-linecap:square;stroke-linejoin:miter;stroke-width:0.8;"/>
   </g>
   <g id="patch_6">
    <path d="M 10.8 10.8 
L 1069.2 10.8 
" style="fill:none;stroke:#000000;stroke-linecap:square;stroke-linejoin:miter;stroke-width:0.8;"/>
   </g>
  </g>
 </g>
 <defs>
  <clipPath id="pfe34e1a3b6">
   <rect height="482.4" width="1058.4" x="10.8" y="10.8"/>
  </clipPath>
 </defs>
</svg>
