<?xml version="1.0" encoding="utf-8" standalone="no"?>
<!DOCTYPE svg PUBLIC "-//W3C//DTD SVG 1.1//EN"
  "http://www.w3.org/Graphics/SVG/1.1/DTD/svg11.dtd">
<svg height="504pt" version="1.1" viewBox="0 0 1080 504" width="1080pt" xmlns="http://www.w3.org/2000/svg" xmlns:xlink="http://www.w3.org/1999/xlink">
 <metadata>
  <rdf:RDF xmlns:cc="http://creativecommons.org/ns#" xmlns:dc="http://purl.org/dc/elements/1.1/" xmlns:rdf="http://www.w3.org/1999/02/22-rdf-syntax-ns#">
   <cc:Work>
    <dc:type rdf:resource="http://purl.org/dc/dcmitype/StillImage"/>
    <dc:date>2022-04-03T07:42:33.775378</dc:date>
    <dc:format>image/svg+xml</dc:format>
    <dc:creator>
     <cc:Agent>
      <dc:title>Matplotlib v3.4.3, https://matplotlib.org/</dc:title>
     </cc:Agent>
    </dc:creator>
   </cc:Work>
  </rdf:RDF>
 </metadata>
 <defs>
  <style type="text/css">*{stroke-linecap:butt;stroke-linejoin:round;}</style>
 </defs>
 <g id="figure_1">
  <g id="patch_1">
   <path d="M 0 504 
L 1080 504 
L 1080 0 
L 0 0 
z
" style="fill:#ffffff;"/>
  </g>
  <g id="axes_1">
   <g id="patch_2">
    <path d="M 10.8 493.2 
L 1069.2 493.2 
L 1069.2 10.8 
L 10.8 10.8 
z
" style="fill:#ffffff;"/>
   </g>
   <g id="LineCollection_1">
    <path clip-path="url(#p545fb4fea5)" d="M 102.644628 73.644193 
L 112.698775 73.644193 
" style="fill:none;stroke:#000000;stroke-width:0.4;"/>
    <path clip-path="url(#p545fb4fea5)" d="M 102.644628 73.644193 
L 122.752921 52.661157 
" style="fill:none;stroke:#000000;stroke-width:0.4;"/>
    <path clip-path="url(#p545fb4fea5)" d="M 203.186093 178.559374 
L 213.240239 178.559374 
" style="fill:none;stroke:#000000;stroke-width:0.4;"/>
    <path clip-path="url(#p545fb4fea5)" d="M 203.186093 178.559374 
L 193.131946 178.559374 
" style="fill:none;stroke:#000000;stroke-width:0.4;"/>
    <path clip-path="url(#p545fb4fea5)" d="M 193.131946 178.559374 
L 223.294386 157.576338 
" style="fill:none;stroke:#000000;stroke-width:0.4;"/>
    <path clip-path="url(#p545fb4fea5)" d="M 233.348532 178.559374 
L 243.402679 178.559374 
" style="fill:none;stroke:#000000;stroke-width:0.4;"/>
    <path clip-path="url(#p545fb4fea5)" d="M 233.348532 178.559374 
L 253.456825 157.576338 
" style="fill:none;stroke:#000000;stroke-width:0.4;"/>
    <path clip-path="url(#p545fb4fea5)" d="M 303.727558 220.525446 
L 313.781704 220.525446 
" style="fill:none;stroke:#000000;stroke-width:0.4;"/>
    <path clip-path="url(#p545fb4fea5)" d="M 303.727558 220.525446 
L 323.835851 199.54241 
" style="fill:none;stroke:#000000;stroke-width:0.4;"/>
    <path clip-path="url(#p545fb4fea5)" d="M 374.106583 283.474554 
L 384.16073 283.474554 
" style="fill:none;stroke:#000000;stroke-width:0.4;"/>
    <path clip-path="url(#p545fb4fea5)" d="M 374.106583 283.474554 
L 364.052437 283.474554 
" style="fill:none;stroke:#000000;stroke-width:0.4;"/>
    <path clip-path="url(#p545fb4fea5)" d="M 364.052437 283.474554 
L 353.99829 283.474554 
" style="fill:none;stroke:#000000;stroke-width:0.4;"/>
    <path clip-path="url(#p545fb4fea5)" d="M 353.99829 283.474554 
L 394.214876 241.508482 
" style="fill:none;stroke:#000000;stroke-width:0.4;"/>
    <path clip-path="url(#p545fb4fea5)" d="M 414.323169 283.474554 
L 424.377315 283.474554 
" style="fill:none;stroke:#000000;stroke-width:0.4;"/>
    <path clip-path="url(#p545fb4fea5)" d="M 414.323169 283.474554 
L 404.269023 283.474554 
" style="fill:none;stroke:#000000;stroke-width:0.4;"/>
    <path clip-path="url(#p545fb4fea5)" d="M 404.269023 283.474554 
L 434.431462 262.491518 
" style="fill:none;stroke:#000000;stroke-width:0.4;"/>
    <path clip-path="url(#p545fb4fea5)" d="M 444.485608 325.440626 
L 454.539755 325.440626 
" style="fill:none;stroke:#000000;stroke-width:0.4;"/>
    <path clip-path="url(#p545fb4fea5)" d="M 444.485608 325.440626 
L 464.593901 262.491518 
" style="fill:none;stroke:#000000;stroke-width:0.4;"/>
    <path clip-path="url(#p545fb4fea5)" d="M 474.648048 325.440626 
L 484.702194 325.440626 
" style="fill:none;stroke:#000000;stroke-width:0.4;"/>
    <path clip-path="url(#p545fb4fea5)" d="M 474.648048 325.440626 
L 494.756341 262.491518 
" style="fill:none;stroke:#000000;stroke-width:0.4;"/>
    <path clip-path="url(#p545fb4fea5)" d="M 534.972927 346.423662 
L 545.027073 346.423662 
" style="fill:none;stroke:#000000;stroke-width:0.4;"/>
    <path clip-path="url(#p545fb4fea5)" d="M 534.972927 346.423662 
L 524.91878 346.423662 
" style="fill:none;stroke:#000000;stroke-width:0.4;"/>
    <path clip-path="url(#p545fb4fea5)" d="M 524.91878 346.423662 
L 555.08122 262.491518 
" style="fill:none;stroke:#000000;stroke-width:0.4;"/>
    <path clip-path="url(#p545fb4fea5)" d="M 585.243659 367.406699 
L 595.297806 367.406699 
" style="fill:none;stroke:#000000;stroke-width:0.4;"/>
    <path clip-path="url(#p545fb4fea5)" d="M 585.243659 367.406699 
L 605.351952 346.423662 
" style="fill:none;stroke:#000000;stroke-width:0.4;"/>
    <path clip-path="url(#p545fb4fea5)" d="M 655.622685 388.389735 
L 665.676831 388.389735 
" style="fill:none;stroke:#000000;stroke-width:0.4;"/>
    <path clip-path="url(#p545fb4fea5)" d="M 655.622685 388.389735 
L 645.568538 388.389735 
" style="fill:none;stroke:#000000;stroke-width:0.4;"/>
    <path clip-path="url(#p545fb4fea5)" d="M 645.568538 388.389735 
L 635.514392 388.389735 
" style="fill:none;stroke:#000000;stroke-width:0.4;"/>
    <path clip-path="url(#p545fb4fea5)" d="M 635.514392 388.389735 
L 625.460245 388.389735 
" style="fill:none;stroke:#000000;stroke-width:0.4;"/>
    <path clip-path="url(#p545fb4fea5)" d="M 625.460245 388.389735 
L 615.406099 388.389735 
" style="fill:none;stroke:#000000;stroke-width:0.4;"/>
    <path clip-path="url(#p545fb4fea5)" d="M 615.406099 388.389735 
L 675.730977 346.423662 
" style="fill:none;stroke:#000000;stroke-width:0.4;"/>
    <path clip-path="url(#p545fb4fea5)" d="M 685.785124 388.389735 
L 695.83927 388.389735 
" style="fill:none;stroke:#000000;stroke-width:0.4;"/>
    <path clip-path="url(#p545fb4fea5)" d="M 685.785124 388.389735 
L 705.893417 367.406699 
" style="fill:none;stroke:#000000;stroke-width:0.4;"/>
    <path clip-path="url(#p545fb4fea5)" d="M 756.164149 451.338843 
L 766.218296 451.338843 
" style="fill:none;stroke:#000000;stroke-width:0.4;"/>
    <path clip-path="url(#p545fb4fea5)" d="M 756.164149 451.338843 
L 746.110003 451.338843 
" style="fill:none;stroke:#000000;stroke-width:0.4;"/>
    <path clip-path="url(#p545fb4fea5)" d="M 746.110003 451.338843 
L 736.055856 451.338843 
" style="fill:none;stroke:#000000;stroke-width:0.4;"/>
    <path clip-path="url(#p545fb4fea5)" d="M 736.055856 451.338843 
L 776.272442 388.389735 
" style="fill:none;stroke:#000000;stroke-width:0.4;"/>
    <path clip-path="url(#p545fb4fea5)" d="M 816.489028 451.338843 
L 826.543175 451.338843 
" style="fill:none;stroke:#000000;stroke-width:0.4;"/>
    <path clip-path="url(#p545fb4fea5)" d="M 816.489028 451.338843 
L 806.434882 451.338843 
" style="fill:none;stroke:#000000;stroke-width:0.4;"/>
    <path clip-path="url(#p545fb4fea5)" d="M 806.434882 451.338843 
L 836.597321 409.372771 
" style="fill:none;stroke:#000000;stroke-width:0.4;"/>
    <path clip-path="url(#p545fb4fea5)" d="M 836.597321 409.372771 
L 846.651468 430.355807 
" style="fill:none;stroke:#000000;stroke-width:0.4;"/>
    <path clip-path="url(#p545fb4fea5)" d="M 836.597321 409.372771 
L 796.380735 409.372771 
" style="fill:none;stroke:#000000;stroke-width:0.4;"/>
    <path clip-path="url(#p545fb4fea5)" d="M 796.380735 409.372771 
L 786.326589 451.338843 
" style="fill:none;stroke:#000000;stroke-width:0.4;"/>
    <path clip-path="url(#p545fb4fea5)" d="M 796.380735 409.372771 
L 776.272442 388.389735 
" style="fill:none;stroke:#000000;stroke-width:0.4;"/>
    <path clip-path="url(#p545fb4fea5)" d="M 776.272442 388.389735 
L 726.00171 367.406699 
" style="fill:none;stroke:#000000;stroke-width:0.4;"/>
    <path clip-path="url(#p545fb4fea5)" d="M 726.00171 367.406699 
L 715.947563 409.372771 
" style="fill:none;stroke:#000000;stroke-width:0.4;"/>
    <path clip-path="url(#p545fb4fea5)" d="M 726.00171 367.406699 
L 705.893417 367.406699 
" style="fill:none;stroke:#000000;stroke-width:0.4;"/>
    <path clip-path="url(#p545fb4fea5)" d="M 705.893417 367.406699 
L 675.730977 346.423662 
" style="fill:none;stroke:#000000;stroke-width:0.4;"/>
    <path clip-path="url(#p545fb4fea5)" d="M 675.730977 346.423662 
L 605.351952 346.423662 
" style="fill:none;stroke:#000000;stroke-width:0.4;"/>
    <path clip-path="url(#p545fb4fea5)" d="M 605.351952 346.423662 
L 575.189513 346.423662 
" style="fill:none;stroke:#000000;stroke-width:0.4;"/>
    <path clip-path="url(#p545fb4fea5)" d="M 575.189513 346.423662 
L 565.135366 388.389735 
" style="fill:none;stroke:#000000;stroke-width:0.4;"/>
    <path clip-path="url(#p545fb4fea5)" d="M 575.189513 346.423662 
L 856.705614 283.474554 
" style="fill:none;stroke:#000000;stroke-width:0.4;"/>
    <path clip-path="url(#p545fb4fea5)" d="M 876.813907 283.474554 
L 886.868054 283.474554 
" style="fill:none;stroke:#000000;stroke-width:0.4;"/>
    <path clip-path="url(#p545fb4fea5)" d="M 876.813907 283.474554 
L 866.759761 283.474554 
" style="fill:none;stroke:#000000;stroke-width:0.4;"/>
    <path clip-path="url(#p545fb4fea5)" d="M 866.759761 283.474554 
L 856.705614 283.474554 
" style="fill:none;stroke:#000000;stroke-width:0.4;"/>
    <path clip-path="url(#p545fb4fea5)" d="M 856.705614 283.474554 
L 555.08122 262.491518 
" style="fill:none;stroke:#000000;stroke-width:0.4;"/>
    <path clip-path="url(#p545fb4fea5)" d="M 555.08122 262.491518 
L 514.864634 262.491518 
" style="fill:none;stroke:#000000;stroke-width:0.4;"/>
    <path clip-path="url(#p545fb4fea5)" d="M 514.864634 262.491518 
L 504.810487 346.423662 
" style="fill:none;stroke:#000000;stroke-width:0.4;"/>
    <path clip-path="url(#p545fb4fea5)" d="M 514.864634 262.491518 
L 494.756341 262.491518 
" style="fill:none;stroke:#000000;stroke-width:0.4;"/>
    <path clip-path="url(#p545fb4fea5)" d="M 494.756341 262.491518 
L 464.593901 262.491518 
" style="fill:none;stroke:#000000;stroke-width:0.4;"/>
    <path clip-path="url(#p545fb4fea5)" d="M 464.593901 262.491518 
L 434.431462 262.491518 
" style="fill:none;stroke:#000000;stroke-width:0.4;"/>
    <path clip-path="url(#p545fb4fea5)" d="M 434.431462 262.491518 
L 394.214876 241.508482 
" style="fill:none;stroke:#000000;stroke-width:0.4;"/>
    <path clip-path="url(#p545fb4fea5)" d="M 394.214876 241.508482 
L 343.944144 241.508482 
" style="fill:none;stroke:#000000;stroke-width:0.4;"/>
    <path clip-path="url(#p545fb4fea5)" d="M 343.944144 241.508482 
L 333.889997 283.474554 
" style="fill:none;stroke:#000000;stroke-width:0.4;"/>
    <path clip-path="url(#p545fb4fea5)" d="M 343.944144 241.508482 
L 896.9222 199.54241 
" style="fill:none;stroke:#000000;stroke-width:0.4;"/>
    <path clip-path="url(#p545fb4fea5)" d="M 906.976347 220.525446 
L 917.030493 220.525446 
" style="fill:none;stroke:#000000;stroke-width:0.4;"/>
    <path clip-path="url(#p545fb4fea5)" d="M 906.976347 220.525446 
L 896.9222 199.54241 
" style="fill:none;stroke:#000000;stroke-width:0.4;"/>
    <path clip-path="url(#p545fb4fea5)" d="M 896.9222 199.54241 
L 323.835851 199.54241 
" style="fill:none;stroke:#000000;stroke-width:0.4;"/>
    <path clip-path="url(#p545fb4fea5)" d="M 323.835851 199.54241 
L 293.673411 157.576338 
" style="fill:none;stroke:#000000;stroke-width:0.4;"/>
    <path clip-path="url(#p545fb4fea5)" d="M 293.673411 157.576338 
L 283.619265 178.559374 
" style="fill:none;stroke:#000000;stroke-width:0.4;"/>
    <path clip-path="url(#p545fb4fea5)" d="M 293.673411 157.576338 
L 273.565118 157.576338 
" style="fill:none;stroke:#000000;stroke-width:0.4;"/>
    <path clip-path="url(#p545fb4fea5)" d="M 273.565118 157.576338 
L 263.510972 178.559374 
" style="fill:none;stroke:#000000;stroke-width:0.4;"/>
    <path clip-path="url(#p545fb4fea5)" d="M 273.565118 157.576338 
L 253.456825 157.576338 
" style="fill:none;stroke:#000000;stroke-width:0.4;"/>
    <path clip-path="url(#p545fb4fea5)" d="M 253.456825 157.576338 
L 223.294386 157.576338 
" style="fill:none;stroke:#000000;stroke-width:0.4;"/>
    <path clip-path="url(#p545fb4fea5)" d="M 223.294386 157.576338 
L 183.0778 136.593301 
" style="fill:none;stroke:#000000;stroke-width:0.4;"/>
    <path clip-path="url(#p545fb4fea5)" d="M 183.0778 136.593301 
L 173.023653 157.576338 
" style="fill:none;stroke:#000000;stroke-width:0.4;"/>
    <path clip-path="url(#p545fb4fea5)" d="M 183.0778 136.593301 
L 162.969507 136.593301 
" style="fill:none;stroke:#000000;stroke-width:0.4;"/>
    <path clip-path="url(#p545fb4fea5)" d="M 162.969507 136.593301 
L 152.915361 157.576338 
" style="fill:none;stroke:#000000;stroke-width:0.4;"/>
    <path clip-path="url(#p545fb4fea5)" d="M 162.969507 136.593301 
L 142.861214 136.593301 
" style="fill:none;stroke:#000000;stroke-width:0.4;"/>
    <path clip-path="url(#p545fb4fea5)" d="M 142.861214 136.593301 
L 132.807068 241.508482 
" style="fill:none;stroke:#000000;stroke-width:0.4;"/>
    <path clip-path="url(#p545fb4fea5)" d="M 142.861214 136.593301 
L 927.084639 94.627229 
" style="fill:none;stroke:#000000;stroke-width:0.4;"/>
    <path clip-path="url(#p545fb4fea5)" d="M 947.192932 136.593301 
L 957.247079 136.593301 
" style="fill:none;stroke:#000000;stroke-width:0.4;"/>
    <path clip-path="url(#p545fb4fea5)" d="M 947.192932 136.593301 
L 937.138786 136.593301 
" style="fill:none;stroke:#000000;stroke-width:0.4;"/>
    <path clip-path="url(#p545fb4fea5)" d="M 937.138786 136.593301 
L 927.084639 94.627229 
" style="fill:none;stroke:#000000;stroke-width:0.4;"/>
    <path clip-path="url(#p545fb4fea5)" d="M 927.084639 94.627229 
L 967.301225 73.644193 
" style="fill:none;stroke:#000000;stroke-width:0.4;"/>
    <path clip-path="url(#p545fb4fea5)" d="M 967.301225 73.644193 
L 977.355372 94.627229 
" style="fill:none;stroke:#000000;stroke-width:0.4;"/>
    <path clip-path="url(#p545fb4fea5)" d="M 967.301225 73.644193 
L 122.752921 52.661157 
" style="fill:none;stroke:#000000;stroke-width:0.4;"/>
   </g>
   <g id="matplotlib.axis_1">
    <g id="xtick_1"/>
    <g id="xtick_2"/>
    <g id="xtick_3"/>
    <g id="xtick_4"/>
    <g id="xtick_5"/>
   </g>
   <g id="matplotlib.axis_2">
    <g id="ytick_1"/>
    <g id="ytick_2"/>
    <g id="ytick_3"/>
    <g id="ytick_4"/>
    <g id="ytick_5"/>
   </g>
   <g id="PathCollection_1">
    <path clip-path="url(#p545fb4fea5)" d="M 102.644628 77.179727 
C 103.582263 77.179727 104.48162 76.807201 105.144628 76.144193 
C 105.807636 75.481185 106.180162 74.581828 106.180162 73.644193 
C 106.180162 72.706559 105.807636 71.807201 105.144628 71.144193 
C 104.48162 70.481185 103.582263 70.108659 102.644628 70.108659 
C 101.706994 70.108659 100.807636 70.481185 100.144628 71.144193 
C 99.48162 71.807201 99.109094 72.706559 99.109094 73.644193 
C 99.109094 74.581828 99.48162 75.481185 100.144628 76.144193 
C 100.807636 76.807201 101.706994 77.179727 102.644628 77.179727 
z
" style="fill:#808080;stroke:#000000;stroke-width:0.4;"/>
    <path clip-path="url(#p545fb4fea5)" d="M 112.698775 77.179727 
C 113.636409 77.179727 114.535767 76.807201 115.198775 76.144193 
C 115.861782 75.481185 116.234308 74.581828 116.234308 73.644193 
C 116.234308 72.706559 115.861782 71.807201 115.198775 71.144193 
C 114.535767 70.481185 113.636409 70.108659 112.698775 70.108659 
C 111.76114 70.108659 110.861782 70.481185 110.198775 71.144193 
C 109.535767 71.807201 109.163241 72.706559 109.163241 73.644193 
C 109.163241 74.581828 109.535767 75.481185 110.198775 76.144193 
C 110.861782 76.807201 111.76114 77.179727 112.698775 77.179727 
z
" style="fill:#808080;stroke:#000000;stroke-width:0.4;"/>
    <path clip-path="url(#p545fb4fea5)" d="M 203.186093 182.094908 
C 204.123727 182.094908 205.023085 181.722381 205.686093 181.059374 
C 206.349101 180.396366 206.721627 179.497008 206.721627 178.559374 
C 206.721627 177.621739 206.349101 176.722381 205.686093 176.059374 
C 205.023085 175.396366 204.123727 175.02384 203.186093 175.02384 
C 202.248458 175.02384 201.349101 175.396366 200.686093 176.059374 
C 200.023085 176.722381 199.650559 177.621739 199.650559 178.559374 
C 199.650559 179.497008 200.023085 180.396366 200.686093 181.059374 
C 201.349101 181.722381 202.248458 182.094908 203.186093 182.094908 
z
" style="fill:#808080;stroke:#000000;stroke-width:0.4;"/>
    <path clip-path="url(#p545fb4fea5)" d="M 213.240239 182.094908 
C 214.177874 182.094908 215.077232 181.722381 215.740239 181.059374 
C 216.403247 180.396366 216.775773 179.497008 216.775773 178.559374 
C 216.775773 177.621739 216.403247 176.722381 215.740239 176.059374 
C 215.077232 175.396366 214.177874 175.02384 213.240239 175.02384 
C 212.302605 175.02384 211.403247 175.396366 210.740239 176.059374 
C 210.077232 176.722381 209.704705 177.621739 209.704705 178.559374 
C 209.704705 179.497008 210.077232 180.396366 210.740239 181.059374 
C 211.403247 181.722381 212.302605 182.094908 213.240239 182.094908 
z
" style="fill:#808080;stroke:#000000;stroke-width:0.4;"/>
    <path clip-path="url(#p545fb4fea5)" d="M 193.131946 182.094908 
C 194.069581 182.094908 194.968939 181.722381 195.631946 181.059374 
C 196.294954 180.396366 196.66748 179.497008 196.66748 178.559374 
C 196.66748 177.621739 196.294954 176.722381 195.631946 176.059374 
C 194.968939 175.396366 194.069581 175.02384 193.131946 175.02384 
C 192.194312 175.02384 191.294954 175.396366 190.631946 176.059374 
C 189.968939 176.722381 189.596413 177.621739 189.596413 178.559374 
C 189.596413 179.497008 189.968939 180.396366 190.631946 181.059374 
C 191.294954 181.722381 192.194312 182.094908 193.131946 182.094908 
z
" style="fill:#808080;stroke:#000000;stroke-width:0.4;"/>
    <path clip-path="url(#p545fb4fea5)" d="M 233.348532 182.094908 
C 234.286167 182.094908 235.185525 181.722381 235.848532 181.059374 
C 236.51154 180.396366 236.884066 179.497008 236.884066 178.559374 
C 236.884066 177.621739 236.51154 176.722381 235.848532 176.059374 
C 235.185525 175.396366 234.286167 175.02384 233.348532 175.02384 
C 232.410898 175.02384 231.51154 175.396366 230.848532 176.059374 
C 230.185525 176.722381 229.812998 177.621739 229.812998 178.559374 
C 229.812998 179.497008 230.185525 180.396366 230.848532 181.059374 
C 231.51154 181.722381 232.410898 182.094908 233.348532 182.094908 
z
" style="fill:#808080;stroke:#000000;stroke-width:0.4;"/>
    <path clip-path="url(#p545fb4fea5)" d="M 243.402679 182.094908 
C 244.340313 182.094908 245.239671 181.722381 245.902679 181.059374 
C 246.565687 180.396366 246.938213 179.497008 246.938213 178.559374 
C 246.938213 177.621739 246.565687 176.722381 245.902679 176.059374 
C 245.239671 175.396366 244.340313 175.02384 243.402679 175.02384 
C 242.465044 175.02384 241.565687 175.396366 240.902679 176.059374 
C 240.239671 176.722381 239.867145 177.621739 239.867145 178.559374 
C 239.867145 179.497008 240.239671 180.396366 240.902679 181.059374 
C 241.565687 181.722381 242.465044 182.094908 243.402679 182.094908 
z
" style="fill:#808080;stroke:#000000;stroke-width:0.4;"/>
    <path clip-path="url(#p545fb4fea5)" d="M 303.727558 224.06098 
C 304.665192 224.06098 305.56455 223.688454 306.227558 223.025446 
C 306.890565 222.362438 307.263092 221.46308 307.263092 220.525446 
C 307.263092 219.587811 306.890565 218.688454 306.227558 218.025446 
C 305.56455 217.362438 304.665192 216.989912 303.727558 216.989912 
C 302.789923 216.989912 301.890565 217.362438 301.227558 218.025446 
C 300.56455 218.688454 300.192024 219.587811 300.192024 220.525446 
C 300.192024 221.46308 300.56455 222.362438 301.227558 223.025446 
C 301.890565 223.688454 302.789923 224.06098 303.727558 224.06098 
z
" style="fill:#808080;stroke:#000000;stroke-width:0.4;"/>
    <path clip-path="url(#p545fb4fea5)" d="M 313.781704 224.06098 
C 314.719339 224.06098 315.618696 223.688454 316.281704 223.025446 
C 316.944712 222.362438 317.317238 221.46308 317.317238 220.525446 
C 317.317238 219.587811 316.944712 218.688454 316.281704 218.025446 
C 315.618696 217.362438 314.719339 216.989912 313.781704 216.989912 
C 312.84407 216.989912 311.944712 217.362438 311.281704 218.025446 
C 310.618696 218.688454 310.24617 219.587811 310.24617 220.525446 
C 310.24617 221.46308 310.618696 222.362438 311.281704 223.025446 
C 311.944712 223.688454 312.84407 224.06098 313.781704 224.06098 
z
" style="fill:#808080;stroke:#000000;stroke-width:0.4;"/>
    <path clip-path="url(#p545fb4fea5)" d="M 374.106583 287.010088 
C 375.044218 287.010088 375.943575 286.637562 376.606583 285.974554 
C 377.269591 285.311546 377.642117 284.412189 377.642117 283.474554 
C 377.642117 282.53692 377.269591 281.637562 376.606583 280.974554 
C 375.943575 280.311546 375.044218 279.93902 374.106583 279.93902 
C 373.168949 279.93902 372.269591 280.311546 371.606583 280.974554 
C 370.943575 281.637562 370.571049 282.53692 370.571049 283.474554 
C 370.571049 284.412189 370.943575 285.311546 371.606583 285.974554 
C 372.269591 286.637562 373.168949 287.010088 374.106583 287.010088 
z
" style="fill:#808080;stroke:#000000;stroke-width:0.4;"/>
    <path clip-path="url(#p545fb4fea5)" d="M 384.16073 287.010088 
C 385.098364 287.010088 385.997722 286.637562 386.66073 285.974554 
C 387.323737 285.311546 387.696263 284.412189 387.696263 283.474554 
C 387.696263 282.53692 387.323737 281.637562 386.66073 280.974554 
C 385.997722 280.311546 385.098364 279.93902 384.16073 279.93902 
C 383.223095 279.93902 382.323737 280.311546 381.66073 280.974554 
C 380.997722 281.637562 380.625196 282.53692 380.625196 283.474554 
C 380.625196 284.412189 380.997722 285.311546 381.66073 285.974554 
C 382.323737 286.637562 383.223095 287.010088 384.16073 287.010088 
z
" style="fill:#808080;stroke:#000000;stroke-width:0.4;"/>
    <path clip-path="url(#p545fb4fea5)" d="M 364.052437 287.010088 
C 364.990071 287.010088 365.889429 286.637562 366.552437 285.974554 
C 367.215444 285.311546 367.58797 284.412189 367.58797 283.474554 
C 367.58797 282.53692 367.215444 281.637562 366.552437 280.974554 
C 365.889429 280.311546 364.990071 279.93902 364.052437 279.93902 
C 363.114802 279.93902 362.215444 280.311546 361.552437 280.974554 
C 360.889429 281.637562 360.516903 282.53692 360.516903 283.474554 
C 360.516903 284.412189 360.889429 285.311546 361.552437 285.974554 
C 362.215444 286.637562 363.114802 287.010088 364.052437 287.010088 
z
" style="fill:#808080;stroke:#000000;stroke-width:0.4;"/>
    <path clip-path="url(#p545fb4fea5)" d="M 353.99829 287.010088 
C 354.935925 287.010088 355.835282 286.637562 356.49829 285.974554 
C 357.161298 285.311546 357.533824 284.412189 357.533824 283.474554 
C 357.533824 282.53692 357.161298 281.637562 356.49829 280.974554 
C 355.835282 280.311546 354.935925 279.93902 353.99829 279.93902 
C 353.060656 279.93902 352.161298 280.311546 351.49829 280.974554 
C 350.835282 281.637562 350.462756 282.53692 350.462756 283.474554 
C 350.462756 284.412189 350.835282 285.311546 351.49829 285.974554 
C 352.161298 286.637562 353.060656 287.010088 353.99829 287.010088 
z
" style="fill:#808080;stroke:#000000;stroke-width:0.4;"/>
    <path clip-path="url(#p545fb4fea5)" d="M 414.323169 287.010088 
C 415.260804 287.010088 416.160161 286.637562 416.823169 285.974554 
C 417.486177 285.311546 417.858703 284.412189 417.858703 283.474554 
C 417.858703 282.53692 417.486177 281.637562 416.823169 280.974554 
C 416.160161 280.311546 415.260804 279.93902 414.323169 279.93902 
C 413.385534 279.93902 412.486177 280.311546 411.823169 280.974554 
C 411.160161 281.637562 410.787635 282.53692 410.787635 283.474554 
C 410.787635 284.412189 411.160161 285.311546 411.823169 285.974554 
C 412.486177 286.637562 413.385534 287.010088 414.323169 287.010088 
z
" style="fill:#808080;stroke:#000000;stroke-width:0.4;"/>
    <path clip-path="url(#p545fb4fea5)" d="M 424.377315 287.010088 
C 425.31495 287.010088 426.214308 286.637562 426.877315 285.974554 
C 427.540323 285.311546 427.912849 284.412189 427.912849 283.474554 
C 427.912849 282.53692 427.540323 281.637562 426.877315 280.974554 
C 426.214308 280.311546 425.31495 279.93902 424.377315 279.93902 
C 423.439681 279.93902 422.540323 280.311546 421.877315 280.974554 
C 421.214308 281.637562 420.841782 282.53692 420.841782 283.474554 
C 420.841782 284.412189 421.214308 285.311546 421.877315 285.974554 
C 422.540323 286.637562 423.439681 287.010088 424.377315 287.010088 
z
" style="fill:#808080;stroke:#000000;stroke-width:0.4;"/>
    <path clip-path="url(#p545fb4fea5)" d="M 404.269023 287.010088 
C 405.206657 287.010088 406.106015 286.637562 406.769023 285.974554 
C 407.43203 285.311546 407.804556 284.412189 407.804556 283.474554 
C 407.804556 282.53692 407.43203 281.637562 406.769023 280.974554 
C 406.106015 280.311546 405.206657 279.93902 404.269023 279.93902 
C 403.331388 279.93902 402.43203 280.311546 401.769023 280.974554 
C 401.106015 281.637562 400.733489 282.53692 400.733489 283.474554 
C 400.733489 284.412189 401.106015 285.311546 401.769023 285.974554 
C 402.43203 286.637562 403.331388 287.010088 404.269023 287.010088 
z
" style="fill:#808080;stroke:#000000;stroke-width:0.4;"/>
    <path clip-path="url(#p545fb4fea5)" d="M 444.485608 328.97616 
C 445.423243 328.97616 446.322601 328.603634 446.985608 327.940626 
C 447.648616 327.277619 448.021142 326.378261 448.021142 325.440626 
C 448.021142 324.502992 447.648616 323.603634 446.985608 322.940626 
C 446.322601 322.277619 445.423243 321.905092 444.485608 321.905092 
C 443.547974 321.905092 442.648616 322.277619 441.985608 322.940626 
C 441.322601 323.603634 440.950075 324.502992 440.950075 325.440626 
C 440.950075 326.378261 441.322601 327.277619 441.985608 327.940626 
C 442.648616 328.603634 443.547974 328.97616 444.485608 328.97616 
z
" style="fill:#808080;stroke:#000000;stroke-width:0.4;"/>
    <path clip-path="url(#p545fb4fea5)" d="M 454.539755 328.97616 
C 455.477389 328.97616 456.376747 328.603634 457.039755 327.940626 
C 457.702763 327.277619 458.075289 326.378261 458.075289 325.440626 
C 458.075289 324.502992 457.702763 323.603634 457.039755 322.940626 
C 456.376747 322.277619 455.477389 321.905092 454.539755 321.905092 
C 453.60212 321.905092 452.702763 322.277619 452.039755 322.940626 
C 451.376747 323.603634 451.004221 324.502992 451.004221 325.440626 
C 451.004221 326.378261 451.376747 327.277619 452.039755 327.940626 
C 452.702763 328.603634 453.60212 328.97616 454.539755 328.97616 
z
" style="fill:#808080;stroke:#000000;stroke-width:0.4;"/>
    <path clip-path="url(#p545fb4fea5)" d="M 474.648048 328.97616 
C 475.585682 328.97616 476.48504 328.603634 477.148048 327.940626 
C 477.811056 327.277619 478.183582 326.378261 478.183582 325.440626 
C 478.183582 324.502992 477.811056 323.603634 477.148048 322.940626 
C 476.48504 322.277619 475.585682 321.905092 474.648048 321.905092 
C 473.710413 321.905092 472.811056 322.277619 472.148048 322.940626 
C 471.48504 323.603634 471.112514 324.502992 471.112514 325.440626 
C 471.112514 326.378261 471.48504 327.277619 472.148048 327.940626 
C 472.811056 328.603634 473.710413 328.97616 474.648048 328.97616 
z
" style="fill:#808080;stroke:#000000;stroke-width:0.4;"/>
    <path clip-path="url(#p545fb4fea5)" d="M 484.702194 328.97616 
C 485.639829 328.97616 486.539187 328.603634 487.202194 327.940626 
C 487.865202 327.277619 488.237728 326.378261 488.237728 325.440626 
C 488.237728 324.502992 487.865202 323.603634 487.202194 322.940626 
C 486.539187 322.277619 485.639829 321.905092 484.702194 321.905092 
C 483.76456 321.905092 482.865202 322.277619 482.202194 322.940626 
C 481.539187 323.603634 481.16666 324.502992 481.16666 325.440626 
C 481.16666 326.378261 481.539187 327.277619 482.202194 327.940626 
C 482.865202 328.603634 483.76456 328.97616 484.702194 328.97616 
z
" style="fill:#808080;stroke:#000000;stroke-width:0.4;"/>
    <path clip-path="url(#p545fb4fea5)" d="M 534.972927 349.959196 
C 535.910561 349.959196 536.809919 349.58667 537.472927 348.923662 
C 538.135935 348.260655 538.508461 347.361297 538.508461 346.423662 
C 538.508461 345.486028 538.135935 344.58667 537.472927 343.923662 
C 536.809919 343.260655 535.910561 342.888129 534.972927 342.888129 
C 534.035292 342.888129 533.135935 343.260655 532.472927 343.923662 
C 531.809919 344.58667 531.437393 345.486028 531.437393 346.423662 
C 531.437393 347.361297 531.809919 348.260655 532.472927 348.923662 
C 533.135935 349.58667 534.035292 349.959196 534.972927 349.959196 
z
" style="fill:#808080;stroke:#000000;stroke-width:0.4;"/>
    <path clip-path="url(#p545fb4fea5)" d="M 545.027073 349.959196 
C 545.964708 349.959196 546.864065 349.58667 547.527073 348.923662 
C 548.190081 348.260655 548.562607 347.361297 548.562607 346.423662 
C 548.562607 345.486028 548.190081 344.58667 547.527073 343.923662 
C 546.864065 343.260655 545.964708 342.888129 545.027073 342.888129 
C 544.089439 342.888129 543.190081 343.260655 542.527073 343.923662 
C 541.864065 344.58667 541.491539 345.486028 541.491539 346.423662 
C 541.491539 347.361297 541.864065 348.260655 542.527073 348.923662 
C 543.190081 349.58667 544.089439 349.959196 545.027073 349.959196 
z
" style="fill:#808080;stroke:#000000;stroke-width:0.4;"/>
    <path clip-path="url(#p545fb4fea5)" d="M 524.91878 349.959196 
C 525.856415 349.959196 526.755773 349.58667 527.41878 348.923662 
C 528.081788 348.260655 528.454314 347.361297 528.454314 346.423662 
C 528.454314 345.486028 528.081788 344.58667 527.41878 343.923662 
C 526.755773 343.260655 525.856415 342.888129 524.91878 342.888129 
C 523.981146 342.888129 523.081788 343.260655 522.41878 343.923662 
C 521.755773 344.58667 521.383246 345.486028 521.383246 346.423662 
C 521.383246 347.361297 521.755773 348.260655 522.41878 348.923662 
C 523.081788 349.58667 523.981146 349.959196 524.91878 349.959196 
z
" style="fill:#808080;stroke:#000000;stroke-width:0.4;"/>
    <path clip-path="url(#p545fb4fea5)" d="M 585.243659 370.942232 
C 586.181294 370.942232 587.080651 370.569706 587.743659 369.906699 
C 588.406667 369.243691 588.779193 368.344333 588.779193 367.406699 
C 588.779193 366.469064 588.406667 365.569706 587.743659 364.906699 
C 587.080651 364.243691 586.181294 363.871165 585.243659 363.871165 
C 584.306025 363.871165 583.406667 364.243691 582.743659 364.906699 
C 582.080651 365.569706 581.708125 366.469064 581.708125 367.406699 
C 581.708125 368.344333 582.080651 369.243691 582.743659 369.906699 
C 583.406667 370.569706 584.306025 370.942232 585.243659 370.942232 
z
" style="fill:#808080;stroke:#000000;stroke-width:0.4;"/>
    <path clip-path="url(#p545fb4fea5)" d="M 595.297806 370.942232 
C 596.23544 370.942232 597.134798 370.569706 597.797806 369.906699 
C 598.460813 369.243691 598.83334 368.344333 598.83334 367.406699 
C 598.83334 366.469064 598.460813 365.569706 597.797806 364.906699 
C 597.134798 364.243691 596.23544 363.871165 595.297806 363.871165 
C 594.360171 363.871165 593.460813 364.243691 592.797806 364.906699 
C 592.134798 365.569706 591.762272 366.469064 591.762272 367.406699 
C 591.762272 368.344333 592.134798 369.243691 592.797806 369.906699 
C 593.460813 370.569706 594.360171 370.942232 595.297806 370.942232 
z
" style="fill:#808080;stroke:#000000;stroke-width:0.4;"/>
    <path clip-path="url(#p545fb4fea5)" d="M 655.622685 391.925269 
C 656.560319 391.925269 657.459677 391.552742 658.122685 390.889735 
C 658.785692 390.226727 659.158218 389.327369 659.158218 388.389735 
C 659.158218 387.4521 658.785692 386.552742 658.122685 385.889735 
C 657.459677 385.226727 656.560319 384.854201 655.622685 384.854201 
C 654.68505 384.854201 653.785692 385.226727 653.122685 385.889735 
C 652.459677 386.552742 652.087151 387.4521 652.087151 388.389735 
C 652.087151 389.327369 652.459677 390.226727 653.122685 390.889735 
C 653.785692 391.552742 654.68505 391.925269 655.622685 391.925269 
z
" style="fill:#808080;stroke:#000000;stroke-width:0.4;"/>
    <path clip-path="url(#p545fb4fea5)" d="M 665.676831 391.925269 
C 666.614466 391.925269 667.513823 391.552742 668.176831 390.889735 
C 668.839839 390.226727 669.212365 389.327369 669.212365 388.389735 
C 669.212365 387.4521 668.839839 386.552742 668.176831 385.889735 
C 667.513823 385.226727 666.614466 384.854201 665.676831 384.854201 
C 664.739196 384.854201 663.839839 385.226727 663.176831 385.889735 
C 662.513823 386.552742 662.141297 387.4521 662.141297 388.389735 
C 662.141297 389.327369 662.513823 390.226727 663.176831 390.889735 
C 663.839839 391.552742 664.739196 391.925269 665.676831 391.925269 
z
" style="fill:#808080;stroke:#000000;stroke-width:0.4;"/>
    <path clip-path="url(#p545fb4fea5)" d="M 645.568538 391.925269 
C 646.506173 391.925269 647.40553 391.552742 648.068538 390.889735 
C 648.731546 390.226727 649.104072 389.327369 649.104072 388.389735 
C 649.104072 387.4521 648.731546 386.552742 648.068538 385.889735 
C 647.40553 385.226727 646.506173 384.854201 645.568538 384.854201 
C 644.630903 384.854201 643.731546 385.226727 643.068538 385.889735 
C 642.40553 386.552742 642.033004 387.4521 642.033004 388.389735 
C 642.033004 389.327369 642.40553 390.226727 643.068538 390.889735 
C 643.731546 391.552742 644.630903 391.925269 645.568538 391.925269 
z
" style="fill:#808080;stroke:#000000;stroke-width:0.4;"/>
    <path clip-path="url(#p545fb4fea5)" d="M 635.514392 391.925269 
C 636.452026 391.925269 637.351384 391.552742 638.014392 390.889735 
C 638.677399 390.226727 639.049925 389.327369 639.049925 388.389735 
C 639.049925 387.4521 638.677399 386.552742 638.014392 385.889735 
C 637.351384 385.226727 636.452026 384.854201 635.514392 384.854201 
C 634.576757 384.854201 633.677399 385.226727 633.014392 385.889735 
C 632.351384 386.552742 631.978858 387.4521 631.978858 388.389735 
C 631.978858 389.327369 632.351384 390.226727 633.014392 390.889735 
C 633.677399 391.552742 634.576757 391.925269 635.514392 391.925269 
z
" style="fill:#808080;stroke:#000000;stroke-width:0.4;"/>
    <path clip-path="url(#p545fb4fea5)" d="M 625.460245 391.925269 
C 626.39788 391.925269 627.297237 391.552742 627.960245 390.889735 
C 628.623253 390.226727 628.995779 389.327369 628.995779 388.389735 
C 628.995779 387.4521 628.623253 386.552742 627.960245 385.889735 
C 627.297237 385.226727 626.39788 384.854201 625.460245 384.854201 
C 624.522611 384.854201 623.623253 385.226727 622.960245 385.889735 
C 622.297237 386.552742 621.924711 387.4521 621.924711 388.389735 
C 621.924711 389.327369 622.297237 390.226727 622.960245 390.889735 
C 623.623253 391.552742 624.522611 391.925269 625.460245 391.925269 
z
" style="fill:#808080;stroke:#000000;stroke-width:0.4;"/>
    <path clip-path="url(#p545fb4fea5)" d="M 615.406099 391.925269 
C 616.343733 391.925269 617.243091 391.552742 617.906099 390.889735 
C 618.569106 390.226727 618.941633 389.327369 618.941633 388.389735 
C 618.941633 387.4521 618.569106 386.552742 617.906099 385.889735 
C 617.243091 385.226727 616.343733 384.854201 615.406099 384.854201 
C 614.468464 384.854201 613.569106 385.226727 612.906099 385.889735 
C 612.243091 386.552742 611.870565 387.4521 611.870565 388.389735 
C 611.870565 389.327369 612.243091 390.226727 612.906099 390.889735 
C 613.569106 391.552742 614.468464 391.925269 615.406099 391.925269 
z
" style="fill:#808080;stroke:#000000;stroke-width:0.4;"/>
    <path clip-path="url(#p545fb4fea5)" d="M 685.785124 391.925269 
C 686.722759 391.925269 687.622116 391.552742 688.285124 390.889735 
C 688.948132 390.226727 689.320658 389.327369 689.320658 388.389735 
C 689.320658 387.4521 688.948132 386.552742 688.285124 385.889735 
C 687.622116 385.226727 686.722759 384.854201 685.785124 384.854201 
C 684.847489 384.854201 683.948132 385.226727 683.285124 385.889735 
C 682.622116 386.552742 682.24959 387.4521 682.24959 388.389735 
C 682.24959 389.327369 682.622116 390.226727 683.285124 390.889735 
C 683.948132 391.552742 684.847489 391.925269 685.785124 391.925269 
z
" style="fill:#808080;stroke:#000000;stroke-width:0.4;"/>
    <path clip-path="url(#p545fb4fea5)" d="M 695.83927 391.925269 
C 696.776905 391.925269 697.676263 391.552742 698.33927 390.889735 
C 699.002278 390.226727 699.374804 389.327369 699.374804 388.389735 
C 699.374804 387.4521 699.002278 386.552742 698.33927 385.889735 
C 697.676263 385.226727 696.776905 384.854201 695.83927 384.854201 
C 694.901636 384.854201 694.002278 385.226727 693.33927 385.889735 
C 692.676263 386.552742 692.303737 387.4521 692.303737 388.389735 
C 692.303737 389.327369 692.676263 390.226727 693.33927 390.889735 
C 694.002278 391.552742 694.901636 391.925269 695.83927 391.925269 
z
" style="fill:#808080;stroke:#000000;stroke-width:0.4;"/>
    <path clip-path="url(#p545fb4fea5)" d="M 756.164149 454.874377 
C 757.101784 454.874377 758.001142 454.501851 758.664149 453.838843 
C 759.327157 453.175835 759.699683 452.276478 759.699683 451.338843 
C 759.699683 450.401208 759.327157 449.501851 758.664149 448.838843 
C 758.001142 448.175835 757.101784 447.803309 756.164149 447.803309 
C 755.226515 447.803309 754.327157 448.175835 753.664149 448.838843 
C 753.001142 449.501851 752.628615 450.401208 752.628615 451.338843 
C 752.628615 452.276478 753.001142 453.175835 753.664149 453.838843 
C 754.327157 454.501851 755.226515 454.874377 756.164149 454.874377 
z
" style="fill:#808080;stroke:#000000;stroke-width:0.4;"/>
    <path clip-path="url(#p545fb4fea5)" d="M 766.218296 454.874377 
C 767.15593 454.874377 768.055288 454.501851 768.718296 453.838843 
C 769.381304 453.175835 769.75383 452.276478 769.75383 451.338843 
C 769.75383 450.401208 769.381304 449.501851 768.718296 448.838843 
C 768.055288 448.175835 767.15593 447.803309 766.218296 447.803309 
C 765.280661 447.803309 764.381304 448.175835 763.718296 448.838843 
C 763.055288 449.501851 762.682762 450.401208 762.682762 451.338843 
C 762.682762 452.276478 763.055288 453.175835 763.718296 453.838843 
C 764.381304 454.501851 765.280661 454.874377 766.218296 454.874377 
z
" style="fill:#808080;stroke:#000000;stroke-width:0.4;"/>
    <path clip-path="url(#p545fb4fea5)" d="M 746.110003 454.874377 
C 747.047637 454.874377 747.946995 454.501851 748.610003 453.838843 
C 749.273011 453.175835 749.645537 452.276478 749.645537 451.338843 
C 749.645537 450.401208 749.273011 449.501851 748.610003 448.838843 
C 747.946995 448.175835 747.047637 447.803309 746.110003 447.803309 
C 745.172368 447.803309 744.273011 448.175835 743.610003 448.838843 
C 742.946995 449.501851 742.574469 450.401208 742.574469 451.338843 
C 742.574469 452.276478 742.946995 453.175835 743.610003 453.838843 
C 744.273011 454.501851 745.172368 454.874377 746.110003 454.874377 
z
" style="fill:#808080;stroke:#000000;stroke-width:0.4;"/>
    <path clip-path="url(#p545fb4fea5)" d="M 736.055856 454.874377 
C 736.993491 454.874377 737.892849 454.501851 738.555856 453.838843 
C 739.218864 453.175835 739.59139 452.276478 739.59139 451.338843 
C 739.59139 450.401208 739.218864 449.501851 738.555856 448.838843 
C 737.892849 448.175835 736.993491 447.803309 736.055856 447.803309 
C 735.118222 447.803309 734.218864 448.175835 733.555856 448.838843 
C 732.892849 449.501851 732.520322 450.401208 732.520322 451.338843 
C 732.520322 452.276478 732.892849 453.175835 733.555856 453.838843 
C 734.218864 454.501851 735.118222 454.874377 736.055856 454.874377 
z
" style="fill:#808080;stroke:#000000;stroke-width:0.4;"/>
    <path clip-path="url(#p545fb4fea5)" d="M 816.489028 456.338843 
C 817.815044 456.338843 819.086928 455.812011 820.024562 454.874377 
C 820.962197 453.936742 821.489028 452.664858 821.489028 451.338843 
C 821.489028 450.012827 820.962197 448.740944 820.024562 447.803309 
C 819.086928 446.865675 817.815044 446.338843 816.489028 446.338843 
C 815.163013 446.338843 813.891129 446.865675 812.953494 447.803309 
C 812.01586 448.740944 811.489028 450.012827 811.489028 451.338843 
C 811.489028 452.664858 812.01586 453.936742 812.953494 454.874377 
C 813.891129 455.812011 815.163013 456.338843 816.489028 456.338843 
z
" style="stroke:#000000;stroke-width:0.4;"/>
    <path clip-path="url(#p545fb4fea5)" d="M 826.543175 454.874377 
C 827.480809 454.874377 828.380167 454.501851 829.043175 453.838843 
C 829.706182 453.175835 830.078709 452.276478 830.078709 451.338843 
C 830.078709 450.401208 829.706182 449.501851 829.043175 448.838843 
C 828.380167 448.175835 827.480809 447.803309 826.543175 447.803309 
C 825.60554 447.803309 824.706182 448.175835 824.043175 448.838843 
C 823.380167 449.501851 823.007641 450.401208 823.007641 451.338843 
C 823.007641 452.276478 823.380167 453.175835 824.043175 453.838843 
C 824.706182 454.501851 825.60554 454.874377 826.543175 454.874377 
z
" style="fill:#808080;stroke:#000000;stroke-width:0.4;"/>
    <path clip-path="url(#p545fb4fea5)" d="M 806.434882 456.338843 
C 807.760897 456.338843 809.032781 455.812011 809.970416 454.874377 
C 810.90805 453.936742 811.434882 452.664858 811.434882 451.338843 
C 811.434882 450.012827 810.90805 448.740944 809.970416 447.803309 
C 809.032781 446.865675 807.760897 446.338843 806.434882 446.338843 
C 805.108866 446.338843 803.836982 446.865675 802.899348 447.803309 
C 801.961713 448.740944 801.434882 450.012827 801.434882 451.338843 
C 801.434882 452.664858 801.961713 453.936742 802.899348 454.874377 
C 803.836982 455.812011 805.108866 456.338843 806.434882 456.338843 
z
" style="stroke:#000000;stroke-width:0.4;"/>
    <path clip-path="url(#p545fb4fea5)" d="M 836.597321 414.372771 
C 837.923337 414.372771 839.195221 413.845939 840.132855 412.908305 
C 841.07049 411.97067 841.597321 410.698786 841.597321 409.372771 
C 841.597321 408.046755 841.07049 406.774871 840.132855 405.837237 
C 839.195221 404.899602 837.923337 404.372771 836.597321 404.372771 
C 835.271306 404.372771 833.999422 404.899602 833.061787 405.837237 
C 832.124153 406.774871 831.597321 408.046755 831.597321 409.372771 
C 831.597321 410.698786 832.124153 411.97067 833.061787 412.908305 
C 833.999422 413.845939 835.271306 414.372771 836.597321 414.372771 
z
" style="stroke:#000000;stroke-width:0.4;"/>
    <path clip-path="url(#p545fb4fea5)" d="M 846.651468 433.891341 
C 847.589102 433.891341 848.48846 433.518815 849.151468 432.855807 
C 849.814475 432.192799 850.187002 431.293441 850.187002 430.355807 
C 850.187002 429.418172 849.814475 428.518815 849.151468 427.855807 
C 848.48846 427.192799 847.589102 426.820273 846.651468 426.820273 
C 845.713833 426.820273 844.814475 427.192799 844.151468 427.855807 
C 843.48846 428.518815 843.115934 429.418172 843.115934 430.355807 
C 843.115934 431.293441 843.48846 432.192799 844.151468 432.855807 
C 844.814475 433.518815 845.713833 433.891341 846.651468 433.891341 
z
" style="fill:#808080;stroke:#000000;stroke-width:0.4;"/>
    <path clip-path="url(#p545fb4fea5)" d="M 796.380735 414.372771 
C 797.706751 414.372771 798.978635 413.845939 799.916269 412.908305 
C 800.853904 411.97067 801.380735 410.698786 801.380735 409.372771 
C 801.380735 408.046755 800.853904 406.774871 799.916269 405.837237 
C 798.978635 404.899602 797.706751 404.372771 796.380735 404.372771 
C 795.05472 404.372771 793.782836 404.899602 792.845201 405.837237 
C 791.907567 406.774871 791.380735 408.046755 791.380735 409.372771 
C 791.380735 410.698786 791.907567 411.97067 792.845201 412.908305 
C 793.782836 413.845939 795.05472 414.372771 796.380735 414.372771 
z
" style="stroke:#000000;stroke-width:0.4;"/>
    <path clip-path="url(#p545fb4fea5)" d="M 786.326589 454.874377 
C 787.264223 454.874377 788.163581 454.501851 788.826589 453.838843 
C 789.489597 453.175835 789.862123 452.276478 789.862123 451.338843 
C 789.862123 450.401208 789.489597 449.501851 788.826589 448.838843 
C 788.163581 448.175835 787.264223 447.803309 786.326589 447.803309 
C 785.388954 447.803309 784.489597 448.175835 783.826589 448.838843 
C 783.163581 449.501851 782.791055 450.401208 782.791055 451.338843 
C 782.791055 452.276478 783.163581 453.175835 783.826589 453.838843 
C 784.489597 454.501851 785.388954 454.874377 786.326589 454.874377 
z
" style="fill:#808080;stroke:#000000;stroke-width:0.4;"/>
    <path clip-path="url(#p545fb4fea5)" d="M 776.272442 393.389735 
C 777.598458 393.389735 778.870342 392.862903 779.807976 391.925269 
C 780.745611 390.987634 781.272442 389.71575 781.272442 388.389735 
C 781.272442 387.063719 780.745611 385.791835 779.807976 384.854201 
C 778.870342 383.916566 777.598458 383.389735 776.272442 383.389735 
C 774.946427 383.389735 773.674543 383.916566 772.736908 384.854201 
C 771.799274 385.791835 771.272442 387.063719 771.272442 388.389735 
C 771.272442 389.71575 771.799274 390.987634 772.736908 391.925269 
C 773.674543 392.862903 774.946427 393.389735 776.272442 393.389735 
z
" style="stroke:#000000;stroke-width:0.4;"/>
    <path clip-path="url(#p545fb4fea5)" d="M 726.00171 372.406699 
C 727.327725 372.406699 728.599609 371.879867 729.537244 370.942232 
C 730.474878 370.004598 731.00171 368.732714 731.00171 367.406699 
C 731.00171 366.080683 730.474878 364.808799 729.537244 363.871165 
C 728.599609 362.93353 727.327725 362.406699 726.00171 362.406699 
C 724.675694 362.406699 723.403811 362.93353 722.466176 363.871165 
C 721.528541 364.808799 721.00171 366.080683 721.00171 367.406699 
C 721.00171 368.732714 721.528541 370.004598 722.466176 370.942232 
C 723.403811 371.879867 724.675694 372.406699 726.00171 372.406699 
z
" style="stroke:#000000;stroke-width:0.4;"/>
    <path clip-path="url(#p545fb4fea5)" d="M 715.947563 412.908305 
C 716.885198 412.908305 717.784556 412.535779 718.447563 411.872771 
C 719.110571 411.209763 719.483097 410.310405 719.483097 409.372771 
C 719.483097 408.435136 719.110571 407.535779 718.447563 406.872771 
C 717.784556 406.209763 716.885198 405.837237 715.947563 405.837237 
C 715.009929 405.837237 714.110571 406.209763 713.447563 406.872771 
C 712.784556 407.535779 712.41203 408.435136 712.41203 409.372771 
C 712.41203 410.310405 712.784556 411.209763 713.447563 411.872771 
C 714.110571 412.535779 715.009929 412.908305 715.947563 412.908305 
z
" style="fill:#808080;stroke:#000000;stroke-width:0.4;"/>
    <path clip-path="url(#p545fb4fea5)" d="M 705.893417 372.406699 
C 707.219432 372.406699 708.491316 371.879867 709.428951 370.942232 
C 710.366585 370.004598 710.893417 368.732714 710.893417 367.406699 
C 710.893417 366.080683 710.366585 364.808799 709.428951 363.871165 
C 708.491316 362.93353 707.219432 362.406699 705.893417 362.406699 
C 704.567401 362.406699 703.295518 362.93353 702.357883 363.871165 
C 701.420248 364.808799 700.893417 366.080683 700.893417 367.406699 
C 700.893417 368.732714 701.420248 370.004598 702.357883 370.942232 
C 703.295518 371.879867 704.567401 372.406699 705.893417 372.406699 
z
" style="stroke:#000000;stroke-width:0.4;"/>
    <path clip-path="url(#p545fb4fea5)" d="M 675.730977 351.423662 
C 677.056993 351.423662 678.328877 350.896831 679.266511 349.959196 
C 680.204146 349.021562 680.730977 347.749678 680.730977 346.423662 
C 680.730977 345.097647 680.204146 343.825763 679.266511 342.888129 
C 678.328877 341.950494 677.056993 341.423662 675.730977 341.423662 
C 674.404962 341.423662 673.133078 341.950494 672.195444 342.888129 
C 671.257809 343.825763 670.730977 345.097647 670.730977 346.423662 
C 670.730977 347.749678 671.257809 349.021562 672.195444 349.959196 
C 673.133078 350.896831 674.404962 351.423662 675.730977 351.423662 
z
" style="stroke:#000000;stroke-width:0.4;"/>
    <path clip-path="url(#p545fb4fea5)" d="M 605.351952 351.423662 
C 606.677968 351.423662 607.949851 350.896831 608.887486 349.959196 
C 609.825121 349.021562 610.351952 347.749678 610.351952 346.423662 
C 610.351952 345.097647 609.825121 343.825763 608.887486 342.888129 
C 607.949851 341.950494 606.677968 341.423662 605.351952 341.423662 
C 604.025937 341.423662 602.754053 341.950494 601.816418 342.888129 
C 600.878784 343.825763 600.351952 345.097647 600.351952 346.423662 
C 600.351952 347.749678 600.878784 349.021562 601.816418 349.959196 
C 602.754053 350.896831 604.025937 351.423662 605.351952 351.423662 
z
" style="stroke:#000000;stroke-width:0.4;"/>
    <path clip-path="url(#p545fb4fea5)" d="M 575.189513 351.423662 
C 576.515528 351.423662 577.787412 350.896831 578.725047 349.959196 
C 579.662681 349.021562 580.189513 347.749678 580.189513 346.423662 
C 580.189513 345.097647 579.662681 343.825763 578.725047 342.888129 
C 577.787412 341.950494 576.515528 341.423662 575.189513 341.423662 
C 573.863497 341.423662 572.591613 341.950494 571.653979 342.888129 
C 570.716344 343.825763 570.189513 345.097647 570.189513 346.423662 
C 570.189513 347.749678 570.716344 349.021562 571.653979 349.959196 
C 572.591613 350.896831 573.863497 351.423662 575.189513 351.423662 
z
" style="stroke:#000000;stroke-width:0.4;"/>
    <path clip-path="url(#p545fb4fea5)" d="M 565.135366 391.925269 
C 566.073001 391.925269 566.972358 391.552742 567.635366 390.889735 
C 568.298374 390.226727 568.6709 389.327369 568.6709 388.389735 
C 568.6709 387.4521 568.298374 386.552742 567.635366 385.889735 
C 566.972358 385.226727 566.073001 384.854201 565.135366 384.854201 
C 564.197732 384.854201 563.298374 385.226727 562.635366 385.889735 
C 561.972358 386.552742 561.599832 387.4521 561.599832 388.389735 
C 561.599832 389.327369 561.972358 390.226727 562.635366 390.889735 
C 563.298374 391.552742 564.197732 391.925269 565.135366 391.925269 
z
" style="fill:#808080;stroke:#000000;stroke-width:0.4;"/>
    <path clip-path="url(#p545fb4fea5)" d="M 876.813907 287.010088 
C 877.751542 287.010088 878.650899 286.637562 879.313907 285.974554 
C 879.976915 285.311546 880.349441 284.412189 880.349441 283.474554 
C 880.349441 282.53692 879.976915 281.637562 879.313907 280.974554 
C 878.650899 280.311546 877.751542 279.93902 876.813907 279.93902 
C 875.876273 279.93902 874.976915 280.311546 874.313907 280.974554 
C 873.650899 281.637562 873.278373 282.53692 873.278373 283.474554 
C 873.278373 284.412189 873.650899 285.311546 874.313907 285.974554 
C 874.976915 286.637562 875.876273 287.010088 876.813907 287.010088 
z
" style="fill:#808080;stroke:#000000;stroke-width:0.4;"/>
    <path clip-path="url(#p545fb4fea5)" d="M 886.868054 287.010088 
C 887.805688 287.010088 888.705046 286.637562 889.368054 285.974554 
C 890.031061 285.311546 890.403587 284.412189 890.403587 283.474554 
C 890.403587 282.53692 890.031061 281.637562 889.368054 280.974554 
C 888.705046 280.311546 887.805688 279.93902 886.868054 279.93902 
C 885.930419 279.93902 885.031061 280.311546 884.368054 280.974554 
C 883.705046 281.637562 883.33252 282.53692 883.33252 283.474554 
C 883.33252 284.412189 883.705046 285.311546 884.368054 285.974554 
C 885.031061 286.637562 885.930419 287.010088 886.868054 287.010088 
z
" style="fill:#808080;stroke:#000000;stroke-width:0.4;"/>
    <path clip-path="url(#p545fb4fea5)" d="M 866.759761 287.010088 
C 867.697395 287.010088 868.596753 286.637562 869.259761 285.974554 
C 869.922768 285.311546 870.295295 284.412189 870.295295 283.474554 
C 870.295295 282.53692 869.922768 281.637562 869.259761 280.974554 
C 868.596753 280.311546 867.697395 279.93902 866.759761 279.93902 
C 865.822126 279.93902 864.922768 280.311546 864.259761 280.974554 
C 863.596753 281.637562 863.224227 282.53692 863.224227 283.474554 
C 863.224227 284.412189 863.596753 285.311546 864.259761 285.974554 
C 864.922768 286.637562 865.822126 287.010088 866.759761 287.010088 
z
" style="fill:#808080;stroke:#000000;stroke-width:0.4;"/>
    <path clip-path="url(#p545fb4fea5)" d="M 856.705614 288.474554 
C 858.03163 288.474554 859.303513 287.947723 860.241148 287.010088 
C 861.178783 286.072454 861.705614 284.80057 861.705614 283.474554 
C 861.705614 282.148539 861.178783 280.876655 860.241148 279.93902 
C 859.303513 279.001386 858.03163 278.474554 856.705614 278.474554 
C 855.379599 278.474554 854.107715 279.001386 853.17008 279.93902 
C 852.232446 280.876655 851.705614 282.148539 851.705614 283.474554 
C 851.705614 284.80057 852.232446 286.072454 853.17008 287.010088 
C 854.107715 287.947723 855.379599 288.474554 856.705614 288.474554 
z
" style="stroke:#000000;stroke-width:0.4;"/>
    <path clip-path="url(#p545fb4fea5)" d="M 555.08122 267.491518 
C 556.407235 267.491518 557.679119 266.964687 558.616754 266.027052 
C 559.554388 265.089417 560.08122 263.817534 560.08122 262.491518 
C 560.08122 261.165503 559.554388 259.893619 558.616754 258.955984 
C 557.679119 258.01835 556.407235 257.491518 555.08122 257.491518 
C 553.755204 257.491518 552.48332 258.01835 551.545686 258.955984 
C 550.608051 259.893619 550.08122 261.165503 550.08122 262.491518 
C 550.08122 263.817534 550.608051 265.089417 551.545686 266.027052 
C 552.48332 266.964687 553.755204 267.491518 555.08122 267.491518 
z
" style="stroke:#000000;stroke-width:0.4;"/>
    <path clip-path="url(#p545fb4fea5)" d="M 514.864634 267.491518 
C 516.190649 267.491518 517.462533 266.964687 518.400168 266.027052 
C 519.337802 265.089417 519.864634 263.817534 519.864634 262.491518 
C 519.864634 261.165503 519.337802 259.893619 518.400168 258.955984 
C 517.462533 258.01835 516.190649 257.491518 514.864634 257.491518 
C 513.538618 257.491518 512.266734 258.01835 511.3291 258.955984 
C 510.391465 259.893619 509.864634 261.165503 509.864634 262.491518 
C 509.864634 263.817534 510.391465 265.089417 511.3291 266.027052 
C 512.266734 266.964687 513.538618 267.491518 514.864634 267.491518 
z
" style="stroke:#000000;stroke-width:0.4;"/>
    <path clip-path="url(#p545fb4fea5)" d="M 504.810487 349.959196 
C 505.748122 349.959196 506.64748 349.58667 507.310487 348.923662 
C 507.973495 348.260655 508.346021 347.361297 508.346021 346.423662 
C 508.346021 345.486028 507.973495 344.58667 507.310487 343.923662 
C 506.64748 343.260655 505.748122 342.888129 504.810487 342.888129 
C 503.872853 342.888129 502.973495 343.260655 502.310487 343.923662 
C 501.64748 344.58667 501.274953 345.486028 501.274953 346.423662 
C 501.274953 347.361297 501.64748 348.260655 502.310487 348.923662 
C 502.973495 349.58667 503.872853 349.959196 504.810487 349.959196 
z
" style="fill:#808080;stroke:#000000;stroke-width:0.4;"/>
    <path clip-path="url(#p545fb4fea5)" d="M 494.756341 267.491518 
C 496.082356 267.491518 497.35424 266.964687 498.291875 266.027052 
C 499.229509 265.089417 499.756341 263.817534 499.756341 262.491518 
C 499.756341 261.165503 499.229509 259.893619 498.291875 258.955984 
C 497.35424 258.01835 496.082356 257.491518 494.756341 257.491518 
C 493.430325 257.491518 492.158441 258.01835 491.220807 258.955984 
C 490.283172 259.893619 489.756341 261.165503 489.756341 262.491518 
C 489.756341 263.817534 490.283172 265.089417 491.220807 266.027052 
C 492.158441 266.964687 493.430325 267.491518 494.756341 267.491518 
z
" style="stroke:#000000;stroke-width:0.4;"/>
    <path clip-path="url(#p545fb4fea5)" d="M 464.593901 267.491518 
C 465.919917 267.491518 467.191801 266.964687 468.129435 266.027052 
C 469.06707 265.089417 469.593901 263.817534 469.593901 262.491518 
C 469.593901 261.165503 469.06707 259.893619 468.129435 258.955984 
C 467.191801 258.01835 465.919917 257.491518 464.593901 257.491518 
C 463.267886 257.491518 461.996002 258.01835 461.058367 258.955984 
C 460.120733 259.893619 459.593901 261.165503 459.593901 262.491518 
C 459.593901 263.817534 460.120733 265.089417 461.058367 266.027052 
C 461.996002 266.964687 463.267886 267.491518 464.593901 267.491518 
z
" style="stroke:#000000;stroke-width:0.4;"/>
    <path clip-path="url(#p545fb4fea5)" d="M 434.431462 267.491518 
C 435.757477 267.491518 437.029361 266.964687 437.966996 266.027052 
C 438.90463 265.089417 439.431462 263.817534 439.431462 262.491518 
C 439.431462 261.165503 438.90463 259.893619 437.966996 258.955984 
C 437.029361 258.01835 435.757477 257.491518 434.431462 257.491518 
C 433.105446 257.491518 431.833563 258.01835 430.895928 258.955984 
C 429.958293 259.893619 429.431462 261.165503 429.431462 262.491518 
C 429.431462 263.817534 429.958293 265.089417 430.895928 266.027052 
C 431.833563 266.964687 433.105446 267.491518 434.431462 267.491518 
z
" style="stroke:#000000;stroke-width:0.4;"/>
    <path clip-path="url(#p545fb4fea5)" d="M 394.214876 246.508482 
C 395.540892 246.508482 396.812775 245.98165 397.75041 245.044016 
C 398.688044 244.106381 399.214876 242.834497 399.214876 241.508482 
C 399.214876 240.182466 398.688044 238.910583 397.75041 237.972948 
C 396.812775 237.035313 395.540892 236.508482 394.214876 236.508482 
C 392.888861 236.508482 391.616977 237.035313 390.679342 237.972948 
C 389.741708 238.910583 389.214876 240.182466 389.214876 241.508482 
C 389.214876 242.834497 389.741708 244.106381 390.679342 245.044016 
C 391.616977 245.98165 392.888861 246.508482 394.214876 246.508482 
z
" style="stroke:#000000;stroke-width:0.4;"/>
    <path clip-path="url(#p545fb4fea5)" d="M 343.944144 246.508482 
C 345.270159 246.508482 346.542043 245.98165 347.479678 245.044016 
C 348.417312 244.106381 348.944144 242.834497 348.944144 241.508482 
C 348.944144 240.182466 348.417312 238.910583 347.479678 237.972948 
C 346.542043 237.035313 345.270159 236.508482 343.944144 236.508482 
C 342.618128 236.508482 341.346244 237.035313 340.40861 237.972948 
C 339.470975 238.910583 338.944144 240.182466 338.944144 241.508482 
C 338.944144 242.834497 339.470975 244.106381 340.40861 245.044016 
C 341.346244 245.98165 342.618128 246.508482 343.944144 246.508482 
z
" style="stroke:#000000;stroke-width:0.4;"/>
    <path clip-path="url(#p545fb4fea5)" d="M 333.889997 287.010088 
C 334.827632 287.010088 335.726989 286.637562 336.389997 285.974554 
C 337.053005 285.311546 337.425531 284.412189 337.425531 283.474554 
C 337.425531 282.53692 337.053005 281.637562 336.389997 280.974554 
C 335.726989 280.311546 334.827632 279.93902 333.889997 279.93902 
C 332.952363 279.93902 332.053005 280.311546 331.389997 280.974554 
C 330.726989 281.637562 330.354463 282.53692 330.354463 283.474554 
C 330.354463 284.412189 330.726989 285.311546 331.389997 285.974554 
C 332.053005 286.637562 332.952363 287.010088 333.889997 287.010088 
z
" style="fill:#808080;stroke:#000000;stroke-width:0.4;"/>
    <path clip-path="url(#p545fb4fea5)" d="M 906.976347 224.06098 
C 907.913981 224.06098 908.813339 223.688454 909.476347 223.025446 
C 910.139354 222.362438 910.51188 221.46308 910.51188 220.525446 
C 910.51188 219.587811 910.139354 218.688454 909.476347 218.025446 
C 908.813339 217.362438 907.913981 216.989912 906.976347 216.989912 
C 906.038712 216.989912 905.139354 217.362438 904.476347 218.025446 
C 903.813339 218.688454 903.440813 219.587811 903.440813 220.525446 
C 903.440813 221.46308 903.813339 222.362438 904.476347 223.025446 
C 905.139354 223.688454 906.038712 224.06098 906.976347 224.06098 
z
" style="fill:#808080;stroke:#000000;stroke-width:0.4;"/>
    <path clip-path="url(#p545fb4fea5)" d="M 917.030493 224.06098 
C 917.968128 224.06098 918.867485 223.688454 919.530493 223.025446 
C 920.193501 222.362438 920.566027 221.46308 920.566027 220.525446 
C 920.566027 219.587811 920.193501 218.688454 919.530493 218.025446 
C 918.867485 217.362438 917.968128 216.989912 917.030493 216.989912 
C 916.092858 216.989912 915.193501 217.362438 914.530493 218.025446 
C 913.867485 218.688454 913.494959 219.587811 913.494959 220.525446 
C 913.494959 221.46308 913.867485 222.362438 914.530493 223.025446 
C 915.193501 223.688454 916.092858 224.06098 917.030493 224.06098 
z
" style="fill:#808080;stroke:#000000;stroke-width:0.4;"/>
    <path clip-path="url(#p545fb4fea5)" d="M 896.9222 204.54241 
C 898.248216 204.54241 899.520099 204.015578 900.457734 203.077944 
C 901.395369 202.140309 901.9222 200.868425 901.9222 199.54241 
C 901.9222 198.216394 901.395369 196.94451 900.457734 196.006876 
C 899.520099 195.069241 898.248216 194.54241 896.9222 194.54241 
C 895.596185 194.54241 894.324301 195.069241 893.386666 196.006876 
C 892.449032 196.94451 891.9222 198.216394 891.9222 199.54241 
C 891.9222 200.868425 892.449032 202.140309 893.386666 203.077944 
C 894.324301 204.015578 895.596185 204.54241 896.9222 204.54241 
z
" style="stroke:#000000;stroke-width:0.4;"/>
    <path clip-path="url(#p545fb4fea5)" d="M 323.835851 204.54241 
C 325.161866 204.54241 326.43375 204.015578 327.371385 203.077944 
C 328.309019 202.140309 328.835851 200.868425 328.835851 199.54241 
C 328.835851 198.216394 328.309019 196.94451 327.371385 196.006876 
C 326.43375 195.069241 325.161866 194.54241 323.835851 194.54241 
C 322.509835 194.54241 321.237951 195.069241 320.300317 196.006876 
C 319.362682 196.94451 318.835851 198.216394 318.835851 199.54241 
C 318.835851 200.868425 319.362682 202.140309 320.300317 203.077944 
C 321.237951 204.015578 322.509835 204.54241 323.835851 204.54241 
z
" style="stroke:#000000;stroke-width:0.4;"/>
    <path clip-path="url(#p545fb4fea5)" d="M 293.673411 162.576338 
C 294.999427 162.576338 296.271311 162.049506 297.208945 161.111871 
C 298.14658 160.174237 298.673411 158.902353 298.673411 157.576338 
C 298.673411 156.250322 298.14658 154.978438 297.208945 154.040804 
C 296.271311 153.103169 294.999427 152.576338 293.673411 152.576338 
C 292.347396 152.576338 291.075512 153.103169 290.137877 154.040804 
C 289.200243 154.978438 288.673411 156.250322 288.673411 157.576338 
C 288.673411 158.902353 289.200243 160.174237 290.137877 161.111871 
C 291.075512 162.049506 292.347396 162.576338 293.673411 162.576338 
z
" style="stroke:#000000;stroke-width:0.4;"/>
    <path clip-path="url(#p545fb4fea5)" d="M 283.619265 182.094908 
C 284.556899 182.094908 285.456257 181.722381 286.119265 181.059374 
C 286.782272 180.396366 287.154799 179.497008 287.154799 178.559374 
C 287.154799 177.621739 286.782272 176.722381 286.119265 176.059374 
C 285.456257 175.396366 284.556899 175.02384 283.619265 175.02384 
C 282.68163 175.02384 281.782272 175.396366 281.119265 176.059374 
C 280.456257 176.722381 280.083731 177.621739 280.083731 178.559374 
C 280.083731 179.497008 280.456257 180.396366 281.119265 181.059374 
C 281.782272 181.722381 282.68163 182.094908 283.619265 182.094908 
z
" style="fill:#808080;stroke:#000000;stroke-width:0.4;"/>
    <path clip-path="url(#p545fb4fea5)" d="M 273.565118 162.576338 
C 274.891134 162.576338 276.163018 162.049506 277.100652 161.111871 
C 278.038287 160.174237 278.565118 158.902353 278.565118 157.576338 
C 278.565118 156.250322 278.038287 154.978438 277.100652 154.040804 
C 276.163018 153.103169 274.891134 152.576338 273.565118 152.576338 
C 272.239103 152.576338 270.967219 153.103169 270.029584 154.040804 
C 269.09195 154.978438 268.565118 156.250322 268.565118 157.576338 
C 268.565118 158.902353 269.09195 160.174237 270.029584 161.111871 
C 270.967219 162.049506 272.239103 162.576338 273.565118 162.576338 
z
" style="stroke:#000000;stroke-width:0.4;"/>
    <path clip-path="url(#p545fb4fea5)" d="M 263.510972 182.094908 
C 264.448606 182.094908 265.347964 181.722381 266.010972 181.059374 
C 266.67398 180.396366 267.046506 179.497008 267.046506 178.559374 
C 267.046506 177.621739 266.67398 176.722381 266.010972 176.059374 
C 265.347964 175.396366 264.448606 175.02384 263.510972 175.02384 
C 262.573337 175.02384 261.67398 175.396366 261.010972 176.059374 
C 260.347964 176.722381 259.975438 177.621739 259.975438 178.559374 
C 259.975438 179.497008 260.347964 180.396366 261.010972 181.059374 
C 261.67398 181.722381 262.573337 182.094908 263.510972 182.094908 
z
" style="fill:#808080;stroke:#000000;stroke-width:0.4;"/>
    <path clip-path="url(#p545fb4fea5)" d="M 253.456825 162.576338 
C 254.782841 162.576338 256.054725 162.049506 256.992359 161.111871 
C 257.929994 160.174237 258.456825 158.902353 258.456825 157.576338 
C 258.456825 156.250322 257.929994 154.978438 256.992359 154.040804 
C 256.054725 153.103169 254.782841 152.576338 253.456825 152.576338 
C 252.13081 152.576338 250.858926 153.103169 249.921291 154.040804 
C 248.983657 154.978438 248.456825 156.250322 248.456825 157.576338 
C 248.456825 158.902353 248.983657 160.174237 249.921291 161.111871 
C 250.858926 162.049506 252.13081 162.576338 253.456825 162.576338 
z
" style="stroke:#000000;stroke-width:0.4;"/>
    <path clip-path="url(#p545fb4fea5)" d="M 223.294386 162.576338 
C 224.620401 162.576338 225.892285 162.049506 226.82992 161.111871 
C 227.767554 160.174237 228.294386 158.902353 228.294386 157.576338 
C 228.294386 156.250322 227.767554 154.978438 226.82992 154.040804 
C 225.892285 153.103169 224.620401 152.576338 223.294386 152.576338 
C 221.96837 152.576338 220.696487 153.103169 219.758852 154.040804 
C 218.821217 154.978438 218.294386 156.250322 218.294386 157.576338 
C 218.294386 158.902353 218.821217 160.174237 219.758852 161.111871 
C 220.696487 162.049506 221.96837 162.576338 223.294386 162.576338 
z
" style="stroke:#000000;stroke-width:0.4;"/>
    <path clip-path="url(#p545fb4fea5)" d="M 183.0778 141.593301 
C 184.403815 141.593301 185.675699 141.06647 186.613334 140.128835 
C 187.550968 139.191201 188.0778 137.919317 188.0778 136.593301 
C 188.0778 135.267286 187.550968 133.995402 186.613334 133.057768 
C 185.675699 132.120133 184.403815 131.593301 183.0778 131.593301 
C 181.751784 131.593301 180.479901 132.120133 179.542266 133.057768 
C 178.604631 133.995402 178.0778 135.267286 178.0778 136.593301 
C 178.0778 137.919317 178.604631 139.191201 179.542266 140.128835 
C 180.479901 141.06647 181.751784 141.593301 183.0778 141.593301 
z
" style="stroke:#000000;stroke-width:0.4;"/>
    <path clip-path="url(#p545fb4fea5)" d="M 173.023653 161.111871 
C 173.961288 161.111871 174.860646 160.739345 175.523653 160.076338 
C 176.186661 159.41333 176.559187 158.513972 176.559187 157.576338 
C 176.559187 156.638703 176.186661 155.739345 175.523653 155.076338 
C 174.860646 154.41333 173.961288 154.040804 173.023653 154.040804 
C 172.086019 154.040804 171.186661 154.41333 170.523653 155.076338 
C 169.860646 155.739345 169.48812 156.638703 169.48812 157.576338 
C 169.48812 158.513972 169.860646 159.41333 170.523653 160.076338 
C 171.186661 160.739345 172.086019 161.111871 173.023653 161.111871 
z
" style="fill:#808080;stroke:#000000;stroke-width:0.4;"/>
    <path clip-path="url(#p545fb4fea5)" d="M 162.969507 141.593301 
C 164.295522 141.593301 165.567406 141.06647 166.505041 140.128835 
C 167.442675 139.191201 167.969507 137.919317 167.969507 136.593301 
C 167.969507 135.267286 167.442675 133.995402 166.505041 133.057768 
C 165.567406 132.120133 164.295522 131.593301 162.969507 131.593301 
C 161.643491 131.593301 160.371608 132.120133 159.433973 133.057768 
C 158.496339 133.995402 157.969507 135.267286 157.969507 136.593301 
C 157.969507 137.919317 158.496339 139.191201 159.433973 140.128835 
C 160.371608 141.06647 161.643491 141.593301 162.969507 141.593301 
z
" style="stroke:#000000;stroke-width:0.4;"/>
    <path clip-path="url(#p545fb4fea5)" d="M 152.915361 161.111871 
C 153.852995 161.111871 154.752353 160.739345 155.415361 160.076338 
C 156.078368 159.41333 156.450894 158.513972 156.450894 157.576338 
C 156.450894 156.638703 156.078368 155.739345 155.415361 155.076338 
C 154.752353 154.41333 153.852995 154.040804 152.915361 154.040804 
C 151.977726 154.040804 151.078368 154.41333 150.415361 155.076338 
C 149.752353 155.739345 149.379827 156.638703 149.379827 157.576338 
C 149.379827 158.513972 149.752353 159.41333 150.415361 160.076338 
C 151.078368 160.739345 151.977726 161.111871 152.915361 161.111871 
z
" style="fill:#808080;stroke:#000000;stroke-width:0.4;"/>
    <path clip-path="url(#p545fb4fea5)" d="M 142.861214 141.593301 
C 144.18723 141.593301 145.459113 141.06647 146.396748 140.128835 
C 147.334382 139.191201 147.861214 137.919317 147.861214 136.593301 
C 147.861214 135.267286 147.334382 133.995402 146.396748 133.057768 
C 145.459113 132.120133 144.18723 131.593301 142.861214 131.593301 
C 141.535199 131.593301 140.263315 132.120133 139.32568 133.057768 
C 138.388046 133.995402 137.861214 135.267286 137.861214 136.593301 
C 137.861214 137.919317 138.388046 139.191201 139.32568 140.128835 
C 140.263315 141.06647 141.535199 141.593301 142.861214 141.593301 
z
" style="stroke:#000000;stroke-width:0.4;"/>
    <path clip-path="url(#p545fb4fea5)" d="M 132.807068 245.044016 
C 133.744702 245.044016 134.64406 244.67149 135.307068 244.008482 
C 135.970075 243.345474 136.342601 242.446117 136.342601 241.508482 
C 136.342601 240.570847 135.970075 239.67149 135.307068 239.008482 
C 134.64406 238.345474 133.744702 237.972948 132.807068 237.972948 
C 131.869433 237.972948 130.970075 238.345474 130.307068 239.008482 
C 129.64406 239.67149 129.271534 240.570847 129.271534 241.508482 
C 129.271534 242.446117 129.64406 243.345474 130.307068 244.008482 
C 130.970075 244.67149 131.869433 245.044016 132.807068 245.044016 
z
" style="fill:#808080;stroke:#000000;stroke-width:0.4;"/>
    <path clip-path="url(#p545fb4fea5)" d="M 947.192932 140.128835 
C 948.130567 140.128835 949.029925 139.756309 949.692932 139.093301 
C 950.35594 138.430294 950.728466 137.530936 950.728466 136.593301 
C 950.728466 135.655667 950.35594 134.756309 949.692932 134.093301 
C 949.029925 133.430294 948.130567 133.057768 947.192932 133.057768 
C 946.255298 133.057768 945.35594 133.430294 944.692932 134.093301 
C 944.029925 134.756309 943.657399 135.655667 943.657399 136.593301 
C 943.657399 137.530936 944.029925 138.430294 944.692932 139.093301 
C 945.35594 139.756309 946.255298 140.128835 947.192932 140.128835 
z
" style="fill:#808080;stroke:#000000;stroke-width:0.4;"/>
    <path clip-path="url(#p545fb4fea5)" d="M 957.247079 140.128835 
C 958.184713 140.128835 959.084071 139.756309 959.747079 139.093301 
C 960.410087 138.430294 960.782613 137.530936 960.782613 136.593301 
C 960.782613 135.655667 960.410087 134.756309 959.747079 134.093301 
C 959.084071 133.430294 958.184713 133.057768 957.247079 133.057768 
C 956.309444 133.057768 955.410087 133.430294 954.747079 134.093301 
C 954.084071 134.756309 953.711545 135.655667 953.711545 136.593301 
C 953.711545 137.530936 954.084071 138.430294 954.747079 139.093301 
C 955.410087 139.756309 956.309444 140.128835 957.247079 140.128835 
z
" style="fill:#808080;stroke:#000000;stroke-width:0.4;"/>
    <path clip-path="url(#p545fb4fea5)" d="M 937.138786 140.128835 
C 938.076421 140.128835 938.975778 139.756309 939.638786 139.093301 
C 940.301794 138.430294 940.67432 137.530936 940.67432 136.593301 
C 940.67432 135.655667 940.301794 134.756309 939.638786 134.093301 
C 938.975778 133.430294 938.076421 133.057768 937.138786 133.057768 
C 936.201151 133.057768 935.301794 133.430294 934.638786 134.093301 
C 933.975778 134.756309 933.603252 135.655667 933.603252 136.593301 
C 933.603252 137.530936 933.975778 138.430294 934.638786 139.093301 
C 935.301794 139.756309 936.201151 140.128835 937.138786 140.128835 
z
" style="fill:#808080;stroke:#000000;stroke-width:0.4;"/>
    <path clip-path="url(#p545fb4fea5)" d="M 927.084639 99.627229 
C 928.410655 99.627229 929.682539 99.100398 930.620173 98.162763 
C 931.557808 97.225129 932.084639 95.953245 932.084639 94.627229 
C 932.084639 93.301214 931.557808 92.02933 930.620173 91.091695 
C 929.682539 90.154061 928.410655 89.627229 927.084639 89.627229 
C 925.758624 89.627229 924.48674 90.154061 923.549106 91.091695 
C 922.611471 92.02933 922.084639 93.301214 922.084639 94.627229 
C 922.084639 95.953245 922.611471 97.225129 923.549106 98.162763 
C 924.48674 99.100398 925.758624 99.627229 927.084639 99.627229 
z
" style="stroke:#000000;stroke-width:0.4;"/>
    <path clip-path="url(#p545fb4fea5)" d="M 967.301225 78.644193 
C 968.627241 78.644193 969.899125 78.117362 970.836759 77.179727 
C 971.774394 76.242092 972.301225 74.970209 972.301225 73.644193 
C 972.301225 72.318178 971.774394 71.046294 970.836759 70.108659 
C 969.899125 69.171025 968.627241 68.644193 967.301225 68.644193 
C 965.97521 68.644193 964.703326 69.171025 963.765692 70.108659 
C 962.828057 71.046294 962.301225 72.318178 962.301225 73.644193 
C 962.301225 74.970209 962.828057 76.242092 963.765692 77.179727 
C 964.703326 78.117362 965.97521 78.644193 967.301225 78.644193 
z
" style="stroke:#000000;stroke-width:0.4;"/>
    <path clip-path="url(#p545fb4fea5)" d="M 977.355372 98.162763 
C 978.293006 98.162763 979.192364 97.790237 979.855372 97.127229 
C 980.51838 96.464221 980.890906 95.564864 980.890906 94.627229 
C 980.890906 93.689595 980.51838 92.790237 979.855372 92.127229 
C 979.192364 91.464221 978.293006 91.091695 977.355372 91.091695 
C 976.417737 91.091695 975.51838 91.464221 974.855372 92.127229 
C 974.192364 92.790237 973.819838 93.689595 973.819838 94.627229 
C 973.819838 95.564864 974.192364 96.464221 974.855372 97.127229 
C 975.51838 97.790237 976.417737 98.162763 977.355372 98.162763 
z
" style="fill:#808080;stroke:#000000;stroke-width:0.4;"/>
    <path clip-path="url(#p545fb4fea5)" d="M 122.752921 57.661157 
C 124.078937 57.661157 125.35082 57.134325 126.288455 56.196691 
C 127.22609 55.259056 127.752921 53.987173 127.752921 52.661157 
C 127.752921 51.335142 127.22609 50.063258 126.288455 49.125623 
C 125.35082 48.187989 124.078937 47.661157 122.752921 47.661157 
C 121.426906 47.661157 120.155022 48.187989 119.217387 49.125623 
C 118.279753 50.063258 117.752921 51.335142 117.752921 52.661157 
C 117.752921 53.987173 118.279753 55.259056 119.217387 56.196691 
C 120.155022 57.134325 121.426906 57.661157 122.752921 57.661157 
z
" style="stroke:#000000;stroke-width:0.4;"/>
   </g>
   <g id="line2d_1">
    <path clip-path="url(#p545fb4fea5)" d="M 811.461955 493.2 
L 811.461955 10.8 
" style="fill:none;stroke:#ff0000;stroke-linecap:square;stroke-width:1.5;"/>
   </g>
   <g id="patch_3">
    <path d="M 10.8 493.2 
L 10.8 10.8 
" style="fill:none;stroke:#000000;stroke-linecap:square;stroke-linejoin:miter;stroke-width:0.8;"/>
   </g>
   <g id="patch_4">
    <path d="M 1069.2 493.2 
L 1069.2 10.8 
" style="fill:none;stroke:#000000;stroke-linecap:square;stroke-linejoin:miter;stroke-width:0.8;"/>
   </g>
   <g id="patch_5">
    <path d="M 10.8 493.2 
L 1069.2 493.2 
" style="fill:none;stroke:#000000;stroke-linecap:square;stroke-linejoin:miter;stroke-width:0.8;"/>
   </g>
   <g id="patch_6">
    <path d="M 10.8 10.8 
L 1069.2 10.8 
" style="fill:none;stroke:#000000;stroke-linecap:square;stroke-linejoin:miter;stroke-width:0.8;"/>
   </g>
  </g>
 </g>
 <defs>
  <clipPath id="p545fb4fea5">
   <rect height="482.4" width="1058.4" x="10.8" y="10.8"/>
  </clipPath>
 </defs>
</svg>
