<?xml version="1.0" encoding="utf-8" standalone="no"?>
<!DOCTYPE svg PUBLIC "-//W3C//DTD SVG 1.1//EN"
  "http://www.w3.org/Graphics/SVG/1.1/DTD/svg11.dtd">
<svg height="504pt" version="1.1" viewBox="0 0 1080 504" width="1080pt" xmlns="http://www.w3.org/2000/svg" xmlns:xlink="http://www.w3.org/1999/xlink">
 <metadata>
  <rdf:RDF xmlns:cc="http://creativecommons.org/ns#" xmlns:dc="http://purl.org/dc/elements/1.1/" xmlns:rdf="http://www.w3.org/1999/02/22-rdf-syntax-ns#">
   <cc:Work>
    <dc:type rdf:resource="http://purl.org/dc/dcmitype/StillImage"/>
    <dc:date>2022-04-03T07:42:35.144538</dc:date>
    <dc:format>image/svg+xml</dc:format>
    <dc:creator>
     <cc:Agent>
      <dc:title>Matplotlib v3.4.3, https://matplotlib.org/</dc:title>
     </cc:Agent>
    </dc:creator>
   </cc:Work>
  </rdf:RDF>
 </metadata>
 <defs>
  <style type="text/css">*{stroke-linecap:butt;stroke-linejoin:round;}</style>
 </defs>
 <g id="figure_1">
  <g id="patch_1">
   <path d="M 0 504 
L 1080 504 
L 1080 0 
L 0 0 
z
" style="fill:#ffffff;"/>
  </g>
  <g id="axes_1">
   <g id="patch_2">
    <path d="M 10.8 493.2 
L 1069.2 493.2 
L 1069.2 10.8 
L 10.8 10.8 
z
" style="fill:#ffffff;"/>
   </g>
   <g id="LineCollection_1">
    <path clip-path="url(#p5c1be3ee39)" d="M 102.644628 73.644193 
L 113.183312 73.644193 
" style="fill:none;stroke:#000000;stroke-width:0.4;"/>
    <path clip-path="url(#p5c1be3ee39)" d="M 102.644628 73.644193 
L 123.721995 52.661157 
" style="fill:none;stroke:#000000;stroke-width:0.4;"/>
    <path clip-path="url(#p5c1be3ee39)" d="M 208.031465 178.559374 
L 218.570148 178.559374 
" style="fill:none;stroke:#000000;stroke-width:0.4;"/>
    <path clip-path="url(#p5c1be3ee39)" d="M 208.031465 178.559374 
L 197.492781 178.559374 
" style="fill:none;stroke:#000000;stroke-width:0.4;"/>
    <path clip-path="url(#p5c1be3ee39)" d="M 197.492781 178.559374 
L 229.108832 157.576338 
" style="fill:none;stroke:#000000;stroke-width:0.4;"/>
    <path clip-path="url(#p5c1be3ee39)" d="M 239.647516 178.559374 
L 250.186199 178.559374 
" style="fill:none;stroke:#000000;stroke-width:0.4;"/>
    <path clip-path="url(#p5c1be3ee39)" d="M 239.647516 178.559374 
L 260.724883 157.576338 
" style="fill:none;stroke:#000000;stroke-width:0.4;"/>
    <path clip-path="url(#p5c1be3ee39)" d="M 313.418301 220.525446 
L 323.956985 220.525446 
" style="fill:none;stroke:#000000;stroke-width:0.4;"/>
    <path clip-path="url(#p5c1be3ee39)" d="M 313.418301 220.525446 
L 334.495669 199.54241 
" style="fill:none;stroke:#000000;stroke-width:0.4;"/>
    <path clip-path="url(#p5c1be3ee39)" d="M 366.11172 367.406699 
L 376.650403 367.406699 
" style="fill:none;stroke:#000000;stroke-width:0.4;"/>
    <path clip-path="url(#p5c1be3ee39)" d="M 366.11172 367.406699 
L 387.189087 220.525446 
" style="fill:none;stroke:#000000;stroke-width:0.4;"/>
    <path clip-path="url(#p5c1be3ee39)" d="M 408.266454 325.440626 
L 418.805138 325.440626 
" style="fill:none;stroke:#000000;stroke-width:0.4;"/>
    <path clip-path="url(#p5c1be3ee39)" d="M 408.266454 325.440626 
L 429.343822 241.508482 
" style="fill:none;stroke:#000000;stroke-width:0.4;"/>
    <path clip-path="url(#p5c1be3ee39)" d="M 524.191975 409.372771 
L 534.730658 409.372771 
" style="fill:none;stroke:#000000;stroke-width:0.4;"/>
    <path clip-path="url(#p5c1be3ee39)" d="M 524.191975 409.372771 
L 513.653291 409.372771 
" style="fill:none;stroke:#000000;stroke-width:0.4;"/>
    <path clip-path="url(#p5c1be3ee39)" d="M 513.653291 409.372771 
L 503.114607 409.372771 
" style="fill:none;stroke:#000000;stroke-width:0.4;"/>
    <path clip-path="url(#p5c1be3ee39)" d="M 503.114607 409.372771 
L 492.575924 451.338843 
" style="fill:none;stroke:#000000;stroke-width:0.4;"/>
    <path clip-path="url(#p5c1be3ee39)" d="M 503.114607 409.372771 
L 482.03724 409.372771 
" style="fill:none;stroke:#000000;stroke-width:0.4;"/>
    <path clip-path="url(#p5c1be3ee39)" d="M 482.03724 409.372771 
L 471.498556 430.355807 
" style="fill:none;stroke:#000000;stroke-width:0.4;"/>
    <path clip-path="url(#p5c1be3ee39)" d="M 482.03724 409.372771 
L 545.269342 388.389735 
" style="fill:none;stroke:#000000;stroke-width:0.4;"/>
    <path clip-path="url(#p5c1be3ee39)" d="M 545.269342 388.389735 
L 555.808025 388.389735 
" style="fill:none;stroke:#000000;stroke-width:0.4;"/>
    <path clip-path="url(#p5c1be3ee39)" d="M 545.269342 388.389735 
L 460.959873 388.389735 
" style="fill:none;stroke:#000000;stroke-width:0.4;"/>
    <path clip-path="url(#p5c1be3ee39)" d="M 460.959873 388.389735 
L 566.346709 367.406699 
" style="fill:none;stroke:#000000;stroke-width:0.4;"/>
    <path clip-path="url(#p5c1be3ee39)" d="M 587.424076 367.406699 
L 597.96276 367.406699 
" style="fill:none;stroke:#000000;stroke-width:0.4;"/>
    <path clip-path="url(#p5c1be3ee39)" d="M 587.424076 367.406699 
L 576.885393 367.406699 
" style="fill:none;stroke:#000000;stroke-width:0.4;"/>
    <path clip-path="url(#p5c1be3ee39)" d="M 576.885393 367.406699 
L 566.346709 367.406699 
" style="fill:none;stroke:#000000;stroke-width:0.4;"/>
    <path clip-path="url(#p5c1be3ee39)" d="M 566.346709 367.406699 
L 608.501444 346.423662 
" style="fill:none;stroke:#000000;stroke-width:0.4;"/>
    <path clip-path="url(#p5c1be3ee39)" d="M 682.272229 346.423662 
L 692.810913 346.423662 
" style="fill:none;stroke:#000000;stroke-width:0.4;"/>
    <path clip-path="url(#p5c1be3ee39)" d="M 682.272229 346.423662 
L 671.733546 346.423662 
" style="fill:none;stroke:#000000;stroke-width:0.4;"/>
    <path clip-path="url(#p5c1be3ee39)" d="M 671.733546 346.423662 
L 661.194862 346.423662 
" style="fill:none;stroke:#000000;stroke-width:0.4;"/>
    <path clip-path="url(#p5c1be3ee39)" d="M 661.194862 346.423662 
L 650.656178 346.423662 
" style="fill:none;stroke:#000000;stroke-width:0.4;"/>
    <path clip-path="url(#p5c1be3ee39)" d="M 650.656178 346.423662 
L 640.117495 346.423662 
" style="fill:none;stroke:#000000;stroke-width:0.4;"/>
    <path clip-path="url(#p5c1be3ee39)" d="M 640.117495 346.423662 
L 629.578811 346.423662 
" style="fill:none;stroke:#000000;stroke-width:0.4;"/>
    <path clip-path="url(#p5c1be3ee39)" d="M 629.578811 346.423662 
L 619.040127 346.423662 
" style="fill:none;stroke:#000000;stroke-width:0.4;"/>
    <path clip-path="url(#p5c1be3ee39)" d="M 619.040127 346.423662 
L 608.501444 346.423662 
" style="fill:none;stroke:#000000;stroke-width:0.4;"/>
    <path clip-path="url(#p5c1be3ee39)" d="M 608.501444 346.423662 
L 703.349597 325.440626 
" style="fill:none;stroke:#000000;stroke-width:0.4;"/>
    <path clip-path="url(#p5c1be3ee39)" d="M 713.88828 367.406699 
L 724.426964 367.406699 
" style="fill:none;stroke:#000000;stroke-width:0.4;"/>
    <path clip-path="url(#p5c1be3ee39)" d="M 713.88828 367.406699 
L 703.349597 325.440626 
" style="fill:none;stroke:#000000;stroke-width:0.4;"/>
    <path clip-path="url(#p5c1be3ee39)" d="M 703.349597 325.440626 
L 450.421189 325.440626 
" style="fill:none;stroke:#000000;stroke-width:0.4;"/>
    <path clip-path="url(#p5c1be3ee39)" d="M 450.421189 325.440626 
L 439.882505 367.406699 
" style="fill:none;stroke:#000000;stroke-width:0.4;"/>
    <path clip-path="url(#p5c1be3ee39)" d="M 450.421189 325.440626 
L 734.965648 304.45759 
" style="fill:none;stroke:#000000;stroke-width:0.4;"/>
    <path clip-path="url(#p5c1be3ee39)" d="M 766.581699 325.440626 
L 777.120382 325.440626 
" style="fill:none;stroke:#000000;stroke-width:0.4;"/>
    <path clip-path="url(#p5c1be3ee39)" d="M 766.581699 325.440626 
L 756.043015 325.440626 
" style="fill:none;stroke:#000000;stroke-width:0.4;"/>
    <path clip-path="url(#p5c1be3ee39)" d="M 756.043015 325.440626 
L 745.504331 325.440626 
" style="fill:none;stroke:#000000;stroke-width:0.4;"/>
    <path clip-path="url(#p5c1be3ee39)" d="M 745.504331 325.440626 
L 734.965648 304.45759 
" style="fill:none;stroke:#000000;stroke-width:0.4;"/>
    <path clip-path="url(#p5c1be3ee39)" d="M 734.965648 304.45759 
L 787.659066 283.474554 
" style="fill:none;stroke:#000000;stroke-width:0.4;"/>
    <path clip-path="url(#p5c1be3ee39)" d="M 787.659066 283.474554 
L 798.19775 283.474554 
" style="fill:none;stroke:#000000;stroke-width:0.4;"/>
    <path clip-path="url(#p5c1be3ee39)" d="M 787.659066 283.474554 
L 808.736433 262.491518 
" style="fill:none;stroke:#000000;stroke-width:0.4;"/>
    <path clip-path="url(#p5c1be3ee39)" d="M 829.813801 262.491518 
L 840.352484 262.491518 
" style="fill:none;stroke:#000000;stroke-width:0.4;"/>
    <path clip-path="url(#p5c1be3ee39)" d="M 829.813801 262.491518 
L 819.275117 262.491518 
" style="fill:none;stroke:#000000;stroke-width:0.4;"/>
    <path clip-path="url(#p5c1be3ee39)" d="M 819.275117 262.491518 
L 808.736433 262.491518 
" style="fill:none;stroke:#000000;stroke-width:0.4;"/>
    <path clip-path="url(#p5c1be3ee39)" d="M 808.736433 262.491518 
L 429.343822 241.508482 
" style="fill:none;stroke:#000000;stroke-width:0.4;"/>
    <path clip-path="url(#p5c1be3ee39)" d="M 429.343822 241.508482 
L 850.891168 220.525446 
" style="fill:none;stroke:#000000;stroke-width:0.4;"/>
    <path clip-path="url(#p5c1be3ee39)" d="M 850.891168 220.525446 
L 861.429852 220.525446 
" style="fill:none;stroke:#000000;stroke-width:0.4;"/>
    <path clip-path="url(#p5c1be3ee39)" d="M 850.891168 220.525446 
L 397.727771 220.525446 
" style="fill:none;stroke:#000000;stroke-width:0.4;"/>
    <path clip-path="url(#p5c1be3ee39)" d="M 397.727771 220.525446 
L 387.189087 220.525446 
" style="fill:none;stroke:#000000;stroke-width:0.4;"/>
    <path clip-path="url(#p5c1be3ee39)" d="M 387.189087 220.525446 
L 355.573036 220.525446 
" style="fill:none;stroke:#000000;stroke-width:0.4;"/>
    <path clip-path="url(#p5c1be3ee39)" d="M 355.573036 220.525446 
L 345.034352 262.491518 
" style="fill:none;stroke:#000000;stroke-width:0.4;"/>
    <path clip-path="url(#p5c1be3ee39)" d="M 355.573036 220.525446 
L 334.495669 199.54241 
" style="fill:none;stroke:#000000;stroke-width:0.4;"/>
    <path clip-path="url(#p5c1be3ee39)" d="M 334.495669 199.54241 
L 302.879618 199.54241 
" style="fill:none;stroke:#000000;stroke-width:0.4;"/>
    <path clip-path="url(#p5c1be3ee39)" d="M 302.879618 199.54241 
L 292.340934 304.45759 
" style="fill:none;stroke:#000000;stroke-width:0.4;"/>
    <path clip-path="url(#p5c1be3ee39)" d="M 302.879618 199.54241 
L 871.968535 178.559374 
" style="fill:none;stroke:#000000;stroke-width:0.4;"/>
    <path clip-path="url(#p5c1be3ee39)" d="M 871.968535 178.559374 
L 882.507219 220.525446 
" style="fill:none;stroke:#000000;stroke-width:0.4;"/>
    <path clip-path="url(#p5c1be3ee39)" d="M 871.968535 178.559374 
L 893.045903 157.576338 
" style="fill:none;stroke:#000000;stroke-width:0.4;"/>
    <path clip-path="url(#p5c1be3ee39)" d="M 903.584586 199.54241 
L 914.12327 199.54241 
" style="fill:none;stroke:#000000;stroke-width:0.4;"/>
    <path clip-path="url(#p5c1be3ee39)" d="M 903.584586 199.54241 
L 893.045903 157.576338 
" style="fill:none;stroke:#000000;stroke-width:0.4;"/>
    <path clip-path="url(#p5c1be3ee39)" d="M 893.045903 157.576338 
L 281.80225 157.576338 
" style="fill:none;stroke:#000000;stroke-width:0.4;"/>
    <path clip-path="url(#p5c1be3ee39)" d="M 281.80225 157.576338 
L 271.263567 178.559374 
" style="fill:none;stroke:#000000;stroke-width:0.4;"/>
    <path clip-path="url(#p5c1be3ee39)" d="M 281.80225 157.576338 
L 260.724883 157.576338 
" style="fill:none;stroke:#000000;stroke-width:0.4;"/>
    <path clip-path="url(#p5c1be3ee39)" d="M 260.724883 157.576338 
L 229.108832 157.576338 
" style="fill:none;stroke:#000000;stroke-width:0.4;"/>
    <path clip-path="url(#p5c1be3ee39)" d="M 229.108832 157.576338 
L 186.954097 136.593301 
" style="fill:none;stroke:#000000;stroke-width:0.4;"/>
    <path clip-path="url(#p5c1be3ee39)" d="M 186.954097 136.593301 
L 176.415414 157.576338 
" style="fill:none;stroke:#000000;stroke-width:0.4;"/>
    <path clip-path="url(#p5c1be3ee39)" d="M 186.954097 136.593301 
L 165.87673 136.593301 
" style="fill:none;stroke:#000000;stroke-width:0.4;"/>
    <path clip-path="url(#p5c1be3ee39)" d="M 165.87673 136.593301 
L 155.338046 157.576338 
" style="fill:none;stroke:#000000;stroke-width:0.4;"/>
    <path clip-path="url(#p5c1be3ee39)" d="M 165.87673 136.593301 
L 144.799363 136.593301 
" style="fill:none;stroke:#000000;stroke-width:0.4;"/>
    <path clip-path="url(#p5c1be3ee39)" d="M 144.799363 136.593301 
L 134.260679 241.508482 
" style="fill:none;stroke:#000000;stroke-width:0.4;"/>
    <path clip-path="url(#p5c1be3ee39)" d="M 144.799363 136.593301 
L 924.661954 94.627229 
" style="fill:none;stroke:#000000;stroke-width:0.4;"/>
    <path clip-path="url(#p5c1be3ee39)" d="M 945.739321 136.593301 
L 956.278005 136.593301 
" style="fill:none;stroke:#000000;stroke-width:0.4;"/>
    <path clip-path="url(#p5c1be3ee39)" d="M 945.739321 136.593301 
L 935.200637 136.593301 
" style="fill:none;stroke:#000000;stroke-width:0.4;"/>
    <path clip-path="url(#p5c1be3ee39)" d="M 935.200637 136.593301 
L 924.661954 94.627229 
" style="fill:none;stroke:#000000;stroke-width:0.4;"/>
    <path clip-path="url(#p5c1be3ee39)" d="M 924.661954 94.627229 
L 966.816688 73.644193 
" style="fill:none;stroke:#000000;stroke-width:0.4;"/>
    <path clip-path="url(#p5c1be3ee39)" d="M 966.816688 73.644193 
L 977.355372 94.627229 
" style="fill:none;stroke:#000000;stroke-width:0.4;"/>
    <path clip-path="url(#p5c1be3ee39)" d="M 966.816688 73.644193 
L 123.721995 52.661157 
" style="fill:none;stroke:#000000;stroke-width:0.4;"/>
   </g>
   <g id="matplotlib.axis_1">
    <g id="xtick_1"/>
    <g id="xtick_2"/>
    <g id="xtick_3"/>
    <g id="xtick_4"/>
    <g id="xtick_5"/>
   </g>
   <g id="matplotlib.axis_2">
    <g id="ytick_1"/>
    <g id="ytick_2"/>
    <g id="ytick_3"/>
    <g id="ytick_4"/>
    <g id="ytick_5"/>
   </g>
   <g id="PathCollection_1">
    <path clip-path="url(#p5c1be3ee39)" d="M 102.644628 77.179727 
C 103.582263 77.179727 104.48162 76.807201 105.144628 76.144193 
C 105.807636 75.481185 106.180162 74.581828 106.180162 73.644193 
C 106.180162 72.706559 105.807636 71.807201 105.144628 71.144193 
C 104.48162 70.481185 103.582263 70.108659 102.644628 70.108659 
C 101.706994 70.108659 100.807636 70.481185 100.144628 71.144193 
C 99.48162 71.807201 99.109094 72.706559 99.109094 73.644193 
C 99.109094 74.581828 99.48162 75.481185 100.144628 76.144193 
C 100.807636 76.807201 101.706994 77.179727 102.644628 77.179727 
z
" style="fill:#808080;stroke:#000000;stroke-width:0.4;"/>
    <path clip-path="url(#p5c1be3ee39)" d="M 113.183312 77.179727 
C 114.120946 77.179727 115.020304 76.807201 115.683312 76.144193 
C 116.34632 75.481185 116.718846 74.581828 116.718846 73.644193 
C 116.718846 72.706559 116.34632 71.807201 115.683312 71.144193 
C 115.020304 70.481185 114.120946 70.108659 113.183312 70.108659 
C 112.245677 70.108659 111.34632 70.481185 110.683312 71.144193 
C 110.020304 71.807201 109.647778 72.706559 109.647778 73.644193 
C 109.647778 74.581828 110.020304 75.481185 110.683312 76.144193 
C 111.34632 76.807201 112.245677 77.179727 113.183312 77.179727 
z
" style="fill:#808080;stroke:#000000;stroke-width:0.4;"/>
    <path clip-path="url(#p5c1be3ee39)" d="M 208.031465 182.094908 
C 208.969099 182.094908 209.868457 181.722381 210.531465 181.059374 
C 211.194472 180.396366 211.566999 179.497008 211.566999 178.559374 
C 211.566999 177.621739 211.194472 176.722381 210.531465 176.059374 
C 209.868457 175.396366 208.969099 175.02384 208.031465 175.02384 
C 207.09383 175.02384 206.194472 175.396366 205.531465 176.059374 
C 204.868457 176.722381 204.495931 177.621739 204.495931 178.559374 
C 204.495931 179.497008 204.868457 180.396366 205.531465 181.059374 
C 206.194472 181.722381 207.09383 182.094908 208.031465 182.094908 
z
" style="fill:#808080;stroke:#000000;stroke-width:0.4;"/>
    <path clip-path="url(#p5c1be3ee39)" d="M 218.570148 182.094908 
C 219.507783 182.094908 220.407141 181.722381 221.070148 181.059374 
C 221.733156 180.396366 222.105682 179.497008 222.105682 178.559374 
C 222.105682 177.621739 221.733156 176.722381 221.070148 176.059374 
C 220.407141 175.396366 219.507783 175.02384 218.570148 175.02384 
C 217.632514 175.02384 216.733156 175.396366 216.070148 176.059374 
C 215.407141 176.722381 215.034614 177.621739 215.034614 178.559374 
C 215.034614 179.497008 215.407141 180.396366 216.070148 181.059374 
C 216.733156 181.722381 217.632514 182.094908 218.570148 182.094908 
z
" style="fill:#808080;stroke:#000000;stroke-width:0.4;"/>
    <path clip-path="url(#p5c1be3ee39)" d="M 197.492781 182.094908 
C 198.430416 182.094908 199.329773 181.722381 199.992781 181.059374 
C 200.655789 180.396366 201.028315 179.497008 201.028315 178.559374 
C 201.028315 177.621739 200.655789 176.722381 199.992781 176.059374 
C 199.329773 175.396366 198.430416 175.02384 197.492781 175.02384 
C 196.555146 175.02384 195.655789 175.396366 194.992781 176.059374 
C 194.329773 176.722381 193.957247 177.621739 193.957247 178.559374 
C 193.957247 179.497008 194.329773 180.396366 194.992781 181.059374 
C 195.655789 181.722381 196.555146 182.094908 197.492781 182.094908 
z
" style="fill:#808080;stroke:#000000;stroke-width:0.4;"/>
    <path clip-path="url(#p5c1be3ee39)" d="M 239.647516 182.094908 
C 240.58515 182.094908 241.484508 181.722381 242.147516 181.059374 
C 242.810523 180.396366 243.18305 179.497008 243.18305 178.559374 
C 243.18305 177.621739 242.810523 176.722381 242.147516 176.059374 
C 241.484508 175.396366 240.58515 175.02384 239.647516 175.02384 
C 238.709881 175.02384 237.810523 175.396366 237.147516 176.059374 
C 236.484508 176.722381 236.111982 177.621739 236.111982 178.559374 
C 236.111982 179.497008 236.484508 180.396366 237.147516 181.059374 
C 237.810523 181.722381 238.709881 182.094908 239.647516 182.094908 
z
" style="fill:#808080;stroke:#000000;stroke-width:0.4;"/>
    <path clip-path="url(#p5c1be3ee39)" d="M 250.186199 182.094908 
C 251.123834 182.094908 252.023192 181.722381 252.686199 181.059374 
C 253.349207 180.396366 253.721733 179.497008 253.721733 178.559374 
C 253.721733 177.621739 253.349207 176.722381 252.686199 176.059374 
C 252.023192 175.396366 251.123834 175.02384 250.186199 175.02384 
C 249.248565 175.02384 248.349207 175.396366 247.686199 176.059374 
C 247.023192 176.722381 246.650665 177.621739 246.650665 178.559374 
C 246.650665 179.497008 247.023192 180.396366 247.686199 181.059374 
C 248.349207 181.722381 249.248565 182.094908 250.186199 182.094908 
z
" style="fill:#808080;stroke:#000000;stroke-width:0.4;"/>
    <path clip-path="url(#p5c1be3ee39)" d="M 313.418301 224.06098 
C 314.355936 224.06098 315.255294 223.688454 315.918301 223.025446 
C 316.581309 222.362438 316.953835 221.46308 316.953835 220.525446 
C 316.953835 219.587811 316.581309 218.688454 315.918301 218.025446 
C 315.255294 217.362438 314.355936 216.989912 313.418301 216.989912 
C 312.480667 216.989912 311.581309 217.362438 310.918301 218.025446 
C 310.255294 218.688454 309.882767 219.587811 309.882767 220.525446 
C 309.882767 221.46308 310.255294 222.362438 310.918301 223.025446 
C 311.581309 223.688454 312.480667 224.06098 313.418301 224.06098 
z
" style="fill:#808080;stroke:#000000;stroke-width:0.4;"/>
    <path clip-path="url(#p5c1be3ee39)" d="M 323.956985 224.06098 
C 324.89462 224.06098 325.793977 223.688454 326.456985 223.025446 
C 327.119993 222.362438 327.492519 221.46308 327.492519 220.525446 
C 327.492519 219.587811 327.119993 218.688454 326.456985 218.025446 
C 325.793977 217.362438 324.89462 216.989912 323.956985 216.989912 
C 323.01935 216.989912 322.119993 217.362438 321.456985 218.025446 
C 320.793977 218.688454 320.421451 219.587811 320.421451 220.525446 
C 320.421451 221.46308 320.793977 222.362438 321.456985 223.025446 
C 322.119993 223.688454 323.01935 224.06098 323.956985 224.06098 
z
" style="fill:#808080;stroke:#000000;stroke-width:0.4;"/>
    <path clip-path="url(#p5c1be3ee39)" d="M 366.11172 370.942232 
C 367.049354 370.942232 367.948712 370.569706 368.61172 369.906699 
C 369.274727 369.243691 369.647254 368.344333 369.647254 367.406699 
C 369.647254 366.469064 369.274727 365.569706 368.61172 364.906699 
C 367.948712 364.243691 367.049354 363.871165 366.11172 363.871165 
C 365.174085 363.871165 364.274727 364.243691 363.61172 364.906699 
C 362.948712 365.569706 362.576186 366.469064 362.576186 367.406699 
C 362.576186 368.344333 362.948712 369.243691 363.61172 369.906699 
C 364.274727 370.569706 365.174085 370.942232 366.11172 370.942232 
z
" style="fill:#808080;stroke:#000000;stroke-width:0.4;"/>
    <path clip-path="url(#p5c1be3ee39)" d="M 376.650403 370.942232 
C 377.588038 370.942232 378.487396 370.569706 379.150403 369.906699 
C 379.813411 369.243691 380.185937 368.344333 380.185937 367.406699 
C 380.185937 366.469064 379.813411 365.569706 379.150403 364.906699 
C 378.487396 364.243691 377.588038 363.871165 376.650403 363.871165 
C 375.712769 363.871165 374.813411 364.243691 374.150403 364.906699 
C 373.487396 365.569706 373.114869 366.469064 373.114869 367.406699 
C 373.114869 368.344333 373.487396 369.243691 374.150403 369.906699 
C 374.813411 370.569706 375.712769 370.942232 376.650403 370.942232 
z
" style="fill:#808080;stroke:#000000;stroke-width:0.4;"/>
    <path clip-path="url(#p5c1be3ee39)" d="M 408.266454 328.97616 
C 409.204089 328.97616 410.103446 328.603634 410.766454 327.940626 
C 411.429462 327.277619 411.801988 326.378261 411.801988 325.440626 
C 411.801988 324.502992 411.429462 323.603634 410.766454 322.940626 
C 410.103446 322.277619 409.204089 321.905092 408.266454 321.905092 
C 407.32882 321.905092 406.429462 322.277619 405.766454 322.940626 
C 405.103446 323.603634 404.73092 324.502992 404.73092 325.440626 
C 404.73092 326.378261 405.103446 327.277619 405.766454 327.940626 
C 406.429462 328.603634 407.32882 328.97616 408.266454 328.97616 
z
" style="fill:#808080;stroke:#000000;stroke-width:0.4;"/>
    <path clip-path="url(#p5c1be3ee39)" d="M 418.805138 328.97616 
C 419.742772 328.97616 420.64213 328.603634 421.305138 327.940626 
C 421.968146 327.277619 422.340672 326.378261 422.340672 325.440626 
C 422.340672 324.502992 421.968146 323.603634 421.305138 322.940626 
C 420.64213 322.277619 419.742772 321.905092 418.805138 321.905092 
C 417.867503 321.905092 416.968146 322.277619 416.305138 322.940626 
C 415.64213 323.603634 415.269604 324.502992 415.269604 325.440626 
C 415.269604 326.378261 415.64213 327.277619 416.305138 327.940626 
C 416.968146 328.603634 417.867503 328.97616 418.805138 328.97616 
z
" style="fill:#808080;stroke:#000000;stroke-width:0.4;"/>
    <path clip-path="url(#p5c1be3ee39)" d="M 524.191975 412.908305 
C 525.129609 412.908305 526.028967 412.535779 526.691975 411.872771 
C 527.354982 411.209763 527.727508 410.310405 527.727508 409.372771 
C 527.727508 408.435136 527.354982 407.535779 526.691975 406.872771 
C 526.028967 406.209763 525.129609 405.837237 524.191975 405.837237 
C 523.25434 405.837237 522.354982 406.209763 521.691975 406.872771 
C 521.028967 407.535779 520.656441 408.435136 520.656441 409.372771 
C 520.656441 410.310405 521.028967 411.209763 521.691975 411.872771 
C 522.354982 412.535779 523.25434 412.908305 524.191975 412.908305 
z
" style="fill:#808080;stroke:#000000;stroke-width:0.4;"/>
    <path clip-path="url(#p5c1be3ee39)" d="M 534.730658 412.908305 
C 535.668293 412.908305 536.56765 412.535779 537.230658 411.872771 
C 537.893666 411.209763 538.266192 410.310405 538.266192 409.372771 
C 538.266192 408.435136 537.893666 407.535779 537.230658 406.872771 
C 536.56765 406.209763 535.668293 405.837237 534.730658 405.837237 
C 533.793024 405.837237 532.893666 406.209763 532.230658 406.872771 
C 531.56765 407.535779 531.195124 408.435136 531.195124 409.372771 
C 531.195124 410.310405 531.56765 411.209763 532.230658 411.872771 
C 532.893666 412.535779 533.793024 412.908305 534.730658 412.908305 
z
" style="fill:#808080;stroke:#000000;stroke-width:0.4;"/>
    <path clip-path="url(#p5c1be3ee39)" d="M 513.653291 412.908305 
C 514.590925 412.908305 515.490283 412.535779 516.153291 411.872771 
C 516.816299 411.209763 517.188825 410.310405 517.188825 409.372771 
C 517.188825 408.435136 516.816299 407.535779 516.153291 406.872771 
C 515.490283 406.209763 514.590925 405.837237 513.653291 405.837237 
C 512.715656 405.837237 511.816299 406.209763 511.153291 406.872771 
C 510.490283 407.535779 510.117757 408.435136 510.117757 409.372771 
C 510.117757 410.310405 510.490283 411.209763 511.153291 411.872771 
C 511.816299 412.535779 512.715656 412.908305 513.653291 412.908305 
z
" style="fill:#808080;stroke:#000000;stroke-width:0.4;"/>
    <path clip-path="url(#p5c1be3ee39)" d="M 503.114607 414.372771 
C 504.440623 414.372771 505.712507 413.845939 506.650141 412.908305 
C 507.587776 411.97067 508.114607 410.698786 508.114607 409.372771 
C 508.114607 408.046755 507.587776 406.774871 506.650141 405.837237 
C 505.712507 404.899602 504.440623 404.372771 503.114607 404.372771 
C 501.788592 404.372771 500.516708 404.899602 499.579073 405.837237 
C 498.641439 406.774871 498.114607 408.046755 498.114607 409.372771 
C 498.114607 410.698786 498.641439 411.97067 499.579073 412.908305 
C 500.516708 413.845939 501.788592 414.372771 503.114607 414.372771 
z
" style="stroke:#000000;stroke-width:0.4;"/>
    <path clip-path="url(#p5c1be3ee39)" d="M 492.575924 456.338843 
C 493.901939 456.338843 495.173823 455.812011 496.111457 454.874377 
C 497.049092 453.936742 497.575924 452.664858 497.575924 451.338843 
C 497.575924 450.012827 497.049092 448.740944 496.111457 447.803309 
C 495.173823 446.865675 493.901939 446.338843 492.575924 446.338843 
C 491.249908 446.338843 489.978024 446.865675 489.04039 447.803309 
C 488.102755 448.740944 487.575924 450.012827 487.575924 451.338843 
C 487.575924 452.664858 488.102755 453.936742 489.04039 454.874377 
C 489.978024 455.812011 491.249908 456.338843 492.575924 456.338843 
z
" style="stroke:#000000;stroke-width:0.4;"/>
    <path clip-path="url(#p5c1be3ee39)" d="M 482.03724 414.372771 
C 483.363255 414.372771 484.635139 413.845939 485.572774 412.908305 
C 486.510408 411.97067 487.03724 410.698786 487.03724 409.372771 
C 487.03724 408.046755 486.510408 406.774871 485.572774 405.837237 
C 484.635139 404.899602 483.363255 404.372771 482.03724 404.372771 
C 480.711224 404.372771 479.439341 404.899602 478.501706 405.837237 
C 477.564071 406.774871 477.03724 408.046755 477.03724 409.372771 
C 477.03724 410.698786 477.564071 411.97067 478.501706 412.908305 
C 479.439341 413.845939 480.711224 414.372771 482.03724 414.372771 
z
" style="stroke:#000000;stroke-width:0.4;"/>
    <path clip-path="url(#p5c1be3ee39)" d="M 471.498556 433.891341 
C 472.436191 433.891341 473.335548 433.518815 473.998556 432.855807 
C 474.661564 432.192799 475.03409 431.293441 475.03409 430.355807 
C 475.03409 429.418172 474.661564 428.518815 473.998556 427.855807 
C 473.335548 427.192799 472.436191 426.820273 471.498556 426.820273 
C 470.560922 426.820273 469.661564 427.192799 468.998556 427.855807 
C 468.335548 428.518815 467.963022 429.418172 467.963022 430.355807 
C 467.963022 431.293441 468.335548 432.192799 468.998556 432.855807 
C 469.661564 433.518815 470.560922 433.891341 471.498556 433.891341 
z
" style="fill:#808080;stroke:#000000;stroke-width:0.4;"/>
    <path clip-path="url(#p5c1be3ee39)" d="M 545.269342 393.389735 
C 546.595357 393.389735 547.867241 392.862903 548.804876 391.925269 
C 549.74251 390.987634 550.269342 389.71575 550.269342 388.389735 
C 550.269342 387.063719 549.74251 385.791835 548.804876 384.854201 
C 547.867241 383.916566 546.595357 383.389735 545.269342 383.389735 
C 543.943326 383.389735 542.671442 383.916566 541.733808 384.854201 
C 540.796173 385.791835 540.269342 387.063719 540.269342 388.389735 
C 540.269342 389.71575 540.796173 390.987634 541.733808 391.925269 
C 542.671442 392.862903 543.943326 393.389735 545.269342 393.389735 
z
" style="stroke:#000000;stroke-width:0.4;"/>
    <path clip-path="url(#p5c1be3ee39)" d="M 555.808025 391.925269 
C 556.74566 391.925269 557.645018 391.552742 558.308025 390.889735 
C 558.971033 390.226727 559.343559 389.327369 559.343559 388.389735 
C 559.343559 387.4521 558.971033 386.552742 558.308025 385.889735 
C 557.645018 385.226727 556.74566 384.854201 555.808025 384.854201 
C 554.870391 384.854201 553.971033 385.226727 553.308025 385.889735 
C 552.645018 386.552742 552.272492 387.4521 552.272492 388.389735 
C 552.272492 389.327369 552.645018 390.226727 553.308025 390.889735 
C 553.971033 391.552742 554.870391 391.925269 555.808025 391.925269 
z
" style="fill:#808080;stroke:#000000;stroke-width:0.4;"/>
    <path clip-path="url(#p5c1be3ee39)" d="M 460.959873 393.389735 
C 462.285888 393.389735 463.557772 392.862903 464.495406 391.925269 
C 465.433041 390.987634 465.959873 389.71575 465.959873 388.389735 
C 465.959873 387.063719 465.433041 385.791835 464.495406 384.854201 
C 463.557772 383.916566 462.285888 383.389735 460.959873 383.389735 
C 459.633857 383.389735 458.361973 383.916566 457.424339 384.854201 
C 456.486704 385.791835 455.959873 387.063719 455.959873 388.389735 
C 455.959873 389.71575 456.486704 390.987634 457.424339 391.925269 
C 458.361973 392.862903 459.633857 393.389735 460.959873 393.389735 
z
" style="stroke:#000000;stroke-width:0.4;"/>
    <path clip-path="url(#p5c1be3ee39)" d="M 587.424076 370.942232 
C 588.361711 370.942232 589.261069 370.569706 589.924076 369.906699 
C 590.587084 369.243691 590.95961 368.344333 590.95961 367.406699 
C 590.95961 366.469064 590.587084 365.569706 589.924076 364.906699 
C 589.261069 364.243691 588.361711 363.871165 587.424076 363.871165 
C 586.486442 363.871165 585.587084 364.243691 584.924076 364.906699 
C 584.261069 365.569706 583.888543 366.469064 583.888543 367.406699 
C 583.888543 368.344333 584.261069 369.243691 584.924076 369.906699 
C 585.587084 370.569706 586.486442 370.942232 587.424076 370.942232 
z
" style="fill:#808080;stroke:#000000;stroke-width:0.4;"/>
    <path clip-path="url(#p5c1be3ee39)" d="M 597.96276 370.942232 
C 598.900395 370.942232 599.799752 370.569706 600.46276 369.906699 
C 601.125768 369.243691 601.498294 368.344333 601.498294 367.406699 
C 601.498294 366.469064 601.125768 365.569706 600.46276 364.906699 
C 599.799752 364.243691 598.900395 363.871165 597.96276 363.871165 
C 597.025126 363.871165 596.125768 364.243691 595.46276 364.906699 
C 594.799752 365.569706 594.427226 366.469064 594.427226 367.406699 
C 594.427226 368.344333 594.799752 369.243691 595.46276 369.906699 
C 596.125768 370.569706 597.025126 370.942232 597.96276 370.942232 
z
" style="fill:#808080;stroke:#000000;stroke-width:0.4;"/>
    <path clip-path="url(#p5c1be3ee39)" d="M 576.885393 370.942232 
C 577.823027 370.942232 578.722385 370.569706 579.385393 369.906699 
C 580.048401 369.243691 580.420927 368.344333 580.420927 367.406699 
C 580.420927 366.469064 580.048401 365.569706 579.385393 364.906699 
C 578.722385 364.243691 577.823027 363.871165 576.885393 363.871165 
C 575.947758 363.871165 575.048401 364.243691 574.385393 364.906699 
C 573.722385 365.569706 573.349859 366.469064 573.349859 367.406699 
C 573.349859 368.344333 573.722385 369.243691 574.385393 369.906699 
C 575.048401 370.569706 575.947758 370.942232 576.885393 370.942232 
z
" style="fill:#808080;stroke:#000000;stroke-width:0.4;"/>
    <path clip-path="url(#p5c1be3ee39)" d="M 566.346709 372.406699 
C 567.672725 372.406699 568.944609 371.879867 569.882243 370.942232 
C 570.819878 370.004598 571.346709 368.732714 571.346709 367.406699 
C 571.346709 366.080683 570.819878 364.808799 569.882243 363.871165 
C 568.944609 362.93353 567.672725 362.406699 566.346709 362.406699 
C 565.020694 362.406699 563.74881 362.93353 562.811175 363.871165 
C 561.873541 364.808799 561.346709 366.080683 561.346709 367.406699 
C 561.346709 368.732714 561.873541 370.004598 562.811175 370.942232 
C 563.74881 371.879867 565.020694 372.406699 566.346709 372.406699 
z
" style="stroke:#000000;stroke-width:0.4;"/>
    <path clip-path="url(#p5c1be3ee39)" d="M 682.272229 349.959196 
C 683.209864 349.959196 684.109222 349.58667 684.772229 348.923662 
C 685.435237 348.260655 685.807763 347.361297 685.807763 346.423662 
C 685.807763 345.486028 685.435237 344.58667 684.772229 343.923662 
C 684.109222 343.260655 683.209864 342.888129 682.272229 342.888129 
C 681.334595 342.888129 680.435237 343.260655 679.772229 343.923662 
C 679.109222 344.58667 678.736696 345.486028 678.736696 346.423662 
C 678.736696 347.361297 679.109222 348.260655 679.772229 348.923662 
C 680.435237 349.58667 681.334595 349.959196 682.272229 349.959196 
z
" style="fill:#808080;stroke:#000000;stroke-width:0.4;"/>
    <path clip-path="url(#p5c1be3ee39)" d="M 692.810913 349.959196 
C 693.748548 349.959196 694.647905 349.58667 695.310913 348.923662 
C 695.973921 348.260655 696.346447 347.361297 696.346447 346.423662 
C 696.346447 345.486028 695.973921 344.58667 695.310913 343.923662 
C 694.647905 343.260655 693.748548 342.888129 692.810913 342.888129 
C 691.873279 342.888129 690.973921 343.260655 690.310913 343.923662 
C 689.647905 344.58667 689.275379 345.486028 689.275379 346.423662 
C 689.275379 347.361297 689.647905 348.260655 690.310913 348.923662 
C 690.973921 349.58667 691.873279 349.959196 692.810913 349.959196 
z
" style="fill:#808080;stroke:#000000;stroke-width:0.4;"/>
    <path clip-path="url(#p5c1be3ee39)" d="M 671.733546 349.959196 
C 672.67118 349.959196 673.570538 349.58667 674.233546 348.923662 
C 674.896554 348.260655 675.26908 347.361297 675.26908 346.423662 
C 675.26908 345.486028 674.896554 344.58667 674.233546 343.923662 
C 673.570538 343.260655 672.67118 342.888129 671.733546 342.888129 
C 670.795911 342.888129 669.896554 343.260655 669.233546 343.923662 
C 668.570538 344.58667 668.198012 345.486028 668.198012 346.423662 
C 668.198012 347.361297 668.570538 348.260655 669.233546 348.923662 
C 669.896554 349.58667 670.795911 349.959196 671.733546 349.959196 
z
" style="fill:#808080;stroke:#000000;stroke-width:0.4;"/>
    <path clip-path="url(#p5c1be3ee39)" d="M 661.194862 349.959196 
C 662.132497 349.959196 663.031854 349.58667 663.694862 348.923662 
C 664.35787 348.260655 664.730396 347.361297 664.730396 346.423662 
C 664.730396 345.486028 664.35787 344.58667 663.694862 343.923662 
C 663.031854 343.260655 662.132497 342.888129 661.194862 342.888129 
C 660.257228 342.888129 659.35787 343.260655 658.694862 343.923662 
C 658.031854 344.58667 657.659328 345.486028 657.659328 346.423662 
C 657.659328 347.361297 658.031854 348.260655 658.694862 348.923662 
C 659.35787 349.58667 660.257228 349.959196 661.194862 349.959196 
z
" style="fill:#808080;stroke:#000000;stroke-width:0.4;"/>
    <path clip-path="url(#p5c1be3ee39)" d="M 650.656178 349.959196 
C 651.593813 349.959196 652.493171 349.58667 653.156178 348.923662 
C 653.819186 348.260655 654.191712 347.361297 654.191712 346.423662 
C 654.191712 345.486028 653.819186 344.58667 653.156178 343.923662 
C 652.493171 343.260655 651.593813 342.888129 650.656178 342.888129 
C 649.718544 342.888129 648.819186 343.260655 648.156178 343.923662 
C 647.493171 344.58667 647.120645 345.486028 647.120645 346.423662 
C 647.120645 347.361297 647.493171 348.260655 648.156178 348.923662 
C 648.819186 349.58667 649.718544 349.959196 650.656178 349.959196 
z
" style="fill:#808080;stroke:#000000;stroke-width:0.4;"/>
    <path clip-path="url(#p5c1be3ee39)" d="M 640.117495 349.959196 
C 641.055129 349.959196 641.954487 349.58667 642.617495 348.923662 
C 643.280503 348.260655 643.653029 347.361297 643.653029 346.423662 
C 643.653029 345.486028 643.280503 344.58667 642.617495 343.923662 
C 641.954487 343.260655 641.055129 342.888129 640.117495 342.888129 
C 639.17986 342.888129 638.280503 343.260655 637.617495 343.923662 
C 636.954487 344.58667 636.581961 345.486028 636.581961 346.423662 
C 636.581961 347.361297 636.954487 348.260655 637.617495 348.923662 
C 638.280503 349.58667 639.17986 349.959196 640.117495 349.959196 
z
" style="fill:#808080;stroke:#000000;stroke-width:0.4;"/>
    <path clip-path="url(#p5c1be3ee39)" d="M 629.578811 349.959196 
C 630.516446 349.959196 631.415803 349.58667 632.078811 348.923662 
C 632.741819 348.260655 633.114345 347.361297 633.114345 346.423662 
C 633.114345 345.486028 632.741819 344.58667 632.078811 343.923662 
C 631.415803 343.260655 630.516446 342.888129 629.578811 342.888129 
C 628.641177 342.888129 627.741819 343.260655 627.078811 343.923662 
C 626.415803 344.58667 626.043277 345.486028 626.043277 346.423662 
C 626.043277 347.361297 626.415803 348.260655 627.078811 348.923662 
C 627.741819 349.58667 628.641177 349.959196 629.578811 349.959196 
z
" style="fill:#808080;stroke:#000000;stroke-width:0.4;"/>
    <path clip-path="url(#p5c1be3ee39)" d="M 619.040127 349.959196 
C 619.977762 349.959196 620.87712 349.58667 621.540127 348.923662 
C 622.203135 348.260655 622.575661 347.361297 622.575661 346.423662 
C 622.575661 345.486028 622.203135 344.58667 621.540127 343.923662 
C 620.87712 343.260655 619.977762 342.888129 619.040127 342.888129 
C 618.102493 342.888129 617.203135 343.260655 616.540127 343.923662 
C 615.87712 344.58667 615.504594 345.486028 615.504594 346.423662 
C 615.504594 347.361297 615.87712 348.260655 616.540127 348.923662 
C 617.203135 349.58667 618.102493 349.959196 619.040127 349.959196 
z
" style="fill:#808080;stroke:#000000;stroke-width:0.4;"/>
    <path clip-path="url(#p5c1be3ee39)" d="M 608.501444 351.423662 
C 609.827459 351.423662 611.099343 350.896831 612.036978 349.959196 
C 612.974612 349.021562 613.501444 347.749678 613.501444 346.423662 
C 613.501444 345.097647 612.974612 343.825763 612.036978 342.888129 
C 611.099343 341.950494 609.827459 341.423662 608.501444 341.423662 
C 607.175428 341.423662 605.903544 341.950494 604.96591 342.888129 
C 604.028275 343.825763 603.501444 345.097647 603.501444 346.423662 
C 603.501444 347.749678 604.028275 349.021562 604.96591 349.959196 
C 605.903544 350.896831 607.175428 351.423662 608.501444 351.423662 
z
" style="stroke:#000000;stroke-width:0.4;"/>
    <path clip-path="url(#p5c1be3ee39)" d="M 713.88828 370.942232 
C 714.825915 370.942232 715.725273 370.569706 716.38828 369.906699 
C 717.051288 369.243691 717.423814 368.344333 717.423814 367.406699 
C 717.423814 366.469064 717.051288 365.569706 716.38828 364.906699 
C 715.725273 364.243691 714.825915 363.871165 713.88828 363.871165 
C 712.950646 363.871165 712.051288 364.243691 711.38828 364.906699 
C 710.725273 365.569706 710.352746 366.469064 710.352746 367.406699 
C 710.352746 368.344333 710.725273 369.243691 711.38828 369.906699 
C 712.051288 370.569706 712.950646 370.942232 713.88828 370.942232 
z
" style="fill:#808080;stroke:#000000;stroke-width:0.4;"/>
    <path clip-path="url(#p5c1be3ee39)" d="M 724.426964 370.942232 
C 725.364599 370.942232 726.263956 370.569706 726.926964 369.906699 
C 727.589972 369.243691 727.962498 368.344333 727.962498 367.406699 
C 727.962498 366.469064 727.589972 365.569706 726.926964 364.906699 
C 726.263956 364.243691 725.364599 363.871165 724.426964 363.871165 
C 723.48933 363.871165 722.589972 364.243691 721.926964 364.906699 
C 721.263956 365.569706 720.89143 366.469064 720.89143 367.406699 
C 720.89143 368.344333 721.263956 369.243691 721.926964 369.906699 
C 722.589972 370.569706 723.48933 370.942232 724.426964 370.942232 
z
" style="fill:#808080;stroke:#000000;stroke-width:0.4;"/>
    <path clip-path="url(#p5c1be3ee39)" d="M 703.349597 330.440626 
C 704.675612 330.440626 705.947496 329.913795 706.885131 328.97616 
C 707.822765 328.038526 708.349597 326.766642 708.349597 325.440626 
C 708.349597 324.114611 707.822765 322.842727 706.885131 321.905092 
C 705.947496 320.967458 704.675612 320.440626 703.349597 320.440626 
C 702.023581 320.440626 700.751697 320.967458 699.814063 321.905092 
C 698.876428 322.842727 698.349597 324.114611 698.349597 325.440626 
C 698.349597 326.766642 698.876428 328.038526 699.814063 328.97616 
C 700.751697 329.913795 702.023581 330.440626 703.349597 330.440626 
z
" style="stroke:#000000;stroke-width:0.4;"/>
    <path clip-path="url(#p5c1be3ee39)" d="M 450.421189 330.440626 
C 451.747204 330.440626 453.019088 329.913795 453.956723 328.97616 
C 454.894357 328.038526 455.421189 326.766642 455.421189 325.440626 
C 455.421189 324.114611 454.894357 322.842727 453.956723 321.905092 
C 453.019088 320.967458 451.747204 320.440626 450.421189 320.440626 
C 449.095173 320.440626 447.82329 320.967458 446.885655 321.905092 
C 445.94802 322.842727 445.421189 324.114611 445.421189 325.440626 
C 445.421189 326.766642 445.94802 328.038526 446.885655 328.97616 
C 447.82329 329.913795 449.095173 330.440626 450.421189 330.440626 
z
" style="stroke:#000000;stroke-width:0.4;"/>
    <path clip-path="url(#p5c1be3ee39)" d="M 439.882505 370.942232 
C 440.82014 370.942232 441.719497 370.569706 442.382505 369.906699 
C 443.045513 369.243691 443.418039 368.344333 443.418039 367.406699 
C 443.418039 366.469064 443.045513 365.569706 442.382505 364.906699 
C 441.719497 364.243691 440.82014 363.871165 439.882505 363.871165 
C 438.944871 363.871165 438.045513 364.243691 437.382505 364.906699 
C 436.719497 365.569706 436.346971 366.469064 436.346971 367.406699 
C 436.346971 368.344333 436.719497 369.243691 437.382505 369.906699 
C 438.045513 370.569706 438.944871 370.942232 439.882505 370.942232 
z
" style="fill:#808080;stroke:#000000;stroke-width:0.4;"/>
    <path clip-path="url(#p5c1be3ee39)" d="M 766.581699 328.97616 
C 767.519333 328.97616 768.418691 328.603634 769.081699 327.940626 
C 769.744706 327.277619 770.117233 326.378261 770.117233 325.440626 
C 770.117233 324.502992 769.744706 323.603634 769.081699 322.940626 
C 768.418691 322.277619 767.519333 321.905092 766.581699 321.905092 
C 765.644064 321.905092 764.744706 322.277619 764.081699 322.940626 
C 763.418691 323.603634 763.046165 324.502992 763.046165 325.440626 
C 763.046165 326.378261 763.418691 327.277619 764.081699 327.940626 
C 764.744706 328.603634 765.644064 328.97616 766.581699 328.97616 
z
" style="fill:#808080;stroke:#000000;stroke-width:0.4;"/>
    <path clip-path="url(#p5c1be3ee39)" d="M 777.120382 328.97616 
C 778.058017 328.97616 778.957375 328.603634 779.620382 327.940626 
C 780.28339 327.277619 780.655916 326.378261 780.655916 325.440626 
C 780.655916 324.502992 780.28339 323.603634 779.620382 322.940626 
C 778.957375 322.277619 778.058017 321.905092 777.120382 321.905092 
C 776.182748 321.905092 775.28339 322.277619 774.620382 322.940626 
C 773.957375 323.603634 773.584848 324.502992 773.584848 325.440626 
C 773.584848 326.378261 773.957375 327.277619 774.620382 327.940626 
C 775.28339 328.603634 776.182748 328.97616 777.120382 328.97616 
z
" style="fill:#808080;stroke:#000000;stroke-width:0.4;"/>
    <path clip-path="url(#p5c1be3ee39)" d="M 756.043015 328.97616 
C 756.98065 328.97616 757.880007 328.603634 758.543015 327.940626 
C 759.206023 327.277619 759.578549 326.378261 759.578549 325.440626 
C 759.578549 324.502992 759.206023 323.603634 758.543015 322.940626 
C 757.880007 322.277619 756.98065 321.905092 756.043015 321.905092 
C 755.10538 321.905092 754.206023 322.277619 753.543015 322.940626 
C 752.880007 323.603634 752.507481 324.502992 752.507481 325.440626 
C 752.507481 326.378261 752.880007 327.277619 753.543015 327.940626 
C 754.206023 328.603634 755.10538 328.97616 756.043015 328.97616 
z
" style="fill:#808080;stroke:#000000;stroke-width:0.4;"/>
    <path clip-path="url(#p5c1be3ee39)" d="M 745.504331 328.97616 
C 746.441966 328.97616 747.341324 328.603634 748.004331 327.940626 
C 748.667339 327.277619 749.039865 326.378261 749.039865 325.440626 
C 749.039865 324.502992 748.667339 323.603634 748.004331 322.940626 
C 747.341324 322.277619 746.441966 321.905092 745.504331 321.905092 
C 744.566697 321.905092 743.667339 322.277619 743.004331 322.940626 
C 742.341324 323.603634 741.968797 324.502992 741.968797 325.440626 
C 741.968797 326.378261 742.341324 327.277619 743.004331 327.940626 
C 743.667339 328.603634 744.566697 328.97616 745.504331 328.97616 
z
" style="fill:#808080;stroke:#000000;stroke-width:0.4;"/>
    <path clip-path="url(#p5c1be3ee39)" d="M 734.965648 309.45759 
C 736.291663 309.45759 737.563547 308.930759 738.501182 307.993124 
C 739.438816 307.05549 739.965648 305.783606 739.965648 304.45759 
C 739.965648 303.131575 739.438816 301.859691 738.501182 300.922056 
C 737.563547 299.984422 736.291663 299.45759 734.965648 299.45759 
C 733.639632 299.45759 732.367748 299.984422 731.430114 300.922056 
C 730.492479 301.859691 729.965648 303.131575 729.965648 304.45759 
C 729.965648 305.783606 730.492479 307.05549 731.430114 307.993124 
C 732.367748 308.930759 733.639632 309.45759 734.965648 309.45759 
z
" style="stroke:#000000;stroke-width:0.4;"/>
    <path clip-path="url(#p5c1be3ee39)" d="M 787.659066 288.474554 
C 788.985082 288.474554 790.256965 287.947723 791.1946 287.010088 
C 792.132234 286.072454 792.659066 284.80057 792.659066 283.474554 
C 792.659066 282.148539 792.132234 280.876655 791.1946 279.93902 
C 790.256965 279.001386 788.985082 278.474554 787.659066 278.474554 
C 786.333051 278.474554 785.061167 279.001386 784.123532 279.93902 
C 783.185898 280.876655 782.659066 282.148539 782.659066 283.474554 
C 782.659066 284.80057 783.185898 286.072454 784.123532 287.010088 
C 785.061167 287.947723 786.333051 288.474554 787.659066 288.474554 
z
" style="stroke:#000000;stroke-width:0.4;"/>
    <path clip-path="url(#p5c1be3ee39)" d="M 798.19775 287.010088 
C 799.135384 287.010088 800.034742 286.637562 800.69775 285.974554 
C 801.360757 285.311546 801.733284 284.412189 801.733284 283.474554 
C 801.733284 282.53692 801.360757 281.637562 800.69775 280.974554 
C 800.034742 280.311546 799.135384 279.93902 798.19775 279.93902 
C 797.260115 279.93902 796.360757 280.311546 795.69775 280.974554 
C 795.034742 281.637562 794.662216 282.53692 794.662216 283.474554 
C 794.662216 284.412189 795.034742 285.311546 795.69775 285.974554 
C 796.360757 286.637562 797.260115 287.010088 798.19775 287.010088 
z
" style="fill:#808080;stroke:#000000;stroke-width:0.4;"/>
    <path clip-path="url(#p5c1be3ee39)" d="M 829.813801 266.027052 
C 830.751435 266.027052 831.650793 265.654526 832.313801 264.991518 
C 832.976808 264.32851 833.349335 263.429153 833.349335 262.491518 
C 833.349335 261.553883 832.976808 260.654526 832.313801 259.991518 
C 831.650793 259.32851 830.751435 258.955984 829.813801 258.955984 
C 828.876166 258.955984 827.976808 259.32851 827.313801 259.991518 
C 826.650793 260.654526 826.278267 261.553883 826.278267 262.491518 
C 826.278267 263.429153 826.650793 264.32851 827.313801 264.991518 
C 827.976808 265.654526 828.876166 266.027052 829.813801 266.027052 
z
" style="fill:#808080;stroke:#000000;stroke-width:0.4;"/>
    <path clip-path="url(#p5c1be3ee39)" d="M 840.352484 266.027052 
C 841.290119 266.027052 842.189477 265.654526 842.852484 264.991518 
C 843.515492 264.32851 843.888018 263.429153 843.888018 262.491518 
C 843.888018 261.553883 843.515492 260.654526 842.852484 259.991518 
C 842.189477 259.32851 841.290119 258.955984 840.352484 258.955984 
C 839.41485 258.955984 838.515492 259.32851 837.852484 259.991518 
C 837.189477 260.654526 836.81695 261.553883 836.81695 262.491518 
C 836.81695 263.429153 837.189477 264.32851 837.852484 264.991518 
C 838.515492 265.654526 839.41485 266.027052 840.352484 266.027052 
z
" style="fill:#808080;stroke:#000000;stroke-width:0.4;"/>
    <path clip-path="url(#p5c1be3ee39)" d="M 819.275117 266.027052 
C 820.212752 266.027052 821.112109 265.654526 821.775117 264.991518 
C 822.438125 264.32851 822.810651 263.429153 822.810651 262.491518 
C 822.810651 261.553883 822.438125 260.654526 821.775117 259.991518 
C 821.112109 259.32851 820.212752 258.955984 819.275117 258.955984 
C 818.337482 258.955984 817.438125 259.32851 816.775117 259.991518 
C 816.112109 260.654526 815.739583 261.553883 815.739583 262.491518 
C 815.739583 263.429153 816.112109 264.32851 816.775117 264.991518 
C 817.438125 265.654526 818.337482 266.027052 819.275117 266.027052 
z
" style="fill:#808080;stroke:#000000;stroke-width:0.4;"/>
    <path clip-path="url(#p5c1be3ee39)" d="M 808.736433 267.491518 
C 810.062449 267.491518 811.334333 266.964687 812.271967 266.027052 
C 813.209602 265.089417 813.736433 263.817534 813.736433 262.491518 
C 813.736433 261.165503 813.209602 259.893619 812.271967 258.955984 
C 811.334333 258.01835 810.062449 257.491518 808.736433 257.491518 
C 807.410418 257.491518 806.138534 258.01835 805.200899 258.955984 
C 804.263265 259.893619 803.736433 261.165503 803.736433 262.491518 
C 803.736433 263.817534 804.263265 265.089417 805.200899 266.027052 
C 806.138534 266.964687 807.410418 267.491518 808.736433 267.491518 
z
" style="stroke:#000000;stroke-width:0.4;"/>
    <path clip-path="url(#p5c1be3ee39)" d="M 429.343822 246.508482 
C 430.669837 246.508482 431.941721 245.98165 432.879355 245.044016 
C 433.81699 244.106381 434.343822 242.834497 434.343822 241.508482 
C 434.343822 240.182466 433.81699 238.910583 432.879355 237.972948 
C 431.941721 237.035313 430.669837 236.508482 429.343822 236.508482 
C 428.017806 236.508482 426.745922 237.035313 425.808288 237.972948 
C 424.870653 238.910583 424.343822 240.182466 424.343822 241.508482 
C 424.343822 242.834497 424.870653 244.106381 425.808288 245.044016 
C 426.745922 245.98165 428.017806 246.508482 429.343822 246.508482 
z
" style="stroke:#000000;stroke-width:0.4;"/>
    <path clip-path="url(#p5c1be3ee39)" d="M 850.891168 225.525446 
C 852.217183 225.525446 853.489067 224.998614 854.426702 224.06098 
C 855.364336 223.123345 855.891168 221.851461 855.891168 220.525446 
C 855.891168 219.19943 855.364336 217.927546 854.426702 216.989912 
C 853.489067 216.052277 852.217183 215.525446 850.891168 215.525446 
C 849.565152 215.525446 848.293269 216.052277 847.355634 216.989912 
C 846.418 217.927546 845.891168 219.19943 845.891168 220.525446 
C 845.891168 221.851461 846.418 223.123345 847.355634 224.06098 
C 848.293269 224.998614 849.565152 225.525446 850.891168 225.525446 
z
" style="stroke:#000000;stroke-width:0.4;"/>
    <path clip-path="url(#p5c1be3ee39)" d="M 861.429852 224.06098 
C 862.367486 224.06098 863.266844 223.688454 863.929852 223.025446 
C 864.592859 222.362438 864.965386 221.46308 864.965386 220.525446 
C 864.965386 219.587811 864.592859 218.688454 863.929852 218.025446 
C 863.266844 217.362438 862.367486 216.989912 861.429852 216.989912 
C 860.492217 216.989912 859.592859 217.362438 858.929852 218.025446 
C 858.266844 218.688454 857.894318 219.587811 857.894318 220.525446 
C 857.894318 221.46308 858.266844 222.362438 858.929852 223.025446 
C 859.592859 223.688454 860.492217 224.06098 861.429852 224.06098 
z
" style="fill:#808080;stroke:#000000;stroke-width:0.4;"/>
    <path clip-path="url(#p5c1be3ee39)" d="M 397.727771 225.525446 
C 399.053786 225.525446 400.32567 224.998614 401.263304 224.06098 
C 402.200939 223.123345 402.727771 221.851461 402.727771 220.525446 
C 402.727771 219.19943 402.200939 217.927546 401.263304 216.989912 
C 400.32567 216.052277 399.053786 215.525446 397.727771 215.525446 
C 396.401755 215.525446 395.129871 216.052277 394.192237 216.989912 
C 393.254602 217.927546 392.727771 219.19943 392.727771 220.525446 
C 392.727771 221.851461 393.254602 223.123345 394.192237 224.06098 
C 395.129871 224.998614 396.401755 225.525446 397.727771 225.525446 
z
" style="stroke:#000000;stroke-width:0.4;"/>
    <path clip-path="url(#p5c1be3ee39)" d="M 387.189087 225.525446 
C 388.515102 225.525446 389.786986 224.998614 390.724621 224.06098 
C 391.662255 223.123345 392.189087 221.851461 392.189087 220.525446 
C 392.189087 219.19943 391.662255 217.927546 390.724621 216.989912 
C 389.786986 216.052277 388.515102 215.525446 387.189087 215.525446 
C 385.863071 215.525446 384.591188 216.052277 383.653553 216.989912 
C 382.715918 217.927546 382.189087 219.19943 382.189087 220.525446 
C 382.189087 221.851461 382.715918 223.123345 383.653553 224.06098 
C 384.591188 224.998614 385.863071 225.525446 387.189087 225.525446 
z
" style="stroke:#000000;stroke-width:0.4;"/>
    <path clip-path="url(#p5c1be3ee39)" d="M 355.573036 225.525446 
C 356.899051 225.525446 358.170935 224.998614 359.10857 224.06098 
C 360.046204 223.123345 360.573036 221.851461 360.573036 220.525446 
C 360.573036 219.19943 360.046204 217.927546 359.10857 216.989912 
C 358.170935 216.052277 356.899051 215.525446 355.573036 215.525446 
C 354.24702 215.525446 352.975137 216.052277 352.037502 216.989912 
C 351.099867 217.927546 350.573036 219.19943 350.573036 220.525446 
C 350.573036 221.851461 351.099867 223.123345 352.037502 224.06098 
C 352.975137 224.998614 354.24702 225.525446 355.573036 225.525446 
z
" style="stroke:#000000;stroke-width:0.4;"/>
    <path clip-path="url(#p5c1be3ee39)" d="M 345.034352 266.027052 
C 345.971987 266.027052 346.871345 265.654526 347.534352 264.991518 
C 348.19736 264.32851 348.569886 263.429153 348.569886 262.491518 
C 348.569886 261.553883 348.19736 260.654526 347.534352 259.991518 
C 346.871345 259.32851 345.971987 258.955984 345.034352 258.955984 
C 344.096718 258.955984 343.19736 259.32851 342.534352 259.991518 
C 341.871345 260.654526 341.498818 261.553883 341.498818 262.491518 
C 341.498818 263.429153 341.871345 264.32851 342.534352 264.991518 
C 343.19736 265.654526 344.096718 266.027052 345.034352 266.027052 
z
" style="fill:#808080;stroke:#000000;stroke-width:0.4;"/>
    <path clip-path="url(#p5c1be3ee39)" d="M 334.495669 204.54241 
C 335.821684 204.54241 337.093568 204.015578 338.031203 203.077944 
C 338.968837 202.140309 339.495669 200.868425 339.495669 199.54241 
C 339.495669 198.216394 338.968837 196.94451 338.031203 196.006876 
C 337.093568 195.069241 335.821684 194.54241 334.495669 194.54241 
C 333.169653 194.54241 331.897769 195.069241 330.960135 196.006876 
C 330.0225 196.94451 329.495669 198.216394 329.495669 199.54241 
C 329.495669 200.868425 330.0225 202.140309 330.960135 203.077944 
C 331.897769 204.015578 333.169653 204.54241 334.495669 204.54241 
z
" style="stroke:#000000;stroke-width:0.4;"/>
    <path clip-path="url(#p5c1be3ee39)" d="M 302.879618 204.54241 
C 304.205633 204.54241 305.477517 204.015578 306.415152 203.077944 
C 307.352786 202.140309 307.879618 200.868425 307.879618 199.54241 
C 307.879618 198.216394 307.352786 196.94451 306.415152 196.006876 
C 305.477517 195.069241 304.205633 194.54241 302.879618 194.54241 
C 301.553602 194.54241 300.281718 195.069241 299.344084 196.006876 
C 298.406449 196.94451 297.879618 198.216394 297.879618 199.54241 
C 297.879618 200.868425 298.406449 202.140309 299.344084 203.077944 
C 300.281718 204.015578 301.553602 204.54241 302.879618 204.54241 
z
" style="stroke:#000000;stroke-width:0.4;"/>
    <path clip-path="url(#p5c1be3ee39)" d="M 292.340934 307.993124 
C 293.278569 307.993124 294.177926 307.620598 294.840934 306.95759 
C 295.503942 306.294583 295.876468 305.395225 295.876468 304.45759 
C 295.876468 303.519956 295.503942 302.620598 294.840934 301.95759 
C 294.177926 301.294583 293.278569 300.922056 292.340934 300.922056 
C 291.403299 300.922056 290.503942 301.294583 289.840934 301.95759 
C 289.177926 302.620598 288.8054 303.519956 288.8054 304.45759 
C 288.8054 305.395225 289.177926 306.294583 289.840934 306.95759 
C 290.503942 307.620598 291.403299 307.993124 292.340934 307.993124 
z
" style="fill:#808080;stroke:#000000;stroke-width:0.4;"/>
    <path clip-path="url(#p5c1be3ee39)" d="M 871.968535 183.559374 
C 873.294551 183.559374 874.566435 183.032542 875.504069 182.094908 
C 876.441704 181.157273 876.968535 179.885389 876.968535 178.559374 
C 876.968535 177.233358 876.441704 175.961474 875.504069 175.02384 
C 874.566435 174.086205 873.294551 173.559374 871.968535 173.559374 
C 870.64252 173.559374 869.370636 174.086205 868.433001 175.02384 
C 867.495367 175.961474 866.968535 177.233358 866.968535 178.559374 
C 866.968535 179.885389 867.495367 181.157273 868.433001 182.094908 
C 869.370636 183.032542 870.64252 183.559374 871.968535 183.559374 
z
" style="stroke:#000000;stroke-width:0.4;"/>
    <path clip-path="url(#p5c1be3ee39)" d="M 882.507219 224.06098 
C 883.444854 224.06098 884.344211 223.688454 885.007219 223.025446 
C 885.670227 222.362438 886.042753 221.46308 886.042753 220.525446 
C 886.042753 219.587811 885.670227 218.688454 885.007219 218.025446 
C 884.344211 217.362438 883.444854 216.989912 882.507219 216.989912 
C 881.569584 216.989912 880.670227 217.362438 880.007219 218.025446 
C 879.344211 218.688454 878.971685 219.587811 878.971685 220.525446 
C 878.971685 221.46308 879.344211 222.362438 880.007219 223.025446 
C 880.670227 223.688454 881.569584 224.06098 882.507219 224.06098 
z
" style="fill:#808080;stroke:#000000;stroke-width:0.4;"/>
    <path clip-path="url(#p5c1be3ee39)" d="M 903.584586 203.077944 
C 904.522221 203.077944 905.421579 202.705417 906.084586 202.04241 
C 906.747594 201.379402 907.12012 200.480044 907.12012 199.54241 
C 907.12012 198.604775 906.747594 197.705417 906.084586 197.04241 
C 905.421579 196.379402 904.522221 196.006876 903.584586 196.006876 
C 902.646952 196.006876 901.747594 196.379402 901.084586 197.04241 
C 900.421579 197.705417 900.049052 198.604775 900.049052 199.54241 
C 900.049052 200.480044 900.421579 201.379402 901.084586 202.04241 
C 901.747594 202.705417 902.646952 203.077944 903.584586 203.077944 
z
" style="fill:#808080;stroke:#000000;stroke-width:0.4;"/>
    <path clip-path="url(#p5c1be3ee39)" d="M 914.12327 203.077944 
C 915.060904 203.077944 915.960262 202.705417 916.62327 202.04241 
C 917.286278 201.379402 917.658804 200.480044 917.658804 199.54241 
C 917.658804 198.604775 917.286278 197.705417 916.62327 197.04241 
C 915.960262 196.379402 915.060904 196.006876 914.12327 196.006876 
C 913.185635 196.006876 912.286278 196.379402 911.62327 197.04241 
C 910.960262 197.705417 910.587736 198.604775 910.587736 199.54241 
C 910.587736 200.480044 910.960262 201.379402 911.62327 202.04241 
C 912.286278 202.705417 913.185635 203.077944 914.12327 203.077944 
z
" style="fill:#808080;stroke:#000000;stroke-width:0.4;"/>
    <path clip-path="url(#p5c1be3ee39)" d="M 893.045903 162.576338 
C 894.371918 162.576338 895.643802 162.049506 896.581437 161.111871 
C 897.519071 160.174237 898.045903 158.902353 898.045903 157.576338 
C 898.045903 156.250322 897.519071 154.978438 896.581437 154.040804 
C 895.643802 153.103169 894.371918 152.576338 893.045903 152.576338 
C 891.719887 152.576338 890.448003 153.103169 889.510369 154.040804 
C 888.572734 154.978438 888.045903 156.250322 888.045903 157.576338 
C 888.045903 158.902353 888.572734 160.174237 889.510369 161.111871 
C 890.448003 162.049506 891.719887 162.576338 893.045903 162.576338 
z
" style="stroke:#000000;stroke-width:0.4;"/>
    <path clip-path="url(#p5c1be3ee39)" d="M 281.80225 162.576338 
C 283.128266 162.576338 284.40015 162.049506 285.337784 161.111871 
C 286.275419 160.174237 286.80225 158.902353 286.80225 157.576338 
C 286.80225 156.250322 286.275419 154.978438 285.337784 154.040804 
C 284.40015 153.103169 283.128266 152.576338 281.80225 152.576338 
C 280.476235 152.576338 279.204351 153.103169 278.266716 154.040804 
C 277.329082 154.978438 276.80225 156.250322 276.80225 157.576338 
C 276.80225 158.902353 277.329082 160.174237 278.266716 161.111871 
C 279.204351 162.049506 280.476235 162.576338 281.80225 162.576338 
z
" style="stroke:#000000;stroke-width:0.4;"/>
    <path clip-path="url(#p5c1be3ee39)" d="M 271.263567 182.094908 
C 272.201201 182.094908 273.100559 181.722381 273.763567 181.059374 
C 274.426574 180.396366 274.799101 179.497008 274.799101 178.559374 
C 274.799101 177.621739 274.426574 176.722381 273.763567 176.059374 
C 273.100559 175.396366 272.201201 175.02384 271.263567 175.02384 
C 270.325932 175.02384 269.426574 175.396366 268.763567 176.059374 
C 268.100559 176.722381 267.728033 177.621739 267.728033 178.559374 
C 267.728033 179.497008 268.100559 180.396366 268.763567 181.059374 
C 269.426574 181.722381 270.325932 182.094908 271.263567 182.094908 
z
" style="fill:#808080;stroke:#000000;stroke-width:0.4;"/>
    <path clip-path="url(#p5c1be3ee39)" d="M 260.724883 162.576338 
C 262.050899 162.576338 263.322782 162.049506 264.260417 161.111871 
C 265.198051 160.174237 265.724883 158.902353 265.724883 157.576338 
C 265.724883 156.250322 265.198051 154.978438 264.260417 154.040804 
C 263.322782 153.103169 262.050899 152.576338 260.724883 152.576338 
C 259.398868 152.576338 258.126984 153.103169 257.189349 154.040804 
C 256.251715 154.978438 255.724883 156.250322 255.724883 157.576338 
C 255.724883 158.902353 256.251715 160.174237 257.189349 161.111871 
C 258.126984 162.049506 259.398868 162.576338 260.724883 162.576338 
z
" style="stroke:#000000;stroke-width:0.4;"/>
    <path clip-path="url(#p5c1be3ee39)" d="M 229.108832 162.576338 
C 230.434848 162.576338 231.706731 162.049506 232.644366 161.111871 
C 233.582 160.174237 234.108832 158.902353 234.108832 157.576338 
C 234.108832 156.250322 233.582 154.978438 232.644366 154.040804 
C 231.706731 153.103169 230.434848 152.576338 229.108832 152.576338 
C 227.782817 152.576338 226.510933 153.103169 225.573298 154.040804 
C 224.635664 154.978438 224.108832 156.250322 224.108832 157.576338 
C 224.108832 158.902353 224.635664 160.174237 225.573298 161.111871 
C 226.510933 162.049506 227.782817 162.576338 229.108832 162.576338 
z
" style="stroke:#000000;stroke-width:0.4;"/>
    <path clip-path="url(#p5c1be3ee39)" d="M 186.954097 141.593301 
C 188.280113 141.593301 189.551997 141.06647 190.489631 140.128835 
C 191.427266 139.191201 191.954097 137.919317 191.954097 136.593301 
C 191.954097 135.267286 191.427266 133.995402 190.489631 133.057768 
C 189.551997 132.120133 188.280113 131.593301 186.954097 131.593301 
C 185.628082 131.593301 184.356198 132.120133 183.418563 133.057768 
C 182.480929 133.995402 181.954097 135.267286 181.954097 136.593301 
C 181.954097 137.919317 182.480929 139.191201 183.418563 140.128835 
C 184.356198 141.06647 185.628082 141.593301 186.954097 141.593301 
z
" style="stroke:#000000;stroke-width:0.4;"/>
    <path clip-path="url(#p5c1be3ee39)" d="M 176.415414 161.111871 
C 177.353048 161.111871 178.252406 160.739345 178.915414 160.076338 
C 179.578421 159.41333 179.950948 158.513972 179.950948 157.576338 
C 179.950948 156.638703 179.578421 155.739345 178.915414 155.076338 
C 178.252406 154.41333 177.353048 154.040804 176.415414 154.040804 
C 175.477779 154.040804 174.578421 154.41333 173.915414 155.076338 
C 173.252406 155.739345 172.87988 156.638703 172.87988 157.576338 
C 172.87988 158.513972 173.252406 159.41333 173.915414 160.076338 
C 174.578421 160.739345 175.477779 161.111871 176.415414 161.111871 
z
" style="fill:#808080;stroke:#000000;stroke-width:0.4;"/>
    <path clip-path="url(#p5c1be3ee39)" d="M 165.87673 141.593301 
C 167.202746 141.593301 168.474629 141.06647 169.412264 140.128835 
C 170.349899 139.191201 170.87673 137.919317 170.87673 136.593301 
C 170.87673 135.267286 170.349899 133.995402 169.412264 133.057768 
C 168.474629 132.120133 167.202746 131.593301 165.87673 131.593301 
C 164.550715 131.593301 163.278831 132.120133 162.341196 133.057768 
C 161.403562 133.995402 160.87673 135.267286 160.87673 136.593301 
C 160.87673 137.919317 161.403562 139.191201 162.341196 140.128835 
C 163.278831 141.06647 164.550715 141.593301 165.87673 141.593301 
z
" style="stroke:#000000;stroke-width:0.4;"/>
    <path clip-path="url(#p5c1be3ee39)" d="M 155.338046 161.111871 
C 156.275681 161.111871 157.175039 160.739345 157.838046 160.076338 
C 158.501054 159.41333 158.87358 158.513972 158.87358 157.576338 
C 158.87358 156.638703 158.501054 155.739345 157.838046 155.076338 
C 157.175039 154.41333 156.275681 154.040804 155.338046 154.040804 
C 154.400412 154.040804 153.501054 154.41333 152.838046 155.076338 
C 152.175039 155.739345 151.802512 156.638703 151.802512 157.576338 
C 151.802512 158.513972 152.175039 159.41333 152.838046 160.076338 
C 153.501054 160.739345 154.400412 161.111871 155.338046 161.111871 
z
" style="fill:#808080;stroke:#000000;stroke-width:0.4;"/>
    <path clip-path="url(#p5c1be3ee39)" d="M 144.799363 141.593301 
C 146.125378 141.593301 147.397262 141.06647 148.334897 140.128835 
C 149.272531 139.191201 149.799363 137.919317 149.799363 136.593301 
C 149.799363 135.267286 149.272531 133.995402 148.334897 133.057768 
C 147.397262 132.120133 146.125378 131.593301 144.799363 131.593301 
C 143.473347 131.593301 142.201463 132.120133 141.263829 133.057768 
C 140.326194 133.995402 139.799363 135.267286 139.799363 136.593301 
C 139.799363 137.919317 140.326194 139.191201 141.263829 140.128835 
C 142.201463 141.06647 143.473347 141.593301 144.799363 141.593301 
z
" style="stroke:#000000;stroke-width:0.4;"/>
    <path clip-path="url(#p5c1be3ee39)" d="M 134.260679 245.044016 
C 135.198314 245.044016 136.097671 244.67149 136.760679 244.008482 
C 137.423687 243.345474 137.796213 242.446117 137.796213 241.508482 
C 137.796213 240.570847 137.423687 239.67149 136.760679 239.008482 
C 136.097671 238.345474 135.198314 237.972948 134.260679 237.972948 
C 133.323045 237.972948 132.423687 238.345474 131.760679 239.008482 
C 131.097671 239.67149 130.725145 240.570847 130.725145 241.508482 
C 130.725145 242.446117 131.097671 243.345474 131.760679 244.008482 
C 132.423687 244.67149 133.323045 245.044016 134.260679 245.044016 
z
" style="fill:#808080;stroke:#000000;stroke-width:0.4;"/>
    <path clip-path="url(#p5c1be3ee39)" d="M 945.739321 140.128835 
C 946.676955 140.128835 947.576313 139.756309 948.239321 139.093301 
C 948.902329 138.430294 949.274855 137.530936 949.274855 136.593301 
C 949.274855 135.655667 948.902329 134.756309 948.239321 134.093301 
C 947.576313 133.430294 946.676955 133.057768 945.739321 133.057768 
C 944.801686 133.057768 943.902329 133.430294 943.239321 134.093301 
C 942.576313 134.756309 942.203787 135.655667 942.203787 136.593301 
C 942.203787 137.530936 942.576313 138.430294 943.239321 139.093301 
C 943.902329 139.756309 944.801686 140.128835 945.739321 140.128835 
z
" style="fill:#808080;stroke:#000000;stroke-width:0.4;"/>
    <path clip-path="url(#p5c1be3ee39)" d="M 956.278005 140.128835 
C 957.215639 140.128835 958.114997 139.756309 958.778005 139.093301 
C 959.441012 138.430294 959.813538 137.530936 959.813538 136.593301 
C 959.813538 135.655667 959.441012 134.756309 958.778005 134.093301 
C 958.114997 133.430294 957.215639 133.057768 956.278005 133.057768 
C 955.34037 133.057768 954.441012 133.430294 953.778005 134.093301 
C 953.114997 134.756309 952.742471 135.655667 952.742471 136.593301 
C 952.742471 137.530936 953.114997 138.430294 953.778005 139.093301 
C 954.441012 139.756309 955.34037 140.128835 956.278005 140.128835 
z
" style="fill:#808080;stroke:#000000;stroke-width:0.4;"/>
    <path clip-path="url(#p5c1be3ee39)" d="M 935.200637 140.128835 
C 936.138272 140.128835 937.03763 139.756309 937.700637 139.093301 
C 938.363645 138.430294 938.736171 137.530936 938.736171 136.593301 
C 938.736171 135.655667 938.363645 134.756309 937.700637 134.093301 
C 937.03763 133.430294 936.138272 133.057768 935.200637 133.057768 
C 934.263003 133.057768 933.363645 133.430294 932.700637 134.093301 
C 932.03763 134.756309 931.665103 135.655667 931.665103 136.593301 
C 931.665103 137.530936 932.03763 138.430294 932.700637 139.093301 
C 933.363645 139.756309 934.263003 140.128835 935.200637 140.128835 
z
" style="fill:#808080;stroke:#000000;stroke-width:0.4;"/>
    <path clip-path="url(#p5c1be3ee39)" d="M 924.661954 99.627229 
C 925.987969 99.627229 927.259853 99.100398 928.197488 98.162763 
C 929.135122 97.225129 929.661954 95.953245 929.661954 94.627229 
C 929.661954 93.301214 929.135122 92.02933 928.197488 91.091695 
C 927.259853 90.154061 925.987969 89.627229 924.661954 89.627229 
C 923.335938 89.627229 922.064054 90.154061 921.12642 91.091695 
C 920.188785 92.02933 919.661954 93.301214 919.661954 94.627229 
C 919.661954 95.953245 920.188785 97.225129 921.12642 98.162763 
C 922.064054 99.100398 923.335938 99.627229 924.661954 99.627229 
z
" style="stroke:#000000;stroke-width:0.4;"/>
    <path clip-path="url(#p5c1be3ee39)" d="M 966.816688 78.644193 
C 968.142704 78.644193 969.414588 78.117362 970.352222 77.179727 
C 971.289857 76.242092 971.816688 74.970209 971.816688 73.644193 
C 971.816688 72.318178 971.289857 71.046294 970.352222 70.108659 
C 969.414588 69.171025 968.142704 68.644193 966.816688 68.644193 
C 965.490673 68.644193 964.218789 69.171025 963.281154 70.108659 
C 962.34352 71.046294 961.816688 72.318178 961.816688 73.644193 
C 961.816688 74.970209 962.34352 76.242092 963.281154 77.179727 
C 964.218789 78.117362 965.490673 78.644193 966.816688 78.644193 
z
" style="stroke:#000000;stroke-width:0.4;"/>
    <path clip-path="url(#p5c1be3ee39)" d="M 977.355372 98.162763 
C 978.293006 98.162763 979.192364 97.790237 979.855372 97.127229 
C 980.51838 96.464221 980.890906 95.564864 980.890906 94.627229 
C 980.890906 93.689595 980.51838 92.790237 979.855372 92.127229 
C 979.192364 91.464221 978.293006 91.091695 977.355372 91.091695 
C 976.417737 91.091695 975.51838 91.464221 974.855372 92.127229 
C 974.192364 92.790237 973.819838 93.689595 973.819838 94.627229 
C 973.819838 95.564864 974.192364 96.464221 974.855372 97.127229 
C 975.51838 97.790237 976.417737 98.162763 977.355372 98.162763 
z
" style="fill:#808080;stroke:#000000;stroke-width:0.4;"/>
    <path clip-path="url(#p5c1be3ee39)" d="M 123.721995 57.661157 
C 125.048011 57.661157 126.319895 57.134325 127.257529 56.196691 
C 128.195164 55.259056 128.721995 53.987173 128.721995 52.661157 
C 128.721995 51.335142 128.195164 50.063258 127.257529 49.125623 
C 126.319895 48.187989 125.048011 47.661157 123.721995 47.661157 
C 122.39598 47.661157 121.124096 48.187989 120.186462 49.125623 
C 119.248827 50.063258 118.721995 51.335142 118.721995 52.661157 
C 118.721995 53.987173 119.248827 55.259056 120.186462 56.196691 
C 121.124096 57.134325 122.39598 57.661157 123.721995 57.661157 
z
" style="stroke:#000000;stroke-width:0.4;"/>
   </g>
   <g id="line2d_1">
    <path clip-path="url(#p5c1be3ee39)" d="M 503.114607 493.2 
L 503.114607 10.8 
" style="fill:none;stroke:#ff0000;stroke-linecap:square;stroke-width:1.5;"/>
   </g>
   <g id="patch_3">
    <path d="M 10.8 493.2 
L 10.8 10.8 
" style="fill:none;stroke:#000000;stroke-linecap:square;stroke-linejoin:miter;stroke-width:0.8;"/>
   </g>
   <g id="patch_4">
    <path d="M 1069.2 493.2 
L 1069.2 10.8 
" style="fill:none;stroke:#000000;stroke-linecap:square;stroke-linejoin:miter;stroke-width:0.8;"/>
   </g>
   <g id="patch_5">
    <path d="M 10.8 493.2 
L 1069.2 493.2 
" style="fill:none;stroke:#000000;stroke-linecap:square;stroke-linejoin:miter;stroke-width:0.8;"/>
   </g>
   <g id="patch_6">
    <path d="M 10.8 10.8 
L 1069.2 10.8 
" style="fill:none;stroke:#000000;stroke-linecap:square;stroke-linejoin:miter;stroke-width:0.8;"/>
   </g>
  </g>
 </g>
 <defs>
  <clipPath id="p5c1be3ee39">
   <rect height="482.4" width="1058.4" x="10.8" y="10.8"/>
  </clipPath>
 </defs>
</svg>
