<?xml version="1.0" encoding="utf-8" standalone="no"?>
<!DOCTYPE svg PUBLIC "-//W3C//DTD SVG 1.1//EN"
  "http://www.w3.org/Graphics/SVG/1.1/DTD/svg11.dtd">
<svg height="504pt" version="1.1" viewBox="0 0 1080 504" width="1080pt" xmlns="http://www.w3.org/2000/svg" xmlns:xlink="http://www.w3.org/1999/xlink">
 <metadata>
  <rdf:RDF xmlns:cc="http://creativecommons.org/ns#" xmlns:dc="http://purl.org/dc/elements/1.1/" xmlns:rdf="http://www.w3.org/1999/02/22-rdf-syntax-ns#">
   <cc:Work>
    <dc:type rdf:resource="http://purl.org/dc/dcmitype/StillImage"/>
    <dc:date>2022-04-03T07:44:45.431088</dc:date>
    <dc:format>image/svg+xml</dc:format>
    <dc:creator>
     <cc:Agent>
      <dc:title>Matplotlib v3.4.3, https://matplotlib.org/</dc:title>
     </cc:Agent>
    </dc:creator>
   </cc:Work>
  </rdf:RDF>
 </metadata>
 <defs>
  <style type="text/css">*{stroke-linecap:butt;stroke-linejoin:round;}</style>
 </defs>
 <g id="figure_1">
  <g id="patch_1">
   <path d="M 0 504 
L 1080 504 
L 1080 0 
L 0 0 
z
" style="fill:#ffffff;"/>
  </g>
  <g id="axes_1">
   <g id="patch_2">
    <path d="M 10.8 493.2 
L 1069.2 493.2 
L 1069.2 10.8 
L 10.8 10.8 
z
" style="fill:#ffffff;"/>
   </g>
   <g id="LineCollection_1">
    <path clip-path="url(#p5babb6bedd)" d="M 597.046353 430.355807 
L 559.015451 451.338843 
" style="fill:none;stroke:#000000;stroke-width:0.4;"/>
    <path clip-path="url(#p5babb6bedd)" d="M 597.046353 430.355807 
L 635.077255 388.389735 
" style="fill:none;stroke:#000000;stroke-width:0.4;"/>
    <path clip-path="url(#p5babb6bedd)" d="M 635.077255 388.389735 
L 673.108157 367.406699 
" style="fill:none;stroke:#000000;stroke-width:0.4;"/>
    <path clip-path="url(#p5babb6bedd)" d="M 673.108157 367.406699 
L 520.984549 367.406699 
" style="fill:none;stroke:#000000;stroke-width:0.4;"/>
    <path clip-path="url(#p5babb6bedd)" d="M 520.984549 367.406699 
L 711.139059 346.423662 
" style="fill:none;stroke:#000000;stroke-width:0.4;"/>
    <path clip-path="url(#p5babb6bedd)" d="M 711.139059 346.423662 
L 482.953647 346.423662 
" style="fill:none;stroke:#000000;stroke-width:0.4;"/>
    <path clip-path="url(#p5babb6bedd)" d="M 482.953647 346.423662 
L 444.922745 346.423662 
" style="fill:none;stroke:#000000;stroke-width:0.4;"/>
    <path clip-path="url(#p5babb6bedd)" d="M 444.922745 346.423662 
L 749.16996 325.440626 
" style="fill:none;stroke:#000000;stroke-width:0.4;"/>
    <path clip-path="url(#p5babb6bedd)" d="M 749.16996 325.440626 
L 406.891843 304.45759 
" style="fill:none;stroke:#000000;stroke-width:0.4;"/>
    <path clip-path="url(#p5babb6bedd)" d="M 406.891843 304.45759 
L 368.860941 304.45759 
" style="fill:none;stroke:#000000;stroke-width:0.4;"/>
    <path clip-path="url(#p5babb6bedd)" d="M 368.860941 304.45759 
L 330.83004 304.45759 
" style="fill:none;stroke:#000000;stroke-width:0.4;"/>
    <path clip-path="url(#p5babb6bedd)" d="M 330.83004 304.45759 
L 292.799138 283.474554 
" style="fill:none;stroke:#000000;stroke-width:0.4;"/>
    <path clip-path="url(#p5babb6bedd)" d="M 292.799138 283.474554 
L 254.768236 283.474554 
" style="fill:none;stroke:#000000;stroke-width:0.4;"/>
    <path clip-path="url(#p5babb6bedd)" d="M 254.768236 283.474554 
L 216.737334 283.474554 
" style="fill:none;stroke:#000000;stroke-width:0.4;"/>
    <path clip-path="url(#p5babb6bedd)" d="M 216.737334 283.474554 
L 787.200862 262.491518 
" style="fill:none;stroke:#000000;stroke-width:0.4;"/>
    <path clip-path="url(#p5babb6bedd)" d="M 787.200862 262.491518 
L 825.231764 241.508482 
" style="fill:none;stroke:#000000;stroke-width:0.4;"/>
    <path clip-path="url(#p5babb6bedd)" d="M 825.231764 241.508482 
L 178.706432 199.54241 
" style="fill:none;stroke:#000000;stroke-width:0.4;"/>
    <path clip-path="url(#p5babb6bedd)" d="M 178.706432 199.54241 
L 863.262666 178.559374 
" style="fill:none;stroke:#000000;stroke-width:0.4;"/>
    <path clip-path="url(#p5babb6bedd)" d="M 863.262666 178.559374 
L 901.293568 157.576338 
" style="fill:none;stroke:#000000;stroke-width:0.4;"/>
    <path clip-path="url(#p5babb6bedd)" d="M 901.293568 157.576338 
L 939.32447 115.610265 
" style="fill:none;stroke:#000000;stroke-width:0.4;"/>
    <path clip-path="url(#p5babb6bedd)" d="M 939.32447 115.610265 
L 977.355372 94.627229 
" style="fill:none;stroke:#000000;stroke-width:0.4;"/>
    <path clip-path="url(#p5babb6bedd)" d="M 977.355372 94.627229 
L 140.67553 73.644193 
" style="fill:none;stroke:#000000;stroke-width:0.4;"/>
    <path clip-path="url(#p5babb6bedd)" d="M 140.67553 73.644193 
L 102.644628 52.661157 
" style="fill:none;stroke:#000000;stroke-width:0.4;"/>
   </g>
   <g id="matplotlib.axis_1">
    <g id="xtick_1"/>
    <g id="xtick_2"/>
    <g id="xtick_3"/>
    <g id="xtick_4"/>
    <g id="xtick_5"/>
    <g id="xtick_6"/>
   </g>
   <g id="matplotlib.axis_2">
    <g id="ytick_1"/>
    <g id="ytick_2"/>
    <g id="ytick_3"/>
    <g id="ytick_4"/>
    <g id="ytick_5"/>
   </g>
   <g id="PathCollection_1">
    <defs>
     <path d="M 0 5 
C 1.326016 5 2.597899 4.473168 3.535534 3.535534 
C 4.473168 2.597899 5 1.326016 5 0 
C 5 -1.326016 4.473168 -2.597899 3.535534 -3.535534 
C 2.597899 -4.473168 1.326016 -5 0 -5 
C -1.326016 -5 -2.597899 -4.473168 -3.535534 -3.535534 
C -4.473168 -2.597899 -5 -1.326016 -5 0 
C -5 1.326016 -4.473168 2.597899 -3.535534 3.535534 
C -2.597899 4.473168 -1.326016 5 0 5 
z
" id="mc5be0459e4" style="stroke:#000000;stroke-width:0.4;"/>
    </defs>
    <g clip-path="url(#p5babb6bedd)">
     <use style="stroke:#000000;stroke-width:0.4;" x="597.046353" xlink:href="#mc5be0459e4" y="430.355807"/>
     <use style="stroke:#000000;stroke-width:0.4;" x="559.015451" xlink:href="#mc5be0459e4" y="451.338843"/>
     <use style="stroke:#000000;stroke-width:0.4;" x="635.077255" xlink:href="#mc5be0459e4" y="388.389735"/>
     <use style="stroke:#000000;stroke-width:0.4;" x="673.108157" xlink:href="#mc5be0459e4" y="367.406699"/>
     <use style="stroke:#000000;stroke-width:0.4;" x="520.984549" xlink:href="#mc5be0459e4" y="367.406699"/>
     <use style="stroke:#000000;stroke-width:0.4;" x="711.139059" xlink:href="#mc5be0459e4" y="346.423662"/>
     <use style="stroke:#000000;stroke-width:0.4;" x="482.953647" xlink:href="#mc5be0459e4" y="346.423662"/>
     <use style="stroke:#000000;stroke-width:0.4;" x="444.922745" xlink:href="#mc5be0459e4" y="346.423662"/>
     <use style="stroke:#000000;stroke-width:0.4;" x="749.16996" xlink:href="#mc5be0459e4" y="325.440626"/>
     <use style="stroke:#000000;stroke-width:0.4;" x="406.891843" xlink:href="#mc5be0459e4" y="304.45759"/>
     <use style="stroke:#000000;stroke-width:0.4;" x="368.860941" xlink:href="#mc5be0459e4" y="304.45759"/>
     <use style="stroke:#000000;stroke-width:0.4;" x="330.83004" xlink:href="#mc5be0459e4" y="304.45759"/>
     <use style="stroke:#000000;stroke-width:0.4;" x="292.799138" xlink:href="#mc5be0459e4" y="283.474554"/>
     <use style="stroke:#000000;stroke-width:0.4;" x="254.768236" xlink:href="#mc5be0459e4" y="283.474554"/>
     <use style="stroke:#000000;stroke-width:0.4;" x="216.737334" xlink:href="#mc5be0459e4" y="283.474554"/>
     <use style="stroke:#000000;stroke-width:0.4;" x="787.200862" xlink:href="#mc5be0459e4" y="262.491518"/>
     <use style="stroke:#000000;stroke-width:0.4;" x="825.231764" xlink:href="#mc5be0459e4" y="241.508482"/>
     <use style="stroke:#000000;stroke-width:0.4;" x="178.706432" xlink:href="#mc5be0459e4" y="199.54241"/>
     <use style="stroke:#000000;stroke-width:0.4;" x="863.262666" xlink:href="#mc5be0459e4" y="178.559374"/>
     <use style="stroke:#000000;stroke-width:0.4;" x="901.293568" xlink:href="#mc5be0459e4" y="157.576338"/>
     <use style="stroke:#000000;stroke-width:0.4;" x="939.32447" xlink:href="#mc5be0459e4" y="115.610265"/>
     <use style="stroke:#000000;stroke-width:0.4;" x="977.355372" xlink:href="#mc5be0459e4" y="94.627229"/>
     <use style="stroke:#000000;stroke-width:0.4;" x="140.67553" xlink:href="#mc5be0459e4" y="73.644193"/>
     <use style="stroke:#000000;stroke-width:0.4;" x="102.644628" xlink:href="#mc5be0459e4" y="52.661157"/>
    </g>
   </g>
   <g id="line2d_1">
    <path clip-path="url(#p5babb6bedd)" d="M 597.046353 493.2 
L 597.046353 10.8 
" style="fill:none;stroke:#ff0000;stroke-linecap:square;stroke-width:1.5;"/>
   </g>
   <g id="patch_3">
    <path d="M 10.8 493.2 
L 10.8 10.8 
" style="fill:none;stroke:#000000;stroke-linecap:square;stroke-linejoin:miter;stroke-width:0.8;"/>
   </g>
   <g id="patch_4">
    <path d="M 1069.2 493.2 
L 1069.2 10.8 
" style="fill:none;stroke:#000000;stroke-linecap:square;stroke-linejoin:miter;stroke-width:0.8;"/>
   </g>
   <g id="patch_5">
    <path d="M 10.8 493.2 
L 1069.2 493.2 
" style="fill:none;stroke:#000000;stroke-linecap:square;stroke-linejoin:miter;stroke-width:0.8;"/>
   </g>
   <g id="patch_6">
    <path d="M 10.8 10.8 
L 1069.2 10.8 
" style="fill:none;stroke:#000000;stroke-linecap:square;stroke-linejoin:miter;stroke-width:0.8;"/>
   </g>
  </g>
 </g>
 <defs>
  <clipPath id="p5babb6bedd">
   <rect height="482.4" width="1058.4" x="10.8" y="10.8"/>
  </clipPath>
 </defs>
</svg>
