<?xml version="1.0" encoding="utf-8" standalone="no"?>
<!DOCTYPE svg PUBLIC "-//W3C//DTD SVG 1.1//EN"
  "http://www.w3.org/Graphics/SVG/1.1/DTD/svg11.dtd">
<svg height="504pt" version="1.1" viewBox="0 0 1080 504" width="1080pt" xmlns="http://www.w3.org/2000/svg" xmlns:xlink="http://www.w3.org/1999/xlink">
 <metadata>
  <rdf:RDF xmlns:cc="http://creativecommons.org/ns#" xmlns:dc="http://purl.org/dc/elements/1.1/" xmlns:rdf="http://www.w3.org/1999/02/22-rdf-syntax-ns#">
   <cc:Work>
    <dc:type rdf:resource="http://purl.org/dc/dcmitype/StillImage"/>
    <dc:date>2022-04-03T07:42:36.519193</dc:date>
    <dc:format>image/svg+xml</dc:format>
    <dc:creator>
     <cc:Agent>
      <dc:title>Matplotlib v3.4.3, https://matplotlib.org/</dc:title>
     </cc:Agent>
    </dc:creator>
   </cc:Work>
  </rdf:RDF>
 </metadata>
 <defs>
  <style type="text/css">*{stroke-linecap:butt;stroke-linejoin:round;}</style>
 </defs>
 <g id="figure_1">
  <g id="patch_1">
   <path d="M 0 504 
L 1080 504 
L 1080 0 
L 0 0 
z
" style="fill:#ffffff;"/>
  </g>
  <g id="axes_1">
   <g id="patch_2">
    <path d="M 10.8 493.2 
L 1069.2 493.2 
L 1069.2 10.8 
L 10.8 10.8 
z
" style="fill:#ffffff;"/>
   </g>
   <g id="LineCollection_1">
    <path clip-path="url(#pdc79bc7be4)" d="M 193.760331 157.576338 
L 211.983471 157.576338 
" style="fill:none;stroke:#000000;stroke-width:0.4;"/>
    <path clip-path="url(#pdc79bc7be4)" d="M 193.760331 157.576338 
L 175.53719 157.576338 
" style="fill:none;stroke:#000000;stroke-width:0.4;"/>
    <path clip-path="url(#pdc79bc7be4)" d="M 175.53719 157.576338 
L 157.31405 157.576338 
" style="fill:none;stroke:#000000;stroke-width:0.4;"/>
    <path clip-path="url(#pdc79bc7be4)" d="M 157.31405 157.576338 
L 139.090909 157.576338 
" style="fill:none;stroke:#000000;stroke-width:0.4;"/>
    <path clip-path="url(#pdc79bc7be4)" d="M 139.090909 157.576338 
L 230.206612 73.644193 
" style="fill:none;stroke:#000000;stroke-width:0.4;"/>
    <path clip-path="url(#pdc79bc7be4)" d="M 321.322314 136.593301 
L 339.545455 136.593301 
" style="fill:none;stroke:#000000;stroke-width:0.4;"/>
    <path clip-path="url(#pdc79bc7be4)" d="M 321.322314 136.593301 
L 303.099174 136.593301 
" style="fill:none;stroke:#000000;stroke-width:0.4;"/>
    <path clip-path="url(#pdc79bc7be4)" d="M 303.099174 136.593301 
L 284.876033 136.593301 
" style="fill:none;stroke:#000000;stroke-width:0.4;"/>
    <path clip-path="url(#pdc79bc7be4)" d="M 284.876033 136.593301 
L 357.768595 94.627229 
" style="fill:none;stroke:#000000;stroke-width:0.4;"/>
    <path clip-path="url(#pdc79bc7be4)" d="M 375.991736 178.559374 
L 394.214876 178.559374 
" style="fill:none;stroke:#000000;stroke-width:0.4;"/>
    <path clip-path="url(#pdc79bc7be4)" d="M 375.991736 178.559374 
L 412.438017 157.576338 
" style="fill:none;stroke:#000000;stroke-width:0.4;"/>
    <path clip-path="url(#pdc79bc7be4)" d="M 503.553719 451.338843 
L 521.77686 451.338843 
" style="fill:none;stroke:#000000;stroke-width:0.4;"/>
    <path clip-path="url(#pdc79bc7be4)" d="M 503.553719 451.338843 
L 540 430.355807 
" style="fill:none;stroke:#000000;stroke-width:0.4;"/>
    <path clip-path="url(#pdc79bc7be4)" d="M 540 430.355807 
L 558.22314 430.355807 
" style="fill:none;stroke:#000000;stroke-width:0.4;"/>
    <path clip-path="url(#pdc79bc7be4)" d="M 540 430.355807 
L 576.446281 367.406699 
" style="fill:none;stroke:#000000;stroke-width:0.4;"/>
    <path clip-path="url(#pdc79bc7be4)" d="M 576.446281 367.406699 
L 594.669421 409.372771 
" style="fill:none;stroke:#000000;stroke-width:0.4;"/>
    <path clip-path="url(#pdc79bc7be4)" d="M 576.446281 367.406699 
L 612.892562 325.440626 
" style="fill:none;stroke:#000000;stroke-width:0.4;"/>
    <path clip-path="url(#pdc79bc7be4)" d="M 612.892562 325.440626 
L 631.115702 388.389735 
" style="fill:none;stroke:#000000;stroke-width:0.4;"/>
    <path clip-path="url(#pdc79bc7be4)" d="M 612.892562 325.440626 
L 649.338843 304.45759 
" style="fill:none;stroke:#000000;stroke-width:0.4;"/>
    <path clip-path="url(#pdc79bc7be4)" d="M 649.338843 304.45759 
L 667.561983 304.45759 
" style="fill:none;stroke:#000000;stroke-width:0.4;"/>
    <path clip-path="url(#pdc79bc7be4)" d="M 649.338843 304.45759 
L 685.785124 283.474554 
" style="fill:none;stroke:#000000;stroke-width:0.4;"/>
    <path clip-path="url(#pdc79bc7be4)" d="M 685.785124 283.474554 
L 704.008264 367.406699 
" style="fill:none;stroke:#000000;stroke-width:0.4;"/>
    <path clip-path="url(#pdc79bc7be4)" d="M 685.785124 283.474554 
L 722.231405 262.491518 
" style="fill:none;stroke:#000000;stroke-width:0.4;"/>
    <path clip-path="url(#pdc79bc7be4)" d="M 722.231405 262.491518 
L 740.454545 283.474554 
" style="fill:none;stroke:#000000;stroke-width:0.4;"/>
    <path clip-path="url(#pdc79bc7be4)" d="M 722.231405 262.491518 
L 758.677686 220.525446 
" style="fill:none;stroke:#000000;stroke-width:0.4;"/>
    <path clip-path="url(#pdc79bc7be4)" d="M 758.677686 220.525446 
L 776.900826 220.525446 
" style="fill:none;stroke:#000000;stroke-width:0.4;"/>
    <path clip-path="url(#pdc79bc7be4)" d="M 758.677686 220.525446 
L 485.330579 220.525446 
" style="fill:none;stroke:#000000;stroke-width:0.4;"/>
    <path clip-path="url(#pdc79bc7be4)" d="M 485.330579 220.525446 
L 467.107438 262.491518 
" style="fill:none;stroke:#000000;stroke-width:0.4;"/>
    <path clip-path="url(#pdc79bc7be4)" d="M 485.330579 220.525446 
L 795.123967 178.559374 
" style="fill:none;stroke:#000000;stroke-width:0.4;"/>
    <path clip-path="url(#pdc79bc7be4)" d="M 813.347107 199.54241 
L 831.570248 199.54241 
" style="fill:none;stroke:#000000;stroke-width:0.4;"/>
    <path clip-path="url(#pdc79bc7be4)" d="M 813.347107 199.54241 
L 795.123967 178.559374 
" style="fill:none;stroke:#000000;stroke-width:0.4;"/>
    <path clip-path="url(#pdc79bc7be4)" d="M 795.123967 178.559374 
L 849.793388 157.576338 
" style="fill:none;stroke:#000000;stroke-width:0.4;"/>
    <path clip-path="url(#pdc79bc7be4)" d="M 886.239669 157.576338 
L 904.46281 157.576338 
" style="fill:none;stroke:#000000;stroke-width:0.4;"/>
    <path clip-path="url(#pdc79bc7be4)" d="M 886.239669 157.576338 
L 868.016529 157.576338 
" style="fill:none;stroke:#000000;stroke-width:0.4;"/>
    <path clip-path="url(#pdc79bc7be4)" d="M 868.016529 157.576338 
L 849.793388 157.576338 
" style="fill:none;stroke:#000000;stroke-width:0.4;"/>
    <path clip-path="url(#pdc79bc7be4)" d="M 849.793388 157.576338 
L 448.884298 157.576338 
" style="fill:none;stroke:#000000;stroke-width:0.4;"/>
    <path clip-path="url(#pdc79bc7be4)" d="M 448.884298 157.576338 
L 430.661157 199.54241 
" style="fill:none;stroke:#000000;stroke-width:0.4;"/>
    <path clip-path="url(#pdc79bc7be4)" d="M 448.884298 157.576338 
L 412.438017 157.576338 
" style="fill:none;stroke:#000000;stroke-width:0.4;"/>
    <path clip-path="url(#pdc79bc7be4)" d="M 412.438017 157.576338 
L 922.68595 94.627229 
" style="fill:none;stroke:#000000;stroke-width:0.4;"/>
    <path clip-path="url(#pdc79bc7be4)" d="M 922.68595 94.627229 
L 940.909091 115.610265 
" style="fill:none;stroke:#000000;stroke-width:0.4;"/>
    <path clip-path="url(#pdc79bc7be4)" d="M 922.68595 94.627229 
L 357.768595 94.627229 
" style="fill:none;stroke:#000000;stroke-width:0.4;"/>
    <path clip-path="url(#pdc79bc7be4)" d="M 357.768595 94.627229 
L 266.652893 94.627229 
" style="fill:none;stroke:#000000;stroke-width:0.4;"/>
    <path clip-path="url(#pdc79bc7be4)" d="M 266.652893 94.627229 
L 248.429752 241.508482 
" style="fill:none;stroke:#000000;stroke-width:0.4;"/>
    <path clip-path="url(#pdc79bc7be4)" d="M 266.652893 94.627229 
L 230.206612 73.644193 
" style="fill:none;stroke:#000000;stroke-width:0.4;"/>
    <path clip-path="url(#pdc79bc7be4)" d="M 230.206612 73.644193 
L 120.867769 73.644193 
" style="fill:none;stroke:#000000;stroke-width:0.4;"/>
    <path clip-path="url(#pdc79bc7be4)" d="M 120.867769 73.644193 
L 102.644628 115.610265 
" style="fill:none;stroke:#000000;stroke-width:0.4;"/>
    <path clip-path="url(#pdc79bc7be4)" d="M 120.867769 73.644193 
L 959.132231 52.661157 
" style="fill:none;stroke:#000000;stroke-width:0.4;"/>
    <path clip-path="url(#pdc79bc7be4)" d="M 959.132231 52.661157 
L 977.355372 73.644193 
" style="fill:none;stroke:#000000;stroke-width:0.4;"/>
   </g>
   <g id="matplotlib.axis_1">
    <g id="xtick_1"/>
    <g id="xtick_2"/>
    <g id="xtick_3"/>
    <g id="xtick_4"/>
    <g id="xtick_5"/>
    <g id="xtick_6"/>
   </g>
   <g id="matplotlib.axis_2">
    <g id="ytick_1"/>
    <g id="ytick_2"/>
    <g id="ytick_3"/>
    <g id="ytick_4"/>
    <g id="ytick_5"/>
   </g>
   <g id="PathCollection_1">
    <path clip-path="url(#pdc79bc7be4)" d="M 193.760331 161.111871 
C 194.697965 161.111871 195.597323 160.739345 196.260331 160.076338 
C 196.923338 159.41333 197.295864 158.513972 197.295864 157.576338 
C 197.295864 156.638703 196.923338 155.739345 196.260331 155.076338 
C 195.597323 154.41333 194.697965 154.040804 193.760331 154.040804 
C 192.822696 154.040804 191.923338 154.41333 191.260331 155.076338 
C 190.597323 155.739345 190.224797 156.638703 190.224797 157.576338 
C 190.224797 158.513972 190.597323 159.41333 191.260331 160.076338 
C 191.923338 160.739345 192.822696 161.111871 193.760331 161.111871 
z
" style="fill:#808080;stroke:#000000;stroke-width:0.4;"/>
    <path clip-path="url(#pdc79bc7be4)" d="M 211.983471 161.111871 
C 212.921106 161.111871 213.820463 160.739345 214.483471 160.076338 
C 215.146479 159.41333 215.519005 158.513972 215.519005 157.576338 
C 215.519005 156.638703 215.146479 155.739345 214.483471 155.076338 
C 213.820463 154.41333 212.921106 154.040804 211.983471 154.040804 
C 211.045837 154.040804 210.146479 154.41333 209.483471 155.076338 
C 208.820463 155.739345 208.447937 156.638703 208.447937 157.576338 
C 208.447937 158.513972 208.820463 159.41333 209.483471 160.076338 
C 210.146479 160.739345 211.045837 161.111871 211.983471 161.111871 
z
" style="fill:#808080;stroke:#000000;stroke-width:0.4;"/>
    <path clip-path="url(#pdc79bc7be4)" d="M 175.53719 161.111871 
C 176.474825 161.111871 177.374182 160.739345 178.03719 160.076338 
C 178.700198 159.41333 179.072724 158.513972 179.072724 157.576338 
C 179.072724 156.638703 178.700198 155.739345 178.03719 155.076338 
C 177.374182 154.41333 176.474825 154.040804 175.53719 154.040804 
C 174.599556 154.040804 173.700198 154.41333 173.03719 155.076338 
C 172.374182 155.739345 172.001656 156.638703 172.001656 157.576338 
C 172.001656 158.513972 172.374182 159.41333 173.03719 160.076338 
C 173.700198 160.739345 174.599556 161.111871 175.53719 161.111871 
z
" style="fill:#808080;stroke:#000000;stroke-width:0.4;"/>
    <path clip-path="url(#pdc79bc7be4)" d="M 157.31405 161.111871 
C 158.251684 161.111871 159.151042 160.739345 159.81405 160.076338 
C 160.477057 159.41333 160.849583 158.513972 160.849583 157.576338 
C 160.849583 156.638703 160.477057 155.739345 159.81405 155.076338 
C 159.151042 154.41333 158.251684 154.040804 157.31405 154.040804 
C 156.376415 154.040804 155.477057 154.41333 154.81405 155.076338 
C 154.151042 155.739345 153.778516 156.638703 153.778516 157.576338 
C 153.778516 158.513972 154.151042 159.41333 154.81405 160.076338 
C 155.477057 160.739345 156.376415 161.111871 157.31405 161.111871 
z
" style="fill:#808080;stroke:#000000;stroke-width:0.4;"/>
    <path clip-path="url(#pdc79bc7be4)" d="M 139.090909 161.111871 
C 140.028544 161.111871 140.927901 160.739345 141.590909 160.076338 
C 142.253917 159.41333 142.626443 158.513972 142.626443 157.576338 
C 142.626443 156.638703 142.253917 155.739345 141.590909 155.076338 
C 140.927901 154.41333 140.028544 154.040804 139.090909 154.040804 
C 138.153275 154.040804 137.253917 154.41333 136.590909 155.076338 
C 135.927901 155.739345 135.555375 156.638703 135.555375 157.576338 
C 135.555375 158.513972 135.927901 159.41333 136.590909 160.076338 
C 137.253917 160.739345 138.153275 161.111871 139.090909 161.111871 
z
" style="fill:#808080;stroke:#000000;stroke-width:0.4;"/>
    <path clip-path="url(#pdc79bc7be4)" d="M 321.322314 140.128835 
C 322.259949 140.128835 323.159306 139.756309 323.822314 139.093301 
C 324.485322 138.430294 324.857848 137.530936 324.857848 136.593301 
C 324.857848 135.655667 324.485322 134.756309 323.822314 134.093301 
C 323.159306 133.430294 322.259949 133.057768 321.322314 133.057768 
C 320.384679 133.057768 319.485322 133.430294 318.822314 134.093301 
C 318.159306 134.756309 317.78678 135.655667 317.78678 136.593301 
C 317.78678 137.530936 318.159306 138.430294 318.822314 139.093301 
C 319.485322 139.756309 320.384679 140.128835 321.322314 140.128835 
z
" style="fill:#808080;stroke:#000000;stroke-width:0.4;"/>
    <path clip-path="url(#pdc79bc7be4)" d="M 339.545455 140.128835 
C 340.483089 140.128835 341.382447 139.756309 342.045455 139.093301 
C 342.708462 138.430294 343.080988 137.530936 343.080988 136.593301 
C 343.080988 135.655667 342.708462 134.756309 342.045455 134.093301 
C 341.382447 133.430294 340.483089 133.057768 339.545455 133.057768 
C 338.60782 133.057768 337.708462 133.430294 337.045455 134.093301 
C 336.382447 134.756309 336.009921 135.655667 336.009921 136.593301 
C 336.009921 137.530936 336.382447 138.430294 337.045455 139.093301 
C 337.708462 139.756309 338.60782 140.128835 339.545455 140.128835 
z
" style="fill:#808080;stroke:#000000;stroke-width:0.4;"/>
    <path clip-path="url(#pdc79bc7be4)" d="M 303.099174 140.128835 
C 304.036808 140.128835 304.936166 139.756309 305.599174 139.093301 
C 306.262181 138.430294 306.634707 137.530936 306.634707 136.593301 
C 306.634707 135.655667 306.262181 134.756309 305.599174 134.093301 
C 304.936166 133.430294 304.036808 133.057768 303.099174 133.057768 
C 302.161539 133.057768 301.262181 133.430294 300.599174 134.093301 
C 299.936166 134.756309 299.56364 135.655667 299.56364 136.593301 
C 299.56364 137.530936 299.936166 138.430294 300.599174 139.093301 
C 301.262181 139.756309 302.161539 140.128835 303.099174 140.128835 
z
" style="fill:#808080;stroke:#000000;stroke-width:0.4;"/>
    <path clip-path="url(#pdc79bc7be4)" d="M 284.876033 140.128835 
C 285.813668 140.128835 286.713025 139.756309 287.376033 139.093301 
C 288.039041 138.430294 288.411567 137.530936 288.411567 136.593301 
C 288.411567 135.655667 288.039041 134.756309 287.376033 134.093301 
C 286.713025 133.430294 285.813668 133.057768 284.876033 133.057768 
C 283.938399 133.057768 283.039041 133.430294 282.376033 134.093301 
C 281.713025 134.756309 281.340499 135.655667 281.340499 136.593301 
C 281.340499 137.530936 281.713025 138.430294 282.376033 139.093301 
C 283.039041 139.756309 283.938399 140.128835 284.876033 140.128835 
z
" style="fill:#808080;stroke:#000000;stroke-width:0.4;"/>
    <path clip-path="url(#pdc79bc7be4)" d="M 375.991736 182.094908 
C 376.92937 182.094908 377.828728 181.722381 378.491736 181.059374 
C 379.154743 180.396366 379.527269 179.497008 379.527269 178.559374 
C 379.527269 177.621739 379.154743 176.722381 378.491736 176.059374 
C 377.828728 175.396366 376.92937 175.02384 375.991736 175.02384 
C 375.054101 175.02384 374.154743 175.396366 373.491736 176.059374 
C 372.828728 176.722381 372.456202 177.621739 372.456202 178.559374 
C 372.456202 179.497008 372.828728 180.396366 373.491736 181.059374 
C 374.154743 181.722381 375.054101 182.094908 375.991736 182.094908 
z
" style="fill:#808080;stroke:#000000;stroke-width:0.4;"/>
    <path clip-path="url(#pdc79bc7be4)" d="M 394.214876 182.094908 
C 395.152511 182.094908 396.051868 181.722381 396.714876 181.059374 
C 397.377884 180.396366 397.75041 179.497008 397.75041 178.559374 
C 397.75041 177.621739 397.377884 176.722381 396.714876 176.059374 
C 396.051868 175.396366 395.152511 175.02384 394.214876 175.02384 
C 393.277241 175.02384 392.377884 175.396366 391.714876 176.059374 
C 391.051868 176.722381 390.679342 177.621739 390.679342 178.559374 
C 390.679342 179.497008 391.051868 180.396366 391.714876 181.059374 
C 392.377884 181.722381 393.277241 182.094908 394.214876 182.094908 
z
" style="fill:#808080;stroke:#000000;stroke-width:0.4;"/>
    <path clip-path="url(#pdc79bc7be4)" d="M 503.553719 456.338843 
C 504.879735 456.338843 506.151618 455.812011 507.089253 454.874377 
C 508.026887 453.936742 508.553719 452.664858 508.553719 451.338843 
C 508.553719 450.012827 508.026887 448.740944 507.089253 447.803309 
C 506.151618 446.865675 504.879735 446.338843 503.553719 446.338843 
C 502.227704 446.338843 500.95582 446.865675 500.018185 447.803309 
C 499.080551 448.740944 498.553719 450.012827 498.553719 451.338843 
C 498.553719 452.664858 499.080551 453.936742 500.018185 454.874377 
C 500.95582 455.812011 502.227704 456.338843 503.553719 456.338843 
z
" style="stroke:#000000;stroke-width:0.4;"/>
    <path clip-path="url(#pdc79bc7be4)" d="M 521.77686 456.338843 
C 523.102875 456.338843 524.374759 455.812011 525.312393 454.874377 
C 526.250028 453.936742 526.77686 452.664858 526.77686 451.338843 
C 526.77686 450.012827 526.250028 448.740944 525.312393 447.803309 
C 524.374759 446.865675 523.102875 446.338843 521.77686 446.338843 
C 520.450844 446.338843 519.17896 446.865675 518.241326 447.803309 
C 517.303691 448.740944 516.77686 450.012827 516.77686 451.338843 
C 516.77686 452.664858 517.303691 453.936742 518.241326 454.874377 
C 519.17896 455.812011 520.450844 456.338843 521.77686 456.338843 
z
" style="stroke:#000000;stroke-width:0.4;"/>
    <path clip-path="url(#pdc79bc7be4)" d="M 540 435.355807 
C 541.326016 435.355807 542.597899 434.828975 543.535534 433.891341 
C 544.473168 432.953706 545 431.681822 545 430.355807 
C 545 429.029791 544.473168 427.757908 543.535534 426.820273 
C 542.597899 425.882638 541.326016 425.355807 540 425.355807 
C 538.673985 425.355807 537.402101 425.882638 536.464466 426.820273 
C 535.526832 427.757908 535 429.029791 535 430.355807 
C 535 431.681822 535.526832 432.953706 536.464466 433.891341 
C 537.402101 434.828975 538.673985 435.355807 540 435.355807 
z
" style="stroke:#000000;stroke-width:0.4;"/>
    <path clip-path="url(#pdc79bc7be4)" d="M 558.22314 433.891341 
C 559.160775 433.891341 560.060133 433.518815 560.72314 432.855807 
C 561.386148 432.192799 561.758674 431.293441 561.758674 430.355807 
C 561.758674 429.418172 561.386148 428.518815 560.72314 427.855807 
C 560.060133 427.192799 559.160775 426.820273 558.22314 426.820273 
C 557.285506 426.820273 556.386148 427.192799 555.72314 427.855807 
C 555.060133 428.518815 554.687607 429.418172 554.687607 430.355807 
C 554.687607 431.293441 555.060133 432.192799 555.72314 432.855807 
C 556.386148 433.518815 557.285506 433.891341 558.22314 433.891341 
z
" style="fill:#808080;stroke:#000000;stroke-width:0.4;"/>
    <path clip-path="url(#pdc79bc7be4)" d="M 576.446281 372.406699 
C 577.772296 372.406699 579.04418 371.879867 579.981815 370.942232 
C 580.919449 370.004598 581.446281 368.732714 581.446281 367.406699 
C 581.446281 366.080683 580.919449 364.808799 579.981815 363.871165 
C 579.04418 362.93353 577.772296 362.406699 576.446281 362.406699 
C 575.120265 362.406699 573.848382 362.93353 572.910747 363.871165 
C 571.973113 364.808799 571.446281 366.080683 571.446281 367.406699 
C 571.446281 368.732714 571.973113 370.004598 572.910747 370.942232 
C 573.848382 371.879867 575.120265 372.406699 576.446281 372.406699 
z
" style="stroke:#000000;stroke-width:0.4;"/>
    <path clip-path="url(#pdc79bc7be4)" d="M 594.669421 412.908305 
C 595.607056 412.908305 596.506414 412.535779 597.169421 411.872771 
C 597.832429 411.209763 598.204955 410.310405 598.204955 409.372771 
C 598.204955 408.435136 597.832429 407.535779 597.169421 406.872771 
C 596.506414 406.209763 595.607056 405.837237 594.669421 405.837237 
C 593.731787 405.837237 592.832429 406.209763 592.169421 406.872771 
C 591.506414 407.535779 591.133888 408.435136 591.133888 409.372771 
C 591.133888 410.310405 591.506414 411.209763 592.169421 411.872771 
C 592.832429 412.535779 593.731787 412.908305 594.669421 412.908305 
z
" style="fill:#808080;stroke:#000000;stroke-width:0.4;"/>
    <path clip-path="url(#pdc79bc7be4)" d="M 612.892562 330.440626 
C 614.218577 330.440626 615.490461 329.913795 616.428096 328.97616 
C 617.36573 328.038526 617.892562 326.766642 617.892562 325.440626 
C 617.892562 324.114611 617.36573 322.842727 616.428096 321.905092 
C 615.490461 320.967458 614.218577 320.440626 612.892562 320.440626 
C 611.566546 320.440626 610.294663 320.967458 609.357028 321.905092 
C 608.419394 322.842727 607.892562 324.114611 607.892562 325.440626 
C 607.892562 326.766642 608.419394 328.038526 609.357028 328.97616 
C 610.294663 329.913795 611.566546 330.440626 612.892562 330.440626 
z
" style="stroke:#000000;stroke-width:0.4;"/>
    <path clip-path="url(#pdc79bc7be4)" d="M 631.115702 391.925269 
C 632.053337 391.925269 632.952695 391.552742 633.615702 390.889735 
C 634.27871 390.226727 634.651236 389.327369 634.651236 388.389735 
C 634.651236 387.4521 634.27871 386.552742 633.615702 385.889735 
C 632.952695 385.226727 632.053337 384.854201 631.115702 384.854201 
C 630.178068 384.854201 629.27871 385.226727 628.615702 385.889735 
C 627.952695 386.552742 627.580169 387.4521 627.580169 388.389735 
C 627.580169 389.327369 627.952695 390.226727 628.615702 390.889735 
C 629.27871 391.552742 630.178068 391.925269 631.115702 391.925269 
z
" style="fill:#808080;stroke:#000000;stroke-width:0.4;"/>
    <path clip-path="url(#pdc79bc7be4)" d="M 649.338843 309.45759 
C 650.664858 309.45759 651.936742 308.930759 652.874377 307.993124 
C 653.812011 307.05549 654.338843 305.783606 654.338843 304.45759 
C 654.338843 303.131575 653.812011 301.859691 652.874377 300.922056 
C 651.936742 299.984422 650.664858 299.45759 649.338843 299.45759 
C 648.012827 299.45759 646.740944 299.984422 645.803309 300.922056 
C 644.865675 301.859691 644.338843 303.131575 644.338843 304.45759 
C 644.338843 305.783606 644.865675 307.05549 645.803309 307.993124 
C 646.740944 308.930759 648.012827 309.45759 649.338843 309.45759 
z
" style="stroke:#000000;stroke-width:0.4;"/>
    <path clip-path="url(#pdc79bc7be4)" d="M 667.561983 307.993124 
C 668.499618 307.993124 669.398976 307.620598 670.061983 306.95759 
C 670.724991 306.294583 671.097517 305.395225 671.097517 304.45759 
C 671.097517 303.519956 670.724991 302.620598 670.061983 301.95759 
C 669.398976 301.294583 668.499618 300.922056 667.561983 300.922056 
C 666.624349 300.922056 665.724991 301.294583 665.061983 301.95759 
C 664.398976 302.620598 664.02645 303.519956 664.02645 304.45759 
C 664.02645 305.395225 664.398976 306.294583 665.061983 306.95759 
C 665.724991 307.620598 666.624349 307.993124 667.561983 307.993124 
z
" style="fill:#808080;stroke:#000000;stroke-width:0.4;"/>
    <path clip-path="url(#pdc79bc7be4)" d="M 685.785124 288.474554 
C 687.111139 288.474554 688.383023 287.947723 689.320658 287.010088 
C 690.258292 286.072454 690.785124 284.80057 690.785124 283.474554 
C 690.785124 282.148539 690.258292 280.876655 689.320658 279.93902 
C 688.383023 279.001386 687.111139 278.474554 685.785124 278.474554 
C 684.459108 278.474554 683.187225 279.001386 682.24959 279.93902 
C 681.311956 280.876655 680.785124 282.148539 680.785124 283.474554 
C 680.785124 284.80057 681.311956 286.072454 682.24959 287.010088 
C 683.187225 287.947723 684.459108 288.474554 685.785124 288.474554 
z
" style="stroke:#000000;stroke-width:0.4;"/>
    <path clip-path="url(#pdc79bc7be4)" d="M 704.008264 370.942232 
C 704.945899 370.942232 705.845257 370.569706 706.508264 369.906699 
C 707.171272 369.243691 707.543798 368.344333 707.543798 367.406699 
C 707.543798 366.469064 707.171272 365.569706 706.508264 364.906699 
C 705.845257 364.243691 704.945899 363.871165 704.008264 363.871165 
C 703.07063 363.871165 702.171272 364.243691 701.508264 364.906699 
C 700.845257 365.569706 700.472731 366.469064 700.472731 367.406699 
C 700.472731 368.344333 700.845257 369.243691 701.508264 369.906699 
C 702.171272 370.569706 703.07063 370.942232 704.008264 370.942232 
z
" style="fill:#808080;stroke:#000000;stroke-width:0.4;"/>
    <path clip-path="url(#pdc79bc7be4)" d="M 722.231405 267.491518 
C 723.55742 267.491518 724.829304 266.964687 725.766939 266.027052 
C 726.704573 265.089417 727.231405 263.817534 727.231405 262.491518 
C 727.231405 261.165503 726.704573 259.893619 725.766939 258.955984 
C 724.829304 258.01835 723.55742 257.491518 722.231405 257.491518 
C 720.905389 257.491518 719.633506 258.01835 718.695871 258.955984 
C 717.758237 259.893619 717.231405 261.165503 717.231405 262.491518 
C 717.231405 263.817534 717.758237 265.089417 718.695871 266.027052 
C 719.633506 266.964687 720.905389 267.491518 722.231405 267.491518 
z
" style="stroke:#000000;stroke-width:0.4;"/>
    <path clip-path="url(#pdc79bc7be4)" d="M 740.454545 287.010088 
C 741.39218 287.010088 742.291538 286.637562 742.954545 285.974554 
C 743.617553 285.311546 743.990079 284.412189 743.990079 283.474554 
C 743.990079 282.53692 743.617553 281.637562 742.954545 280.974554 
C 742.291538 280.311546 741.39218 279.93902 740.454545 279.93902 
C 739.516911 279.93902 738.617553 280.311546 737.954545 280.974554 
C 737.291538 281.637562 736.919012 282.53692 736.919012 283.474554 
C 736.919012 284.412189 737.291538 285.311546 737.954545 285.974554 
C 738.617553 286.637562 739.516911 287.010088 740.454545 287.010088 
z
" style="fill:#808080;stroke:#000000;stroke-width:0.4;"/>
    <path clip-path="url(#pdc79bc7be4)" d="M 758.677686 225.525446 
C 760.003701 225.525446 761.275585 224.998614 762.21322 224.06098 
C 763.150854 223.123345 763.677686 221.851461 763.677686 220.525446 
C 763.677686 219.19943 763.150854 217.927546 762.21322 216.989912 
C 761.275585 216.052277 760.003701 215.525446 758.677686 215.525446 
C 757.35167 215.525446 756.079787 216.052277 755.142152 216.989912 
C 754.204517 217.927546 753.677686 219.19943 753.677686 220.525446 
C 753.677686 221.851461 754.204517 223.123345 755.142152 224.06098 
C 756.079787 224.998614 757.35167 225.525446 758.677686 225.525446 
z
" style="stroke:#000000;stroke-width:0.4;"/>
    <path clip-path="url(#pdc79bc7be4)" d="M 776.900826 224.06098 
C 777.838461 224.06098 778.737819 223.688454 779.400826 223.025446 
C 780.063834 222.362438 780.43636 221.46308 780.43636 220.525446 
C 780.43636 219.587811 780.063834 218.688454 779.400826 218.025446 
C 778.737819 217.362438 777.838461 216.989912 776.900826 216.989912 
C 775.963192 216.989912 775.063834 217.362438 774.400826 218.025446 
C 773.737819 218.688454 773.365293 219.587811 773.365293 220.525446 
C 773.365293 221.46308 773.737819 222.362438 774.400826 223.025446 
C 775.063834 223.688454 775.963192 224.06098 776.900826 224.06098 
z
" style="fill:#808080;stroke:#000000;stroke-width:0.4;"/>
    <path clip-path="url(#pdc79bc7be4)" d="M 485.330579 225.525446 
C 486.656594 225.525446 487.928478 224.998614 488.866112 224.06098 
C 489.803747 223.123345 490.330579 221.851461 490.330579 220.525446 
C 490.330579 219.19943 489.803747 217.927546 488.866112 216.989912 
C 487.928478 216.052277 486.656594 215.525446 485.330579 215.525446 
C 484.004563 215.525446 482.732679 216.052277 481.795045 216.989912 
C 480.85741 217.927546 480.330579 219.19943 480.330579 220.525446 
C 480.330579 221.851461 480.85741 223.123345 481.795045 224.06098 
C 482.732679 224.998614 484.004563 225.525446 485.330579 225.525446 
z
" style="stroke:#000000;stroke-width:0.4;"/>
    <path clip-path="url(#pdc79bc7be4)" d="M 467.107438 266.027052 
C 468.045073 266.027052 468.94443 265.654526 469.607438 264.991518 
C 470.270446 264.32851 470.642972 263.429153 470.642972 262.491518 
C 470.642972 261.553883 470.270446 260.654526 469.607438 259.991518 
C 468.94443 259.32851 468.045073 258.955984 467.107438 258.955984 
C 466.169803 258.955984 465.270446 259.32851 464.607438 259.991518 
C 463.94443 260.654526 463.571904 261.553883 463.571904 262.491518 
C 463.571904 263.429153 463.94443 264.32851 464.607438 264.991518 
C 465.270446 265.654526 466.169803 266.027052 467.107438 266.027052 
z
" style="fill:#808080;stroke:#000000;stroke-width:0.4;"/>
    <path clip-path="url(#pdc79bc7be4)" d="M 813.347107 203.077944 
C 814.284742 203.077944 815.1841 202.705417 815.847107 202.04241 
C 816.510115 201.379402 816.882641 200.480044 816.882641 199.54241 
C 816.882641 198.604775 816.510115 197.705417 815.847107 197.04241 
C 815.1841 196.379402 814.284742 196.006876 813.347107 196.006876 
C 812.409473 196.006876 811.510115 196.379402 810.847107 197.04241 
C 810.1841 197.705417 809.811574 198.604775 809.811574 199.54241 
C 809.811574 200.480044 810.1841 201.379402 810.847107 202.04241 
C 811.510115 202.705417 812.409473 203.077944 813.347107 203.077944 
z
" style="fill:#808080;stroke:#000000;stroke-width:0.4;"/>
    <path clip-path="url(#pdc79bc7be4)" d="M 831.570248 203.077944 
C 832.507882 203.077944 833.40724 202.705417 834.070248 202.04241 
C 834.733256 201.379402 835.105782 200.480044 835.105782 199.54241 
C 835.105782 198.604775 834.733256 197.705417 834.070248 197.04241 
C 833.40724 196.379402 832.507882 196.006876 831.570248 196.006876 
C 830.632613 196.006876 829.733256 196.379402 829.070248 197.04241 
C 828.40724 197.705417 828.034714 198.604775 828.034714 199.54241 
C 828.034714 200.480044 828.40724 201.379402 829.070248 202.04241 
C 829.733256 202.705417 830.632613 203.077944 831.570248 203.077944 
z
" style="fill:#808080;stroke:#000000;stroke-width:0.4;"/>
    <path clip-path="url(#pdc79bc7be4)" d="M 795.123967 183.559374 
C 796.449982 183.559374 797.721866 183.032542 798.659501 182.094908 
C 799.597135 181.157273 800.123967 179.885389 800.123967 178.559374 
C 800.123967 177.233358 799.597135 175.961474 798.659501 175.02384 
C 797.721866 174.086205 796.449982 173.559374 795.123967 173.559374 
C 793.797951 173.559374 792.526068 174.086205 791.588433 175.02384 
C 790.650798 175.961474 790.123967 177.233358 790.123967 178.559374 
C 790.123967 179.885389 790.650798 181.157273 791.588433 182.094908 
C 792.526068 183.032542 793.797951 183.559374 795.123967 183.559374 
z
" style="stroke:#000000;stroke-width:0.4;"/>
    <path clip-path="url(#pdc79bc7be4)" d="M 886.239669 161.111871 
C 887.177304 161.111871 888.076662 160.739345 888.739669 160.076338 
C 889.402677 159.41333 889.775203 158.513972 889.775203 157.576338 
C 889.775203 156.638703 889.402677 155.739345 888.739669 155.076338 
C 888.076662 154.41333 887.177304 154.040804 886.239669 154.040804 
C 885.302035 154.040804 884.402677 154.41333 883.739669 155.076338 
C 883.076662 155.739345 882.704136 156.638703 882.704136 157.576338 
C 882.704136 158.513972 883.076662 159.41333 883.739669 160.076338 
C 884.402677 160.739345 885.302035 161.111871 886.239669 161.111871 
z
" style="fill:#808080;stroke:#000000;stroke-width:0.4;"/>
    <path clip-path="url(#pdc79bc7be4)" d="M 904.46281 161.111871 
C 905.400444 161.111871 906.299802 160.739345 906.96281 160.076338 
C 907.625818 159.41333 907.998344 158.513972 907.998344 157.576338 
C 907.998344 156.638703 907.625818 155.739345 906.96281 155.076338 
C 906.299802 154.41333 905.400444 154.040804 904.46281 154.040804 
C 903.525175 154.040804 902.625818 154.41333 901.96281 155.076338 
C 901.299802 155.739345 900.927276 156.638703 900.927276 157.576338 
C 900.927276 158.513972 901.299802 159.41333 901.96281 160.076338 
C 902.625818 160.739345 903.525175 161.111871 904.46281 161.111871 
z
" style="fill:#808080;stroke:#000000;stroke-width:0.4;"/>
    <path clip-path="url(#pdc79bc7be4)" d="M 868.016529 161.111871 
C 868.954163 161.111871 869.853521 160.739345 870.516529 160.076338 
C 871.179537 159.41333 871.552063 158.513972 871.552063 157.576338 
C 871.552063 156.638703 871.179537 155.739345 870.516529 155.076338 
C 869.853521 154.41333 868.954163 154.040804 868.016529 154.040804 
C 867.078894 154.040804 866.179537 154.41333 865.516529 155.076338 
C 864.853521 155.739345 864.480995 156.638703 864.480995 157.576338 
C 864.480995 158.513972 864.853521 159.41333 865.516529 160.076338 
C 866.179537 160.739345 867.078894 161.111871 868.016529 161.111871 
z
" style="fill:#808080;stroke:#000000;stroke-width:0.4;"/>
    <path clip-path="url(#pdc79bc7be4)" d="M 849.793388 162.576338 
C 851.119404 162.576338 852.391288 162.049506 853.328922 161.111871 
C 854.266557 160.174237 854.793388 158.902353 854.793388 157.576338 
C 854.793388 156.250322 854.266557 154.978438 853.328922 154.040804 
C 852.391288 153.103169 851.119404 152.576338 849.793388 152.576338 
C 848.467373 152.576338 847.195489 153.103169 846.257855 154.040804 
C 845.32022 154.978438 844.793388 156.250322 844.793388 157.576338 
C 844.793388 158.902353 845.32022 160.174237 846.257855 161.111871 
C 847.195489 162.049506 848.467373 162.576338 849.793388 162.576338 
z
" style="stroke:#000000;stroke-width:0.4;"/>
    <path clip-path="url(#pdc79bc7be4)" d="M 448.884298 162.576338 
C 450.210313 162.576338 451.482197 162.049506 452.419831 161.111871 
C 453.357466 160.174237 453.884298 158.902353 453.884298 157.576338 
C 453.884298 156.250322 453.357466 154.978438 452.419831 154.040804 
C 451.482197 153.103169 450.210313 152.576338 448.884298 152.576338 
C 447.558282 152.576338 446.286398 153.103169 445.348764 154.040804 
C 444.411129 154.978438 443.884298 156.250322 443.884298 157.576338 
C 443.884298 158.902353 444.411129 160.174237 445.348764 161.111871 
C 446.286398 162.049506 447.558282 162.576338 448.884298 162.576338 
z
" style="stroke:#000000;stroke-width:0.4;"/>
    <path clip-path="url(#pdc79bc7be4)" d="M 430.661157 203.077944 
C 431.598792 203.077944 432.498149 202.705417 433.161157 202.04241 
C 433.824165 201.379402 434.196691 200.480044 434.196691 199.54241 
C 434.196691 198.604775 433.824165 197.705417 433.161157 197.04241 
C 432.498149 196.379402 431.598792 196.006876 430.661157 196.006876 
C 429.723522 196.006876 428.824165 196.379402 428.161157 197.04241 
C 427.498149 197.705417 427.125623 198.604775 427.125623 199.54241 
C 427.125623 200.480044 427.498149 201.379402 428.161157 202.04241 
C 428.824165 202.705417 429.723522 203.077944 430.661157 203.077944 
z
" style="fill:#808080;stroke:#000000;stroke-width:0.4;"/>
    <path clip-path="url(#pdc79bc7be4)" d="M 412.438017 162.576338 
C 413.764032 162.576338 415.035916 162.049506 415.97355 161.111871 
C 416.911185 160.174237 417.438017 158.902353 417.438017 157.576338 
C 417.438017 156.250322 416.911185 154.978438 415.97355 154.040804 
C 415.035916 153.103169 413.764032 152.576338 412.438017 152.576338 
C 411.112001 152.576338 409.840117 153.103169 408.902483 154.040804 
C 407.964848 154.978438 407.438017 156.250322 407.438017 157.576338 
C 407.438017 158.902353 407.964848 160.174237 408.902483 161.111871 
C 409.840117 162.049506 411.112001 162.576338 412.438017 162.576338 
z
" style="stroke:#000000;stroke-width:0.4;"/>
    <path clip-path="url(#pdc79bc7be4)" d="M 922.68595 99.627229 
C 924.011966 99.627229 925.28385 99.100398 926.221484 98.162763 
C 927.159119 97.225129 927.68595 95.953245 927.68595 94.627229 
C 927.68595 93.301214 927.159119 92.02933 926.221484 91.091695 
C 925.28385 90.154061 924.011966 89.627229 922.68595 89.627229 
C 921.359935 89.627229 920.088051 90.154061 919.150417 91.091695 
C 918.212782 92.02933 917.68595 93.301214 917.68595 94.627229 
C 917.68595 95.953245 918.212782 97.225129 919.150417 98.162763 
C 920.088051 99.100398 921.359935 99.627229 922.68595 99.627229 
z
" style="stroke:#000000;stroke-width:0.4;"/>
    <path clip-path="url(#pdc79bc7be4)" d="M 940.909091 119.145799 
C 941.846725 119.145799 942.746083 118.773273 943.409091 118.110265 
C 944.072099 117.447258 944.444625 116.5479 944.444625 115.610265 
C 944.444625 114.672631 944.072099 113.773273 943.409091 113.110265 
C 942.746083 112.447258 941.846725 112.074731 940.909091 112.074731 
C 939.971456 112.074731 939.072099 112.447258 938.409091 113.110265 
C 937.746083 113.773273 937.373557 114.672631 937.373557 115.610265 
C 937.373557 116.5479 937.746083 117.447258 938.409091 118.110265 
C 939.072099 118.773273 939.971456 119.145799 940.909091 119.145799 
z
" style="fill:#808080;stroke:#000000;stroke-width:0.4;"/>
    <path clip-path="url(#pdc79bc7be4)" d="M 357.768595 99.627229 
C 359.094611 99.627229 360.366494 99.100398 361.304129 98.162763 
C 362.241763 97.225129 362.768595 95.953245 362.768595 94.627229 
C 362.768595 93.301214 362.241763 92.02933 361.304129 91.091695 
C 360.366494 90.154061 359.094611 89.627229 357.768595 89.627229 
C 356.44258 89.627229 355.170696 90.154061 354.233061 91.091695 
C 353.295427 92.02933 352.768595 93.301214 352.768595 94.627229 
C 352.768595 95.953245 353.295427 97.225129 354.233061 98.162763 
C 355.170696 99.100398 356.44258 99.627229 357.768595 99.627229 
z
" style="stroke:#000000;stroke-width:0.4;"/>
    <path clip-path="url(#pdc79bc7be4)" d="M 266.652893 99.627229 
C 267.978908 99.627229 269.250792 99.100398 270.188426 98.162763 
C 271.126061 97.225129 271.652893 95.953245 271.652893 94.627229 
C 271.652893 93.301214 271.126061 92.02933 270.188426 91.091695 
C 269.250792 90.154061 267.978908 89.627229 266.652893 89.627229 
C 265.326877 89.627229 264.054993 90.154061 263.117359 91.091695 
C 262.179724 92.02933 261.652893 93.301214 261.652893 94.627229 
C 261.652893 95.953245 262.179724 97.225129 263.117359 98.162763 
C 264.054993 99.100398 265.326877 99.627229 266.652893 99.627229 
z
" style="stroke:#000000;stroke-width:0.4;"/>
    <path clip-path="url(#pdc79bc7be4)" d="M 248.429752 245.044016 
C 249.367387 245.044016 250.266744 244.67149 250.929752 244.008482 
C 251.59276 243.345474 251.965286 242.446117 251.965286 241.508482 
C 251.965286 240.570847 251.59276 239.67149 250.929752 239.008482 
C 250.266744 238.345474 249.367387 237.972948 248.429752 237.972948 
C 247.492118 237.972948 246.59276 238.345474 245.929752 239.008482 
C 245.266744 239.67149 244.894218 240.570847 244.894218 241.508482 
C 244.894218 242.446117 245.266744 243.345474 245.929752 244.008482 
C 246.59276 244.67149 247.492118 245.044016 248.429752 245.044016 
z
" style="fill:#808080;stroke:#000000;stroke-width:0.4;"/>
    <path clip-path="url(#pdc79bc7be4)" d="M 230.206612 78.644193 
C 231.532627 78.644193 232.804511 78.117362 233.742145 77.179727 
C 234.67978 76.242092 235.206612 74.970209 235.206612 73.644193 
C 235.206612 72.318178 234.67978 71.046294 233.742145 70.108659 
C 232.804511 69.171025 231.532627 68.644193 230.206612 68.644193 
C 228.880596 68.644193 227.608712 69.171025 226.671078 70.108659 
C 225.733443 71.046294 225.206612 72.318178 225.206612 73.644193 
C 225.206612 74.970209 225.733443 76.242092 226.671078 77.179727 
C 227.608712 78.117362 228.880596 78.644193 230.206612 78.644193 
z
" style="stroke:#000000;stroke-width:0.4;"/>
    <path clip-path="url(#pdc79bc7be4)" d="M 120.867769 78.644193 
C 122.193784 78.644193 123.465668 78.117362 124.403303 77.179727 
C 125.340937 76.242092 125.867769 74.970209 125.867769 73.644193 
C 125.867769 72.318178 125.340937 71.046294 124.403303 70.108659 
C 123.465668 69.171025 122.193784 68.644193 120.867769 68.644193 
C 119.541753 68.644193 118.269869 69.171025 117.332235 70.108659 
C 116.3946 71.046294 115.867769 72.318178 115.867769 73.644193 
C 115.867769 74.970209 116.3946 76.242092 117.332235 77.179727 
C 118.269869 78.117362 119.541753 78.644193 120.867769 78.644193 
z
" style="stroke:#000000;stroke-width:0.4;"/>
    <path clip-path="url(#pdc79bc7be4)" d="M 102.644628 119.145799 
C 103.582263 119.145799 104.48162 118.773273 105.144628 118.110265 
C 105.807636 117.447258 106.180162 116.5479 106.180162 115.610265 
C 106.180162 114.672631 105.807636 113.773273 105.144628 113.110265 
C 104.48162 112.447258 103.582263 112.074731 102.644628 112.074731 
C 101.706994 112.074731 100.807636 112.447258 100.144628 113.110265 
C 99.48162 113.773273 99.109094 114.672631 99.109094 115.610265 
C 99.109094 116.5479 99.48162 117.447258 100.144628 118.110265 
C 100.807636 118.773273 101.706994 119.145799 102.644628 119.145799 
z
" style="fill:#808080;stroke:#000000;stroke-width:0.4;"/>
    <path clip-path="url(#pdc79bc7be4)" d="M 959.132231 57.661157 
C 960.458247 57.661157 961.730131 57.134325 962.667765 56.196691 
C 963.6054 55.259056 964.132231 53.987173 964.132231 52.661157 
C 964.132231 51.335142 963.6054 50.063258 962.667765 49.125623 
C 961.730131 48.187989 960.458247 47.661157 959.132231 47.661157 
C 957.806216 47.661157 956.534332 48.187989 955.596697 49.125623 
C 954.659063 50.063258 954.132231 51.335142 954.132231 52.661157 
C 954.132231 53.987173 954.659063 55.259056 955.596697 56.196691 
C 956.534332 57.134325 957.806216 57.661157 959.132231 57.661157 
z
" style="stroke:#000000;stroke-width:0.4;"/>
    <path clip-path="url(#pdc79bc7be4)" d="M 977.355372 77.179727 
C 978.293006 77.179727 979.192364 76.807201 979.855372 76.144193 
C 980.51838 75.481185 980.890906 74.581828 980.890906 73.644193 
C 980.890906 72.706559 980.51838 71.807201 979.855372 71.144193 
C 979.192364 70.481185 978.293006 70.108659 977.355372 70.108659 
C 976.417737 70.108659 975.51838 70.481185 974.855372 71.144193 
C 974.192364 71.807201 973.819838 72.706559 973.819838 73.644193 
C 973.819838 74.581828 974.192364 75.481185 974.855372 76.144193 
C 975.51838 76.807201 976.417737 77.179727 977.355372 77.179727 
z
" style="fill:#808080;stroke:#000000;stroke-width:0.4;"/>
   </g>
   <g id="line2d_1">
    <path clip-path="url(#pdc79bc7be4)" d="M 530.88843 493.2 
L 530.88843 10.8 
" style="fill:none;stroke:#ff0000;stroke-linecap:square;stroke-width:1.5;"/>
   </g>
   <g id="patch_3">
    <path d="M 10.8 493.2 
L 10.8 10.8 
" style="fill:none;stroke:#000000;stroke-linecap:square;stroke-linejoin:miter;stroke-width:0.8;"/>
   </g>
   <g id="patch_4">
    <path d="M 1069.2 493.2 
L 1069.2 10.8 
" style="fill:none;stroke:#000000;stroke-linecap:square;stroke-linejoin:miter;stroke-width:0.8;"/>
   </g>
   <g id="patch_5">
    <path d="M 10.8 493.2 
L 1069.2 493.2 
" style="fill:none;stroke:#000000;stroke-linecap:square;stroke-linejoin:miter;stroke-width:0.8;"/>
   </g>
   <g id="patch_6">
    <path d="M 10.8 10.8 
L 1069.2 10.8 
" style="fill:none;stroke:#000000;stroke-linecap:square;stroke-linejoin:miter;stroke-width:0.8;"/>
   </g>
  </g>
 </g>
 <defs>
  <clipPath id="pdc79bc7be4">
   <rect height="482.4" width="1058.4" x="10.8" y="10.8"/>
  </clipPath>
 </defs>
</svg>
