<?xml version="1.0" encoding="UTF-8"?>

<svg version="1.2" baseProfile="tiny" width="144.01mm" height="29.01mm" viewBox="1000 5700 14401 2901" preserveAspectRatio="xMidYMid" fill-rule="evenodd" stroke-width="28.222" stroke-linejoin="round" xmlns="http://www.w3.org/2000/svg" xmlns:xlink="http://www.w3.org/1999/xlink" xml:space="preserve">
 <g visibility="visible" id="Slide_1">
  <g>
   <path fill="rgb(255,255,255)" stroke="none" d="M 8200,8600 L 1000,8600 1000,5700 15400,5700 15400,8600 8200,8600 Z"/>
   <path fill="none" stroke="rgb(0,0,0)" id="Drawing_1_0" stroke-linejoin="round" d="M 8200,8600 L 1000,8600 1000,5700 15400,5700 15400,8600 8200,8600 Z"/>
  </g>
  <g>
   <path fill="rgb(238,238,238)" stroke="none" d="M 1450,8000 L 1300,8000 1300,6000 1600,6000 1600,8000 1450,8000 Z"/>
   <path fill="none" stroke="rgb(0,0,0)" id="Drawing_2_0" stroke-linejoin="round" d="M 1450,8000 L 1300,8000 1300,6000 1600,6000 1600,8000 1450,8000 Z"/>
  </g>
  <g>
   <path fill="rgb(207,231,245)" stroke="none" d="M 2350,8000 L 2200,8000 2200,7500 2500,7500 2500,8000 2350,8000 Z"/>
   <path fill="none" stroke="rgb(0,0,0)" id="Drawing_3_0" stroke-linejoin="round" d="M 2350,8000 L 2200,8000 2200,7500 2500,7500 2500,8000 2350,8000 Z"/>
  </g>
  <g>
   <path fill="rgb(207,231,245)" stroke="none" d="M 3250,8000 L 3100,8000 3100,7000 3400,7000 3400,8000 3250,8000 Z"/>
   <path fill="none" stroke="rgb(0,0,0)" id="Drawing_4_0" stroke-linejoin="round" d="M 3250,8000 L 3100,8000 3100,7000 3400,7000 3400,8000 3250,8000 Z"/>
  </g>
  <g>
   <path fill="rgb(207,231,245)" stroke="none" d="M 4150,8000 L 4000,8000 4000,7500 4300,7500 4300,8000 4150,8000 Z"/>
   <path fill="none" stroke="rgb(0,0,0)" id="Drawing_5_0" stroke-linejoin="round" d="M 4150,8000 L 4000,8000 4000,7500 4300,7500 4300,8000 4150,8000 Z"/>
  </g>
  <g>
   <path fill="rgb(207,231,245)" stroke="none" d="M 5050,8000 L 4900,8000 4900,6500 5200,6500 5200,8000 5050,8000 Z"/>
   <path fill="none" stroke="rgb(0,0,0)" id="Drawing_6_0" stroke-linejoin="round" d="M 5050,8000 L 4900,8000 4900,6500 5200,6500 5200,8000 5050,8000 Z"/>
  </g>
  <g>
   <path fill="rgb(207,231,245)" stroke="none" d="M 5950,8000 L 5800,8000 5800,7500 6100,7500 6100,8000 5950,8000 Z"/>
   <path fill="none" stroke="rgb(0,0,0)" id="Drawing_7_0" stroke-linejoin="round" d="M 5950,8000 L 5800,8000 5800,7500 6100,7500 6100,8000 5950,8000 Z"/>
  </g>
  <g>
   <path fill="rgb(207,231,245)" stroke="none" d="M 6850,8000 L 6700,8000 6700,7100 7000,7100 7000,8000 6850,8000 Z"/>
   <path fill="none" stroke="rgb(0,0,0)" id="Drawing_8_0" stroke-linejoin="round" d="M 6850,8000 L 6700,8000 6700,7100 7000,7100 7000,8000 6850,8000 Z"/>
  </g>
  <g>
   <path fill="rgb(207,231,245)" stroke="none" d="M 7750,8000 L 7600,8000 7600,7500 7900,7500 7900,8000 7750,8000 Z"/>
   <path fill="none" stroke="rgb(0,0,0)" id="Drawing_9_0" stroke-linejoin="round" d="M 7750,8000 L 7600,8000 7600,7500 7900,7500 7900,8000 7750,8000 Z"/>
  </g>
  <g>
   <path fill="rgb(207,231,245)" stroke="none" d="M 8650,8000 L 8500,8000 8500,6000 8800,6000 8800,8000 8650,8000 Z"/>
   <path fill="none" stroke="rgb(0,0,0)" id="Drawing_10_0" stroke-linejoin="round" d="M 8650,8000 L 8500,8000 8500,6000 8800,6000 8800,8000 8650,8000 Z"/>
  </g>
  <g>
   <path fill="rgb(207,231,245)" stroke="none" d="M 9550,8000 L 9400,8000 9400,7500 9700,7500 9700,8000 9550,8000 Z"/>
   <path fill="none" stroke="rgb(0,0,0)" id="Drawing_11_0" stroke-linejoin="round" d="M 9550,8000 L 9400,8000 9400,7500 9700,7500 9700,8000 9550,8000 Z"/>
  </g>
  <g>
   <path fill="rgb(207,231,245)" stroke="none" d="M 10450,8000 L 10300,8000 10300,7000 10600,7000 10600,8000 10450,8000 Z"/>
   <path fill="none" stroke="rgb(0,0,0)" id="Drawing_12_0" stroke-linejoin="round" d="M 10450,8000 L 10300,8000 10300,7000 10600,7000 10600,8000 10450,8000 Z"/>
  </g>
  <g>
   <path fill="rgb(207,231,245)" stroke="none" d="M 11350,8000 L 11200,8000 11200,7500 11500,7500 11500,8000 11350,8000 Z"/>
   <path fill="none" stroke="rgb(0,0,0)" id="Drawing_13_0" stroke-linejoin="round" d="M 11350,8000 L 11200,8000 11200,7500 11500,7500 11500,8000 11350,8000 Z"/>
  </g>
  <g>
   <path fill="rgb(207,231,245)" stroke="none" d="M 12250,8000 L 12100,8000 12100,6500 12400,6500 12400,8000 12250,8000 Z"/>
   <path fill="none" stroke="rgb(0,0,0)" id="Drawing_14_0" stroke-linejoin="round" d="M 12250,8000 L 12100,8000 12100,6500 12400,6500 12400,8000 12250,8000 Z"/>
  </g>
  <g>
   <path fill="rgb(207,231,245)" stroke="none" d="M 13150,8000 L 13000,8000 13000,7500 13300,7500 13300,8000 13150,8000 Z"/>
   <path fill="none" stroke="rgb(0,0,0)" id="Drawing_15_0" stroke-linejoin="round" d="M 13150,8000 L 13000,8000 13000,7500 13300,7500 13300,8000 13150,8000 Z"/>
  </g>
  <g>
   <path fill="rgb(207,231,245)" stroke="none" d="M 14050,8000 L 13900,8000 13900,7000 14200,7000 14200,8000 14050,8000 Z"/>
   <path fill="none" stroke="rgb(0,0,0)" id="Drawing_16_0" stroke-linejoin="round" d="M 14050,8000 L 13900,8000 13900,7000 14200,7000 14200,8000 14050,8000 Z"/>
  </g>
  <g>
   <path fill="rgb(207,231,245)" stroke="none" d="M 14950,8000 L 14800,8000 14800,7500 15100,7500 15100,8000 14950,8000 Z"/>
   <path fill="none" stroke="rgb(0,0,0)" id="Drawing_17_0" stroke-linejoin="round" d="M 14950,8000 L 14800,8000 14800,7500 15100,7500 15100,8000 14950,8000 Z"/>
  </g>
  <g>
   <path fill="none" stroke="rgb(0,0,0)" id="Drawing_18_0" stroke-width="10" stroke-linejoin="round" d="M 1600,7750 L 2025,7750"/>
   <path fill="rgb(0,0,0)" stroke="none" id="Drawing_18_1" d="M 2200,7750 L 2025,7640 2025,7860 2200,7750 Z"/>
  </g>
  <g>
   <path fill="none" stroke="rgb(0,0,0)" id="Drawing_19_0" stroke-width="10" stroke-linejoin="round" d="M 2498,7750 L 2923,7750"/>
   <path fill="rgb(0,0,0)" stroke="none" id="Drawing_19_1" d="M 3098,7750 L 2923,7640 2923,7860 3098,7750 Z"/>
  </g>
  <g>
   <path fill="none" stroke="rgb(0,0,0)" id="Drawing_20_0" stroke-width="10" stroke-linejoin="round" d="M 3398,7750 L 3823,7750"/>
   <path fill="rgb(0,0,0)" stroke="none" id="Drawing_20_1" d="M 3998,7750 L 3823,7640 3823,7860 3998,7750 Z"/>
  </g>
  <g>
   <path fill="none" stroke="rgb(0,0,0)" id="Drawing_21_0" stroke-width="10" stroke-linejoin="round" d="M 4296,7750 L 4721,7750"/>
   <path fill="rgb(0,0,0)" stroke="none" id="Drawing_21_1" d="M 4896,7750 L 4721,7640 4721,7860 4896,7750 Z"/>
  </g>
  <g>
   <path fill="none" stroke="rgb(0,0,0)" id="Drawing_22_0" stroke-width="10" stroke-linejoin="round" d="M 5198,7750 L 5623,7750"/>
   <path fill="rgb(0,0,0)" stroke="none" id="Drawing_22_1" d="M 5798,7750 L 5623,7640 5623,7860 5798,7750 Z"/>
  </g>
  <g>
   <path fill="none" stroke="rgb(0,0,0)" id="Drawing_23_0" stroke-width="10" stroke-linejoin="round" d="M 6096,7750 L 6521,7750"/>
   <path fill="rgb(0,0,0)" stroke="none" id="Drawing_23_1" d="M 6696,7750 L 6521,7640 6521,7860 6696,7750 Z"/>
  </g>
  <g>
   <path fill="none" stroke="rgb(0,0,0)" id="Drawing_24_0" stroke-width="10" stroke-linejoin="round" d="M 6998,7750 L 7423,7750"/>
   <path fill="rgb(0,0,0)" stroke="none" id="Drawing_24_1" d="M 7598,7750 L 7423,7640 7423,7860 7598,7750 Z"/>
  </g>
  <g>
   <path fill="none" stroke="rgb(0,0,0)" id="Drawing_25_0" stroke-width="10" stroke-linejoin="round" d="M 7896,7750 L 8321,7750"/>
   <path fill="rgb(0,0,0)" stroke="none" id="Drawing_25_1" d="M 8496,7750 L 8321,7640 8321,7860 8496,7750 Z"/>
  </g>
  <g>
   <path fill="none" stroke="rgb(0,0,0)" id="Drawing_26_0" stroke-width="10" stroke-linejoin="round" d="M 8796,7750 L 9221,7750"/>
   <path fill="rgb(0,0,0)" stroke="none" id="Drawing_26_1" d="M 9396,7750 L 9221,7640 9221,7860 9396,7750 Z"/>
  </g>
  <g>
   <path fill="none" stroke="rgb(0,0,0)" id="Drawing_27_0" stroke-width="10" stroke-linejoin="round" d="M 9694,7750 L 10119,7750"/>
   <path fill="rgb(0,0,0)" stroke="none" id="Drawing_27_1" d="M 10294,7750 L 10119,7640 10119,7860 10294,7750 Z"/>
  </g>
  <g>
   <path fill="none" stroke="rgb(0,0,0)" id="Drawing_28_0" stroke-width="10" stroke-linejoin="round" d="M 10596,7750 L 11021,7750"/>
   <path fill="rgb(0,0,0)" stroke="none" id="Drawing_28_1" d="M 11196,7750 L 11021,7640 11021,7860 11196,7750 Z"/>
  </g>
  <g>
   <path fill="none" stroke="rgb(0,0,0)" id="Drawing_29_0" stroke-width="10" stroke-linejoin="round" d="M 11494,7800 L 11919,7800"/>
   <path fill="rgb(0,0,0)" stroke="none" id="Drawing_29_1" d="M 12094,7800 L 11919,7690 11919,7910 12094,7800 Z"/>
  </g>
  <g>
   <path fill="none" stroke="rgb(0,0,0)" id="Drawing_30_0" stroke-width="10" stroke-linejoin="round" d="M 12398,7750 L 12823,7750"/>
   <path fill="rgb(0,0,0)" stroke="none" id="Drawing_30_1" d="M 12998,7750 L 12823,7640 12823,7860 12998,7750 Z"/>
  </g>
  <g>
   <path fill="none" stroke="rgb(0,0,0)" id="Drawing_31_0" stroke-width="10" stroke-linejoin="round" d="M 13296,7750 L 13721,7750"/>
   <path fill="rgb(0,0,0)" stroke="none" id="Drawing_31_1" d="M 13896,7750 L 13721,7640 13721,7860 13896,7750 Z"/>
  </g>
  <g>
   <path fill="none" stroke="rgb(0,0,0)" id="Drawing_32_0" stroke-width="10" stroke-linejoin="round" d="M 14196,7750 L 14621,7750"/>
   <path fill="rgb(0,0,0)" stroke="none" id="Drawing_32_1" d="M 14796,7750 L 14621,7640 14621,7860 14796,7750 Z"/>
  </g>
  <g>
   <path fill="none" stroke="rgb(0,0,0)" id="Drawing_33_0" stroke-width="10" stroke-linejoin="round" d="M 1598,7250 L 2925,7250"/>
   <path fill="rgb(0,0,0)" stroke="none" id="Drawing_33_1" d="M 3100,7250 L 2925,7140 2925,7360 3100,7250 Z"/>
  </g>
  <g>
   <path fill="none" stroke="rgb(0,0,0)" id="Drawing_34_0" stroke-width="10" stroke-linejoin="round" d="M 1596,6750 L 4725,6750"/>
   <path fill="rgb(0,0,0)" stroke="none" id="Drawing_34_1" d="M 4900,6750 L 4725,6640 4725,6860 4900,6750 Z"/>
  </g>
  <g>
   <path fill="none" stroke="rgb(0,0,0)" id="Drawing_35_0" stroke-width="10" stroke-linejoin="round" d="M 1594,6250 L 8329,6250"/>
   <path fill="rgb(0,0,0)" stroke="none" id="Drawing_35_1" d="M 8504,6250 L 8329,6140 8329,6360 8504,6250 Z"/>
  </g>
  <g>
   <path fill="none" stroke="rgb(0,0,0)" id="Drawing_36_0" stroke-width="10" stroke-linejoin="round" d="M 3396,7250 L 4723,7250"/>
   <path fill="rgb(0,0,0)" stroke="none" id="Drawing_36_1" d="M 4898,7250 L 4723,7140 4723,7360 4898,7250 Z"/>
  </g>
  <g>
   <path fill="none" stroke="rgb(0,0,0)" id="Drawing_37_0" stroke-width="10" stroke-linejoin="round" d="M 6994,7250 L 8321,7250"/>
   <path fill="rgb(0,0,0)" stroke="none" id="Drawing_37_1" d="M 8496,7250 L 8321,7140 8321,7360 8496,7250 Z"/>
  </g>
  <g>
   <path fill="none" stroke="rgb(0,0,0)" id="Drawing_38_0" stroke-width="10" stroke-linejoin="round" d="M 8792,7250 L 10125,7250"/>
   <path fill="rgb(0,0,0)" stroke="none" id="Drawing_38_1" d="M 10300,7250 L 10125,7140 10125,7360 10300,7250 Z"/>
  </g>
  <g>
   <path fill="none" stroke="rgb(0,0,0)" id="Drawing_39_0" stroke-width="10" stroke-linejoin="round" d="M 12396,7250 L 13725,7250"/>
   <path fill="rgb(0,0,0)" stroke="none" id="Drawing_39_1" d="M 13900,7250 L 13725,7140 13725,7360 13900,7250 Z"/>
  </g>
  <g>
   <path fill="none" stroke="rgb(0,0,0)" id="Drawing_40_0" stroke-width="10" stroke-linejoin="round" d="M 8790,6750 L 11925,6750"/>
   <path fill="rgb(0,0,0)" stroke="none" id="Drawing_40_1" d="M 12100,6750 L 11925,6640 11925,6860 12100,6750 Z"/>
  </g>
  <g>
   <path fill="none" stroke="rgb(0,0,0)" id="Drawing_41_0" stroke-width="10" stroke-linejoin="round" d="M 10588,7250 L 11923,7250"/>
   <path fill="rgb(0,0,0)" stroke="none" id="Drawing_41_1" d="M 12098,7250 L 11923,7140 11923,7360 12098,7250 Z"/>
  </g>
  <g>
   <path fill="none" stroke="rgb(0,0,0)" id="Drawing_42_0" stroke-width="10" stroke-linejoin="round" d="M 5192,7250 L 6519,7250"/>
   <path fill="rgb(0,0,0)" stroke="none" id="Drawing_42_1" d="M 6694,7250 L 6519,7140 6519,7360 6694,7250 Z"/>
  </g>
  <g>
   <path fill="none" stroke="rgb(0,0,0)" id="Drawing_43_0" stroke-width="10" stroke-linejoin="round" d="M 5194,6750 L 8323,6750"/>
   <path fill="rgb(0,0,0)" stroke="none" id="Drawing_43_1" d="M 8498,6750 L 8323,6640 8323,6860 8498,6750 Z"/>
  </g>
 </g>
</svg>